<?xml version="1.0" encoding="UTF-8"?> <svg xmlns="http://www.w3.org/2000/svg" xmlns:xlink="http://www.w3.org/1999/xlink" id="Group_180" data-name="Group 180" width="1336" height="863" viewBox="0 0 1336 863"><defs><clipPath id="clip-path"><circle id="Ellipse_10" data-name="Ellipse 10" cx="78" cy="78" r="78" transform="translate(0.137 -0.127)" fill="#fff"></circle></clipPath><clipPath id="clip-path-2"><ellipse id="Ellipse_7" data-name="Ellipse 7" cx="81" cy="80.5" rx="81" ry="80.5" transform="translate(0.08 0.095)" fill="#fff"></ellipse></clipPath><clipPath id="clip-path-3"><circle id="Ellipse_9" data-name="Ellipse 9" cx="74.425" cy="74.425" r="74.425" transform="translate(0 0)" fill="#fff"></circle></clipPath><clipPath id="clip-path-4"><circle id="Ellipse_12" data-name="Ellipse 12" cx="77.969" cy="77.969" r="77.969" transform="translate(0 0)" fill="#fff"></circle></clipPath></defs><rect id="Rectangle_11" data-name="Rectangle 11" width="1336" height="863" fill="#fff" opacity="0.001"></rect><g id="Group_178" data-name="Group 178" transform="translate(-14 -11)"><path id="Path_189" data-name="Path 189" d="M269.774,361.574h981.26V757.86H416.642" transform="translate(-46.127 -157.975)" fill="none" stroke="#051c2c" stroke-width="4"></path><g id="Group_177" data-name="Group 177" transform="translate(160 75)"><path id="Path_20" data-name="Path 20" d="M108.436,255.423A127.92,127.92,0,0,1,.847,196.432a5.395,5.395,0,0,1,9.1-5.8,116.941,116.941,0,0,0,191.365,8.22,5.461,5.461,0,0,1,7.61-1.061,5.325,5.325,0,0,1,1.046,7.5l-4.279-3.279,4.25,3.317a126.915,126.915,0,0,1-101.5,50.1m103.182-188.2a5.384,5.384,0,0,1-4.549-2.49A116.948,116.948,0,0,0,15.739,56.573l-4.327-3.22L7.172,50.02a127.793,127.793,0,0,1,208.988,8.9,5.4,5.4,0,0,1-4.541,8.3M11.411,53.353h0Z" transform="translate(813.44 0)" fill="#1b54f8" stroke="#fff" stroke-width="8"></path><path id="Path_10" data-name="Path 10" d="M211.446,117.475A104.644,104.644,0,1,1,106.8,12.831,104.643,104.643,0,0,1,211.446,117.475" transform="translate(3.966 10.237)" fill="#fff"></path><path id="Path_22" data-name="Path 22" d="M211.446,117.475A104.644,104.644,0,1,1,106.8,12.831,104.643,104.643,0,0,1,211.446,117.475" transform="translate(815.364 10.237)" fill="#fff"></path><path id="Path_11" data-name="Path 11" d="M103.661,211.9a97.564,97.564,0,1,1,97.564-97.564A97.674,97.674,0,0,1,103.661,211.9m0-194.679a97.115,97.115,0,1,0,97.115,97.115,97.225,97.225,0,0,0-97.115-97.115" transform="translate(7.171 13.379)" stroke="#000" stroke-width="2"></path><path id="Path_23" data-name="Path 23" d="M103.661,211.9a97.564,97.564,0,1,1,97.564-97.564A97.674,97.674,0,0,1,103.661,211.9m0-194.679a97.115,97.115,0,1,0,97.115,97.115,97.225,97.225,0,0,0-97.115-97.115" transform="translate(818.569 13.379)" stroke="#000" stroke-width="2"></path><path id="Path_12" data-name="Path 12" d="M258.673,255.423a127.912,127.912,0,0,1-107.589-58.991,5.393,5.393,0,1,1,9.092-5.8,116.946,116.946,0,0,0,191.371,8.22,5.464,5.464,0,0,1,7.587-1.079,5.327,5.327,0,0,1,1.1,7.472c-.04.052-.176.23-.218.28a126.8,126.8,0,0,1-101.347,49.9M361.856,67.22a5.39,5.39,0,0,1-4.55-2.49,116.947,116.947,0,0,0-191.329-8.157c-.016.02-.031.041-.047.059a5.392,5.392,0,0,1-8.6-6.514c.022-.029.052-.07.084-.111A127.792,127.792,0,0,1,366.4,58.921a5.4,5.4,0,0,1-4.54,8.3" transform="translate(122.271 0)" fill="#1b54f8" stroke="#fff" stroke-width="8"></path><path id="Path_197" data-name="Path 197" d="M258.673,255.423a127.912,127.912,0,0,1-107.589-58.991,5.393,5.393,0,1,1,9.092-5.8,116.946,116.946,0,0,0,191.371,8.22,5.464,5.464,0,0,1,7.587-1.079,5.327,5.327,0,0,1,1.1,7.472c-.04.052-.176.23-.218.28a126.8,126.8,0,0,1-101.347,49.9M361.856,67.22a5.39,5.39,0,0,1-4.55-2.49,116.947,116.947,0,0,0-191.329-8.157c-.016.02-.031.041-.047.059a5.392,5.392,0,0,1-8.6-6.514c.022-.029.052-.07.084-.111A127.792,127.792,0,0,1,366.4,58.921a5.4,5.4,0,0,1-4.54,8.3" transform="translate(-147.908 0)" fill="#1b54f8" stroke="#fff" stroke-width="8"></path><path id="Path_14" data-name="Path 14" d="M361.683,117.475A104.644,104.644,0,1,1,257.039,12.831,104.645,104.645,0,0,1,361.683,117.475" transform="translate(124.195 10.237)" fill="#fff"></path><path id="Path_15" data-name="Path 15" d="M253.9,211.9a97.564,97.564,0,1,1,97.564-97.564A97.673,97.673,0,0,1,253.9,211.9m0-194.679a97.115,97.115,0,1,0,97.115,97.115A97.224,97.224,0,0,0,253.9,17.218" transform="translate(127.401 13.379)" stroke="#000" stroke-width="2"></path><path id="Path_16" data-name="Path 16" d="M408.909,255.423A127.92,127.92,0,0,1,301.32,196.432a5.393,5.393,0,1,1,9.092-5.8,116.946,116.946,0,0,0,191.371,8.22,5.463,5.463,0,0,1,7.609-1.061,5.326,5.326,0,0,1,1.05,7.5l-.108.138a126.861,126.861,0,0,1-101.424,50M512.092,67.22a5.39,5.39,0,0,1-4.55-2.49,116.947,116.947,0,0,0-191.329-8.157.752.752,0,0,1-.047.059,5.392,5.392,0,0,1-8.6-6.514c.022-.029.052-.07.084-.111a127.792,127.792,0,0,1,208.977,8.914,5.4,5.4,0,0,1-4.54,8.3" transform="translate(242.501 0)" fill="#1b54f8" stroke="#fff" stroke-width="8"></path><path id="Path_17" data-name="Path 17" d="M511.919,117.475A104.643,104.643,0,1,1,407.274,12.831,104.644,104.644,0,0,1,511.919,117.475" transform="translate(244.424 10.237)" fill="#fff"></path><path id="Path_18" data-name="Path 18" d="M404.133,211.9A97.564,97.564,0,1,1,501.7,114.333,97.674,97.674,0,0,1,404.133,211.9m0-194.679a97.115,97.115,0,1,0,97.115,97.115,97.225,97.225,0,0,0-97.115-97.115" transform="translate(247.631 13.379)" stroke="#000" stroke-width="2"></path><text id="Identify_the_problem" data-name="Identify the problem" transform="translate(0 305)" font-size="21" font-family="OpenSans-Semibold, Open Sans" font-weight="600"><tspan x="0" y="0">Identify the problem</tspan></text><text id="Gather_data" data-name="Gather data" transform="translate(316 305)" font-size="21" font-family="OpenSans-Semibold, Open Sans" font-weight="600"><tspan x="0" y="0">Gather data</tspan></text><text id="Clean_and_preprocess_data" data-name="Clean and preprocess data" transform="translate(645 305)" font-size="21" font-family="OpenSans-Semibold, Open Sans" font-weight="600"><tspan x="-50" y="0">Clean and</tspan><tspan x="-81" y="28">preprocess data</tspan></text><text id="Develop_and_train_the_model" data-name="Develop and train the model" transform="translate(917 305)" font-size="21" font-family="OpenSans-Semibold, Open Sans" font-weight="600"><tspan x="-89" y="0">Develop and train</tspan><tspan x="-51" y="28">the model</tspan></text><g id="Mask_Group_6" data-name="Mask Group 6" transform="translate(32.863 54.127)" clip-path="url(#clip-path)"><g id="Group_167" data-name="Group 167" transform="translate(21.504 21.936)"><path id="Path_165" data-name="Path 165" d="M349.7,102.86a17.163,17.163,0,0,0-17.145,17.145,4.022,4.022,0,0,0,8.044,0,9.1,9.1,0,1,1,9.1,9.1,4.019,4.019,0,0,0-4.022,4.022c0,.081.04.145.044.221s-.044.145-.044.225v8.37a4.022,4.022,0,1,0,8.044,0v-5.317A17.118,17.118,0,0,0,349.7,102.86Z" transform="translate(-280.261 -87.264)" fill="#1b54f8" stroke="#fff" stroke-width="4.8"></path><path id="Path_166" data-name="Path 166" d="M393.682,297.01a4.019,4.019,0,0,0-4.022,4.022v2.489a4.022,4.022,0,1,0,8.044,0v-2.489A4.02,4.02,0,0,0,393.682,297.01Z" transform="translate(-324.24 -236.793)" fill="#1b54f8" stroke="#fff" stroke-width="4.8"></path><path id="Path_167" data-name="Path 167" d="M174.45,35a43.116,43.116,0,0,0-32.879,71.078L131.211,116.4a12.37,12.37,0,0,0-13.663,2.28l-9,9A12.064,12.064,0,1,0,125.6,144.748l9-9a11.925,11.925,0,0,0,2.332-13.694l10.384-10.337A43.16,43.16,0,1,0,174.453,35Zm-45.533,95.062-9,9a4.112,4.112,0,0,1-5.687,0,4.014,4.014,0,0,1,0-5.683l9-9a4.014,4.014,0,0,1,5.686,0,4.015,4.015,0,0,1,0,5.683ZM174.45,113.3a35.129,35.129,0,1,1,35.126-35.131A35.166,35.166,0,0,1,174.45,113.3Z" transform="translate(-105.008 -34.999)" fill="#1b54f8" stroke="#fff" stroke-width="4.8"></path></g></g><g id="Mask_Group_1" data-name="Mask Group 1" transform="translate(300.92 50.905)" clip-path="url(#clip-path-2)"><g id="Group_169" data-name="Group 169" transform="translate(26.701 26.662)"><path id="Path_14-2" data-name="Path 14" d="M243.085,326.29a2.042,2.042,0,0,0-1.917,1.569c-.174.872.7,1.743,1.569,1.917,9.064.872,12.9,2.266,13.945,2.963-1.917,1.395-10.633,3.486-25.8,3.486s-23.882-2.092-25.8-3.486c1.22-.7,5.055-2.266,14.119-2.963a1.575,1.575,0,0,0,1.569-1.917,1.664,1.664,0,0,0-1.917-1.569c-17.606,1.569-17.606,5.229-17.606,6.45v31.376c0,2.266,9.081,5.105,14.659,6.326A1.741,1.741,0,0,0,218,369.047a1.765,1.765,0,0,0-1.395-2.092c-4.009-.872-11.7-3.014-11.87-3.188v-6.45c6.973,3.138,22.312,3.312,26.147,3.312s19.174-.174,26.147-3.312v6.624c-1.22,1.22-10.11,3.661-26.147,3.661a113.634,113.634,0,0,1-13.771-.7,1.752,1.752,0,1,0-.349,3.486,121.568,121.568,0,0,0,14.119.7c4.881,0,29.633-.349,29.633-6.973V332.739C260.517,331.519,260.517,327.859,243.085,326.29Zm13.945,16.734c-.349.174-1.394,1.046-5.752,2.092a1.808,1.808,0,0,0-1.395,2.092,1.849,1.849,0,0,0,2.092,1.394,20.894,20.894,0,0,0,4.881-1.394v6.45c-1.22,1.22-10.11,3.661-26.147,3.661s-24.926-2.44-26.147-3.661v-6.624c6.973,3.138,22.312,3.312,26.147,3.312a125.772,125.772,0,0,0,14.468-.7,2.042,2.042,0,0,0,1.569-1.917,1.9,1.9,0,0,0-1.917-1.569,116.617,116.617,0,0,1-13.945.7c-16.037,0-24.926-2.44-26.147-3.661v-6.624c6.973,3.138,22.312,3.312,26.147,3.312s19.174-.174,26.147-3.312Z" transform="translate(-176.846 -263.013)" fill="#1b54f8" stroke="#fff" stroke-width="0.4"></path><path id="Path_15-2" data-name="Path 15" d="M115.493,47.236h13.945a1.743,1.743,0,0,0,0-3.486H115.493a1.743,1.743,0,1,0,0,3.486Z" transform="translate(-106.777 -36.777)" fill="#1b54f8" stroke="#fff" stroke-width="0.4"></path><path id="Path_16-2" data-name="Path 16" d="M115.493,82.236h13.945a1.743,1.743,0,0,0,0-3.486H115.493a1.743,1.743,0,1,0,0,3.486Z" transform="translate(-106.777 -64.805)" fill="#1b54f8" stroke="#fff" stroke-width="0.4"></path><path id="Path_17-2" data-name="Path 17" d="M115.493,117.236h13.945a1.743,1.743,0,0,0,0-3.486H115.493a1.743,1.743,0,1,0,0,3.486Z" transform="translate(-106.777 -92.832)" fill="#1b54f8" stroke="#fff" stroke-width="0.4"></path><path id="Path_18-2" data-name="Path 18" d="M115.493,152.236h13.945a1.743,1.743,0,0,0,0-3.486H115.493a1.743,1.743,0,1,0,0,3.486Z" transform="translate(-106.777 -120.86)" fill="#1b54f8" stroke="#fff" stroke-width="0.4"></path><path id="Path_19" data-name="Path 19" d="M272.993,138.618a1.647,1.647,0,0,0,1.743-1.743v-9.127a1.743,1.743,0,0,0-3.486,0v9.127A1.747,1.747,0,0,0,272.993,138.618Z" transform="translate(-232.901 -102.646)" fill="#1b54f8" stroke="#fff" stroke-width="0.4"></path><path id="Path_20-2" data-name="Path 20" d="M307.993,47.236h13.945a1.743,1.743,0,0,0,0-3.486H307.993a1.743,1.743,0,1,0,0,3.486Z" transform="translate(-260.928 -36.777)" fill="#1b54f8" stroke="#fff" stroke-width="0.4"></path><path id="Path_21" data-name="Path 21" d="M307.993,82.236h13.945a1.743,1.743,0,1,0,0-3.486H307.993a1.743,1.743,0,1,0,0,3.486Z" transform="translate(-260.928 -64.805)" fill="#1b54f8" stroke="#fff" stroke-width="0.4"></path><path id="Path_22-2" data-name="Path 22" d="M307.993,117.236h13.945a1.743,1.743,0,0,0,0-3.486H307.993a1.743,1.743,0,1,0,0,3.486Z" transform="translate(-260.928 -92.832)" fill="#1b54f8" stroke="#fff" stroke-width="0.4"></path><path id="Path_23-2" data-name="Path 23" d="M307.993,152.236h13.945a1.743,1.743,0,1,0,0-3.486H307.993a1.743,1.743,0,1,0,0,3.486Z" transform="translate(-260.928 -120.86)" fill="#1b54f8" stroke="#fff" stroke-width="0.4"></path><path id="Path_24" data-name="Path 24" d="M185.081,13.979a1.647,1.647,0,0,0,1.743-1.743V10.493a1.647,1.647,0,0,0-1.743-1.743h-27.89a1.647,1.647,0,0,0-1.743,1.743V45.356a1.647,1.647,0,0,0,1.743,1.743h12.2V57.558H134.53V47.1h12.2a1.647,1.647,0,0,0,1.743-1.743V10.493a1.647,1.647,0,0,0-1.743-1.743h-27.89a1.647,1.647,0,0,0-1.743,1.743V33.329a1.743,1.743,0,0,0,3.486,0V12.236h24.4V43.613h-24.4a1.743,1.743,0,0,0-3.486,0v1.743a1.647,1.647,0,0,0,1.743,1.743h12.2V57.558H96.181V47.1h12.2a1.647,1.647,0,0,0,1.743-1.743V10.493a1.647,1.647,0,0,0-1.743-1.743H80.493a1.647,1.647,0,0,0-1.743,1.743V20.778a1.743,1.743,0,1,0,3.486,0V12.236h24.4V43.613h-24.4V20.094a1.743,1.743,0,1,0-3.486,0V45.356A1.647,1.647,0,0,0,80.493,47.1H92.7V59.3a1.647,1.647,0,0,0,1.743,1.743h36.606v11.5l-4.009-4.009a1.726,1.726,0,0,0-2.44,2.44l6.973,6.973a1.938,1.938,0,0,0,2.44,0l6.973-6.973a1.726,1.726,0,0,0-2.44-2.44l-4.009,4.009v-11.5h36.606a1.647,1.647,0,0,0,1.743-1.743V47.1h12.2a1.647,1.647,0,0,0,1.743-1.743V12.234a1.743,1.743,0,1,0-3.486,0V43.611h-24.4V12.234h24.4a1.647,1.647,0,0,0,1.743,1.743Z" transform="translate(-78.75 -8.75)" fill="#1b54f8" stroke="#fff" stroke-width="0.4"></path><path id="Path_25" data-name="Path 25" d="M514.438,43.75H500.493a1.743,1.743,0,1,0,0,3.486h13.945a1.743,1.743,0,1,0,0-3.486Z" transform="translate(-415.079 -36.777)" fill="#1b54f8" stroke="#fff" stroke-width="0.4"></path><path id="Path_26" data-name="Path 26" d="M514.438,78.75H500.493a1.743,1.743,0,1,0,0,3.486h13.945a1.743,1.743,0,1,0,0-3.486Z" transform="translate(-415.079 -64.805)" fill="#1b54f8" stroke="#fff" stroke-width="0.4"></path><path id="Path_27" data-name="Path 27" d="M514.438,113.75H500.493a1.743,1.743,0,1,0,0,3.486h13.945a1.743,1.743,0,1,0,0-3.486Z" transform="translate(-415.079 -92.832)" fill="#1b54f8" stroke="#fff" stroke-width="0.4"></path><path id="Path_28" data-name="Path 28" d="M514.438,148.75H500.493a1.743,1.743,0,1,0,0,3.486h13.945a1.743,1.743,0,1,0,0-3.486Z" transform="translate(-415.079 -120.86)" fill="#1b54f8" stroke="#fff" stroke-width="0.4"></path></g></g><g id="Group_170" data-name="Group 170" transform="translate(575.553 69.599)"><path id="Path_169" data-name="Path 169" d="M208.291,199.308H197.139a29.249,29.249,0,0,0-2.855-6.924l7.876-7.88a7.747,7.747,0,0,0-10.952-10.961l-7.885,7.882a29.122,29.122,0,0,0-6.922-2.859V167.414a7.746,7.746,0,0,0-15.493,0v11.153a29.286,29.286,0,0,0-6.922,2.859l-7.88-7.882A7.749,7.749,0,0,0,135.149,184.5l7.877,7.879a29.343,29.343,0,0,0-2.855,6.927H129.017a7.746,7.746,0,1,0,0,15.493H140.17a29.356,29.356,0,0,0,2.855,6.921l-7.877,7.877A7.749,7.749,0,0,0,146.1,240.562l7.88-7.879a29.037,29.037,0,0,0,6.922,2.858v11.153a7.746,7.746,0,1,0,15.493,0V235.541a28.9,28.9,0,0,0,6.922-2.863l7.885,7.884A7.747,7.747,0,0,0,202.157,229.6l-7.876-7.877a29.473,29.473,0,0,0,2.855-6.921h11.153a7.748,7.748,0,0,0,0-15.5Zm-39.636,22.94a15.194,15.194,0,1,1,15.2-15.191A15.191,15.191,0,0,1,168.655,222.248Z" transform="translate(-121.27 -138.214)" fill="none" stroke="#1b54f8" stroke-width="3"></path><path id="Path_170" data-name="Path 170" d="M431.66,134.807l-8.776-2.87a24.118,24.118,0,0,0-.467-6.178l8.229-4.172a6.414,6.414,0,1,0-5.8-11.442l-8.225,4.172a24.239,24.239,0,0,0-4.708-4.033l2.868-8.771a6.412,6.412,0,1,0-12.189-3.987l-2.869,8.775a23.83,23.83,0,0,0-6.177.463l-4.177-8.229a6.412,6.412,0,0,0-11.438,5.8l4.167,8.225a24.415,24.415,0,0,0-4.03,4.711L369.3,114.4a6.413,6.413,0,1,0-3.987,12.191l8.77,2.868a24.263,24.263,0,0,0,.47,6.182l-8.225,4.17a6.413,6.413,0,1,0,5.8,11.442l8.225-4.175a23.811,23.811,0,0,0,4.71,4.027l-2.865,8.781a6.409,6.409,0,1,0,12.181,3.988l2.874-8.775a23.961,23.961,0,0,0,6.188-.468l4.167,8.23a6.411,6.411,0,0,0,11.438-5.8l-4.169-8.23a24.072,24.072,0,0,0,4.03-4.707L427.674,147a6.413,6.413,0,0,0,3.986-12.191Zm-33.181,5.985A10.091,10.091,0,1,1,408.574,130.7,10.091,10.091,0,0,1,398.479,140.792Z" transform="translate(-283.657 -93.103)" fill="none" stroke="#1b54f8" stroke-width="3"></path></g><g id="noun-deployment-4562661" transform="translate(865.055 71.008)"><path id="Path_182" data-name="Path 182" d="M336.614,192.5a4.113,4.113,0,0,0-4.114,4.114v4.114a4.114,4.114,0,1,0,8.227,0v-4.114A4.113,4.113,0,0,0,336.614,192.5Z" transform="translate(-279.023 -155.477)" fill="#1b54f8" stroke="#fff" stroke-width="5"></path><path id="Path_183" data-name="Path 183" d="M389.114,192.5A4.113,4.113,0,0,0,385,196.614v4.114a4.114,4.114,0,1,0,8.227,0v-4.114A4.113,4.113,0,0,0,389.114,192.5Z" transform="translate(-319.182 -155.477)" fill="#1b54f8" stroke="#fff" stroke-width="5"></path><path id="Path_184" data-name="Path 184" d="M441.614,192.5a4.113,4.113,0,0,0-4.114,4.114v4.114a4.114,4.114,0,1,0,8.227,0v-4.114A4.113,4.113,0,0,0,441.614,192.5Z" transform="translate(-359.341 -155.477)" fill="#1b54f8" stroke="#fff" stroke-width="5"></path><path id="Path_185" data-name="Path 185" d="M336.614,315a4.113,4.113,0,0,0-4.114,4.114v4.114a4.114,4.114,0,1,0,8.227,0v-4.114A4.113,4.113,0,0,0,336.614,315Z" transform="translate(-279.023 -249.182)" fill="#1b54f8" stroke="#fff" stroke-width="5"></path><path id="Path_186" data-name="Path 186" d="M389.114,315A4.113,4.113,0,0,0,385,319.114v4.114a4.114,4.114,0,1,0,8.227,0v-4.114A4.113,4.113,0,0,0,389.114,315Z" transform="translate(-319.182 -249.182)" fill="#1b54f8" stroke="#fff" stroke-width="5"></path><path id="Path_187" data-name="Path 187" d="M441.614,315a4.113,4.113,0,0,0-4.114,4.114v4.114a4.114,4.114,0,1,0,8.227,0v-4.114A4.113,4.113,0,0,0,441.614,315Z" transform="translate(-359.341 -249.182)" fill="#1b54f8" stroke="#fff" stroke-width="5"></path><path id="Path_188" data-name="Path 188" d="M216.069,51.455a4.113,4.113,0,0,0,4.114-4.114V39.114A4.113,4.113,0,0,0,216.069,35h-8.227a4.093,4.093,0,0,0-1.42,7.939L189.68,59.682H135.5L118.757,42.939A4.092,4.092,0,0,0,117.342,35h-8.227A4.113,4.113,0,0,0,105,39.114v8.227a4.1,4.1,0,0,0,7.944,1.42l13.411,13.411a12.29,12.29,0,0,0-4.9,9.852v41.3a12.1,12.1,0,0,0,4.822,9.766L112.94,136.422a4.093,4.093,0,0,0-7.939,1.42v8.227a4.113,4.113,0,0,0,4.114,4.114h8.227a4.092,4.092,0,0,0,1.415-7.939L135.5,125.5h54.185l16.743,16.743a4.091,4.091,0,0,0,1.414,7.939h8.227a4.113,4.113,0,0,0,4.114-4.114v-8.227a4.093,4.093,0,0,0-7.939-1.42l-13.476-13.476a12.107,12.107,0,0,0,4.8-9.609l.16-41.477a12.139,12.139,0,0,0-4.891-9.7l13.406-13.4a4.086,4.086,0,0,0,3.826,2.7Zm-24.682,65.818H133.472a3.83,3.83,0,0,1-3.789-3.949V96.7H195.4l-.066,16.619a3.954,3.954,0,0,1-3.948,3.949Zm4.048-28.8H129.682V71.859a3.994,3.994,0,0,1,4.114-3.949h57.756a3.953,3.953,0,0,1,3.949,3.936Z" transform="translate(-105.001 -35)" fill="#1b54f8" stroke="#fff" stroke-width="5"></path></g><path id="Path_31" data-name="Path 31" d="M258.673,255.423a127.912,127.912,0,0,1-107.589-58.991,5.393,5.393,0,1,1,9.092-5.8,116.946,116.946,0,0,0,191.371,8.22,5.464,5.464,0,0,1,7.587-1.079,5.327,5.327,0,0,1,1.1,7.472c-.04.052-.176.23-.218.28a126.8,126.8,0,0,1-101.347,49.9M361.856,67.22a5.39,5.39,0,0,1-4.55-2.49,116.947,116.947,0,0,0-191.329-8.157c-.016.02-.031.041-.047.059a5.392,5.392,0,0,1-8.6-6.514c.022-.029.052-.07.084-.111A127.792,127.792,0,0,1,366.4,58.921a5.4,5.4,0,0,1-4.54,8.3" transform="translate(257.48 396.286)" fill="#1b54f8" stroke="#fff" stroke-width="8"></path><path id="Path_32" data-name="Path 32" d="M361.683,117.475A104.644,104.644,0,1,1,257.039,12.831,104.645,104.645,0,0,1,361.683,117.475" transform="translate(259.404 406.524)" fill="#fff"></path><path id="Path_33" data-name="Path 33" d="M253.9,211.9a97.564,97.564,0,1,1,97.564-97.564A97.673,97.673,0,0,1,253.9,211.9m0-194.679a97.115,97.115,0,1,0,97.115,97.115A97.224,97.224,0,0,0,253.9,17.218" transform="translate(262.61 409.666)" stroke="#000001" stroke-width="2"></path><path id="Path_28-2" data-name="Path 28" d="M408.909,255.423A127.92,127.92,0,0,1,301.32,196.432a5.393,5.393,0,1,1,9.092-5.8,116.946,116.946,0,0,0,191.371,8.22,5.463,5.463,0,0,1,7.609-1.061,5.326,5.326,0,0,1,1.05,7.5l-.108.138a126.861,126.861,0,0,1-101.424,50M512.092,67.22a5.39,5.39,0,0,1-4.55-2.49,116.947,116.947,0,0,0-191.329-8.157.752.752,0,0,1-.047.059,5.392,5.392,0,0,1-8.6-6.514c.022-.029.052-.07.084-.111a127.792,127.792,0,0,1,208.977,8.914,5.4,5.4,0,0,1-4.54,8.3" transform="translate(376.69 396.286)" fill="#1b54f8" stroke="#fff" stroke-width="8"></path><path id="Path_29" data-name="Path 29" d="M511.919,117.475A104.643,104.643,0,1,1,407.274,12.831,104.644,104.644,0,0,1,511.919,117.475" transform="translate(378.612 406.524)" fill="#fff"></path><path id="Path_30" data-name="Path 30" d="M404.133,211.9A97.564,97.564,0,1,1,501.7,114.333,97.674,97.674,0,0,1,404.133,211.9m0-194.679a97.115,97.115,0,1,0,97.115,97.115,97.225,97.225,0,0,0-97.115-97.115" transform="translate(381.82 409.666)" stroke="#000" stroke-width="2"></path><text id="Deploy_the_model" data-name="Deploy the model" transform="translate(420.695 701.164)" font-size="21" font-family="OpenSans-Semibold, Open Sans" font-weight="600"><tspan x="0" y="0">Deploy the model</tspan></text><text id="Monitor_and_update_the_model" data-name="Monitor and update the model" transform="translate(234.253 701.164)" font-size="21" font-family="OpenSans-Semibold, Open Sans" font-weight="600"><tspan x="-101" y="0">Monitor and update</tspan><tspan x="-51" y="28">the model</tspan></text><g id="Mask_Group_3" data-name="Mask Group 3" transform="translate(441.314 450.413)" clip-path="url(#clip-path-3)"><g id="Group_165" data-name="Group 165" transform="translate(17.103 29.242)"><path id="Path_87" data-name="Path 87" d="M184.151,68.879H101.406A15.728,15.728,0,0,0,85.679,84.606v59.761a15.728,15.728,0,0,0,15.727,15.727h82.746a15.728,15.728,0,0,0,15.727-15.727V84.606a15.728,15.728,0,0,0-15.727-15.727Zm-82.867,7.259h82.867a8.467,8.467,0,0,1,8.468,8.468v9.556H92.937V84.606a8.467,8.467,0,0,1,8.468-8.468Zm82.867,76.7H101.406a8.467,8.467,0,0,1-8.468-8.468V101.3H192.62v43.066a8.467,8.467,0,0,1-8.468,8.468Z" transform="translate(-85.679 -68.879)" fill="#1b54f8" stroke="#fff" stroke-width="4"></path><path id="Path_88" data-name="Path 88" d="M156.652,122.844a5.807,5.807,0,1,1-5.806-5.807,5.807,5.807,0,0,1,5.806,5.807" transform="translate(-132.215 -106.634)" fill="#1b54f8" stroke="#fff" stroke-width="4"></path><path id="Path_89" data-name="Path 89" d="M226.095,122.844a5.806,5.806,0,1,1-5.806-5.807,5.806,5.806,0,0,1,5.806,5.807" transform="translate(-186.658 -106.634)" fill="#1b54f8" stroke="#fff" stroke-width="4"></path><path id="Path_90" data-name="Path 90" d="M298.9,122.844a5.806,5.806,0,1,1-5.807-5.807,5.807,5.807,0,0,1,5.807,5.807" transform="translate(-243.731 -106.634)" fill="#1b54f8" stroke="#fff" stroke-width="4"></path><path id="Path_91" data-name="Path 91" d="M223.339,262.337a3.63,3.63,0,0,0-5.081-.241L204.1,275.282a3.629,3.629,0,0,0,0,5.323l14.154,13.065a3.638,3.638,0,0,0,4.96-5.323l-11.25-10.4,11.25-10.4a3.63,3.63,0,0,0,.121-5.2Z" transform="translate(-177.61 -219.633)" fill="#1b54f8" stroke="#fff" stroke-width="4"></path><path id="Path_92" data-name="Path 92" d="M403.957,262.457A3.638,3.638,0,0,0,399,267.78l11.25,10.4L399,288.587a3.638,3.638,0,0,0,4.96,5.323l14.154-13.065a3.629,3.629,0,0,0,0-5.323Z" transform="translate(-330.405 -219.874)" fill="#1b54f8" stroke="#fff" stroke-width="4"></path><path id="Path_93" data-name="Path 93" d="M320.426,225.89a3.63,3.63,0,0,0-4.355,2.661L305.3,270.287a3.628,3.628,0,0,0,2.661,4.476h.847a3.63,3.63,0,0,0,3.629-2.661l10.645-41.857a3.629,3.629,0,0,0-2.661-4.355Z" transform="translate(-257.762 -191.896)" fill="#1b54f8" stroke="#fff" stroke-width="4"></path></g></g><path id="Path_21-2" data-name="Path 21" d="M258.673,255.423a127.912,127.912,0,0,1-107.589-58.991,5.393,5.393,0,1,1,9.092-5.8,116.946,116.946,0,0,0,191.371,8.22,5.464,5.464,0,0,1,7.587-1.079,5.327,5.327,0,0,1,1.1,7.472c-.04.052-.176.23-.218.28a126.8,126.8,0,0,1-101.347,49.9M361.856,67.22a5.39,5.39,0,0,1-4.55-2.49,116.947,116.947,0,0,0-191.329-8.157c-.016.02-.031.041-.047.059a5.392,5.392,0,0,1-8.6-6.514c.022-.029.052-.07.084-.111A127.792,127.792,0,0,1,366.4,58.921a5.4,5.4,0,0,1-4.54,8.3" transform="translate(-12.986 396.286)" fill="#1b54f8" stroke="#fff" stroke-width="8"></path><path id="Path_24-2" data-name="Path 24" d="M361.683,117.475A104.644,104.644,0,1,1,257.039,12.831,104.645,104.645,0,0,1,361.683,117.475" transform="translate(-11.062 406.524)" fill="#fff"></path><path id="Path_25-2" data-name="Path 25" d="M253.9,211.9a97.564,97.564,0,1,1,97.564-97.564A97.673,97.673,0,0,1,253.9,211.9m0-194.679a97.115,97.115,0,1,0,97.115,97.115A97.224,97.224,0,0,0,253.9,17.218" transform="translate(-7.856 409.666)" stroke="#000" stroke-width="2"></path><text id="Validate_and_test_the_model" data-name="Validate and test the model" transform="translate(782.03 701.164)" font-size="21" font-family="OpenSans-Semibold, Open Sans" font-weight="600"><tspan x="-85" y="0">Validate and test</tspan><tspan x="-51" y="28">the model</tspan></text><g id="Mask_Group_4" data-name="Mask Group 4" transform="translate(707.698 446.869)" clip-path="url(#clip-path-4)"><g id="Group_168" data-name="Group 168" transform="translate(23.435 26.717)"><path id="Path_168" data-name="Path 168" d="M134.806,109.655a1.069,1.069,0,0,1-1.5-1.524l4.477-4.477-4.477-4.477a1.07,1.07,0,0,1,1.5-1.524l4.477,4.477,4.477-4.477a1.069,1.069,0,0,1,1.5,1.524l-4.477,4.477,4.477,4.477a1.07,1.07,0,0,1-1.5,1.524l-4.477-4.477ZM131.258,93.51h17.1a1.067,1.067,0,0,1,1.072,1.072v18.17a1.067,1.067,0,0,1-1.072,1.072h-18.17a1.067,1.067,0,0,1-1.072-1.072v-17.1H112.04a1.067,1.067,0,0,1-1.072-1.072V76.411a1.067,1.067,0,0,1,1.072-1.072h18.17a1.067,1.067,0,0,1,1.072,1.072v17.1Zm16.026,2.143H131.258v16.026h16.026ZM114.826,85.461a1.071,1.071,0,0,1,.238-1.5,1.04,1.04,0,0,1,1.476.238l2.548,3.477,6.573-8.1a1.066,1.066,0,1,1,1.643,1.357c-.81,1-7.358,9.144-7.644,9.359a1.051,1.051,0,0,1-1.5-.238Zm14.288-7.978H113.088V93.509h16.026ZM188.34,58.051h11.5a1.067,1.067,0,0,1,1.072,1.072V70.6a1.067,1.067,0,0,1-1.072,1.072h-11.5a1.067,1.067,0,0,1-1.072-1.072V59.123A1.067,1.067,0,0,1,188.34,58.051Zm10.43,2.143h-9.359v9.359h9.359Zm-10.43,48.485h11.5a1.067,1.067,0,0,1,1.072,1.072v11.478a1.067,1.067,0,0,1-1.072,1.072h-11.5a1.067,1.067,0,0,1-1.072-1.072V109.751A1.067,1.067,0,0,1,188.34,108.679Zm10.43,2.143h-9.359v9.359h9.359ZM188.34,83.365h11.5a1.067,1.067,0,0,1,1.072,1.072V95.915a1.067,1.067,0,0,1-1.072,1.072h-11.5a1.067,1.067,0,0,1-1.072-1.072V84.437A1.067,1.067,0,0,1,188.34,83.365Zm10.43,2.143h-9.359v9.359h9.359Zm-18.146,14.24a1.072,1.072,0,0,1,0,2.143H166.764a1.072,1.072,0,0,1,0-2.143Zm-6.858,32.482a1.072,1.072,0,0,1,0,2.143H151.595a1.072,1.072,0,0,1,0-2.143Zm6.858-72.7a1.072,1.072,0,0,1,0,2.143h-28.5a1.072,1.072,0,0,1,0-2.143Zm0,20.122a1.072,1.072,0,0,1,0,2.143H166.741a1.072,1.072,0,0,1,0-2.143Zm0-10.073a1.072,1.072,0,0,1,0,2.143H162.359a1.072,1.072,0,0,1,0-2.143Zm0,20.122a1.072,1.072,0,0,1,0,2.143H166.764a1.072,1.072,0,0,1,0-2.143Zm0,30.148a1.072,1.072,0,0,1,0,2.143H166.741a1.072,1.072,0,0,1,0-2.143Zm0-10.049a1.072,1.072,0,0,1,0,2.143H166.741a1.072,1.072,0,0,1,0-2.143ZM131.259,63.625a30.988,30.988,0,0,1,0,61.94v18.5h60.057V130.185a1.067,1.067,0,0,1,1.072-1.072h13.883V45.1H131.259Zm-2.143,61.938a30.989,30.989,0,0,1,0-61.94V44.048a1.067,1.067,0,0,1,1.072-1.072h77.157a1.067,1.067,0,0,1,1.072,1.072v86.134a1.1,1.1,0,0,1-.31.762l-15.05,15.05-.667.214h-62.2a1.067,1.067,0,0,1-1.072-1.072ZM150.6,74.174a28.845,28.845,0,1,0,0,40.793A28.846,28.846,0,0,0,150.6,74.174Zm54.152,57.081H193.46v11.288Z" transform="translate(-99.205 -42.976)" fill="#1b54f8" stroke="#1b54f8" stroke-width="1"></path></g></g><g id="Group_176" data-name="Group 176" transform="translate(187.986 467.117)"><path id="Path_179" data-name="Path 179" d="M274.249,224.747a20.5,20.5,0,1,0-20.5-20.5A20.522,20.522,0,0,0,274.249,224.747Zm0-3.727a16.791,16.791,0,0,1-16.662-14.908h6.082l5.24,13.1,5.536-18.45,5.149,13.732,5.123-10.246h6.3a16.791,16.791,0,0,1-16.772,16.772Zm0-33.543a16.791,16.791,0,0,1,16.339,13.045h-8.174l-2.329,4.662L274.052,189.1l-5.645,18.82-2.215-5.535h-8.605A16.791,16.791,0,0,1,274.249,187.477Z" transform="translate(-216.48 -146.48)" fill="#1b54f8" stroke="#fff" stroke-width="1"></path><path id="Path_180" data-name="Path 180" d="M184.969,8.75H140.245a9.328,9.328,0,0,0-9.318,9.318v.785a29.814,29.814,0,1,0-22.362,49.53c.032,0,.063,0,.095,0a27.731,27.731,0,0,0,3.727,12.182L106.7,86.246l-1.864-1.864L81.612,107.609a9.77,9.77,0,0,0,13.816,13.818L118.655,98.2l-1.864-1.864,5.685-5.685a27.728,27.728,0,0,0,8.451,3.258v6.154a9.328,9.328,0,0,0,9.318,9.318H184.97a9.328,9.328,0,0,0,9.318-9.318V18.067A9.328,9.328,0,0,0,184.97,8.75ZM130.928,39.128a27.981,27.981,0,0,0-15.886,9.525,9.426,9.426,0,0,0-.885-.759V41.556a23.977,23.977,0,0,0-4.04-13.342l-1.551-2.326-1.551,2.326a23.984,23.984,0,0,0-4.04,13.342V47.93a9.3,9.3,0,0,0-3.539,5.542H87.185A25.91,25.91,0,0,1,82.57,40.427H89.93V36.7H82.571a25.938,25.938,0,0,1,6.3-15.2l5.2,5.2,2.635-2.635-5.2-5.2a25.943,25.943,0,0,1,15.2-6.3v7.36h3.727V12.547a26.2,26.2,0,0,1,15.21,6.308l-5.214,5.214,2.635,2.635,5.218-5.218a26.056,26.056,0,0,1,2.65,3.656ZM111.816,53.474h-8.5a5.523,5.523,0,0,1,9.5-1.7C112.468,52.33,112.123,52.89,111.816,53.474Zm-1.387-7.244a9.15,9.15,0,0,0-1.864-.21,9.3,9.3,0,0,0-1.864.188V41.556a20.227,20.227,0,0,1,1.864-8.5,20.24,20.24,0,0,1,1.864,8.5ZM90.342,57.2H110.2a27.671,27.671,0,0,0-1.536,7.451c-.032,0-.063,0-.095,0A25.989,25.989,0,0,1,90.343,57.2Zm46.177-14.908a24.226,24.226,0,1,1-24.226,24.226A24.254,24.254,0,0,1,136.519,42.293Zm5.591,51.616a27.544,27.544,0,0,0,3.727-1.068v1.631H179.38V79.563H161.221a27.676,27.676,0,0,0,1.617-3.727H179.38V60.928H163.909a27.546,27.546,0,0,0-1.068-3.727H179.38V42.293H150.4a27.755,27.755,0,0,0-8.294-3.165v-19.2h41V98.2h-41ZM158.829,83.29h16.824v7.454H150.4a28.13,28.13,0,0,0,8.425-7.454ZM155.46,46.02h20.193v7.454H161.221a28.079,28.079,0,0,0-5.762-7.454Zm8.917,18.635h11.276v7.454H163.909a28.084,28.084,0,0,0,.562-5.591c0-.63-.054-1.245-.095-1.863ZM92.795,118.79a6.042,6.042,0,1,1-8.546-8.544L104.84,89.652l8.546,8.546ZM114.158,93.7l-4.819-4.819,5.179-5.179a28.219,28.219,0,0,0,4.819,4.819Zm76.4,6.362a5.6,5.6,0,0,1-5.591,5.591H140.247a5.6,5.6,0,0,1-5.591-5.591V94.376c.619.041,1.234.095,1.864.095s1.245-.054,1.864-.095V98.2a3.73,3.73,0,0,0,3.727,3.727h41a3.73,3.73,0,0,0,3.727-3.727V19.931a3.73,3.73,0,0,0-3.727-3.727h-41a3.73,3.73,0,0,0-3.727,3.727v18.73c-.619-.041-1.234-.095-1.864-.095s-1.245.054-1.864.095V18.067a5.6,5.6,0,0,1,5.591-5.591h44.724a5.6,5.6,0,0,1,5.591,5.591Z" transform="translate(-78.749 -8.75)" fill="#1b54f8" stroke="#fff" stroke-width="1"></path><path id="Path_181" data-name="Path 181" d="M393.75,93.658h33.543V78.75H393.75Zm3.727-11.181h26.089v7.454H397.477Z" transform="translate(-326.664 -63.842)" fill="#1b54f8" stroke="#fff" stroke-width="1"></path></g><path id="Path_191" data-name="Path 191" d="M-145.638,356l10.595,9.384s-10.369,8.923-10.595,9.3" transform="translate(411.995 -236.745)" fill="none" stroke="#051c2c" stroke-linecap="round" stroke-width="4"></path><path id="Path_192" data-name="Path 192" d="M-145.638,356l10.595,9.384s-10.369,8.923-10.595,9.3" transform="translate(683.274 -236.745)" fill="none" stroke="#051c2c" stroke-linecap="round" stroke-width="4"></path><path id="Path_193" data-name="Path 193" d="M-145.638,356l10.595,9.384s-10.369,8.923-10.595,9.3" transform="translate(952.62 -236.745)" fill="none" stroke="#051c2c" stroke-linecap="round" stroke-width="4"></path><path id="Path_194" data-name="Path 194" d="M-135.043,356l-10.594,9.384s10.369,8.923,10.594,9.3" transform="translate(1036.168 159.542)" fill="none" stroke="#051c2c" stroke-linecap="round" stroke-width="4"></path><path id="Path_195" data-name="Path 195" d="M-135.043,356l-10.594,9.384s10.369,8.923,10.594,9.3" transform="translate(765.066 159.542)" fill="none" stroke="#051c2c" stroke-linecap="round" stroke-width="4"></path><path id="Path_196" data-name="Path 196" d="M-135.043,356l-10.594,9.384s10.369,8.923,10.594,9.3" transform="translate(495.62 159.542)" fill="none" stroke="#051c2c" stroke-linecap="round" stroke-width="4"></path></g></g></svg> 