<?xml version="1.0" encoding="UTF-8"?> <svg xmlns="http://www.w3.org/2000/svg" id="Group_8" data-name="Group 8" width="365" height="250" viewBox="0 0 365 250"><rect id="Rectangle_55" data-name="Rectangle 55" width="365" height="250" fill="#051c2c"></rect><text id="Medical_imaging" data-name="Medical imaging" transform="translate(106 21)" fill="#fff" font-size="13" font-family="OpenSans, Open Sans"><tspan x="-23" y="0">Medical</tspan><tspan x="-24" y="18">Imaging</tspan></text><text id="Personalised_Medicine" data-name="Personalised Medicine" transform="translate(106 221)" fill="#fff" font-size="13" font-family="OpenSans, Open Sans"><tspan x="-38" y="0">Personalised</tspan><tspan x="-27" y="18">Medicine</tspan></text><text id="Population_health_management" data-name="Population health management" transform="translate(263 221)" fill="#fff" font-size="13" font-family="OpenSans, Open Sans"><tspan x="-54" y="0">Population Health</tspan><tspan x="-40" y="18">Management</tspan></text><text id="Drug_Discovery" data-name="Drug Discovery" transform="translate(263 21)" fill="#fff" font-size="13" font-family="OpenSans, Open Sans"><tspan x="-14" y="0">Drug</tspan><tspan x="-29" y="18">Discovery</tspan></text><g id="Subtraction_1" data-name="Subtraction 1" transform="translate(105 65)" fill="none"><path d="M61,120H0V0H61a6.007,6.007,0,0,1,6,6V114A6.007,6.007,0,0,1,61,120Z" stroke="none"></path><path d="M 60.99932479858398 118.9996948242188 C 63.75649261474609 118.9996948242188 65.99961090087891 116.7565765380859 65.99961090087891 113.9994125366211 L 65.99961090087891 6.00031042098999 C 65.99961090087891 3.24312686920166 63.75649261474609 0.999993622303009 60.99932479858398 0.999993622303009 L 1.000009298324585 1.000010013580322 L 1.000009298324585 118.9996948242188 L 60.99932479858398 118.9996948242188 M 60.99932479858398 119.9996948242188 L 9.265137123293243e-06 119.9996948242188 L 9.265137123293243e-06 1.026407880999614e-05 L 60.99932479858398 -6.402588041964918e-06 C 64.30789184570312 -6.402588041964918e-06 66.99961090087891 2.691726922988892 66.99961090087891 6.00031042098999 L 66.99961090087891 113.9994125366211 C 66.99961090087891 117.307991027832 64.30789184570312 119.9996948242188 60.99932479858398 119.9996948242188 Z" stroke="none" fill="#fff"></path></g><rect id="Rectangle_57" data-name="Rectangle 57" width="50" height="50" rx="4" transform="translate(81 47)" fill="#022f4e"></rect><rect id="Rectangle_58" data-name="Rectangle 58" width="50" height="50" rx="4" transform="translate(81 153)" fill="#022f4e"></rect><rect id="Rectangle_64" data-name="Rectangle 64" width="44" height="56" transform="translate(83 97)" fill="#051c2c"></rect><g id="Subtraction_2" data-name="Subtraction 2" transform="translate(263 185) rotate(180)" fill="none"><path d="M61,120H0V0H61a6.007,6.007,0,0,1,6,6V114A6.007,6.007,0,0,1,61,120Z" stroke="none"></path><path d="M 60.99932479858398 118.9996948242188 C 63.75649261474609 118.9996948242188 65.99961090087891 116.7569961547852 65.99961090087891 114.0003280639648 L 65.99961090087891 6.00031042098999 C 65.99961090087891 3.24312686920166 63.75649261474609 0.999993622303009 60.99932479858398 0.999993622303009 L 1.000009298324585 1.000010013580322 L 1.000009298324585 118.9996948242188 L 60.99932479858398 118.9996948242188 M 60.99932479858398 119.9996948242188 L 9.265137123293243e-06 119.9996948242188 L 9.265137123293243e-06 1.026407880999614e-05 L 60.99932479858398 -6.402588041964918e-06 C 64.30789184570312 -6.402588041964918e-06 66.99961090087891 2.691726922988892 66.99961090087891 6.00031042098999 L 66.99961090087891 114.0003280639648 C 66.99961090087891 117.3083801269531 64.30789184570312 119.9996948242188 60.99932479858398 119.9996948242188 Z" stroke="none" fill="#fff"></path></g><rect id="Rectangle_60" data-name="Rectangle 60" width="50" height="50" rx="4" transform="translate(236 47)" fill="#022f4e"></rect><rect id="Rectangle_59" data-name="Rectangle 59" width="50" height="50" rx="4" transform="translate(236 153)" fill="#022f4e"></rect><rect id="Rectangle_69" data-name="Rectangle 69" width="44" height="56" transform="translate(238 97)" fill="#051c2c"></rect><g id="Rectangle_56" data-name="Rectangle 56" transform="translate(69 105)" fill="none" stroke="#01a8f3" stroke-width="1"><rect width="228" height="40" rx="5" stroke="none"></rect><rect x="0.5" y="0.5" width="227" height="39" rx="4.5" fill="none"></rect></g><rect id="Rectangle_65" data-name="Rectangle 65" width="67" height="38" transform="translate(144 106)" fill="#051c2c"></rect><g id="Group_2" data-name="Group 2" transform="translate(86 161)"><path id="Path_17" data-name="Path 17" d="M43.763,1004.534a3.461,3.461,0,0,0-1.476.347l-8.682,4.182a2.666,2.666,0,0,0-2.518-1.577l-4.978.145a11.147,11.147,0,0,1-3.314-.622,15.026,15.026,0,0,0-4.471-.709,18.954,18.954,0,0,0-5.455,1.071v-1.085a.968.968,0,0,0-.072-.362.78.78,0,0,0-.492-.492.969.969,0,0,0-.362-.072H6.923a.9.9,0,0,0-.347.072.909.909,0,0,0-.3.188.949.949,0,0,0-.2.3.968.968,0,0,0-.072.362v13.775a.9.9,0,0,0,.072.347.931.931,0,0,0,.506.506.9.9,0,0,0,.347.072h5.021a.968.968,0,0,0,.362-.072.95.95,0,0,0,.3-.2.912.912,0,0,0,.188-.3.9.9,0,0,0,.072-.347v-1.187c6.093-1.079,9.734.757,15.222.752a8.86,8.86,0,0,0,3.82-1.317c1.491-.773,3.2-1.809,4.92-2.923,3.449-2.227,6.976-4.776,8.812-6.019a2.512,2.512,0,0,0,1.085-1.765,2.711,2.711,0,0,0-.477-1.852,2.957,2.957,0,0,0-2.489-1.215Zm-35.914,2.677H8.7v11.923H7.849v-11.923Z" transform="translate(-5.997 -986.07)" fill="#fff" fill-rule="evenodd"></path><path id="Path_18" data-name="Path 18" d="M38.719,964.659a4.675,4.675,0,0,0-4.659,4.659V979.2a4.667,4.667,0,1,0,9.333,0v-9.883A4.688,4.688,0,0,0,38.719,964.659Zm-1.389,3.169a.763.763,0,0,1,.087,0c.031,0,.071.01.1.014a.871.871,0,0,1,.174.043.892.892,0,0,1,.159.087.941.941,0,0,1,.318.333.911.911,0,0,1,.13.434v2.749a.937.937,0,0,1-.029.2.838.838,0,0,1-.029.087c-.01.029-.016.059-.029.087a.773.773,0,0,1-.044.072.935.935,0,0,1-.174.217.916.916,0,0,1-.072.058.894.894,0,0,1-.072.058.945.945,0,0,1-.26.1.929.929,0,0,1-.275.029,1,1,0,0,1-.188-.029.909.909,0,0,1-.174-.058.752.752,0,0,1-.072-.043,1,1,0,0,1-.217-.188.9.9,0,0,1-.145-.231.877.877,0,0,1-.072-.26.739.739,0,0,1,0-.1V968.74a.741.741,0,0,1,0-.1c0-.031.007-.057.014-.087s.019-.058.029-.087.016-.059.029-.087a.956.956,0,0,1,.1-.159.935.935,0,0,1,.275-.246.893.893,0,0,1,.159-.087.869.869,0,0,1,.174-.043c.031,0,.07-.013.1-.014Zm-1.418,7.365H41.54V979.2a2.814,2.814,0,1,1-5.629,0Z" transform="translate(-21.065 -964.659)" fill="#fff" fill-rule="evenodd"></path><path id="Path_19" data-name="Path 19" d="M61.155,977.5a5.918,5.918,0,1,0,4.2,1.722A5.908,5.908,0,0,0,61.155,977.5Zm0,1.838a4.063,4.063,0,0,1,2.156.622l-5.629,5.614a4.1,4.1,0,0,1,3.473-6.237Zm3.473,1.924A4.084,4.084,0,0,1,59,986.879Z" transform="translate(-32.432 -971.556)" fill="#fff" fill-rule="evenodd"></path></g><g id="Group_4" data-name="Group 4" transform="translate(-1440.087 -243)"><g id="Group_3" data-name="Group 3" transform="translate(1527.087 296)"><path id="Path_20" data-name="Path 20" d="M15.616,29.187a.665.665,0,0,1,.677-1.143,8.534,8.534,0,0,0,3.648,1.191v-1.3a14.934,14.934,0,0,1-5.6-1.361.665.665,0,0,1,.558-1.207A13.6,13.6,0,0,0,19.942,26.6V25.274a14.934,14.934,0,0,1-5.6-1.361.665.665,0,0,1,.558-1.207,13.6,13.6,0,0,0,5.037,1.237V22.615a21.324,21.324,0,0,1-6.88-1.348.665.665,0,1,1,.47-1.243,20,20,0,0,0,6.41,1.263V19.958a14.934,14.934,0,0,1-5.6-1.361A.665.665,0,0,1,14.9,17.39a13.6,13.6,0,0,0,5.037,1.237V16H3.329A1.329,1.329,0,0,0,2,17.329V33.277a1.329,1.329,0,0,0,1.329,1.329H19.942V30.572A9.848,9.848,0,0,1,15.616,29.187Z" transform="translate(-2 2.606)" fill="#fff"></path><path id="Path_21" data-name="Path 21" d="M33.113,16H16.5v2.627a13.6,13.6,0,0,0,5.037-1.237A.665.665,0,0,1,22.1,18.6a14.934,14.934,0,0,1-5.6,1.361v1.329a20,20,0,0,0,6.41-1.263.665.665,0,0,1,.47,1.243,21.324,21.324,0,0,1-6.88,1.348v1.328a13.6,13.6,0,0,0,5.037-1.237.665.665,0,0,1,.558,1.207,14.934,14.934,0,0,1-5.6,1.361V26.6a13.6,13.6,0,0,0,5.037-1.237.665.665,0,0,1,.558,1.207,14.934,14.934,0,0,1-5.6,1.361v1.3a8.534,8.534,0,0,0,3.648-1.191.665.665,0,0,1,.677,1.143A9.847,9.847,0,0,1,16.5,30.572v4.034H33.113a1.329,1.329,0,0,0,1.329-1.329V17.329A1.329,1.329,0,0,0,33.113,16Z" transform="translate(2.771 2.606)" fill="#fff"></path><path id="Path_22" data-name="Path 22" d="M24.29,8.645a6.645,6.645,0,1,0-6.645,6.645A6.653,6.653,0,0,0,24.29,8.645Z" transform="translate(0.961 -2)" fill="#fff"></path><path id="Path_23" data-name="Path 23" d="M8,15.987H8A3.987,3.987,0,0,1,11.987,12h13.29a3.987,3.987,0,0,1,3.987,3.987H8Z" transform="translate(-0.026 1.29)" fill="#fff"></path></g></g><g id="Group_6" data-name="Group 6" transform="translate(-1198 -228)"><g id="Group_5" data-name="Group 5" transform="translate(1440 281)"><rect id="Rectangle_70" data-name="Rectangle 70" width="8.96" height="0.896" transform="translate(21.505)" fill="#fff"></rect><path id="Path_24" data-name="Path 24" d="M17.368,4.684A4.684,4.684,0,1,0,8,4.684V9.368h9.368Z" transform="translate(-2.647)" fill="#fff"></path><path id="Path_25" data-name="Path 25" d="M12.684,25.368a4.689,4.689,0,0,0,4.684-4.684V16H8v4.684A4.689,4.689,0,0,0,12.684,25.368Z" transform="translate(-2.647 -5.294)" fill="#fff"></path><path id="Path_26" data-name="Path 26" d="M11.36,28.92A6.029,6.029,0,0,1,5.338,22.9v-.205a7.36,7.36,0,1,0,12.044,0V22.9A6.029,6.029,0,0,1,11.36,28.92Z" transform="translate(-1.324 -7.509)" fill="#fff"></path><path id="Path_27" data-name="Path 27" d="M32.908,25.412a3.341,3.341,0,0,1,5.946-2.676h0a2.01,2.01,0,0,1,2.007,2.007,1.985,1.985,0,0,1-.123.669h2.587l-3.8-7.876v-2.83H35.51V13.368h4.015V12.029H36.848V10.691h2.676V9.353H35.51V8.015h4.015V6.676H36.848V5.338h2.676V4H32.833V17.535l-1.352,2.8c0,.13.013.261.013.393a11.293,11.293,0,0,1-1.021,4.684Z" transform="translate(-10.084 -1.324)" fill="#fff"></path><circle id="Ellipse_14" data-name="Ellipse 14" cx="0.896" cy="0.896" r="0.896" transform="translate(27.777 22.401)" fill="#fff"></circle><path id="Path_28" data-name="Path 28" d="M38.007,32a1.972,1.972,0,0,0-1.878,2.676H38.8a1.954,1.954,0,0,1,.542-2.151A2,2,0,0,0,38.007,32Z" transform="translate(-11.912 -10.588)" fill="#fff"></path><path id="Path_29" data-name="Path 29" d="M20.073,25.031a10.076,10.076,0,0,0-4.015-8.025V18.77a8.7,8.7,0,1,1-12.044,0V17.006a10.035,10.035,0,1,0,16.059,8.025Z" transform="translate(0 -5.627)" fill="#fff"></path><path id="Path_30" data-name="Path 30" d="M45.256,47.837,40.507,38H26.287a11.443,11.443,0,0,1-2.864,3.1L20.17,47.837a1.713,1.713,0,0,0,.173,1.772l1.129,1.506a.672.672,0,0,0,.535.268H43.419a.674.674,0,0,0,.536-.268l1.129-1.505a1.716,1.716,0,0,0,.172-1.772ZM28.029,44.022a2.007,2.007,0,1,1,2.007-2.007A2.007,2.007,0,0,1,28.029,44.022Zm4.684,5.353a1.338,1.338,0,1,1,1.338-1.338A1.338,1.338,0,0,1,32.713,49.375Zm5.353-5.353A1.338,1.338,0,1,1,39.4,42.684,1.338,1.338,0,0,1,38.066,44.022Zm4.015,5.353a1.338,1.338,0,1,1,1.338-1.338A1.338,1.338,0,0,1,42.081,49.375Z" transform="translate(-6.618 -12.574)" fill="#fff"></path><path id="Path_31" data-name="Path 31" d="M12,45.719v1.526h4.015V45.719a10.809,10.809,0,0,1-4.015,0Z" transform="translate(-3.971 -15.128)" fill="#fff"></path><path id="Path_32" data-name="Path 32" d="M12,54.684a.67.67,0,0,0,.669.669h2.676a.67.67,0,0,0,.669-.669V50H12Z" transform="translate(-3.971 -16.544)" fill="#fff"></path></g></g><g id="Group_7" data-name="Group 7" transform="translate(-1253 3)"><path id="Path_33" data-name="Path 33" d="M14.221,46.745a2.558,2.558,0,0,1,2.555-2.555h.73a1.1,1.1,0,1,0,0-2.19H6.7a18.864,18.864,0,0,0,2.477,5.84h3.944A1.1,1.1,0,0,0,14.221,46.745Z" transform="translate(1488.81 140.202)" fill="#fff"></path><path id="Path_34" data-name="Path 34" d="M26.19,54H24.73a.73.73,0,1,0,0,1.46h1.46a.73.73,0,0,0,0-1.46Z" transform="translate(1484.141 136.963)" fill="#fff"></path><path id="Path_35" data-name="Path 35" d="M40.11,48.57H35.73a.731.731,0,0,0-.73.73v.73a.731.731,0,0,0,.73.73H46.5a19.074,19.074,0,0,0,2.3-2.92h-.66a2.193,2.193,0,0,1-2.19-2.19V42.73a.731.731,0,0,0-.73-.73H39.38a.731.731,0,0,0-.73.73.7.7,0,0,0,.21.507.714.714,0,0,0,.52.223h.73a2.193,2.193,0,0,1,2.19,2.19v.73A2.193,2.193,0,0,1,40.11,48.57Z" transform="translate(1481.171 140.202)" fill="#fff"></path><circle id="Ellipse_15" data-name="Ellipse 15" cx="1.5" cy="1.5" r="1.5" transform="translate(1498 166)" fill="#fff"></circle><circle id="Ellipse_16" data-name="Ellipse 16" cx="1.5" cy="1.5" r="1.5" transform="translate(1505 166)" fill="#fff"></circle><circle id="Ellipse_17" data-name="Ellipse 17" cx="1.5" cy="1.5" r="1.5" transform="translate(1513 166)" fill="#fff"></circle><circle id="Ellipse_18" data-name="Ellipse 18" cx="1.5" cy="1.5" r="1.5" transform="translate(1520 166)" fill="#fff"></circle><circle id="Ellipse_19" data-name="Ellipse 19" cx="1.5" cy="1.5" r="1.5" transform="translate(1527 166)" fill="#fff"></circle><path id="Path_36" data-name="Path 36" d="M30.092,25.46v2.92l.73.73v3.65h-4.38V29.11l.73-.73V25.46A1.46,1.46,0,0,0,25.711,24h-1.46a1.46,1.46,0,0,0-1.46,1.46v2.92l.73.73v3.65h-4.38V29.11l.73-.73V25.46A1.46,1.46,0,0,0,18.411,24h-1.46a1.46,1.46,0,0,0-1.46,1.46v2.92l.73.73v3.65H11.84V29.11l.73-.73V25.46A1.46,1.46,0,0,0,11.11,24H9.65a1.46,1.46,0,0,0-1.46,1.46v2.92l.73.73v3.65H6a19.068,19.068,0,0,0,.224,2.92H17.316a2.555,2.555,0,1,1,0,5.11h-.73a1.1,1.1,0,0,0-1.1,1.1,2.558,2.558,0,0,1-2.555,2.555h-2.91a18.973,18.973,0,0,0,27.083,2.92H27.9a2.193,2.193,0,0,1-2.19-2.19v-.73a2.193,2.193,0,0,1,2.19-2.19h4.38a.731.731,0,0,0,.73-.73v-.73a.731.731,0,0,0-.73-.73h-.73a2.2,2.2,0,0,1-2.19-2.19,2.193,2.193,0,0,1,2.19-2.19h5.84a2.193,2.193,0,0,1,2.19,2.19v2.92a.731.731,0,0,0,.73.73h1.506a18.885,18.885,0,0,0,2.144-8.761h-2.92V29.11l.73-.73V25.46A1.46,1.46,0,0,0,40.312,24h-1.46a1.46,1.46,0,0,0-1.46,1.46v2.92l.73.73v3.65h-4.38V29.11l.73-.73V25.46A1.46,1.46,0,0,0,33.012,24h-1.46A1.46,1.46,0,0,0,30.092,25.46ZM21.331,48.822h-1.46a2.19,2.19,0,1,1,0-4.38h1.46a2.19,2.19,0,1,1,0,4.38Z" transform="translate(1489 145.061)" fill="#fff"></path><circle id="Ellipse_20" data-name="Ellipse 20" cx="1.5" cy="1.5" r="1.5" transform="translate(1502 153)" fill="#fff"></circle><path id="Path_37" data-name="Path 37" d="M14,7.46v2.92l.73.73v3.65h2.92V11.11l.73-.73V7.46A1.46,1.46,0,0,0,16.92,6H15.46A1.46,1.46,0,0,0,14,7.46Z" transform="translate(1486.84 149.92)" fill="#fff"></path><circle id="Ellipse_21" data-name="Ellipse 21" cx="1.5" cy="1.5" r="1.5" transform="translate(1509 153)" fill="#fff"></circle><path id="Path_38" data-name="Path 38" d="M24,7.46v2.92l.73.73v3.65h2.92V11.11l.73-.73V7.46A1.46,1.46,0,0,0,26.92,6H25.46A1.46,1.46,0,0,0,24,7.46Z" transform="translate(1484.141 149.92)" fill="#fff"></path><circle id="Ellipse_22" data-name="Ellipse 22" cx="1.5" cy="1.5" r="1.5" transform="translate(1516 153)" fill="#fff"></circle><path id="Path_39" data-name="Path 39" d="M34,7.46v2.92l.73.73v3.65h2.92V11.11l.73-.73V7.46A1.46,1.46,0,0,0,36.92,6H35.46A1.46,1.46,0,0,0,34,7.46Z" transform="translate(1481.441 149.92)" fill="#fff"></path><circle id="Ellipse_23" data-name="Ellipse 23" cx="1.5" cy="1.5" r="1.5" transform="translate(1523 153)" fill="#fff"></circle><path id="Path_40" data-name="Path 40" d="M44,7.46v2.92l.73.73v3.65h2.92V11.11l.73-.73V7.46A1.46,1.46,0,0,0,46.92,6H45.46A1.46,1.46,0,0,0,44,7.46Z" transform="translate(1478.742 149.92)" fill="#fff"></path></g><text id="Generative_AI_in_Healthcare" data-name="Generative AI in Healthcare" transform="translate(183 131)" fill="#fff" font-size="16" font-family="OpenSans-Semibold, Open Sans" font-weight="600"><tspan x="-106" y="0">Generative AI in Healthcare</tspan></text></svg> 