<?xml version="1.0" encoding="UTF-8"?> <svg xmlns="http://www.w3.org/2000/svg" xmlns:xlink="http://www.w3.org/1999/xlink" width="365" height="250" viewBox="0 0 365 250"><defs><clipPath id="clip-path"><rect id="Rectangle_196" data-name="Rectangle 196" width="365" height="250" fill="#fff"></rect></clipPath><clipPath id="clip-path-3"><rect id="Rectangle_52" data-name="Rectangle 52" width="444" height="250" fill="#21262f"></rect></clipPath><radialGradient id="radial-gradient" cx="0.489" cy="0.522" r="0.859" gradientUnits="objectBoundingBox"><stop offset="0" stop-color="#193460"></stop><stop offset="1" stop-color="#05142f"></stop></radialGradient></defs><g id="Mask_Group_3" data-name="Mask Group 3" clip-path="url(#clip-path)"><g id="Mask_Group_2" data-name="Mask Group 2" clip-path="url(#clip-path)"><g id="Mask_Group_1" data-name="Mask Group 1" transform="translate(-39)" clip-path="url(#clip-path-3)"><rect id="Rectangle_1" data-name="Rectangle 1" width="444" height="250" fill="url(#radial-gradient)"></rect><path id="Path_1" data-name="Path 1" d="M29.048,2.023,237.567,0V31.528H0Z" transform="translate(334.814 213.588)" fill="#13233e"></path><path id="Path_3" data-name="Path 3" d="M138.822,1.347,0,0V20.99H158.161Z" transform="translate(-88.264 12.106)" fill="#13233e"></path><path id="Path_2" data-name="Path 2" d="M29.048,2.023,237.567,0V31.528H0Z" transform="translate(384.991 179.396)" fill="#13233e"></path><path id="Path_4" data-name="Path 4" d="M138.822,1.347,0,0V20.99H158.161Z" transform="translate(-121.67 -10.657)" fill="#13233e"></path></g></g><g id="Group_39" data-name="Group 39" transform="translate(-9.107 -11.604)" opacity="0.42"><rect id="Rectangle_59" data-name="Rectangle 59" width="68.681" height="41.978" transform="translate(10.426 24.401)" fill="#012240"></rect><rect id="Rectangle_60" data-name="Rectangle 60" width="64.659" height="38.095" transform="translate(12.437 26.342)" fill="#01528c"></rect><rect id="Rectangle_77" data-name="Rectangle 77" width="13.041" height="1.274" transform="translate(16.187 59.715)" fill="#012240"></rect><rect id="Rectangle_85" data-name="Rectangle 85" width="13.041" height="1.274" transform="translate(37.598 59.715)" fill="#012240"></rect><rect id="Rectangle_93" data-name="Rectangle 93" width="13.041" height="1.274" transform="translate(59.404 59.715)" fill="#012240"></rect><path id="Path_87" data-name="Path 87" d="M2177.591,981.474V992.62c0,1.239,15.156,1.239,15.156,0V981.474Z" transform="translate(-2142.382 -891.247)" fill="#2c70d9"></path><path id="Path_88" data-name="Path 88" d="M2233.7,1004.807a1.871,1.871,0,1,1-1.871-1.871,1.871,1.871,0,0,1,1.871,1.871" transform="translate(-2189.041 -910.37)" fill="#001e4d"></path><path id="Path_89" data-name="Path 89" d="M2240.855,1030.454h0a.767.767,0,0,1-.767-.767V1025.4h1.534v4.292a.767.767,0,0,1-.767.767" transform="translate(-2198.068 -930.382)" fill="#001e4d"></path><path id="Path_90" data-name="Path 90" d="M2202.277,892.726h-1.534v-3.854a4.716,4.716,0,1,0-9.432,0v.751h-1.534v-.751a6.25,6.25,0,1,1,12.5,0Z" transform="translate(-2153.24 -803.168)" fill="#2c70d9"></path><path id="Path_91" data-name="Path 91" d="M2283.626,1037.749a5.153,5.153,0,1,1-5.153-5.153,5.153,5.153,0,0,1,5.153,5.153" transform="translate(-2227.678 -936.798)" fill="#01528c"></path><path id="Path_92" data-name="Path 92" d="M2284.151,1047.885a4.459,4.459,0,1,1,4.459-4.459,4.464,4.464,0,0,1-4.459,4.459m0-8.548a4.089,4.089,0,1,0,4.089,4.089,4.094,4.094,0,0,0-4.089-4.089" transform="translate(-2233.355 -942.476)"></path><path id="Path_93" data-name="Path 93" d="M2313.938,1059.86h0a.623.623,0,0,1-.622-.581l-.192-2.79a.815.815,0,1,1,1.627,0l-.191,2.79a.623.623,0,0,1-.622.581" transform="translate(-2263.142 -957.311)"></path><path id="Path_103" data-name="Path 103" d="M1876.741,167.341h-21.412a.816.816,0,0,1-.816-.816V154.375a.816.816,0,0,1,.816-.816h21.412a.816.816,0,0,1,.816.816v12.149a.816.816,0,0,1-.816.816" transform="translate(-1854.512 -153.559)" fill="#01528c"></path><rect id="Rectangle_188" data-name="Rectangle 188" width="23.045" height="2.378" transform="translate(0 2.603)" fill="#0178cc"></rect><path id="Path_104" data-name="Path 104" d="M1872.056,255.758h-3.388a.39.39,0,1,0,0,.78h3.388a.39.39,0,0,0,0-.78" transform="translate(-1866.778 -244.62)" fill="#0178cc"></path><path id="Path_105" data-name="Path 105" d="M1919.868,255.758h-3.388a.39.39,0,0,0,0,.78h3.388a.39.39,0,0,0,0-.78" transform="translate(-1909.38 -244.62)" fill="#0178cc"></path><path id="Path_106" data-name="Path 106" d="M1967.681,255.758h-3.388a.39.39,0,1,0,0,.78h3.388a.39.39,0,0,0,0-.78" transform="translate(-1951.981 -244.62)" fill="#0178cc"></path><path id="Path_107" data-name="Path 107" d="M2015.494,255.758h-3.388a.39.39,0,1,0,0,.78h3.388a.39.39,0,1,0,0-.78" transform="translate(-1994.583 -244.62)" fill="#0178cc"></path><path id="Path_108" data-name="Path 108" d="M1866.9,159.978h0a.431.431,0,0,0-.43.43v.151a.43.43,0,1,0,.861,0v-.151a.43.43,0,0,0-.43-.43" transform="translate(-1865.171 -159.278)" fill="#0178cc"></path><path id="Path_109" data-name="Path 109" d="M1878.933,160.484h0a.506.506,0,0,0,.506.506h1.793a.506.506,0,0,0,0-1.012h-1.793a.506.506,0,0,0-.506.506" transform="translate(-1876.272 -159.278)" fill="#0178cc"></path><path id="Path_110" data-name="Path 110" d="M1871.279,211h2.316a.672.672,0,0,1,.672.672v2a.672.672,0,0,1-.672.672h-2.316a.672.672,0,0,1-.672-.672v-2a.672.672,0,0,1,.672-.672" transform="translate(-1868.853 -204.743)" fill="#0178cc"></path><path id="Path_44" data-name="Path 44" d="M2204.718,465.114a7.179,7.179,0,1,1,7.179-7.179,7.187,7.187,0,0,1-7.179,7.179m0-13.889a6.71,6.71,0,1,0,6.71,6.71,6.718,6.718,0,0,0-6.71-6.71" transform="translate(-2160.156 -418.367)" fill="#d2e4ff"></path><rect id="Rectangle_61" data-name="Rectangle 61" width="13.889" height="0.469" transform="translate(37.618 39.333)" fill="#d2e4ff"></rect><path id="Path_45" data-name="Path 45" d="M2211.9,484.456h-.469a3.038,3.038,0,0,0-2.036-2.564,11.234,11.234,0,0,0-4.674-.9c-3.334,0-6.71,1.191-6.71,3.466h-.469c0-2.7,3.721-3.935,7.179-3.935s7.179,1.231,7.179,3.935" transform="translate(-2160.156 -444.888)" fill="#d2e4ff"></path><path id="Path_46" data-name="Path 46" d="M2204.718,520.918a10.846,10.846,0,0,1-4.882-1.04,3.67,3.67,0,0,1-2.3-3.248h.469c0,2.624,3.479,3.819,6.71,3.819s6.71-1.195,6.71-3.819h.469c0,2.946-3.721,4.288-7.179,4.288" transform="translate(-2160.156 -477.062)" fill="#d2e4ff"></path><path id="Path_47" data-name="Path 47" d="M2204.718,465.114a7.179,7.179,0,1,1,7.179-7.179,7.187,7.187,0,0,1-7.179,7.179m0-13.889a6.71,6.71,0,1,0,6.71,6.71,6.718,6.718,0,0,0-6.71-6.71" transform="translate(-2160.156 -418.367)" fill="#d2e4ff"></path><rect id="Rectangle_62" data-name="Rectangle 62" width="0.469" height="13.889" transform="translate(44.328 32.623)" fill="#d2e4ff"></rect><path id="Path_48" data-name="Path 48" d="M2263.412,465.115v-.469a3.038,3.038,0,0,0,2.564-2.036,11.233,11.233,0,0,0,.9-4.674c0-3.335-1.191-6.71-3.466-6.71v-.469c2.7,0,3.935,3.721,3.935,7.179s-1.231,7.179-3.935,7.179" transform="translate(-2218.85 -418.368)" fill="#d2e4ff"></path><path id="Path_49" data-name="Path 49" d="M2228.357,465.115c-2.946,0-4.288-3.721-4.288-7.179a10.851,10.851,0,0,1,1.039-4.882,3.67,3.67,0,0,1,3.248-2.3v.469c-2.624,0-3.819,3.478-3.819,6.71s1.2,6.71,3.819,6.71Z" transform="translate(-2183.795 -418.368)" fill="#d2e4ff"></path><rect id="Rectangle_63" data-name="Rectangle 63" width="14.357" height="14.357" transform="translate(37.383 32.389)" fill="none"></rect><path id="Path_50" data-name="Path 50" d="M2012.054,465.114a7.179,7.179,0,1,1,7.179-7.179,7.187,7.187,0,0,1-7.179,7.179m0-13.889a6.71,6.71,0,1,0,6.71,6.71,6.718,6.718,0,0,0-6.71-6.71" transform="translate(-1988.488 -418.367)" fill="#d2e4ff"></path><rect id="Rectangle_64" data-name="Rectangle 64" width="0.469" height="13.889" transform="translate(23.331 32.623)" fill="#d2e4ff"></rect><path id="Path_51" data-name="Path 51" d="M2070.747,465.115v-.469a3.038,3.038,0,0,0,2.564-2.036,11.233,11.233,0,0,0,.9-4.674c0-3.335-1.191-6.71-3.467-6.71v-.469c2.7,0,3.935,3.721,3.935,7.179s-1.231,7.179-3.935,7.179" transform="translate(-2047.182 -418.368)" fill="#d2e4ff"></path><path id="Path_52" data-name="Path 52" d="M2035.692,465.115c-2.946,0-4.288-3.721-4.288-7.179a10.848,10.848,0,0,1,1.04-4.882,3.67,3.67,0,0,1,3.248-2.3v.469c-2.624,0-3.819,3.478-3.819,6.71s1.2,6.71,3.819,6.71Z" transform="translate(-2012.126 -418.368)" fill="#d2e4ff"></path><path id="Path_53" data-name="Path 53" d="M2012.054,465.114a7.179,7.179,0,1,1,7.179-7.179,7.187,7.187,0,0,1-7.179,7.179m0-13.889a6.71,6.71,0,1,0,6.71,6.71,6.718,6.718,0,0,0-6.71-6.71" transform="translate(-1988.488 -418.367)" fill="#d2e4ff"></path><rect id="Rectangle_65" data-name="Rectangle 65" width="13.889" height="0.469" transform="translate(16.621 39.333)" fill="#d2e4ff"></rect><path id="Path_54" data-name="Path 54" d="M2012.053,520.565a11.7,11.7,0,0,1-4.875-.948c-1.508-.714-2.3-1.747-2.3-2.987h.469c0,2.276,3.376,3.466,6.71,3.466s6.71-1.191,6.71-3.466h.469c0,2.7-3.721,3.935-7.179,3.935" transform="translate(-1988.487 -477.062)" fill="#d2e4ff"></path><path id="Path_55" data-name="Path 55" d="M2019.232,481.575h-.469c0-2.624-3.478-3.819-6.71-3.819s-6.71,1.195-6.71,3.819h-.469c0-2.946,3.721-4.288,7.179-4.288s7.179,1.342,7.179,4.288" transform="translate(-1988.487 -442.007)" fill="#d2e4ff"></path><rect id="Rectangle_66" data-name="Rectangle 66" width="14.358" height="14.357" transform="translate(16.386 32.389)" fill="none"></rect><path id="Path_56" data-name="Path 56" d="M2406.68,465.114a7.179,7.179,0,1,1,7.178-7.179,7.187,7.187,0,0,1-7.178,7.179m0-13.889a6.71,6.71,0,1,0,6.71,6.71,6.718,6.718,0,0,0-6.71-6.71" transform="translate(-2340.108 -418.367)" fill="#d2e4ff"></path><rect id="Rectangle_67" data-name="Rectangle 67" width="13.889" height="0.469" transform="translate(59.628 39.333)" fill="#d2e4ff"></rect><path id="Path_57" data-name="Path 57" d="M2413.859,484.456h-.469a3.038,3.038,0,0,0-2.036-2.564,11.234,11.234,0,0,0-4.674-.9c-3.334,0-6.71,1.191-6.71,3.466h-.469c0-2.7,3.721-3.935,7.179-3.935s7.179,1.231,7.179,3.935" transform="translate(-2340.108 -444.888)" fill="#d2e4ff"></path><path id="Path_58" data-name="Path 58" d="M2406.68,520.918a10.846,10.846,0,0,1-4.882-1.04,3.67,3.67,0,0,1-2.3-3.248h.469c0,2.624,3.478,3.819,6.71,3.819s6.71-1.195,6.71-3.819h.469c0,2.946-3.721,4.288-7.179,4.288" transform="translate(-2340.108 -477.062)" fill="#d2e4ff"></path><path id="Path_59" data-name="Path 59" d="M2406.68,465.114a7.179,7.179,0,1,1,7.179-7.179,7.187,7.187,0,0,1-7.179,7.179m0-13.889a6.71,6.71,0,1,0,6.71,6.71,6.718,6.718,0,0,0-6.71-6.71" transform="translate(-2340.108 -418.367)" fill="#d2e4ff"></path><rect id="Rectangle_68" data-name="Rectangle 68" width="0.469" height="13.889" transform="translate(66.338 32.623)" fill="#d2e4ff"></rect><path id="Path_60" data-name="Path 60" d="M2465.373,465.115v-.469a3.038,3.038,0,0,0,2.564-2.036,11.233,11.233,0,0,0,.9-4.674c0-3.335-1.191-6.71-3.466-6.71v-.469c2.7,0,3.935,3.721,3.935,7.179s-1.231,7.179-3.935,7.179" transform="translate(-2398.801 -418.368)" fill="#d2e4ff"></path><path id="Path_61" data-name="Path 61" d="M2430.318,465.115c-2.946,0-4.288-3.721-4.288-7.179a10.848,10.848,0,0,1,1.04-4.882,3.67,3.67,0,0,1,3.248-2.3v.469c-2.624,0-3.819,3.478-3.819,6.71s1.2,6.71,3.819,6.71Z" transform="translate(-2363.746 -418.368)" fill="#d2e4ff"></path><rect id="Rectangle_69" data-name="Rectangle 69" width="14.358" height="14.357" transform="translate(59.393 32.389)" fill="none"></rect><rect id="Rectangle_70" data-name="Rectangle 70" width="14.337" height="1.274" transform="translate(16.187 51.092)" fill="#d2e4ff"></rect><rect id="Rectangle_71" data-name="Rectangle 71" width="14.336" height="1.275" transform="translate(16.187 51.091)" fill="none"></rect><rect id="Rectangle_72" data-name="Rectangle 72" width="9.199" height="1.274" transform="translate(16.187 53.381)" fill="#d2e4ff"></rect><rect id="Rectangle_73" data-name="Rectangle 73" width="9.199" height="1.274" transform="translate(16.187 53.381)" fill="none"></rect><rect id="Rectangle_74" data-name="Rectangle 74" width="13.041" height="1.274" transform="translate(16.187 55.67)" fill="#d2e4ff"></rect><rect id="Rectangle_75" data-name="Rectangle 75" width="13.042" height="1.275" transform="translate(16.187 55.67)" fill="none"></rect><rect id="Rectangle_78" data-name="Rectangle 78" width="14.337" height="1.274" transform="translate(37.598 51.092)" fill="#d2e4ff"></rect><rect id="Rectangle_79" data-name="Rectangle 79" width="14.337" height="1.275" transform="translate(37.598 51.091)" fill="none"></rect><rect id="Rectangle_80" data-name="Rectangle 80" width="9.199" height="1.274" transform="translate(37.598 53.381)" fill="#d2e4ff"></rect><rect id="Rectangle_81" data-name="Rectangle 81" width="9.199" height="1.274" transform="translate(37.598 53.381)" fill="none"></rect><rect id="Rectangle_82" data-name="Rectangle 82" width="13.041" height="1.274" transform="translate(37.598 55.67)" fill="#d2e4ff"></rect><rect id="Rectangle_83" data-name="Rectangle 83" width="13.042" height="1.275" transform="translate(37.598 55.67)" fill="none"></rect><rect id="Rectangle_86" data-name="Rectangle 86" width="14.337" height="1.274" transform="translate(59.404 51.092)" fill="#d2e4ff"></rect><rect id="Rectangle_87" data-name="Rectangle 87" width="14.336" height="1.275" transform="translate(59.404 51.091)" fill="none"></rect><rect id="Rectangle_88" data-name="Rectangle 88" width="9.199" height="1.274" transform="translate(59.404 53.381)" fill="#d2e4ff"></rect><rect id="Rectangle_89" data-name="Rectangle 89" width="9.198" height="1.274" transform="translate(59.404 53.381)" fill="none"></rect><rect id="Rectangle_90" data-name="Rectangle 90" width="13.041" height="1.274" transform="translate(59.404 55.67)" fill="#d2e4ff"></rect><rect id="Rectangle_91" data-name="Rectangle 91" width="13.042" height="1.275" transform="translate(59.404 55.67)" fill="none"></rect></g><g id="Group_40" data-name="Group 40" transform="translate(23.02 20.87)" opacity="0.336"><g id="Group_37" data-name="Group 37" transform="translate(287.654 128.289)"><path id="Path_95" data-name="Path 95" d="M320.187,1020.408H294.322a.986.986,0,0,1-.986-.986v-14.675a.986.986,0,0,1,.986-.986h25.865a.986.986,0,0,1,.986.986v14.675a.986.986,0,0,1-.986.986" transform="translate(-293.336 -1003.761)" fill="#01528c"></path><rect id="Rectangle_187" data-name="Rectangle 187" width="27.837" height="2.873" transform="translate(0 3.144)" fill="#0178cc"></rect><path id="Path_100" data-name="Path 100" d="M306.73,1010.668h0a.52.52,0,0,0-.52.52v.183a.52.52,0,0,0,1.04,0v-.183a.52.52,0,0,0-.52-.52" transform="translate(-304.635 -1009.823)" fill="#0178cc"></path><path id="Path_101" data-name="Path 101" d="M319.619,1011.28h0a.611.611,0,0,0,.611.611H322.4a.611.611,0,0,0,0-1.222H320.23a.611.611,0,0,0-.611.611" transform="translate(-316.404 -1009.824)" fill="#0178cc"></path><path id="Path_102" data-name="Path 102" d="M311.469,1065.583h2.8a.812.812,0,0,1,.812.812v2.412a.812.812,0,0,1-.812.812h-2.8a.812.812,0,0,1-.812-.812V1066.4a.812.812,0,0,1,.812-.812" transform="translate(-308.538 -1058.021)" fill="#0178cc"></path><path id="Path_96" data-name="Path 96" d="M312.716,1113.751h-4.093a.471.471,0,0,0,0,.942h4.093a.471.471,0,0,0,0-.942" transform="translate(-306.34 -1100.298)" fill="#0178cc"></path><path id="Path_97" data-name="Path 97" d="M364.173,1113.751H360.08a.471.471,0,0,0,0,.942h4.093a.471.471,0,0,0,0-.942" transform="translate(-351.503 -1100.298)" fill="#0178cc"></path><path id="Path_98" data-name="Path 98" d="M415.631,1113.751h-4.093a.471.471,0,0,0,0,.942h4.093a.471.471,0,0,0,0-.942" transform="translate(-396.667 -1100.298)" fill="#0178cc"></path><path id="Path_99" data-name="Path 99" d="M467.089,1113.751H463a.471.471,0,0,0,0,.942h4.093a.471.471,0,0,0,0-.942" transform="translate(-441.831 -1100.298)" fill="#0178cc"></path></g><rect id="Rectangle_99" data-name="Rectangle 99" width="88.462" height="54.068" transform="translate(280.67 159.773)" fill="#012240"></rect><rect id="Rectangle_100" data-name="Rectangle 100" width="83.283" height="49.068" transform="translate(283.26 162.274)" fill="#01528c"></rect><rect id="Rectangle_101" data-name="Rectangle 101" width="53.031" height="0.236" transform="translate(290.642 168.641)" fill="#fff"></rect><rect id="Rectangle_102" data-name="Rectangle 102" width="53.031" height="0.236" transform="translate(290.642 176.044)" fill="#fff"></rect><rect id="Rectangle_103" data-name="Rectangle 103" width="53.031" height="0.236" transform="translate(290.642 183.197)" fill="#fff"></rect><rect id="Rectangle_104" data-name="Rectangle 104" width="53.031" height="0.236" transform="translate(290.642 190.351)" fill="#fff"></rect><rect id="Rectangle_105" data-name="Rectangle 105" width="53.031" height="0.236" transform="translate(290.642 197.504)" fill="#fff"></rect><path id="Path_82" data-name="Path 82" d="M370.91,1371.029H317.76v-.236h52.913v-36.164h.236Z" transform="translate(-27.119 -1165.87)" fill="#fff"></path><rect id="Rectangle_106" data-name="Rectangle 106" width="0.236" height="36.282" transform="translate(290.524 168.759)" fill="#fff"></rect><rect id="Rectangle_107" data-name="Rectangle 107" width="0.236" height="36.282" transform="translate(298.17 168.759)" fill="#fff"></rect><rect id="Rectangle_108" data-name="Rectangle 108" width="0.236" height="36.282" transform="translate(305.809 168.759)" fill="#fff"></rect><rect id="Rectangle_109" data-name="Rectangle 109" width="0.236" height="36.282" transform="translate(313.448 168.759)" fill="#fff"></rect><rect id="Rectangle_110" data-name="Rectangle 110" width="0.236" height="36.282" transform="translate(321.094 168.759)" fill="#fff"></rect><rect id="Rectangle_111" data-name="Rectangle 111" width="0.236" height="36.282" transform="translate(328.733 168.759)" fill="#fff"></rect><rect id="Rectangle_112" data-name="Rectangle 112" width="0.236" height="36.282" transform="translate(336.372 168.759)" fill="#fff"></rect><path id="Path_83" data-name="Path 83" d="M307.41,1330.657h-.236v-6.083h5.819v.236H307.41Z" transform="translate(-17.827 -1157.045)" fill="#fff"></path><path id="Path_84" data-name="Path 84" d="M718.075,1596.151h-5.819v-.236h5.583v-5.847h.236Z" transform="translate(-373.362 -1390.065)" fill="#fff"></path><path id="Path_85" data-name="Path 85" d="M317.76,1416.791s2.378,9.988,3.864,9.988,3.184-12.543,5.125-12.576,2.3,12.156,3.881,12.156,2.668-10.033,4.639-10.135,3.245,10.748,5.185,10.748,2.822-5.818,4.777-5.818,1.814,10.558,3.127,10.558,1.969-15.916,3.127-15.916,2.7,9.532,3.766,9.532,2.517-13.594,4.245-13.672,2.7,20.121,4.111,19.863,2.97-16.217,4.137-16.258c1.685-.058,3.046,11.743,3.046,11.743v11.511H317.76Z" transform="translate(-27.118 -1233.476)" fill="#40b0ff"></path><rect id="Rectangle_113" data-name="Rectangle 113" width="53.031" height="26.86" transform="translate(290.642 178.18)" fill="none"></rect><rect id="Rectangle_114" data-name="Rectangle 114" width="55.366" height="38.557" transform="translate(289.347 167.529)" fill="none"></rect><path id="Path_114" data-name="Path 114" d="M106.472,1580.725,93.7,1602.849a1.72,1.72,0,0,0,1.489,2.58h25.546a1.72,1.72,0,0,0,1.489-2.58l-12.773-22.124a1.719,1.719,0,0,0-2.979,0" transform="translate(169.742 -1381.11)" fill="#0178cc"></path><path id="Path_115" data-name="Path 115" d="M128.58,1612.183H103.033a.627.627,0,0,1-.541-.941l12.773-22.123a.626.626,0,0,1,1.085,0l12.773,22.122a.627.627,0,0,1-.543.94m-.088-.575h0Zm-25.281-.154H128.4l-12.6-21.816Z" transform="translate(161.896 -1388.958)"></path><path id="Path_116" data-name="Path 116" d="M199.187,1656.657h0a1.4,1.4,0,0,1-1.392-1.3l-.428-6.241a1.824,1.824,0,1,1,3.64,0l-.428,6.241a1.4,1.4,0,0,1-1.392,1.3" transform="translate(78.553 -1440.181)"></path><path id="Path_117" data-name="Path 117" d="M203.777,1735.156a1.376,1.376,0,1,1-1.377-1.377,1.376,1.376,0,0,1,1.377,1.377" transform="translate(75.339 -1516.198)"></path></g><g id="Group_48" data-name="Group 48"><g id="Group_41" data-name="Group 41" transform="translate(151.954 33.591)"><circle id="Ellipse_2" data-name="Ellipse 2" cx="30.5" cy="30.5" r="30.5" transform="translate(0.046 0.409)" fill="#173a76"></circle><g id="Group_3" data-name="Group 3" transform="translate(9.348 9.925)"><path id="Path_5" data-name="Path 5" d="M45.168,28.877V22.065a.338.338,0,0,0-.278-.339L40.333,20.8a.526.526,0,0,1-.4-.358,16.739,16.739,0,0,0-1.16-2.8.525.525,0,0,1,.027-.533l2.566-3.879a.337.337,0,0,0-.042-.436L36.511,7.977a.339.339,0,0,0-.437-.044L32.2,10.5a.526.526,0,0,1-.534.027,16.82,16.82,0,0,0-2.8-1.16.524.524,0,0,1-.357-.4l-.929-4.557a.34.34,0,0,0-.339-.276H20.428a.339.339,0,0,0-.339.276L19.161,8.97a.526.526,0,0,1-.357.4,16.808,16.808,0,0,0-2.8,1.16.525.525,0,0,1-.533-.027L11.594,7.933a.339.339,0,0,0-.436.044L6.34,12.8a.339.339,0,0,0-.044.436L8.863,17.11a.522.522,0,0,1,.027.533,16.794,16.794,0,0,0-1.16,2.8.526.526,0,0,1-.4.358l-4.557.928a.338.338,0,0,0-.277.339v6.812a.339.339,0,0,0,.277.339l4.556.928a.525.525,0,0,1,.4.357,16.763,16.763,0,0,0,1.16,2.8.525.525,0,0,1-.027.533L6.3,37.711a.339.339,0,0,0,.044.436l4.817,4.817a.339.339,0,0,0,.436.044l3.879-2.567A.526.526,0,0,1,16,40.414a16.915,16.915,0,0,0,1.567.723v-2.19a2.827,2.827,0,0,0-1.12-2.3,12,12,0,1,1,14.764,0,2.827,2.827,0,0,0-1.121,2.3v2.192a16.866,16.866,0,0,0,1.568-.723.525.525,0,0,1,.534.028l3.878,2.566a.341.341,0,0,0,.437-.044l4.817-4.817a.337.337,0,0,0,.044-.436l-2.566-3.879a.522.522,0,0,1-.027-.533,16.766,16.766,0,0,0,1.16-2.8.524.524,0,0,1,.4-.357l4.555-.928a.339.339,0,0,0,.278-.339ZM28.423,42.216H19.245a.624.624,0,0,1-.623-.622V39.942H29.046v1.651A.624.624,0,0,1,28.423,42.216Zm-4.589,3.038a4.454,4.454,0,0,1-3.715-1.988h7.429a4.453,4.453,0,0,1-3.715,1.988Zm0-17.516a1.912,1.912,0,1,1,1.912-1.912,1.912,1.912,0,0,1-1.912,1.912Zm5.215,11.156H24.358V28.739a2.961,2.961,0,1,0-1.049,0V38.893h-4.69A3.84,3.84,0,0,0,17.1,35.821a10.952,10.952,0,1,1,13.472,0,3.84,3.84,0,0,0-1.519,3.073Z" transform="translate(-2.5 -4.137)" fill="#fff" fill-rule="evenodd"></path></g></g><g id="Group_47" data-name="Group 47" transform="translate(80 33.591)"><circle id="Ellipse_1" data-name="Ellipse 1" cx="30.5" cy="30.5" r="30.5" transform="translate(0 0.409)" fill="#173a76"></circle><g id="Group_26" data-name="Group 26" transform="translate(11.786 9.925)"><g id="Group_5" data-name="Group 5" transform="translate(3.451 31.046)"><path id="Path_7" data-name="Path 7" d="M17.19,73.879a.69.69,0,0,0,.69-.69v-.046a.671.671,0,0,0-.69-.667.71.71,0,0,0-.69.713A.69.69,0,0,0,17.19,73.879Z" transform="translate(-16.5 -72.476)" fill="#fff"></path></g><g id="Group_6" data-name="Group 6" transform="translate(3.451 28.769)"><path id="Path_8" data-name="Path 8" d="M17.19,68.931a.69.69,0,0,0,.69-.69V68.2a.671.671,0,0,0-.69-.667.71.71,0,0,0-.69.713A.691.691,0,0,0,17.19,68.931Z" transform="translate(-16.5 -67.528)" fill="#fff"></path></g><g id="Group_7" data-name="Group 7" transform="translate(5.898 28.766)"><path id="Path_9" data-name="Path 9" d="M22.554,68.92a.69.69,0,0,0,.653-.689s0-.043,0-.046a.67.67,0,0,0-.651-.661l-.048,0a.706.706,0,0,0-.69.709.69.69,0,0,0,.69.69Z" transform="translate(-21.818 -67.522)" fill="#fff"></path></g><g id="Group_8" data-name="Group 8" transform="translate(8.343 28.764)"><path id="Path_10" data-name="Path 10" d="M27.872,67.519h-.048a.7.7,0,0,0-.69.7.69.69,0,0,0,.69.69h.046a.689.689,0,0,0,.663-.689c0-.006,0-.04,0-.047A.676.676,0,0,0,27.872,67.519Z" transform="translate(-27.134 -67.518)" fill="#fff"></path></g><g id="Group_9" data-name="Group 9" transform="translate(10.79 28.762)"><path id="Path_11" data-name="Path 11" d="M33.189,67.513h-.047a.7.7,0,0,0-.691.7.691.691,0,0,0,.691.69h.046a.689.689,0,0,0,.672-.689c0-.01,0-.038,0-.047A.681.681,0,0,0,33.189,67.513Z" transform="translate(-32.451 -67.512)" fill="#fff"></path></g><g id="Group_10" data-name="Group 10" transform="translate(13.237 28.759)"><path id="Path_12" data-name="Path 12" d="M38.506,67.506h-.047a.692.692,0,0,0,0,1.385h.046a.69.69,0,0,0,.681-.69c0-.012,0-.035,0-.048A.686.686,0,0,0,38.506,67.506Z" transform="translate(-37.769 -67.506)" fill="#fff"></path></g><g id="Group_11" data-name="Group 11" transform="translate(15.684 28.756)"><path id="Path_13" data-name="Path 13" d="M43.824,68.88a.69.69,0,0,0,0-1.38h-.046a.69.69,0,0,0,0,1.38Z" transform="translate(-43.088 -67.5)" fill="#fff"></path></g><g id="Group_12" data-name="Group 12" transform="translate(32.897 31.046)"><path id="Path_14" data-name="Path 14" d="M81.19,73.879a.69.69,0,0,0,.69-.69.71.71,0,0,0-.69-.713.671.671,0,0,0-.69.667v.046A.69.69,0,0,0,81.19,73.879Z" transform="translate(-80.5 -72.476)" fill="#fff"></path></g><g id="Group_13" data-name="Group 13" transform="translate(32.897 28.769)"><path id="Path_15" data-name="Path 15" d="M81.19,68.932a.69.69,0,0,0,.69-.69.71.71,0,0,0-.69-.713.671.671,0,0,0-.69.667v.046A.69.69,0,0,0,81.19,68.932Z" transform="translate(-80.5 -67.529)" fill="#fff"></path></g><g id="Group_14" data-name="Group 14" transform="translate(30.441 28.766)"><path id="Path_16" data-name="Path 16" d="M75.861,67.522l-.048,0a.671.671,0,0,0-.651.661s0,.046,0,.046a.69.69,0,0,0,.653.689h.046a.69.69,0,0,0,.69-.69A.706.706,0,0,0,75.861,67.522Z" transform="translate(-75.162 -67.522)" fill="#fff"></path></g><g id="Group_15" data-name="Group 15" transform="translate(27.985 28.764)"><path id="Path_17" data-name="Path 17" d="M70.533,67.518h-.048a.676.676,0,0,0-.66.656c0,.006,0,.04,0,.047a.689.689,0,0,0,.662.689h.046a.691.691,0,0,0,.69-.69A.7.7,0,0,0,70.533,67.518Z" transform="translate(-69.824 -67.518)" fill="#fff"></path></g><g id="Group_16" data-name="Group 16" transform="translate(25.529 28.762)"><path id="Path_18" data-name="Path 18" d="M65.2,67.512h-.047a.681.681,0,0,0-.67.651c0,.01,0,.037,0,.047a.689.689,0,0,0,.672.689H65.2a.69.69,0,0,0,.691-.69A.7.7,0,0,0,65.2,67.512Z" transform="translate(-64.487 -67.512)" fill="#fff"></path></g><g id="Group_17" data-name="Group 17" transform="translate(23.073 28.759)"><path id="Path_19" data-name="Path 19" d="M59.876,67.506h-.047a.687.687,0,0,0-.68.646c0,.012,0,.035,0,.048a.689.689,0,0,0,.68.69h.046a.692.692,0,0,0,0-1.385Z" transform="translate(-59.149 -67.506)" fill="#fff"></path></g><g id="Group_18" data-name="Group 18" transform="translate(20.618 28.756)"><path id="Path_20" data-name="Path 20" d="M54.548,68.88a.69.69,0,0,0,0-1.38H54.5a.69.69,0,0,0,0,1.38Z" transform="translate(-53.812 -67.5)" fill="#fff"></path></g><g id="Group_19" data-name="Group 19" transform="translate(18.174 31.034)"><path id="Path_21" data-name="Path 21" d="M48.5,73.163a.69.69,0,1,0,1.38,0V73.14a.69.69,0,0,0-1.38,0Z" transform="translate(-48.5 -72.45)" fill="#fff"></path></g><g id="Group_20" data-name="Group 20" transform="translate(18.174 28.736)"><path id="Path_22" data-name="Path 22" d="M48.5,68.187a.69.69,0,0,0,1.38,0v-.041a.69.69,0,1,0-1.38,0Z" transform="translate(-48.5 -67.456)" fill="#fff"></path></g><g id="Group_21" data-name="Group 21" transform="translate(18.174 26.456)"><path id="Path_23" data-name="Path 23" d="M49.19,63.9a.69.69,0,0,0,.69-.69V63.19a.69.69,0,0,0-1.38,0v.023A.69.69,0,0,0,49.19,63.9Z" transform="translate(-48.5 -62.5)" fill="#fff"></path></g><g id="Group_22" data-name="Group 22" transform="translate(0 33.189)"><circle id="Ellipse_8" data-name="Ellipse 8" cx="4.11" cy="4.11" r="4.11" fill="#fff"></circle></g><g id="Group_23" data-name="Group 23" transform="translate(14.679 33.189)"><circle id="Ellipse_9" data-name="Ellipse 9" cx="4.11" cy="4.11" r="4.11" fill="#fff"></circle></g><g id="Group_24" data-name="Group 24" transform="translate(29.357 33.189)"><circle id="Ellipse_10" data-name="Ellipse 10" cx="4.11" cy="4.11" r="4.11" fill="#fff"></circle></g><g id="Group_25" data-name="Group 25" transform="translate(5.981)"><path id="Path_24" data-name="Path 24" d="M34.883,5A12.883,12.883,0,1,0,47.765,17.883,12.882,12.882,0,0,0,34.883,5Zm-2.991,6.98a1.15,1.15,0,1,1-1.15,1.15A1.15,1.15,0,0,1,31.892,11.98Zm4.068,5.6a4.555,4.555,0,0,1-1.07-.127,2.483,2.483,0,0,0-.587-.068A3.365,3.365,0,0,0,32.44,18a3.713,3.713,0,0,0-1.332,1.609l-.985,2.348-.319.76h11.98a.69.69,0,1,1,0,1.38h-13.8a.69.69,0,0,1-.69-.691V11.831a.69.69,0,1,1,1.38,0V21.845l1.163-2.773a5.091,5.091,0,0,1,1.828-2.215A4.731,4.731,0,0,1,34.3,16a3.879,3.879,0,0,1,.911.106,3.182,3.182,0,0,0,.746.089,2.936,2.936,0,0,0,1.57-.44,1.977,1.977,0,0,0,.859-1.075l.443-1.454-2.954-.741,4.66-3.15,2.643,4.983-3.009-.755-.464,1.521a3.359,3.359,0,0,1-1.437,1.836A4.309,4.309,0,0,1,35.959,17.58Zm.764,3.372a1.15,1.15,0,1,1-1.15-1.15A1.15,1.15,0,0,1,36.723,20.952Z" transform="translate(-22 -5)" fill="#fff"></path></g></g></g><g id="Group_46" data-name="Group 46" transform="translate(224.529 33.591)"><circle id="Ellipse_3" data-name="Ellipse 3" cx="30.5" cy="30.5" r="30.5" transform="translate(0.471 0.409)" fill="#173a76"></circle><g id="Group_28" data-name="Group 28" transform="translate(9.299 14.267)"><path id="Path_26" data-name="Path 26" d="M48.508,30.051a3.478,3.478,0,0,0-5.872,1.816H40.023A13.247,13.247,0,0,0,39.316,24a8.657,8.657,0,0,0-.561-.964l.96-.96a3.474,3.474,0,1,0-.87-.942l-.886.886c-3.548-3.916-10.4-4.628-15-2.341A8.608,8.608,0,0,0,19.47,22.7L17.9,21.13a3.475,3.475,0,1,0-.87.942L19.1,24.14a38.5,38.5,0,0,1-1.177,6.038c-.168.564-.372,1.13-.6,1.688H14.113a3.474,3.474,0,1,0,0,1.282h2.642c-.323.669-.669,1.308-1.018,1.89.083.123.01.109.548.1.371-.006.9-.014,1.673.031a.712.712,0,0,1,.662.588c.381,2.013-.257,3.755.237,5.361l-1.823,1.823a3.462,3.462,0,0,0-2.074-.685v0A3.474,3.474,0,1,0,17.9,43.885L19.493,42.3c.938.988,2.768.837,4.427.87a.711.711,0,0,1,.693.636,13.959,13.959,0,0,1,.069,1.735H36.778a8.858,8.858,0,0,1-.447-4.167l2.515,2.515a3.475,3.475,0,1,0,2.944-1.629v0a3.462,3.462,0,0,0-2.074.685L36.66,39.887a18.773,18.773,0,0,1,1.684-3.634c.343-.615.665-1.194.9-1.735a11.444,11.444,0,0,0,.481-1.37h2.914a3.474,3.474,0,1,0,5.872-3.1ZM27.045,38.1a7.778,7.778,0,0,1-1.454-.531l-2.9,1.673a.713.713,0,0,1-1.127-.582c0-2.718-.376-5.469-.376-8.106A7.792,7.792,0,1,1,27.045,38.1Zm1.937-13.91a6.364,6.364,0,0,0-6.364,6.364c0,2.225.276,4.612.354,6.886l2.248-1.3a.71.71,0,0,1,.7-.007v0a6.365,6.365,0,1,0,3.066-11.944Zm-4.57,7.973a1.549,1.549,0,1,1,2.644-1.095A1.55,1.55,0,0,1,24.413,32.165Zm5.665,0a1.549,1.549,0,1,1-1.095-2.644A1.55,1.55,0,0,1,30.077,32.165Zm2.38.454a1.549,1.549,0,1,1,1.095-2.644A1.549,1.549,0,0,1,32.457,32.619Z" transform="translate(-7.223 -15.811)" fill="#fff"></path></g></g></g><g id="Group_49" data-name="Group 49" transform="translate(31)"><g id="Group_43" data-name="Group 43" transform="translate(193.967 154.591)"><g id="Group_34" data-name="Group 34" transform="translate(0)"><circle id="Ellipse_6" data-name="Ellipse 6" cx="30.5" cy="30.5" r="30.5" transform="translate(0.033 0.409)" fill="#173a76"></circle><g id="Group_27" data-name="Group 27" transform="translate(14.366 11.786)"><path id="Path_25" data-name="Path 25" d="M26.495,20.527a.453.453,0,1,1,0-.905h7.02a.453.453,0,1,1,0,.905Zm0,2.386a.453.453,0,1,1,0-.905h10.83a.453.453,0,0,1,0,.905Zm-1.981-3.291a.453.453,0,1,1,0,.905h-.022a.453.453,0,1,1,0-.905Zm0,2.386a.453.453,0,1,1,0,.905h-.022a.453.453,0,1,1,0-.905Zm1.981-10.386a.453.453,0,1,1,0-.9h7.02a.453.453,0,1,1,0,.9Zm0,2.386a.453.453,0,1,1,0-.9h10.83a.453.453,0,1,1,0,.9Zm-1.981-3.291a.453.453,0,1,1,0,.9h-.022a.453.453,0,1,1,0-.9Zm0,2.386a.453.453,0,1,1,0,.9h-.022a.453.453,0,1,1,0-.9ZM20.464,14.2a.453.453,0,1,1-.64-.64l.744-.743H17.893a.453.453,0,0,1,0-.905h2.676l-.743-.743a.453.453,0,0,1,.638-.64l1.512,1.512a.455.455,0,0,1,.042.047h0l.02.028h0l.018.028h0a.453.453,0,0,1,0,.44h0l-.018.028h0l-.02.028h0a.455.455,0,0,1-.042.047Zm0,8.906a.453.453,0,0,1-.64-.64l.745-.741H17.893a.453.453,0,0,1,0-.905h2.676l-.743-.743a.453.453,0,1,1,.638-.642l1.512,1.512a.456.456,0,0,1,.042.047h0l.02.027h0l.018.029h0a.453.453,0,0,1,0,.44h0l-.018.028h0l-.02.028h0a.5.5,0,0,1-.042.047l-1.512,1.515Zm-.735,8.266a.453.453,0,0,1-.64.64L17.577,30.5a.446.446,0,0,1-.042-.047h0l-.02-.028h0a.325.325,0,0,1-.018-.029h0a.454.454,0,0,1,0-.44h0l.018-.028h0l.02-.027h0a.494.494,0,0,1,.042-.047l1.512-1.512a.453.453,0,0,1,.64.64l-.743.743h2.676a.453.453,0,0,1,0,.905H18.986l.743.743Zm-4.161,7.62-1.655-1.01a.079.079,0,0,0-.059-.009.076.076,0,0,0-.048.034L11.685,41.47a.335.335,0,0,0,.111.461l1.212.74a.34.34,0,0,0,.464-.112L15.59,39.1h0l0-.006a.075.075,0,0,0,.009-.057.077.077,0,0,0-.029-.044l-.005,0Zm.126-1.152a.47.47,0,0,1,.042-.068l.775-1.257-.824-.5-.894,1.449.827.505.077-.126Zm.185-11.551a.5.5,0,0,1-.042.042A5.528,5.528,0,0,0,16,34.158a.451.451,0,0,1,.08.567l-.176.289a.061.061,0,0,0-.008.046.063.063,0,0,0,.026.037l1.28.782a.061.061,0,0,0,.084-.019l.176-.289h0A.452.452,0,0,1,18,35.38a5.526,5.526,0,1,0-2.119-9.095ZM40.942,10.033H36.361a.452.452,0,0,1-.453-.453V5H15.988V25a6.43,6.43,0,1,1,2.063,11.345.959.959,0,0,1-.587.419l-.053.011-.5.812H40.942ZM36.814,5.64l2.175,2.175L39,7.822,40.3,9.128H36.814ZM18.84,38.493V40.54H43.793V7.951H40.4l1.308,1.31a.45.45,0,0,1,.132.32V38.04a.453.453,0,0,1-.453.453ZM21.882,27.32a3.548,3.548,0,1,0,1.4,2.324,3.548,3.548,0,0,0-1.4-2.324Zm-2.771-1.546a4.452,4.452,0,1,0,3.3.818,4.452,4.452,0,0,0-3.3-.818Zm9.01,3.66a.453.453,0,1,1,0-.905h5.964a.453.453,0,1,1,0,.905Zm0,2.386a.453.453,0,0,1,0-.905h9.2a.453.453,0,0,1,0,.905Z" transform="translate(-11.636 -5)" fill="#fff" fill-rule="evenodd"></path></g></g></g><g id="Group_44" data-name="Group 44" transform="translate(122.012 154.591)"><g id="Group_33" data-name="Group 33" transform="translate(0)"><circle id="Ellipse_4" data-name="Ellipse 4" cx="30.5" cy="30.5" r="30.5" transform="translate(-0.012 0.409)" fill="#173a76"></circle><g id="Group_29" data-name="Group 29" transform="translate(8.74 13.647)"><path id="Path_27" data-name="Path 27" d="M18.543,41.915a5.7,5.7,0,0,0,10.77,0ZM17.919,18.8a.5.5,0,0,1-.11,1l-.1-.008h-.1A1.729,1.729,0,0,0,16.5,22.836a.5.5,0,0,1,.057.7.487.487,0,0,1-.061.06,1.747,1.747,0,0,0-.445.59,1.729,1.729,0,0,0,1.571,2.453h.1c.021,0,.061,0,.1-.01a.5.5,0,1,1,.114,1c-.048.006-.1.01-.161.014s-.1.005-.143.005c-.006.02-.011.04-.016.06a1.433,1.433,0,0,0,1.387,1.767,1.451,1.451,0,0,0,.34-.039,1.431,1.431,0,0,0,.319-.12.5.5,0,1,1,.459.89,2.4,2.4,0,0,1-.524.2,1.392,1.392,0,0,0,2.764-.227V16.251a1.392,1.392,0,0,0-2.764-.228l.026.007a2.421,2.421,0,0,1,.579.235.5.5,0,0,1-.494.871A1.434,1.434,0,0,0,17.62,18.73c0,.018.009.035.014.052.034,0,.079,0,.134.006s.105.007.152.012Zm4.038-1.443a.5.5,0,1,1-.494.871,1.089,1.089,0,0,0-1.5,1.46.5.5,0,0,1-.887.471,2.093,2.093,0,0,1,2.385-3.005,2.064,2.064,0,0,1,.5.2ZM17.642,21.17a.5.5,0,0,1,.891.459.9.9,0,0,0-.077.2.918.918,0,0,0-.024.216.908.908,0,0,0,1.329.809.5.5,0,0,1,.459.891,1.914,1.914,0,0,1-2.577-2.578Zm2.318,6.873a.5.5,0,1,1-.891.46,1.913,1.913,0,0,1,2.577-2.577.5.5,0,0,1-.459.891.915.915,0,0,0-1.3,1.025A.884.884,0,0,0,19.96,28.043ZM30.046,19.8a.5.5,0,1,1-.11-1c.048-.006.1-.01.152-.012s.1-.005.134-.006c0-.017.01-.035.014-.052a1.452,1.452,0,0,0,.041-.348,1.431,1.431,0,0,0-2.133-1.247.5.5,0,1,1-.494-.871,2.428,2.428,0,0,1,.578-.235l.026-.007a1.392,1.392,0,0,0-2.764.228V30.177a1.392,1.392,0,0,0,2.764.227,2.4,2.4,0,0,1-.524-.2.5.5,0,1,1,.459-.89,1.429,1.429,0,0,0,.319.12,1.447,1.447,0,0,0,.34.039,1.429,1.429,0,0,0,1.429-1.428,1.446,1.446,0,0,0-.039-.34c-.005-.02-.01-.04-.016-.06-.038,0-.085,0-.143-.005s-.118-.009-.163-.014a.5.5,0,1,1,.118-1l.1.01c.025,0,.056,0,.1,0A1.73,1.73,0,0,0,31.366,23.6a.524.524,0,0,1-.061-.06.5.5,0,0,1,.057-.7,1.729,1.729,0,0,0-1.12-3.047h-.1a.907.907,0,0,0-.1.008Zm-3.762.767a.5.5,0,1,1,.494-.871,1.1,1.1,0,0,0,1.6-1.216,1.07,1.07,0,0,0-.1-.245.5.5,0,0,1,.887-.471,2.1,2.1,0,0,1-2.881,2.8Zm3.728,4.485a.5.5,0,1,1-.89-.459.873.873,0,0,0,.1-.419.917.917,0,0,0-1.126-.883.891.891,0,0,0-.2.077.5.5,0,0,1-.46-.89,1.883,1.883,0,0,1,.429-.159,1.913,1.913,0,0,1,2.149,2.735Zm-2.088.809a.5.5,0,1,1,.89-.459,1.913,1.913,0,0,1-2.578,2.574.5.5,0,0,1,.459-.891.91.91,0,0,0,1.329-.809A.92.92,0,0,0,28,26.055a.9.9,0,0,0-.076-.2Zm-5.77,6.4a2.407,2.407,0,0,0,1.215-2.083V16.251a2.4,2.4,0,0,0-4.777-.267,2.432,2.432,0,0,0-1.949,2.976,2.732,2.732,0,0,0-1.509,3.7,2.684,2.684,0,0,0,.343.554,2.733,2.733,0,0,0,1.166,4.254h0a2.434,2.434,0,0,0,1.952,2.976,2.4,2.4,0,0,0,2.381,2.129,1.675,1.675,0,0,0,.177-.006v4.714H18.381v-.21h0A5.013,5.013,0,0,0,16.4,33.02a12.3,12.3,0,1,1,15.06,0,5.011,5.011,0,0,0-1.983,4.051v.21H26.705V32.568c.059,0,.118.006.177.006a2.4,2.4,0,0,0,2.381-2.129,2.428,2.428,0,0,0,1.95-2.976h0a2.73,2.73,0,0,0,1.509-3.7,2.7,2.7,0,0,0-.343-.555,2.684,2.684,0,0,0,.343-.554,2.733,2.733,0,0,0-1.509-3.7,2.434,2.434,0,0,0-1.949-2.976,2.4,2.4,0,0,0-4.777.267V30.177A2.406,2.406,0,0,0,25.7,32.26v5.022H22.154Zm7.32,8.65V38.286H18.38V40.91Zm12.36-11.771a2.058,2.058,0,0,0-.542.956h-1.26l-1.648-2.84h0a.5.5,0,0,0-.439-.249l-1.253.015a2.4,2.4,0,0,1-.337,1.005l1.309-.017,1.647,2.838a.5.5,0,0,0,.433.25h1.548a2.062,2.062,0,1,0,.542-1.961Zm0-4.467a2.061,2.061,0,1,0-.542-1.96H37.205a1.2,1.2,0,0,1,.008,1h4.08a2.056,2.056,0,0,0,.542.956Zm1.458-6.779a2.062,2.062,0,1,0-2-2.565H39.744a.5.5,0,0,0-.433.25l-1.647,2.838L36.283,18.4a1.509,1.509,0,0,1,.354,1l1.309.017a.5.5,0,0,0,.439-.25h0l1.647-2.837h1.26a2.064,2.064,0,0,0,2,1.56Zm-37.272-.6a2.063,2.063,0,0,0,.543-.956h1.26l1.648,2.84h0a.5.5,0,0,0,.439.25l1.309-.017a3.009,3.009,0,0,1,.353-1l-1.381.017L8.548,15.58a.5.5,0,0,0-.434-.25H6.566a2.064,2.064,0,1,0-.543,1.961Zm0,4.467a2.06,2.06,0,1,0,.543,1.96h4.079a2.208,2.208,0,0,1,.007-1H6.564A2.061,2.061,0,0,0,6.021,21.756Zm0,7.383A2.06,2.06,0,1,0,6.564,31.1H8.111a.5.5,0,0,0,.434-.25l1.647-2.838,1.309.017a1.993,1.993,0,0,1-.337-1.005l-1.253-.015a.5.5,0,0,0-.439.249h0L7.824,30.1H6.564A2.063,2.063,0,0,0,6.021,29.139Z" transform="translate(-2.5 -11.002)" fill="#fff" fill-rule="evenodd"></path></g></g></g><g id="Group_45" data-name="Group 45" transform="translate(49.438 154.591)"><g id="Group_32" data-name="Group 32" transform="translate(0)"><ellipse id="Ellipse_7" data-name="Ellipse 7" cx="31" cy="30.5" rx="31" ry="30.5" transform="translate(-0.438 0.409)" fill="#173a76"></ellipse><g id="Group_31" data-name="Group 31" transform="translate(12.51 12.406)"><g id="Group_30" data-name="Group 30"><path id="Path_28" data-name="Path 28" d="M27.241,36.3c-.082-.023-.159-.058-.241-.083v7.932h2.481v-6.2H27.795Z" transform="translate(-12.113 -15.611)" fill="#fff"></path><path id="Path_29" data-name="Path 29" d="M30.058,56.664a1.739,1.739,0,0,1-2.95,0L26.068,55H23v3.722H34.165V55H31.1Zm-4.577.818H24.241V56.241h1.241Zm6.2-1.241h1.241v1.241H31.684Z" transform="translate(-10.594 -22.745)" fill="#fff"></path><path id="Path_30" data-name="Path 30" d="M29.983,54.487a.517.517,0,0,0,.847,0L33.01,51H27.8Z" transform="translate(-12.418 -21.226)" fill="#fff"></path><path id="Path_31" data-name="Path 31" d="M33.327,18.638l.176-.292a9.246,9.246,0,0,0,1.066-2.571l.081-.331,1.44-.485V12.13l-1.44-.485-.081-.331A9.209,9.209,0,0,0,33.5,8.744l-.176-.292L34,7.09l-2-2-1.362.676-.292-.177a9.226,9.226,0,0,0-2.571-1.065l-.331-.082L26.96,3H24.13l-.485,1.44-.331.082a9.234,9.234,0,0,0-2.571,1.065l-.292.177-1.362-.676-2,2,.676,1.362-.176.292a9.246,9.246,0,0,0-1.066,2.571l-.081.331L15,12.13v2.83l1.44.485.081.331a9.209,9.209,0,0,0,1.066,2.571l.176.292L17.087,20l2,2,1.362-.676.292.177a9.226,9.226,0,0,0,2.571,1.065l.331.082.485,1.441h2.83l.485-1.44.331-.082A9.234,9.234,0,0,0,30.347,21.5l.292-.177L32,22l2-2Zm-7.782,2.35a7.444,7.444,0,1,1,7.444-7.444A7.444,7.444,0,0,1,25.545,20.989Z" transform="translate(-7.556 -3)" fill="#fff"></path><path id="Path_32" data-name="Path 32" d="M35.481,36.212c-.081.025-.159.06-.241.083l-.554,1.646H33v6.2h2.481Z" transform="translate(-14.391 -15.611)" fill="#fff"></path><rect id="Rectangle_54" data-name="Rectangle 54" width="8.772" height="1.241" transform="matrix(0.142, -0.99, 0.99, 0.142, 16.754, 14.8)" fill="#fff"></rect><path id="Path_33" data-name="Path 33" d="M34.293,16.17l2.043,2.043-2.043,2.043.877.877,2.92-2.92-2.92-2.92Z" transform="translate(-14.882 -7.668)" fill="#fff"></path><path id="Path_34" data-name="Path 34" d="M27.383,16.17l-.877-.877-2.92,2.92,2.92,2.92.877-.877L25.34,18.213Z" transform="translate(-10.817 -7.668)" fill="#fff"></path><path id="Path_35" data-name="Path 35" d="M49,37v8.684h7.444V37Zm6.2,7.444H50.241V43.2H55.2Zm0-2.481H50.241V40.722H55.2Zm0-2.481H50.241V38.241H55.2Z" transform="translate(-20.466 -15.91)" fill="#fff"></path><path id="Path_36" data-name="Path 36" d="M10.444,37H3v8.684h7.444ZM9.2,44.444H4.241V43.2H9.2Zm0-2.481H4.241V40.722H9.2Zm0-2.481H4.241V38.241H9.2Z" transform="translate(-3 -15.91)" fill="#fff"></path><path id="Path_37" data-name="Path 37" d="M50.046,55.481H45.96l.8-.8-.877-.877-2.3,2.3,2.3,2.3.877-.877-.8-.8h5.326V53H50.046Z" transform="translate(-18.411 -21.985)" fill="#fff"></path><path id="Path_38" data-name="Path 38" d="M53.481,25.326l-.8-.8L51.8,25.4l2.3,2.3,2.3-2.3-.877-.877-.8.8V20H51v1.241h2.481Z" transform="translate(-21.226 -9.455)" fill="#fff"></path><path id="Path_39" data-name="Path 39" d="M12.524,54.679l.8.8H9.241V53H8v3.722h5.326l-.8.8.877.877,2.3-2.3-2.3-2.3Z" transform="translate(-4.899 -21.985)" fill="#fff"></path><path id="Path_40" data-name="Path 40" d="M8.892,25.4l-.877-.877-.8.8V21.241H9.694V20H5.972v5.326l-.8-.8-.877.877,2.3,2.3Z" transform="translate(-3.491 -9.455)" fill="#fff"></path></g></g></g></g></g><text id="AI_in_fraud_detection" data-name="AI in fraud detection" transform="translate(183 120)" fill="#fff" font-size="16" font-family="OpenSans-Semibold, Open Sans" font-weight="600"><tspan x="-41" y="0">AI in Fraud</tspan><tspan x="-37" y="22">Detection</tspan></text></g></svg> 