<?xml version="1.0" encoding="UTF-8"?> <svg xmlns="http://www.w3.org/2000/svg" xmlns:xlink="http://www.w3.org/1999/xlink" width="270" height="135" viewBox="0 0 270 135"><defs><clipPath id="clip-path"><rect id="Rectangle_15" data-name="Rectangle 15" width="270" height="135" transform="translate(638 3936)" fill="#ebebeb"></rect></clipPath></defs><g id="Mask_Group_2" data-name="Mask Group 2" transform="translate(-638 -3936)" clip-path="url(#clip-path)"><g id="Amazon_Web_Services_Logo" transform="translate(692.332 3954.9)"><path id="Path_6" data-name="Path 6" d="M52.134,35.452a15.917,15.917,0,0,0,.579,4.682A28.159,28.159,0,0,0,54.4,43.921a2.288,2.288,0,0,1,.368,1.21,2.083,2.083,0,0,1-1,1.578l-3.314,2.209a2.522,2.522,0,0,1-1.368.473,2.421,2.421,0,0,1-1.578-.736,16.276,16.276,0,0,1-1.894-2.472c-.526-.894-1.052-1.894-1.631-3.1a19.433,19.433,0,0,1-15.466,7.26c-4.419,0-7.944-1.263-10.521-3.788a13.514,13.514,0,0,1-3.893-10.1,13.542,13.542,0,0,1,4.787-10.837c3.209-2.736,7.47-4.1,12.888-4.1a41.652,41.652,0,0,1,5.576.421c1.946.263,3.945.684,6.05,1.157v-3.84c0-4-.842-6.786-2.472-8.417C39.246,9.2,36.4,8.412,32.354,8.412a23.935,23.935,0,0,0-5.681.684,41.917,41.917,0,0,0-5.681,1.789,15.094,15.094,0,0,1-1.841.684,3.227,3.227,0,0,1-.842.158c-.736,0-1.1-.526-1.1-1.631V7.518a3.329,3.329,0,0,1,.368-1.841,3.939,3.939,0,0,1,1.473-1.1A30.286,30.286,0,0,1,25.673,2.2a31.894,31.894,0,0,1,8.207-1c6.26,0,10.837,1.42,13.783,4.261,2.893,2.841,4.366,7.154,4.366,12.941V35.452Zm-21.358,8a17.049,17.049,0,0,0,5.418-.947,11.723,11.723,0,0,0,5-3.367,8.35,8.35,0,0,0,1.789-3.367,18.886,18.886,0,0,0,.526-4.577V28.981a43.932,43.932,0,0,0-4.84-.894,39.639,39.639,0,0,0-4.945-.316c-3.525,0-6.1.684-7.838,2.1a7.332,7.332,0,0,0-2.578,6.05c0,2.472.631,4.314,1.946,5.576A7.3,7.3,0,0,0,30.776,43.448Zm42.243,5.681a2.937,2.937,0,0,1-2-.526,4.288,4.288,0,0,1-1.1-2.052L57.553,5.887a9.215,9.215,0,0,1-.473-2.1,1.154,1.154,0,0,1,1.263-1.315H63.5a2.916,2.916,0,0,1,2.052.526A4.3,4.3,0,0,1,66.6,5.045l8.838,34.825L83.645,5.045a3.69,3.69,0,0,1,1-2.052,3.619,3.619,0,0,1,2.1-.526h4.208a3.166,3.166,0,0,1,2.1.526,3.545,3.545,0,0,1,1,2.052l8.312,35.246,9.1-35.246a4.511,4.511,0,0,1,1.052-2.052,3.432,3.432,0,0,1,2.052-.526h4.892a1.169,1.169,0,0,1,1.315,1.315,5.244,5.244,0,0,1-.105.842,7.485,7.485,0,0,1-.368,1.315L107.634,46.6a4.034,4.034,0,0,1-1.1,2.052,3.366,3.366,0,0,1-2,.526h-4.524a3.166,3.166,0,0,1-2.1-.526,3.729,3.729,0,0,1-1-2.1L88.748,12.621,80.647,46.5a4.106,4.106,0,0,1-1,2.1,3.261,3.261,0,0,1-2.1.526Zm67.6,1.42a34.812,34.812,0,0,1-8.1-.947,23.932,23.932,0,0,1-6.05-2.1,3.79,3.79,0,0,1-1.631-1.473,3.713,3.713,0,0,1-.316-1.473V41.87c0-1.1.421-1.631,1.21-1.631a2.978,2.978,0,0,1,.947.158c.316.105.789.316,1.315.526a28.614,28.614,0,0,0,5.787,1.841,31.592,31.592,0,0,0,6.26.631c3.314,0,5.892-.579,7.68-1.736a5.665,5.665,0,0,0,2.736-5,5.123,5.123,0,0,0-1.42-3.682c-.947-1-2.736-1.894-5.313-2.736l-7.628-2.367c-3.84-1.21-6.681-3-8.417-5.366a12.533,12.533,0,0,1-2.63-7.628,11.708,11.708,0,0,1,1.42-5.839,13.526,13.526,0,0,1,3.788-4.314,16.7,16.7,0,0,1,5.471-2.736,22.928,22.928,0,0,1,6.628-.894,26.408,26.408,0,0,1,3.525.21c1.21.158,2.315.368,3.419.579,1.052.263,2.052.526,3,.842a11.482,11.482,0,0,1,2.209.947,4.549,4.549,0,0,1,1.578,1.315,2.835,2.835,0,0,1,.473,1.736V9.2c0,1.1-.421,1.683-1.21,1.683a5.472,5.472,0,0,1-2-.631,24.067,24.067,0,0,0-10.1-2.052,13.578,13.578,0,0,0-7,1.473,5.08,5.08,0,0,0-2.472,4.682,4.968,4.968,0,0,0,1.578,3.735,15.713,15.713,0,0,0,5.787,2.893l7.47,2.367c3.788,1.21,6.523,2.893,8.154,5.05a11.9,11.9,0,0,1,2.42,7.365,13.524,13.524,0,0,1-1.368,6.1,14.148,14.148,0,0,1-3.84,4.629,16.958,16.958,0,0,1-5.839,2.946A25.015,25.015,0,0,1,140.618,50.55Z" transform="translate(-5.892 0)" fill="#252f3e"></path><g id="Group_1" data-name="Group 1" transform="translate(1.668 60.067)"><path id="Path_7" data-name="Path 7" d="M144.668,132.061c-17.307,12.783-42.453,19.569-64.074,19.569A115.918,115.918,0,0,1,2.369,121.8c-1.631-1.473-.158-3.472,1.789-2.315a157.759,157.759,0,0,0,78.278,20.779,156.206,156.206,0,0,0,59.708-12.2C145.037,126.748,147.509,129.957,144.668,132.061Z" transform="translate(-1.668 -116.013)" fill="#f90" fill-rule="evenodd"></path><path id="Path_8" data-name="Path 8" d="M267.667,121.035c-2.209-2.841-14.625-1.368-20.253-.684-1.683.21-1.946-1.263-.421-2.367,9.89-6.944,26.145-4.945,28.039-2.63,1.894,2.367-.526,18.623-9.785,26.408-1.42,1.21-2.788.579-2.157-1C265.195,135.554,269.877,123.823,267.667,121.035Z" transform="translate(-117.46 -113.192)" fill="#f90" fill-rule="evenodd"></path></g></g></g></svg> 