<?xml version="1.0" encoding="UTF-8"?> <svg xmlns="http://www.w3.org/2000/svg" xmlns:xlink="http://www.w3.org/1999/xlink" width="270" height="135" viewBox="0 0 270 135"><defs><clipPath id="clip-path"><rect id="Rectangle_19" data-name="Rectangle 19" width="270" height="135" transform="translate(4275 3946)" fill="#ebebeb"></rect></clipPath></defs><g id="Mask_Group_8" data-name="Mask Group 8" transform="translate(-4275 -3946)" clip-path="url(#clip-path)"><path id="Microsoft_Azure-Logo.wine" d="M35.5,56.269q9.052-1.6,18.1-3.2l.167-.036L44.463,41.957c-5.12-6.09-9.309-11.1-9.309-11.125,0-.055,9.612-26.525,9.666-26.619.018-.031,6.559,11.262,15.857,27.377,8.7,15.086,15.88,27.525,15.947,27.641l.121.212-29.584,0-29.584,0Zm113.452-2.678c-4.5-.289-7.122-2.853-7.816-7.653-.185-1.277-.186-1.31-.2-9.6l-.018-8.023H144.9l.016,7.759c.014,6.994.023,7.814.09,8.306a7.359,7.359,0,0,0,1.731,4.3,4.966,4.966,0,0,0,2.791,1.463,10.62,10.62,0,0,0,2.677,0,5.915,5.915,0,0,0,3.034-1.647,8.017,8.017,0,0,0,2.044-3.919l.117-.527.013-7.825.013-7.825h4.07v24.6h-4.028V51.057a14.8,14.8,0,0,0-.045-1.937,1.589,1.589,0,0,0-.23.352,8.188,8.188,0,0,1-3.117,3.12,8.752,8.752,0,0,1-5.122,1Zm45.708-.019a10.558,10.558,0,0,1-4.632-1.513c-2.883-1.783-4.589-4.723-5.089-8.769a21.206,21.206,0,0,1-.049-4.47,14.523,14.523,0,0,1,2.854-7.131,14.6,14.6,0,0,1,1.724-1.723,10.74,10.74,0,0,1,4.4-2.1,14.3,14.3,0,0,1,3.568-.208,9.382,9.382,0,0,1,6.325,3.249,12.419,12.419,0,0,1,2.554,7.722c.017.506.021,1.392.009,1.97l-.022,1.051-8.723.011-8.723.011v.39a9.641,9.641,0,0,0,.786,3.683,8.091,8.091,0,0,0,1.774,2.595,7.8,7.8,0,0,0,4.422,1.87,17.234,17.234,0,0,0,2.889-.111,12.244,12.244,0,0,0,5.447-2.247q.19-.144.385-.282a7.354,7.354,0,0,1,.055,1.817l0,1.852-.412.255a14.438,14.438,0,0,1-5.845,2.026,33.5,33.5,0,0,1-3.7.055Zm7.592-15.618a7.926,7.926,0,0,0-2.021-5.326,5.549,5.549,0,0,0-3.08-1.493,9.115,9.115,0,0,0-2.39.067,6.253,6.253,0,0,0-3.262,1.734,8.892,8.892,0,0,0-2.159,3.456,11.054,11.054,0,0,0-.417,1.7l-.029.208h13.358Zm-118.324,15c.01-.03,2.972-7.812,6.582-17.292l6.564-17.238H101.3l.175.448c.535,1.371,13.14,34.1,13.14,34.116s-1.01.02-2.244.02h-2.244l-1.817-4.837-1.817-4.837H91.861L91.8,43.5c-.035.09-.811,2.267-1.725,4.837L88.41,53.007H86.162a12.128,12.128,0,0,1-2.23-.054Zm21.224-13.312c0-.008-1.223-3.322-2.717-7.366-2.8-7.565-2.952-8.02-3.173-9.234-.1-.569-.156-.585-.218-.066a11.964,11.964,0,0,1-.381,1.663c-.073.229-1.332,3.684-2.8,7.679S93.2,39.6,93.2,39.618s2.689.037,5.976.037,5.976-.006,5.976-.014Zm10.813,12.736v-.63l7.288-10.019,7.288-10.019-6.6-.022-6.6-.022-.012-1.674-.011-1.675h19.088v1.131l-7.289,10.074c-4.009,5.541-7.289,10.083-7.289,10.095s3.241.021,7.2.021h7.2v3.371H115.969Zm53.483.6c-.016-.016-.029-5.572-.029-12.345V28.317h3.984v2.539c0,1.4.017,2.539.038,2.539a2.275,2.275,0,0,0,.215-.508,8.778,8.778,0,0,1,2.225-3.427,5.768,5.768,0,0,1,3.147-1.565,6.55,6.55,0,0,1,1.313-.048,5.819,5.819,0,0,1,1.828.255l.164.054v4.135l-.47-.236a5.026,5.026,0,0,0-2.638-.53,4.779,4.779,0,0,0-1.576.308,4.986,4.986,0,0,0-2.51,2.05,11.9,11.9,0,0,0-1.666,4.791c-.033.293-.052,2.679-.06,7.382l-.012,6.95h-1.962C170.363,53.008,169.467,53,169.451,52.979ZM0,52.892c0-.016,4.386-7.63,9.747-16.92L19.495,19.08,30.854,9.547C37.1,4.3,42.23.008,42.251,0a2.006,2.006,0,0,1-.183.459C41.947.72,36.4,12.625,29.733,26.916L17.618,52.9l-8.809.011C3.964,52.916,0,52.908,0,52.892Z" transform="translate(4307 3984)" fill="#0089d6"></path></g></svg> 