<?xml version="1.0" encoding="UTF-8"?> <svg xmlns="http://www.w3.org/2000/svg" width="1366" height="70" viewBox="0 0 1366 70"><g id="Group_50" data-name="Group 50" transform="translate(0 -482)"><path id="Path_34" data-name="Path 34" d="M0,0H1366V70H0Z" transform="translate(0 482)" fill="#efefef" opacity="0.598"></path><g id="Group_30" data-name="Group 30" transform="translate(693.764 484)"><rect id="Rectangle_6" data-name="Rectangle 6" width="151" height="66" transform="translate(0.236)" fill="none"></rect><path id="McKinsey" d="M8.865,0H11.41V.479h-.479c-.084,0-.23.1-.441.288s-.316.342-.316.441V8.515c0,.1.105.247.316.441s.357.29.441.29h.479v.477H7.655V9.241h.479c.084,0,.228-.1.43-.29s.3-.34.3-.441V1.436L5.339,9.9,1.814,1.29V8.513c0,.1.1.247.3.441s.346.29.43.29h.477v.477H0V9.241H.479c.1,0,.251-.1.453-.29s.3-.34.3-.441v-7.3c0-.1-.1-.247-.3-.441S.58.479.479.479H0V0H2.82L5.743,7.279h.075Zm6.046,8.739a2.3,2.3,0,0,0,1.234-.275,2.424,2.424,0,0,0,.754-.832h.4a3.634,3.634,0,0,1-1,1.636,2.652,2.652,0,0,1-1.85.606,2.56,2.56,0,0,1-2.091-.959,3.507,3.507,0,0,1-.78-2.291,3.353,3.353,0,0,1,.879-2.444,2.843,2.843,0,0,1,2.115-.907,3.192,3.192,0,0,1,1.259.228,3.316,3.316,0,0,1,.982.645L15.9,5.588l-.378.024a2.553,2.553,0,0,0-.075-1.29.937.937,0,0,0-1.008-.567,1.556,1.556,0,0,0-1.386.679,3.189,3.189,0,0,0-.453,1.79,2.684,2.684,0,0,0,.617,1.788A2.115,2.115,0,0,0,14.911,8.739Zm6.245.982h-3.8V9.241h.486c.1,0,.251-.1.453-.29s.3-.34.3-.441v-7.3c0-.1-.1-.247-.3-.441a.866.866,0,0,0-.453-.288h-.486V0h3.8V.479h-.479c-.1,0-.251.1-.453.288s-.3.342-.3.441v3.98L23.4,1.309c.067-.084,0-.243-.176-.477s-.32-.352-.4-.352h-.466V0h3.525V.479H25.4a1.814,1.814,0,0,0-.638.38c-.337.26-.537.43-.606.492L21.788,3.894l3.4,4.513a2.82,2.82,0,0,0,.565.5,1.442,1.442,0,0,0,.593.329h.7a.78.78,0,0,0,.43-.251c.185-.17.277-.312.277-.43V4.584c0-.1-.092-.236-.277-.4a.78.78,0,0,0-.43-.251h-.38V3.449h2.242V8.562c0,.118.1.26.29.43a.86.86,0,0,0,.415.251H30.4c.084,0,.215-.084.4-.251a.666.666,0,0,0,.277-.43V4.584c0-.1-.092-.236-.277-.4s-.318-.251-.4-.251H30V3.449h1.99l.251,1.279a10.782,10.782,0,0,1,1.1-1.008A2.149,2.149,0,0,1,34.7,3.29a1.719,1.719,0,0,1,1.249.505A1.747,1.747,0,0,1,36.469,5.1V8.562c0,.118.092.26.277.43s.318.251.4.251h.4v.477h-3.3V9.241H34.6a.787.787,0,0,0,.43-.251c.185-.17.277-.312.277-.43V5.188a1.171,1.171,0,0,0-.254-.78.924.924,0,0,0-.754-.3,2.364,2.364,0,0,0-1.373.492q-.69.49-.69.819V8.562c0,.118.092.26.277.43a.78.78,0,0,0,.43.251H33.3v.477H24.286L20.9,4.861l-.982,1.057V8.513c0,.1.1.247.3.441s.352.29.453.29h.479Zm3.374,10.961-.03-.03q.48.4.971.806t1.044.782h.578v.5H26.037a3.314,3.314,0,0,1-1.259-.226,4.058,4.058,0,0,1-1.158-.782,3.752,3.752,0,0,1-1.348.87,5.212,5.212,0,0,1-1.825.288A3.262,3.262,0,0,1,18.3,22.1a2.579,2.579,0,0,1-.959-2.078h0a3.383,3.383,0,0,1,.43-1.687A3.634,3.634,0,0,1,18.913,17.1a4.535,4.535,0,0,1-.567-.933,2.7,2.7,0,0,1-.215-1.107,2.04,2.04,0,0,1,.628-1.6,2.467,2.467,0,0,1,1.717-.567,3.078,3.078,0,0,1,1.06.15,2.048,2.048,0,0,0,.7.153,1.188,1.188,0,0,0,.277-.026.305.305,0,0,0,.176-.15h.43v2.291h-.43a2.078,2.078,0,0,0-.645-1.234,2.042,2.042,0,0,0-1.6-.731,1.919,1.919,0,0,0-1.236.365,1.238,1.238,0,0,0-.453,1.019,1.573,1.573,0,0,0,.378,1.034,2.472,2.472,0,0,0,1.008.7q.931,1.01,2.014,2.027t2.065,1.9a3.172,3.172,0,0,0,.391-.931,4.748,4.748,0,0,0,.114-1.075,1.369,1.369,0,0,0-.417-1.047,1.565,1.565,0,0,0-1.12-.389v-.488H26.65v.453h-.376c-.084,0-.249.142-.492.43a1.262,1.262,0,0,0-.365.63v.026a5.158,5.158,0,0,1-.251,1.423,4.445,4.445,0,0,1-.634,1.244Zm-3.3,1.461a3.654,3.654,0,0,0,1.171-.176,3.714,3.714,0,0,0,.943-.475l-.075-.049q-1.075-.959-2.115-1.964T19.14,17.361a3.06,3.06,0,0,0-.578.86,2.992,2.992,0,0,0-.2,1.208,2.512,2.512,0,0,0,.92,1.876,2.852,2.852,0,0,0,1.951.832ZM28.208,1.915h-.026a.8.8,0,0,1-.565-.228.729.729,0,0,1-.241-.554V1.109a.75.75,0,0,1,.241-.593.926.926,0,0,1,1.182,0,.75.75,0,0,1,.241.593h-.026c.017,0,.026,0,.026.024a.729.729,0,0,1-.241.554.769.769,0,0,1-.542.228h-.049ZM34.6,22.087a3.342,3.342,0,0,0,1.964-.5,3.868,3.868,0,0,0,1.182-1.461h.507a4.3,4.3,0,0,1-1.487,2.052,3.989,3.989,0,0,1-2.441.744,4.154,4.154,0,0,1-3.351-1.5,5.4,5.4,0,0,1-1.259-3.589A5.5,5.5,0,0,1,30.875,14.3a3.869,3.869,0,0,1,3.2-1.459,3.735,3.735,0,0,1,1.337.215,3.08,3.08,0,0,0,1.133.215.787.787,0,0,0,.352-.064.952.952,0,0,0,.251-.187H37.5v3.428h-.43a3.611,3.611,0,0,0-.78-1.889,2.489,2.489,0,0,0-2.166-1.133,2.661,2.661,0,0,0-1.99.744,3.725,3.725,0,0,0-.86,2.379V16.5q-.026.277-.039.554c0,.185-.013.376-.013.578a6.757,6.757,0,0,0,.026.718c.026.243.034.466.049.668a3.561,3.561,0,0,0,.982,2.177,3.054,3.054,0,0,0,2.323.894ZM42.554,7.958a1.786,1.786,0,0,1-.567,1.41,2.091,2.091,0,0,1-1.449.505,2.4,2.4,0,0,1-1.008-.189,1.872,1.872,0,0,0-.806-.189.449.449,0,0,0-.275.062l-.2.163h-.292V7.5h.378a2.04,2.04,0,0,0,.591,1.135,2.016,2.016,0,0,0,1.625.7,1.734,1.734,0,0,0,.907-.2.709.709,0,0,0,.327-.645.83.83,0,0,0-.389-.767,6.663,6.663,0,0,0-.793-.417c-.236-.1-.449-.191-.645-.275s-.417-.176-.668-.277a3.31,3.31,0,0,1-.956-.668,1.44,1.44,0,0,1-.378-1.044,1.629,1.629,0,0,1,.505-1.289,2.392,2.392,0,0,1,2.252-.277,1.582,1.582,0,0,0,.694.165.522.522,0,0,0,.215-.039.275.275,0,0,0,.14-.14h.327V5.4h-.378A1.831,1.831,0,0,0,41.191,4.4a1.719,1.719,0,0,0-1.4-.63,1.229,1.229,0,0,0-.819.228.726.726,0,0,0-.264.578.7.7,0,0,0,.277.6,4.876,4.876,0,0,0,.754.43c.236.1.458.191.668.275l.692.277a3.4,3.4,0,0,1,.982.63,1.5,1.5,0,0,1,.479,1.165ZM44.2,17.176a3.151,3.151,0,0,1,.946,2.418,3.185,3.185,0,0,1-.946,2.431,3.078,3.078,0,0,1-2.177.894,3.11,3.11,0,0,1-2.205-.894,3.185,3.185,0,0,1-.943-2.431,3.153,3.153,0,0,1,5.336-2.418Zm-.3,3.456v.049c.017-.185.028-.37.037-.554s.013-.37.013-.554,0-.363-.013-.539-.019-.342-.037-.492a2.087,2.087,0,0,0-.542-1.234,1.762,1.762,0,0,0-1.322-.453,1.719,1.719,0,0,0-1.289.453,2.059,2.059,0,0,0-.542,1.208v-.032a3.71,3.71,0,0,0-.062.529c0,.185-.013.37-.013.552s0,.365.013.542a3.075,3.075,0,0,0,.062.492,2.162,2.162,0,0,0,.542,1.208,1.674,1.674,0,0,0,1.29.479,1.719,1.719,0,0,0,1.335-.466A2.149,2.149,0,0,0,43.9,20.632ZM45.964,9.886a2.607,2.607,0,0,1-2.078-.969,3.462,3.462,0,0,1-.819-2.306A3.479,3.479,0,0,1,43.9,4.247a2.551,2.551,0,0,1,2.065-.933,2.13,2.13,0,0,1,1.648.645,2.4,2.4,0,0,1,.645,1.55l.026.453L44.1,6.3a2.68,2.68,0,0,0,.6,1.655,1.973,1.973,0,0,0,1.661.793A2.364,2.364,0,0,0,47.61,8.47a2.226,2.226,0,0,0,.744-.808h.378a3.4,3.4,0,0,1-.959,1.625,2.6,2.6,0,0,1-1.81.587Zm-.026-6.1a1.577,1.577,0,0,0-1.423.666,2.671,2.671,0,0,0-.466,1.4L47.2,5.588a2.659,2.659,0,0,0-.14-1.249q-.206-.559-1.12-.561Zm7.606,18.483c.1,0,.239-.088.415-.264s.264-.314.264-.415V18.156a1.131,1.131,0,0,0-.239-.744.937.937,0,0,0-.767-.29,2.061,2.061,0,0,0-1.223.453q-.617.456-.617.757v3.273c0,.1.088.239.264.415s.307.264.391.264h.378v.479H49.188v-.479h.352c.1,0,.239-.088.415-.264s.264-.314.264-.415V18.167a1.133,1.133,0,0,0-.251-.769.946.946,0,0,0-.757-.29,2.035,2.035,0,0,0-1.247.479q-.617.477-.617.806v3.224c0,.1.088.239.264.415s.316.264.417.264h.352v.479H45.158V22.3h.378c.084,0,.215-.088.389-.264s.264-.314.264-.415V17.6c0-.1-.088-.234-.264-.4s-.305-.251-.389-.251h-.378v-.479h1.934l.251,1.21q.554-.58,1.008-.971a1.913,1.913,0,0,1,1.289-.389,1.853,1.853,0,0,1,1.107.34,1.421,1.421,0,0,1,.58,1c.385-.37.739-.681,1.057-.933a1.975,1.975,0,0,1,1.259-.378,1.752,1.752,0,0,1,1.234.466,1.719,1.719,0,0,1,.505,1.324v3.439c0,.1.088.239.264.415s.305.264.389.264h.378v.479H53.192v-.479ZM49.338,4.651a1.719,1.719,0,0,0-.391-.43c-.215-.185-.357-.277-.43-.277H48.24V3.449h3.4v.479h-.4c-.084,0-.193.084-.327.251a.741.741,0,0,0-.2.43l1.5,3.1L53.6,4.634a.625.625,0,0,0-.189-.453q-.215-.251-.342-.251h-.415V3.449H55.2v.479h-.277c-.084,0-.215.088-.391.264a1.586,1.586,0,0,0-.34.441L52.042,9.192l-1.848,3.553-.548-.279,1.913-3.452Zm11.41,11.661a2.132,2.132,0,0,1,1.812.881A3.8,3.8,0,0,1,63.2,19.51a3.868,3.868,0,0,1-.731,2.418,2.246,2.246,0,0,1-1.863.959,2.416,2.416,0,0,1-1.322-.316,2.6,2.6,0,0,1-.845-.943v3.022c0,.118.092.26.277.43s.32.251.4.251h.406v.46H56.214v-.479h.4a.733.733,0,0,0,.415-.251.677.677,0,0,0,.264-.43V17.6c0-.1-.088-.234-.264-.4a.733.733,0,0,0-.415-.251h-.4v-.505h2.04l.2,1.311a3.106,3.106,0,0,1,.969-1.109,2.379,2.379,0,0,1,1.324-.352Zm1.259,4.232v.024l.049-.5a4.924,4.924,0,0,0,.026-.5,3.653,3.653,0,0,0-.026-.441c-.017-.144-.034-.282-.049-.417a2.149,2.149,0,0,0-.505-1.195,1.393,1.393,0,0,0-1.075-.43,1.683,1.683,0,0,0-1.259.49,3.009,3.009,0,0,0-.7,1.221v1.638a1.719,1.719,0,0,0,.529,1.259,1.752,1.752,0,0,0,1.29.529h.026a1.5,1.5,0,0,0,1.208-.466,2.263,2.263,0,0,0,.492-1.223ZM76.237,21.6c0,.1.092.239.277.415s.318.264.4.264h.378v.479H74V22.28h.365c.086,0,.215-.088.4-.264s.277-.314.277-.415V18.184a1.227,1.227,0,0,0-.239-.767.877.877,0,0,0-.744-.316,2.336,2.336,0,0,0-1.373.5q-.694.507-.692.806v3.174c0,.118.092.26.277.43a.78.78,0,0,0,.43.251h.37v.479H67.725l-.176-1.309a7.5,7.5,0,0,1-.881.969,1.719,1.719,0,0,1-1.21.466,1.552,1.552,0,0,1-1.133-.479,1.666,1.666,0,0,1-.479-1.234,1.416,1.416,0,0,1,.692-1.348,5.113,5.113,0,0,1,1.348-.542l1.638-.329.026-.754a1.5,1.5,0,0,0-.352-1.044,1.575,1.575,0,0,0-1.21-.391,1.154,1.154,0,0,0-1.1.5,1.436,1.436,0,0,0,.064,1.311H64.5l-.86-1.259a3.523,3.523,0,0,1,2.62-1.008A2.962,2.962,0,0,1,68,16.789a1.629,1.629,0,0,1,.7,1.423v3.374c0,.1.092.234.277.4s.318.254.4.254h.757a.774.774,0,0,0,.43-.254c.185-.168.277-.3.277-.4V17.6c0-.1-.092-.234-.277-.4a.78.78,0,0,0-.43-.251h-.378v-.505h1.99L72,17.756a11.716,11.716,0,0,1,1.075-1.008,2.13,2.13,0,0,1,1.384-.43,1.719,1.719,0,0,1,1.247.5,1.745,1.745,0,0,1,.518,1.311Zm-8.689-2.233-1.5.378a1.4,1.4,0,0,0-.832.464,1.289,1.289,0,0,0-.228.769V21a.971.971,0,0,0,.277.694.9.9,0,0,0,.681.288h.037a1.421,1.421,0,0,0,.907-.376,2.831,2.831,0,0,0,.645-.731Zm16.018-2.9v.479h-.3c-.067,0-.189.088-.365.264a3.2,3.2,0,0,0-.365.415l-2.115,4.584-1.889,3.527L78,25.463l1.889-3.452-2.216-4.356a1.767,1.767,0,0,0-.391-.43c-.215-.185-.348-.277-.415-.277h-.3v-.477h3.4v.479h-.378c-.084,0-.2.084-.34.251a.731.731,0,0,0-.215.43l1.5,3.1,1.393-3.108a.58.58,0,0,0-.189-.43c-.142-.168-.256-.251-.34-.251H81v-.471Z" transform="translate(33.602 19.722)" fill="#051c2c"></path></g><g id="Group_26" data-name="Group 26" transform="translate(0 484)"><rect id="Rectangle_2" data-name="Rectangle 2" width="152" height="66" fill="none"></rect><path id="Rackspace" d="M83.6,22.8a1.063,1.063,0,0,0-1.075-1.184A1.321,1.321,0,0,0,81.235,22.8a1.058,1.058,0,0,0,1.075,1.179A1.312,1.312,0,0,0,83.6,22.8Zm-.168-.015a1.149,1.149,0,0,1-1.12,1.026.893.893,0,0,1-.907-1,1.149,1.149,0,0,1,1.12-1.026.9.9,0,0,1,.907,1Zm-.818.159.188.55h-.183l-.183-.535h-.263l-.1.535H81.9l.263-1.392h.456a.361.361,0,0,1,.372.352.515.515,0,0,1-.377.491Zm0-.674H82.3l-.1.52h.287a.351.351,0,0,0,.327-.278.2.2,0,0,0-.2-.243ZM43.8,10.374a3.252,3.252,0,0,1-.956,2.4,5.352,5.352,0,0,1-3.854,1.28,6.56,6.56,0,0,1-3.046-.721l.45-2.363a6.787,6.787,0,0,0,2.9.816c.767,0,1.284-.354,1.284-.922,0-.515-.363-.875-1.291-1.329-1.468-.734-2.2-1.665-2.2-2.762,0-2.158,1.838-3.617,4.6-3.617a5.476,5.476,0,0,1,2.936.682L44.159,6.2a4.919,4.919,0,0,0-2.636-.751c-.8,0-1.327.337-1.327.9,0,.4.4.767,1.249,1.18,1.1.552,2.353,1.369,2.353,2.847ZM24.68,3.179a6.56,6.56,0,0,0-6.812,6.6,4.067,4.067,0,0,0,4.4,4.276,7.265,7.265,0,0,0,2.976-.559l.491-2.592a5.484,5.484,0,0,1-2.593.67,1.936,1.936,0,0,1-2.03-2.137A3.627,3.627,0,0,1,24.637,5.66a3.374,3.374,0,0,1,1.711.407l.48-2.52a5.981,5.981,0,0,0-2.148-.368Zm54.476,8.458A6.911,6.911,0,0,0,82.8,10.609l-.5,2.609a9.094,9.094,0,0,1-3.891.836c-2.884,0-4.533-1.6-4.533-4.4A6.918,6.918,0,0,1,75.5,5.21a5.789,5.789,0,0,1,4.462-2.053c2.182,0,3.638,1.268,3.638,3.147a2.849,2.849,0,0,1-.84,2.127c-1.042,1.016-3.611,1.585-5.95,1.125-.111,1.318.881,2.08,2.343,2.08Zm-2-4.091c1.819.015,2.843-.169,3.289-.611.484-.48.332-1.51-.86-1.51a2.594,2.594,0,0,0-2.43,2.121ZM72.309,3.179a6.56,6.56,0,0,0-6.812,6.6,4.067,4.067,0,0,0,4.4,4.276,7.265,7.265,0,0,0,2.976-.559l.491-2.592a5.483,5.483,0,0,1-2.593.67,1.936,1.936,0,0,1-2.03-2.137A3.627,3.627,0,0,1,72.266,5.66a3.374,3.374,0,0,1,1.711.407l.48-2.52a5.982,5.982,0,0,0-2.148-.368ZM64.986,7.99l-1.118,5.851H60.908l.385-2.014a3.118,3.118,0,0,1-3.124,2.248c-2.06,0-2.991-1.829-2.992-3.659A7.907,7.907,0,0,1,57.359,4.91a5.92,5.92,0,0,1,4.278-1.752,3.422,3.422,0,0,1,2.772,1.076,4.659,4.659,0,0,1,.577,3.757ZM62.136,6.644a1.038,1.038,0,0,0-1.109-1.135c-1.458,0-2.721,2.517-2.72,4.267,0,1.093.406,1.774,1.111,1.774,1.128,0,2.1-1.179,2.433-2.907a11.767,11.767,0,0,0,.285-2ZM17.358,7.99,16.24,13.841H13.279l.385-2.014a3.118,3.118,0,0,1-3.125,2.248c-2.06,0-2.991-1.829-2.992-3.659A7.907,7.907,0,0,1,9.731,4.91a5.92,5.92,0,0,1,4.278-1.752,3.422,3.422,0,0,1,2.772,1.076,4.659,4.659,0,0,1,.577,3.757ZM14.507,6.644A1.038,1.038,0,0,0,13.4,5.509c-1.458,0-2.721,2.517-2.72,4.267,0,1.093.406,1.774,1.111,1.774,1.128,0,2.1-1.179,2.433-2.907a11.767,11.767,0,0,0,.285-2Zm40.462.491a7.141,7.141,0,0,1-3.42,6.321,4.936,4.936,0,0,1-2.253.619,2.128,2.128,0,0,1-2.07-1.046l-.787,4.162h-3.1L45.969,3.35H48.7l-.319,1.68a3.96,3.96,0,0,1,3.207-1.873C53.639,3.157,54.969,4.712,54.969,7.136Zm-3.224.235c0-.493-.116-1.689-1.252-1.689-1.155,0-2.129,1.315-2.507,3.311-.129.682-.491,2.73.935,2.73C50.549,11.722,51.745,9.411,51.745,7.37ZM4.319,5.675,4.761,3.35H2.03L0,14.026H3.1l.837-4.4c.494-2.6,1.983-3.634,4.1-3.314l.605-3.184a4.3,4.3,0,0,0-4.327,2.55Zm24.867,8.165,1.068-5.617,2.2,5.617h3.334L33.511,8.179,37.65,3.349H34.265L30.272,8.126,31.817,0H28.738L26.106,13.841ZM64.857,21.18a2.648,2.648,0,0,1-2.558,2.8,1.724,1.724,0,0,1-1.811-1.829,2.654,2.654,0,0,1,2.558-2.8,1.727,1.727,0,0,1,1.811,1.829Zm-3.277.947c0,.609.318,1.038.865,1.038.793,0,1.32-1.092,1.32-1.977,0-.455-.209-1.019-.847-1.019C62.072,20.17,61.58,21.3,61.58,22.127Zm10.491-.947a2.648,2.648,0,0,1-2.558,2.8A1.724,1.724,0,0,1,67.7,22.155a2.654,2.654,0,0,1,2.558-2.8,1.727,1.727,0,0,1,1.811,1.829Zm-3.277.947c0,.609.318,1.038.865,1.038.793,0,1.32-1.092,1.32-1.977,0-.455-.209-1.019-.847-1.019-.846,0-1.338,1.13-1.338,1.958ZM66.443,18l-1.119,5.884h1.057L67.508,18ZM49.356,19.36a2.794,2.794,0,0,0-2.813,2.849,1.665,1.665,0,0,0,1.793,1.766,2.983,2.983,0,0,0,1.307-.271l.175-.92a2.391,2.391,0,0,1-1.191.335.927.927,0,0,1-.974-1.037,1.771,1.771,0,0,1,1.666-1.866,1.6,1.6,0,0,1,.817.207l.168-.882a2.442,2.442,0,0,0-.948-.181ZM43.3,22.692a1.219,1.219,0,0,1-.118-.629c1.711.036,2.9-.328,2.9-1.465a1.264,1.264,0,0,0-1.429-1.247,2.7,2.7,0,0,0-2.512,2.794,1.671,1.671,0,0,0,1.821,1.839,3.453,3.453,0,0,0,1.675-.416l.181-.954a2.669,2.669,0,0,1-1.611.533.979.979,0,0,1-.91-.454Zm1.22-2.549c.337,0,.564.173.564.456,0,.536-.7.682-1.793.672a1.366,1.366,0,0,1,1.229-1.128Zm15.237.427a1.078,1.078,0,0,0-1.129-1.219,1.919,1.919,0,0,0-1.619.93l.164-.857h-.956l-.848,4.46h1.057l.392-2.048c.191-1.039.8-1.621,1.282-1.621.419,0,.556.263.556.637a2.961,2.961,0,0,1-.052.528l-.476,2.5h1.057l.5-2.585a4.154,4.154,0,0,0,.078-.729Zm-6.138-1.219a1.869,1.869,0,0,0-1.475.733l.4-2.084H51.478l-1.119,5.884h1.057l.392-2.048c.191-1.039.8-1.621,1.282-1.621.419,0,.556.263.556.637a2.959,2.959,0,0,1-.052.528l-.476,2.5h1.057l.5-2.585a4.158,4.158,0,0,0,.078-.729,1.078,1.078,0,0,0-1.129-1.219Zm-12.3-1.041H40.283l-.226,1.141h-.592l-.155.819H39.9l-.383,1.976a4.129,4.129,0,0,0-.092.819c0,.51.319.91,1.047.91a2.116,2.116,0,0,0,.692-.091l.16-.84a2.093,2.093,0,0,1-.424.04.35.35,0,0,1-.391-.4,3.137,3.137,0,0,1,.082-.628l.346-1.784h.993l.164-.819H41.1Zm35.612,7.231a1.56,1.56,0,0,0,2.193-.829v0l2.965-5.286H80.956l-1.684,3.3-.409-3.3H77.752l.79,4.341-.346.693a.768.768,0,0,1-1.105.218Zm-1.443-6.19a2.938,2.938,0,0,0-2.851,3.069c0,.792.392,1.567,1.339,1.567a1.785,1.785,0,0,0,1.474-.792l-.085.388c-.218,1.029-.746,1.357-1.438,1.357a2.563,2.563,0,0,1-1.165-.264l-.164.865a3.15,3.15,0,0,0,1.308.246,2.6,2.6,0,0,0,1.656-.492,3.25,3.25,0,0,0,.92-1.975l.4-2.011a3.659,3.659,0,0,0,.091-.765c0-.8-.556-1.193-1.485-1.193Zm.337,1.9-.082.41c-.182.893-.747,1.457-1.293,1.457-.492,0-.7-.41-.7-.893,0-.874.61-2.067,1.539-2.067a.53.53,0,0,1,.592.565,2.262,2.262,0,0,1-.055.528Z" transform="translate(34.134 19.722)"></path></g><g id="Group_32" data-name="Group 32" transform="translate(1040.156 484)"><rect id="Rectangle_8" data-name="Rectangle 8" width="152" height="66" transform="translate(-0.156)" fill="none"></rect><g id="g862" transform="translate(35.461 21.997)"><path id="path7" d="M163.9,50.281a1.842,1.842,0,1,1,1.842,1.842A1.842,1.842,0,0,1,163.9,50.281Zm1.842,2.109a2.109,2.109,0,1,0-2.109-2.109A2.11,2.11,0,0,0,165.745,52.39Z" transform="translate(-97.589 -31.151)" fill="#43141a" fill-rule="evenodd"></path><path id="path9" d="M166.992,50.559h.668c.3,0,.62.049.62.408,0,.4-.334.424-.653.424h-.636Zm1.582.424c0-.465-.334-.628-.84-.628h-1.019V52.7h.277V51.618h.538L168.2,52.7h.343l-.718-1.085h0C168.24,51.6,168.574,51.431,168.574,50.982Z" transform="translate(-99.33 -32.385)" fill="#43141a" fill-rule="evenodd"></path><path id="polygon11" d="M170.244,9.452l-1.126,4.657h-2.177L168.1,9.452Z" transform="translate(-99.458 -9.116)" fill="#43141a" fill-rule="evenodd"></path><path id="polygon13" d="M149.269,30.087V21.754l-2.723-12.3H150l1.533,8.8,1.679-8.8h2.145l-2.732,12.3v8.333Z" transform="translate(-87.829 -9.116)" fill="#43141a" fill-rule="evenodd"></path><path id="path15" d="M181.424,23.439V25.7h0c0,1.45-.628,1.345-1.15,1.345-.645,0-1.174,0-1.174-1.321h0l-.024-3.223h-3.124v3.88h0c0,3.621,1.966,3.256,4.266,3.256,1.851,0,4.5.364,4.5-3.337h0V22.289h0a4.043,4.043,0,0,0-1.533-2.9s-1.044-.883-2.822-2.649A3.82,3.82,0,0,1,178.9,13.9h0V12.205h0c0-1.442.62-1.328,1.142-1.328.636,0,1.183,0,1.183,1.32h0l.016,2.592h3.131V11.938h0c0-3.62-1.965-3.248-4.273-3.248-1.843,0-4.494-.372-4.494,3.321h0v3.037h0c0,1.126.816,2.341,2.757,4.163,0,0,3.057,1.983,3.057,4.227Z" transform="translate(-104.358 -8.68)" fill="#43141a" fill-rule="evenodd"></path><path id="path17" d="M84.92,23.439V25.7h0c0,1.45-.62,1.345-1.142,1.345-.636,0-1.183,0-1.183-1.321h0L82.587,22.5H79.455v3.88h0c0,3.621,1.958,3.256,4.273,3.256,1.843,0,4.5.364,4.5-3.337h0V22.289h0a4.072,4.072,0,0,0-1.533-2.9s-1.044-.883-2.83-2.649A3.775,3.775,0,0,1,82.416,13.9h0V12.205h0c0-1.442.62-1.328,1.142-1.328.636,0,1.183,0,1.183,1.32h0l.016,2.592h3.131V11.938h0c0-3.62-1.965-3.248-4.282-3.248-1.843,0-4.494-.372-4.494,3.321h0v3.037h0c0,1.126.816,2.341,2.765,4.163,0,0,3.043,1.983,3.043,4.227Z" transform="translate(-49.485 -8.68)" fill="#43141a" fill-rule="evenodd"></path><path id="path19" d="M57.831,11.574h.717c1.24,0,1.1,1.417,1.1,2.859,0,0,.139,2.818-1.1,2.818h-.717ZM54.348,30.087h3.483V20.012h.62c1.117,0,1.191.527,1.191,1.709h0v4.462h0a11.218,11.218,0,0,0,.465,3.9h3.45c-.383-.672-.343-2.527-.343-3.9h0V22.539h0c0-2.041.073-3.6-1.908-3.952h0c1.5-.227,2.055-.891,2.055-4.138,0-4.349-.742-5-4.461-5H54.349V30.087Z" transform="translate(-35.403 -9.116)" fill="#43141a" fill-rule="evenodd"></path><path id="polygon21" d="M134.837,17.211v2.8h-3.588v7.1h4.265v2.972H127.9V9.452h7.445v2.737h-4.094v5.021Z" transform="translate(-77.218 -9.116)" fill="#43141a" fill-rule="evenodd"></path><path id="polygon23" d="M40.64,17.211v2.8H37.051v7.1h4.257v2.972H33.691V9.452h7.462v2.737h-4.1v5.021Z" transform="translate(-23.579 -9.116)" fill="#43141a" fill-rule="evenodd"></path><path id="polygon25" d="M112.3,9.452V30.087h-3.352V20.012h-1.932V30.087h-3.36V9.452h3.36v7.726h1.932V9.452Z" transform="translate(-63.439 -9.116)" fill="#43141a" fill-rule="evenodd"></path><path id="polygon27" d="M19.054,9.452V30.087H15.7V20.012H13.77V30.087H10.426V9.452H13.77v7.726H15.7V9.452Z" transform="translate(-10.426 -9.116)" fill="#43141a" fill-rule="evenodd"></path></g></g><g id="Group_31" data-name="Group 31" transform="translate(866.96 484)"><rect id="Rectangle_7" data-name="Rectangle 7" width="152" height="66" transform="translate(0.04)" fill="none"></rect><g id="Ebene_x0020_1" transform="translate(24.312 24.273)"><path id="Path_5" data-name="Path 5" d="M190.808,9.83V12.9A13.6,13.6,0,0,0,186.314,12a3.768,3.768,0,0,0-1.861.4,1.152,1.152,0,0,0-.7.978c0,.513.525.969,1.583,1.377l3.056,1.407c2.471,1.114,3.7,2.593,3.7,4.451a4.27,4.27,0,0,1-1.962,3.689,8.922,8.922,0,0,1-5.238,1.377,25.684,25.684,0,0,1-2.715-.127,22.046,22.046,0,0,1-2.751-.49V21.842a16.984,16.984,0,0,0,5.128.905c1.837,0,2.751-.5,2.751-1.52,0-.506-.374-.914-1.134-1.234l-3.394-1.368a6.966,6.966,0,0,1-2.792-1.953,4.259,4.259,0,0,1-.9-2.681,4.016,4.016,0,0,1,1.885-3.439,8.73,8.73,0,0,1,5.018-1.3,19.708,19.708,0,0,1,2.319.161C189.165,9.526,190,9.662,190.808,9.83Z" transform="translate(-88.869 -9.254)" fill="#099" fill-rule="evenodd"></path><path id="Path_6" data-name="Path 6" d="M18.415,9.83V12.9A13.583,13.583,0,0,0,13.923,12a3.762,3.762,0,0,0-1.861.4,1.152,1.152,0,0,0-.7.978c0,.513.532.969,1.59,1.377L16,16.159c2.461,1.114,3.689,2.593,3.689,4.451A4.285,4.285,0,0,1,17.739,24.3a8.951,8.951,0,0,1-5.246,1.377,25.733,25.733,0,0,1-2.718-.127,22.246,22.246,0,0,1-2.749-.49V21.842a17.057,17.057,0,0,0,5.126.905c1.837,0,2.751-.5,2.751-1.52,0-.506-.372-.914-1.125-1.234l-3.394-1.368a6.832,6.832,0,0,1-2.792-1.953,4.2,4.2,0,0,1-.907-2.681,4,4,0,0,1,1.888-3.439,8.684,8.684,0,0,1,5.011-1.3,19.854,19.854,0,0,1,2.327.161c.864.111,1.7.247,2.5.415Z" transform="translate(-6.686 -9.254)" fill="#099" fill-rule="evenodd"></path><path id="Path_7" data-name="Path 7" d="M34,9.8H38.98V25.613H34Z" transform="translate(-18.772 -9.496)" fill="#099" fill-rule="evenodd"></path><path id="Path_8" data-name="Path 8" d="M62.018,9.8v2.923H54.623V16.23h6.414v2.635H54.623v3.681h7.546v3.067H49.834V9.8Z" transform="translate(-27.246 -9.496)" fill="#099" fill-rule="evenodd"></path><path id="Path_9" data-name="Path 9" d="M97.224,9.8V25.622H92.578V15.187l-4.821,10.58H84.889l-4.636-10.58V25.622h-3.36V9.8h6.076l4.147,9.685L91.453,9.8Z" transform="translate(-40.354 -9.496)" fill="#099" fill-rule="evenodd"></path><path id="Path_10" data-name="Path 10" d="M132.435,9.8v2.923H125.08V16.23h6.414v2.635H125.08v3.681h7.505v3.067H120.25V9.8Z" transform="translate(-60.799 -9.496)" fill="#099" fill-rule="evenodd"></path><path id="Path_11" data-name="Path 11" d="M161.87,9.8V25.613H156.59l-5.924-10.142V25.613h-3.358V9.8h5.433l5.771,9.968V9.8Z" transform="translate(-74.697 -9.496)" fill="#099" fill-rule="evenodd"></path></g></g><g id="Group_29" data-name="Group 29" transform="translate(520.567 484)"><rect id="Rectangle_5" data-name="Rectangle 5" width="151" height="66" transform="translate(0.433)" fill="none"></rect><path id="ESPN" d="M26.811.348c-2.988,0-4.967,1.571-5.245,3.926q-.1.816-.2,1.632H60.241s.073-.574.13-1.034C60.663,2.5,59.655.348,55.988.348h0S28.386.35,26.811.348ZM3.085.349,2.4,5.906h17.63l.68-5.557H3.085Zm59.18,0-.681,5.557H80.7s.023-.2.108-.855c.465-3.648-1.888-4.7-4.16-4.7Zm-.944,7.673L59.832,20.151l6.594,0,1.49-12.124-6.6,0h0Zm12.527,0L72.357,20.151l6.594,0,1.49-12.124-6.593,0h0Zm-71.7,0L.654,20.152H18.283l.65-5.261H7.894l.279-2.269H19.207l.565-4.6H2.146Zm18.96,0c-.484,3.165,1.1,4.6,3.346,4.6l8.919,0-.278,2.272H20.264l-.646,5.261s13.967,0,14.533,0c.467-.034,3.735-.123,4.847-2.8a31.577,31.577,0,0,0,.769-4.631c.514-3.793-2.112-4.7-4.18-4.7l-14.481,0Zm20.523,0L40.14,20.152h6.59l.928-7.531h8.278c2.348,0,3.61-1.262,3.844-2.957q.112-.818.2-1.639H41.629Z" transform="translate(34.781 22.408)" fill="#e52534"></path></g><g id="Group_28" data-name="Group 28" transform="translate(346.393 484)"><rect id="Rectangle_4" data-name="Rectangle 4" width="152" height="66" transform="translate(-0.393)" fill="none"></rect><g id="US-ARMY-TEXT" transform="translate(16.221 18.205)"><path id="Path_12" data-name="Path 12" d="M300.133,90.712h2.946v10.873A2.781,2.781,0,0,1,300,104.449h-3.727a2.775,2.775,0,0,1-3.076-2.863V90.712h2.982v10.507a.455.455,0,0,0,.461.461h3.029a.455.455,0,0,0,.461-.461V90.712Zm4.212,10.732h2.946v2.982h-2.946Zm4.236-6.046V93.232a2.487,2.487,0,0,1,2.674-2.532h4.33a2.481,2.481,0,0,1,2.674,2.532v2.011h-2.84V93.776a.455.455,0,0,0-.461-.461h-3.064a.455.455,0,0,0-.461.461v1.337c0,.2.106.379.426.473l4.5,1.313a2.356,2.356,0,0,1,1.893,2.7V101.9a2.52,2.52,0,0,1-2.7,2.532H311.22a2.5,2.5,0,0,1-2.662-2.532V99.68h2.84v1.668a.455.455,0,0,0,.461.461h3.064a.455.455,0,0,0,.461-.461V99.882a.487.487,0,0,0-.426-.473l-4.5-1.313c-1.408-.414-1.881-1.148-1.881-2.7Zm10.956,6.046h2.946v2.982h-2.946Zm15.476.686h-4.839l-.639,2.307h-3.076l4.106-13.725h4.283l3.94,13.725h-3.135Zm-.722-2.6-1.68-6.176-1.727,6.176Zm14.754-.769-.745.627,2.461,5.064h-3.313l-2.177-4.721h-2v4.709h-2.982V90.712h6.934a2.62,2.62,0,0,1,2.9,2.627v2.674c-.012,1.349-.142,1.976-1.077,2.745Zm-1.917-2.094V93.895a.455.455,0,0,0-.461-.461h-3.4v3.692h3.4a.455.455,0,0,0,.461-.461Zm13.831-5.951h3.869v13.725h-2.863V95.8l-2.982,8.637h-.864l-2.97-8.614v8.614h-2.745V90.712h3.869l2.366,7.5,2.319-7.5Zm17.322,0L373.645,99.2v5.242h-2.982V99.219l-4.508-8.507h3.5L372.3,96.06l2.627-5.348Z" transform="translate(-258.509 -79.968)" fill="#262626"></path><path id="Path_13" data-name="Path 13" d="M29.58,10.743H18.28L14.79,0,11.3,10.743H0l9.146,6.65L5.656,28.136,14.8,21.5l9.146,6.638-3.5-10.743,9.134-6.65h0ZM14.79,18.2l-4.07,2.958,1.55-4.78L8.2,13.417h5.029l1.562-4.78,1.55,4.78h5.029L17.3,16.375l1.55,4.78L14.79,18.2h0Z" fill="#ffcc01"></path></g></g><g id="Group_33" data-name="Group 33" transform="translate(1213.352 484)"><rect id="Rectangle_9" data-name="Rectangle 9" width="153" height="66" transform="translate(-0.352)" fill="none"></rect><g id="Group_1" data-name="Group 1" transform="translate(52.634 20.48)"><path id="Path_1" data-name="Path 1" d="M312.195-1002.088l-3.336,13.572-3.346-13.572h-9.664v5.012c-1.174-4.386-5.482-5.486-9.331-5.548-4.693-.061-9.894,1.972-10.074,8.178h6.491a3.091,3.091,0,0,1,3.335-2.919c1.989-.016,2.9.832,2.95,2.154-.068,1.147-.745,1.945-2.933,1.945H284.1v4.5h1.982a2.531,2.531,0,0,1,2.754,2.216c.075,1.911-1.253,2.75-2.888,2.767-2.919-.109-3.672-2.351-3.672-4.28H275.54c.028,1.3-.014,9.767,10.546,9.705,5.059.046,8.741-2.081,9.779-5.013v4.494h6.5v-14.643l3.593,14.643h5.806L315.37-993.5v14.639H322v-23.229Zm-16.325,13.54a5.138,5.138,0,0,0-2.648-2.7,4.479,4.479,0,0,0,2.648-3.1Z" transform="translate(-275.54 1002.625)" fill="red"></path></g></g><g id="Group_48" data-name="Group 48" transform="translate(538 -288)"><g id="shell_logo_icon_169759" transform="translate(-344.745 776.79)"><path id="Path_31" data-name="Path 31" d="M87.4,27.046a11.006,11.006,0,0,0-3.651.3,2.128,2.128,0,0,0-1.5,1.437,8.49,8.49,0,0,0,.125,4.417,2.339,2.339,0,0,0,1.891,1.143c.746.119,6.867.118,7.376,0A2.214,2.214,0,0,0,93.5,32.429c.074-.489.114-.479-1.98-.46l-1.818.015-.064.228a1.229,1.229,0,0,1-.6.731c-.186.088-.376.1-1.3.085-1.18-.02-1.242-.038-1.537-.434a1.6,1.6,0,0,1-.07-1.2c.088-.088.446-.094,3.7-.061l3.691-.066a8.869,8.869,0,0,0-.077-2.557,2.21,2.21,0,0,0-1.486-1.347,19.841,19.841,0,0,0-4.566-.316Zm.541,1.493a2.984,2.984,0,0,1,1,.12c.562.286.881.836.63,1.086-.082.082-.316.094-1.648.094a6.665,6.665,0,0,1-1.625-.072.618.618,0,0,1-.072-.33.9.9,0,0,1,.65-.787,3.75,3.75,0,0,1,1.068-.114ZM57.557,34.3a5.74,5.74,0,0,1-1.9-.3,2.16,2.16,0,0,1-1.168-1.159,4.224,4.224,0,0,1-.241-1.44l.018-.263h4.466l.035.362a1.066,1.066,0,0,0,.773,1.061,9.727,9.727,0,0,0,1.551.046c1.329-.019,1.333-.02,1.577-.182a1.207,1.207,0,0,0,.5-1.12,1.135,1.135,0,0,0-.29-.938c-.287-.3-.55-.334-3.363-.4l-3.047-.155a2.937,2.937,0,0,1-1.552-.79c-.336-.443-.4-.779-.364-2,.032-1.165.073-1.367.363-1.794a2.71,2.71,0,0,1,2.015-.983c.269-.035,2.143-.07,4.335-.088l4.335.094a2.437,2.437,0,0,1,1.578.874,3.319,3.319,0,0,1,.178,2.02c-.083.083-.358.095-2.1.095a9.094,9.094,0,0,1-2.071-.076,1.392,1.392,0,0,1-.085-.471c-.04-.655-.316-.908-1.124-1.036a10.287,10.287,0,0,0-2.6.105c-.65.2-.753.351-.72,1.137.024.562.107.738.465.982.227.155.419.169,3.57.256l2.685.176a2.618,2.618,0,0,1,2.05,1.447,7.853,7.853,0,0,1,.176,2.087c-.126,1.456-.78,2.194-2.064,2.324a72.176,72.176,0,0,1-7.98.112Zm11.857-.006c-.016-.041-.022-2.3-.013-5.025l.016-4.949L71.25,24.3l1.916.053c.066.054.083.378.083,1.6v1.531l.146.037a1.607,1.607,0,0,0,.618-.126,11.553,11.553,0,0,1,4.559-.035,2.26,2.26,0,0,1,1.726,1.26,52.222,52.222,0,0,1,0,5.675,7.947,7.947,0,0,1-1.8.072,7.947,7.947,0,0,1-1.8-.072,13.06,13.06,0,0,1-.072-2.349V29.671l-.179-.179a2.885,2.885,0,0,0-3.073.063l-.136.128v2.271L73.168,34.3a22.332,22.332,0,0,1-3.763,0ZM95.4,34.252c-.1-.176-.086-9.727.012-9.861.068-.094.239-.1,1.916-.088l1.841.016v10.01l-1.844.016c-1.783.015-1.855.011-1.916-.1Zm5.94.041c-.016-.041-.022-2.3-.013-5.025l.016-4.949,1.833-.016,1.916.053c.114.095.125,9.835.011,9.94a22.332,22.332,0,0,1-3.763,0Z" transform="translate(-5.668 -1.578)"></path><path id="Path_32" data-name="Path 32" d="M25.185,44.186a2.688,2.688,0,0,1-1.312-.65l-.258-.22h-4.54c-3.594,0-4.544-.011-4.559-.053s-.065-.48-.123-1l-.144-1.285-.105-.933-.126-1.119-.144-1.3-.107-.9a20.313,20.313,0,0,0-2.785-2.081L8.105,32.574c-.108-.088-.119-.129-.2-.755a18.243,18.243,0,0,1,3.618-13.695,15.4,15.4,0,0,1,2.1-2.393,17.173,17.173,0,0,1,6.956-3.849,17.639,17.639,0,0,1,18.545,5.791,19.324,19.324,0,0,1,3.913,14c-.023.24-.053.492-.066.559-.02.105-.234.281-1.473,1.2L37.269,36.6l-.048.439L36.894,40l-.365,3.217c-.009.009-2.033.026-4.5.042l-4.485.028-.27.22a2.677,2.677,0,0,1-2.09.676Z" fill="#ec1b23"></path><path id="Path_33" data-name="Path 33" d="M26.619,41.559a2.6,2.6,0,0,0,.616-.461l.336-.323,3.363-.03,3.382-.1a3.185,3.185,0,0,0,.044-.356l.084-.849L34.8,36l.051-.52,5.479-4.022a4.8,4.8,0,0,0,.263-1.632,6.73,6.73,0,0,0-.176-1.976,4.028,4.028,0,0,0-.457-1.194c-.026,0-1.629,1.6-3.563,3.559l-4.485,4.537-.988.9c-.026-.1.061-.225.957-1.354l3.384-4.263,4.378-5.564a4.685,4.685,0,0,0-.307-1.091A7.394,7.394,0,0,0,38.512,22a7.981,7.981,0,0,0-1.106-1.2c-.009.011-.3.524-.652,1.14L30.32,33.27l-.8,1.361a.144.144,0,0,1-.142.028c-.174-.055-.109-.246.6-1.762l4.87-10.451,1.4-3.088a2.539,2.539,0,0,0-.626-.872,8.171,8.171,0,0,0-1.51-1.152,11.209,11.209,0,0,0-1.409-.711c-.018.018-.088.294-.7,2.435L28.027,33.146c-.181.65-.2.7-.3.7-.126,0-.135-.1-.047-.553l.272-1.416.162-.849,2.858-15.209-.1-.072a4.883,4.883,0,0,0-2.58-.841,8.8,8.8,0,0,0-1.581,0c-.009.011-.039.662-.065,1.449l-.461,13.405-.1,2.724c-.054,1.537-.068,1.648-.213,1.648-.077,0-.09-.125-.14-1.387L25.5,27.407l-.083-1.969-.145-3.295-.063-1.493-.061-1.367-.177-4.145-.009-.29-.332-.033a6.8,6.8,0,0,0-2.547.288,5.82,5.82,0,0,0-1.2.612l-.188.137L23.2,28.371,24.283,33.9c0,.158-.1.2-.213.092-.074-.074-.74-2.35-2.272-7.762l-.416-1.451-1.2-4.213-1.115-3.864a5.274,5.274,0,0,0-1.791.8,6.552,6.552,0,0,0-1.718,1.668l-.17.246,6.9,14.417a4.608,4.608,0,0,1,.306.745c.013.174-.105.193-.246.04-.058-.064-.562-.9-1.122-1.858L14.294,20.915a6.264,6.264,0,0,0-1.271,1.49,5.177,5.177,0,0,0-.821,2.088l-.029.27,2.974,3.646,4.44,5.443,1.452,1.865a.23.23,0,0,1-.116.079c-.116.014-.454-.321-4.642-4.591l-4.575-4.594a9.133,9.133,0,0,0-.5,1.776,9.066,9.066,0,0,0,.019,2.529,1.164,1.164,0,0,0,.183.527c.084.083.8.627,4.364,3.343l1.207.918.048.414.112.975.121,1.036.167,1.471.127,1.089.018.093h6.805l.242.263a1.725,1.725,0,0,0,1.412.676,1.235,1.235,0,0,0,.6-.153Z" transform="translate(-0.412 -0.437)" fill="#fdef00"></path></g><rect id="Rectangle_3" data-name="Rectangle 3" width="152" height="66" transform="translate(-367 772)" fill="none"></rect></g></g></svg> 