<?xml version="1.0" encoding="UTF-8"?> <svg xmlns="http://www.w3.org/2000/svg" xmlns:xlink="http://www.w3.org/1999/xlink" id="Group_76" data-name="Group 76" width="365" height="250" viewBox="0 0 365 250"><defs><clipPath id="clip-path"><rect id="Rectangle_5" data-name="Rectangle 5" width="365" height="250" fill="#002c48"></rect></clipPath></defs><g id="Mask_Group_1" data-name="Mask Group 1" clip-path="url(#clip-path)"><rect id="Rectangle_1" data-name="Rectangle 1" width="365" height="250" fill="#002c48"></rect><g id="Group_1" data-name="Group 1" transform="translate(-83.95 184.281)" opacity="0.452"><g id="Rectangle_2" data-name="Rectangle 2" transform="translate(-0.05 -0.281)" fill="none" stroke="#065283" stroke-width="1"><rect width="106" height="129" rx="33" stroke="none"></rect><rect x="0.5" y="0.5" width="105" height="128" rx="32.5" fill="none"></rect></g><g id="Rectangle_3" data-name="Rectangle 3" transform="translate(22.95 20.719)" fill="none" stroke="#065283" stroke-width="1"><rect width="106" height="128" rx="33" stroke="none"></rect><rect x="0.5" y="0.5" width="105" height="127" rx="32.5" fill="none"></rect></g><g id="Rectangle_4" data-name="Rectangle 4" transform="translate(45.95 40.719)" fill="none" stroke="#065283" stroke-width="1"><rect width="106" height="129" rx="33" stroke="none"></rect><rect x="0.5" y="0.5" width="105" height="128" rx="32.5" fill="none"></rect></g></g><g id="Group_2" data-name="Group 2" transform="matrix(0.809, -0.588, 0.588, 0.809, 228.292, -66.724)" opacity="0.246"><g id="Path_5" data-name="Path 5" fill="none"><path d="M12.946-1.24l87.878-8.42c7.15-.685,12.391,4.917,11.706,12.512L104.109,96.2c-.685,7.6-7.037,14.308-14.187,14.993l-87.878,8.42C-5.1,120.3-10.346,114.7-9.661,107.1l8.42-93.349C-.555,6.157,5.8-.555,12.946-1.24Z" stroke="none"></path><path d="M 101.9969329833984 -8.717437744140625 C 101.642951965332 -8.717437744140625 101.280387878418 -8.69989013671875 100.9193115234375 -8.665290832519531 L 13.04164123535156 -0.24505615234375 C 9.824272155761719 0.06324005126953125 6.668235778808594 1.695816040039062 4.154914855957031 4.351966857910156 C 1.629127502441406 7.021255493164062 0.06671142578125 10.39161682128906 -0.2445220947265625 13.84221649169922 L -8.664756774902344 107.1916885375977 C -8.966049194335938 110.5317306518555 -8.051193237304688 113.5538177490234 -6.088722229003906 115.7012710571289 C -4.338958740234375 117.6159820556641 -1.866889953613281 118.6704559326172 0.8720932006835938 118.6704559326172 C 1.226058959960938 118.6704559326172 1.588600158691406 118.6529083251953 1.949676513671875 118.6183090209961 L 89.82733154296875 110.1980514526367 C 93.04469299316406 109.889762878418 96.20074462890625 108.2572021484375 98.71407318115234 105.6010513305664 C 101.2398376464844 102.9317626953125 102.8022613525391 99.5614013671875 103.1134948730469 96.11080169677734 L 111.5337524414062 2.761329650878906 C 111.8350219726562 -0.5787277221679688 110.920166015625 -3.600837707519531 108.9576950073242 -5.748275756835938 C 107.2079315185547 -7.6629638671875 104.7358932495117 -8.717437744140625 101.9969329833984 -8.717437744140625 M 101.9969253540039 -9.717437744140625 C 108.5384826660156 -9.717437744140625 113.1767959594727 -4.322685241699219 112.5297088623047 2.851165771484375 L 104.1094589233398 96.20063781738281 C 103.4243698120117 103.7958755493164 97.07273101806641 110.5083999633789 89.92271423339844 111.193489074707 L 2.045059204101562 119.6137466430664 C -5.105094909667969 120.2988510131836 -10.34583282470703 114.6970672607422 -9.660720825195312 107.1018524169922 L -1.240486145019531 13.75238037109375 C -0.5553817749023438 6.157142639160156 5.796241760253906 -0.5553817749023438 12.94625854492188 -1.240493774414062 L 100.8239288330078 -9.660728454589844 C 101.2206192016602 -9.698738098144531 101.6126708984375 -9.717437744140625 101.9969253540039 -9.717437744140625 Z" stroke="none" fill="#065283"></path></g><g id="Path_6" data-name="Path 6" transform="translate(22.986 16.802)" fill="none"><path d="M12.946-1.24l87.878-8.42c7.15-.685,12.391,4.917,11.706,12.512L104.109,96.2c-.685,7.6-7.037,14.308-14.187,14.993l-87.878,8.42C-5.1,120.3-10.346,114.7-9.661,107.1l8.42-93.349C-.555,6.157,5.8-.555,12.946-1.24Z" stroke="none"></path><path d="M 101.9969329833984 -8.717437744140625 C 101.642951965332 -8.717437744140625 101.280387878418 -8.69989013671875 100.9193115234375 -8.665290832519531 L 13.04164123535156 -0.24505615234375 C 9.824272155761719 0.06324005126953125 6.668235778808594 1.695816040039062 4.154914855957031 4.351966857910156 C 1.629127502441406 7.021255493164062 0.06671142578125 10.39161682128906 -0.2445220947265625 13.84221649169922 L -8.664756774902344 107.1916885375977 C -8.966049194335938 110.5317306518555 -8.051193237304688 113.5538177490234 -6.088722229003906 115.7012710571289 C -4.338958740234375 117.6159820556641 -1.866889953613281 118.6704559326172 0.8720932006835938 118.6704559326172 C 1.226058959960938 118.6704559326172 1.588600158691406 118.6529083251953 1.949676513671875 118.6183090209961 L 89.82733154296875 110.1980514526367 C 93.04469299316406 109.889762878418 96.20074462890625 108.2572021484375 98.71407318115234 105.6010513305664 C 101.2398376464844 102.9317626953125 102.8022613525391 99.5614013671875 103.1134948730469 96.11080169677734 L 111.5337524414062 2.761329650878906 C 111.8350219726562 -0.5787277221679688 110.920166015625 -3.600837707519531 108.9576950073242 -5.748275756835938 C 107.2079315185547 -7.6629638671875 104.7358932495117 -8.717437744140625 101.9969329833984 -8.717437744140625 M 101.9969253540039 -9.717437744140625 C 108.5384826660156 -9.717437744140625 113.1767959594727 -4.322685241699219 112.5297088623047 2.851165771484375 L 104.1094589233398 96.20063781738281 C 103.4243698120117 103.7958755493164 97.07273101806641 110.5083999633789 89.92271423339844 111.193489074707 L 2.045059204101562 119.6137466430664 C -5.105094909667969 120.2988510131836 -10.34583282470703 114.6970672607422 -9.660720825195312 107.1018524169922 L -1.240486145019531 13.75238037109375 C -0.5553817749023438 6.157142639160156 5.796241760253906 -0.5553817749023438 12.94625854492188 -1.240493774414062 L 100.8239288330078 -9.660728454589844 C 101.2206192016602 -9.698738098144531 101.6126708984375 -9.717437744140625 101.9969253540039 -9.717437744140625 Z" stroke="none" fill="#065283"></path></g><g id="Path_7" data-name="Path 7" transform="translate(45.973 33.604)" fill="none"><path d="M12.946-1.24l87.878-8.42c7.15-.685,12.391,4.917,11.706,12.512L104.109,96.2c-.685,7.6-7.037,14.308-14.187,14.993l-87.878,8.42C-5.1,120.3-10.346,114.7-9.661,107.1l8.42-93.349C-.555,6.157,5.8-.555,12.946-1.24Z" stroke="none"></path><path d="M 101.9969329833984 -8.717437744140625 C 101.642951965332 -8.717437744140625 101.280387878418 -8.69989013671875 100.9193115234375 -8.665290832519531 L 13.04164123535156 -0.24505615234375 C 9.824272155761719 0.06324005126953125 6.668235778808594 1.695816040039062 4.154914855957031 4.351966857910156 C 1.629127502441406 7.021255493164062 0.06671142578125 10.39161682128906 -0.2445220947265625 13.84221649169922 L -8.664756774902344 107.1916885375977 C -8.966049194335938 110.5317306518555 -8.051193237304688 113.5538177490234 -6.088722229003906 115.7012710571289 C -4.338958740234375 117.6159820556641 -1.866889953613281 118.6704559326172 0.8720932006835938 118.6704559326172 C 1.226058959960938 118.6704559326172 1.588600158691406 118.6529083251953 1.949676513671875 118.6183090209961 L 89.82733154296875 110.1980514526367 C 93.04469299316406 109.889762878418 96.20074462890625 108.2572021484375 98.71407318115234 105.6010513305664 C 101.2398376464844 102.9317626953125 102.8022613525391 99.5614013671875 103.1134948730469 96.11080169677734 L 111.5337524414062 2.761329650878906 C 111.8350219726562 -0.5787277221679688 110.920166015625 -3.600837707519531 108.9576950073242 -5.748275756835938 C 107.2079315185547 -7.6629638671875 104.7358932495117 -8.717437744140625 101.9969329833984 -8.717437744140625 M 101.9969253540039 -9.717437744140625 C 108.5384826660156 -9.717437744140625 113.1767959594727 -4.322685241699219 112.5297088623047 2.851165771484375 L 104.1094589233398 96.20063781738281 C 103.4243698120117 103.7958755493164 97.07273101806641 110.5083999633789 89.92271423339844 111.193489074707 L 2.045059204101562 119.6137466430664 C -5.105094909667969 120.2988510131836 -10.34583282470703 114.6970672607422 -9.660720825195312 107.1018524169922 L -1.240486145019531 13.75238037109375 C -0.5553817749023438 6.157142639160156 5.796241760253906 -0.5553817749023438 12.94625854492188 -1.240493774414062 L 100.8239288330078 -9.660728454589844 C 101.2206192016602 -9.698738098144531 101.6126708984375 -9.717437744140625 101.9969253540039 -9.717437744140625 Z" stroke="none" fill="#065283"></path></g></g><g id="Group_3" data-name="Group 3" transform="translate(236.647 204.308)" opacity="0.351"><path id="Path_1" data-name="Path 1" d="M599.536,513.1H369.347" transform="translate(-369.347 -492.676)" fill="none" stroke="#065283" stroke-width="1"></path><path id="Path_2" data-name="Path 2" d="M599.536,513.1H369.347" transform="translate(-346.717 -472.25)" fill="none" stroke="#065283" stroke-width="1"></path><path id="Path_3" data-name="Path 3" d="M599.536,513.1H369.347" transform="translate(-284.667 -513.103)" fill="none" stroke="#065283" stroke-width="1"></path></g></g><g id="Group_62" data-name="Group 62" transform="translate(80.154 12)"><g id="Group_59" data-name="Group 59" transform="translate(0)"><ellipse id="Ellipse_2" data-name="Ellipse 2" cx="18.5" cy="18" rx="18.5" ry="18" transform="translate(-0.154)" fill="#01385c"></ellipse><text id="a" transform="translate(14.846 23)" fill="#fff" font-size="19" font-family="SignPainter-HouseScript, SignPainter" letter-spacing="-0.062em"><tspan x="0" y="0">a</tspan></text></g><text id="_t-1" data-name=" t-1" transform="translate(36.846 33)" fill="#fff" font-size="14" font-family="OpenSans, Open Sans" letter-spacing="-0.062em"><tspan x="0" y="0" xml:space="preserve"> t-1</tspan></text></g><circle id="Ellipse_2-2" data-name="Ellipse 2" cx="18" cy="18" r="18" transform="translate(250 11)" fill="#01385c"></circle><text id="a-2" data-name="a" transform="translate(265 34)" fill="#fff" font-size="19" font-family="SignPainter-HouseScript, SignPainter" letter-spacing="-0.062em" opacity="0.9"><tspan x="0" y="0">a</tspan></text><text id="_t" data-name=" t" transform="translate(286 42)" fill="#fff" font-size="14" font-family="OpenSans, Open Sans" letter-spacing="-0.062em"><tspan x="0" y="0" xml:space="preserve"> t</tspan></text><path id="Path_10" data-name="Path 10" d="M1148.5,97v53.769" transform="translate(-1108 -6.263)" fill="none" stroke="#fff" stroke-width="1"></path><path id="Path_11" data-name="Path 11" d="M1148.5,97v92.964" transform="translate(-1051 -45.458)" fill="none" stroke="#fff" stroke-width="1"></path><path id="Path_12" data-name="Path 12" d="M1148.5,97v53.769" transform="translate(-994 -6.263)" fill="none" stroke="#fff" stroke-width="1"></path><path id="Path_13" data-name="Path 13" d="M1148.5,97v53.769" transform="translate(-937 -6.263)" fill="none" stroke="#fff" stroke-width="1"></path><path id="Path_14" data-name="Path 14" d="M1148.5,97v93.516" transform="translate(-880 -46.01)" fill="none" stroke="#fff" stroke-width="1"></path><path id="Path_15" data-name="Path 15" d="M1148.5,97v53.769" transform="translate(-823 -6.263)" fill="none" stroke="#fff" stroke-width="1"></path><rect id="Rectangle_90" data-name="Rectangle 90" width="339" height="24" transform="translate(12 97)" fill="#002c48"></rect><rect id="Rectangle_69" data-name="Rectangle 69" width="56" height="17" transform="translate(241 61)" fill="#01385c"></rect><text id="Causal_Transformer" data-name="Causal Transformer" transform="translate(119 114)" fill="#fff" font-size="13" font-family="OpenSans, Open Sans" letter-spacing="-0.062em"><tspan x="0" y="0">Causal Transformer</tspan></text><g id="Rectangle_70" data-name="Rectangle 70" transform="translate(14 128)" fill="#01385c" stroke="#fff" stroke-width="0.3"><rect width="53" height="17" stroke="none"></rect><rect x="0.15" y="0.15" width="52.7" height="16.7" fill="none"></rect></g><g id="Rectangle_84" data-name="Rectangle 84" transform="translate(71 128)" fill="#01385c" stroke="#fff" stroke-width="0.3"><rect width="53" height="17" stroke="none"></rect><rect x="0.15" y="0.15" width="52.7" height="16.7" fill="none"></rect></g><g id="Rectangle_88" data-name="Rectangle 88" transform="translate(128 128)" fill="#01385c" stroke="#fff" stroke-width="0.3"><rect width="53" height="17" stroke="none"></rect><rect x="0.15" y="0.15" width="52.7" height="16.7" fill="none"></rect></g><g id="Rectangle_86" data-name="Rectangle 86" transform="translate(185 128)" fill="#01385c" stroke="#fff" stroke-width="0.3"><rect width="53" height="17" stroke="none"></rect><rect x="0.15" y="0.15" width="52.7" height="16.7" fill="none"></rect></g><g id="Rectangle_87" data-name="Rectangle 87" transform="translate(242 128)" fill="#01385c" stroke="#fff" stroke-width="0.3"><rect width="53" height="17" stroke="none"></rect><rect x="0.15" y="0.15" width="52.7" height="16.7" fill="none"></rect></g><g id="Rectangle_89" data-name="Rectangle 89" transform="translate(299 128)" fill="#01385c" stroke="#fff" stroke-width="0.3"><rect width="53" height="17" stroke="none"></rect><rect x="0.15" y="0.15" width="52.7" height="16.7" fill="none"></rect></g><path id="Path_8" data-name="Path 8" d="M1120,100h339.318" transform="translate(-1108 -3)" fill="none" stroke="#0a5788" stroke-width="1"></path><path id="Path_9" data-name="Path 9" d="M1120,100h339.318" transform="translate(-1108 21)" fill="none" stroke="#0a5788" stroke-width="1"></path><text id="RTG" transform="translate(199 217)" fill="#fff" font-size="14" font-family="OpenSans, Open Sans" letter-spacing="-0.062em"><tspan x="0" y="0">RTG</tspan></text><text id="Action" transform="translate(250 217)" fill="#fff" font-size="14" font-family="OpenSans, Open Sans" letter-spacing="-0.062em"><tspan x="0" y="0">Action</tspan></text><text id="State" transform="translate(311 217)" fill="#fff" font-size="14" font-family="OpenSans, Open Sans" letter-spacing="-0.062em"><tspan x="0" y="0">State</tspan></text><g id="Group_33" data-name="Group 33" transform="translate(-352 48)"><path id="Path_4" data-name="Path 4" d="M392,97v21.589" transform="translate(0.5 3.411)" fill="none" stroke="#fff" stroke-width="1"></path><path id="Polygon_1" data-name="Polygon 1" d="M2.5,0,5,4H0Z" transform="translate(390 97)" fill="#fff"></path></g><g id="Group_65" data-name="Group 65" transform="translate(-295 48)"><path id="Path_4-2" data-name="Path 4" d="M392,97v21.589" transform="translate(0.5 3.411)" fill="none" stroke="#fff" stroke-width="1"></path><path id="Polygon_1-2" data-name="Polygon 1" d="M2.5,0,5,4H0Z" transform="translate(390 97)" fill="#fff"></path></g><path id="Polygon_1-3" data-name="Polygon 1" d="M2.5,0,5,4H0Z" transform="translate(95 48)" fill="#fff"></path><path id="Polygon_2" data-name="Polygon 2" d="M2.5,0,5,4H0Z" transform="translate(266 48)" fill="#fff"></path><g id="Group_66" data-name="Group 66" transform="translate(-238 48)"><path id="Path_4-3" data-name="Path 4" d="M392,97v21.589" transform="translate(0.5 3.411)" fill="none" stroke="#fff" stroke-width="1"></path><path id="Polygon_1-4" data-name="Polygon 1" d="M2.5,0,5,4H0Z" transform="translate(390 97)" fill="#fff"></path></g><g id="Group_67" data-name="Group 67" transform="translate(-181 48)"><path id="Path_4-4" data-name="Path 4" d="M392,97v21.589" transform="translate(0.5 3.411)" fill="none" stroke="#fff" stroke-width="1"></path><path id="Polygon_1-5" data-name="Polygon 1" d="M2.5,0,5,4H0Z" transform="translate(390 97)" fill="#fff"></path></g><g id="Group_68" data-name="Group 68" transform="translate(-124 48)"><path id="Path_4-5" data-name="Path 4" d="M392,97v21.589" transform="translate(0.5 3.411)" fill="none" stroke="#fff" stroke-width="1"></path><path id="Polygon_1-6" data-name="Polygon 1" d="M2.5,0,5,4H0Z" transform="translate(390 97)" fill="#fff"></path></g><g id="Group_69" data-name="Group 69" transform="translate(-67 48)"><path id="Path_4-6" data-name="Path 4" d="M392,97v21.589" transform="translate(0.5 3.411)" fill="none" stroke="#fff" stroke-width="1"></path><path id="Polygon_1-7" data-name="Polygon 1" d="M2.5,0,5,4H0Z" transform="translate(390 97)" fill="#fff"></path></g><g id="Group_75" data-name="Group 75"><text id="_t-1-2" data-name=" t-1" transform="translate(56 190)" fill="#fff" font-size="10" font-family="OpenSans, Open Sans" letter-spacing="-0.062em"><tspan x="0" y="0" xml:space="preserve"> t-1</tspan></text><g id="Group_59-2" data-name="Group 59" transform="translate(26 165)"><circle id="Ellipse_2-3" data-name="Ellipse 2" cx="15" cy="15" r="15" fill="#01385c"></circle><text id="R" transform="translate(11 19)" fill="#fff" font-size="18" font-family="SignPainter-HouseScript, SignPainter" letter-spacing="-0.062em"><tspan x="0" y="0">R</tspan></text></g></g><g id="Group_74" data-name="Group 74"><text id="_t-1-3" data-name=" t-1" transform="translate(112 191)" fill="#fff" font-size="10" font-family="OpenSans, Open Sans" letter-spacing="-0.062em"><tspan x="0" y="0" xml:space="preserve"> t-1</tspan></text><g id="Group_59-3" data-name="Group 59" transform="translate(82.759 165)"><ellipse id="Ellipse_2-4" data-name="Ellipse 2" cx="14.5" cy="15" rx="14.5" ry="15" transform="translate(0.241)" fill="#01385c"></ellipse><text id="S" transform="translate(11.241 21)" fill="#fff" font-size="18" font-family="SignPainter-HouseScript, SignPainter" letter-spacing="-0.062em"><tspan x="0" y="0">S</tspan></text></g></g><g id="Group_73" data-name="Group 73"><text id="_t-1-4" data-name=" t-1" transform="translate(168 189)" fill="#fff" font-size="10" font-family="OpenSans, Open Sans" letter-spacing="-0.062em"><tspan x="0" y="0" xml:space="preserve"> t-1</tspan></text><g id="Group_59-4" data-name="Group 59" transform="translate(138.518 165)"><g id="Group_64" data-name="Group 64"><ellipse id="Ellipse_2-5" data-name="Ellipse 2" cx="14.5" cy="15" rx="14.5" ry="15" transform="translate(0.482)" fill="#01385c"></ellipse><text id="A-3" data-name="A" transform="translate(11.482 20)" fill="#fff" font-size="18" font-family="SignPainter-HouseScript, SignPainter" letter-spacing="-0.062em"><tspan x="0" y="0">a</tspan></text></g></g></g><g id="Group_72" data-name="Group 72"><text id="_t-2" data-name=" t" transform="translate(227 190)" fill="#fff" font-size="11" font-family="OpenSans, Open Sans" letter-spacing="-0.062em"><tspan x="0" y="0" xml:space="preserve"> t</tspan></text><g id="Group_60" data-name="Group 60" transform="translate(195.959 165)"><ellipse id="Ellipse_2-6" data-name="Ellipse 2" cx="15.5" cy="15" rx="15.5" ry="15" transform="translate(0.041)" fill="#01385c"></ellipse><text id="R-2" data-name="R" transform="translate(11.041 20)" fill="#fff" font-size="18" font-family="SignPainter-HouseScript, SignPainter" letter-spacing="-0.062em"><tspan x="0" y="0">R</tspan></text></g></g><g id="Group_71" data-name="Group 71"><text id="_t-3" data-name=" t" transform="translate(283 190)" fill="#fff" font-size="11" font-family="OpenSans, Open Sans" letter-spacing="-0.062em"><tspan x="0" y="0" xml:space="preserve"> t</tspan></text><g id="Group_60-2" data-name="Group 60" transform="translate(253.507 165)"><ellipse id="Ellipse_2-7" data-name="Ellipse 2" cx="14.5" cy="15" rx="14.5" ry="15" transform="translate(0.493)" fill="#01385c"></ellipse><text id="S-2" data-name="S" transform="translate(11.493 20)" fill="#fff" font-size="18" font-family="SignPainter-HouseScript, SignPainter" letter-spacing="-0.062em"><tspan x="0" y="0">S</tspan></text></g></g><g id="Group_70" data-name="Group 70"><text id="_t-4" data-name=" t" transform="translate(341 191)" fill="#fff" font-size="11" font-family="OpenSans, Open Sans" letter-spacing="-0.062em"><tspan x="0" y="0" xml:space="preserve"> t</tspan></text><g id="Group_60-3" data-name="Group 60" transform="translate(310.371 164)"><g id="Group_63" data-name="Group 63"><circle id="Ellipse_2-8" data-name="Ellipse 2" cx="15.5" cy="15.5" r="15.5" transform="translate(-0.371)" fill="#01385c"></circle><text id="a-4" data-name="a" transform="translate(11.629 20)" fill="#fff" font-size="18" font-family="SignPainter-HouseScript, SignPainter" letter-spacing="-0.062em"><tspan x="0" y="0">a</tspan></text></g></g></g><rect id="Rectangle_68" data-name="Rectangle 68" width="57" height="17" transform="translate(69 61)" fill="#01385c"></rect></svg> 