<?xml version="1.0" encoding="UTF-8"?> <svg xmlns="http://www.w3.org/2000/svg" xmlns:xlink="http://www.w3.org/1999/xlink" id="Group_11" data-name="Group 11" width="365" height="250" viewBox="0 0 365 250"><defs><linearGradient id="linear-gradient" x1="0.5" x2="0.5" y2="1" gradientUnits="objectBoundingBox"><stop offset="0" stop-color="#dae8fc"></stop><stop offset="1" stop-color="#6d747e"></stop></linearGradient><linearGradient id="linear-gradient-2" x1="0.5" x2="0.5" y2="1" gradientUnits="objectBoundingBox"><stop offset="0" stop-color="#dcdcdc"></stop><stop offset="1" stop-color="#6e6e6e"></stop></linearGradient><linearGradient id="linear-gradient-3" x1="0.5" x2="0.5" y2="1" gradientUnits="objectBoundingBox"><stop offset="0" stop-color="#b3dba1"></stop><stop offset="1" stop-color="#5a6e51"></stop></linearGradient><linearGradient id="linear-gradient-4" x1="0.5" x2="0.5" y2="1" gradientUnits="objectBoundingBox"><stop offset="0" stop-color="#fbeab2"></stop><stop offset="1" stop-color="#7e7559"></stop></linearGradient><linearGradient id="linear-gradient-5" x1="0.5" x2="0.5" y2="1" gradientUnits="objectBoundingBox"><stop offset="0" stop-color="#db93b4"></stop><stop offset="1" stop-color="#6e4a5a"></stop></linearGradient><linearGradient id="linear-gradient-6" x1="0.5" x2="0.5" y2="1" gradientUnits="objectBoundingBox"><stop offset="0" stop-color="#f8cccc"></stop><stop offset="1" stop-color="#7c6666"></stop></linearGradient></defs><g id="Group_9" data-name="Group 9"><rect id="Rectangle_1" data-name="Rectangle 1" width="365" height="250" fill="#191645"></rect><rect id="Rectangle_2" data-name="Rectangle 2" width="10" height="9" transform="translate(33 36)" fill="url(#linear-gradient)"></rect><rect id="Rectangle_3" data-name="Rectangle 3" width="10" height="10" transform="translate(33 47)" fill="url(#linear-gradient-2)"></rect><rect id="Rectangle_4" data-name="Rectangle 4" width="10" height="9" transform="translate(33 59)" fill="url(#linear-gradient-3)"></rect><rect id="Rectangle_5" data-name="Rectangle 5" width="10" height="10" transform="translate(33 70)" fill="url(#linear-gradient-4)"></rect><rect id="Rectangle_6" data-name="Rectangle 6" width="10" height="9" transform="translate(33 82)" fill="url(#linear-gradient-5)"></rect><rect id="Rectangle_7" data-name="Rectangle 7" width="10" height="9" transform="translate(33 94)" fill="url(#linear-gradient-6)"></rect><path id="Path_1" data-name="Path 1" d="M147.7,52.68h6.082v58.868H147.7" transform="translate(-98.669 -12.172)" fill="none" stroke="#fff" stroke-width="1"></path><path id="Path_2" data-name="Path 2" d="M164.566,130.722h5.187" transform="translate(-109.455 -59.487)" fill="none" stroke="#fff" stroke-width="1"></path><path id="Path_3" data-name="Path 3" d="M164.566,130.722H217.39" transform="translate(-76.127 -59.487)" fill="none" stroke="#fff" stroke-width="1"></path><path id="Path_5" data-name="Path 5" d="M164.566,130.722H217.39" transform="translate(64.132 -59.487)" fill="none" stroke="#fff" stroke-width="1"></path><path id="Path_6" data-name="Path 6" d="M164.566,130.722H217.39" transform="translate(64.132 34.278)" fill="none" stroke="#fff" stroke-width="1"></path><path id="Path_4" data-name="Path 4" d="M164.566,130.722h71.906" transform="translate(-95.209 34.259)" fill="none" stroke="#fff" stroke-width="1"></path><g id="Group_6" data-name="Group 6" transform="translate(-8 5)"><rect id="Rectangle_19" data-name="Rectangle 19" width="68" height="19" transform="translate(21 107)" fill="#383565"></rect><text id="Latent_Space" data-name="Latent Space" transform="translate(25 121)" fill="#fff" font-size="10" font-family="OpenSans, Open Sans"><tspan x="0" y="0">Latent Space</tspan></text></g><g id="Rectangle_13" data-name="Rectangle 13" transform="translate(21 141)" fill="#f6f6f6" stroke="#707070" stroke-width="0.4"><rect width="25" height="24" stroke="none"></rect><rect x="0.2" y="0.2" width="24.6" height="23.6" fill="none"></rect></g><g id="Rectangle_12" data-name="Rectangle 12" transform="translate(25 145)" fill="#dae8fc" stroke="#707070" stroke-width="0.4"><rect width="24" height="23" stroke="none"></rect><rect x="0.2" y="0.2" width="23.6" height="22.6" fill="none"></rect></g><g id="Rectangle_11" data-name="Rectangle 11" transform="translate(31 149)" fill="#d5e8d4" stroke="#707070" stroke-width="0.4"><rect width="24" height="24" stroke="none"></rect><rect x="0.2" y="0.2" width="23.6" height="23.6" fill="none"></rect></g><g id="Rectangle_10" data-name="Rectangle 10" transform="translate(35 154)" fill="#fce5cc" stroke="#707070" stroke-width="0.4"><rect width="24" height="24" stroke="none"></rect><rect x="0.2" y="0.2" width="23.6" height="23.6" fill="none"></rect></g><g id="Rectangle_9" data-name="Rectangle 9" transform="translate(38 158)" fill="#fff" stroke="#707070" stroke-width="0.4"><rect width="25" height="25" stroke="none"></rect><rect x="0.2" y="0.2" width="24.6" height="24.6" fill="none"></rect></g><g id="Rectangle_8" data-name="Rectangle 8" transform="translate(43 163)" fill="#dae8fc" stroke="#707070" stroke-width="0.4"><rect width="25" height="25" stroke="none"></rect><rect x="0.2" y="0.2" width="24.6" height="24.6" fill="none"></rect></g><path id="Polygon_1" data-name="Polygon 1" d="M2.5,0,5,4H0Z" transform="translate(144 69) rotate(90)" fill="#fff"></path><path id="Polygon_7" data-name="Polygon 7" d="M2.5,0,5,4H0Z" transform="translate(144 162) rotate(90)" fill="#fff"></path><path id="Polygon_5" data-name="Polygon 5" d="M2.5,0,5,4H0Z" transform="translate(285 69) rotate(90)" fill="#fff"></path><path id="Polygon_6" data-name="Polygon 6" d="M2.5,0,5,4H0Z" transform="translate(285 162.5) rotate(90)" fill="#fff"></path><g id="Group_4" data-name="Group 4" transform="translate(-8)"><rect id="Rectangle_17" data-name="Rectangle 17" width="98" height="43" transform="translate(152 50)" fill="#383565"></rect><text id="Generator" transform="translate(171 76)" fill="#fff" font-size="12" font-family="OpenSans-Bold, Open Sans" font-weight="700"><tspan x="0" y="0">Generator</tspan></text></g><g id="Group_5" data-name="Group 5" transform="translate(-8)"><rect id="Rectangle_18" data-name="Rectangle 18" width="98" height="42" transform="translate(153 144)" fill="#383565"></rect><text id="Discriminator" transform="translate(161 170)" fill="#fff" font-size="12" font-family="OpenSans-Bold, Open Sans" font-weight="700"><tspan x="0" y="0">Discriminator</tspan></text></g><g id="Group_7" data-name="Group 7" transform="translate(-8)"><rect id="Rectangle_21" data-name="Rectangle 21" width="68" height="19" transform="translate(21 197)" fill="#383565"></rect><text id="Real_Samples" data-name="Real Samples" transform="translate(24 211)" fill="#fff" font-size="10" font-family="OpenSans, Open Sans"><tspan x="0" y="0">Real Samples</tspan></text></g><g id="Group_2" data-name="Group 2" transform="translate(-8)"><rect id="Rectangle_19-2" data-name="Rectangle 19" width="68" height="19" transform="translate(293 65)" fill="#383565"></rect><text id="Fake_Sample" data-name="Fake Sample" transform="translate(298 79)" fill="#fff" font-size="10" font-family="OpenSans, Open Sans"><tspan x="0" y="0">Fake Sample</tspan></text></g><g id="Group_3" data-name="Group 3" transform="translate(-8)"><rect id="Rectangle_20" data-name="Rectangle 20" width="68" height="19" transform="translate(293 157)" fill="#383565"></rect><text id="Real" transform="translate(317 170)" fill="#fff" font-size="10" font-family="OpenSans, Open Sans"><tspan x="0" y="0">Real</tspan></text></g><g id="Group_8" data-name="Group 8" transform="translate(-6)"><rect id="Rectangle_16" data-name="Rectangle 16" width="37" height="29" transform="translate(69 57)" fill="#383565"></rect><text id="Noise" transform="translate(75 76)" fill="#fff" font-size="10" font-family="OpenSans, Open Sans"><tspan x="0" y="0">Noise</tspan></text></g></g><text id="Zyntellect" transform="translate(309 238)" fill="#fff" font-size="8" font-family="Georgia" opacity="0.3"><tspan x="0" y="0">Zyntellect</tspan></text></svg> 