<?xml version="1.0" encoding="UTF-8"?> <svg xmlns="http://www.w3.org/2000/svg" width="366" height="251" viewBox="0 0 366 251" fill="none"><g clip-path="url(#clip0_1_162)"><path d="M369.2 -4.10001H-2.39999V255H369.2V-4.10001Z" fill="#051C2C"></path><path d="M86.8 127H282.3" stroke="white" stroke-miterlimit="10"></path><path d="M108.3 184.8L264.8 67.5" stroke="white" stroke-miterlimit="10"></path><path d="M103.2 70.3L262 184.4" stroke="white" stroke-miterlimit="10"></path><path opacity="0.33" d="M80.8 238.9C99.5777 238.9 114.8 223.678 114.8 204.9C114.8 186.122 99.5777 170.9 80.8 170.9C62.0223 170.9 46.8 186.122 46.8 204.9C46.8 223.678 62.0223 238.9 80.8 238.9Z" fill="#1B54F8"></path><path opacity="0.33" d="M52.8 161C71.5777 161 86.8 145.778 86.8 127C86.8 108.222 71.5777 93 52.8 93C34.0223 93 18.8 108.222 18.8 127C18.8 145.778 34.0223 161 52.8 161Z" fill="#1B54F8"></path><path opacity="0.33" d="M78.1 81.1C96.8777 81.1 112.1 65.8777 112.1 47.1C112.1 28.3223 96.8777 13.1 78.1 13.1C59.3223 13.1 44.1 28.3223 44.1 47.1C44.1 65.8777 59.3223 81.1 78.1 81.1Z" fill="#1B54F8"></path><path opacity="0.33" d="M290.4 236.9C309.178 236.9 324.4 221.678 324.4 202.9C324.4 184.122 309.178 168.9 290.4 168.9C271.622 168.9 256.4 184.122 256.4 202.9C256.4 221.678 271.622 236.9 290.4 236.9Z" fill="#1B54F8"></path><path opacity="0.33" d="M294.5 84.4C313.278 84.4 328.5 69.1777 328.5 50.4C328.5 31.6223 313.278 16.4 294.5 16.4C275.722 16.4 260.5 31.6223 260.5 50.4C260.5 69.1777 275.722 84.4 294.5 84.4Z" fill="#1B54F8"></path><path opacity="0.33" d="M316.3 161C335.078 161 350.3 145.778 350.3 127C350.3 108.222 335.078 93 316.3 93C297.522 93 282.3 108.222 282.3 127C282.3 145.778 297.522 161 316.3 161Z" fill="#1B54F8"></path><path opacity="0.33" d="M182 172C207.847 172 228.8 151.047 228.8 125.2C228.8 99.3531 207.847 78.4 182 78.4C156.153 78.4 135.2 99.3531 135.2 125.2C135.2 151.047 156.153 172 182 172Z" fill="#1B54F8"></path><path d="M182.2 165.9C204.236 165.9 222.1 148.036 222.1 126C222.1 103.964 204.236 86.1 182.2 86.1C160.164 86.1 142.3 103.964 142.3 126C142.3 148.036 160.164 165.9 182.2 165.9Z" fill="white"></path><path d="M207.2 128.1L205.9 122.3H196.1V129.5H207.2V128.1ZM173.8 137.3C171.1 134.6 166.5 136.5 166.5 140.3C166.5 144.1 171.1 146 173.8 143.3C175.5 141.7 175.5 139 173.8 137.3ZM171.8 139.3C170.9 138.4 169.5 139.1 169.5 140.3C169.5 141.5 171 142.1 171.8 141.3C172.3 140.7 172.3 139.9 171.8 139.3ZM170.8 137.7C173.1 137.7 174.3 140.5 172.6 142.2C171 143.8 168.1 142.7 168.1 140.4C168.2 138.9 169.4 137.7 170.8 137.7ZM203.2 137.3C200.5 134.6 195.9 136.5 195.9 140.3C195.9 144.1 200.5 146 203.2 143.3C204.9 141.7 204.9 139 203.2 137.3ZM200.2 134.8C202.8 134.8 205 136.6 205.6 139C206.4 139 207.2 138.5 207.2 137.7V130.9H195.5C195.2 130.9 194.9 130.6 194.9 130.3V121.8C194.9 121.5 195.2 121.2 195.5 121.2H204.4L201.2 119.4L193 118.8V139.1H194.7C195.4 136.5 197.6 134.8 200.2 134.8ZM201.2 139.3C200.3 138.4 198.9 139.1 198.9 140.3C198.9 141.5 200.4 142.1 201.2 141.3C201.7 140.7 201.7 139.9 201.2 139.3ZM200.2 137.7C202.5 137.7 203.7 140.5 202 142.2C200.4 143.8 197.5 142.7 197.5 140.4C197.6 138.9 198.7 137.7 200.2 137.7ZM185.4 102.5C180.9 98 173.5 98 169 102.5C166.9 104.6 165.6 107.5 165.6 110.7C165.6 117.4 173.8 129.1 177.2 133.3C180.6 129.1 188.8 117.4 188.8 110.7C188.8 107.5 187.5 104.6 185.4 102.5ZM189.3 115C187.2 121.7 181.2 130.4 177.7 134.6C177.4 134.9 177 134.9 176.7 134.6C173.2 130.3 167.3 121.8 165.1 115H161.5V139H165.3C166.3 134.8 171.5 133.3 174.6 136.4C175.3 137.1 175.8 138 176.1 139H191.7V115H189.3ZM182.8 105.2C179.7 102.1 174.8 102.1 171.7 105.2C168.6 108.3 168.6 113.2 171.7 116.3C174.8 119.4 179.7 119.4 182.8 116.3C185.8 113.2 185.8 108.2 182.8 105.2ZM177.2 101.6C182.2 101.6 186.3 105.7 186.3 110.7C186.3 115.7 182.2 119.8 177.2 119.8C172.2 119.8 168.1 115.7 168.1 110.7C168.2 105.7 172.2 101.6 177.2 101.6Z" fill="#051C2C"></path><path d="M52.4 145.8C54.6644 145.8 56.5 143.964 56.5 141.7C56.5 139.436 54.6644 137.6 52.4 137.6C50.1356 137.6 48.3 139.436 48.3 141.7C48.3 143.964 50.1356 145.8 52.4 145.8Z" fill="white" stroke="white" stroke-miterlimit="10"></path><path d="M52.4 129.3C48.7 129.3 45.3 130.9 42.9 133.7C42.2 134.6 42.3 135.9 43.2 136.6C43.6 136.9 44.1 137.1 44.5 137.1C45.1 137.1 45.7 136.8 46.1 136.4C47.7 134.5 50 133.4 52.4 133.4C54.8 133.4 57.1 134.5 58.7 136.4C59.1 136.9 59.7 137.1 60.3 137.1C60.8 137.1 61.2 136.9 61.6 136.6C62.5 135.9 62.6 134.6 61.9 133.7C59.5 131 56.1 129.3 52.4 129.3Z" fill="white" stroke="white" stroke-miterlimit="10"></path><path d="M52.4 121.1C46.3 121.1 40.5 123.8 36.6 128.5C35.9 129.4 36 130.7 36.9 131.4C37.3 131.7 37.8 131.9 38.2 131.9C38.8 131.9 39.4 131.6 39.8 131.2C43 127.4 47.6 125.3 52.4 125.3C57.3 125.3 61.9 127.5 65 131.2C65.4 131.7 66 131.9 66.6 131.9C67.1 131.9 67.5 131.7 67.9 131.4C68.8 130.7 68.9 129.4 68.2 128.5C64.3 123.8 58.5 121.1 52.4 121.1Z" fill="white" stroke="white" stroke-miterlimit="10"></path><path d="M74.5 123.2C69 116.6 60.9 112.9 52.4 112.9C43.9 112.9 35.8 116.7 30.3 123.2C29.6 124.1 29.7 125.4 30.6 126.1C31 126.4 31.5 126.6 31.9 126.6C32.5 126.6 33.1 126.3 33.5 125.9C38.2 120.3 45.2 117 52.5 117C59.8 117 66.7 120.2 71.5 125.9C71.9 126.4 72.5 126.6 73.1 126.6C73.6 126.6 74 126.4 74.4 126.1C75.1 125.3 75.3 124 74.5 123.2Z" fill="white" stroke="white" stroke-miterlimit="10"></path><path d="M276.1 216.6C278.8 216.6 281.3 215.3 282.8 213.1L291.1 215.4C291.2 220.7 295.6 224.9 300.9 224.8C306.2 224.7 310.4 220.3 310.3 215C310.2 209.8 305.9 205.6 300.7 205.6H300.4L297.4 196.7C301.2 193.6 301.8 188 298.7 184.2C295.6 180.4 290 179.8 286.2 182.9C282.6 185.9 281.9 191.2 284.6 195L279.3 200.8C275.1 199 270.3 200.9 268.5 205C266.7 209.1 268.6 214 272.7 215.8C273.8 216.3 274.9 216.6 276.1 216.6ZM304.8 215.2C304.8 217.5 303 219.3 300.7 219.3C298.4 219.3 296.6 217.5 296.6 215.2C296.6 212.9 298.4 211.1 300.7 211.1C303 211.1 304.8 212.9 304.8 215.2ZM295.2 207.4C294.2 208.1 293.3 209.1 292.6 210.1L284.3 207.8C284.2 206.7 283.9 205.6 283.4 204.5L289.1 198.3C290 198.6 290.9 198.7 291.8 198.7C292 198.7 292.1 198.7 292.3 198.7L295.2 207.4ZM291.8 186.5C293.7 186.5 295.2 188 295.2 189.9C295.2 191.8 293.7 193.3 291.8 193.3C289.9 193.3 288.4 191.8 288.4 189.9C288.4 188 289.9 186.5 291.8 186.5ZM276.1 205.6C277.6 205.6 278.8 206.8 278.8 208.3C278.8 209.8 277.6 211 276.1 211C274.6 211 273.4 209.8 273.4 208.3C273.3 206.8 274.6 205.6 276.1 205.6Z" fill="white"></path><path d="M80.8 210.4C79.6 210.4 78.5 211.4 78.5 212.6C78.5 213.2 78.8 213.9 79.3 214.3V217.1H82.3V214.3C83.2 213.5 83.3 212 82.5 211.1C82 210.7 81.4 210.4 80.8 210.4Z" fill="white"></path><path d="M80.8 202.9C79.6 202.9 78.5 203.9 78.5 205.2V207.5H83V205.2C83 203.9 82 202.9 80.8 202.9Z" fill="white"></path><path d="M61.2 192.3C62.6 192.3 63.8 191.4 64.1 190H68V200.8C66.8 201.3 65.6 201.6 64.4 201.9L64.3 202V204.1C64.3 215.2 70.8 225.3 80.9 229.9C91 225.3 97.5 215.2 97.5 204.1V202L97.4 201.9C96.7 201.7 96 201.5 95.3 201.3V196H96.9C97.3 197.6 99 198.6 100.6 198.2C102.2 197.8 103.2 196.1 102.8 194.5C102.4 192.9 100.7 191.9 99.1 192.3C98 192.6 97.2 193.4 96.9 194.5H94.5C94.1 194.5 93.7 194.8 93.7 195.3V200.9C92.9 200.6 92.2 200.3 91.4 199.9V191.5C93 191.1 94 189.4 93.6 187.8C93.2 186.2 91.5 185.2 89.9 185.6C88.3 186 87.3 187.7 87.7 189.3C88 190.4 88.8 191.2 89.9 191.5V199.2C86.2 197.2 83.1 194.4 80.9 190.9C79.3 193.4 77.3 195.6 74.9 197.3V193C76.5 192.6 77.5 190.9 77.1 189.3C76.7 187.7 75 186.7 73.4 187.1C71.8 187.5 70.8 189.2 71.2 190.8C71.5 191.9 72.3 192.7 73.4 193V198.3C72.2 199.1 70.9 199.7 69.6 200.3V189.3C69.6 188.9 69.3 188.5 68.8 188.5H64.2C63.8 186.9 62.1 185.9 60.5 186.3C58.9 186.7 57.9 188.4 58.3 190C58.6 191.4 59.8 192.3 61.2 192.3ZM74 207.4H75.5V205.1C75.5 202.2 77.9 199.8 80.8 199.8C83.7 199.8 86.1 202.2 86.1 205.1V207.4H87.6V220.2H74V207.4Z" fill="white"></path><path fill-rule="evenodd" clip-rule="evenodd" d="M306.1 147.2H308.8C309.2 147.2 309.5 146.9 309.5 146.5V135C309.5 134.6 309.2 134.3 308.8 134.3H308.7V130.4C309.7 130.3 310.7 130 311.7 129.6L314.6 131.9C314 132.8 314.3 133.9 315.2 134.5C316.1 135.1 317.2 134.8 317.8 133.9C318.1 133.5 318.2 132.9 318 132.4L322.8 128.3C323.7 128.8 324.8 128.5 325.3 127.7C325.5 127.4 325.6 127.1 325.6 126.8C325.6 126.6 325.6 126.4 325.5 126.2L330.7 122C331.6 122.5 332.7 122.2 333.2 121.3C333.7 120.4 333.4 119.3 332.5 118.8C331.6 118.3 330.5 118.6 330 119.5C329.7 119.9 329.7 120.5 329.9 121L324.7 125.2C323.8 124.7 322.7 125 322.2 125.9C322 126.3 321.9 126.8 322 127.3L317.2 131.4C316.8 131.1 316.3 131 315.8 131.2L313.1 129C317.8 126 319.1 119.7 316.1 115.1L316 115C315.7 116 315.3 117 314.7 117.9C316.2 121.8 314.3 126.2 310.4 127.7C306.5 129.2 302.1 127.3 300.6 123.4C299.9 121.6 299.9 119.7 300.6 118C300 117.1 299.5 116.2 299.3 115.1C296.2 119.7 297.5 126 302.1 129.1C303.4 130 304.9 130.5 306.5 130.7V134.6H306.4C306 134.6 305.7 134.9 305.7 135.3V146.5C305.4 146.9 305.7 147.2 306.1 147.2ZM298.4 111.6C298.8 111.6 299.1 111.9 299.1 112.3C299.1 112.7 298.8 113 298.4 113H297.4C297 113 296.7 112.7 296.7 112.3C296.7 111.9 297 111.6 297.4 111.6H298.4ZM304 120.9H310.9C311.1 120.9 311.2 121 311.2 121.2V123.4C311.2 123.6 311.1 123.7 310.9 123.7H304C303.8 123.7 303.7 123.6 303.7 123.4V121.2C303.7 121 303.9 120.9 304 120.9ZM310.4 119.3V119.5H308.2V114.6C309.5 114.2 310.2 112.9 309.9 111.6C309.5 110.3 308.2 109.6 306.9 109.9C305.6 110.2 304.9 111.6 305.2 112.9C305.4 113.7 306.1 114.3 306.9 114.6V119.5H304.7V119.3C301 117.7 299.3 113.4 300.9 109.7C302.5 106 306.8 104.3 310.5 105.9C314.2 107.5 315.9 111.8 314.3 115.5C313.4 117.2 312.1 118.6 310.4 119.3ZM316.7 112.9C316.3 112.9 316 112.6 316 112.2C316 111.8 316.3 111.5 316.7 111.5H317.7C318.1 111.5 318.4 111.8 318.4 112.2C318.4 112.6 318.1 112.9 317.7 112.9H316.7ZM309.4 125C308.6 126.1 307.2 126.3 306.1 125.6C305.9 125.4 305.7 125.2 305.5 125H309.4ZM301.6 105.4L300.9 104.7C300.6 104.4 300.2 104.4 299.9 104.7C299.6 105 299.6 105.4 299.9 105.7L300.6 106.4C300.9 106.7 301.3 106.7 301.6 106.4C301.9 106.1 301.9 105.7 301.6 105.4ZM314.3 106.4L315 105.7C315.3 105.4 315.2 105 315 104.7C314.7 104.5 314.3 104.5 314.1 104.7L313.4 105.4C313.1 105.7 313.1 106.1 313.4 106.4C313.6 106.7 314 106.7 314.3 106.4ZM308.2 103.3C308.2 103.7 307.9 104 307.5 104C307.1 104 306.8 103.7 306.8 103.3V102.3C306.8 101.9 307.1 101.6 307.5 101.6C307.9 101.6 308.2 101.9 308.2 102.3V103.3ZM311.7 147.9C311.3 147.9 311 147.6 311 147.2C311 146.8 311.3 146.5 311.7 146.5H313.9V138.3H318.8V146.5H321.6V132.4H326.5V146.5H329.3V126.9H334.2V146.5H337C337.4 146.5 337.7 146.8 337.7 147.2C337.7 147.6 337.4 147.8 337 147.9H311.7Z" fill="white"></path><path d="M314.8 43.9V70C314.8 70.2 314.7 70.3 314.5 70.3H307.7C307.5 70.3 307.4 70.2 307.4 70V43.9C307.4 43.7 307.5 43.6 307.7 43.6H314.5C314.6 43.6 314.8 43.7 314.8 43.9Z" fill="white"></path><path d="M306.5 50.8V70C306.5 70.2 306.4 70.3 306.2 70.3H299.4C299.2 70.3 299.1 70.2 299.1 70V50.8C299.1 50.6 299.2 50.5 299.4 50.5H306.2C306.3 50.5 306.5 50.6 306.5 50.8Z" fill="white"></path><path d="M298.2 57.7V70C298.2 70.2 298.1 70.3 297.9 70.3H291.1C290.9 70.3 290.8 70.2 290.8 70V57.7C290.8 57.5 290.9 57.4 291.1 57.4H297.9C298 57.4 298.2 57.5 298.2 57.7Z" fill="white"></path><path d="M289.9 50.8V70C289.9 70.2 289.8 70.3 289.6 70.3H282.8C282.6 70.3 282.5 70.2 282.5 70V50.8C282.5 50.6 282.6 50.5 282.8 50.5H289.6C289.8 50.5 289.9 50.6 289.9 50.8Z" fill="white"></path><path d="M281.6 57.7V70C281.6 70.2 281.5 70.3 281.3 70.3H274.5C274.3 70.3 274.2 70.2 274.2 70V57.7C274.2 57.5 274.3 57.4 274.5 57.4H281.3C281.5 57.4 281.6 57.5 281.6 57.7Z" fill="white"></path><path d="M294.8 49.4C294.7 49.5 294.7 49.5 294.6 49.5C294.5 49.5 294.4 49.5 294.4 49.4L286.9 41.9C286.5 41.4 285.7 41.4 285.3 41.9L278.1 49C278 49.1 278 49.1 277.9 49.1C277.8 49.1 277.7 49.1 277.7 49L277 48.3C276.9 48.2 276.9 48 277 47.8L285.9 38.9C286 38.8 286.2 38.8 286.4 38.9L293.9 46.4C294.1 46.6 294.4 46.7 294.7 46.7C295 46.7 295.3 46.6 295.5 46.4L308.2 33.6C308.7 33.2 308.7 32.4 308.2 32C308.1 31.9 308.1 31.8 308.1 31.7C308.1 31.6 308.2 31.5 308.3 31.5L312.2 30.5C312.4 30.5 312.6 30.6 312.6 30.8V30.9L311.5 34.8C311.5 34.9 311.4 35 311.3 35C311.2 35 311.1 35 311 34.9L310.9 34.8C310.5 34.3 309.7 34.3 309.3 34.8L294.8 49.4Z" fill="white"></path><path d="M78.9 27.4C90.2 27.4 99.4 36.6 99.4 47.9C99.4 59.2 90.2 68.4 78.9 68.4C67.6 68.4 58.4 59.2 58.4 47.9C58.3 36.6 67.5 27.4 78.9 27.4ZM96 37.6C96.6 38.7 97 39.8 97.4 40.9C98.7 45 98 52.9 98 51.1C97.9 51 97.7 50.7 97.7 50.2C97.7 48.6 98.3 48.4 97.1 47.6C96.7 47.3 96.4 46.7 96 46.3C95.8 46 95.8 45.9 95.7 45.6C95.7 45.4 95.4 43.5 95.3 43.5C95 42.5 94.9 42.3 94.8 41.2C94.7 39.8 94.4 39.7 94 38.5C93.9 38 93.8 38 93.5 37.6C93.2 37.2 92.8 36.6 92.4 36.3C92.1 36 92.1 36 92.1 35.6C92.1 35.1 92 35.2 91.6 34.8C91.1 34.4 91.1 34.2 90.4 34.1C89.7 33.9 89.6 33.7 89.2 33.2C89 33 88.9 32.9 88.7 32.7C88.6 32.5 88.5 32.3 88.3 32.1C88 31.7 87.2 31.2 86.7 30.9L84.6 29.7C84.6 29.5 84.5 29.5 84.2 29.3C83.9 29.2 83.4 29.1 83.1 29C82.5 29 82.2 29.3 82 29C82 29 81.9 28.8 81.7 28.7C81.4 28.6 80.8 28.6 80.5 28.5C79.8 28.5 79.2 28.5 78.5 28.5C78 28.5 76.9 28.5 76.4 28.5C75.8 28.6 73.8 29.2 73.2 29.4C72.9 29.5 72.4 29.7 72.3 29.9C72.3 30 72.5 30.1 72.5 30.2C72.6 30.3 72.7 30.5 72.9 30.6C73.1 30.7 73.5 30.7 73.8 30.8C74.1 30.9 74.1 30.9 74.3 30.7C74.4 30.6 75.4 29.8 75.5 30C76.1 29.8 76.3 29.7 76.8 29.9C77 30 77.3 30.2 77.6 30.1C77.9 29.9 78.1 29.5 78.6 29.4C78.7 29.4 79.9 29.4 79.8 29.4C80.4 29.3 80.7 29.1 81.5 29.2C82 29.3 83.1 29.6 83.5 30C83.6 30.1 83.7 30.2 83.7 30.3C83.8 30.4 83.7 30.4 83.9 30.4C84.1 30.4 84.3 30.4 84.5 30.6C84.9 31.1 84.6 31.8 85.1 32.9C85.2 33.1 85.3 33.4 85.1 33.5C84.9 33.6 84.4 33.5 84.1 33.4C83 33 81.8 31.8 80.9 31C80.6 30.7 80.5 30.7 80.2 30.7C79.8 30.7 79.6 30.7 79.3 30.5C79.4 31 80.7 31.5 81.2 32C81.5 32.3 81.6 32.7 81.6 33C81.6 33 81.6 33.2 81.6 33.3C81.6 33.3 81.3 33.8 81.4 33.8C81.6 33.9 81.9 33.6 82.3 33.8C82.7 34 83 34.5 83.5 34.8C83.6 34.8 84.2 35.2 84.2 35.2L84.6 35.6L85 35.9C85.5 36.1 85.8 36 85.8 36.7C85.8 37.2 85.7 37.6 85.1 37.7C84.6 37.8 84.1 37.6 83.9 37.1C83.8 36.8 83.9 36.6 83.5 36.7C82.7 37 83.6 37.2 83.8 37.6C83.9 37.8 83.8 38.1 83.8 38.4C83.8 38.7 83.7 38.9 83.5 39C83.2 39.1 82.7 38.4 82.3 38.8C82.2 38.9 82.1 39 82 39.2C81.7 39.7 81.6 39.7 81.3 40C80.8 40.6 81 41.2 80.7 41.7C80.4 42.1 79.8 42.3 79.7 42.4C79.5 42.7 79.8 44.2 79.5 44.4C79.3 44.6 79.1 44.4 79 44.2C78.7 43.8 78.7 43.4 78 43.4C77.5 43.3 76.9 43.5 76.4 43.5C76 43.5 75.1 43.3 74.7 43.6C74.5 43.7 74.4 44 74.4 44.3C74.3 44.9 74.2 45.3 74.4 45.9C74.5 46.3 74.7 46.5 75.2 46.5C75.6 46.5 76.1 46.4 76.3 46.1C76.5 45.9 76.5 45.6 76.9 45.5C77.2 45.4 77.5 45.5 77.5 45.9L77.4 46.6C77.3 47.1 77.3 47.3 77 47.6C77.2 47.7 78.1 47.6 78.4 47.7C78.8 47.8 78.5 48.1 78.5 48.5C78.5 48.8 78.5 49.2 78.6 49.5C78.7 49.8 79.5 49.8 79.7 49.9C79.9 49.9 80.6 50 80.7 49.9C80.9 49.8 81 49.2 81.8 49.1C81.9 49.1 83.3 49.2 83.3 49.2C83.6 49.3 84.1 49.4 84.4 49.3C84.9 49.2 85 49 85.7 49.3L85.9 49.5L86.6 50.1C87.1 50.6 87.1 50.6 87.8 50.6H88.3C88.5 50.6 88.6 50.6 88.8 50.8C89.1 51.2 89.2 51.8 89.9 52.1C90.2 52.2 90.6 52.3 90.9 52.4C91.1 52.5 91.1 52.6 91.2 52.7C91.3 52.7 91.6 52.8 91.8 52.8C92.1 52.9 92.4 53 92.7 53.2C93.1 53.4 93.3 53.5 93.4 54C93.5 54.7 93.2 55.3 92.8 55.8C92.5 56.3 92.3 56.7 92.1 57.3C91.8 58.4 92.1 58.8 90.8 59.5C89.7 60.1 89.2 60.1 88.5 61.2C88.1 61.9 88 62.8 87.1 63.1C86.6 63.3 86 63.2 85.7 63.4C85.6 63.5 85.5 64 85.3 64.1C85.2 64.2 84.6 64.3 84.4 64.4C83.9 64.5 84 64.5 83.8 64.8C83.8 64.9 83.5 65.1 83.5 65.1C82.8 65.6 82.8 65.8 82.4 66.5C82.2 66.9 82.1 67 82.7 67.2C83.3 67.4 83.8 67.2 84.4 67.1C84.6 67.1 85 66.9 85 67.1C85 67.3 84.4 67.4 84.2 67.5C83 67.9 82 68.2 80.9 68.3C85.4 67.9 89.8 66 93.2 62.5C99.6 55.4 100.6 45.3 96 37.6ZM74.2 67.3C73.8 67.1 74.5 67.1 74.6 67.2H75.3C76.5 67.2 77.4 67.3 78.7 67.3C79.4 67.3 80 67.2 80.6 67.1C80.6 67.1 80.1 65.1 80.3 64.6C80.5 64 80.8 63.4 81 62.8C81.3 62.2 81.7 61 81.9 60.3C82 59.9 82.4 58.7 81.9 58.4C81.6 58.2 81.1 57.9 80.8 57.6C80.5 57.3 80.4 57.2 80.3 56.9C80.2 56.6 79.8 55.8 79.7 55.5C79.5 55.2 79.1 54.9 78.9 54.7C78.8 54.6 78.9 54.2 78.9 54.2C79 53.7 79.1 52.8 79.4 52.4C79.4 52.3 80.2 51.8 80.2 51.8C80.2 51.8 80.2 51.8 80.2 51.7C80.2 51.6 80.1 50.4 80 50.5C80 50.4 79.9 50.3 79.9 50.2C79.9 50.1 79.5 50.2 79.5 50.2C79.2 50.2 79 50.3 78.7 50.2C78.4 50.1 78.1 49.9 77.8 49.7L77.3 49.4C77.2 49.3 77.2 49.3 77.1 49.2C77 48.9 77 48.7 76.7 48.6C76.4 48.5 76.1 48.4 75.8 48.3C75.3 48.2 75.3 48.1 75 47.7C74.7 47.3 74.2 47.7 73.6 47.4C73.4 47.3 73.3 47.2 73.1 47.2C72.7 47 72.4 46.8 72 46.5C71.4 46.1 71.3 45.9 71.1 45.2C71 44.6 70.8 44.4 70.6 43.8C70.4 43.4 70.4 43.4 70.2 43C70.4 43.5 70.5 43.8 70.6 44.3C70.6 44.7 70.6 44.7 70.3 44.5C69.7 44.1 69.7 43.8 69.4 43.2C69.1 42.6 69.2 42.7 69.2 42.1C69.1 41.5 69 41.3 68.8 40.8C68.6 40.1 68.3 38.9 68.6 38.2C68.8 37.5 69.5 36.7 69.7 35.9C69.8 35.5 70.1 33.9 70.2 33.5C70.2 33.1 70.2 32.7 69.6 32.8L69.1 32.9C68.8 33 67.9 33.2 67.6 32.9C67.3 32.7 67.5 32.3 67.5 32.3C67.7 32.1 68.2 32 68.5 31.7C68.8 31.5 69 31.2 69.3 30.9C69 31 68.6 31.3 68.4 31C67.2 31.8 66 32.7 65 33.7C57.2 41.5 57.2 54.1 65 61.9C67.4 64.7 70.7 66.5 74.2 67.3Z" fill="white"></path></g><defs><clipPath id="clip0_1_162"><rect width="365" height="250" fill="white" transform="translate(0.5 0.5)"></rect></clipPath></defs></svg> 