<?xml version="1.0" encoding="UTF-8"?> <svg xmlns="http://www.w3.org/2000/svg" xmlns:xlink="http://www.w3.org/1999/xlink" width="1038" height="639" viewBox="0 0 1038 639"><defs><clipPath id="clip-path"><rect id="Rectangle_7" data-name="Rectangle 7" width="1038" height="639" fill="#fff"></rect></clipPath></defs><g id="Mask_Group_1" data-name="Mask Group 1" clip-path="url(#clip-path)"><g id="Group_21" data-name="Group 21" transform="translate(0 -64.061)"><path id="Path_15" data-name="Path 15" d="M80.365,344h899" transform="translate(-11.365)" fill="none" stroke="#051b2c" stroke-width="2"></path><g id="Group_20" data-name="Group 20" transform="translate(-91.439 -33.5)"><g id="Ellipse_1" data-name="Ellipse 1" transform="translate(182.939 269)" fill="#fff" stroke="#051b2c" stroke-width="1"><circle cx="61.5" cy="61.5" r="61.5" stroke="none"></circle><circle cx="61.5" cy="61.5" r="61" fill="none"></circle></g><g id="Ellipse_2" data-name="Ellipse 2" transform="translate(390.939 269)" fill="#fff" stroke="#051b2c" stroke-width="1"><circle cx="61.5" cy="61.5" r="61.5" stroke="none"></circle><circle cx="61.5" cy="61.5" r="61" fill="none"></circle></g><g id="Ellipse_3" data-name="Ellipse 3" transform="translate(598.939 269)" fill="#fff" stroke="#051b2c" stroke-width="1"><circle cx="61.5" cy="61.5" r="61.5" stroke="none"></circle><circle cx="61.5" cy="61.5" r="61" fill="none"></circle></g><g id="Ellipse_4" data-name="Ellipse 4" transform="translate(806.939 269)" fill="#fff" stroke="#051b2c" stroke-width="1"><circle cx="61.5" cy="61.5" r="61.5" stroke="none"></circle><circle cx="61.5" cy="61.5" r="61" fill="none"></circle></g><g id="Ellipse_5" data-name="Ellipse 5" transform="translate(913.939 367)" fill="#fff" stroke="#051b2c" stroke-width="1"><circle cx="61.5" cy="61.5" r="61.5" stroke="none"></circle><circle cx="61.5" cy="61.5" r="61" fill="none"></circle></g><g id="Ellipse_6" data-name="Ellipse 6" transform="translate(705.939 367)" fill="#fff" stroke="#051b2c" stroke-width="1"><circle cx="61.5" cy="61.5" r="61.5" stroke="none"></circle><circle cx="61.5" cy="61.5" r="61" fill="none"></circle></g><g id="Ellipse_7" data-name="Ellipse 7" transform="translate(497.939 367)" fill="#fff" stroke="#051b2c" stroke-width="1"><circle cx="61.5" cy="61.5" r="61.5" stroke="none"></circle><circle cx="61.5" cy="61.5" r="61" fill="none"></circle></g><g id="Ellipse_8" data-name="Ellipse 8" transform="translate(289.939 367)" fill="#fff" stroke="#051b2c" stroke-width="1"><circle cx="61.5" cy="61.5" r="61.5" stroke="none"></circle><circle cx="61.5" cy="61.5" r="61" fill="none"></circle></g><path id="Path_1" data-name="Path 1" d="M106,0a84.061,84.061,0,0,1,0,168.122" transform="translate(160.439 436.5) rotate(-90)" fill="none" stroke="#e6f0ff" stroke-width="46"></path><path id="Path_2" data-name="Path 2" d="M106,0a84.061,84.061,0,0,1,0,168.122" transform="translate(368.439 436.5) rotate(-90)" fill="none" stroke="#e6f0ff" stroke-width="46"></path><path id="Path_3" data-name="Path 3" d="M106,0a84.061,84.061,0,0,1,0,168.122" transform="translate(576.439 436.5) rotate(-90)" fill="none" stroke="#e6f0ff" stroke-width="46"></path><path id="Path_4" data-name="Path 4" d="M106,0a84.061,84.061,0,0,1,0,168.122" transform="translate(784.439 436.5) rotate(-90)" fill="none" stroke="#e6f0ff" stroke-width="46"></path><path id="Path_5" data-name="Path 5" d="M0,168.122A84.061,84.061,0,0,0,84.061,84.061,84.061,84.061,0,0,0,0,0" transform="translate(1059.561 428.5) rotate(90)" fill="none" stroke="#e6f0ff" stroke-width="46"></path><path id="Path_6" data-name="Path 6" d="M0,168.122A84.061,84.061,0,0,0,84.061,84.061,84.061,84.061,0,0,0,0,0" transform="translate(851.561 428.5) rotate(90)" fill="none" stroke="#e6f0ff" stroke-width="46"></path><path id="Path_7" data-name="Path 7" d="M0,168.122A84.061,84.061,0,0,0,84.061,84.061,84.061,84.061,0,0,0,0,0" transform="translate(643.561 428.5) rotate(90)" fill="none" stroke="#e6f0ff" stroke-width="46"></path><path id="Path_8" data-name="Path 8" d="M0,168.122A84.061,84.061,0,0,0,84.061,84.061,84.061,84.061,0,0,0,0,0" transform="translate(435.561 428.5) rotate(90)" fill="none" stroke="#e6f0ff" stroke-width="46"></path><text id="Understanding_Client_Needs" data-name="Understanding Client Needs" transform="translate(244.939 163)" fill="#051b2c" font-size="18" font-family="OpenSans-Semibold, Open Sans" font-weight="600"><tspan x="-64" y="0">Understanding</tspan><tspan x="-54" y="24">Client Needs</tspan></text><g id="Group_11" data-name="Group 11" transform="translate(10.939 -17)"><g id="Ellipse_9" data-name="Ellipse 9" transform="translate(215 217)" fill="#fff" stroke="#1c54f8" stroke-width="1"><circle cx="19" cy="19" r="19" stroke="none"></circle><circle cx="19" cy="19" r="18.5" fill="none"></circle></g><text id="_1" data-name="1" transform="translate(234 244)" fill="#051b2c" font-size="20" font-family="OpenSans-Semibold, Open Sans" font-weight="600"><tspan x="-5" y="0">1</tspan></text></g><g id="Group_15" data-name="Group 15" transform="translate(113.939 304)"><g id="Ellipse_9-2" data-name="Ellipse 9" transform="translate(215 217)" fill="#fff" stroke="#1c54f8" stroke-width="1"><circle cx="19" cy="19" r="19" stroke="none"></circle><circle cx="19" cy="19" r="18.5" fill="none"></circle></g><text id="_2" data-name="2" transform="translate(234 244)" fill="#051b2c" font-size="20" font-family="OpenSans-Semibold, Open Sans" font-weight="600"><tspan x="-5" y="0">2</tspan></text></g><g id="Group_16" data-name="Group 16" transform="translate(325.939 304)"><g id="Ellipse_9-3" data-name="Ellipse 9" transform="translate(215 217)" fill="#fff" stroke="#1c54f8" stroke-width="1"><circle cx="19" cy="19" r="19" stroke="none"></circle><circle cx="19" cy="19" r="18.5" fill="none"></circle></g><text id="_4" data-name="4" transform="translate(234 244)" fill="#051b2c" font-size="20" font-family="OpenSans-Semibold, Open Sans" font-weight="600"><tspan x="-5" y="0">4</tspan></text></g><g id="Group_17" data-name="Group 17" transform="translate(533.939 304)"><g id="Ellipse_9-4" data-name="Ellipse 9" transform="translate(215 217)" fill="#fff" stroke="#1c54f8" stroke-width="1"><circle cx="19" cy="19" r="19" stroke="none"></circle><circle cx="19" cy="19" r="18.5" fill="none"></circle></g><text id="_6" data-name="6" transform="translate(234 244)" fill="#051b2c" font-size="20" font-family="OpenSans-Semibold, Open Sans" font-weight="600"><tspan x="-5" y="0">6</tspan></text></g><g id="Group_18" data-name="Group 18" transform="translate(741.939 304)"><g id="Ellipse_9-5" data-name="Ellipse 9" transform="translate(215 217)" fill="#fff" stroke="#1c54f8" stroke-width="1"><circle cx="19" cy="19" r="19" stroke="none"></circle><circle cx="19" cy="19" r="18.5" fill="none"></circle></g><text id="_8" data-name="8" transform="translate(234 244)" fill="#051b2c" font-size="20" font-family="OpenSans-Semibold, Open Sans" font-weight="600"><tspan x="-5" y="0">8</tspan></text></g><g id="Group_12" data-name="Group 12" transform="translate(218.939 -17)"><g id="Ellipse_9-6" data-name="Ellipse 9" transform="translate(215 217)" fill="#fff" stroke="#1c54f8" stroke-width="1"><circle cx="19" cy="19" r="19" stroke="none"></circle><circle cx="19" cy="19" r="18.5" fill="none"></circle></g><text id="_3" data-name="3" transform="translate(234 244)" fill="#051b2c" font-size="20" font-family="OpenSans-Semibold, Open Sans" font-weight="600"><tspan x="-5" y="0">3</tspan></text></g><g id="Group_13" data-name="Group 13" transform="translate(426.939 -17)"><g id="Ellipse_9-7" data-name="Ellipse 9" transform="translate(215 217)" fill="#fff" stroke="#1c54f8" stroke-width="1"><circle cx="19" cy="19" r="19" stroke="none"></circle><circle cx="19" cy="19" r="18.5" fill="none"></circle></g><text id="_5" data-name="5" transform="translate(234 244)" fill="#051b2c" font-size="20" font-family="OpenSans-Semibold, Open Sans" font-weight="600"><tspan x="-5" y="0">5</tspan></text></g><g id="Group_14" data-name="Group 14" transform="translate(634.939 -17)"><g id="Ellipse_9-8" data-name="Ellipse 9" transform="translate(215 217)" fill="#fff" stroke="#1c54f8" stroke-width="1"><circle cx="19" cy="19" r="19" stroke="none"></circle><circle cx="19" cy="19" r="18.5" fill="none"></circle></g><text id="_7" data-name="7" transform="translate(234 244)" fill="#051b2c" font-size="20" font-family="OpenSans-Semibold, Open Sans" font-weight="600"><tspan x="-5" y="0">7</tspan></text></g><text id="Model_Selection" data-name="Model Selection" transform="translate(347.939 586.439)" fill="#051b2c" font-size="18" font-family="OpenSans-Semibold, Open Sans" font-weight="600"><tspan x="-27" y="0">Model</tspan><tspan x="-39" y="24">Selection</tspan></text><text id="Data_Integration" data-name="Data Integration" transform="translate(452.939 162.561)" fill="#051b2c" font-size="18" font-family="OpenSans-Semibold, Open Sans" font-weight="600"><tspan x="-20" y="0">Data</tspan><tspan x="-48" y="24">Integration</tspan></text><text id="Fine-tuning" transform="translate(559.439 586.439)" fill="#051b2c" font-size="18" font-family="OpenSans-Semibold, Open Sans" font-weight="600"><tspan x="-49" y="0">Fine-tuning</tspan></text><text id="Deployment_and_Monitoring" data-name="Deployment and Monitoring" transform="translate(876 162.561)" fill="#051b2c" font-size="18" font-family="OpenSans-Semibold, Open Sans" font-weight="600"><tspan x="-72" y="0">Deployment and</tspan><tspan x="-48" y="24">Monitoring</tspan></text><text id="Support_and_Maintenance" data-name="Support and Maintenance" transform="translate(976 586)" fill="#051b2c" font-size="18" font-family="OpenSans-Semibold, Open Sans" font-weight="600"><tspan x="-53" y="0">Support and</tspan><tspan x="-56" y="24">Maintenance</tspan></text><text id="Testing_and_Evaluation" data-name="Testing and Evaluation" transform="translate(660 163)" fill="#051b2c" font-size="18" font-family="OpenSans-Semibold, Open Sans" font-weight="600"><tspan x="-50" y="0">Testing and</tspan><tspan x="-45" y="24">Evaluation</tspan></text><text id="Workflow_Integration" data-name="Workflow Integration" transform="translate(770.939 586.439)" fill="#051b2c" font-size="18" font-family="OpenSans-Semibold, Open Sans" font-weight="600"><tspan x="-41" y="0">Workflow</tspan><tspan x="-48" y="24">Integration</tspan></text><g id="Group_2976" data-name="Group 2976" transform="translate(-690.37 -107)"><g id="Group_2975" data-name="Group 2975" transform="translate(904 406)"><rect id="Rectangle_900" data-name="Rectangle 900" width="22.603" height="1.443" transform="translate(22.219 10.195)" fill="#1c54f8" stroke="#1c54f7" stroke-width="1"></rect><rect id="Rectangle_901" data-name="Rectangle 901" width="19.237" height="1.443" transform="translate(22.219 14.812)" fill="#1c54f8" stroke="#1c54f7" stroke-width="1"></rect><path id="Path_3159" data-name="Path 3159" d="M6.5,19.324H18.62V7.3H6.5ZM7.943,8.743h9.234v9.234H7.943Z" transform="translate(-0.151 -0.086)" fill="#1c54f8" stroke="#1c54f7" stroke-width="1"></path><rect id="Rectangle_902" data-name="Rectangle 902" width="22.603" height="1.443" transform="translate(22.219 28.087)" fill="#1c54f8" stroke="#1c54f7" stroke-width="1"></rect><rect id="Rectangle_903" data-name="Rectangle 903" width="19.237" height="1.443" transform="translate(22.219 32.607)" fill="#1c54f8" stroke="#1c54f7" stroke-width="1"></rect><path id="Path_3160" data-name="Path 3160" d="M6.5,37.92H18.62V25.8H6.5ZM7.943,27.243h9.234v9.234H7.943Z" transform="translate(-0.151 -0.792)" fill="#1c54f8" stroke="#1c54f7" stroke-width="1"></path><rect id="Rectangle_904" data-name="Rectangle 904" width="11.831" height="1.443" transform="translate(22.219 45.88)" fill="#1c54f8" stroke="#1c54f7" stroke-width="1"></rect><rect id="Rectangle_905" data-name="Rectangle 905" width="9.619" height="1.443" transform="translate(22.219 50.401)" fill="#1c54f8" stroke="#1c54f7" stroke-width="1"></rect><path id="Path_3161" data-name="Path 3161" d="M6.5,56.42H18.62V44.3H6.5ZM7.943,45.743h9.234v9.234H7.943Z" transform="translate(-0.151 -1.497)" fill="#1c54f8" stroke="#1c54f7" stroke-width="1"></path><path id="Path_3162" data-name="Path 3162" d="M54.722,41.063V37.986H51.744V-.2H-.1v63H51.648V57.7H62.517V41.063Zm-1.443,0h-7.31V39.427h7.31ZM50.3,61.359H1.343V1.243H50.205V37.986H44.53v3.077H36.643V57.608H50.205v3.751ZM61.17,56.164H38.182V49.432C40.3,51.548,44.626,52.9,49.724,52.9s9.329-1.443,11.542-3.463v6.733ZM49.628,51.547c-6.829,0-11.542-2.6-11.542-5.1V42.506H61.17v3.944c0,2.5-4.617,5.1-11.542,5.1Z" transform="translate(0.1 0.2)" fill="#1c54f8" stroke="#1c54f7" stroke-width="1"></path><rect id="Rectangle_906" data-name="Rectangle 906" width="4.424" height="1.443" transform="translate(47.516 48.477)" fill="#1c54f8" stroke="#1c54f7" stroke-width="1"></rect></g></g><g id="Group_183" data-name="Group 183" transform="translate(307.939 407.844)"><path id="Path_250" data-name="Path 250" d="M283.057,130.127a3.511,3.511,0,0,0-2.543-1.078h0a3.509,3.509,0,0,0-2.545,1.082,3.553,3.553,0,0,0-.375,4.451l10.161,14.9a6.388,6.388,0,0,0,5.28,2.79h12.175a5.45,5.45,0,0,0,5.142-3.653,51.534,51.534,0,0,0,2.874-16.991v-3.98a4.009,4.009,0,0,0-4-4,3.966,3.966,0,0,0-2.575.964,3.852,3.852,0,0,0-6.158-1.412,3.887,3.887,0,0,0-5.686-1.518v-4.088h3.579a.862.862,0,0,0,.862-.862V96.392a.862.862,0,0,0-.862-.862H278.041a.862.862,0,0,0-.862.862v20.334a.862.862,0,0,0,.862.862h8.506V133.73Zm11.747-5.217a2.188,2.188,0,1,1,4.376,0v5.5a.862.862,0,1,0,1.723,0v-4.338a2.156,2.156,0,0,1,4.313,0v4.611a.862.862,0,1,0,1.723,0v-3.039a2.282,2.282,0,1,1,4.564,0v3.98a49.808,49.808,0,0,1-2.779,16.423,3.727,3.727,0,0,1-3.515,2.5H293.034a4.667,4.667,0,0,1-3.86-2.035l-10.16-14.9a1.823,1.823,0,0,1,.194-2.284,1.8,1.8,0,0,1,1.307-.555h0a1.8,1.8,0,0,1,1.306.554l4.964,5.133h0a.85.85,0,0,0,.515.241c.03,0,.058.018.088.018h.012a.843.843,0,0,0,.187-.037.866.866,0,0,0,.136-.027.856.856,0,0,0,.235-.151c.014-.012.032-.016.045-.029h0a.849.849,0,0,0,.209-.36.871.871,0,0,0,.051-.249.039.039,0,0,1,0-.006V115.009a2.406,2.406,0,1,1,4.812,0v1.717c0,.006,0,.011,0,.017V124.5a.864.864,0,0,0,.029.147c-.006.089-.027.173-.027.264v5.5a.862.862,0,0,0,1.723,0Zm-15.9-9.046V97.252h18.62v18.612H294.8v-.855a4.129,4.129,0,1,0-8.258,0v.855Z" transform="translate(-250.007 -95.53)" fill="#1b54f8" stroke="#1b54f8" stroke-width="0.6"></path><path id="Path_251" data-name="Path 251" d="M122.806,95.535H102.47a.862.862,0,0,0-.862.862v20.336a.862.862,0,0,0,.862.862h20.336a.862.862,0,0,0,.862-.862V96.4a.862.862,0,0,0-.862-.862Zm-.861,20.336H103.331V97.257h18.614Z" transform="translate(-101.608 -95.534)" fill="#1b54f8" stroke="#1b54f8" stroke-width="0.6"></path><path id="Path_252" data-name="Path 252" d="M476.156,117.6a.862.862,0,0,0,.862-.862V96.4a.862.862,0,0,0-.862-.862H455.82a.862.862,0,0,0-.862.862v20.336a.862.862,0,0,0,.862.862ZM456.683,97.26H475.3v18.615H456.683Z" transform="translate(-400.615 -95.536)" fill="#1b54f8" stroke="#1b54f8" stroke-width="0.6"></path><path id="Path_253" data-name="Path 253" d="M319.507,133.372a.861.861,0,0,0-1.217,0l-8.17,8.169-2.326-2.325a.861.861,0,0,0-1.217,1.218l2.935,2.934a.862.862,0,0,0,1.218,0l8.777-8.777a.862.862,0,0,0,0-1.218Z" transform="translate(-274.838 -127.339)" fill="#1b54f8" stroke="#1b54f8" stroke-width="0.6"></path></g><g id="Group_2977" data-name="Group 2977" transform="translate(-697.125 -96.575)"><path id="Path_3163" data-name="Path 3163" d="M71.109,99.115H66.877l-.9-4.922a1.745,1.745,0,0,0-1.229-1.364,22.505,22.505,0,0,1-4.5-1.866,1.748,1.748,0,0,0-1.834.094L54.3,93.9l-5.985-5.985L51.158,83.8a1.744,1.744,0,0,0,.094-1.834,22.505,22.505,0,0,1-1.856-4.5,1.745,1.745,0,0,0-1.364-1.229l-4.921-.9V66.877l4.921-.9A1.745,1.745,0,0,0,49.4,64.753a22.506,22.506,0,0,1,1.866-4.5,1.748,1.748,0,0,0-.094-1.834L48.315,54.3,54.3,48.315l4.12,2.842a1.744,1.744,0,0,0,1.834.094,22.506,22.506,0,0,1,4.5-1.866,1.745,1.745,0,0,0,1.229-1.364l.9-4.921H71.11a1.747,1.747,0,1,0,0-3.494H65.419A1.748,1.748,0,0,0,63.7,41.039l-.969,5.321a25.932,25.932,0,0,0-3.2,1.324l-4.447-3.077a1.746,1.746,0,0,0-2.229.2l-8.047,8.047a1.746,1.746,0,0,0-.2,2.229l3.077,4.447a26.066,26.066,0,0,0-1.324,3.2l-5.321.969a1.748,1.748,0,0,0-1.433,1.719V76.8a1.748,1.748,0,0,0,1.433,1.719l5.321.967a25.931,25.931,0,0,0,1.324,3.2l-3.077,4.447a1.746,1.746,0,0,0,.2,2.229L52.859,97.4a1.746,1.746,0,0,0,2.229.2l4.447-3.077a26.063,26.063,0,0,0,3.2,1.324l.969,5.321a1.748,1.748,0,0,0,1.719,1.433h5.69a1.747,1.747,0,0,0,0-3.494Z" transform="translate(1078.454 355.969)" fill="#1c54f8" stroke="#fff" stroke-width="1"></path><path id="Path_3164" data-name="Path 3164" d="M269.548,202.79a7.713,7.713,0,0,0-7.5,5.952h-16.3a1.747,1.747,0,0,0,0,3.494h16.3a7.7,7.7,0,1,0,7.5-9.446Zm0,11.9a4.2,4.2,0,1,1,4.2-4.2,4.2,4.2,0,0,1-4.2,4.2Z" transform="translate(903.816 216.543)" fill="#1c54f8" stroke="#fff" stroke-width="1"></path><path id="Path_3165" data-name="Path 3165" d="M201.473,89.613a7.653,7.653,0,0,0-4.347,1.349l-7.974-7.273a1.759,1.759,0,0,0-1.2-.456l-6.533.093a9.207,9.207,0,1,1-.19-18.414,1.787,1.787,0,0,0,.2.012,9.233,9.233,0,0,1,7.5,3.875,1.747,1.747,0,0,0,2.844-2.028,12.64,12.64,0,0,0-2.387-2.529l7.743-7.062a7.7,7.7,0,1,0-2.361-2.577l-7.468,6.811h-5.872a12.7,12.7,0,1,0,0,25.4h.025l5.86-.083,7.458,6.8a7.7,7.7,0,1,0,6.708-3.926Zm0-42.985a4.2,4.2,0,1,1-4.2,4.2A4.2,4.2,0,0,1,201.473,46.627Zm0,54.889a4.2,4.2,0,1,1,4.2-4.2,4.2,4.2,0,0,1-4.2,4.2Z" transform="translate(968.137 352.96)" fill="#1c54f8" stroke="#fff" stroke-width="1"></path></g><g id="Group_19" data-name="Group 19" transform="translate(463.121)"><path id="Path_10" data-name="Path 10" d="M41.406,70.338a.8.8,0,0,1-.8-.649l-1-5.457a26.9,26.9,0,0,1-5.473-2.244L29.61,65.194a.8.8,0,0,1-1.026-.08L20.3,56.956a.8.8,0,0,1-.1-1.026l3.149-4.584a29.433,29.433,0,0,1-1.531-3.205c-.3-.8-.569-1.531-.8-2.244l-5.473-.938a.8.8,0,0,1-.665-.8L14.81,32.54a.8.8,0,0,1,.657-.8l5.457-1A26.732,26.732,0,0,1,23.16,25.28l-3.205-4.544a.8.8,0,0,1,.088-1.026l8.2-8.262a.8.8,0,0,1,1.026-.1l4.568,3.157a26.444,26.444,0,0,1,5.441-2.292L40.2,6.737a.8.8,0,0,1,.8-.673L52.625,6h0a.8.8,0,0,1,.8.657l.986,5.449A26.572,26.572,0,0,1,59.9,14.334l4.535-3.205a.8.8,0,0,1,1.026.08l8.286,8.2a.8.8,0,0,1,.1,1.018L70.638,25a26,26,0,0,1,2.292,5.425l5.481.938a.8.8,0,0,1,.665.8l.072,11.619a.8.8,0,0,1-.649.8l-.905.184-4.56.8A26.829,26.829,0,0,1,70.8,51.034L74,55.578a.8.8,0,0,1-.088,1.026L65.79,64.9a.8.8,0,0,1-1.026.1L60.2,61.788a26.443,26.443,0,0,1-5.449,2.292l-.93,5.481a.8.8,0,0,1-.8.673h-2A.713.713,0,0,1,50.453,70a.8.8,0,0,1-.24-.569v-9.68h-6.4v9.784a.8.8,0,0,1-.8.8Zm-7.332-10.1a.8.8,0,0,1,.4.112A25.426,25.426,0,0,0,40.5,62.822a.8.8,0,0,1,.577.625l.97,5.289h.16V58.952a.8.8,0,0,1,.8-.8h8.013a.8.8,0,0,1,.8.8V68.68h.529l.905-5.321a.8.8,0,0,1,.585-.641,24.537,24.537,0,0,0,5.994-2.532.8.8,0,0,1,.865,0l4.423,3.109,7.212-7.324L69.2,51.563a.8.8,0,0,1,0-.857,25.145,25.145,0,0,0,2.46-6.026.8.8,0,0,1,.633-.585l5.3-.978L77.53,32.836l-5.321-.914a.8.8,0,0,1-.633-.577,24.432,24.432,0,0,0-2.524-5.97.8.8,0,0,1,0-.857l3.069-4.439-7.332-7.212-4.391,3.1a.8.8,0,0,1-.857.048,25.178,25.178,0,0,0-6.05-2.452.8.8,0,0,1-.585-.633L51.975,7.6,41.67,7.667l-.9,5.313a.8.8,0,0,1-.577.641,25.546,25.546,0,0,0-6,2.524.8.8,0,0,1-.857,0l-4.431-3.093-7.212,7.332,3.117,4.4a.8.8,0,0,1,0,.881,2.877,2.877,0,0,0-.168.3,25.266,25.266,0,0,0-2.268,5.673.8.8,0,0,1-.633.585l-5.289,1.018.056,10.273,5.313.914a.8.8,0,0,1,.641.585,20.626,20.626,0,0,0,.849,2.548A26.741,26.741,0,0,0,24.987,51a.8.8,0,0,1,0,.857l-3.053,4.447,7.316,7.212,4.391-3.125A.8.8,0,0,1,34.074,60.234Z" transform="translate(49.839 386)" fill="#1c54f8" stroke="#1c54f7" stroke-width="0.5"></path><path id="Path_11" data-name="Path 11" d="M56.61,57.439a.745.745,0,0,1-.449-.136.8.8,0,0,1-.353-.665v-.729H46.033v.729a.8.8,0,0,1-1.09.753,16.451,16.451,0,1,1,11.956,0A.874.874,0,0,1,56.61,57.439ZM45.231,54.306H56.61a.8.8,0,0,1,.8.8v.313a14.849,14.849,0,1,0-12.981,0v-.313A.8.8,0,0,1,45.231,54.306Z" transform="translate(45.933 382.103)" fill="#1c54f8" stroke="#1c54f7" stroke-width="0.5"></path><path id="Path_12" data-name="Path 12" d="M47.711,70.771a.8.8,0,0,1-.8-.8V62.221a.8.8,0,0,1,.8-.8H59.082a.8.8,0,0,1,.8.8v7.741a.8.8,0,0,1-.8.8Zm.8-7.749v6.146h9.768V63.023Z" transform="translate(43.461 374.99)" fill="#1c54f8" stroke="#1c54f7" stroke-width="0.5"></path><path id="Path_13" data-name="Path 13" d="M57.294,97.46H50.33A1.29,1.29,0,0,1,49,96.2V71.881a.8.8,0,0,1,.8-.8h8.013a.8.8,0,0,1,.8.8V96.2h0a1.29,1.29,0,0,1-1.322,1.258Zm-6.691-1.6h6.411V72.683H50.6Z" transform="translate(43.046 373.07)" fill="#1c54f8" stroke="#1c54f7" stroke-width="0.5"></path><path id="Path_14" data-name="Path 14" d="M51.312,56.906a.8.8,0,0,1-.8-.8V38.932l-1.466-3.205a.8.8,0,0,1,0-.625l1.555-4a.8.8,0,0,1,.745-.513h4.808a.8.8,0,0,1,.745.5l1.547,3.943a.8.8,0,0,1,0,.625l-1.466,3.205V56.1a.807.807,0,0,1-.8.8ZM50.6,35.31,52,38.4a.8.8,0,0,1,.072.337V55.3h3.205V38.731a.8.8,0,0,1,.072-.329l1.394-3.093-1.218-3.117H51.841Z" transform="translate(43.05 381.115)" fill="#1c54f8" stroke="#1c54f7" stroke-width="0.5"></path></g><g id="Group_2980" data-name="Group 2980" transform="translate(686.857 -163.11)"><g id="Group_2979" data-name="Group 2979" transform="translate(150.454 459.61)"><path id="Path_3166" data-name="Path 3166" d="M27.023,62.186H22.641c-3.093,0-6.689-2.528-6.689-5.789V25.814H72.878V56.4c0,3.26-3.6,5.789-6.687,5.789H61.814v3.158H66.2c4.65,0,9.851-3.828,9.851-8.951V19.051c0-4.741-4.682-9.051-9.823-9.051H22.641c-4.65,0-9.851,3.871-9.851,9.051V56.4c0,5.123,5.2,8.951,9.851,8.951h4.38a1.582,1.582,0,0,0,0-3.164ZM15.954,19.051c0-2.972,3.314-5.889,6.689-5.889H66.224c3.424,0,6.661,2.862,6.661,5.889v3.6H15.954Z" transform="translate(-12.79 -10)" fill="#1c54f8" stroke="#fff" stroke-width="1"></path><path id="Path_3167" data-name="Path 3167" d="M56.89,17.442H55.3a1.581,1.581,0,1,0,0,3.162H56.89a1.581,1.581,0,1,0,0-3.162Z" transform="translate(-18.929 -11.116)" fill="#1c54f8" stroke="#fff" stroke-width="1"></path><path id="Path_3168" data-name="Path 3168" d="M66.189,17.442H64.605a1.581,1.581,0,1,0,0,3.162h1.584a1.581,1.581,0,0,0,0-3.162Z" transform="translate(-20.324 -11.116)" fill="#1c54f8" stroke="#fff" stroke-width="1"></path><path id="Path_3169" data-name="Path 3169" d="M75.488,17.442h-1.58a1.581,1.581,0,1,0,0,3.162h1.58a1.581,1.581,0,0,0,0-3.162Z" transform="translate(-21.721 -11.116)" fill="#1c54f8" stroke="#fff" stroke-width="1"></path><path id="Path_3170" data-name="Path 3170" d="M40.641,66.739,40.085,69.5a2.128,2.128,0,0,0,2.086,2.55H53.921a2.128,2.128,0,0,0,2.086-2.556l-.567-2.76,2.781,2.086a2.129,2.129,0,0,0,3.407-1.7V58.193a2.137,2.137,0,0,0-.851-1.7L57.5,54.035a1.965,1.965,0,0,0-.238-.131V47.263a13.517,13.517,0,0,0-2.454-7.787l-4.572-6.536a2.781,2.781,0,0,0-4.379,0l-4.571,6.536a13.51,13.51,0,0,0-2.454,7.787V53.91a2.147,2.147,0,0,0-.241.139L35.319,56.5a2.137,2.137,0,0,0-.848,1.7v8.918a2.126,2.126,0,0,0,3.4,1.7Zm2.792,2.146.464-2.29h8.274l.47,2.29ZM58.452,58.716v6.33l-1.2-.9v-6.33ZM48.036,35.333l2.282,3.253H45.767Zm-6.045,11.93a10.352,10.352,0,0,1,1.61-5.516s8.873-.021,8.9.029a10.332,10.332,0,0,1,1.588,5.487v16.17h-12.1ZM37.629,58.716l1.2-.9v6.33l-1.2.9Z" transform="translate(-16.04 -13.281)" fill="#1c54f8" stroke="#fff" stroke-width="1"></path><path id="Path_3171" data-name="Path 3171" d="M48.14,84.144V87.3a1.581,1.581,0,1,0,3.162,0V84.144a1.581,1.581,0,1,0-3.162,0Z" transform="translate(-18.092 -20.882)" fill="#1c54f8" stroke="#fff" stroke-width="1"></path><path id="Path_3172" data-name="Path 3172" d="M42.558,84.144v1.581a1.581,1.581,0,1,0,3.162,0V84.144a1.581,1.581,0,0,0-3.162,0Z" transform="translate(-17.255 -20.882)" fill="#1c54f8" stroke="#fff" stroke-width="1"></path><path id="Path_3173" data-name="Path 3173" d="M55.3,82.558a1.581,1.581,0,0,0-1.581,1.581V85.72a1.581,1.581,0,1,0,3.162,0V84.139A1.58,1.58,0,0,0,55.3,82.558Z" transform="translate(-18.93 -20.884)" fill="#1c54f8" stroke="#fff" stroke-width="1"></path><path id="Path_3174" data-name="Path 3174" d="M49.394,57.258a4.964,4.964,0,1,0-4.964-4.964,4.964,4.964,0,0,0,4.964,4.964Zm0-6.771a1.808,1.808,0,1,1-1.808,1.8A1.808,1.808,0,0,1,49.394,50.487Z" transform="translate(-17.537 -15.6)" fill="#1c54f8" stroke="#fff" stroke-width="1"></path></g></g><g id="Group_2974" data-name="Group 2974" transform="translate(346.264 -32.06)"><g id="Group_2973" data-name="Group 2973" transform="translate(382.69 431.631)"><g id="Group_2972" data-name="Group 2972" transform="translate(0 0)"><g id="Group_2965" data-name="Group 2965" transform="translate(22.594 13.065)"><path id="Path_3152" data-name="Path 3152" d="M2104.4,2121.72h-5.072a1.047,1.047,0,0,1-1.06-1.06l-.129-2.574a15.1,15.1,0,0,1-2.249-.929l-1.871,1.687a1.07,1.07,0,0,1-1.5-.065l-3.569-3.569a1.072,1.072,0,0,1-.065-1.5l1.688-1.871a20.781,20.781,0,0,1-.94-2.249l-2.563-.13a1.09,1.09,0,0,1-1.06-1.06v-5.072a1.048,1.048,0,0,1,1.06-1.06l2.563-.13a15.905,15.905,0,0,1,.94-2.249l-1.687-1.882a1.071,1.071,0,0,1,.065-1.5l3.569-3.569a1.081,1.081,0,0,1,1.5-.053l1.871,1.687a17.09,17.09,0,0,1,2.25-.94l.129-2.564a1.091,1.091,0,0,1,1.06-1.06h5.072a1.048,1.048,0,0,1,1.06,1.06l.13,2.564a13.646,13.646,0,0,1,2.249.94l1.882-1.687a1.081,1.081,0,0,1,1.5.053l3.557,3.569a1.072,1.072,0,0,1,.065,1.5l-1.687,1.882a16.477,16.477,0,0,1,.94,2.249l2.564.13a1.091,1.091,0,0,1,1.06,1.059v5.072a1.048,1.048,0,0,1-1.06,1.06l-2.564.13a14.034,14.034,0,0,1-.94,2.249l1.687,1.871a1.069,1.069,0,0,1-.065,1.5l-3.557,3.569a1.073,1.073,0,0,1-1.5.065l-1.882-1.687a18.1,18.1,0,0,1-2.249.929l-.13,2.574a1.011,1.011,0,0,1-1.06,1.06Zm-4-2.185h3l.13-2.324a1.055,1.055,0,0,1,.875-1,10.3,10.3,0,0,0,3.126-1.319,1.144,1.144,0,0,1,1.32.129l1.687,1.569,2.066-2.066-1.568-1.7a1.124,1.124,0,0,1-.12-1.308,10.4,10.4,0,0,0,1.309-3.126,1.125,1.125,0,0,1,1-.875l2.315-.13v-2.941l-2.315-.12a1.076,1.076,0,0,1-1-.876,10.327,10.327,0,0,0-1.309-3.136,1.125,1.125,0,0,1,.12-1.308l1.569-1.7-2.067-2.055-1.687,1.557a1.141,1.141,0,0,1-1.32.13,10.341,10.341,0,0,0-3.126-1.32,1.127,1.127,0,0,1-.876-1l-.13-2.444h-2.942l-.184,2.315a1.077,1.077,0,0,1-.877,1,10.3,10.3,0,0,0-3.125,1.31,1.14,1.14,0,0,1-1.32-.12l-1.687-1.567-2.066,2.066,1.569,1.687a1.124,1.124,0,0,1,.12,1.32,10.579,10.579,0,0,0-1.309,3.124,1.138,1.138,0,0,1-1.006.877l-2.314.129v2.932l2.314.13a1.067,1.067,0,0,1,1,.877,10.579,10.579,0,0,0,1.31,3.125,1.125,1.125,0,0,1-.12,1.32l-1.567,1.687,2.066,2.066,1.687-1.567a1.141,1.141,0,0,1,1.32-.12,10.306,10.306,0,0,0,3.125,1.31,1.151,1.151,0,0,1,.877,1ZM2099.2,2094.434Z" transform="translate(-2086.001 -2090.001)" fill="#1c54f8" fill-rule="evenodd"></path></g><g id="Group_2966" data-name="Group 2966" transform="translate(30.984 21.446)"><path id="Path_3153" data-name="Path 3153" d="M2868.513,2880.011a7.506,7.506,0,1,1,7.506-7.506,7.505,7.505,0,0,1-7.506,7.506Zm0-12.88a5.314,5.314,0,1,0,5.314,5.314,5.315,5.315,0,0,0-5.314-5.314Z" transform="translate(-2861.007 -2865)" fill="#1c54f8" fill-rule="evenodd"></path></g><g id="Group_2967" data-name="Group 2967" transform="translate(15.087 5.485)"><path id="Path_3154" data-name="Path 3154" d="M1415.4,1435.807a23.4,23.4,0,1,1,23.4-23.4,23.4,23.4,0,0,1-23.4,23.4Zm0-44.611a21.214,21.214,0,1,0,21.208,21.21,21.214,21.214,0,0,0-21.208-21.21Z" transform="translate(-1392 -1389.001)" fill="#1c54f8" fill-rule="evenodd"></path></g><g id="Group_2968" data-name="Group 2968" transform="translate(0 5.429)"><path id="Path_3155" data-name="Path 3155" d="M35.49,1386.25H-1.875a1.117,1.117,0,0,1-.8-.327,1.117,1.117,0,0,1-.327-.8,1.117,1.117,0,0,1,.327-.8,1.116,1.116,0,0,1,.8-.327H35.49a1.125,1.125,0,1,1,0,2.25Z" transform="translate(3 -1384)" fill="#1c54f8" fill-rule="evenodd"></path></g><g id="Group_2969" data-name="Group 2969" transform="translate(37.366 50.04)"><path id="Path_3156" data-name="Path 3156" d="M3489.486,5511.25h-37.354a1.125,1.125,0,0,1,0-2.25h37.354a1.125,1.125,0,0,1,0,2.25Z" transform="translate(-3451.007 -5509)" fill="#1c54f8" fill-rule="evenodd"></path></g><g id="Group_2970" data-name="Group 2970" transform="translate(0.065)"><path id="Path_3157" data-name="Path 3157" d="M9.629,892.274a1.159,1.159,0,0,1-.747-.314L3.313,886.39a1.105,1.105,0,0,1-.313-.75,1.017,1.017,0,0,1,.313-.757l5.569-5.569a1.106,1.106,0,0,1,1.557,1.568l-4.812,4.759,4.812,4.748a1.091,1.091,0,0,1,0,1.568,1.5,1.5,0,0,1-.81.317Z" transform="translate(-3 -879.022)" fill="#1c54f8" fill-rule="evenodd"></path></g><g id="Group_2971" data-name="Group 2971" transform="translate(69.193 44.601)"><path id="Path_3158" data-name="Path 3158" d="M6396.082,5017.522a1.035,1.035,0,0,1-.756-.315,1.1,1.1,0,0,1,0-1.558l4.827-4.758-4.826-4.76a1.106,1.106,0,0,1,1.57-1.558l5.569,5.569a1.047,1.047,0,0,1,0,1.492l-5.569,5.57A1.275,1.275,0,0,1,6396.082,5017.522Z" transform="translate(-6395 -5004.264)" fill="#1c54f8" fill-rule="evenodd"></path></g></g></g></g><g id="Group_139" data-name="Group 139" transform="translate(-494.684 -441.123)"><path id="Path_201" data-name="Path 201" d="M45.12,44.717l1.758,1.7A20.911,20.911,0,0,0,49,43.821l-1.99-1.4a19.3,19.3,0,0,1-1.873,2.3Z" transform="translate(1126.518 741.921)" fill="#1c54f8" stroke="#fff" stroke-width="0.4"></path><path id="Path_202" data-name="Path 202" d="M38.623,2A36.623,36.623,0,1,0,75.245,38.623,36.623,36.623,0,0,0,38.623,2Zm-.576,2.45,3.891,4.871-3.925,4.928A24.44,24.44,0,0,0,14.33,36.182l-4.248-3.394a1.229,1.229,0,0,0-1.526,0L4.551,36A34.219,34.219,0,0,1,38.049,4.45ZM4.45,39.2l4.871-3.891,4.928,3.927A24.44,24.44,0,0,0,36.182,62.916l-3.394,4.248a1.229,1.229,0,0,0,0,1.526l3.211,4A34.209,34.209,0,0,1,4.466,39.2ZM39.2,72.791l-3.891-4.871,3.931-4.907A24.051,24.051,0,0,0,53.605,57.9l-1.5-1.928A21.637,21.637,0,0,1,38.639,60.6,21.992,21.992,0,1,1,57.987,49.026l2.149,1.153a24.224,24.224,0,0,0,2.78-9.126l4.248,3.405a1.2,1.2,0,0,0,1.513,0l4-3.211a34.209,34.209,0,0,1-33.5,31.531ZM67.921,41.943,63,38.012A24.44,24.44,0,0,0,41.064,14.33l3.394-4.248a1.229,1.229,0,0,0,0-1.526l-3.211-4a34.209,34.209,0,0,1,31.531,33.5L67.908,41.94Z" transform="translate(1117 733)" fill="#1c54f8" stroke="#fff" stroke-width="0.4"></path><path id="Path_203" data-name="Path 203" d="M53.593,40a1.259,1.259,0,0,0-.171-1,1.192,1.192,0,0,0-.865-.525,3.186,3.186,0,0,1,0-6.323,1.221,1.221,0,0,0,1.038-1.526,19.418,19.418,0,0,0-2.051-4.931,1.2,1.2,0,0,0-.83-.576,1.219,1.219,0,0,0-.977.244,3.185,3.185,0,0,1-4.467-4.467,1.213,1.213,0,0,0-.342-1.807A19.418,19.418,0,0,0,40,17.036a1.259,1.259,0,0,0-1,.171,1.192,1.192,0,0,0-.525.865,3.186,3.186,0,0,1-6.323,0,1.215,1.215,0,0,0-.525-.865,1.251,1.251,0,0,0-1-.171,19.419,19.419,0,0,0-4.931,2.051,1.249,1.249,0,0,0-.587.83,1.219,1.219,0,0,0,.244.977,3.185,3.185,0,0,1-4.467,4.467,1.231,1.231,0,0,0-.986-.242,1.261,1.261,0,0,0-.83.576,19.871,19.871,0,0,0-2.051,4.931,1.259,1.259,0,0,0,.171,1,1.192,1.192,0,0,0,.865.525,3.186,3.186,0,0,1,0,6.323A1.221,1.221,0,0,0,17.013,40a19.42,19.42,0,0,0,2.051,4.931,1.2,1.2,0,0,0,.83.576,1.219,1.219,0,0,0,.977-.244,3.185,3.185,0,0,1,4.467,4.467,1.213,1.213,0,0,0,.342,1.807,19.418,19.418,0,0,0,4.931,2.051,1.259,1.259,0,0,0,1-.171,1.192,1.192,0,0,0,.525-.865,3.186,3.186,0,0,1,6.323,0,1.215,1.215,0,0,0,.525.865,1.249,1.249,0,0,0,.683.208,1.3,1.3,0,0,0,.306-.036A19.418,19.418,0,0,0,44.9,51.54a1.249,1.249,0,0,0,.586-.83,1.219,1.219,0,0,0-.244-.977,3.185,3.185,0,0,1,4.467-4.467,1.231,1.231,0,0,0,.977.244,1.261,1.261,0,0,0,.83-.576A19.869,19.869,0,0,0,53.572,40Zm-3.565,2.613a5.63,5.63,0,0,0-7.4,7.4,17.9,17.9,0,0,1-2.064.855,5.636,5.636,0,0,0-10.474,0,17.9,17.9,0,0,1-2.064-.855,5.63,5.63,0,0,0-7.4-7.4,15.965,15.965,0,0,1-.855-2.064,5.636,5.636,0,0,0,0-10.474,17.9,17.9,0,0,1,.855-2.064,5.63,5.63,0,0,0,7.4-7.4,17.9,17.9,0,0,1,2.064-.855,5.636,5.636,0,0,0,10.474,0,17.9,17.9,0,0,1,2.064.855,5.63,5.63,0,0,0,7.4,7.4,15.964,15.964,0,0,1,.855,2.064,5.636,5.636,0,0,0,0,10.474,17.9,17.9,0,0,1-.853,2.064Z" transform="translate(1120.303 736.31)" fill="#1c54f8" stroke="#fff" stroke-width="0.4"></path><path id="Path_204" data-name="Path 204" d="M33.545,25a8.545,8.545,0,1,0,8.545,8.545A8.545,8.545,0,0,0,33.545,25Zm0,14.65a6.1,6.1,0,1,1,6.1-6.1,6.1,6.1,0,0,1-6.1,6.1Z" transform="translate(1122.077 738.077)" fill="#1c54f8" stroke="#fff" stroke-width="0.4"></path></g><g id="Group_80" data-name="Group 80" transform="translate(98.066 248.184)"><path id="Path_206" data-name="Path 206" d="M80.61,26.2a2.793,2.793,0,0,0-.819-1.883,2.825,2.825,0,0,0-2.063-.819,4.985,4.985,0,0,0-4.8,5.123l.148,4.567-.767,3.121a3.607,3.607,0,0,0-2.582,1.057l-5.078,5.082-1.759.3a5.653,5.653,0,0,0-3.028,1.564l-3.5,3.5a5.6,5.6,0,0,0-1.65,3.852l-.128,5.8a4.142,4.142,0,0,0-2.84,3.88l-.082,7.592a4.146,4.146,0,0,0,4.09,4.181l12.595.135h.045a4.146,4.146,0,0,0,4.135-4.09l.082-7.591A4.139,4.139,0,0,0,69.9,57.654l.026-.176a6,6,0,0,1,1.7-3.378l5.9-5.911a9.342,9.342,0,0,0,2.684-5.614l.628-5.947a3.833,3.833,0,0,0,.072-.671V35.8Zm-10.1,35.348-.082,7.591a2.032,2.032,0,0,1-.617,1.439,2.083,2.083,0,0,1-1.452.588l-12.595-.134a2.057,2.057,0,0,1-2.026-2.069l.082-7.592a2.045,2.045,0,0,1,2.045-2.026h.022l12.595.135a2.057,2.057,0,0,1,2.026,2.069Zm5.536-14.84-5.909,5.909a8.074,8.074,0,0,0-2.29,4.551l-.031.216-11.15-.12.128-5.547a3.532,3.532,0,0,1,1.039-2.428l3.5-3.5a3.557,3.557,0,0,1,1.9-.983l2.087-.362a1.007,1.007,0,0,0,.211-.06l.013-.006a1.044,1.044,0,0,0,.331-.22h0l5.312-5.316a1.536,1.536,0,1,1,2.173,2.173l-6.1,6.1A1.044,1.044,0,1,0,68.739,48.6l6.106-6.1A3.606,3.606,0,0,0,74.3,36.93l.835-3.377v-.035a.924.924,0,0,0,.015-.107c0-.036.006-.072.006-.107V33.27l-.153-4.71a2.886,2.886,0,0,1,2.774-2.97.713.713,0,0,1,.737.684l.3,9.514-.07.67c0,.026-.006.05-.008.074l-.614,5.823a7.253,7.253,0,0,1-2.078,4.357Z" transform="translate(826.873 138.374)" fill="#1c54f8"></path><circle id="Ellipse_22" data-name="Ellipse 22" cx="1.787" cy="1.787" r="1.787" transform="translate(893.106 199.095)" fill="#1c54f8"></circle><path id="Path_207" data-name="Path 207" d="M32.631,57.47l-.128-5.8a5.607,5.607,0,0,0-1.65-3.852l-3.5-3.5a5.66,5.66,0,0,0-3.025-1.564l-1.761-.3L17.489,37.37a3.612,3.612,0,0,0-2.581-1.056l-.767-3.122.15-4.569A4.985,4.985,0,0,0,9.471,23.5a2.837,2.837,0,0,0-2.051.819A2.794,2.794,0,0,0,6.6,26.2l-.307,9.6v.139a3.755,3.755,0,0,0,.073.684l.628,5.945a9.342,9.342,0,0,0,2.684,5.615l5.909,5.909a6,6,0,0,1,1.7,3.376l.027.18a4.139,4.139,0,0,0-2.7,3.923l.082,7.591a4.146,4.146,0,0,0,4.135,4.09h.045l12.595-.134a4.146,4.146,0,0,0,4.09-4.181l-.082-7.592a4.146,4.146,0,0,0-2.843-3.877ZM17.069,52.62l-5.91-5.909a7.252,7.252,0,0,1-2.083-4.356l-.614-5.818a.24.24,0,0,0-.008-.074l-.07-.67.3-9.512a.713.713,0,0,1,.726-.688A2.887,2.887,0,0,1,12.2,28.562l-.153,4.712v.035a.606.606,0,0,0,.006.107.9.9,0,0,0,.015.107q0,.017,0,.035l.835,3.377a3.607,3.607,0,0,0-.542,5.562l6.1,6.1a1.044,1.044,0,0,0,1.478-1.476l-6.1-6.113a1.536,1.536,0,0,1,2.173-2.173l5.313,5.317h0a1.033,1.033,0,0,0,.331.22l.013.006a1.052,1.052,0,0,0,.211.06l2.091.362a3.549,3.549,0,0,1,1.9.983l3.5,3.5a3.526,3.526,0,0,1,1.039,2.428l.128,5.547-11.15.12-.032-.22a8.068,8.068,0,0,0-2.29-4.54Zm15.812,17.8a2.032,2.032,0,0,1-1.439.617l-12.595.135a2.059,2.059,0,0,1-1.452-.587,2.032,2.032,0,0,1-.617-1.439L16.7,61.552a2.057,2.057,0,0,1,2.026-2.071l12.595-.135h.022a2.045,2.045,0,0,1,2.045,2.026l.082,7.592a2.03,2.03,0,0,1-.584,1.453Z" transform="translate(840.667 138.373)" fill="#1c54f8"></path><circle id="Ellipse_23" data-name="Ellipse 23" cx="1.787" cy="1.787" r="1.787" transform="translate(858.073 199.095)" fill="#1c54f8"></circle><path id="Path_208" data-name="Path 208" d="M28.86,24.811h1.962A12.247,12.247,0,0,0,31.83,27.25l-1.388,1.4a2.2,2.2,0,0,0,0,3.108L32.391,33.7a2.2,2.2,0,0,0,3.108,0l1.389-1.389a12.289,12.289,0,0,0,2.439,1.008v1.962a2.2,2.2,0,0,0,2.2,2.2h2.749a2.2,2.2,0,0,0,2.2-2.2V33.321a12.306,12.306,0,0,0,2.439-1.008L50.307,33.7a2.2,2.2,0,0,0,3.108,0l1.949-1.949a2.2,2.2,0,0,0,0-3.108l-1.389-1.389a12.289,12.289,0,0,0,1.008-2.439h1.962a2.2,2.2,0,0,0,2.2-2.2V19.867a2.2,2.2,0,0,0-2.2-2.2H54.983a12.289,12.289,0,0,0-1.01-2.441l1.389-1.389a2.2,2.2,0,0,0,0-3.108L53.413,8.781a2.252,2.252,0,0,0-3.108,0L48.915,10.17a12.27,12.27,0,0,0-2.439-1.008V7.2a2.2,2.2,0,0,0-2.2-2.2H41.528a2.2,2.2,0,0,0-2.2,2.2V9.162a12.27,12.27,0,0,0-2.439,1.008L35.5,8.782a2.252,2.252,0,0,0-3.108,0l-1.949,1.949a2.2,2.2,0,0,0,0,3.108l1.383,1.386a12.29,12.29,0,0,0-1.008,2.439H28.86a2.2,2.2,0,0,0-2.2,2.2v2.749A2.2,2.2,0,0,0,28.86,24.811Zm-.112-4.949a.11.11,0,0,1,.112-.112h2.768a1.022,1.022,0,0,0,.308-.052.133.133,0,0,0,.051-.017,1.023,1.023,0,0,0,.262-.146l.042-.035a1.035,1.035,0,0,0,.206-.229c0-.009.01-.019.017-.029a1.039,1.039,0,0,0,.128-.3v-.01a10.216,10.216,0,0,1,1.373-3.317,1.045,1.045,0,0,0,.081-.157c0-.006.006-.013.01-.019a1.043,1.043,0,0,0,.073-.371v-.023a1.04,1.04,0,0,0-.072-.368.031.031,0,0,0-.008-.024,1.029,1.029,0,0,0-.221-.332h0l-.008-.008h0l-1.952-1.949a.114.114,0,0,1,0-.157l1.95-1.949a.128.128,0,0,1,.156,0l1.956,1.956a.015.015,0,0,1,.013.009,1.04,1.04,0,0,0,.3.2c.026.012.05.02.075.029a1.057,1.057,0,0,0,.346.068h0a1.034,1.034,0,0,0,.349-.068.85.85,0,0,0,.1-.043,1.107,1.107,0,0,0,.118-.052A10.2,10.2,0,0,1,40.6,10.982a.249.249,0,0,0,.072-.024.992.992,0,0,0,.119-.038.854.854,0,0,0,.256-.166.868.868,0,0,0,.073-.064c.022-.023.042-.051.064-.077a.99.99,0,0,0,.063-.081c.018-.027.031-.056.046-.084s.035-.06.049-.093a.949.949,0,0,0,.032-.1.793.793,0,0,0,.026-.091.994.994,0,0,0,.014-.137c0-.022,0-.042,0-.064V7.2a.107.107,0,0,1,.111-.112h2.749a.11.11,0,0,1,.112.112v2.826a1,1,0,0,0,.014.137.385.385,0,0,0,.026.091,1.023,1.023,0,0,0,.032.1.907.907,0,0,0,.049.093c.015.028.028.058.046.084a.991.991,0,0,0,.063.081c.02.026.041.052.064.077s.049.042.073.064a.933.933,0,0,0,.081.066c.028.019.06.035.089.051s.056.033.087.047a.991.991,0,0,0,.119.038c.024.006.046.018.072.024a10.2,10.2,0,0,1,3.317,1.373.982.982,0,0,0,.118.052c.033.015.063.032.1.043a1.034,1.034,0,0,0,.349.068h0a1.039,1.039,0,0,0,.346-.068c.026-.009.05-.018.075-.029a1.023,1.023,0,0,0,.3-.2.015.015,0,0,0,.013-.009l1.956-1.956a.128.128,0,0,1,.156,0l1.949,1.949a.114.114,0,0,1,0,.156l-1.927,1.945h0l-.008.008h0a1.033,1.033,0,0,0-.221.332.031.031,0,0,1-.008.024,1.043,1.043,0,0,0-.072.368v.023a1.043,1.043,0,0,0,.073.371c0,.006.006.013.01.019a1.013,1.013,0,0,0,.081.157,10.216,10.216,0,0,1,1.371,3.322s0,0,0,.01a1.035,1.035,0,0,0,.128.3l.017.029a1.044,1.044,0,0,0,.2.228c.014.012.028.024.043.036a1.043,1.043,0,0,0,.256.144l.051.017a1.022,1.022,0,0,0,.307.052h2.768a.11.11,0,0,1,.112.112v2.749a.11.11,0,0,1-.112.112H54.181a.244.244,0,0,0-.068.006,1.038,1.038,0,0,0-.128.013,1,1,0,0,0-.1.029c-.029.009-.061.017-.089.028a1.046,1.046,0,0,0-.111.058.646.646,0,0,0-.065.036,1.074,1.074,0,0,0-.1.078c-.019.017-.04.029-.058.047a1.033,1.033,0,0,0-.081.093c-.017.02-.035.038-.05.06a.92.92,0,0,0-.064.111c-.012.022-.026.043-.036.066a1.075,1.075,0,0,0-.046.141.212.212,0,0,1-.018.052,10.216,10.216,0,0,1-1.373,3.317,1.045,1.045,0,0,0-.081.157c0,.006-.006.013-.01.019a1.043,1.043,0,0,0-.073.371v.023a1.04,1.04,0,0,0,.072.368.031.031,0,0,0,.008.024,1.029,1.029,0,0,0,.221.332h0l.008.008h0l1.945,1.945a.112.112,0,0,1,0,.156l-1.949,1.961a.114.114,0,0,1-.156,0L49.835,30.28h0a1.046,1.046,0,0,0-.334-.221l-.04-.02a1.048,1.048,0,0,0-.367-.072h-.027a1.042,1.042,0,0,0-.367.072l-.022.012a1.023,1.023,0,0,0-.156.079A10.225,10.225,0,0,1,45.207,31.5a.2.2,0,0,0-.054.018,1.151,1.151,0,0,0-.138.045c-.027.012-.05.027-.075.041a1.024,1.024,0,0,0-.1.058c-.027.019-.05.041-.074.061s-.054.043-.079.068a.526.526,0,0,0-.06.074c-.019.026-.046.054-.065.083a.849.849,0,0,0-.043.081,1.056,1.056,0,0,0-.05.1.85.85,0,0,0-.029.1c-.009.032-.02.063-.028.1a.943.943,0,0,0-.013.128c0,.026-.008.049-.008.074v2.762a.11.11,0,0,1-.112.112H41.526a.11.11,0,0,1-.112-.112V32.522a.244.244,0,0,0-.008-.074,1.075,1.075,0,0,0-.013-.128.894.894,0,0,0-.028-.1c-.01-.033-.018-.066-.029-.1a.974.974,0,0,0-.05-.1c-.014-.027-.027-.055-.043-.081s-.043-.056-.065-.083-.038-.051-.06-.074a.845.845,0,0,0-.079-.068.894.894,0,0,0-.074-.061,1.112,1.112,0,0,0-.1-.058c-.026-.013-.049-.029-.075-.041a1.006,1.006,0,0,0-.138-.045c-.018,0-.035-.014-.054-.018a10.225,10.225,0,0,1-3.317-1.373,1.072,1.072,0,0,0-.16-.081L37.1,30.04a1.012,1.012,0,0,0-.377-.073h-.017a1.048,1.048,0,0,0-.374.073h-.018a1.032,1.032,0,0,0-.335.222h0l-.006.006-1.954,1.956a.112.112,0,0,1-.156,0l-1.949-1.949a.112.112,0,0,1,0-.156l1.945-1.945h0l.008-.008h0a1.033,1.033,0,0,0,.221-.332.031.031,0,0,1,.008-.024,1.043,1.043,0,0,0,.072-.368v-.023a1.043,1.043,0,0,0-.073-.371c0-.006-.006-.013-.01-.019a1.013,1.013,0,0,0-.081-.157,10.216,10.216,0,0,1-1.373-3.317.239.239,0,0,0-.018-.056,1.116,1.116,0,0,0-.045-.137c-.013-.028-.029-.054-.043-.082a.8.8,0,0,0-.054-.095,1.047,1.047,0,0,0-.068-.082.853.853,0,0,0-.061-.072.953.953,0,0,0-.082-.068.869.869,0,0,0-.075-.059c-.029-.019-.061-.035-.093-.051s-.055-.031-.084-.043a1.033,1.033,0,0,0-.114-.036c-.027-.008-.052-.018-.079-.023a1.046,1.046,0,0,0-.141-.014H28.859a.11.11,0,0,1-.112-.112V19.867Z" transform="translate(834.474 144)" fill="#1c54f8"></path><path id="Path_209" data-name="Path 209" d="M46.643,32.664a7.682,7.682,0,1,0-7.682-7.682A7.682,7.682,0,0,0,46.643,32.664Zm0-13.276a5.594,5.594,0,1,1-5.594,5.594,5.594,5.594,0,0,1,5.594-5.594Z" transform="translate(830.733 140.26)" fill="#1c54f8"></path></g></g><text id="LeewayHertz" transform="translate(852 653)" fill="#051c2c" font-size="20" font-family="Georgia"><tspan x="0" y="0">LeewayHertz</tspan></text><circle id="Ellipse_10" data-name="Ellipse 10" cx="7" cy="7" r="7" transform="translate(69 337)" fill="#051b2c"></circle><circle id="Ellipse_11" data-name="Ellipse 11" cx="7" cy="7" r="7" transform="translate(954 337)" fill="#051b2c"></circle></g></g></svg> 