<?xml version="1.0" encoding="UTF-8"?> <svg xmlns="http://www.w3.org/2000/svg" xmlns:xlink="http://www.w3.org/1999/xlink" width="270" height="135" viewBox="0 0 270 135"><defs><clipPath id="clip-path"><rect id="Rectangle_14" data-name="Rectangle 14" width="270" height="135" transform="translate(993 3936)" fill="#ebebeb"></rect></clipPath></defs><g id="Mask_Group_3" data-name="Mask Group 3" transform="translate(-993 -3936)" clip-path="url(#clip-path)"><g id="Google-Logo.wine" transform="translate(1021 3968)"><path id="Path_9" data-name="Path 9" d="M106.28,42.169a17.7,17.7,0,0,1-35.39,0,17.7,17.7,0,0,1,35.39,0Zm-7.746,0c0-6.346-4.6-10.689-9.949-10.689s-9.949,4.342-9.949,10.689c0,6.283,4.6,10.689,9.949,10.689S98.534,48.444,98.534,42.169Z" transform="translate(-14.512 -5.022)" fill="#ea4335"></path><path id="Path_10" data-name="Path 10" d="M154.28,42.169a17.7,17.7,0,0,1-35.39,0,17.7,17.7,0,0,1,35.39,0Zm-7.746,0c0-6.346-4.6-10.689-9.949-10.689s-9.949,4.342-9.949,10.689c0,6.283,4.6,10.689,9.949,10.689S146.534,48.444,146.534,42.169Z" transform="translate(-24.339 -5.022)" fill="#fbbc05"></path><path id="Path_11" data-name="Path 11" d="M200.685,25.6V57.264c0,13.027-7.682,18.347-16.765,18.347a16.8,16.8,0,0,1-15.635-10.394l6.744-2.807a9.744,9.744,0,0,0,8.883,6.259c5.814,0,9.416-3.587,9.416-10.339V55.793h-.27A12.01,12.01,0,0,1,183.77,59.8c-8.82,0-16.9-7.682-16.9-17.568,0-9.957,8.08-17.7,16.9-17.7a12.224,12.224,0,0,1,9.289,3.945h.27V25.6h7.356Zm-6.808,16.637c0-6.211-4.143-10.752-9.416-10.752-5.344,0-9.822,4.541-9.822,10.752,0,6.148,4.477,10.625,9.822,10.625C189.734,52.858,193.878,48.381,193.878,42.233Z" transform="translate(-34.161 -5.022)" fill="#4285f4"></path><path id="Path_12" data-name="Path 12" d="M222.7,2.53V54.223H215.14V2.53Z" transform="translate(-44.043 -0.518)" fill="#34a853"></path><path id="Path_13" data-name="Path 13" d="M254.919,47.973l6.012,4.008a17.558,17.558,0,0,1-14.7,7.818,17.259,17.259,0,0,1-17.5-17.639c0-10.49,7.547-17.639,16.637-17.639,9.154,0,13.631,7.285,15.094,11.221l.8,2-23.58,9.766a8.977,8.977,0,0,0,8.549,5.344A10.067,10.067,0,0,0,254.919,47.973Zm-18.506-6.346,15.763-6.545c-.867-2.2-3.475-3.738-6.545-3.738A9.676,9.676,0,0,0,236.412,41.627Z" transform="translate(-46.825 -5.02)" fill="#ea4335"></path><path id="Path_14" data-name="Path 14" d="M27.779,32.559V25.075H53a24.8,24.8,0,0,1,.374,4.517c0,5.615-1.535,12.558-6.482,17.5-4.811,5.01-10.959,7.682-19.1,7.682C12.693,54.779,0,42.484,0,27.39S12.693,0,27.787,0A26.1,26.1,0,0,1,46.556,7.547l-5.281,5.281a19.076,19.076,0,0,0-13.5-5.344A19.647,19.647,0,0,0,8.136,27.39,19.647,19.647,0,0,0,27.779,47.3c7.15,0,11.221-2.871,13.83-5.48,2.115-2.115,3.507-5.138,4.056-9.265Z" fill="#4285f4"></path></g></g></svg> 