<svg width="133" height="128" viewBox="0 0 133 128" fill="none" xmlns="http://www.w3.org/2000/svg">
<path d="M118.129 10.1362H94.7727C94.2585 8.10419 93.8423 6.12112 93.573 4.45631C93.4269 3.56057 93.0347 2.72306 92.4402 2.03729C91.8457 1.35151 91.0723 0.844464 90.2064 0.572742C89.3404 0.301021 88.416 0.275322 87.5363 0.498515C86.6566 0.721707 85.8562 1.18501 85.2245 1.83669C82.8213 4.35138 80.718 7.13654 78.957 10.1362H56.9229H56.5311L48.1337 1.78773C47.6789 1.33247 47.1389 0.97131 46.5445 0.724898C45.95 0.478486 45.3129 0.351654 44.6694 0.351654C44.0259 0.351654 43.3888 0.478486 42.7943 0.724898C42.1999 0.97131 41.6599 1.33247 41.2051 1.78773L32.8566 10.1362H15.3027C11.4068 10.1362 7.67053 11.6839 4.91572 14.4387C2.16092 17.1935 0.613281 20.9298 0.613281 24.8257V83.5835V93.3765C0.613281 97.2724 2.16092 101.009 4.91572 103.763C7.67053 106.518 11.4068 108.066 15.3027 108.066H48.5743C47.764 110.438 46.403 112.585 44.6029 114.33C42.8028 116.074 40.6148 117.368 38.2183 118.104C37.1089 118.468 36.1662 119.217 35.5605 120.216C34.9548 121.214 34.7258 122.396 34.9149 123.548C35.104 124.701 35.6987 125.748 36.5918 126.5C37.4848 127.253 38.6174 127.661 39.7852 127.652H93.6465C94.7496 127.651 95.82 127.277 96.6842 126.592C97.5485 125.906 98.1559 124.949 98.4081 123.875C98.6603 122.801 98.5424 121.673 98.0737 120.675C97.6049 119.676 96.8127 118.865 95.8254 118.373C91.1905 116.281 87.4322 112.635 85.2001 108.066H118.129C122.025 108.066 125.761 106.518 128.516 103.763C131.271 101.009 132.818 97.2724 132.818 93.3765V24.8257C132.818 20.9298 131.271 17.1935 128.516 14.4387C125.761 11.6839 122.025 10.1362 118.129 10.1362ZM118.129 19.9292C119.428 19.9292 120.673 20.4451 121.591 21.3633C122.51 22.2816 123.025 23.5271 123.025 24.8257V78.687H105.888C106.304 68.2061 104.811 57.7367 101.481 47.7902C104.258 43.8403 105.57 39.0451 105.19 34.2316C104.81 29.418 102.762 24.8879 99.3998 21.4226C98.9837 20.9686 98.6221 20.4674 98.3226 19.9292H118.129ZM81.4053 78.687C80.9552 68.941 82.3849 59.1994 85.6163 49.9936C86.5866 49.5054 87.6644 49.2696 88.75 49.3081C89.8154 49.2883 90.871 49.5145 91.8348 49.9691C95.0788 59.1811 96.5249 68.93 96.0947 78.687H81.4053ZM86.3018 16.5751C87.4222 20.8428 89.4516 24.8181 92.251 28.2287C93.772 29.8329 94.7837 31.8517 95.1584 34.0303C95.5331 36.209 95.2541 38.4498 94.3565 40.47C92.5555 39.8353 90.6595 39.5124 88.75 39.5151C87.2208 39.508 85.6975 39.7057 84.2208 40.1027C83.0038 36.2368 82.5612 32.1688 82.9183 28.1317C83.2753 24.0945 84.4251 20.1674 86.3018 16.5751ZM76.3129 47.0802C72.7838 57.2293 71.1893 67.9502 71.6123 78.687H61.8193V19.9292H74.6236C72.1296 28.9133 72.7245 38.4746 76.3129 47.0802ZM37.3369 34.6187H52.0264V78.687H37.3369V34.6187ZM44.6816 12.1438L52.0264 19.4885V24.8257H37.3369V19.513L38.3407 18.5092L44.6816 12.1438ZM15.3027 19.9292H27.5439V78.687H10.4062V24.8257C10.4062 23.5271 10.9221 22.2816 11.8404 21.3633C12.7587 20.4451 14.0041 19.9292 15.3027 19.9292ZM79.6915 117.859H54.4746C56.5534 114.911 58.034 111.584 58.8325 108.066H74.893C75.8465 111.623 77.5032 114.953 79.765 117.859H79.6915ZM118.129 98.273H15.3027C14.0041 98.273 12.7587 97.7571 11.8404 96.8388C10.9221 95.9205 10.4062 94.6751 10.4062 93.3765V88.48H123.025V93.3765C123.025 94.6751 122.51 95.9205 121.591 96.8388C120.673 97.7571 119.428 98.273 118.129 98.273Z" fill="#E5E5EF"/>
</svg>
