<?xml version="1.0" encoding="UTF-8"?> <svg xmlns="http://www.w3.org/2000/svg" id="Group_14" data-name="Group 14" width="1000" height="414" viewBox="0 0 1000 414"><rect id="Rectangle_20" data-name="Rectangle 20" width="1000" height="414" fill="#fff" opacity="0"></rect><g id="Group_13" data-name="Group 13" transform="translate(0 -64)"><g id="Group_1" data-name="Group 1" transform="translate(0 -33)"><g id="Rectangle_1" data-name="Rectangle 1" transform="translate(27 169)" fill="#fff" stroke="#1b54f8" stroke-width="1"><rect width="138" height="59" rx="4" stroke="none"></rect><rect x="0.5" y="0.5" width="137" height="58" rx="3.5" fill="none"></rect></g><text id="Data_Collection_" data-name="Data Collection " transform="translate(35 205)" fill="#051c2c" font-size="16" font-family="OpenSans-Semibold, Open Sans" font-weight="600"><tspan x="0" y="0">Data Collection </tspan></text></g><text id="Data_Needs" data-name="Data Needs" transform="translate(220 105)" fill="#051c2c" font-size="14" font-family="OpenSans, Open Sans"><tspan x="0" y="0">Data Needs</tspan></text><text id="Online_performance" data-name="Online performance" transform="translate(82.5 360) rotate(-90)" fill="#0b0b0b" font-size="14" font-family="OpenSans, Open Sans"><tspan x="0" y="0">Online performance</tspan></text><text id="ML_-_ready_datasets" data-name="ML - ready datasets" transform="translate(894.5 355.5) rotate(-90)" fill="#0b0b0b" font-size="14" font-family="OpenSans, Open Sans"><tspan x="0" y="0">ML - ready datasets</tspan></text><text id="Data_Fixes" data-name="Data Fixes" transform="translate(710 105)" fill="#051c2c" font-size="14" font-family="OpenSans, Open Sans"><tspan x="0" y="0">Data Fixes</tspan></text><g id="Group_7" data-name="Group 7" transform="translate(0 -80)"><g id="Rectangle_10" data-name="Rectangle 10" transform="translate(165 450)" fill="#fff" stroke="#1b54f8" stroke-width="1"><rect width="138" height="59" rx="4" stroke="none"></rect><rect x="0.5" y="0.5" width="137" height="58" rx="3.5" fill="none"></rect></g><text id="ML_System_Deployment" data-name="ML System Deployment" transform="translate(234 475)" fill="#051c2c" font-size="16" font-family="OpenSans-Semibold, Open Sans" font-weight="600"><tspan x="-41" y="0">ML System</tspan><tspan x="-47" y="22">Deployment</tspan></text></g><g id="Group_9" data-name="Group 9" transform="translate(-12 -80)"><g id="Rectangle_8" data-name="Rectangle 8" transform="translate(528 450)" fill="#fff" stroke="#1b54f8" stroke-width="1"><rect width="138" height="59" rx="4" stroke="none"></rect><rect x="0.5" y="0.5" width="137" height="58" rx="3.5" fill="none"></rect></g><text id="Model_Evaluation" data-name="Model Evaluation" transform="translate(597 475)" fill="#051c2c" font-size="16" font-family="OpenSans-Semibold, Open Sans" font-weight="600"><tspan x="-24" y="0">Model</tspan><tspan x="-40" y="22">Evaluation</tspan></text></g><g id="Group_10" data-name="Group 10" transform="translate(0 -80)"><g id="Rectangle_7" data-name="Rectangle 7" transform="translate(691 450)" fill="#fff" stroke="#1b54f8" stroke-width="1"><rect width="138" height="59" rx="4" stroke="none"></rect><rect x="0.5" y="0.5" width="137" height="58" rx="3.5" fill="none"></rect></g><text id="Model_Training" data-name="Model Training" transform="translate(760 475)" fill="#051c2c" font-size="16" font-family="OpenSans-Semibold, Open Sans" font-weight="600"><tspan x="-24" y="0">Model</tspan><tspan x="-31" y="22">Training</tspan></text></g><g id="Group_4" data-name="Group 4" transform="translate(6 -33)"><g id="Rectangle_4" data-name="Rectangle 4" transform="translate(506 169)" fill="#fff" stroke="#1b54f8" stroke-width="1"><rect width="138" height="59" rx="4" stroke="none"></rect><rect x="0.5" y="0.5" width="137" height="58" rx="3.5" fill="none"></rect></g><text id="Data_Labeling" data-name="Data Labeling" transform="translate(575 205)" fill="#051c2c" font-size="16" font-family="OpenSans-Semibold, Open Sans" font-weight="600"><tspan x="-52" y="0">Data Labeling</tspan></text></g><g id="Group_12" data-name="Group 12" transform="translate(-9 -64)"><g id="Rectangle_11" data-name="Rectangle 11" transform="translate(385 298)" fill="#fff" stroke="#051c2c" stroke-width="2"><rect width="249" height="91" rx="4" stroke="none"></rect><rect x="1" y="1" width="247" height="89" rx="3" fill="none"></rect></g><g id="Group_11" data-name="Group 11" transform="translate(1 1)"><text id="ML_Engineers" data-name="ML Engineers" transform="translate(506 333)" fill="#051c2c" font-size="18" font-family="OpenSans-Bold, Open Sans" font-weight="700"><tspan x="-59" y="0">ML Engineers</tspan></text><text id="Parametrize_and_monitor" data-name="Parametrize and monitor" transform="translate(509 367)" fill="#051c2c" font-size="18" font-family="OpenSans-Bold, Open Sans" font-weight="700"><tspan x="-113" y="0">Parametrize and monitor</tspan></text></g></g><g id="Group_5" data-name="Group 5" transform="translate(-3 -33)"><g id="Rectangle_5" data-name="Rectangle 5" transform="translate(677 169)" fill="#fff" stroke="#1b54f8" stroke-width="1"><rect width="138" height="59" rx="4" stroke="none"></rect><rect x="0.5" y="0.5" width="137" height="58" rx="3.5" fill="none"></rect></g><text id="Data_Validation" data-name="Data Validation" transform="translate(746 205)" fill="#051c2c" font-size="16" font-family="OpenSans-Semibold, Open Sans" font-weight="600"><tspan x="-59" y="0">Data Validation</tspan></text></g><g id="Group_6" data-name="Group 6" transform="translate(0 -33)"><g id="Rectangle_6" data-name="Rectangle 6" transform="translate(836 169)" fill="#fff" stroke="#1b54f8" stroke-width="1"><rect width="138" height="59" rx="4" stroke="none"></rect><rect x="0.5" y="0.5" width="137" height="58" rx="3.5" fill="none"></rect></g><text id="Data_Preparation" data-name="Data Preparation" transform="translate(905 194)" fill="#051c2c" font-size="16" font-family="OpenSans-Semibold, Open Sans" font-weight="600"><tspan x="-18" y="0">Data</tspan><tspan x="-45" y="22">Preparation</tspan></text></g><path id="Path_1" data-name="Path 1" d="M423.033,152.833V136.666h-325v11.6" transform="translate(-7.033 -16.833)" fill="none" stroke="#051c2c" stroke-width="2"></path><path id="Path_4" data-name="Path 4" d="M419.533,152.833V136.666H98.033V146.9" transform="translate(485.467 -16.833)" fill="none" stroke="#051c2c" stroke-width="2"></path><path id="Path_2" data-name="Path 2" d="M96.443,235.475,96,435.5h74.08" transform="translate(-5 -36)" fill="none" stroke="#051c2c" stroke-width="2"></path><path id="Path_3" data-name="Path 3" d="M306.638,476H340" transform="translate(0 -76.5)" fill="none" stroke="#051c2c" stroke-width="2"></path><path id="Path_7" data-name="Path 7" d="M306.077,476H340" transform="translate(176 -76.5)" fill="none" stroke="#051c2c" stroke-width="2"></path><path id="Path_9" data-name="Path 9" d="M305.438,476H340" transform="translate(352 -76.5)" fill="none" stroke="#051c2c" stroke-width="2"></path><path id="Path_6" data-name="Path 6" d="M303,476h19.5" transform="translate(24 -310.5)" fill="none" stroke="#051c2c" stroke-width="2"></path><path id="Path_10" data-name="Path 10" d="M303,476h16.074" transform="translate(185 -310.5)" fill="none" stroke="#051c2c" stroke-width="2"></path><path id="Path_12" data-name="Path 12" d="M303,476h20.5" transform="translate(509 -310.5)" fill="none" stroke="#051c2c" stroke-width="2"></path><path id="Path_8" data-name="Path 8" d="M303,476h20.356" transform="translate(-138 -310.5)" fill="none" stroke="#051c2c" stroke-width="2"></path><path id="Path_5" data-name="Path 5" d="M905,228V432.5H835.247" transform="translate(0 -33)" fill="none" stroke="#051c2c" stroke-width="2"></path><g id="Group_8" data-name="Group 8" transform="translate(-20 -80)"><g id="Rectangle_9" data-name="Rectangle 9" transform="translate(360 450)" fill="#fff" stroke="#1b54f8" stroke-width="1"><rect width="138" height="59" rx="4" stroke="none"></rect><rect x="0.5" y="0.5" width="137" height="58" rx="3.5" fill="none"></rect></g><text id="ML_System_Validation" data-name="ML System Validation" transform="translate(429 475)" fill="#051c2c" font-size="16" font-family="OpenSans-Semibold, Open Sans" font-weight="600"><tspan x="-41" y="0">ML System</tspan><tspan x="-38" y="22">Validation</tspan></text></g><g id="Group_2" data-name="Group 2" transform="translate(2 -33)"><g id="Rectangle_2" data-name="Rectangle 2" transform="translate(187 169)" fill="#fff" stroke="#1b54f8" stroke-width="1"><rect width="138" height="59" rx="4" stroke="none"></rect><rect x="0.5" y="0.5" width="137" height="58" rx="3.5" fill="none"></rect></g><text id="Data_Ingestion" data-name="Data Ingestion" transform="translate(200 205)" fill="#051c2c" font-size="16" font-family="OpenSans-Semibold, Open Sans" font-weight="600"><tspan x="0" y="0">Data Ingestion</tspan></text></g><g id="Group_3" data-name="Group 3" transform="translate(4 -35)"><g id="Rectangle_3" data-name="Rectangle 3" transform="translate(347 171)" fill="#fff" stroke="#1b54f8" stroke-width="1"><rect width="138" height="59" rx="4" stroke="none"></rect><rect x="0.5" y="0.5" width="137" height="58" rx="3.5" fill="none"></rect></g><text id="Data_Analysis_Curation" data-name="Data Analysis &amp; Curation" transform="translate(416 195)" fill="#051c2c" font-size="16" font-family="OpenSans-Semibold, Open Sans" font-weight="600"><tspan x="-59" y="0">Data Analysis &amp;</tspan><tspan x="-33" y="22">Curation</tspan></text></g><path id="Polygon_1" data-name="Polygon 1" d="M5.5,0,11,9H0Z" transform="translate(512 160) rotate(90)" fill="#051c2c"></path><path id="Polygon_4" data-name="Polygon 4" d="M5.5,0,11,9H0Z" transform="translate(351 160) rotate(90)" fill="#051c2c"></path><path id="Polygon_9" data-name="Polygon 9" d="M5.5,0,11,9H0Z" transform="translate(303 405) rotate(-90)" fill="#051c2c"></path><path id="Polygon_10" data-name="Polygon 10" d="M5.5,0,11,9H0Z" transform="translate(478 405) rotate(-90)" fill="#051c2c"></path><path id="Polygon_11" data-name="Polygon 11" d="M5.5,0,11,9H0Z" transform="translate(654 405) rotate(-90)" fill="#051c2c"></path><path id="Polygon_12" data-name="Polygon 12" d="M5.5,0,11,9H0Z" transform="translate(829 405) rotate(-90)" fill="#051c2c"></path><path id="Polygon_5" data-name="Polygon 5" d="M5.5,0,11,9H0Z" transform="translate(189 160) rotate(90)" fill="#051c2c"></path><path id="Polygon_6" data-name="Polygon 6" d="M5.5,0,11,9H0Z" transform="translate(97 136) rotate(180)" fill="#051c2c"></path><path id="Polygon_8" data-name="Polygon 8" d="M5.5,0,11,9H0Z" transform="translate(86 195)" fill="#051c2c"></path><path id="Polygon_7" data-name="Polygon 7" d="M5.5,0,11,9H0Z" transform="translate(589 136) rotate(180)" fill="#051c2c"></path><path id="Path_11" data-name="Path 11" d="M303,476h19.5" transform="translate(347 -310.5)" fill="none" stroke="#051c2c" stroke-width="2"></path><path id="Polygon_2" data-name="Polygon 2" d="M5.5,0,11,9H0Z" transform="translate(674 160) rotate(90)" fill="#051c2c"></path><path id="Polygon_3" data-name="Polygon 3" d="M5.5,0,11,9H0Z" transform="translate(836 160) rotate(90)" fill="#051c2c"></path><text id="LeewayHertz" transform="translate(858 452)" fill="#051c2c" font-size="20" font-family="Georgia"><tspan x="0" y="0">LeewayHertz</tspan></text></g></svg> 