<?xml version="1.0" encoding="UTF-8"?> <svg xmlns="http://www.w3.org/2000/svg" width="366" height="251" viewBox="0 0 366 251" fill="none"><g clip-path="url(#clip0_1_173)"><path d="M365.5 -1.60001H-3.70001V252.6H365.5V-1.60001Z" fill="url(#paint0_linear_1_173)"></path><path d="M224.1 85.1H141.9C139.8 85.1 138.1 83.4 138.1 81.3V57.5C138.1 55.4 139.8 53.7 141.9 53.7H224.1C226.2 53.7 227.9 55.4 227.9 57.5V81.3C227.9 83.4 226.2 85.1 224.1 85.1Z" fill="url(#paint1_linear_1_173)"></path><path d="M231 196.1H132.2C129.9 196.1 128 194.2 128 191.9V168.8C128 166.5 129.9 164.6 132.2 164.6H231C233.3 164.6 235.2 166.5 235.2 168.8V191.9C235.1 194.2 233.3 196.1 231 196.1Z" fill="url(#paint2_linear_1_173)"></path><path d="M172.81 75.6458L171.832 72.8704H168.011L167.033 75.6458H165.304L169.023 65.6106H170.841L174.553 75.6458H172.81ZM171.408 71.4622L170.458 68.7278C170.422 68.6093 170.369 68.443 170.301 68.2288C170.233 68.0101 170.164 67.789 170.096 67.5657C170.027 67.3379 169.97 67.1464 169.925 66.9915C169.879 67.1783 169.822 67.388 169.754 67.6204C169.69 67.8483 169.626 68.0625 169.563 68.263C169.503 68.4635 169.458 68.6185 169.426 68.7278L168.469 71.4622H171.408ZM177.868 79.0091C176.843 79.0091 176.057 78.8245 175.51 78.4554C174.963 78.0862 174.69 77.569 174.69 76.9036C174.69 76.4388 174.835 76.0446 175.127 75.721C175.419 75.402 175.836 75.181 176.378 75.0579C176.173 74.9668 175.995 74.8255 175.845 74.6341C175.699 74.4381 175.626 74.2216 175.626 73.9847C175.626 73.7021 175.706 73.4606 175.865 73.2601C176.025 73.0595 176.264 72.8658 176.583 72.679C176.187 72.5104 175.868 72.2369 175.626 71.8587C175.389 71.4759 175.271 71.027 175.271 70.512C175.271 69.9651 175.387 69.5003 175.619 69.1175C175.852 68.7301 176.191 68.4362 176.638 68.2356C177.084 68.0306 177.624 67.928 178.258 67.928C178.395 67.928 178.543 67.9371 178.702 67.9554C178.866 67.969 179.017 67.9873 179.153 68.0101C179.295 68.0283 179.402 68.0488 179.475 68.0716H182.093V68.9671L180.808 69.2063C180.931 69.3795 181.029 69.5778 181.102 69.8011C181.175 70.0198 181.211 70.2591 181.211 70.5188C181.211 71.3027 180.94 71.9202 180.398 72.3714C179.86 72.818 179.117 73.0413 178.169 73.0413C177.941 73.0322 177.72 73.014 177.506 72.9866C177.342 73.0869 177.217 73.1985 177.13 73.3216C177.043 73.4401 177 73.5745 177 73.7249C177 73.8479 177.043 73.9482 177.13 74.0257C177.217 74.0986 177.344 74.1533 177.513 74.1897C177.686 74.2262 177.896 74.2444 178.142 74.2444H179.447C180.277 74.2444 180.91 74.4199 181.348 74.7708C181.785 75.1217 182.004 75.6367 182.004 76.3157C182.004 77.177 181.649 77.8401 180.938 78.305C180.227 78.7744 179.204 79.0091 177.868 79.0091ZM177.93 77.8811C178.49 77.8811 178.962 77.8265 179.345 77.7171C179.728 77.6077 180.017 77.4505 180.213 77.2454C180.409 77.0449 180.507 76.8056 180.507 76.5276C180.507 76.2815 180.445 76.0924 180.322 75.9603C180.199 75.8281 180.015 75.7369 179.769 75.6868C179.523 75.6367 179.217 75.6116 178.853 75.6116H177.663C177.367 75.6116 177.105 75.6572 176.877 75.7483C176.649 75.844 176.471 75.9808 176.344 76.1585C176.221 76.3362 176.159 76.5504 176.159 76.8011C176.159 77.1474 176.312 77.414 176.617 77.6009C176.927 77.7877 177.365 77.8811 177.93 77.8811ZM178.244 71.9886C178.714 71.9886 179.062 71.861 179.29 71.6058C179.518 71.346 179.632 70.9814 179.632 70.512C179.632 70.0016 179.513 69.6188 179.276 69.3636C179.044 69.1084 178.698 68.9808 178.237 68.9808C177.786 68.9808 177.442 69.1106 177.205 69.3704C176.973 69.6302 176.857 70.0153 176.857 70.5257C176.857 70.986 176.973 71.346 177.205 71.6058C177.442 71.861 177.789 71.9886 178.244 71.9886ZM186.488 67.9349C187.163 67.9349 187.742 68.0739 188.225 68.3519C188.708 68.6298 189.079 69.0241 189.339 69.5345C189.599 70.0449 189.729 70.6556 189.729 71.3665V72.2278H184.677C184.695 72.9616 184.891 73.5267 185.265 73.9231C185.643 74.3196 186.172 74.5179 186.851 74.5179C187.334 74.5179 187.767 74.4723 188.15 74.3811C188.537 74.2854 188.936 74.1464 189.346 73.9642V75.2698C188.968 75.4476 188.582 75.5774 188.191 75.6595C187.799 75.7415 187.329 75.7825 186.782 75.7825C186.04 75.7825 185.386 75.639 184.82 75.3519C184.26 75.0602 183.82 74.6272 183.501 74.053C183.187 73.4788 183.029 72.7656 183.029 71.9134C183.029 71.0657 183.173 70.3457 183.46 69.7532C183.747 69.1608 184.151 68.7096 184.67 68.3997C185.19 68.0898 185.796 67.9349 186.488 67.9349ZM186.488 69.1448C185.983 69.1448 185.572 69.3089 185.258 69.637C184.948 69.9651 184.766 70.4459 184.711 71.0794H188.156C188.152 70.7011 188.088 70.3662 187.965 70.0745C187.846 69.7828 187.664 69.555 187.418 69.3909C187.177 69.2269 186.867 69.1448 186.488 69.1448ZM195.484 67.9349C196.337 67.9349 197 68.1559 197.474 68.5979C197.952 69.0354 198.192 69.7395 198.192 70.7103V75.6458H196.585V71.011C196.585 70.4231 196.464 69.9834 196.223 69.6917C195.981 69.3955 195.608 69.2474 195.102 69.2474C194.368 69.2474 193.858 69.4729 193.57 69.9241C193.288 70.3753 193.147 71.0293 193.147 71.886V75.6458H191.54V68.0784H192.791L193.017 69.1038H193.106C193.27 68.8395 193.472 68.623 193.714 68.4544C193.96 68.2812 194.234 68.1513 194.534 68.0647C194.84 67.9782 195.156 67.9349 195.484 67.9349ZM203.257 74.4837C203.467 74.4837 203.674 74.4655 203.879 74.429C204.084 74.388 204.271 74.3401 204.44 74.2854V75.5022C204.262 75.5797 204.032 75.6458 203.749 75.7005C203.467 75.7552 203.173 75.7825 202.867 75.7825C202.439 75.7825 202.054 75.7119 201.712 75.5706C201.37 75.4248 201.099 75.1764 200.899 74.8255C200.698 74.4746 200.598 73.9892 200.598 73.3694V69.302H199.566V68.5843L200.673 68.0169L201.199 66.3968H202.211V68.0784H204.378V69.302H202.211V73.3489C202.211 73.7317 202.307 74.0166 202.498 74.2034C202.69 74.3903 202.943 74.4837 203.257 74.4837Z" fill="white"></path><path d="M314.243 128.501L313.405 126.122H310.13L309.292 128.501H307.81L310.997 119.899H312.556L315.737 128.501H314.243ZM313.042 124.915L312.228 122.571C312.196 122.469 312.151 122.327 312.093 122.143C312.034 121.956 311.976 121.766 311.917 121.575C311.859 121.38 311.81 121.215 311.771 121.083C311.732 121.243 311.683 121.422 311.624 121.622C311.569 121.817 311.515 122.001 311.46 122.172C311.409 122.344 311.37 122.477 311.343 122.571L310.523 124.915H313.042ZM319.341 128.618C318.728 128.618 318.196 128.499 317.747 128.26C317.298 128.022 316.952 127.657 316.71 127.165C316.468 126.672 316.347 126.047 316.347 125.29C316.347 124.501 316.48 123.856 316.745 123.356C317.011 122.856 317.378 122.487 317.847 122.249C318.319 122.01 318.86 121.891 319.47 121.891C319.857 121.891 320.206 121.93 320.519 122.008C320.835 122.083 321.103 122.174 321.321 122.284L320.911 123.385C320.673 123.288 320.429 123.206 320.179 123.139C319.929 123.073 319.689 123.04 319.458 123.04C319.079 123.04 318.763 123.124 318.509 123.292C318.259 123.46 318.071 123.71 317.946 124.042C317.825 124.374 317.765 124.786 317.765 125.278C317.765 125.755 317.827 126.157 317.952 126.485C318.077 126.809 318.263 127.055 318.509 127.223C318.755 127.387 319.058 127.469 319.417 127.469C319.773 127.469 320.091 127.426 320.372 127.34C320.653 127.255 320.919 127.143 321.169 127.006V128.202C320.923 128.342 320.659 128.446 320.378 128.512C320.097 128.583 319.751 128.618 319.341 128.618ZM325.107 127.505C325.286 127.505 325.464 127.489 325.64 127.458C325.816 127.422 325.976 127.381 326.12 127.335V128.378C325.968 128.444 325.771 128.501 325.528 128.547C325.286 128.594 325.034 128.618 324.773 128.618C324.405 128.618 324.075 128.557 323.782 128.436C323.489 128.311 323.257 128.098 323.085 127.797C322.913 127.497 322.827 127.081 322.827 126.549V123.063H321.943V122.448L322.892 121.962L323.343 120.573H324.21V122.014H326.068V123.063H324.21V126.532C324.21 126.86 324.292 127.104 324.456 127.264C324.62 127.424 324.837 127.505 325.107 127.505ZM328.816 122.014V128.501H327.439V122.014H328.816ZM328.136 119.53C328.347 119.53 328.528 119.587 328.681 119.7C328.837 119.813 328.915 120.008 328.915 120.286C328.915 120.559 328.837 120.755 328.681 120.872C328.528 120.985 328.347 121.042 328.136 121.042C327.917 121.042 327.732 120.985 327.579 120.872C327.431 120.755 327.357 120.559 327.357 120.286C327.357 120.008 327.431 119.813 327.579 119.7C327.732 119.587 327.917 119.53 328.136 119.53ZM336.532 125.243C336.532 125.782 336.462 126.26 336.321 126.678C336.181 127.096 335.976 127.45 335.706 127.739C335.437 128.024 335.112 128.243 334.734 128.395C334.355 128.544 333.927 128.618 333.45 128.618C333.005 128.618 332.597 128.544 332.226 128.395C331.855 128.243 331.532 128.024 331.259 127.739C330.989 127.45 330.78 127.096 330.632 126.678C330.484 126.26 330.409 125.782 330.409 125.243C330.409 124.528 330.532 123.922 330.778 123.426C331.028 122.926 331.384 122.546 331.845 122.284C332.306 122.022 332.855 121.891 333.491 121.891C334.089 121.891 334.616 122.022 335.073 122.284C335.53 122.546 335.888 122.926 336.146 123.426C336.403 123.926 336.532 124.532 336.532 125.243ZM331.827 125.243C331.827 125.715 331.884 126.12 331.997 126.456C332.114 126.792 332.294 127.049 332.536 127.229C332.778 127.405 333.091 127.493 333.474 127.493C333.857 127.493 334.169 127.405 334.411 127.229C334.653 127.049 334.831 126.792 334.944 126.456C335.058 126.12 335.114 125.715 335.114 125.243C335.114 124.77 335.058 124.37 334.944 124.042C334.831 123.71 334.653 123.458 334.411 123.286C334.169 123.11 333.855 123.022 333.468 123.022C332.898 123.022 332.482 123.213 332.22 123.596C331.958 123.979 331.827 124.528 331.827 125.243ZM341.495 121.891C342.226 121.891 342.794 122.081 343.2 122.46C343.61 122.835 343.816 123.438 343.816 124.27V128.501H342.439V124.528C342.439 124.024 342.335 123.647 342.128 123.397C341.921 123.143 341.601 123.016 341.167 123.016C340.538 123.016 340.101 123.21 339.855 123.596C339.612 123.983 339.491 124.544 339.491 125.278V128.501H338.114V122.014H339.187L339.38 122.893H339.456C339.597 122.667 339.771 122.481 339.978 122.337C340.189 122.188 340.423 122.077 340.681 122.003C340.943 121.928 341.214 121.891 341.495 121.891Z" fill="white"></path><path d="M29.0691 128.169C29.0691 128.676 28.9441 129.114 28.6941 129.481C28.448 129.848 28.0925 130.13 27.6277 130.325C27.1667 130.52 26.616 130.618 25.9753 130.618C25.6628 130.618 25.364 130.6 25.0789 130.565C24.7937 130.53 24.5242 130.479 24.2703 130.413C24.0203 130.342 23.7917 130.258 23.5847 130.161V128.837C23.9324 128.989 24.321 129.128 24.7507 129.253C25.1804 129.374 25.6179 129.434 26.0632 129.434C26.4265 129.434 26.7273 129.387 26.9656 129.294C27.2078 129.196 27.3875 129.059 27.5046 128.883C27.6218 128.704 27.6804 128.495 27.6804 128.256C27.6804 128.003 27.6121 127.788 27.4753 127.612C27.3386 127.436 27.1316 127.276 26.8542 127.131C26.5808 126.983 26.2371 126.825 25.823 126.657C25.5417 126.544 25.2722 126.415 25.0144 126.27C24.7605 126.126 24.5339 125.956 24.3347 125.76C24.1355 125.565 23.9773 125.335 23.8601 125.069C23.7468 124.799 23.6902 124.483 23.6902 124.12C23.6902 123.635 23.8054 123.221 24.0359 122.878C24.2703 122.534 24.5984 122.27 25.0203 122.087C25.446 121.903 25.9421 121.811 26.5085 121.811C26.9578 121.811 27.3796 121.858 27.7742 121.952C28.1726 122.046 28.5632 122.178 28.946 122.35L28.5007 123.481C28.1492 123.337 27.8074 123.221 27.4753 123.135C27.1472 123.049 26.8113 123.006 26.4675 123.006C26.1707 123.006 25.9187 123.051 25.7117 123.141C25.5046 123.231 25.3464 123.358 25.2371 123.522C25.1316 123.682 25.0789 123.874 25.0789 124.096C25.0789 124.346 25.1394 124.557 25.2605 124.729C25.3855 124.897 25.5769 125.051 25.8347 125.192C26.0964 125.333 26.4324 125.489 26.8425 125.661C27.3152 125.856 27.7156 126.061 28.0437 126.276C28.3757 126.491 28.6296 126.749 28.8054 127.049C28.9812 127.346 29.0691 127.719 29.0691 128.169ZM32.9949 129.505C33.1746 129.505 33.3523 129.489 33.5281 129.458C33.7039 129.422 33.864 129.381 34.0085 129.335V130.378C33.8562 130.444 33.6589 130.501 33.4167 130.547C33.1746 130.594 32.9226 130.618 32.6609 130.618C32.2937 130.618 31.9636 130.557 31.6707 130.436C31.3777 130.311 31.1453 130.098 30.9734 129.797C30.8015 129.497 30.7156 129.081 30.7156 128.549V125.063H29.8308V124.448L30.78 123.962L31.2312 122.573H32.0984V124.014H33.9558V125.063H32.0984V128.532C32.0984 128.86 32.1804 129.104 32.3445 129.264C32.5085 129.424 32.7253 129.505 32.9949 129.505ZM37.8699 123.891C38.6902 123.891 39.3093 124.073 39.7273 124.436C40.1492 124.799 40.3601 125.366 40.3601 126.135V130.501H39.3816L39.1179 129.581H39.071C38.8875 129.815 38.698 130.008 38.5027 130.161C38.3074 130.313 38.0808 130.426 37.823 130.501C37.5691 130.579 37.2585 130.618 36.8914 130.618C36.5046 130.618 36.1589 130.547 35.8542 130.407C35.5496 130.262 35.3093 130.044 35.1335 129.751C34.9578 129.458 34.8699 129.087 34.8699 128.637C34.8699 127.969 35.1179 127.467 35.614 127.131C36.114 126.796 36.8679 126.61 37.8757 126.575L39.0007 126.534V126.194C39.0007 125.745 38.8953 125.424 38.6843 125.233C38.4773 125.042 38.1843 124.946 37.8054 124.946C37.4812 124.946 37.1667 124.993 36.8621 125.087C36.5574 125.18 36.2605 125.296 35.9714 125.432L35.5261 124.46C35.8425 124.292 36.2019 124.155 36.6042 124.049C37.0105 123.944 37.4324 123.891 37.8699 123.891ZM38.9949 127.401L38.157 127.43C37.4695 127.454 36.9871 127.571 36.7097 127.782C36.4324 127.993 36.2937 128.282 36.2937 128.649C36.2937 128.969 36.3894 129.204 36.5808 129.352C36.7722 129.497 37.0242 129.569 37.3367 129.569C37.8132 129.569 38.2078 129.434 38.5203 129.165C38.8367 128.891 38.9949 128.491 38.9949 127.963V127.401ZM44.7019 129.505C44.8816 129.505 45.0593 129.489 45.2351 129.458C45.4109 129.422 45.571 129.381 45.7156 129.335V130.378C45.5632 130.444 45.366 130.501 45.1238 130.547C44.8816 130.594 44.6296 130.618 44.3679 130.618C44.0007 130.618 43.6707 130.557 43.3777 130.436C43.0847 130.311 42.8523 130.098 42.6804 129.797C42.5085 129.497 42.4226 129.081 42.4226 128.549V125.063H41.5378V124.448L42.4871 123.962L42.9382 122.573H43.8054V124.014H45.6628V125.063H43.8054V128.532C43.8054 128.86 43.8875 129.104 44.0515 129.264C44.2156 129.424 44.4324 129.505 44.7019 129.505ZM49.6179 123.891C50.196 123.891 50.6921 124.01 51.1062 124.249C51.5203 124.487 51.8386 124.825 52.0613 125.262C52.2839 125.7 52.3953 126.223 52.3953 126.833V127.571H48.0652C48.0808 128.2 48.2488 128.684 48.5691 129.024C48.8933 129.364 49.3464 129.534 49.9285 129.534C50.3425 129.534 50.7136 129.495 51.0417 129.417C51.3738 129.335 51.7156 129.215 52.0671 129.059V130.178C51.7429 130.331 51.4128 130.442 51.0769 130.512C50.741 130.583 50.3386 130.618 49.8699 130.618C49.2332 130.618 48.6726 130.495 48.1882 130.249C47.7078 129.999 47.3308 129.628 47.0574 129.135C46.7878 128.643 46.6531 128.032 46.6531 127.301C46.6531 126.575 46.7761 125.958 47.0222 125.45C47.2683 124.942 47.614 124.555 48.0593 124.29C48.5046 124.024 49.0242 123.891 49.6179 123.891ZM49.6179 124.928C49.1843 124.928 48.8328 125.069 48.5632 125.35C48.2976 125.631 48.1414 126.044 48.0945 126.587H51.0476C51.0437 126.262 50.989 125.975 50.8835 125.725C50.782 125.475 50.6257 125.28 50.4148 125.139C50.2078 124.999 49.9421 124.928 49.6179 124.928Z" fill="white"></path><path d="M83.7074 121.934C84.4457 121.934 85.0551 122.024 85.5355 122.204C86.0199 122.383 86.3793 122.657 86.6136 123.024C86.8519 123.391 86.9711 123.858 86.9711 124.424C86.9711 124.846 86.8929 125.206 86.7367 125.503C86.5804 125.799 86.3754 126.046 86.1215 126.241C85.8676 126.436 85.5961 126.592 85.307 126.71L87.7386 130.501H86.1508L84.0824 127.067H82.7054V130.501H81.2992V121.934H83.7074ZM83.6136 123.106H82.7054V125.907H83.6781C84.3304 125.907 84.8031 125.786 85.0961 125.544C85.3929 125.301 85.5414 124.944 85.5414 124.471C85.5414 123.975 85.3832 123.624 85.0668 123.417C84.7543 123.21 84.2699 123.106 83.6136 123.106ZM91.4066 123.891C91.9847 123.891 92.4808 124.01 92.8949 124.249C93.309 124.487 93.6273 124.825 93.85 125.262C94.0726 125.7 94.184 126.223 94.184 126.833V127.571H89.8539C89.8695 128.2 90.0375 128.684 90.3578 129.024C90.682 129.364 91.1351 129.534 91.7172 129.534C92.1312 129.534 92.5023 129.495 92.8304 129.417C93.1625 129.335 93.5043 129.215 93.8558 129.059V130.178C93.5316 130.331 93.2015 130.442 92.8656 130.512C92.5297 130.583 92.1273 130.618 91.6586 130.618C91.0219 130.618 90.4613 130.495 89.9769 130.249C89.4965 129.999 89.1195 129.628 88.8461 129.135C88.5765 128.643 88.4418 128.032 88.4418 127.301C88.4418 126.575 88.5648 125.958 88.8109 125.45C89.057 124.942 89.4027 124.555 89.848 124.29C90.2933 124.024 90.8129 123.891 91.4066 123.891ZM91.4066 124.928C90.973 124.928 90.6215 125.069 90.3519 125.35C90.0863 125.631 89.9301 126.044 89.8832 126.587H92.8363C92.8324 126.262 92.7777 125.975 92.6722 125.725C92.5707 125.475 92.4144 125.28 92.2035 125.139C91.9965 124.999 91.7308 124.928 91.4066 124.928ZM101.039 130.495L100.219 127.477C100.18 127.329 100.133 127.149 100.078 126.938C100.024 126.727 99.9691 126.51 99.9144 126.288C99.8597 126.061 99.809 125.852 99.7621 125.661C99.7191 125.469 99.6859 125.321 99.6625 125.215H99.6156C99.5961 125.321 99.5648 125.469 99.5219 125.661C99.4789 125.852 99.4301 126.061 99.3754 126.288C99.3207 126.514 99.266 126.735 99.2113 126.95C99.1605 127.165 99.1136 127.348 99.0707 127.501L98.2094 130.495H96.6976L94.8812 124.008H96.2758L97.1195 127.231C97.1742 127.45 97.2269 127.686 97.2777 127.94C97.3324 128.194 97.3793 128.436 97.4183 128.667C97.4574 128.897 97.4867 129.087 97.5062 129.235H97.5531C97.5687 129.13 97.5902 128.997 97.6176 128.837C97.6449 128.672 97.6761 128.503 97.7113 128.327C97.7465 128.147 97.7816 127.979 97.8168 127.823C97.8519 127.663 97.8851 127.534 97.9164 127.436L98.9125 124.008H100.418L101.373 127.436C101.416 127.585 101.463 127.772 101.514 127.999C101.565 128.221 101.61 128.446 101.649 128.672C101.692 128.895 101.719 129.081 101.731 129.229H101.778C101.793 129.096 101.821 128.917 101.86 128.69C101.903 128.46 101.952 128.215 102.006 127.958C102.061 127.696 102.118 127.454 102.176 127.231L103.037 124.008H104.409L102.58 130.495H101.039ZM108.065 123.891C108.885 123.891 109.504 124.073 109.922 124.436C110.344 124.799 110.555 125.366 110.555 126.135V130.501H109.577L109.313 129.581H109.266C109.082 129.815 108.893 130.008 108.698 130.161C108.502 130.313 108.276 130.426 108.018 130.501C107.764 130.579 107.453 130.618 107.086 130.618C106.7 130.618 106.354 130.547 106.049 130.407C105.745 130.262 105.504 130.044 105.328 129.751C105.153 129.458 105.065 129.087 105.065 128.637C105.065 127.969 105.313 127.467 105.809 127.131C106.309 126.796 107.063 126.61 108.071 126.575L109.196 126.534V126.194C109.196 125.745 109.09 125.424 108.879 125.233C108.672 125.042 108.379 124.946 108 124.946C107.676 124.946 107.362 124.993 107.057 125.087C106.752 125.18 106.455 125.296 106.166 125.432L105.721 124.46C106.037 124.292 106.397 124.155 106.799 124.049C107.205 123.944 107.627 123.891 108.065 123.891ZM109.19 127.401L108.352 127.43C107.664 127.454 107.182 127.571 106.905 127.782C106.627 127.993 106.489 128.282 106.489 128.649C106.489 128.969 106.584 129.204 106.776 129.352C106.967 129.497 107.219 129.569 107.532 129.569C108.008 129.569 108.403 129.434 108.715 129.165C109.032 128.891 109.19 128.491 109.19 127.963V127.401ZM115.77 123.891C115.879 123.891 115.998 123.897 116.127 123.909C116.256 123.921 116.368 123.936 116.461 123.956L116.332 125.245C116.25 125.221 116.149 125.204 116.028 125.192C115.911 125.18 115.805 125.174 115.711 125.174C115.465 125.174 115.231 125.215 115.008 125.297C114.786 125.376 114.588 125.497 114.416 125.661C114.245 125.821 114.11 126.022 114.012 126.264C113.914 126.506 113.866 126.788 113.866 127.108V130.501H112.483V124.014H113.561L113.748 125.157H113.813C113.942 124.926 114.102 124.715 114.293 124.524C114.485 124.333 114.703 124.18 114.95 124.067C115.2 123.95 115.473 123.891 115.77 123.891ZM119.842 130.618C119.069 130.618 118.448 130.337 117.979 129.774C117.514 129.208 117.282 128.374 117.282 127.272C117.282 126.159 117.518 125.317 117.991 124.747C118.467 124.176 119.094 123.891 119.871 123.891C120.2 123.891 120.487 123.936 120.733 124.026C120.979 124.112 121.19 124.229 121.366 124.378C121.545 124.526 121.698 124.692 121.823 124.876H121.887C121.868 124.755 121.844 124.581 121.817 124.354C121.793 124.124 121.782 123.911 121.782 123.715V121.383H123.164V130.501H122.086L121.84 129.616H121.782C121.664 129.803 121.516 129.973 121.336 130.126C121.161 130.274 120.95 130.393 120.703 130.483C120.461 130.573 120.174 130.618 119.842 130.618ZM120.229 129.499C120.819 129.499 121.235 129.329 121.477 128.989C121.719 128.649 121.844 128.139 121.852 127.46V127.278C121.852 126.551 121.735 125.995 121.5 125.608C121.266 125.217 120.838 125.022 120.217 125.022C119.721 125.022 119.342 125.223 119.08 125.626C118.823 126.024 118.694 126.581 118.694 127.296C118.694 128.01 118.823 128.557 119.08 128.936C119.342 129.311 119.725 129.499 120.229 129.499Z" fill="white"></path><path d="M144.808 186.312H139.148V176.318H144.808V177.699H140.788V180.413H144.555V181.787H140.788V184.925H144.808V186.312ZM150.748 178.602C151.6 178.602 152.263 178.823 152.737 179.265C153.216 179.702 153.455 180.406 153.455 181.377V186.312H151.849V181.678C151.849 181.09 151.728 180.65 151.486 180.358C151.245 180.062 150.871 179.914 150.365 179.914C149.632 179.914 149.121 180.14 148.834 180.591C148.552 181.042 148.41 181.696 148.41 182.553V186.312H146.804V178.745H148.055L148.28 179.771H148.369C148.533 179.506 148.736 179.29 148.978 179.121C149.224 178.948 149.497 178.818 149.798 178.731C150.103 178.645 150.42 178.602 150.748 178.602ZM157.434 186.312L154.556 178.745H156.258L157.817 183.188C157.917 183.471 158.008 183.776 158.09 184.104C158.172 184.433 158.229 184.708 158.261 184.932H158.316C158.347 184.699 158.409 184.421 158.5 184.098C158.591 183.77 158.685 183.466 158.78 183.188L160.339 178.745H162.034L159.156 186.312H157.434ZM164.789 178.745V186.312H163.183V178.745H164.789ZM163.996 175.847C164.242 175.847 164.454 175.913 164.632 176.045C164.814 176.177 164.905 176.405 164.905 176.729C164.905 177.048 164.814 177.275 164.632 177.412C164.454 177.544 164.242 177.61 163.996 177.61C163.741 177.61 163.525 177.544 163.347 177.412C163.174 177.275 163.087 177.048 163.087 176.729C163.087 176.405 163.174 176.177 163.347 176.045C163.525 175.913 163.741 175.847 163.996 175.847ZM170.928 178.602C171.055 178.602 171.194 178.608 171.345 178.622C171.495 178.636 171.625 178.654 171.734 178.677L171.584 180.181C171.488 180.153 171.37 180.133 171.229 180.119C171.092 180.105 170.969 180.099 170.859 180.099C170.572 180.099 170.299 180.146 170.039 180.242C169.779 180.333 169.549 180.475 169.349 180.666C169.148 180.853 168.991 181.088 168.877 181.37C168.763 181.653 168.706 181.981 168.706 182.354V186.312H167.093V178.745H168.351L168.569 180.078H168.645C168.795 179.809 168.982 179.563 169.205 179.34C169.429 179.117 169.684 178.939 169.971 178.807C170.262 178.67 170.582 178.602 170.928 178.602ZM179.835 182.512C179.835 183.141 179.753 183.699 179.589 184.187C179.425 184.674 179.186 185.087 178.871 185.424C178.557 185.757 178.179 186.012 177.736 186.189C177.294 186.363 176.795 186.449 176.239 186.449C175.72 186.449 175.244 186.363 174.811 186.189C174.378 186.012 174.002 185.757 173.683 185.424C173.368 185.087 173.124 184.674 172.951 184.187C172.778 183.699 172.692 183.141 172.692 182.512C172.692 181.678 172.835 180.971 173.122 180.393C173.414 179.809 173.829 179.365 174.366 179.06C174.904 178.754 175.544 178.602 176.287 178.602C176.984 178.602 177.6 178.754 178.133 179.06C178.666 179.365 179.083 179.809 179.384 180.393C179.685 180.976 179.835 181.682 179.835 182.512ZM174.346 182.512C174.346 183.063 174.412 183.535 174.544 183.927C174.681 184.319 174.89 184.619 175.173 184.829C175.456 185.034 175.82 185.137 176.267 185.137C176.713 185.137 177.078 185.034 177.36 184.829C177.643 184.619 177.85 184.319 177.983 183.927C178.115 183.535 178.181 183.063 178.181 182.512C178.181 181.96 178.115 181.493 177.983 181.11C177.85 180.723 177.643 180.429 177.36 180.229C177.078 180.023 176.711 179.921 176.26 179.921C175.595 179.921 175.109 180.144 174.804 180.591C174.498 181.037 174.346 181.678 174.346 182.512ZM185.625 178.602C186.477 178.602 187.14 178.823 187.614 179.265C188.093 179.702 188.332 180.406 188.332 181.377V186.312H186.726V181.678C186.726 181.09 186.605 180.65 186.363 180.358C186.122 180.062 185.748 179.914 185.242 179.914C184.509 179.914 183.998 180.14 183.711 180.591C183.429 181.042 183.287 181.696 183.287 182.553V186.312H181.681V178.745H182.932L183.157 179.771H183.246C183.41 179.506 183.613 179.29 183.855 179.121C184.101 178.948 184.374 178.818 184.675 178.731C184.98 178.645 185.297 178.602 185.625 178.602ZM199.133 178.602C199.981 178.602 200.619 178.82 201.047 179.258C201.48 179.695 201.696 180.397 201.696 181.363V186.312H200.09V181.65C200.09 181.076 199.978 180.643 199.755 180.352C199.532 180.06 199.192 179.914 198.736 179.914C198.098 179.914 197.638 180.119 197.356 180.529C197.078 180.935 196.939 181.525 196.939 182.3V186.312H195.332V181.65C195.332 181.268 195.282 180.949 195.182 180.693C195.086 180.434 194.938 180.24 194.737 180.112C194.537 179.98 194.284 179.914 193.979 179.914C193.537 179.914 193.183 180.014 192.919 180.215C192.659 180.415 192.472 180.712 192.359 181.104C192.245 181.491 192.188 181.967 192.188 182.532V186.312H190.581V178.745H191.832L192.058 179.764H192.147C192.302 179.499 192.493 179.283 192.721 179.114C192.953 178.941 193.211 178.813 193.493 178.731C193.776 178.645 194.07 178.602 194.375 178.602C194.94 178.602 195.416 178.702 195.804 178.902C196.191 179.098 196.481 179.399 196.672 179.805H196.795C197.032 179.395 197.362 179.091 197.786 178.896C198.21 178.7 198.659 178.602 199.133 178.602ZM206.953 178.602C207.628 178.602 208.207 178.741 208.69 179.019C209.173 179.297 209.544 179.691 209.804 180.201C210.064 180.712 210.193 181.322 210.193 182.033V182.895H205.142C205.16 183.628 205.356 184.193 205.73 184.59C206.108 184.986 206.637 185.185 207.316 185.185C207.799 185.185 208.232 185.139 208.614 185.048C209.002 184.952 209.401 184.813 209.811 184.631V185.937C209.432 186.114 209.047 186.244 208.655 186.326C208.263 186.408 207.794 186.449 207.247 186.449C206.504 186.449 205.85 186.306 205.285 186.019C204.725 185.727 204.285 185.294 203.966 184.72C203.651 184.146 203.494 183.432 203.494 182.58C203.494 181.732 203.638 181.012 203.925 180.42C204.212 179.827 204.615 179.376 205.135 179.066C205.654 178.757 206.261 178.602 206.953 178.602ZM206.953 179.812C206.447 179.812 206.037 179.976 205.723 180.304C205.413 180.632 205.231 181.113 205.176 181.746H208.621C208.617 181.368 208.553 181.033 208.43 180.741C208.311 180.45 208.129 180.222 207.883 180.058C207.641 179.894 207.332 179.812 206.953 179.812ZM215.949 178.602C216.802 178.602 217.465 178.823 217.939 179.265C218.417 179.702 218.656 180.406 218.656 181.377V186.312H217.05V181.678C217.05 181.09 216.929 180.65 216.688 180.358C216.446 180.062 216.072 179.914 215.567 179.914C214.833 179.914 214.322 180.14 214.035 180.591C213.753 181.042 213.611 181.696 213.611 182.553V186.312H212.005V178.745H213.256L213.482 179.771H213.57C213.734 179.506 213.937 179.29 214.179 179.121C214.425 178.948 214.698 178.818 214.999 178.731C215.304 178.645 215.621 178.602 215.949 178.602ZM223.722 185.15C223.931 185.15 224.139 185.132 224.344 185.096C224.549 185.055 224.736 185.007 224.904 184.952V186.169C224.727 186.246 224.497 186.312 224.214 186.367C223.931 186.422 223.637 186.449 223.332 186.449C222.904 186.449 222.519 186.379 222.177 186.237C221.835 186.091 221.564 185.843 221.363 185.492C221.163 185.141 221.063 184.656 221.063 184.036V179.969H220.03V179.251L221.138 178.684L221.664 177.063H222.676V178.745H224.843V179.969H222.676V184.016C222.676 184.398 222.772 184.683 222.963 184.87C223.154 185.057 223.407 185.15 223.722 185.15Z" fill="white"></path><path d="M136.1 76.2H78.8C76.2 76.2 74.1 78.3 74.1 80.9V169.3C74.1 171.9 76.2 174 78.8 174H128" stroke="#FAFCFF" stroke-miterlimit="10"></path><path d="M137.1 62.8H63.7C61.1 62.8 59 64.9 59 67.5V184.6C59 187.2 61.1 189.3 63.7 189.3H128" stroke="#FAFCFF" stroke-miterlimit="10"></path><path d="M227.9 69.4H297.4C300 69.4 302.1 71.5 302.1 74.1V175.7C302.1 178.3 300 180.4 297.4 180.4H238.3" stroke="#FAFCFF" stroke-miterlimit="10"></path><path d="M130.9 80.4L138.1 76.3L130.9 71.9V80.4Z" fill="white"></path><path d="M242.4 176.2L235.1 180.3L242.4 184.7V176.2Z" fill="white"></path><path d="M130.9 66.9L138.1 62.7L130.9 58.3V66.9Z" fill="white"></path></g><defs><linearGradient id="paint0_linear_1_173" x1="-3.65231" y1="125.5" x2="365.5" y2="125.5" gradientUnits="userSpaceOnUse"><stop stop-color="#00263F"></stop><stop offset="1" stop-color="#00507C"></stop></linearGradient><linearGradient id="paint1_linear_1_173" x1="138.102" y1="69.3718" x2="227.926" y2="69.3718" gradientUnits="userSpaceOnUse"><stop stop-color="#0086EA"></stop><stop offset="1" stop-color="#0072AA" stop-opacity="0.3"></stop></linearGradient><linearGradient id="paint2_linear_1_173" x1="128.014" y1="180.372" x2="235.126" y2="180.372" gradientUnits="userSpaceOnUse"><stop stop-color="#0086EA"></stop><stop offset="1" stop-color="#0072AA" stop-opacity="0.3"></stop></linearGradient><clipPath id="clip0_1_173"><rect width="365" height="250" fill="white" transform="translate(0.5 0.5)"></rect></clipPath></defs></svg> 