<svg viewBox="0 0 1374 332.2078853046595" xmlns:xlink="http://www.w3.org/1999/xlink" xmlns="http://www.w3.org/2000/svg" style="max-height: 500px" width="1374" height="332.2078853046595"><defs><clipPath id="clip-path"><rect fill="#fff" height="383" width="1374" data-name="Rectangle 37" id="Rectangle_37"/></clipPath><clipPath id="clip-path-2"><rect stroke-width="1" stroke="#707070" fill="#fff" transform="translate(78 443.766)" height="90" width="90" data-name="Rectangle 31" id="Rectangle_31"/></clipPath><clipPath id="clip-path-3"><rect stroke-width="1" stroke="#707070" fill="#fff" transform="translate(78 51)" height="90" width="90" data-name="Rectangle 32" id="Rectangle_32"/></clipPath><clipPath id="clip-path-4"><rect stroke-width="1" stroke="#707070" fill="#fff" transform="translate(291 444)" height="90" width="90" data-name="Rectangle 33" id="Rectangle_33"/></clipPath><clipPath id="clip-path-5"><rect stroke-width="1" stroke="#707070" fill="#fff" transform="translate(756 51)" height="90" width="90" data-name="Rectangle 35" id="Rectangle_35"/></clipPath><clipPath id="clip-path-6"><rect stroke-width="1" stroke="#707070" fill="#fff" transform="translate(990 432)" height="90" width="90" data-name="Rectangle 34" id="Rectangle_34"/></clipPath><clipPath id="clip-path-7"><rect stroke-width="1" stroke="#707070" fill="#fff" transform="translate(1220 411)" height="89" width="89" data-name="Rectangle 36" id="Rectangle_36"/></clipPath></defs><g clip-path="url(#clip-path)" data-name="Mask Group 29" id="Mask_Group_29"><g data-name="Group 33" id="Group_33"><text font-weight="600" font-family="OpenSans-Semibold, Open Sans" font-size="20" fill="#051b2c" transform="translate(140 256)" data-name="Requirement Assessment" id="Requirement_Assessment"><tspan y="0" x="-63">Requirement</tspan><tspan y="27" x="-57">Assessment</tspan></text><text font-weight="600" font-family="OpenSans-Semibold, Open Sans" font-size="20" fill="#051b2c" transform="translate(358 64)" data-name="Strategy Building" id="Strategy_Building"><tspan y="0" x="-40">Strategy</tspan><tspan y="27" x="-39">Building</tspan></text><text font-weight="600" font-family="OpenSans-Semibold, Open Sans" font-size="20" fill="#051b2c" transform="translate(578 256)" data-name="Design &amp; Development" id="Design_Development"><tspan y="0" x="-42">Design &amp;</tspan><tspan y="27" x="-64">Development</tspan></text><text font-weight="600" font-family="OpenSans-Semibold, Open Sans" font-size="20" fill="#051b2c" transform="translate(796 64)" id="Testing"><tspan y="0" x="-34">Testing</tspan></text><text font-weight="600" font-family="OpenSans-Semibold, Open Sans" font-size="20" fill="#051b2c" transform="translate(1017 256)" data-name="Deployment &amp; Optimization" id="Deployment_Optimization"><tspan y="0" x="-69">Deployment &amp;</tspan><tspan y="27" x="-62">Optimization</tspan></text><text font-weight="600" font-family="OpenSans-Semibold, Open Sans" font-size="20" fill="#051b2c" transform="translate(1227 64)" data-name="Integration &amp; Support" id="Integration_Support"><tspan y="0" x="-63">Integration &amp;</tspan><tspan y="27" x="-38">Support</tspan></text><path stroke-width="1" stroke="#051b2c" fill="none" transform="translate(-22.5 -92)" d="M163,299.965V327" data-name="Path 97" id="Path_97"/><path stroke-width="1" stroke="#051b2c" fill="none" transform="translate(195 -202.964)" d="M163,299.965V327" data-name="Path 98" id="Path_98"/><path stroke-width="1" stroke="#051b2c" fill="none" transform="translate(633 -202.964)" d="M163,299.965V327" data-name="Path 99" id="Path_99"/><path stroke-width="1" stroke="#051b2c" fill="none" transform="translate(1070 -202.964)" d="M163,299.965V327" data-name="Path 100" id="Path_100"/><path stroke-width="1" stroke="#051b2c" fill="none" transform="translate(415 -92)" d="M163,299.965V327" data-name="Path 101" id="Path_101"/><path stroke-width="1" stroke="#051b2c" fill="none" transform="translate(854 -92)" d="M163,299.965V327" data-name="Path 102" id="Path_102"/><g transform="translate(-23 -58)" data-name="Group 24" id="Group_24"><path fill="#e6f0ff" transform="translate(74 84)" d="M1271.045,181.184c-3.543-44.383-39.659-80.246-84.066-83.5a90.857,90.857,0,0,0-66.594,22.131,40.267,40.267,0,0,1-42.858,6.136,41.029,41.029,0,0,1-24.006-36.824q-.056-2.536-.252-5.1C1049.825,39.2,1013.156,3.043,968.285.189a91.29,91.29,0,0,0-97.124,91l0,.236a36.653,36.653,0,0,1-21.68,33.5l-4.844,2.166c-12.9,5.768-28.194,3.773-38.621-5.76a91.57,91.57,0,0,0-23.035-15.37c-.087-.039-.175-.086-.263-.124-.94-.436-1.889-.847-2.845-1.25-.362-.155-.72-.313-1.083-.46-.749-.3-1.5-.592-2.257-.873-.588-.222-1.174-.446-1.767-.655s-1.178-.4-1.769-.6c-.777-.258-1.555-.507-2.339-.741-.456-.138-.916-.267-1.376-.4-.926-.263-1.852-.513-2.79-.747-.366-.088-.733-.177-1.1-.261q-1.534-.363-3.085-.67c-.328-.067-.657-.128-.987-.189q-1.584-.295-3.189-.539c-.348-.051-.7-.1-1.05-.147q-1.53-.212-3.073-.372c-.444-.045-.889-.088-1.333-.126-.423-.039-.837-.092-1.26-.124s-.865-.037-1.3-.061q-1.153-.071-2.31-.11c-.721-.026-1.443-.045-2.161-.053-.366,0-.727-.026-1.093-.026-.49,0-.973.026-1.461.033-.629.01-1.256.02-1.881.045-.928.031-1.85.087-2.77.147-.547.037-1.093.071-1.638.114-1.036.088-2.064.2-3.09.326-.423.049-.847.088-1.27.147q-1.893.254-3.757.586c-.181.033-.364.055-.545.088a90.154,90.154,0,0,0-12.973,3.385l-.047.014q-2.046.7-4.048,1.5c-.108.041-.212.085-.319.13q-1.87.749-3.7,1.577c-.138.063-.273.126-.411.191q-1.8.826-3.545,1.72c-.126.067-.25.13-.374.195q-1.784.923-3.521,1.925l-.26.151q-1.825,1.056-3.6,2.2l-.055.035a92.031,92.031,0,0,0-10.791,8.119c-.464.407-.946.777-1.423,1.158a40.317,40.317,0,0,1-41.116,4.732A41.028,41.028,0,0,1,617.958,89.13q-.056-2.536-.252-5.1A90.74,90.74,0,0,0,591.457,27.1l-.041-.043c-.851-.861-1.722-1.7-2.607-2.522-.112-.1-.222-.21-.334-.315q-1.194-1.1-2.43-2.155c-.21-.179-.419-.368-.631-.547-.737-.621-1.488-1.225-2.245-1.822-.311-.248-.619-.5-.932-.739-.678-.525-1.37-1.032-2.062-1.535-.407-.295-.812-.6-1.223-.887-.623-.436-1.258-.859-1.891-1.282-.5-.33-.991-.666-1.492-.985-.576-.37-1.162-.725-1.748-1.081s-1.144-.7-1.726-1.034c-.541-.311-1.087-.609-1.634-.908-.639-.356-1.278-.708-1.925-1.042-.515-.269-1.034-.523-1.553-.78-.694-.344-1.386-.686-2.088-1.014-.5-.23-1-.448-1.5-.67-.735-.328-1.47-.651-2.218-.955-.492-.2-.989-.393-1.484-.588-.761-.3-1.524-.594-2.294-.873-.505-.179-1.014-.348-1.526-.523-.769-.263-1.539-.519-2.32-.763-.527-.163-1.06-.313-1.59-.468-.769-.222-1.537-.442-2.314-.645-.564-.149-1.132-.283-1.7-.419-.751-.179-1.5-.358-2.255-.519-.611-.13-1.227-.246-1.84-.364-.723-.136-1.447-.273-2.174-.393-.664-.11-1.333-.2-2-.3S538.309.73,537.621.651c-.727-.088-1.457-.157-2.186-.226-.432-.041-.859-.1-1.292-.13-.187-.016-.37-.016-.556-.031-.289-.02-.574-.057-.863-.075-.743-.045-1.476-.053-2.216-.081-.71-.031-1.423-.067-2.129-.083-.955-.016-1.905,0-2.853.016-.741.008-1.482.008-2.218.033-.883.033-1.756.1-2.63.161-.792.051-1.586.087-2.373.161-.753.069-1.494.171-2.241.261-.893.1-1.791.195-2.676.324-.362.053-.718.128-1.077.187a90.415,90.415,0,0,0-12.291,2.849c-.149.047-.3.085-.45.132-1.225.381-2.432.806-3.635,1.241-.277.1-.558.187-.836.289-1.158.431-2.3.9-3.431,1.372-.307.128-.619.25-.924.381-1.123.482-2.225,1-3.322,1.526-.3.147-.607.285-.906.431-1.093.541-2.166,1.109-3.234,1.693-.291.157-.586.313-.875.474-1.068.6-2.117,1.221-3.157,1.858-.271.167-.543.328-.812.5-1.048.657-2.078,1.341-3.1,2.037-.244.169-.488.332-.729.5q-1.548,1.082-3.043,2.227-.316.239-.631.484-1.525,1.185-3,2.432l-.513.438q-1.51,1.3-2.961,2.656-.192.177-.377.36-1.5,1.418-2.939,2.908c-.073.077-.142.153-.214.226q-1.5,1.569-2.929,3.2l-.026.031A90.765,90.765,0,0,0,435.6,91.47a36.648,36.648,0,0,1-21.678,33.454l-4.844,2.166c-12.9,5.768-28.194,3.773-38.621-5.76a91,91,0,0,0-121.513-1.266,39.119,39.119,0,0,1-41.77,6.25l-.672-.3a41.068,41.068,0,0,1-24.14-36.877q-.05-2.265-.212-4.555C178.987,40.066,143.068,3.814,98.578.3A91.287,91.287,0,0,0,.3,98.626c3.537,44.385,39.651,80.248,84.058,83.5A90.848,90.848,0,0,0,150.961,160a40.259,40.259,0,0,1,42.856-6.134,41.027,41.027,0,0,1,24.008,36.82,93.544,93.544,0,0,0,.7,9.58,91.2,91.2,0,0,0,181.655-11.64v-.236a36.643,36.643,0,0,1,21.678-33.5l4.844-2.165c12.9-5.77,28.194-3.773,38.621,5.76a91.414,91.414,0,0,0,23.019,15.36c.092.043.181.088.273.13.942.438,1.9.853,2.857,1.256.354.149.706.307,1.064.45.753.307,1.514.6,2.277.883.582.22,1.166.44,1.756.651s1.184.4,1.777.6c.773.254,1.545.505,2.326.741.464.138.93.267,1.4.4q1.38.392,2.772.741c.372.092.745.179,1.117.267,1.018.238,2.041.464,3.071.668.332.067.664.128,1,.191q1.584.295,3.183.535c.348.053.7.1,1.046.149q1.528.212,3.073.37c.446.045.893.092,1.341.13.417.035.83.088,1.248.12.435.033.865.037,1.3.063q1.159.071,2.324.11,1.076.038,2.149.053c.368,0,.733.028,1.1.028.5,0,.989-.028,1.484-.037.606-.01,1.211-.018,1.815-.041.948-.031,1.891-.087,2.833-.151.521-.035,1.044-.063,1.563-.108,1.081-.09,2.153-.208,3.224-.338.372-.043.747-.075,1.117-.128a90.059,90.059,0,0,0,13.046-2.717c.069-.02.138-.043.206-.063q2-.578,3.955-1.244c.169-.057.336-.12.507-.179q1.814-.628,3.6-1.327c.191-.079.379-.157.568-.232q1.76-.711,3.482-1.486c.171-.077.342-.153.513-.234q1.775-.817,3.511-1.7c.114-.057.228-.114.342-.175q1.879-.97,3.708-2.027l.024-.012a91.827,91.827,0,0,0,13.889-9.843,40.553,40.553,0,0,1,67.214,30.352,94.127,94.127,0,0,0,.7,9.58c.1.782.275,1.539.391,2.318.138.885.285,1.767.448,2.648.391,2.139.861,4.246,1.4,6.336.057.21.11.425.167.639a91.6,91.6,0,0,0,52.8,60.474c.124.053.246.11.37.161q2.064.861,4.174,1.618,1.787.646,3.6,1.221c.989.309,1.98.6,2.982.875,1.651.456,3.321.871,5.007,1.233.718.151,1.439.289,2.162.425,1.982.375,3.983.7,6.008.94.157.018.309.055.468.073.468.053.932.073,1.4.118.572.057,1.138.132,1.712.177.309.024.611.026.918.047.948.065,1.889.108,2.831.146.8.031,1.59.063,2.383.073.887.01,1.769,0,2.65-.01.832-.014,1.663-.026,2.493-.063s1.638-.092,2.455-.147c.875-.061,1.75-.122,2.617-.206.747-.073,1.488-.167,2.231-.26.922-.114,1.846-.224,2.76-.368.668-.1,1.331-.226,2-.346.971-.171,1.94-.342,2.9-.547.582-.122,1.158-.265,1.736-.4,1.028-.24,2.052-.478,3.067-.751.484-.132.963-.279,1.445-.419,1.089-.313,2.178-.629,3.252-.981.374-.122.739-.259,1.111-.387,1.168-.4,2.33-.806,3.476-1.252.238-.092.47-.2.7-.291,1.27-.5,2.526-1.024,3.763-1.583.071-.029.138-.067.206-.1a91.281,91.281,0,0,0,53.564-83.34A36.648,36.648,0,0,1,857.424,154.9l4.844-2.165c12.895-5.77,28.194-3.773,38.621,5.76a91,91,0,0,0,120.849,1.844,40.75,40.75,0,0,1,43.239-6.468h0a41.02,41.02,0,0,1,24.006,36.822c.041,1.7.124,3.409.257,5.127,3.413,44.273,39.24,80.195,83.506,83.706a91.288,91.288,0,0,0,98.3-98.339" data-name="Path 103" id="Path_103"/><path fill="#fff" transform="translate(85.695 95.696)" d="M79.5,12.108A67.388,67.388,0,1,1,12.107,79.495,67.389,67.389,0,0,1,79.5,12.108" data-name="Path 104" id="Path_104"/><path fill="#fff" transform="translate(192.709 143.57)" d="M257.669,129.057A67.388,67.388,0,1,1,190.281,61.67a67.388,67.388,0,0,1,67.389,67.387" data-name="Path 105" id="Path_105"/><path fill="#fff" transform="translate(299.722 95.696)" d="M368.455,79.495a67.388,67.388,0,1,1-67.387-67.387,67.387,67.387,0,0,1,67.387,67.387" data-name="Path 106" id="Path_106"/><path fill="#fff" transform="translate(513.74 95.696)" d="M590.018,79.495a67.388,67.388,0,1,1-67.387-67.387,67.387,67.387,0,0,1,67.387,67.387" data-name="Path 107" id="Path_107"/><path fill="#fff" transform="translate(406.736 143.57)" d="M479.241,129.057A67.388,67.388,0,1,1,411.855,61.67a67.386,67.386,0,0,1,67.387,67.387" data-name="Path 108" id="Path_108"/><path fill="#fff" transform="translate(620.753 143.57)" d="M700.8,129.057A67.388,67.388,0,1,1,633.418,61.67,67.386,67.386,0,0,1,700.8,129.057" data-name="Path 109" id="Path_109"/></g><g clip-path="url(#clip-path-2)" transform="translate(18 -371.949)" data-name="Mask Group 21" id="Mask_Group_21"><g transform="translate(94.472 454.482)" data-name="Group 25" id="Group_25"><path stroke-width="0.4" stroke="#fff" fill="#1c54f8" transform="translate(-581.084 -561.778)" d="M629.545,624.269a9.465,9.465,0,1,1,9.464-9.465A9.464,9.464,0,0,1,629.545,624.269Zm0-16.255a6.791,6.791,0,1,0,6.791,6.791A6.791,6.791,0,0,0,629.545,608.014Z" data-name="Path 110" id="Path_110"/><path stroke-width="0.4" stroke="#fff" fill="#1c54f8" transform="translate(-631.629 -626.115)" d="M679.085,682.741a1.333,1.333,0,0,1-.947-.391l-2.513-2.515a1.337,1.337,0,0,1,1.891-1.891l1.569,1.569,3.578-3.578a1.337,1.337,0,0,1,1.891,1.891l-4.524,4.524A1.337,1.337,0,0,1,679.085,682.741Z" data-name="Path 111" id="Path_111"/><path stroke-width="0.4" stroke="#fff" fill="#1c54f8" transform="translate(-153.38 -84)" d="M197.356,153.52H159.2a5.827,5.827,0,0,1-5.821-5.821V89.821A5.827,5.827,0,0,1,159.2,84h38.155a5.827,5.827,0,0,1,5.821,5.821V128.9a1.337,1.337,0,1,1-2.674,0V89.821a3.151,3.151,0,0,0-3.148-3.148H159.2a3.151,3.151,0,0,0-3.148,3.148V147.7a3.151,3.151,0,0,0,3.148,3.148h38.155A3.151,3.151,0,0,0,200.5,147.7v-2.544a1.337,1.337,0,1,1,2.674,0V147.7a5.827,5.827,0,0,1-5.821,5.821Z" data-name="Path 112" id="Path_112"/><path stroke-width="0.4" stroke="#fff" fill="#1c54f8" transform="translate(-348.115 -227.487)" d="M391.032,243.244H367.207a1.337,1.337,0,1,1,0-2.674h23.825a1.337,1.337,0,1,1,0,2.674Z" data-name="Path 113" id="Path_113"/><path stroke-width="0.4" stroke="#fff" fill="#1c54f8" transform="translate(-348.115 -376.217)" d="M391.032,405.534H367.207a1.337,1.337,0,0,1,0-2.674h23.825a1.337,1.337,0,0,1,0,2.674Z" data-name="Path 114" id="Path_114"/><path stroke-width="0.4" stroke="#fff" fill="#1c54f8" transform="translate(-348.115 -524.937)" d="M391.032,567.814H367.207a1.337,1.337,0,1,1,0-2.674h23.825a1.337,1.337,0,1,1,0,2.674Z" data-name="Path 115" id="Path_115"/><path stroke-width="0.4" stroke="#fff" fill="#1c54f8" transform="translate(-348.115 -673.667)" d="M388.715,730.1H367.207a1.337,1.337,0,0,1,0-2.674h21.509a1.337,1.337,0,0,1,0,2.674Z" data-name="Path 116" id="Path_116"/><path stroke-width="0.4" stroke="#fff" fill="#1c54f8" transform="translate(-214.195 -188.988)" d="M228.1,208.253h-7.019a1.337,1.337,0,0,1-1.337-1.337V199.9a1.337,1.337,0,0,1,1.337-1.337H228.1a1.337,1.337,0,0,1,1.337,1.337v7.019A1.337,1.337,0,0,1,228.1,208.253Zm-5.682-2.674h4.345v-4.345h-4.345Z" data-name="Path 117" id="Path_117"/><path stroke-width="0.4" stroke="#fff" fill="#1c54f8" transform="translate(-214.195 -337.717)" d="M228.1,370.543h-7.019a1.337,1.337,0,0,1-1.337-1.337v-7.019a1.337,1.337,0,0,1,1.337-1.337H228.1a1.337,1.337,0,0,1,1.337,1.337v7.019A1.337,1.337,0,0,1,228.1,370.543Zm-5.682-2.674h4.345v-4.345h-4.345Z" data-name="Path 118" id="Path_118"/><path stroke-width="0.4" stroke="#fff" fill="#1c54f8" transform="translate(-214.195 -486.437)" d="M228.1,532.823h-7.019a1.337,1.337,0,0,1-1.337-1.337v-7.019a1.337,1.337,0,0,1,1.337-1.337H228.1a1.337,1.337,0,0,1,1.337,1.337v7.019A1.337,1.337,0,0,1,228.1,532.823Zm-5.682-2.674h4.345V525.8h-4.345Z" data-name="Path 119" id="Path_119"/><path stroke-width="0.4" stroke="#fff" fill="#1c54f8" transform="translate(-214.195 -635.167)" d="M228.1,695.113h-7.019a1.337,1.337,0,0,1-1.337-1.337v-7.019a1.337,1.337,0,0,1,1.337-1.337H228.1a1.337,1.337,0,0,1,1.337,1.337v7.019A1.337,1.337,0,0,1,228.1,695.113Zm-5.682-2.674h4.345v-4.345h-4.345Z" data-name="Path 120" id="Path_120"/></g></g><g clip-path="url(#clip-path-3)" transform="translate(235 114.817)" data-name="Mask Group 22" id="Mask_Group_22"><g transform="translate(90.04 60.03)" data-name="Group 26" id="Group_26"><path fill="#1c54f8" transform="translate(-9.141 -5.001)" d="M60.6,37.149a18.249,18.249,0,1,0-36.5,0c0,5.856,2.52,9.852,5.188,14.081a46.02,46.02,0,0,1,4.9,9.4A3.413,3.413,0,0,0,32.753,63.4v7.67A3.426,3.426,0,0,0,36.174,74.5h.9a5.643,5.643,0,0,0,10.564,0h.9a3.425,3.425,0,0,0,3.421-3.422V63.4a3.413,3.413,0,0,0-1.435-2.775,46.06,46.06,0,0,1,4.9-9.4C58.082,47,60.6,43,60.6,37.149ZM42.353,76.254A3.767,3.767,0,0,1,39.19,74.5h6.326A3.771,3.771,0,0,1,42.353,76.254Zm7.7-5.179A1.524,1.524,0,0,1,48.53,72.6H36.174a1.524,1.524,0,0,1-1.522-1.522V63.4a1.524,1.524,0,0,1,1.522-1.522H48.53A1.524,1.524,0,0,1,50.052,63.4ZM48.724,60c-.065,0-.128-.02-.193-.02H43.3v-9.9l1.1,0h0a.949.949,0,0,0,.949-.945,1.822,1.822,0,0,1,3.173-1.3.949.949,0,0,0,.671.281,1.117,1.117,0,0,0,.673-.275l3-2.969a.951.951,0,0,0,.007-1.344,1.837,1.837,0,0,1-.456-2.021,1.936,1.936,0,0,1,1.8-1.188.95.95,0,0,0,.93-.945l.023-4.172a.949.949,0,0,0-.945-.955,1.822,1.822,0,0,1-1.3-3.173.951.951,0,0,0,.007-1.344l-2.969-3a.949.949,0,0,0-.671-.281.836.836,0,0,0-.673.275,1.821,1.821,0,0,1-3.161-1.327.949.949,0,0,0-.945-.954l-4.219-.02h0a.95.95,0,0,0-.95.945,1.822,1.822,0,0,1-3.174,1.3.949.949,0,0,0-.671-.281.875.875,0,0,0-.673.275l-3,2.969a.95.95,0,0,0-.007,1.344,1.821,1.821,0,0,1-1.315,3.161H30.5a.949.949,0,0,0-.949.945l-.02,4.219a.95.95,0,0,0,.945.954,1.822,1.822,0,0,1,1.3,3.174.951.951,0,0,0-.007,1.344l2.968,3a.95.95,0,0,0,1.344.007,1.822,1.822,0,0,1,3.162,1.327.95.95,0,0,0,.945.954l1.219.006v9.912H36.173c-.066,0-.128.015-.193.02A48.268,48.268,0,0,0,30.9,50.215C28.27,46.051,26,42.454,26,37.147a16.349,16.349,0,0,1,32.7,0c0,5.307-2.268,8.9-4.894,13.068A48.32,48.32,0,0,0,48.724,60ZM34,40.675a3.674,3.674,0,0,0-2.565-2.2l.012-2.538a3.7,3.7,0,0,0,2.326-5.54l1.8-1.787a3.7,3.7,0,0,0,5.563-2.273l2.538.012a3.7,3.7,0,0,0,5.541,2.326L51,30.479a3.7,3.7,0,0,0,2.273,5.562l-.014,2.511a3.759,3.759,0,0,0-2.6,2.252,3.674,3.674,0,0,0,.277,3.317l-1.8,1.787a3.7,3.7,0,0,0-5.562,2.273l-1.214-.006h-.008l-1.317-.007a3.7,3.7,0,0,0-5.542-2.326l-1.787-1.8A3.669,3.669,0,0,0,34,40.675ZM48.838,65.392a.95.95,0,0,1-.95.95H36.816a.95.95,0,0,1,0-1.9H47.888A.95.95,0,0,1,48.838,65.392Zm0,3.7a.95.95,0,0,1-.95.95H36.816a.95.95,0,1,1,0-1.9H47.888A.95.95,0,0,1,48.838,69.088ZM18.347,38.552a.951.951,0,0,1-.151.258c-.006.007-.007.016-.014.024l-2.847,3.3A.95.95,0,0,1,13.9,40.893l1.492-1.731h-5.3a.95.95,0,0,1,0-1.9h5.3L13.9,35.533a.95.95,0,1,1,1.439-1.24l2.847,3.3c.006.007.007.015.012.021a.955.955,0,0,1,.154.261c0,.012.007.025.011.037a.874.874,0,0,1,0,.6C18.354,38.526,18.352,38.539,18.347,38.552Zm.521-22.48a.95.95,0,0,1,1.344-1.344l3.746,3.746.167-2.279a.95.95,0,0,1,1.9.14l-.32,4.348a.924.924,0,0,1-.045.171.968.968,0,0,1-.035.135.947.947,0,0,1-.493.493.911.911,0,0,1-.131.034.891.891,0,0,1-.175.046l-4.348.32-.071,0a.95.95,0,0,1-.068-1.9l2.279-.167Zm46.969-1.344a.949.949,0,0,1,0,1.344l-3.746,3.746,2.279.167a.95.95,0,0,1-.068,1.9l-.071,0-4.348-.32a.992.992,0,0,1-.171-.044.978.978,0,0,1-.136-.035.943.943,0,0,1-.492-.493.9.9,0,0,1-.034-.132.951.951,0,0,1-.046-.175l-.32-4.348a.95.95,0,0,1,1.9-.14l.167,2.279,3.746-3.746A.95.95,0,0,1,65.837,14.729ZM38.431,11.195a.95.95,0,1,1,1.24-1.439l1.73,1.492v-5.3a.95.95,0,1,1,1.9,0v5.3l1.731-1.493a.95.95,0,0,1,1.24,1.439l-3.3,2.847c-.007.007-.016.008-.024.014a.922.922,0,0,1-.258.151l-.04.012a.936.936,0,0,1-.3.053h0a.946.946,0,0,1-.3-.053c-.013,0-.025-.007-.037-.011a.935.935,0,0,1-.261-.154c-.007-.006-.015-.007-.021-.012ZM75.564,38.213a.95.95,0,0,1-.95.95h-5.3l1.493,1.731a.95.95,0,0,1-1.439,1.241l-2.847-3.3c-.007-.007-.008-.016-.014-.024a.911.911,0,0,1-.151-.258c0-.014-.008-.027-.013-.041a.95.95,0,0,1-.053-.3v0a.942.942,0,0,1,.053-.3c0-.013.007-.026.012-.038a.949.949,0,0,1,.153-.26c.006-.007.007-.015.012-.021l2.847-3.3a.95.95,0,0,1,1.439,1.24l-1.492,1.73h5.3A.951.951,0,0,1,75.564,38.213ZM65.837,60.354A.95.95,0,1,1,64.494,61.7l-3.746-3.746-.167,2.279a.95.95,0,0,1-.946.88l-.071,0a.951.951,0,0,1-.878-1.018l.32-4.348a.921.921,0,0,1,.046-.175.806.806,0,0,1,.527-.624.967.967,0,0,1,.135-.035.925.925,0,0,1,.171-.045l4.348-.32a.95.95,0,0,1,.14,1.9l-2.279.167ZM25.7,55.743l.32,4.348a.951.951,0,0,1-.878,1.018l-.071,0a.95.95,0,0,1-.946-.88l-.167-2.279L20.212,61.7a.95.95,0,0,1-1.343-1.344l3.746-3.746-2.279-.167a.95.95,0,0,1,.14-1.9l4.348.32a.921.921,0,0,1,.175.046.91.91,0,0,1,.131.034.944.944,0,0,1,.493.493.968.968,0,0,1,.035.135A1.094,1.094,0,0,1,25.7,55.743ZM42.353,44.6a7.344,7.344,0,1,0-7.344-7.345A7.353,7.353,0,0,0,42.353,44.6Zm0-12.788a5.444,5.444,0,1,1-5.444,5.444A5.45,5.45,0,0,1,42.353,31.815Z" data-name="Path 121" id="Path_121"/></g></g><g clip-path="url(#clip-path-4)" transform="translate(242 -372.183)" data-name="Mask Group 23" id="Mask_Group_23"><g transform="translate(299.996 452.996)" data-name="Group 27" id="Group_27"><path fill="#1c54f8" transform="translate(-8.625 -2.615)" d="M52.837,55.677A26.173,26.173,0,0,1,49,55.369a1.105,1.105,0,0,1-.936-.938L47.351,49.4a1.106,1.106,0,1,1,2.19-.313l.6,4.2a20.5,20.5,0,0,0,5.4,0l.6-4.2a1.109,1.109,0,0,1,.859-.924,19.249,19.249,0,0,0,6.345-2.636,1.105,1.105,0,0,1,1.261.046l3.4,2.55a20.852,20.852,0,0,0,3.814-3.814l-2.55-3.4a1.106,1.106,0,0,1-.046-1.261,19.273,19.273,0,0,0,2.636-6.345,1.106,1.106,0,0,1,.924-.859l4.2-.6a20.926,20.926,0,0,0,0-5.4l-4.2-.6A1.109,1.109,0,0,1,71.854,25a19.249,19.249,0,0,0-2.636-6.345,1.106,1.106,0,0,1,.046-1.261l2.548-3.4A24.367,24.367,0,0,0,68,10.177l-3.4,2.548a1.109,1.109,0,0,1-1.261.046,19.273,19.273,0,0,0-6.345-2.636,1.106,1.106,0,0,1-.859-.924l-.6-4.2a20.5,20.5,0,0,0-5.4,0l-.6,4.2a1.109,1.109,0,0,1-.859.924,19.27,19.27,0,0,0-6.345,2.636,1.109,1.109,0,0,1-1.261-.046l-3.4-2.548a24.367,24.367,0,0,0-3.815,3.815l2.548,3.4a1.106,1.106,0,0,1,.046,1.261A19.252,19.252,0,0,0,33.821,25a1.106,1.106,0,0,1-.924.859l-4.2.6a20.924,20.924,0,0,0,0,5.4l4.2.6a1.106,1.106,0,1,1-.313,2.19l-5.029-.717a1.106,1.106,0,0,1-.938-.938,26.423,26.423,0,0,1-.306-3.832,26.422,26.422,0,0,1,.306-3.832,1.106,1.106,0,0,1,.938-.938l4.283-.611a21.5,21.5,0,0,1,2.352-5.659l-2.6-3.468a1.1,1.1,0,0,1,0-1.323,26.619,26.619,0,0,1,5.42-5.42,1.1,1.1,0,0,1,1.323,0L41.8,10.5A21.49,21.49,0,0,1,47.458,8.15l.611-4.282a1.106,1.106,0,0,1,.936-.938,23.431,23.431,0,0,1,7.666,0,1.105,1.105,0,0,1,.936.938l.611,4.282A21.484,21.484,0,0,1,63.878,10.5l3.468-2.6a1.1,1.1,0,0,1,1.323,0,26.619,26.619,0,0,1,5.42,5.42,1.1,1.1,0,0,1,0,1.323l-2.6,3.468a21.509,21.509,0,0,1,2.352,5.659l4.282.611a1.106,1.106,0,0,1,.938.936,26.176,26.176,0,0,1,.307,3.833,26.172,26.172,0,0,1-.307,3.833,1.105,1.105,0,0,1-.938.936l-4.282.611a21.484,21.484,0,0,1-2.352,5.659l2.6,3.468a1.1,1.1,0,0,1,0,1.323,24.183,24.183,0,0,1-5.42,5.42,1.1,1.1,0,0,1-1.323,0l-3.468-2.6a21.509,21.509,0,0,1-5.659,2.352l-.611,4.282a1.106,1.106,0,0,1-.936.938,26.176,26.176,0,0,1-3.833.307Z" data-name="Path 122" id="Path_122"/><path fill="#1c54f8" transform="translate(-12.768 -6.746)" d="M57.826,47.606a1.106,1.106,0,0,1-.069-2.21A12.15,12.15,0,1,0,44.865,32.5a1.129,1.129,0,0,1-1.174,1.033,1.105,1.105,0,0,1-1.033-1.174A14.36,14.36,0,1,1,57.9,47.6l-.071,0Z" data-name="Path 123" id="Path_123"/><path fill="#1c54f8" transform="translate(-2.619 -8.998)" d="M52.3,30.064a7.734,7.734,0,0,0-10.94,0L7.649,63.775a1.105,1.105,0,0,0-.266.431L2.676,78.29a1.1,1.1,0,0,0,1.4,1.4l14.083-4.706a1.127,1.127,0,0,0,.431-.266L52.3,41a7.734,7.734,0,0,0,0-10.94Zm-1.563,9.377L17.211,72.967,5.474,76.889,7.2,71.731A7.736,7.736,0,0,1,9.753,73.8a1.105,1.105,0,0,0,1.724-1.384A9.933,9.933,0,0,0,7.9,69.634l1.5-4.482L38.825,35.723l2.857,2.857L13.988,66.812a1.105,1.105,0,1,0,1.578,1.547L43.245,40.143l1.7,1.7a1.105,1.105,0,0,0,1.563-1.563L40.389,34.16l2.534-2.534a5.525,5.525,0,1,1,7.814,7.814Z" data-name="Path 124" id="Path_124"/></g></g><g clip-path="url(#clip-path-5)" transform="translate(209 21.817)" data-name="Mask Group 25" id="Mask_Group_25"><g transform="translate(766.511 61.511)" data-name="Group 29" id="Group_29"><path fill="#1c54f8" transform="translate(-2.55 -2.56)" d="M36.541,30.286a16.121,16.121,0,0,0,1.449-3.493l3.054-.1a1.167,1.167,0,0,0,1.137-1.167V19.206a1.158,1.158,0,0,0-1.137-1.167l-3.054-.1a16.121,16.121,0,0,0-1.449-3.493l2.1-2.229a1.164,1.164,0,0,0-.022-1.627L34.141,6.12A1.157,1.157,0,0,0,32.513,6.1l-2.229,2.1a16.121,16.121,0,0,0-3.493-1.449l-.1-3.054a1.166,1.166,0,0,0-1.167-1.13H19.2a1.156,1.156,0,0,0-1.167,1.13l-.1,3.054a16.179,16.179,0,0,0-3.5,1.449L12.218,6.1a1.164,1.164,0,0,0-1.627.022L6.117,10.593a1.157,1.157,0,0,0-.022,1.627l2.1,2.222a16.179,16.179,0,0,0-1.449,3.5l-3.054.089A1.167,1.167,0,0,0,2.55,19.2v6.324A1.158,1.158,0,0,0,3.687,26.69l3.054.089a16.179,16.179,0,0,0,1.449,3.5L6.095,32.5a1.164,1.164,0,0,0,.022,1.627l4.474,4.466a1.157,1.157,0,0,0,1.627.022l2.222-2.1a16.179,16.179,0,0,0,3.5,1.449l.089,3.054A1.167,1.167,0,0,0,19.2,42.162H25.52a1.158,1.158,0,0,0,1.167-1.137l.089-3.054a16.179,16.179,0,0,0,3.5-1.449l2.229,2.1a1.164,1.164,0,0,0,1.627-.022l4.474-4.474a1.164,1.164,0,0,0,.022-1.627ZM33.3,37.019l-2.14-2.006a1.156,1.156,0,0,0-1.4-.156,14.447,14.447,0,0,1-3.8,1.575,1.151,1.151,0,0,0-.877,1.1l-.089,2.928H19.739l-.089-2.928a1.166,1.166,0,0,0-.877-1.1,14.344,14.344,0,0,1-3.8-1.575,1.155,1.155,0,0,0-1.4.156l-2.133,2.006L7.722,33.3l2.006-2.133a1.156,1.156,0,0,0,.156-1.4,14.3,14.3,0,0,1-1.575-3.8,1.151,1.151,0,0,0-1.1-.877L4.281,25V19.749l2.928-.089a1.166,1.166,0,0,0,1.1-.877,14.344,14.344,0,0,1,1.575-3.8,1.155,1.155,0,0,0-.156-1.4L7.715,11.433,11.43,7.717l2.133,2.006a1.156,1.156,0,0,0,1.4.156,14.447,14.447,0,0,1,3.8-1.575,1.158,1.158,0,0,0,.877-1.1l.089-2.928h5.254L25.074,7.2a1.166,1.166,0,0,0,.877,1.1,14.447,14.447,0,0,1,3.8,1.575,1.156,1.156,0,0,0,1.4-.156l2.14-2.006,3.716,3.716L35,13.573a1.156,1.156,0,0,0-.156,1.4,14.447,14.447,0,0,1,1.575,3.8,1.151,1.151,0,0,0,1.1.877l2.928.089V25l-2.928.089a1.166,1.166,0,0,0-1.1.877,14.447,14.447,0,0,1-1.575,3.8,1.155,1.155,0,0,0,.156,1.4l2.006,2.14ZM25.022,12.459a10.26,10.26,0,1,0,6.227,4.778A10.274,10.274,0,0,0,25.022,12.459Zm5.6,12.12a8.533,8.533,0,1,1-.855-6.473A8.493,8.493,0,0,1,30.618,24.579Zm41.37,28.358-2.4-.074a13.761,13.761,0,0,0-1.115-2.7l1.642-1.746a1.115,1.115,0,0,0-.022-1.553l-3.671-3.671a1.108,1.108,0,0,0-1.553-.022l-1.746,1.642a13.148,13.148,0,0,0-2.7-1.115l-.074-2.4a1.111,1.111,0,0,0-1.115-1.078H54.042A1.115,1.115,0,0,0,52.927,41.3l-.074,2.4a13.576,13.576,0,0,0-2.7,1.115l-1.746-1.642a1.108,1.108,0,0,0-1.553.022l-3.671,3.671a1.108,1.108,0,0,0-.022,1.553L44.8,50.165a13.6,13.6,0,0,0-1.122,2.7l-2.393.074a1.1,1.1,0,0,0-1.078,1.115v5.194a1.111,1.111,0,0,0,1.078,1.115l2.393.074a13.174,13.174,0,0,0,1.122,2.7l-1.642,1.746a1.108,1.108,0,0,0,.022,1.553L46.856,70.1a1.108,1.108,0,0,0,1.553.022l1.746-1.642a13.6,13.6,0,0,0,2.7,1.122L52.927,72a1.1,1.1,0,0,0,1.115,1.078h5.194A1.111,1.111,0,0,0,60.351,72h0l.074-2.393a13.576,13.576,0,0,0,2.7-1.115l1.746,1.642a1.115,1.115,0,0,0,1.553-.022l3.671-3.671a1.108,1.108,0,0,0,.022-1.553L68.473,63.14a13.148,13.148,0,0,0,1.115-2.7l2.4-.074a1.111,1.111,0,0,0,1.078-1.115V54.059A1.107,1.107,0,0,0,71.988,52.937Zm-.639,5.715-2.259.067a1.109,1.109,0,0,0-1.048.84,11.664,11.664,0,0,1-1.278,3.084,1.1,1.1,0,0,0,.149,1.33l1.546,1.65L65.62,68.461l-1.65-1.546a1.11,1.11,0,0,0-1.33-.149,11.665,11.665,0,0,1-3.084,1.278,1.111,1.111,0,0,0-.84,1.048l-.067,2.259H54.636l-.067-2.259a1.109,1.109,0,0,0-.84-1.048,11.562,11.562,0,0,1-3.084-1.278,1.089,1.089,0,0,0-1.33.149l-1.642,1.546-2.839-2.839L46.38,63.98a1.11,1.11,0,0,0,.149-1.33,11.712,11.712,0,0,1-1.278-3.091,1.111,1.111,0,0,0-1.048-.84l-2.259-.067V54.639l2.259-.067a1.109,1.109,0,0,0,1.048-.84,11.563,11.563,0,0,1,1.278-3.084,1.1,1.1,0,0,0-.149-1.33l-1.546-1.642,2.839-2.839,1.642,1.546a1.11,1.11,0,0,0,1.33.149,11.664,11.664,0,0,1,3.084-1.278,1.111,1.111,0,0,0,.84-1.048l.067-2.259h4.02l.067,2.259a1.109,1.109,0,0,0,.84,1.048,11.665,11.665,0,0,1,3.084,1.278,1.11,1.11,0,0,0,1.33-.149l1.65-1.546,2.839,2.839-1.546,1.65a1.11,1.11,0,0,0-.149,1.33A11.665,11.665,0,0,1,68.05,53.74a1.111,1.111,0,0,0,1.048.84l2.259.067v4.005ZM56.643,48.709a7.937,7.937,0,1,0,7.937,7.937A7.945,7.945,0,0,0,56.643,48.709Zm0,14.157a6.22,6.22,0,1,1,6.22-6.22A6.227,6.227,0,0,1,56.643,62.865ZM45.577,22.61,54.4,29.06a.858.858,0,0,0,1.367-.691V26.006c6.406.111,8.687,3.017,10.084,7.32a.861.861,0,0,0,.817.595h.022a.872.872,0,0,0,.81-.647c1.219-4.667.855-8.353-1.063-10.954-1.954-2.653-5.544-4.176-10.671-4.533V15.461A.858.858,0,0,0,54.4,14.77l-8.821,6.45a.866.866,0,0,0,0,1.39Zm8.472-5.447V18.6a.865.865,0,0,0,.825.862c5.024.223,8.449,1.531,10.188,3.879,1.219,1.65,1.657,3.9,1.323,6.71a10.322,10.322,0,0,0-2.616-3.322c-2.021-1.65-4.771-2.452-8.4-2.452-.156,0-.312,0-.476.007a.864.864,0,0,0-.847.862v1.531l-6.5-4.756Zm-17.3,38.792L27.928,49.5a.871.871,0,0,0-.9-.074.861.861,0,0,0-.468.765v2.363c-6.406-.111-8.687-3.017-10.084-7.32a.854.854,0,0,0-.84-.595.874.874,0,0,0-.81.639c-1.219,4.667-.855,8.353,1.063,10.954,1.954,2.653,5.544,4.176,10.671,4.533V63.1a.852.852,0,0,0,.468.765.9.9,0,0,0,.386.1.89.89,0,0,0,.505-.163l8.821-6.45a.871.871,0,0,0,.007-1.39ZM28.277,61.4V59.96a.865.865,0,0,0-.825-.862c-5.024-.223-8.449-1.531-10.188-3.879-1.219-1.65-1.657-3.9-1.323-6.71a10.322,10.322,0,0,0,2.616,3.322c2.11,1.724,5.016,2.527,8.873,2.452a.864.864,0,0,0,.847-.862V51.889l6.5,4.756Zm-4.11-43.087-3.114,3.114-.483-.483a2.357,2.357,0,0,0-3.329,0,2.35,2.35,0,0,0,0,3.329l2.148,2.148a2.332,2.332,0,0,0,1.665.691h0a2.332,2.332,0,0,0,1.665-.691L27.5,21.644a2.354,2.354,0,1,0-3.329-3.329Zm2.11,2.118L21.5,25.211a.628.628,0,0,1-.892,0L18.46,23.063a.632.632,0,0,1,.446-1.078.606.606,0,0,1,.446.186l1.092,1.092a.861.861,0,0,0,1.219,0l3.723-3.723a.631.631,0,1,1,.892.892Z" data-name="Path 130" id="Path_130"/></g></g><text font-family="Georgia" font-size="20" fill="#051c2c" transform="translate(1206 352.817)" id="Zyntellect"><tspan y="0" x="0">Zyntellect</tspan></text><g clip-path="url(#clip-path-6)" transform="translate(-235 -262)" data-name="Mask Group 27" id="Mask_Group_27"><g transform="translate(166 -21)" data-name="Group 31" id="Group_31"><path fill-rule="evenodd" stroke-width="0.4" stroke="#fff" fill="#1c54f8" transform="translate(831 458.853)" d="M62.683,39.694V58.95a1,1,0,0,1-1,1h-22.2l1.023,4.084h8.975a1,1,0,0,1,.97.747l2.149,6.1a1,1,0,0,1-.944,1.329H11.025a1,1,0,0,1-.916-1.411l2.147-6.1a1,1,0,0,1,.944-.671h8.974L23.2,59.947H1a1,1,0,0,1-1-1V16.228a1,1,0,0,1,1-1H43.281l.609-1.471a1,1,0,0,1,1.3-.545l3.475,1.437a12.966,12.966,0,0,1,1.294-1.3L48.523,9.879a1,1,0,0,1,.545-1.3l5.678-2.352a1,1,0,0,1,1.3.545l1.436,3.466a12.8,12.8,0,0,1,1.831,0l1.437-3.466a1,1,0,0,1,1.3-.545l5.678,2.352a1,1,0,0,1,.545,1.3l-1.438,3.475a12.883,12.883,0,0,1,1.3,1.294l3.472-1.438a1,1,0,0,1,1.3.545l2.352,5.678a1,1,0,0,1-.545,1.3l-3.466,1.437a12.909,12.909,0,0,1,0,1.831L74.72,25.44a1,1,0,0,1,.545,1.3l-2.352,5.678a1,1,0,0,1-1.3.545l-3.472-1.438a12.965,12.965,0,0,1-1.3,1.294L68.28,36.3a1,1,0,0,1-.545,1.3ZM22.677,50.1H50.938a1,1,0,1,0,0-2.006H22.677a1,1,0,0,0,0,2.006Zm0-3.984H49.455a1,1,0,1,0,0-2H22.677a1,1,0,0,0,0,2Zm0-3.983H45.009a1,1,0,0,0,0-2.006H22.677a1,1,0,1,0,0,2.006Zm0-7.082H42.136a1,1,0,1,0,0-2.006H22.677a1,1,0,0,0,0,2.006Zm0-3.984H39.45a1,1,0,1,0,0-2.006H22.677a1,1,0,0,0,0,2.006Zm0-3.984H38.153a1,1,0,0,0,0-2H22.677a1,1,0,0,0,0,2ZM11.3,31.066l1.431,1.426a1,1,0,0,0,1.418,0l3.44-3.44a1,1,0,1,0-1.418-1.418l-2.731,2.732-.717-.717A1,1,0,1,0,11.3,31.066Zm4.153,11.62L14.443,43.7l-1.011-1.011A1,1,0,0,0,12.014,44.1l1.011,1.012-1.011,1.011a1,1,0,1,0,1.418,1.418l1.011-1.012,1.011,1.012a1,1,0,1,0,1.422-1.418l-1.013-1.011L16.876,44.1a1,1,0,1,0-1.418-1.417Zm-5.74-3.3a1,1,0,0,0-1,1v9.46a1,1,0,0,0,1,1h9.46a1,1,0,0,0,1-1v-9.46a1,1,0,0,0-1-1Zm8.458,2.006H10.714v7.459h7.459ZM9.714,24.331a1,1,0,0,0-1,1v9.46a1,1,0,0,0,1,1h9.46a1,1,0,0,0,1-1V25.334a1,1,0,0,0-1-1Zm8.458,2.006H10.714V33.8h7.459ZM55.549,16.2a7.459,7.459,0,1,0,5.7,0A7.459,7.459,0,0,0,55.549,16.2ZM60.5,18.044a5.461,5.461,0,1,0,2.952,7.137A5.461,5.461,0,0,0,60.5,18.044ZM43.773,19.272,46.991,20.6a1,1,0,0,1,.625,1.059,10.774,10.774,0,0,0-.008,2.831A1,1,0,0,1,47,25.569l-3.231,1.337,1.587,3.832,3.19-1.321a1,1,0,0,1,1.221.3,10.756,10.756,0,0,0,2.011,2.01h0a1,1,0,0,1,.318,1.174l-1.341,3.24,3.832,1.587,1.334-3.219a1,1,0,0,1,1.059-.624,10.843,10.843,0,0,0,2.829,0,1,1,0,0,1,1.074.608l1.338,3.231,3.832-1.587-1.321-3.19a1,1,0,0,1,.3-1.221,10.733,10.733,0,0,0,2.009-2.01h0a1,1,0,0,1,1.175-.318l3.24,1.341,1.581-3.834-3.219-1.334a1,1,0,0,1-.624-1.059,10.81,10.81,0,0,0,0-2.829A1,1,0,0,1,69.8,20.61l3.231-1.338L71.445,15.44l-3.187,1.321a1,1,0,0,1-1.221-.3,10.8,10.8,0,0,0-2.01-2.009h0a1,1,0,0,1-.317-1.175l1.34-3.24L62.218,8.455l-1.333,3.219a1,1,0,0,1-1.059.624A10.809,10.809,0,0,0,57,12.3a1,1,0,0,1-1.074-.608L54.585,8.455l-3.832,1.587,1.321,3.191a1,1,0,0,1-.3,1.221,10.8,10.8,0,0,0-2.009,2.01h0a1,1,0,0,1-1.174.318L45.35,15.44l-1.587,3.832Zm-1.318-2.041H2.006V57.946h58.67V39.218l-1.356-3.279q-.377.027-.753.032V54.763a1,1,0,0,1-1.006,1H5.118a1,1,0,0,1-1-1V20.416a1,1,0,0,1,1-1H41.546l.9-2.185ZM56.564,38.176l-.511,1.232a1,1,0,0,1-1.3.545L49.067,37.6a1,1,0,0,1-.545-1.3l1.438-3.472a12.958,12.958,0,0,1-1.291-1.3L45.2,32.967a1,1,0,0,1-1.3-.545l-2.352-5.678a1,1,0,0,1,.545-1.3L45.551,24a13.024,13.024,0,0,1,0-1.831l-1.823-.753H6.121V53.76H56.559V38.176ZM39.726,66.042H13.906l-1.469,4.174H50.244l-1.469-4.174Zm-2.307-6.09H25.262l-1.024,4.084h14.2Z" data-name="Path 140" id="Path_140"/></g></g><g clip-path="url(#clip-path-7)" transform="translate(-32 -243)" data-name="Mask Group 28" id="Mask_Group_28"><g transform="translate(0.756 -0.429)" data-name="Group 32" id="Group_32"><path fill-rule="evenodd" fill="#1c54f8" transform="translate(1224.748 416.635)" d="M38.807,18.278a7.9,7.9,0,1,1-7.9,7.9,7.9,7.9,0,0,1,7.9-7.9Zm0,17.5a9.6,9.6,0,1,0-9.6-9.6,9.6,9.6,0,0,0,9.6,9.6ZM24.554,22.434a.853.853,0,0,1-.676.623l-3.75.654v4.931l3.753.655a.856.856,0,0,1,.676.623,14.644,14.644,0,0,0,1.529,3.688.852.852,0,0,1-.039.919l-2.19,3.115,3.485,3.488,3.116-2.19a.849.849,0,0,1,.919-.038,14.671,14.671,0,0,0,3.686,1.529.846.846,0,0,1,.622.676l.657,3.749h4.93l.655-3.749a.85.85,0,0,1,.623-.676A14.7,14.7,0,0,0,46.237,38.9a.849.849,0,0,1,.919.038l3.116,2.19,3.488-3.488-2.19-3.115a.85.85,0,0,1-.039-.919,14.61,14.61,0,0,0,1.529-3.685.854.854,0,0,1,.673-.626l3.75-.654V23.711l-3.75-.654a.853.853,0,0,1-.676-.623,14.575,14.575,0,0,0-1.529-3.686.849.849,0,0,1,.039-.918l2.19-3.118-3.485-3.486-3.116,2.19a.854.854,0,0,1-.919.038,14.665,14.665,0,0,0-3.686-1.529.852.852,0,0,1-.624-.676l-.655-3.754h-4.93l-.655,3.751a.853.853,0,0,1-.624.676,14.671,14.671,0,0,0-3.686,1.529.854.854,0,0,1-.919-.038l-3.116-2.187-3.488,3.486,2.19,3.118a.85.85,0,0,1,.039.918,14.658,14.658,0,0,0-1.529,3.686Zm-5.425-.275a.85.85,0,0,0-.7.838v6.362a.849.849,0,0,0,.7.838l3.928.687a16.25,16.25,0,0,0,1.291,3.1l-2.294,3.264a.851.851,0,0,0,.1,1.09l4.5,4.5a.85.85,0,0,0,1.091.094L31,40.643a16.271,16.271,0,0,0,3.1,1.291l.687,3.927a.85.85,0,0,0,.838.7h6.363a.85.85,0,0,0,.837-.7l.685-3.927a16.368,16.368,0,0,0,3.106-1.291l3.262,2.292a.85.85,0,0,0,1.091-.094l4.5-4.5a.85.85,0,0,0,.094-1.09l-2.292-3.264a16.345,16.345,0,0,0,1.291-3.1l3.926-.685a.852.852,0,0,0,.7-.84V23a.851.851,0,0,0-.7-.838l-3.926-.687a16.345,16.345,0,0,0-1.291-3.1L55.561,15.1a.852.852,0,0,0-.094-1.092l-4.5-4.5a.85.85,0,0,0-1.091-.1l-3.263,2.291a16.374,16.374,0,0,0-3.106-1.285L42.823,6.5a.85.85,0,0,0-.838-.705h-6.36a.85.85,0,0,0-.838.705L34.1,10.427A16.338,16.338,0,0,0,31,11.712L27.735,9.421a.85.85,0,0,0-1.091.1l-4.5,4.5a.852.852,0,0,0-.1,1.09l2.294,3.262a16.315,16.315,0,0,0-1.291,3.1l-3.928.687ZM11.786,38.274l-1.907-6.5a.843.843,0,0,1-.024-.373l.607-3.838a1.941,1.941,0,0,0-.027-.795C9.68,23.492,8.712,22.662,8.2,22.458c-.18-.073-.726-.291-1.834.444a2,2,0,0,0-.932,1.616L4.207,44.372a2.772,2.772,0,0,0,.936,2.312L18.878,59.212a2.266,2.266,0,0,1,.756,1.667l.031,1.446,14.22.051-.4-7.6v-.023a9.129,9.129,0,0,0-9.722-8.874.846.846,0,0,1-.63-.219L16.577,39.68a2.83,2.83,0,1,0-3.814,4.181L20.92,51.3a.852.852,0,1,1-1.148,1.259l-8.155-7.447a4.536,4.536,0,0,1-.294-6.4,4.428,4.428,0,0,1,.464-.441Zm23.955,32.5a.623.623,0,0,1-.623.62h0l-16.492-.057a.633.633,0,0,1-.439-.185.623.623,0,0,1-.181-.44l.021-6.064a.624.624,0,0,1,.623-.62h0l16.129.057h.363a.625.625,0,0,1,.62.623ZM12.093,26.389c-.717-3.119-1.784-4.922-3.26-5.513a3.6,3.6,0,0,0-3.4.608,3.723,3.723,0,0,0-1.694,2.929L2.51,44.268A4.446,4.446,0,0,0,4,47.941L17.73,60.472a.581.581,0,0,1,.2.446l.032,1.509a2.329,2.329,0,0,0-1.64,2.212L16.3,70.7a2.329,2.329,0,0,0,2.316,2.331l16.492.059h.006a2.329,2.329,0,0,0,2.325-2.316l.021-6.064a2.327,2.327,0,0,0-1.873-2.287l-.41-7.733a10.829,10.829,0,0,0-11.167-10.53l-6.293-5.741a4.5,4.5,0,0,0-3.263-1.174,4.57,4.57,0,0,0-1.144.2l-1.753-5.965.579-3.649a3.674,3.674,0,0,0-.05-1.444Zm55.642,5.391-1.908,6.5a4.438,4.438,0,0,1,.465.441,4.537,4.537,0,0,1-.294,6.4l-8.157,7.444A.851.851,0,0,1,56.7,51.3l8.156-7.442a2.83,2.83,0,1,0-3.814-4.181l-6.552,5.975a.848.848,0,0,1-.63.219,9.129,9.129,0,0,0-9.722,8.871v.027l-.4,7.608,14.219-.051.031-1.446a2.268,2.268,0,0,1,.757-1.673L72.471,46.685a2.769,2.769,0,0,0,.936-2.312l-1.23-19.855a2,2,0,0,0-.931-1.614c-1.106-.735-1.654-.516-1.835-.444-.51.2-1.478,1.034-2.232,4.313a1.928,1.928,0,0,0-.027.795l.607,3.838a.843.843,0,0,1-.024.373Zm-8.31,39.374a.629.629,0,0,1-.438.185L42.5,71.4h0a.623.623,0,0,1-.622-.62l-.022-6.066a.625.625,0,0,1,.62-.623h.364l16.128-.057h0a.624.624,0,0,1,.623.62l.021,6.064a.62.62,0,0,1-.182.44Zm3.726-33.9a4.5,4.5,0,0,0-3.262,1.174L53.6,44.165A10.829,10.829,0,0,0,42.432,54.694l-.41,7.734a2.327,2.327,0,0,0-1.873,2.287l.022,6.064A2.327,2.327,0,0,0,42.495,73.1H42.5l16.492-.059a2.328,2.328,0,0,0,2.316-2.331l-.02-6.066a2.328,2.328,0,0,0-1.64-2.212l.033-1.51a.577.577,0,0,1,.2-.445L73.619,47.941a4.451,4.451,0,0,0,1.487-3.673L73.877,24.412a3.723,3.723,0,0,0-1.69-2.929,3.6,3.6,0,0,0-3.4-.608c-1.477.589-2.543,2.394-3.261,5.513a3.719,3.719,0,0,0-.049,1.444l.579,3.649L64.3,37.447a4.57,4.57,0,0,0-1.144-.2Z" data-name="Path 141" id="Path_141"/></g></g></g></g></svg>