<svg width="215" height="215" viewBox="0 0 215 215" fill="none" xmlns="http://www.w3.org/2000/svg">
<path d="M209.539 183.554L182.119 156.146C180.687 154.715 178.843 153.767 176.845 153.436C174.847 153.105 172.796 153.408 170.978 154.301L161.699 145.022C175.598 126.933 182.094 104.233 179.869 81.5292C177.644 58.8255 166.864 37.8189 149.717 22.7726C132.57 7.72635 110.341 -0.232358 87.5403 0.511706C64.7399 1.25577 43.0767 10.6469 26.9472 26.7791C10.8515 42.9157 1.49129 64.5672 0.762747 87.3473C0.0341982 110.127 7.9918 132.333 23.0235 149.465C38.0552 166.597 59.037 177.375 81.7183 179.615C104.4 181.856 127.085 175.391 145.178 161.531L154.457 170.81C153.565 172.629 153.264 174.681 153.597 176.679C153.93 178.677 154.881 180.521 156.315 181.951L183.734 209.371C187.174 212.714 191.792 214.569 196.589 214.535C201.386 214.501 205.977 212.58 209.369 209.188C212.761 205.796 214.682 201.205 214.716 196.408C214.75 191.611 212.895 186.994 209.552 183.554H209.539ZM143.466 154.891L143.383 154.967C126.793 168.567 105.607 175.265 84.2139 173.673C62.8209 172.081 42.8596 162.322 28.4647 146.417C14.0697 130.511 6.34408 109.678 6.88793 88.2331C7.43178 66.7878 16.2034 46.3733 31.3861 31.218C46.5518 16.0891 66.9491 7.36321 88.3643 6.84277C109.779 6.32233 130.577 14.0471 146.459 28.4214C162.342 42.7957 172.097 62.7213 173.709 84.082C175.321 105.443 168.668 126.607 155.122 143.202L155.03 143.311C153.306 145.403 151.474 147.421 149.533 149.365C147.592 151.309 145.569 153.151 143.466 154.891ZM150.039 157.51C151.382 156.314 152.7 155.084 153.98 153.804C155.26 152.523 156.49 151.205 157.687 149.863L166.175 158.355L158.532 165.999L150.039 157.51ZM205.1 204.932C202.853 207.176 199.807 208.437 196.63 208.437C193.454 208.437 190.408 207.176 188.161 204.932L160.741 177.512C160.098 176.868 159.737 175.994 159.737 175.084C159.737 174.173 160.098 173.3 160.741 172.655L172.823 160.573C173.468 159.93 174.341 159.569 175.252 159.569C176.162 159.569 177.036 159.93 177.68 160.573L205.1 187.992C207.345 190.24 208.605 193.286 208.605 196.462C208.605 199.638 207.345 202.685 205.1 204.932ZM124.552 67.871H111.583V63.0473C111.581 60.7078 110.651 58.4646 108.998 56.8092C107.345 55.1538 105.103 54.2211 102.764 54.2156H78.1636C75.822 54.2178 73.5769 55.149 71.9211 56.8048C70.2653 58.4606 69.3341 60.7056 69.3319 63.0473V67.871H56.3626C54.1648 67.8722 52.0574 68.7457 50.5034 70.2997C48.9494 71.8538 48.0758 73.9612 48.0747 76.1589V118.075C48.0758 120.273 48.9492 122.381 50.5031 123.936C52.057 125.49 54.1644 126.365 56.3626 126.367H124.556C126.754 126.364 128.861 125.489 130.415 123.934C131.968 122.38 132.842 120.273 132.844 118.075V76.1589C132.842 73.9608 131.967 71.8534 130.413 70.2995C128.858 68.7456 126.75 67.8722 124.552 67.871ZM75.6032 63.0473C75.6043 62.3697 75.874 61.7201 76.3532 61.241C76.8323 60.7618 77.4818 60.4922 78.1595 60.4911H102.764C103.441 60.4922 104.091 60.7618 104.57 61.241C105.049 61.7201 105.319 62.3697 105.32 63.0473V67.871H75.6158L75.6032 63.0473ZM126.569 118.075C126.569 118.61 126.356 119.123 125.978 119.501C125.6 119.879 125.087 120.092 124.552 120.092H56.3584C55.8243 120.09 55.3124 119.878 54.9352 119.499C54.5579 119.121 54.346 118.609 54.346 118.075V91.4669L81.0378 103.085V105.127C81.04 106.735 81.6799 108.277 82.817 109.414C83.9542 110.551 85.4959 111.191 87.1041 111.193H93.798C95.4062 111.191 96.9479 110.551 98.0851 109.414C99.2223 108.277 99.8621 106.735 99.8643 105.127V103.085L126.569 91.4669V118.075ZM87.3217 104.917V98.6419H93.5972V104.917H87.3217ZM126.569 84.6057L99.5129 96.3785C99.0929 95.2007 98.3192 94.1815 97.2977 93.4603C96.2762 92.7391 95.0568 92.3512 93.8064 92.3497H87.1125C85.8639 92.3579 84.6482 92.7508 83.6309 93.4747C82.6135 94.1986 81.8439 95.2184 81.4269 96.3953L54.3544 84.6057V76.1589C54.3555 75.6255 54.5679 75.1143 54.945 74.7372C55.3222 74.36 55.8334 74.1477 56.3667 74.1465H124.56C125.095 74.1465 125.607 74.3584 125.985 74.7357C126.363 75.113 126.576 75.6248 126.577 76.1589L126.569 84.6057ZM142.002 38.7486C113.583 10.3289 67.3363 10.3289 38.9167 38.7486C25.2467 52.4185 17.567 70.959 17.567 90.2913C17.567 109.624 25.2467 128.164 38.9167 141.834C52.5867 155.504 71.1271 163.184 90.4594 163.184C109.792 163.184 128.332 155.504 142.002 141.834C148.771 135.065 154.14 127.03 157.803 118.186C161.467 109.342 163.352 99.8637 163.352 90.2913C163.352 80.7189 161.467 71.2403 157.803 62.3965C154.14 53.5528 148.771 45.5172 142.002 38.7486ZM137.568 137.399C126.669 148.3 112.328 155.085 96.9886 156.597C81.6488 158.11 66.259 154.257 53.4417 145.694C40.6244 137.132 31.1726 124.39 26.6967 109.64C22.2209 94.8898 22.998 79.044 28.8957 64.8027C34.7933 50.5613 45.4466 38.8055 59.0402 31.5383C72.6339 24.2712 88.3268 21.9423 103.445 24.9485C118.563 27.9548 132.171 36.1102 141.951 48.0251C151.73 59.9399 157.075 74.8771 157.076 90.2913C157.087 99.0414 155.37 107.708 152.022 115.792C148.674 123.876 143.762 131.219 137.568 137.399Z" fill="#E5E5EF"/>
</svg>
