<?xml version="1.0" encoding="UTF-8"?> <svg xmlns="http://www.w3.org/2000/svg" id="Group_15" data-name="Group 15" width="1920" height="475" viewBox="0 0 1920 475"><rect id="Rectangle_9" data-name="Rectangle 9" width="1920" height="475" fill="#fff" opacity="0"></rect><g id="Group_14" data-name="Group 14" transform="translate(-0.084)"><path id="Path_1" data-name="Path 1" d="M563.886,534.152l16.606-28.161H834.331l28.8-46.125L815.619,386.8H849.6l46.583,73.063L849.6,534.152Z" transform="translate(-505.802 -282.256)" fill="#fff" stroke="#1b54f8" stroke-width="2"></path><path id="Path_4" data-name="Path 4" d="M571.544,534l-17.787-28,280.574-.008,28.8-46.125L815.619,386.8H849.6l46.583,73.063L849.6,534.152Z" transform="translate(85.328 -282.256)" fill="#fff" stroke="#1b54f8" stroke-width="2"></path><path id="Path_5" data-name="Path 5" d="M570.907,534l-16.86-28,280.284-.008,28.8-46.125L815.619,386.8H849.6l46.583,73.063L850.39,534Z" transform="translate(677.038 -282.256)" fill="#fff" stroke="#1b54f8" stroke-width="2"></path><path id="Path_2" data-name="Path 2" d="M585.9,385.06l-16.981,28.169,264.56-.077,29.653,47.938-47.512,73.063H849.6l46.582-73.062-47.205-75.937Z" transform="translate(-217.834 -161.409)" fill="#fff" stroke="#1b54f8" stroke-width="2"></path><path id="Path_3" data-name="Path 3" d="M585.795,386.152l-17.157,28H834.327l28.8,46.938-47.512,73.063H849.6l46.582-73.062-46.114-74.937Z" transform="translate(374.447 -162.409)" fill="#fff" stroke="#1b54f8" stroke-width="2"></path><path id="Path_6" data-name="Path 6" d="M585.812,386.152l-17.457,28h266.2l28.581,46.938-47.512,73.063H849.6l46.582-73.062-45.97-74.937Z" transform="translate(965.73 -162.409)" fill="#fff" stroke="#1b54f8" stroke-width="2"></path><g id="Group_2" data-name="Group 2" transform="translate(-175.416 -465)"><g id="Group_1" data-name="Group 1"><g id="Ellipse_2" data-name="Ellipse 2" transform="translate(302 522)" fill="none" stroke="#051c2c" stroke-width="6"><circle cx="83" cy="83" r="83" stroke="none"></circle><circle cx="83" cy="83" r="80" fill="none"></circle></g></g></g><g id="Group_4" data-name="Group 4" transform="translate(431.136 251.744)"><g id="Group_1-2" data-name="Group 1"><g id="Ellipse_2-2" data-name="Ellipse 2" fill="none" stroke="#051c2c" stroke-width="6"><circle cx="83" cy="83" r="83" stroke="none"></circle><circle cx="83" cy="83" r="80" fill="none"></circle></g></g></g><g id="Group_5" data-name="Group 5" transform="translate(1022.996 251.744)"><g id="Group_1-3" data-name="Group 1"><g id="Ellipse_2-3" data-name="Ellipse 2" fill="none" stroke="#051c2c" stroke-width="6"><circle cx="83" cy="83" r="83" stroke="none"></circle><circle cx="83" cy="83" r="80" fill="none"></circle></g></g></g><g id="Group_7" data-name="Group 7" transform="translate(1614.855 251.896)"><g id="Group_1-4" data-name="Group 1"><g id="Ellipse_2-4" data-name="Ellipse 2" fill="none" stroke="#051c2c" stroke-width="6"><circle cx="83" cy="83" r="83" stroke="none"></circle><circle cx="83" cy="83" r="80" fill="none"></circle></g></g></g><g id="Group_3" data-name="Group 3" transform="translate(425.556 -464.256)"><g id="Group_1-5" data-name="Group 1"><g id="Ellipse_2-5" data-name="Ellipse 2" transform="translate(302 522)" fill="none" stroke="#051c2c" stroke-width="6"><circle cx="83" cy="83" r="83" stroke="none"></circle><circle cx="83" cy="83" r="80" fill="none"></circle></g></g></g><g id="Group_6" data-name="Group 6" transform="translate(1017.701 -465)"><g id="Group_1-6" data-name="Group 1"><g id="Ellipse_2-6" data-name="Ellipse 2" transform="translate(302 522)" fill="none" stroke="#051c2c" stroke-width="6"><circle cx="83" cy="83" r="83" stroke="none"></circle><circle cx="83" cy="83" r="80" fill="none"></circle></g></g></g><text id="Problem_definition_and_requirements_gathering" data-name="Problem definition and requirements gathering" transform="translate(209.584 290.744)" font-size="24" font-family="OpenSans-Bold, Open Sans" font-weight="700"><tspan x="-112" y="0">Problem definition</tspan><tspan x="-107" y="33">and requirements</tspan><tspan x="-57" y="66">gathering</tspan></text><text id="Design_and_planning" data-name="Design and planning" transform="translate(514.718 171.146)" font-size="24" font-family="OpenSans-Bold, Open Sans" font-weight="700"><tspan x="-66" y="0">Design and</tspan><tspan x="-52" y="33">planning</tspan></text><text id="Implementation" transform="translate(713.056 293.744)" font-size="24" font-family="OpenSans-Bold, Open Sans" font-weight="700"><tspan x="0" y="0">Implementation</tspan></text><text id="Testing_and_validation" data-name="Testing and validation" transform="translate(1100.252 171.146)" font-size="24" font-family="OpenSans-Bold, Open Sans" font-weight="700"><tspan x="-68" y="0">Testing and</tspan><tspan x="-60" y="33">validation</tspan></text><text id="Deployment" transform="translate(1329.701 292.744)" font-size="24" font-family="OpenSans-Bold, Open Sans" font-weight="700"><tspan x="0" y="0">Deployment</tspan></text><text id="Monitoring_and_maintenance" data-name="Monitoring and maintenance" transform="translate(1697.855 168.744)" font-size="24" font-family="OpenSans-Bold, Open Sans" font-weight="700"><tspan x="-92" y="0">Monitoring and</tspan><tspan x="-79" y="33">maintenance</tspan></text><g id="Group_8" data-name="Group 8" transform="translate(-194.434 -593.267)"><path id="Path_7" data-name="Path 7" d="M296.41,318.444h.07c-.024-.02-.047-.042-.07-.062Z" transform="translate(101.842 415.578)" fill="#1b54f8"></path><path id="Path_8" data-name="Path 8" d="M109.632,167.326a4.379,4.379,0,1,0,6,0,1.312,1.312,0,0,1,.9-2.265H126.66v-2.726a25.733,25.733,0,0,1-4.612-25.712H98.366v28.438h10.366C109.269,165.062,110.023,166.957,109.632,167.326Z" transform="translate(268.969 568.962)" fill="none" stroke="#1b54f8" stroke-width="2"></path><path id="Path_9" data-name="Path 9" d="M132.115,354.212a4.382,4.382,0,1,0,0-8.764,4.325,4.325,0,0,0-3.181,1.382,1.312,1.312,0,0,1-2.268-.9V335.574h-7.62a7.005,7.005,0,1,1-12.82,0H98.371v28.293h28.294V353.73a1.312,1.312,0,0,1,2.267-.9,4.318,4.318,0,0,0,3.173,1.379s0,0,.01,0Z" transform="translate(268.965 401.07)" fill="none" stroke="#1b54f8" stroke-width="2"></path><path id="Path_10" data-name="Path 10" d="M321.624,337.965a25.473,25.473,0,0,1-8.163,1.354h0a26.041,26.041,0,0,1-5.324-.553,25.753,25.753,0,0,1-8.075-3.186H296.4v7.853a7,7,0,1,1,2.831,13.409h-.018a6.956,6.956,0,0,1-2.814-.6v7.631h28.436V346.53l-2.816-5.912a4.541,4.541,0,0,1-.4-2.653Z" transform="translate(101.851 401.066)" fill="none" stroke="#1b54f8" stroke-width="2"></path><path id="Path_11" data-name="Path 11" d="M308.7,107.023,296.441,88.707a2.321,2.321,0,0,0-3.014-.72l-.714.411-1.238-2.153a23.309,23.309,0,1,0-13,3.978h0a23.268,23.268,0,0,0,10.893-2.732l1.224,2.128-.514.3a2.274,2.274,0,0,0-.911,2.953l9.474,19.894a2.124,2.124,0,0,0,1.918,1.205,2.15,2.15,0,0,0,1.067-.284l6.354-3.616a2.134,2.134,0,0,0,.726-3.046ZM278.47,87.775a21.063,21.063,0,1,1,20.591-16.746A21.18,21.18,0,0,1,278.47,87.775ZM300.7,111.394l-9.258-19.439,3.052-1.756,11.989,17.9Z" transform="translate(136.838 647.8)" fill="#1b54f8"></path><path id="Path_12" data-name="Path 12" d="M366.994,121.425a7.348,7.348,0,0,0-2.474-1.3,10.1,10.1,0,0,0-2.994-.434,9.021,9.021,0,0,0-5.954,1.922,7.983,7.983,0,0,0-2.7,5.59l5.331.346a3.484,3.484,0,0,1,.951-2.18,3.238,3.238,0,0,1,2.474-.9,2.568,2.568,0,0,1,1.784.64,2.283,2.283,0,0,1,.709,1.783,2.111,2.111,0,0,1-.329,1.125,6.648,6.648,0,0,1-.917,1.143q-.586.606-1.4,1.3t-1.783,1.627a3.649,3.649,0,0,0-.934,1.35,4.988,4.988,0,0,0-.276,1.766v1.522h5.191v-1a2.725,2.725,0,0,1,.278-1.177,3.566,3.566,0,0,1,1.073-1.212,22.331,22.331,0,0,0,2.059-1.783,9.252,9.252,0,0,0,1.315-1.609,5.636,5.636,0,0,0,.711-1.609,7.321,7.321,0,0,0,.208-1.817,6.644,6.644,0,0,0-.623-2.942,6.244,6.244,0,0,0-1.7-2.147Z" transform="translate(54.195 583.248)" fill="#1b54f8" stroke="#fff" stroke-width="1"></path><path id="Path_13" data-name="Path 13" d="M390.486,242.119a3.061,3.061,0,0,0-1.021-.674,3.33,3.33,0,0,0-2.493,0,3.049,3.049,0,0,0-1.695,1.695,3.328,3.328,0,0,0,0,2.492,3.062,3.062,0,0,0,.674,1.021,3.1,3.1,0,0,0,1.021.675,3.338,3.338,0,0,0,2.493,0,3.056,3.056,0,0,0,1.695-1.7,3.329,3.329,0,0,0,0-2.492A3.082,3.082,0,0,0,390.486,242.119Z" transform="translate(27.052 480.708)" fill="#1b54f8" stroke="#fff" stroke-width="1"></path></g><g id="Group_10" data-name="Group 10" transform="translate(-355.907 -342.61)"><path id="Path_57" data-name="Path 57" d="M144.092,0a14.98,14.98,0,0,0-14.836,13.094L78.308,13.4a8.994,8.994,0,0,0-9.353,9.149v.221c.012.793-.021,23.355.73,23.607a1.849,1.849,0,0,0,.6.109,1.777,1.777,0,0,0,.6-.1l1.812.878s0-23.7,0-24.5a5.337,5.337,0,0,1,5.612-5.621l50.82-.308V74.825a1.871,1.871,0,0,0,3.742,0,11.223,11.223,0,1,1,11.224,11.224l-61.277-.1a1.871,1.871,0,1,0,0,3.741l61.277.1a14.986,14.986,0,0,0,14.693-12.126,1.855,1.855,0,0,0,.271-.969V14.965A14.981,14.981,0,0,0,144.093,0Zm11.224,64.937a14.945,14.945,0,0,0-22.447,0V14.966a11.224,11.224,0,0,1,22.447,0Z" transform="translate(756.038 631.459)" fill="#1b54f8"></path><path id="Path_58" data-name="Path 58" d="M215.612,140a1.872,1.872,0,0,0-1.719,1.136C210,150.249,210,150.79,210,151.224v35.542a1.87,1.87,0,0,0,3.741,0V151.432c.187-.616.946-2.5,1.871-4.736.924,2.234,1.684,4.116,1.871,4.736v40.945h-5.612a1.87,1.87,0,0,0-1.871,1.87V203.6a3.742,3.742,0,0,0,3.741,3.741h3.742a3.742,3.742,0,0,0,3.741-3.741V151.224c0-.434,0-.975-3.893-10.088A1.872,1.872,0,0,0,215.612,140Zm1.871,63.6h-3.742v-7.483h3.741Z" transform="translate(637.752 513.906)" fill="#1b54f8"></path><path id="Path_59" data-name="Path 59" d="M84.958,210H73.735a3.742,3.742,0,0,0-3.741,3.741v48.637a3.664,3.664,0,0,0,3.741,3.741H84.958a3.665,3.665,0,0,0,3.742-3.741V213.741A3.742,3.742,0,0,0,84.959,210Zm0,52.378-11.224-.053v-9.3h3.742a1.87,1.87,0,0,0,0-3.741H73.735V239.93h5.612a1.871,1.871,0,0,0,0-3.742H73.735v-9.353h3.742a1.87,1.87,0,0,0,0-3.741H73.735v-9.353H84.958Z" transform="translate(755.311 455.13)" fill="#1b54f8"></path><path id="Path_60" data-name="Path 60" d="M305.2,219.893a1.87,1.87,0,1,0,0,3.741h11.224a3.74,3.74,0,0,0,3.741-3.741V178.739A3.741,3.741,0,0,0,316.426,175H305.2a1.87,1.87,0,1,0,0,3.741h11.224v7.483H305.2a1.871,1.871,0,0,0-1.871,1.871V214.28a1.871,1.871,0,0,0,3.742,0V189.962h9.353v29.93Z" transform="translate(559.385 484.52)" fill="#1b54f8"></path></g><g id="Group_9" data-name="Group 9" transform="translate(487.124 -567.53)"><path id="Path_14" data-name="Path 14" d="M141.766,113.5a12.555,12.555,0,1,0,12.555,12.555A12.569,12.569,0,0,0,141.766,113.5Zm0,21.9a9.339,9.339,0,1,1,9.339-9.339A9.349,9.349,0,0,1,141.766,135.4Zm47.869-77.285c-9.856,0-17.874,7.5-17.874,16.71a14.437,14.437,0,0,0,2.633,8.567c1.708,2.858,3.476,5.813,3.476,13.1a1.717,1.717,0,0,0,.067.448,4.368,4.368,0,0,0,2.681,6.778,4.34,4.34,0,0,0-.208,1.266,4.388,4.388,0,0,0,4.381,4.383h3.116v23.968c0,.78-.463,1.385-.861,1.385H158.7a18.86,18.86,0,0,0,1.463-3.8h2.59a1.735,1.735,0,0,0,1.732-1.732v-6.243a1.735,1.735,0,0,0-1.732-1.732h-2.59a18.907,18.907,0,0,0-1.959-4.72l1.828-1.828a1.734,1.734,0,0,0,.005-2.454l-4.408-4.408a1.739,1.739,0,0,0-1.225-.508h0a1.749,1.749,0,0,0-1.225.5l-1.831,1.832a18.937,18.937,0,0,0-4.723-1.959v-2.59a1.735,1.735,0,0,0-1.732-1.732h-1.514V81.425c0-.78.463-1.385.861-1.385h10.711a1.609,1.609,0,1,0,0-3.218H144.234a4.368,4.368,0,0,0-4.077,4.6v21.921h-1.51a1.734,1.734,0,0,0-1.735,1.73v2.59a18.9,18.9,0,0,0-4.72,1.958L130.37,107.8a1.81,1.81,0,0,0-2.46-.011L123.5,112.2a1.755,1.755,0,0,0,0,2.449l1.832,1.832a18.883,18.883,0,0,0-1.958,4.722h-2.59a1.734,1.734,0,0,0-1.732,1.73v6.241a1.735,1.735,0,0,0,1.732,1.732h2.59a18.9,18.9,0,0,0,1.959,4.722l-1.832,1.832a1.741,1.741,0,0,0-.5,1.229,1.711,1.711,0,0,0,.5,1.22l4.424,4.424a1.745,1.745,0,0,0,2.438-.011l1.832-1.832a18.883,18.883,0,0,0,4.722,1.958v2.59a1.735,1.735,0,0,0,1.732,1.732h6.241a1.733,1.733,0,0,0,1.73-1.73v-2.59a18.9,18.9,0,0,0,4.722-1.959l1.833,1.833a1.755,1.755,0,0,0,2.449,0l4.419-4.417a1.731,1.731,0,0,0,.315-1.977h26.7a4.368,4.368,0,0,0,4.077-4.6V109.365h3.35a4.388,4.388,0,0,0,4.383-4.383,4.311,4.311,0,0,0-.208-1.266,4.371,4.371,0,0,0,2.684-6.777,1.658,1.658,0,0,0,.069-.45c0-7.289,1.767-10.244,3.476-13.1a14.41,14.41,0,0,0,2.63-8.566c0-9.213-8.018-16.708-17.874-16.708ZM154.4,141l-1.663-1.661a1.611,1.611,0,0,0-1.95-.25l-1.045.613a15.661,15.661,0,0,1-3.965,1.644l-1.172.307a1.607,1.607,0,0,0-1.2,1.556v2.348h-3.271v-2.346a1.61,1.61,0,0,0-1.2-1.556l-1.172-.307a15.673,15.673,0,0,1-3.963-1.643l-1.045-.615a1.606,1.606,0,0,0-1.951.25L129.138,141l-2.311-2.313,1.661-1.66a1.607,1.607,0,0,0,.249-1.951l-.613-1.044a15.719,15.719,0,0,1-1.644-3.965l-.307-1.172a1.607,1.607,0,0,0-1.556-1.2h-2.348v-3.271h2.348a1.609,1.609,0,0,0,1.556-1.2l.307-1.173a15.7,15.7,0,0,1,1.644-3.966l.613-1.045a1.609,1.609,0,0,0-.25-1.95l-1.66-1.66,2.313-2.311,1.661,1.66a1.6,1.6,0,0,0,1.949.25l1.045-.612a15.646,15.646,0,0,1,3.966-1.644l1.172-.307a1.609,1.609,0,0,0,1.2-1.556v-2.345H143.4v2.346a1.609,1.609,0,0,0,1.2,1.556l1.173.307a15.7,15.7,0,0,1,3.963,1.643l1.045.615a1.607,1.607,0,0,0,1.951-.249l1.66-1.66,2.311,2.313-1.66,1.66a1.607,1.607,0,0,0-.25,1.949l.613,1.047a15.7,15.7,0,0,1,1.644,3.965l.307,1.172a1.605,1.605,0,0,0,1.556,1.2h2.348v3.27h-2.346a1.609,1.609,0,0,0-1.556,1.2l-.307,1.173a15.7,15.7,0,0,1-1.644,3.963l-.613,1.045a1.611,1.611,0,0,0,.249,1.951l.431.432,1.231,1.231Zm35.238-56.091a9.127,9.127,0,0,0,1.1-.073V95.053h-2.194V84.84A9.262,9.262,0,0,0,189.635,84.913Zm4.841,21.237h-9.683a1.167,1.167,0,0,1,0-2.334h9.683a1.167,1.167,0,1,1,0,2.334Zm3.262-5.548h-16.2a1.167,1.167,0,0,1,0-2.334h16.205a1.167,1.167,0,1,1,0,2.334Zm4.381-18.863A24.189,24.189,0,0,0,198.21,95.05h-4.262V83.8a9.1,9.1,0,0,0,3.544-3.4,1.608,1.608,0,0,0-2.777-1.622,5.883,5.883,0,0,1-10.163,0,1.608,1.608,0,1,0-2.777,1.622,9.1,9.1,0,0,0,3.544,3.406V95.053h-4.259a24.19,24.19,0,0,0-3.91-13.316c-1.31-2.191-2.175-3.638-2.175-6.914,0-7.441,6.576-13.493,14.658-13.493s14.658,6.053,14.658,13.5c0,3.278-.863,4.724-2.173,6.914ZM174.281,55.292a1.608,1.608,0,0,1,2.785-1.608l1.748,3.026a1.608,1.608,0,1,1-2.784,1.608Zm-9.98,8.549a1.606,1.606,0,0,1,2.2-.589L169.523,65a1.608,1.608,0,1,1-1.607,2.785l-3.026-1.746a1.608,1.608,0,0,1-.589-2.2Zm-3.781,14.591a1.609,1.609,0,0,1,1.609-1.609h3.494a1.609,1.609,0,1,1,0,3.218h-3.494A1.611,1.611,0,0,1,160.519,78.432Zm9.833,11.17a1.607,1.607,0,0,1-.589,2.2l-3.026,1.746a1.608,1.608,0,0,1-1.607-2.785l3.026-1.746a1.605,1.605,0,0,1,2.2.589Zm44.62,2.939a1.606,1.606,0,0,1-2.2.589l-3.026-1.748a1.608,1.608,0,1,1,1.608-2.785l3.026,1.748a1.607,1.607,0,0,1,.588,2.2Zm3.781-14.591a1.609,1.609,0,0,1-1.609,1.609H213.65a1.609,1.609,0,0,1,0-3.218h3.494A1.609,1.609,0,0,1,218.753,77.95Zm-9.832-11.17a1.607,1.607,0,0,1,.589-2.2l3.026-1.746a1.608,1.608,0,1,1,1.608,2.785l-3.026,1.746a1.607,1.607,0,0,1-2.2-.589ZM200.043,56.47l1.746-3.026a1.608,1.608,0,0,1,2.785,1.608l-1.746,3.026a1.608,1.608,0,0,1-2.785-1.608Zm-12.254-2.294V50.682a1.609,1.609,0,1,1,3.218,0v3.494a1.609,1.609,0,0,1-3.218,0Z" transform="translate(154.531 608.606)" fill="#1b54f8"></path></g><g id="Group_11" data-name="Group 11" transform="translate(-457.314 -397.1)"><path id="Path_131" data-name="Path 131" d="M131.234,102.964a.962.962,0,0,1-1.35-1.371l4.028-4.028-4.028-4.028a.962.962,0,0,1,1.35-1.371l4.028,4.028,4.028-4.028a.962.962,0,0,1,1.35,1.371l-4.028,4.028,4.028,4.028a.962.962,0,0,1-1.35,1.371l-4.028-4.028Zm-3.192-14.525h15.382a.96.96,0,0,1,.964.964v16.346a.96.96,0,0,1-.964.964H127.077a.96.96,0,0,1-.964-.964V90.367H110.752a.96.96,0,0,1-.964-.964V73.056a.96.96,0,0,1,.964-.964H127.1a.96.96,0,0,1,.964.964V88.439Zm14.418,1.928H128.042v14.418H142.46Zm-29.2-9.169a.964.964,0,0,1,.214-1.35.936.936,0,0,1,1.328.214l2.292,3.128,5.913-7.284a.959.959,0,0,1,1.478,1.221c-.728.9-6.62,8.227-6.877,8.42a.946.946,0,0,1-1.35-.214Zm12.854-7.177H111.695V88.439h14.418ZM179.4,56.538h10.348a.96.96,0,0,1,.964.964V67.829a.96.96,0,0,1-.964.964H179.4a.96.96,0,0,1-.964-.964V57.5A.96.96,0,0,1,179.4,56.538Zm9.384,1.928h-8.42v8.42h8.42Zm-9.384,43.62h10.348a.96.96,0,0,1,.964.964v10.326a.96.96,0,0,1-.964.964H179.4a.96.96,0,0,1-.964-.964V103.05A.96.96,0,0,1,179.4,102.086Zm9.384,1.928h-8.42v8.42h8.42Zm-9.384-24.7h10.348a.96.96,0,0,1,.964.964V90.6a.96.96,0,0,1-.964.964H179.4a.96.96,0,0,1-.964-.964V80.276A.96.96,0,0,1,179.4,79.312Zm9.384,1.928h-8.42v8.42h8.42ZM172.454,94.052a.964.964,0,0,1,0,1.928H159.985a.964.964,0,0,1,0-1.928Zm-6.17,29.223a.964.964,0,0,1,0,1.928H146.338a.964.964,0,0,1,0-1.928Zm6.17-65.407a.964.964,0,0,1,0,1.928H146.81a.964.964,0,0,1,0-1.928Zm0,18.1a.964.964,0,0,1,0,1.928h-12.49a.964.964,0,0,1,0-1.928Zm0-9.062a.964.964,0,0,1,0,1.928H156.021a.964.964,0,0,1,0-1.928Zm0,18.1a.964.964,0,0,1,0,1.928H159.985a.964.964,0,0,1,0-1.928Zm0,27.123a.964.964,0,0,1,0,1.928h-12.49a.964.964,0,0,1,0-1.928Zm0-9.041a.964.964,0,0,1,0,1.928h-12.49a.964.964,0,0,1,0-1.928ZM128.043,61.553a27.878,27.878,0,0,1,0,55.725v16.646h54.03v-12.49a.96.96,0,0,1,.964-.964h12.49V44.885H128.042Zm-1.928,55.723a27.879,27.879,0,0,1,0-55.725V43.94a.96.96,0,0,1,.964-.964h69.414a.96.96,0,0,1,.964.964v77.49a.991.991,0,0,1-.278.686l-13.54,13.54-.6.193h-55.96a.96.96,0,0,1-.964-.964Zm19.324-46.232a25.95,25.95,0,1,0,0,36.7A25.952,25.952,0,0,0,145.439,71.043ZM194.157,122.4H184v10.155Z" transform="translate(1409.234 642.972)" fill="#1b54f8" stroke="#1b54f8" stroke-width="1"></path></g><g id="Group_13" data-name="Group 13" transform="translate(4.307 -593.678)"><path id="Path_61" data-name="Path 61" d="M162.753,133.461h-6.5c-4.59,0-9.929-3.753-9.929-8.593v-45.4h84.513v45.4c0,4.839-5.337,8.593-9.928,8.593h-6.5v4.695h6.5c6.9,0,14.623-5.683,14.623-13.288V69.427c0-7.032-6.95-13.437-14.583-13.437h-64.7c-6.9,0-14.624,5.748-14.624,13.437v55.441c0,7.6,7.721,13.288,14.624,13.288h6.5a2.348,2.348,0,0,0,0-4.7ZM146.321,69.428c0-4.411,4.918-8.742,9.929-8.742h64.7c5.083,0,9.888,4.249,9.888,8.742v5.344H146.321Z" transform="translate(1209.816 629.958)" fill="#1b54f8" stroke="#fff" stroke-width="1"></path><path id="Path_62" data-name="Path 62" d="M375.545,97.676H373.2a2.347,2.347,0,0,0,0,4.693h2.347a2.347,2.347,0,1,0,0-4.693Z" transform="translate(1032.241 597.665)" fill="#1b54f8" stroke="#fff" stroke-width="1"></path><path id="Path_63" data-name="Path 63" d="M427.635,97.676h-2.347a2.347,2.347,0,1,0,0,4.693h2.347a2.347,2.347,0,0,0,0-4.693Z" transform="translate(991.888 597.665)" fill="#1b54f8" stroke="#fff" stroke-width="1"></path><path id="Path_64" data-name="Path 64" d="M479.725,97.676h-2.347a2.347,2.347,0,0,0,0,4.693h2.347a2.347,2.347,0,1,0,0-4.693Z" transform="translate(951.535 597.665)" fill="#1b54f8" stroke="#fff" stroke-width="1"></path><path id="Path_65" data-name="Path 65" d="M272.181,230.247l-.83,4.1a3.159,3.159,0,0,0,3.1,3.786H291.89a3.158,3.158,0,0,0,3.093-3.794l-.841-4.1,4.135,3.1a3.161,3.161,0,0,0,5.05-2.53v-13.24a3.173,3.173,0,0,0-1.263-2.526L297.2,211.4a3.048,3.048,0,0,0-.353-.195v-9.868a20.066,20.066,0,0,0-3.643-11.559l-6.787-9.7a4.119,4.119,0,0,0-6.5,0l-6.786,9.7a20.053,20.053,0,0,0-3.643,11.559V211.2a3.149,3.149,0,0,0-.357.2l-4.859,3.646a3.174,3.174,0,0,0-1.26,2.523v13.239a3.157,3.157,0,0,0,5.052,2.528Zm4.146,3.185.689-3.4h12.292l.7,3.4Zm22.3-15.1v9.4l-1.781-1.336V217Zm-15.461-34.711,3.378,4.825H279.79Zm-8.984,17.709a15.36,15.36,0,0,1,2.391-8.189s13.174-.032,13.219.043a15.338,15.338,0,0,1,2.358,8.146v24H274.185Zm-6.475,17L269.491,217v9.4l-1.781,1.336Z" transform="translate(1115.78 535.061)" fill="#1b54f8" stroke="#fff" stroke-width="1"></path><path id="Path_66" data-name="Path 66" d="M339.59,464.682v4.695a2.347,2.347,0,0,0,4.693,0v-4.695a2.347,2.347,0,0,0-4.693,0Z" transform="translate(1056.458 315.172)" fill="#1b54f8" stroke="#fff" stroke-width="1"></path><path id="Path_67" data-name="Path 67" d="M308.32,464.682v2.347a2.347,2.347,0,1,0,4.693,0v-2.347a2.347,2.347,0,0,0-4.693,0Z" transform="translate(1080.682 315.172)" fill="#1b54f8" stroke="#fff" stroke-width="1"></path><path id="Path_68" data-name="Path 68" d="M373.183,462.32a2.346,2.346,0,0,0-2.347,2.346v2.347a2.347,2.347,0,0,0,4.693,0v-2.347A2.344,2.344,0,0,0,373.183,462.32Z" transform="translate(1032.253 315.185)" fill="#1b54f8" stroke="#fff" stroke-width="1"></path><path id="Path_69" data-name="Path 69" d="M326.2,279.789a7.369,7.369,0,1,0-7.371-7.371A7.378,7.378,0,0,0,326.2,279.789Zm0-10.045a2.673,2.673,0,1,1-2.675,2.672A2.675,2.675,0,0,1,326.2,269.744Z" transform="translate(1072.542 468.005)" fill="#1b54f8" stroke="#fff" stroke-width="1"></path></g><g id="Group_12" data-name="Group 12" transform="translate(234.346 -388.204)"><path id="Path_112" data-name="Path 112" d="M269.775,215.8a16.025,16.025,0,1,0-16.025-16.025A16.044,16.044,0,0,0,269.775,215.8Zm0-2.914a13.127,13.127,0,0,1-13.025-11.655H261.5l4.1,10.241,4.328-14.424,4.025,10.736,4.005-8.01h4.927a13.126,13.126,0,0,1-13.111,13.111Zm0-26.223a13.127,13.127,0,0,1,12.773,10.2h-6.39l-1.821,3.645-4.716-12.574-4.413,14.713-1.731-4.327H256.75A13.127,13.127,0,0,1,269.775,186.664Z" transform="translate(1193.879 531.335)" fill="#1b54f8"></path><path id="Path_113" data-name="Path 113" d="M161.788,8.75H126.825a7.292,7.292,0,0,0-7.284,7.284v.613a23.308,23.308,0,1,0-17.482,38.721l.074,0a21.679,21.679,0,0,0,2.914,9.523L100.6,69.333l-1.457-1.457L80.987,86.034a7.638,7.638,0,0,0,10.8,10.8l18.158-18.16-1.457-1.457,4.445-4.445a21.678,21.678,0,0,0,6.606,2.547v4.811a7.292,7.292,0,0,0,7.284,7.284h34.964a7.292,7.292,0,0,0,7.284-7.284v-64.1a7.292,7.292,0,0,0-7.284-7.284ZM119.541,32.5a21.875,21.875,0,0,0-12.419,7.446,7.369,7.369,0,0,0-.692-.593V34.4a18.745,18.745,0,0,0-3.158-10.431l-1.212-1.818-1.212,1.818A18.75,18.75,0,0,0,97.688,34.4v4.983a7.272,7.272,0,0,0-2.767,4.333H85.344a20.255,20.255,0,0,1-3.608-10.2H87.49V30.6H81.737a20.278,20.278,0,0,1,4.925-11.879l4.065,4.065,2.06-2.06-4.065-4.065A20.281,20.281,0,0,1,100.6,11.737v5.754h2.914V11.719a20.479,20.479,0,0,1,11.891,4.931l-4.076,4.076,2.06,2.06,4.079-4.079a20.369,20.369,0,0,1,2.072,2.858ZM104.6,43.713H97.958a4.318,4.318,0,0,1,7.425-1.33C105.11,42.819,104.84,43.257,104.6,43.713Zm-1.084-5.663a7.154,7.154,0,0,0-1.457-.165,7.273,7.273,0,0,0-1.457.147V34.4a15.813,15.813,0,0,1,1.457-6.649,15.823,15.823,0,0,1,1.457,6.649Zm-15.7,8.576h15.521a21.632,21.632,0,0,0-1.2,5.825l-.074,0a20.317,20.317,0,0,1-14.246-5.827Zm36.1-11.655a18.939,18.939,0,1,1-18.939,18.939A18.961,18.961,0,0,1,123.912,34.972Zm4.37,40.352a21.533,21.533,0,0,0,2.914-.835v1.275h26.223V64.109h-14.2a21.636,21.636,0,0,0,1.264-2.914h12.931V49.541H145.324a21.53,21.53,0,0,0-.835-2.914h12.929V34.972H134.767a21.7,21.7,0,0,0-6.484-2.474V17.491h32.05V78.677h-32.05Zm13.07-8.3h13.152V72.85H134.767a21.991,21.991,0,0,0,6.586-5.827Zm-2.634-29.137h15.786v5.827H143.223a21.951,21.951,0,0,0-4.5-5.827Zm6.971,14.568h8.815v5.827h-9.181a21.957,21.957,0,0,0,.44-4.37c0-.492-.042-.973-.074-1.457ZM89.73,94.776A4.724,4.724,0,1,1,83.048,88.1L99.146,72l6.681,6.681Zm16.7-19.615-3.768-3.768,4.048-4.048a22.06,22.06,0,0,0,3.768,3.768Zm59.73,4.973a4.376,4.376,0,0,1-4.37,4.37H126.826a4.376,4.376,0,0,1-4.37-4.37V75.69c.484.032.965.074,1.457.074s.973-.042,1.457-.074v2.988a2.916,2.916,0,0,0,2.914,2.914h32.05a2.916,2.916,0,0,0,2.914-2.914V17.491a2.916,2.916,0,0,0-2.914-2.914h-32.05a2.916,2.916,0,0,0-2.914,2.914V32.133c-.484-.032-.964-.074-1.457-.074s-.973.042-1.457.074v-16.1a4.376,4.376,0,0,1,4.37-4.37H161.79a4.376,4.376,0,0,1,4.37,4.37Z" transform="translate(1339.743 677.199)" fill="#1b54f8"></path><path id="Path_114" data-name="Path 114" d="M393.75,90.4h26.223V78.75H393.75Zm2.914-8.741h20.4v5.827h-20.4Z" transform="translate(1077.188 618.853)" fill="#1b54f8"></path></g></g></svg> 