<?xml version="1.0" encoding="UTF-8"?> <svg xmlns="http://www.w3.org/2000/svg" width="169" height="177" viewBox="0 0 169 177"><g id="Group_136" data-name="Group 136" transform="translate(-762.382 -336)"><g id="Rectangle_948" data-name="Rectangle 948" transform="translate(762.382 336)" fill="#fff" stroke="rgba(112,112,112,0.83)" stroke-linecap="round" stroke-linejoin="round" stroke-width="0.3"><rect width="169" height="177" stroke="none"></rect><rect x="0.15" y="0.15" width="168.7" height="176.7" fill="none"></rect></g><g id="Group_75" data-name="Group 75" transform="translate(828.126 368.517)"><path id="Path_126" data-name="Path 126" d="M362.021,109.128c-1.438-.445-1.773-1.094-1.339-2.581.341-1.171.341-1.171-.908-1.193a2.989,2.989,0,0,0-.407,0c-3.405.4-5.385-1.542-6.866-4.233a13.265,13.265,0,0,1-1.583-7.161c.074-1.57.943-2.166,2.452-1.723a14.658,14.658,0,0,1,3.535,1.838,44.532,44.532,0,0,1,6.085,4.519,1.361,1.361,0,0,0,1.865.165,16.77,16.77,0,0,1,12.512-1.837c.106.025.206.069.313.092.632.143,1.264.826,1.787.569.444-.219.546-1.066.875-1.59a15.086,15.086,0,0,1,8.25-6.57c1.55-.512,2.55.2,2.7,1.823.251,2.59-.584,4.98-1.3,7.412-.871,2.966-3.016,4.637-5.62,5.871a2.538,2.538,0,0,0-1.532,1.983c-.778,3.641-1.57,7.278-2.074,10.97a2.062,2.062,0,0,1-.1.311c-.271.388-.649.3-1.034.251a17.213,17.213,0,0,0-13.37,3.344,5.746,5.746,0,0,1-3.356,1.336,2.721,2.721,0,0,1-2.539-1.177,4.615,4.615,0,0,1,.191-2.544c.522-2.649,1.076-5.29,1.62-7.936.267-.447.766-.455,1.177-.633.193-.085.451-.123.444-.4-.006-.248-.225-.362-.427-.436a5.318,5.318,0,0,1-1.364-.47" transform="translate(-350.901 -89.256)" fill="#383838"></path><path id="Path_127" data-name="Path 127" d="M375.345,109.494c-.471,5.045.538,9.9,1.858,14.72.381,1.388.692,2.8,1.052,4.191a1.61,1.61,0,0,1-.133,1.253c-2.114,3.871-3.792,7.953-5.8,11.877a3.484,3.484,0,0,1-1.418,1.512c-3.049,1.749-6.305,3.073-9.463,4.6-.265.128-.582.276-.844.043-.282-.25-.055-.559.012-.835.737-3.034,1.513-6.063,1.982-9.153a70.842,70.842,0,0,0,.593-11.228c-.022-2.447-.091-4.9-.137-7.342a6.339,6.339,0,0,1-.062-1.538c-.017-.527.4-.747.767-.968,1.849-1.1,3.72-2.157,5.484-3.388,1.271-.888,2.576-1.727,3.821-2.652a7.067,7.067,0,0,0,1.663-1.669c.134-.194.268-.5.539-.4s.1.433.133.66a.494.494,0,0,1-.054.316" transform="translate(-345.728 -78.848)" fill="#383838"></path><path id="Path_128" data-name="Path 128" d="M377.191,109.969c-.022-.282-.042-.565-.071-.952-1.621,2.376-4.1,3.526-6.251,5.082a47.256,47.256,0,0,1-4.985,3.053,1.476,1.476,0,0,0-.949,1.73,2.829,2.829,0,0,1-.035.726.9.9,0,0,1-.12-.783,1.959,1.959,0,0,0-1.191-2.089c-1.593-.982-3.194-1.962-4.715-3.049-.738-.529-1.647-1.006-1.82-2.076,1.854,1.595,3.9,1.137,5.843-.413a17.039,17.039,0,0,1,8.413-3.387,13.962,13.962,0,0,1,5.41.154.974.974,0,0,0,.632-.108c-.113.7.149,1.428-.16,2.113" transform="translate(-347.574 -79.323)" fill="#a7a7a7"></path><path id="Path_129" data-name="Path 129" d="M358.118,102.152a4.4,4.4,0,0,1,1.7.385c.233.143.478.29.431.615-.04.29-.294.362-.519.442-.482.173-.966.33-1.447.493-.068-.644.165-1.314-.169-1.935" transform="translate(-346.998 -82.28)" fill="#b3b3b3"></path><path id="Path_130" data-name="Path 130" d="M370.676,101.613c.746-.048.817.062.479.744a3.007,3.007,0,0,1-3.472,1.871c-.566-.065-1.136-.1-1.7-.139-.381-.023-.453-.176-.307-.525.356-.841.7-1.583,1.857-1.583a25.44,25.44,0,0,0,3.146-.368" transform="translate(-342.95 -82.577)" fill="#adadad"></path></g><path id="Path_173" data-name="Path 173" d="M9.018-12.85H11.2L6.7,0H4.482L0-12.85H2.162L4.843-4.86q.211.571.448,1.472T5.6-2.048q.114-.668.352-1.547t.387-1.3ZM14.739,0H12.674V-9.721h2.065ZM12.551-12.3a1.144,1.144,0,0,1,.3-.853,1.182,1.182,0,0,1,.866-.3,1.156,1.156,0,0,1,.848.3,1.144,1.144,0,0,1,.3.853,1.122,1.122,0,0,1-.3.831,1.147,1.147,0,0,1-.848.3,1.171,1.171,0,0,1-.866-.3A1.122,1.122,0,0,1,12.551-12.3ZM21.612.176a4.256,4.256,0,0,1-3.353-1.288,5.38,5.38,0,0,1-1.147-3.7,5.41,5.41,0,0,1,1.2-3.771A4.45,4.45,0,0,1,21.779-9.9a6.5,6.5,0,0,1,2.769.571l-.624,1.661a6.255,6.255,0,0,0-2.162-.51q-2.522,0-2.522,3.349a4.01,4.01,0,0,0,.628,2.457,2.175,2.175,0,0,0,1.841.822,5.283,5.283,0,0,0,2.61-.686v1.8a4.079,4.079,0,0,1-1.182.466A7.093,7.093,0,0,1,21.612.176ZM33.46,0l-.29-1.274h-.105A2.931,2.931,0,0,1,31.838-.211a4.1,4.1,0,0,1-1.815.387A3.563,3.563,0,0,1,27.387-.7a3.643,3.643,0,0,1-.87-2.663V-9.721H28.6v5.994a2.6,2.6,0,0,0,.457,1.674,1.745,1.745,0,0,0,1.433.558A2.281,2.281,0,0,0,32.4-2.272a4.286,4.286,0,0,0,.611-2.606V-9.721h2.074V0ZM46.582,0H44.508V-5.977a2.616,2.616,0,0,0-.453-1.679,1.75,1.75,0,0,0-1.437-.554,2.285,2.285,0,0,0-1.916.773A4.27,4.27,0,0,0,40.1-4.843V0H38.03V-9.721h1.617l.29,1.274h.105a2.876,2.876,0,0,1,1.248-1.072A4.182,4.182,0,0,1,43.084-9.9q3.5,0,3.5,3.56Zm8.956,0-.413-1.354h-.07A3.982,3.982,0,0,1,53.64-.145a4.475,4.475,0,0,1-1.828.321A3.094,3.094,0,0,1,49.575-.6a2.894,2.894,0,0,1-.8-2.188,2.57,2.57,0,0,1,1.116-2.268,6.436,6.436,0,0,1,3.4-.835l1.679-.053V-6.46a1.965,1.965,0,0,0-.435-1.393,1.774,1.774,0,0,0-1.349-.461,4.665,4.665,0,0,0-1.433.22,10.811,10.811,0,0,0-1.318.519l-.668-1.477A7.189,7.189,0,0,1,51.5-9.681,7.968,7.968,0,0,1,53.271-9.9a4.2,4.2,0,0,1,2.8.809,3.166,3.166,0,0,1,.945,2.54V0ZM52.462-1.406a2.558,2.558,0,0,0,1.806-.628A2.278,2.278,0,0,0,54.949-3.8v-.844L53.7-4.588a4.27,4.27,0,0,0-2.123.488,1.482,1.482,0,0,0-.664,1.332A1.3,1.3,0,0,0,51.3-1.762,1.661,1.661,0,0,0,52.462-1.406Z" transform="translate(820.429 476)"></path></g></svg> 