<?xml version="1.0" encoding="UTF-8"?> <svg xmlns="http://www.w3.org/2000/svg" xmlns:xlink="http://www.w3.org/1999/xlink" width="60" height="60" viewBox="0 0 60 60"><defs><clipPath id="clip-path"><rect id="Rectangle_37" data-name="Rectangle 37" width="60" height="60" transform="translate(391 844)" fill="#fff" stroke="#707070" stroke-width="1"></rect></clipPath></defs><g id="Mask_Group_26" data-name="Mask Group 26" transform="translate(-391 -844)" clip-path="url(#clip-path)"><g id="MLflow" transform="translate(395 864.809)"><path id="Path_89" data-name="Path 89" d="M0,22.606V15.261H1.676v.931a2.509,2.509,0,0,1,2.173-1.147,2.306,2.306,0,0,1,2.2,1.3,2.581,2.581,0,0,1,2.385-1.3,2.524,2.524,0,0,1,2.6,2.793v4.769H9.343V18.124a1.341,1.341,0,0,0-1.419-1.509A1.528,1.528,0,0,0,6.4,18.244v4.361H4.679V18.124a1.338,1.338,0,0,0-1.42-1.5,1.5,1.5,0,0,0-1.524,1.629V22.61Z" transform="translate(0 -7.829)"></path><path id="Path_90" data-name="Path 90" d="M27.855,18.856V7.929h1.752V18.856Z" transform="translate(-14.68 -4.078)"></path><path id="Path_91" data-name="Path 91" d="M30.071,18.777a4.9,4.9,0,0,0,1.5.181,3.452,3.452,0,0,0,3.478-3L36.838,7.1H39.5l.325-1.475H37.136L37.5,3.861A2.192,2.192,0,0,1,39.747,1.8a1.53,1.53,0,0,1,.509.081L40.645.37A4.421,4.421,0,0,0,39.2.191a3.462,3.462,0,0,0-2.142.7,3.749,3.749,0,0,0-1.337,2.3l-.5,2.43H32.839L32.644,7.1h2.281l-1.644,8.2a2.2,2.2,0,0,1-2.227,2.041,1.754,1.754,0,0,1-.53-.077Z" transform="translate(-15.848 0)" fill="#0194e2"></path><path id="Path_92" data-name="Path 92" d="M51.391,18.621H49.64L52.04,7.6h1.751Z" transform="translate(-26.161 -3.903)" fill="#0194e2"></path><path id="Path_93" data-name="Path 93" d="M65.205,15.718a3.766,3.766,0,0,0-5.125,5.405l1.147-.842a2.367,2.367,0,0,1,1.819-3.853v.9Z" transform="translate(-31.242 -7.825)" fill="#43c9ed"></path><path id="Path_94" data-name="Path 94" d="M62.618,23.449a3.766,3.766,0,0,0,5.125-5.405l-1.147.842a2.367,2.367,0,0,1-1.819,3.853v-.9Z" transform="translate(-33.001 -9.409)" fill="#0194e2"></path><path id="Path_95" data-name="Path 95" d="M78.092,15.493H80l.389,5.02,2.724-5.02,1.816.026.713,4.993,2.4-5.02,1.751.026-3.632,7.328H84.415l-.844-5.253-2.788,5.253H78.967Z" transform="translate(-41.156 -8.065)" fill="#0194e2"></path><path id="Path_96" data-name="Path 96" d="M104.668,15.628h-.362V15.5h.873v.129h-.362v1.061h-.149Z" transform="translate(-54.971 -8.07)" fill="#0194e2"></path><path id="Path_97" data-name="Path 97" d="M106.614,15.5h.181l.228.634c.029.081.056.165.084.248h.009c.028-.083.053-.167.081-.248l.226-.634h.181v1.189h-.141v-.656c0-.1.011-.247.019-.353h-.008l-.09.272-.225.616h-.1l-.227-.616-.09-.272h-.007c.008.106.02.249.02.353v.656h-.138Z" transform="translate(-56.187 -8.07)" fill="#0194e2"></path></g></g></svg> 