<?xml version="1.0" encoding="UTF-8"?> <svg xmlns="http://www.w3.org/2000/svg" xmlns:xlink="http://www.w3.org/1999/xlink" width="60" height="60" viewBox="0 0 60 60"><defs><clipPath id="clip-path"><rect id="Rectangle_11" data-name="Rectangle 11" width="60" height="60" transform="translate(285 374)" fill="#fff" stroke="#707070" stroke-width="1"></rect></clipPath></defs><g id="Mask_Group_11" data-name="Mask Group 11" transform="translate(-285 -374)" clip-path="url(#clip-path)"><g id="Group_3" data-name="Group 3" transform="translate(501.624 29.496)"><path id="Path_27" data-name="Path 27" d="M73.657,92.271s-1.3.759.929,1.015a19.54,19.54,0,0,0,7.072-.3,12.308,12.308,0,0,0,1.881.917C76.852,96.769,68.405,93.738,73.657,92.271Zm-.817-3.739s-1.463,1.083.772,1.314a27.594,27.594,0,0,0,9.126-.437,4.039,4.039,0,0,0,1.4.857C76.059,92.63,67.055,90.452,72.839,88.532Z" transform="translate(-264.429 283.647)" fill="#3174b9" fill-rule="evenodd"></path><path id="Path_28" data-name="Path 28" d="M97.975,42.483c1.648,1.9-.432,3.6-.432,3.6s4.184-2.159,2.262-4.864c-1.794-2.521-3.17-3.774,4.279-8.094C104.084,33.129,92.391,36.048,97.975,42.483Z" transform="translate(-282.678 323.352)" fill="#ca3132" fill-rule="evenodd"></path><path id="Path_29" data-name="Path 29" d="M74.767,84.4s.966.8-1.064,1.412c-3.859,1.169-16.063,1.521-19.453.046-1.218-.53,1.067-1.266,1.786-1.421a4.674,4.674,0,0,1,1.178-.133c-1.355-.954-8.76,1.874-3.76,2.686C67.085,89.2,78.3,86,74.767,84.4ZM60.481,74.024s-6.207,1.475-2.2,2.011a46.646,46.646,0,0,0,8.212-.09c2.569-.216,5.148-.677,5.148-.677a10.983,10.983,0,0,0-1.561.836c-6.3,1.658-18.482.886-14.976-.809A11.732,11.732,0,0,1,60.481,74.024Zm11.136,6.224c6.408-3.329,3.445-6.529,1.377-6.1a4.871,4.871,0,0,0-.733.2,1.167,1.167,0,0,1,.547-.422c4.092-1.438,7.238,4.242-1.319,6.491A.568.568,0,0,0,71.617,80.248Z" transform="translate(-250.626 294.28)" fill="#3174b9" fill-rule="evenodd"></path><path id="Path_30" data-name="Path 30" d="M88.285,8.5s3.548,3.55-3.366,9.008c-5.545,4.38-1.264,6.876,0,9.73-3.237-2.92-5.612-5.492-4.019-7.884C83.237,15.846,89.717,14.143,88.285,8.5Z" transform="translate(-271.158 341)" fill="#ca3132" fill-rule="evenodd"></path><path id="Path_31" data-name="Path 31" d="M72.6,120.759c6.15.393,15.6-.218,15.82-3.129,0,0-.43,1.1-5.083,1.979a50.545,50.545,0,0,1-15.566.239S68.556,120.5,72.6,120.759Z" transform="translate(-262.112 262.793)" fill="#3174b9" fill-rule="evenodd"></path><path id="Path_32" data-name="Path 32" d="M74.777,139.772H74.59v-.1h.5v.1h-.187v.524h-.131Zm1.007.026h0l-.186.5h-.085l-.185-.5h0v.5H75.2v-.628h.182l.171.445.171-.445h.18v.628h-.12v-.5Zm-17.551,5.874a2.794,2.794,0,0,1-1.744.785,1.112,1.112,0,0,1-1.21-1.225c0-.816.456-1.414,2.279-1.414h.674v1.853Zm1.6,1.806v-5.591c0-1.429-.815-2.372-2.779-2.372a7.332,7.332,0,0,0-2.968.644l.235.99a6.894,6.894,0,0,1,2.292-.455c1.132,0,1.619.455,1.619,1.4v.707h-.566c-2.749,0-3.989,1.066-3.989,2.67,0,1.382.817,2.167,2.356,2.167a3.554,3.554,0,0,0,2.418-1.006l.126.848Zm5.343,0h-2l-2.4-7.82h1.744l1.492,4.806.332,1.444a30.158,30.158,0,0,0,1.554-6.249h1.7A31.718,31.718,0,0,1,65.177,147.479Zm7.66-1.806a2.8,2.8,0,0,1-1.744.785,1.112,1.112,0,0,1-1.209-1.225c0-.816.456-1.414,2.278-1.414h.675Zm1.6,1.806v-5.591c0-1.429-.817-2.372-2.78-2.372a7.332,7.332,0,0,0-2.968.644l.235.99a6.9,6.9,0,0,1,2.294-.455c1.13,0,1.618.455,1.618,1.4v.707h-.566c-2.749,0-3.989,1.066-3.989,2.67,0,1.382.816,2.167,2.355,2.167a3.559,3.559,0,0,0,2.419-1.006l.126.848Zm-22.516,1.329a4.2,4.2,0,0,1-2,1.492l-.791-.931a3.322,3.322,0,0,0,1.386-1.3,5.025,5.025,0,0,0,.3-2.264v-8.929h1.7v8.806C52.519,147.421,52.38,148.123,51.923,148.808Z" transform="translate(-248.756 248.999)" fill="#ca3132" fill-rule="evenodd"></path></g></g></svg> 