<?xml version="1.0" encoding="UTF-8"?> <svg xmlns="http://www.w3.org/2000/svg" xmlns:xlink="http://www.w3.org/1999/xlink" width="60" height="60" viewBox="0 0 60 60"><defs><clipPath id="clip-path"><rect id="Rectangle_13" data-name="Rectangle 13" width="60" height="60" transform="translate(505 374)" fill="#fff" stroke="#707070" stroke-width="1"></rect></clipPath></defs><g id="Mask_Group_13" data-name="Mask Group 13" transform="translate(-505 -374)" clip-path="url(#clip-path)"><g id="c" transform="translate(512.465 378.405)"><path id="Path_40" data-name="Path 40" d="M45.067,15.16a4.473,4.473,0,0,0-.551-2.25,4.3,4.3,0,0,0-1.631-1.588q-9-5.189-18-10.372A4.42,4.42,0,0,0,20.092,1C17.7,2.405,5.747,9.256,2.184,11.319A4.162,4.162,0,0,0,0,15.158Q0,25.595,0,36.031a4.493,4.493,0,0,0,.527,2.207A4.288,4.288,0,0,0,2.182,39.87C5.745,41.934,17.7,48.784,20.091,50.193a4.42,4.42,0,0,0,4.791.047q9-5.2,18.005-10.372a4.29,4.29,0,0,0,1.655-1.632,4.5,4.5,0,0,0,.527-2.207s0-13.911,0-20.869" transform="translate(0 0)" fill="#5c8dbc"></path><path id="Path_41" data-name="Path 41" d="M25.065,143.509,2.988,156.22a4.288,4.288,0,0,0,1.655,1.632c3.563,2.064,15.522,8.914,17.909,10.322a4.42,4.42,0,0,0,4.791.047q9-5.2,18.005-10.372A4.29,4.29,0,0,0,47,156.219l-21.939-12.71" transform="translate(-2.461 -117.982)" fill="#1a4674"></path><path id="Path_42" data-name="Path 42" d="M91.1,147.274a7.451,7.451,0,0,0,12.964-.043l-6.425-3.722L91.1,147.274" transform="translate(-75.036 -117.982)" fill="#1a4674"></path><path id="Path_43" data-name="Path 43" d="M150.646,74.209a4.473,4.473,0,0,0-.551-2.25L128.182,84.576l21.939,12.71a4.5,4.5,0,0,0,.527-2.207s0-13.911,0-20.869" transform="translate(-105.578 -59.049)" fill="#1b598e"></path><path id="Path_44" data-name="Path 44" d="M195.487,132.647h-1.714v1.715h-1.715v-1.715h-1.714v-1.714h1.714v-1.714h1.715v1.714h1.714v1.714m-6.256,0h-1.714v1.715H185.8v-1.715h-1.714v-1.714H185.8v-1.714h1.714v1.714h1.714v1.714" transform="translate(-151.626 -106.211)" fill="#fff"></path><path id="Path_45" data-name="Path 45" d="M64.377,77.64a7.453,7.453,0,1,1-.049-7.393L70.843,66.5a14.967,14.967,0,1,0,.039,14.913l-6.5-3.769" transform="translate(-35.348 -48.391)" fill="#fff"></path></g></g></svg> 