<?xml version="1.0" encoding="UTF-8"?> <svg xmlns="http://www.w3.org/2000/svg" xmlns:xlink="http://www.w3.org/1999/xlink" width="60" height="60" viewBox="0 0 60 60"><defs><clipPath id="clip-path"><rect id="Rectangle_12" data-name="Rectangle 12" width="60" height="60" transform="translate(395 374)" fill="#fff" stroke="#707070" stroke-width="1"></rect></clipPath></defs><g id="Mask_Group_12" data-name="Mask Group 12" transform="translate(-395 -374)" clip-path="url(#clip-path)"><g id="the-julia-programming-language" transform="translate(402.775 389.68)"><path id="Path_33" data-name="Path 33" d="M83.913,35.95H80.14V18.589l3.773-1.039Z" transform="translate(-56.879 -12.456)" fill="#1a1a1a"></path><path id="Path_34" data-name="Path 34" d="M15.853,23.7a2.583,2.583,0,1,1,2.583-2.583A2.583,2.583,0,0,1,15.853,23.7Z" transform="translate(-9.419 -13.151)" fill="#4d64ae"></path><path id="Path_35" data-name="Path 35" d="M8.458,49.651a7.686,7.686,0,0,1-.38,2.662A3.518,3.518,0,0,1,7.027,53.88a3.579,3.579,0,0,1-1.637.755,10.635,10.635,0,0,1-2.125.194,6.522,6.522,0,0,1-1.4-.136,3.773,3.773,0,0,1-1.028-.369,1.742,1.742,0,0,1-.621-.54A1.051,1.051,0,0,1,0,53.149a1.236,1.236,0,0,1,.462-.981,1.878,1.878,0,0,1,1.257-.392,1.451,1.451,0,0,1,.543.093,1.742,1.742,0,0,1,.415.229,3.483,3.483,0,0,1,.337.311c.09.116.171.223.241.325a2.2,2.2,0,0,0,.438.45.668.668,0,0,0,.334.116.537.537,0,0,0,.29-.081.581.581,0,0,0,.206-.29,2.084,2.084,0,0,0,.116-.554,6.711,6.711,0,0,0,.046-.888V37.939L8.458,36.9ZM13.973,37.2v8.725a1.782,1.782,0,0,0,.136.694,1.872,1.872,0,0,0,.4.537,2.032,2.032,0,0,0,.581.369,1.776,1.776,0,0,0,.7.139,1.219,1.219,0,0,0,.467-.116,2.444,2.444,0,0,0,.522-.325,3.852,3.852,0,0,0,.525-.482,3.75,3.75,0,0,0,.467-.612V37.2h3.773V49.683H17.772V48.522A6.522,6.522,0,0,1,16.2,49.547a3.953,3.953,0,0,1-1.623.372,4.8,4.8,0,0,1-1.713-.29,4.525,4.525,0,0,1-1.382-.839,3.936,3.936,0,0,1-.92-1.242,3.6,3.6,0,0,1-.334-1.535V37.2Z" transform="translate(0 -26.189)" fill="#1a1a1a"></path><path id="Path_36" data-name="Path 36" d="M99.48,23.7a2.583,2.583,0,1,1,2.586-2.583A2.583,2.583,0,0,1,99.48,23.7Z" transform="translate(-68.774 -13.151)" fill="#ca3c32"></path><path id="Path_37" data-name="Path 37" d="M120.87,23.7a2.583,2.583,0,1,1,2.586-2.583A2.583,2.583,0,0,1,120.87,23.7Z" transform="translate(-83.956 -13.151)" fill="#9259a3"></path><path id="Path_38" data-name="Path 38" d="M110.173,5.167A2.58,2.58,0,1,1,112,4.411a2.583,2.583,0,0,1-1.828.756Z" transform="translate(-76.361)" fill="#399746"></path><path id="Path_39" data-name="Path 39" d="M100.14,38.059l3.773-1.039V49.768H100.14Zm11.61,5.274a10.926,10.926,0,0,0-1.094.543,6.353,6.353,0,0,0-1,.668,3.706,3.706,0,0,0-.74.775,1.486,1.486,0,0,0-.29.853,2.476,2.476,0,0,0,.093.679,2.032,2.032,0,0,0,.253.554,1.5,1.5,0,0,0,.357.369.775.775,0,0,0,.438.139,1.829,1.829,0,0,0,.923-.29,11.989,11.989,0,0,0,1.051-.717Zm3.773,6.435H111.75v-.993c-.206.177-.412.34-.612.485a4.121,4.121,0,0,1-.668.392,3.936,3.936,0,0,1-.819.255,5.733,5.733,0,0,1-1.1.09,4.644,4.644,0,0,1-1.547-.241,3.55,3.55,0,0,1-1.161-.67,2.969,2.969,0,0,1-.729-1.025,3.193,3.193,0,0,1-.253-1.268,2.981,2.981,0,0,1,.264-1.283,3.805,3.805,0,0,1,.74-1.036,5.619,5.619,0,0,1,1.094-.83,11.685,11.685,0,0,1,1.35-.671c.485-.2.987-.383,1.5-.554l1.524-.5.415-.09V40.6a3.457,3.457,0,0,0-.128-1,1.689,1.689,0,0,0-.334-.671,1.161,1.161,0,0,0-.52-.38,1.916,1.916,0,0,0-.679-.116,2.142,2.142,0,0,0-.752.116,1.268,1.268,0,0,0-.485.322,1.144,1.144,0,0,0-.264.462,1.893,1.893,0,0,0-.081.581,2.761,2.761,0,0,1-.081.682,1.408,1.408,0,0,1-.264.581,1.3,1.3,0,0,1-.52.372,1.985,1.985,0,0,1-.842.151,2.18,2.18,0,0,1-.729-.116,1.788,1.788,0,0,1-.554-.334,1.742,1.742,0,0,1-.369-.508,1.623,1.623,0,0,1-.128-.633,1.863,1.863,0,0,1,.438-1.19,3.82,3.82,0,0,1,1.178-.958,6.807,6.807,0,0,1,1.718-.621,9.019,9.019,0,0,1,2.067-.232,9.35,9.35,0,0,1,2.284.244,4.752,4.752,0,0,1,1.594.679,2.772,2.772,0,0,1,.923,1.062,3.167,3.167,0,0,1,.29,1.4Z" transform="translate(-71.074 -26.275)" fill="#1a1a1a"></path></g></g></svg> 