<?xml version="1.0" encoding="UTF-8"?> <svg xmlns="http://www.w3.org/2000/svg" xmlns:xlink="http://www.w3.org/1999/xlink" width="49" height="49" viewBox="0 0 49 49"><defs><clipPath id="clip-path"><rect id="Rectangle_22" data-name="Rectangle 22" width="49" height="49" transform="translate(456 84)" fill="#fff" stroke="#707070" stroke-width="1"></rect></clipPath></defs><g id="Mask_Group_4" data-name="Mask Group 4" transform="translate(-456 -84)" clip-path="url(#clip-path)"><g id="Typescript_logo_2020" transform="translate(452.815 75.456)"><path id="Path_1" data-name="Path 1" d="M136.844,254.049v4.742a10.05,10.05,0,0,0,2.735.889,18.017,18.017,0,0,0,3.328.3,15.554,15.554,0,0,0,3.239-.326,7.939,7.939,0,0,0,2.691-1.074,5.474,5.474,0,0,0,1.831-1.956,6.891,6.891,0,0,0,.289-5.246,5.281,5.281,0,0,0-1.112-1.726,8.141,8.141,0,0,0-1.742-1.356,18.661,18.661,0,0,0-2.29-1.134q-.934-.385-1.675-.748a8.506,8.506,0,0,1-1.26-.741,3.231,3.231,0,0,1-.8-.8,1.684,1.684,0,0,1-.282-.956,1.6,1.6,0,0,1,.252-.882,2.176,2.176,0,0,1,.712-.674,3.805,3.805,0,0,1,1.127-.437,6.537,6.537,0,0,1,1.483-.156,9.4,9.4,0,0,1,1.253.089,9.914,9.914,0,0,1,1.327.274,9.24,9.24,0,0,1,1.3.467,7.152,7.152,0,0,1,1.164.652v-4.431a11.577,11.577,0,0,0-2.365-.615,19.267,19.267,0,0,0-2.943-.2,13.679,13.679,0,0,0-3.2.363,8.146,8.146,0,0,0-2.661,1.134,5.664,5.664,0,0,0-1.816,1.964,5.757,5.757,0,0,0-.667,2.853,5.531,5.531,0,0,0,1.223,3.616,9.306,9.306,0,0,0,3.714,2.534q.978.4,1.823.785a10.149,10.149,0,0,1,1.46.8,3.83,3.83,0,0,1,.971.9,1.841,1.841,0,0,1,.356,1.111,1.7,1.7,0,0,1-.222.852,1.972,1.972,0,0,1-.675.682,3.7,3.7,0,0,1-1.127.452,6.773,6.773,0,0,1-1.579.163,9.01,9.01,0,0,1-3.054-.541A9.113,9.113,0,0,1,136.844,254.049Zm-7.972-11.683h6.083v-3.891H118v3.891h6.053v17.327h4.819Z" transform="translate(-106.815 -215.456)" fill="#3078c6" fill-rule="evenodd"></path></g></g></svg> 