<?xml version="1.0" encoding="UTF-8"?> <svg xmlns="http://www.w3.org/2000/svg" xmlns:xlink="http://www.w3.org/1999/xlink" width="49" height="49" viewBox="0 0 49 49"><defs><clipPath id="clip-path"><rect id="Rectangle_8" data-name="Rectangle 8" width="49" height="49" transform="translate(746 84)" fill="#fff" stroke="#707070" stroke-width="1"></rect></clipPath><linearGradient id="linear-gradient" x1="0.324" y1="0.248" x2="1.649" y2="1.377" gradientUnits="objectBoundingBox"><stop offset="0" stop-color="#5a9fd4"></stop><stop offset="1" stop-color="#306998"></stop></linearGradient><linearGradient id="linear-gradient-2" x1="1.483" y1="1.955" x2="1.011" y2="1.297" gradientUnits="objectBoundingBox"><stop offset="0" stop-color="#ffd43b"></stop><stop offset="1" stop-color="#ffe873"></stop></linearGradient></defs><g id="Mask_Group_6" data-name="Mask Group 6" transform="translate(-746 -84)" clip-path="url(#clip-path)"><g id="Python-logo-notext" transform="translate(749.453 87.221)"><path id="path1948" d="M20.8,0a28.991,28.991,0,0,0-4.852.414c-4.3.759-5.077,2.348-5.077,5.278v3.87H21.021v1.29H7.057A6.339,6.339,0,0,0,.715,16a18.978,18.978,0,0,0,0,10.319c.722,3.006,2.445,5.148,5.4,5.148H9.6V26.827a6.452,6.452,0,0,1,6.343-6.307H26.085a5.115,5.115,0,0,0,5.077-5.159V5.692c0-2.752-2.321-4.818-5.077-5.278A31.668,31.668,0,0,0,20.8,0ZM15.305,3.113A1.935,1.935,0,1,1,13.4,5.053,1.926,1.926,0,0,1,15.305,3.113Z" transform="translate(0 0)" fill="url(#linear-gradient)"></path><path id="path1950" d="M50.26,28.657v4.509A6.512,6.512,0,0,1,43.918,39.6H33.777A5.179,5.179,0,0,0,28.7,44.762V54.43c0,2.752,2.393,4.37,5.077,5.159a16.987,16.987,0,0,0,10.141,0c2.556-.74,5.077-2.229,5.077-5.159v-3.87H38.853v-1.29H54.071c2.951,0,4.05-2.058,5.076-5.148,1.06-3.18,1.015-6.239,0-10.319-.729-2.937-2.122-5.148-5.076-5.148Zm-5.7,24.483a1.935,1.935,0,1,1-1.905,1.929A1.916,1.916,0,0,1,44.557,53.14Z" transform="translate(-17.832 -17.806)" fill="url(#linear-gradient-2)"></path></g></g></svg> 