<?xml version="1.0" encoding="UTF-8"?> <svg xmlns="http://www.w3.org/2000/svg" xmlns:xlink="http://www.w3.org/1999/xlink" width="60" height="60" viewBox="0 0 60 60"><defs><clipPath id="clip-path"><rect id="Rectangle_733" data-name="Rectangle 733" width="60" height="60" transform="translate(180 576)" fill="#fff" stroke="#707070" stroke-width="1"></rect></clipPath></defs><g id="Mask_Group_55" data-name="Mask Group 55" transform="translate(-180 -576)" clip-path="url(#clip-path)"><path id="flask" d="M12.24,32.538a19.75,19.75,0,0,1-4.362-4.061,32.95,32.95,0,0,1-5.5-9.86C1.621,16.3,1.36,13.826.377,11.6-.649,9.989.554,8.226,2.323,7.713c.787-.152,2.171-.894.5-.363-1.5,1.1-1.643-1-.107-1.131A1.218,1.218,0,0,0,3.792,4.449c-1.126-.734,2.729-1.54.789-2.636C2.561-.366,7.406-.785,6.211,1.69c-.286,1.9,3.387-.35,2.534,1.849.866,1.056,3.244.241,3.184,1.721,1.262.087,1.695,1.148,2.878,1.229,1.228.555,3.453.991,3.87,2.374-1.218.964-4.037-1.991-4.173.677.368,3.942.274,8,1.716,11.757.682,2.273,2.336,4.062,3.829,5.832a16.756,16.756,0,0,0,5.338,3.982,22.022,22.022,0,0,0,5.483,1.7c.765-.585,2.115-2.76,3.308-1.844.058,1.032-2.367,2.155-.114,2.041,1.325-.4,2.242,1.023,3.332-.261,1,1.19,4.175-.76,3.46,1.672-.967.624-2.376.247-3.344,1.105-1.6-.8-2.866.713-4.633.522a34.027,34.027,0,0,1-5.947.5c-3.264-.257-6.6-.366-9.7-1.5a19.661,19.661,0,0,1-4.993-2.5ZM15,33.733a19.417,19.417,0,0,0,5.249,1.751c2.969.412,6.036,1.048,9.016.469-1.349-.609-2.743.236-4.087-.435a14.967,14.967,0,0,1-4.979-.3,45.728,45.728,0,0,1-5.617-2.478c-2.181-.8,1.127,1.021,1.716,1.169,1.362.773-1.5-.4-1.9-.718-1.141-.64-1.286-.506-.113.143.236.138.47.284.718.4Zm-3.25-2.3c1.655.613-.007-1.164-.765-1.061-.336-.583-1.284-.951-.615-1.264-1.2.418-1.26-1.587-1.825-1.3-1.272-.4-.5-1.825-2.011-2.7C6.393,24.191,5.025,23.393,4.59,22c-.192-.711-1.545-2.753-.715-.853a26.812,26.812,0,0,0,2.987,4.961,10.237,10.237,0,0,0,3.217,3.977c.494.474.97,1.2,1.666,1.348ZM6.98,26.2C7.037,25.952,7.282,26.743,6.98,26.2Zm6.75,5.969C14.1,32.007,13.2,31.964,13.729,32.171Zm.9.328C14.534,32.046,14.217,32.752,14.627,32.5Zm1.125.469C16.287,32.457,14.926,32.646,15.752,32.967Zm1.927,1.074C18,33.561,16.638,33.861,17.679,34.041Zm-3.7-2.58C14.809,30.924,12.9,31.454,13.979,31.462Zm.843.421C14.8,31.6,14.521,32.01,14.822,31.882Zm4.215,2.631c.678.428,3.958.937,1.9.176C20.6,34.762,17.133,33.709,19.037,34.514ZM12.345,29.3C12.279,29.017,11.292,28.986,12.345,29.3Zm1.962,1.145C14.818,30.089,13.247,30.171,14.307,30.446Zm1.651,1.012C16.691,31.181,14.769,31.18,15.958,31.458Zm-4.412-3.026c.8.61,3.208.078,1.218-.364-.905-.482-2.945-.813-1.554.291Zm5.531,3.375C17.408,31.243,15.687,31.484,17.077,31.807ZM15.4,30.472c1.944.549-1.635-1.23-.48-.2l.256.116Zm3.369,1.947C20.607,32.436,17.1,32.165,18.766,32.419Zm-7.928-5.053C10.765,27.023,10.384,27.395,10.838,27.366Zm11.043,6.8C21.929,33.547,21.28,34.628,21.88,34.166Zm-7.9-4.876C13.869,28.964,13.405,29.277,13.981,29.29Zm-2.968-2.14C12.069,27.087,9.564,26.685,11.012,27.151ZM7.5,24.878C7.364,24.371,6.346,23.967,7.5,24.878Zm9.232,5.859C16.534,30.516,16.636,30.785,16.727,30.737Zm5.745,3.526C22.455,33.925,22.159,34.39,22.472,34.263Zm-6.254-4.051C16.322,29.776,15.317,30.079,16.219,30.211ZM11.938,27.5C12.725,27.414,10.677,26.967,11.938,27.5ZM19.179,32C20.4,31.512,17.984,31.761,19.179,32Zm-3.766-2.556c1.412.182-1.681-.962-.311-.1Zm4.909,3.018c1.32-.788.884,1.847,2.238.223,1.335-.975-1.153,1.205.492.174,1.191-.8,2.948.378,4.059.76.8-.039,1.575.691,2.394.247,1.576-.425-3.082-.63-1.861-1.382a2.988,2.988,0,0,1-3.216-1.424c-1.618-.374-3.487-1.2-4.3-2.632-.33-.537.475.076-.284-.8a11.735,11.735,0,0,1-2.115-2.9c-.782-.416-.874-1.644-.952-.041.006-1.012-.944-1.693-1.176-1.41,0-.974,1.017-.486.3-1.206-.154-1.01-.66-2.062-.812-3.2-.236-.549-.034-1.726-.808-.482-.282,1.315-.093-1.615.345-.65.575-.986-.207-.87-.239-.733.375-.832.238-2.012-.1-1.562.2-.882.316-3.246-.3-2.826.372-.923.706-4.221-.912-2.963a6.868,6.868,0,0,0-2.326.5c1.681.927-.17.335-.855.187-.089.858-.767.488-1.614.5,1.354.167-.659,1.384-1.434.911-1.009.481.869,1.685.02,2.057.1.56-1.544-.2-1.416,1.093-.978-.412-.134,1.536.356.877,1.665.451,1.172,1.477,1.214,2.453-.271.568-1.339-1.336-.238-1.248-.869-1.412-.961-.511-1.683.145-.167.047,1.842.933.581,1.371,1.109.172,1.141,1.143,1.368,1.757.666.694.529-.767,1.328.068-.506-.744-2.675-2.1-.928-1.662-.01-.748-.316-1.352.22-1.338.531-.959-.556,2.367.639,1.147.33-.144.413-.961,1.008.077.863.85.312,1.465-.906.686.218.74,1.629,1,1.363,2.16.281,1.017.675.642,1.018.584.269.988.422.262.434-.209,1.231.264.943.992,1.329,1.5.849.383-1.215-2.6.242-.9,1.533,1.384.575,1.962-.8,1.74.87-.07,1.151,1.177,2.24,1.133.993.473,1.666,2.287-.046,1.532-.593-.536-2.7-1.2-.978-.178a40.61,40.61,0,0,1,4.372,2.095c1.093.781,1.566,1.675,1.981,1.852-.92.439-2.77-.351-1.4-.592-.858-.156-1.822-.59-1,.478.7.584,2.475.522,2.794.588-.27.594-.733.642.01.688-.83.443.267.512.343.764Zm-1.7-4.793c-.505-.528-.636-1.517-.09-.657C18.816,27.122,19.432,28.626,18.625,27.667Zm5.528,3.511C24.468,31.157,24.162,31.417,24.153,31.178Zm-6.325-4.807C17.808,25.573,18.01,26.987,17.828,26.371Zm-.549-.739C16.643,24.405,18.079,25.98,17.279,25.633Zm-6.659-4.6C10.993,20.938,10.8,21.675,10.62,21.037Zm5.3,2.872C16.149,23.048,16.188,24.631,15.919,23.909Zm-3.744-2.6C11.912,20.831,12.727,21.752,12.176,21.306Zm3.212,1.03c-.6-1.348.427-.737.134.221Zm-5.54-3.695a4.28,4.28,0,0,1-.57-2.136c.129.645,1.372,2.777.609.883-.842-1.587,1.008.515,1.2.911.089.393-.52-.108-.108.816C10.224,18.064,10.533,19.7,9.848,18.641Zm-1.712-1.18C8.206,16.433,8.527,18.166,8.136,17.461Zm.77.266C9.273,16.951,9.529,18.809,8.906,17.727ZM7.053,16.293c-.637-.634-1.1-1.218.03-.394.434.017-.967-1.328.1-.427,1.126.205.555,1.847-.135.821Zm.973-.025C8.4,15.9,8.223,16.629,8.026,16.268Zm.6.191C8.064,15.408,9.307,16.9,8.626,16.46ZM7.435,15.323c-1.853-1.65,2.328.862.3.305Zm5.31,3.084c-.8-.48-.213-3.385.061-1.4.78-.252-.043,1.026.538,1.014C13.252,18.828,12.992,19.119,12.745,18.407Zm1.964,1.161C14.787,18.693,14.874,20.167,14.709,19.568Zm-.341-.338C14.456,18.857,14.376,19.671,14.368,19.23ZM7.8,14.78c-1.19-1.643,3.46,1.661.763.416C8.279,15.123,7.939,15.1,7.8,14.78Zm3.782,2C11.468,15.4,11.832,17.014,11.58,16.785Zm2.871,1.842C14.673,17.84,14.468,19.149,14.451,18.627Zm-6.47-4.474c.707-.152,2.932,1.242.889.4-.227-.251-.711-.137-.889-.4Zm6.076,3.028c.076-1.414.423-.844,0,.2l0-.2ZM8.507,13.661c.289-.423-.766-1.912.152-.534.4.315,1.148.527.485.66C10.187,14.707,8.889,14.037,8.507,13.661Zm5.249,3.079C13.956,15.129,13.932,17.684,13.756,16.74ZM7.9,12.173C8.126,12.079,8.022,12.467,7.9,12.173Zm1.37.815C9.627,12.248,9.924,13.813,9.274,12.988Zm3.862,2.148C13.133,14.853,13.209,15.549,13.136,15.136Zm-.224-.495C12.376,13.319,13.411,15.341,12.912,14.641Zm-.329-.868C12.494,13.228,12.889,14.46,12.583,13.774Zm.536-.87c-.368-.648.465-2.856.558-1.487-.388,1.067-.112,1.664.158.232.5-1.126-.108,2.223-.716,1.254Zm.55-3.284C13.83,9.422,13.705,9.856,13.67,9.619ZM12.75,27.734C12.532,27.543,12.778,27.854,12.75,27.734Zm1.894.957c1.053.271,1.048-.163.1-.293-.512-.476-2.128-.981-.681-.059C14.154,28.582,14.457,28.576,14.644,28.691ZM10.9,26.207c.58.433,2.186,1.226.826.166.458-.533-.877-.816-.434-1.173-1.127-.69-.89-.628-.1-.606-1.354-.606.2-.56.122-.87-.522-.1-2.594-.921-1.375.067-1.239-.631-.3.235-.67.144-1.267-.345,1.128.965-.2.639.726.575,1.956,1.475.307.609-.216.313,1.18.787,1.523,1.024Zm1.98,1.138C15.293,28.121,11.7,26.4,12.885,27.345Zm10.139,6.142C23.055,33.009,22.695,33.9,23.024,33.487Zm1.042.438c.556-.538.023.858.921-.132.009-.709-.027-1.127-1.032-.266-.277.154-.4.806.111.4ZM7.524,23.537C7.353,22.866,6.328,22.869,7.524,23.537Zm1.112.729C8.223,23.581,7.162,23.646,8.636,24.266Zm6.331,3.818c.619.549,2.839.4.75.068C15.409,27.695,13.755,27.8,14.967,28.084Zm8.7,5.375C24.62,32.661,22.747,33.815,23.669,33.459Zm1.979,1.359C25.654,34.562,25.238,34.93,25.648,34.818Zm0-.359C26.7,33.344,24.631,34.525,25.651,34.459ZM4.787,21.246c-.9-1.281-.558-1.856-1.424-2.9-.164-.8-1.486-2.615-.683-.693.734,1.125.952,2.866,2.107,3.6ZM25.32,34.1C27.259,32.852,24.525,33.559,25.32,34.1Zm1.48.58C27.771,33.851,26.186,34.51,26.8,34.684ZM7.194,22.121C7.472,21.708,6.476,22.068,7.194,22.121Zm19.3,12.167c.94-.606-.216-.513-.17.055ZM13.739,26.251C13.706,25.841,13.242,26.285,13.739,26.251Zm.788.453C14.276,26.2,14.142,26.784,14.527,26.7ZM28,34.7c1.2-.869-.729-.167-.252.165Zm-.461-.223C28.519,33.653,26.5,34.839,27.537,34.475Zm2.356,1.568C30.552,35.6,29.093,35.9,29.893,36.043ZM7.8,21.823c.882.2,3.527,2.173,1.967.137-.8-.236-.32-2.19-1.135-1.845.547.914.45,1.3-.7.727-1.443-.705-.811.348-.528.639-.385.088.508.334.4.341ZM3.777,18.648c.158-.654-1.455-3.6-.762-1.474C3.265,17.618,3.239,18.46,3.777,18.648Zm7.381,4.55C10.7,22.818,11.136,23.143,11.157,23.2Zm1.118.261C12.276,22.766,11.039,23.177,12.276,23.459Zm9.7,6.113C21.79,29.1,21.244,29.561,21.975,29.572Zm.466.34C22.372,29.647,22.172,29.963,22.441,29.912Zm3.844,2.422C26.654,32.061,25.823,32.3,26.285,32.334ZM5.785,19.16C6.843,18.751,4.652,18.868,5.785,19.16Zm15.336,9.661C21.109,28.137,20.447,28.992,21.121,28.822ZM5.367,18.186C6.046,17.957,4.738,18.036,5.367,18.186Zm1.971.955C7.327,18.916,7.13,19.227,7.339,19.141ZM31.388,33.889c.874-.177,2.865.445,3.186-.231-1.061-.026-3.669-.749-3.793.171l.232.037.375.023ZM7.965,19.3C7.981,18.606,7.424,19.273,7.965,19.3ZM2.782,15.7C2.547,14.382,1.886,15.5,2.782,15.7Zm1.236.311C4.034,15.589,2.887,15.632,4.018,16.014Zm.706.347C4.52,16.2,4.565,16.569,4.724,16.361ZM9.17,19.212C9.379,19.02,8.674,19.07,9.17,19.212ZM4.254,15.579C4.134,14.581,2.822,15.429,4.254,15.579ZM1.719,13.934C1.683,13.473,1.472,14.107,1.719,13.934Zm.378-.284C2.035,13.1,1.772,13.718,2.1,13.649Zm2.082,1.243c.881-.345-1.6-.716-.18-.065Zm27.877,17.22C32.62,31.6,31.341,31.952,32.057,32.112Zm3.368,1.745C35.651,33.19,34.855,33.945,35.425,33.857ZM4.392,13.8C4.485,13.155,3.693,13.93,4.392,13.8ZM1.428,11.815C1.269,10.9,1.291,9.3,2.813,9.842c-2.032.4,1.407,2.527.973.85.855.042,1.672-.505,1.223.324,1.685-.185,2.851-1.646,4.478-1.441a17.745,17.745,0,0,0,4.018-.806c1.123-.081,2.2-1.289,1.588-2.006a17.369,17.369,0,0,0-4.826.4C8.393,7.553,6.69,8.293,4.8,8.611c-1.845.248.37.682-.158.779-.962.334,1.148.559-.124.911-.786-.149-1.6-.419-1.268-1.248-1.766.23-3.319.962-1.923,2.76h.1ZM5.686,9.647c.413-1.525,2.218,1.256.678.2A.96.96,0,0,0,5.686,9.647Zm.08-.74C6.364,8.463,6.083,9.158,5.766,8.907Zm.759.013c.055-.7,1.738.371.277.252L6.524,8.92ZM7.562,8.5C7.942,8.059,7.673,8.9,7.562,8.5Zm.266-.178C8.46,7.566,11.4,7.84,9.249,8.25c-.578-.435-1.02.256-1.421.075Zm3.842-.592C11.575,5.66,13.58,8.468,11.67,7.733Zm1.09-.006c.4-1.044,1.547-.419.185-.21C12.975,7.628,12.9,8.056,12.761,7.726Zm-8.8,5.539C5.153,12.536,2.7,12.632,3.962,13.265Zm.881.244C5.261,13.066,3.935,13.329,4.843,13.509Zm-2.595-1.84C2.928,11.146,1.443,11.47,2.248,11.669Zm35.164,22C37.432,33.06,36.892,33.94,37.412,33.667Zm-3.573-2.439C33.941,30.53,33.38,31.289,33.839,31.228ZM38.395,33.9c.951,0,2.882-.3.813-.3C38.882,33.658,37.315,33.647,38.395,33.9ZM5.618,13.081c.77-.052,1.2-.849-.15-.8-2.1-.216,1.851.719-.269.451C4.914,12.917,5.6,13.133,5.618,13.081Zm.678.343C6.215,12.93,6.057,13.687,6.3,13.424Zm.8-2.145C7.434,10.865,6.638,11.168,7.1,11.279ZM4.539,7c1.375-.467,3.254-.992,3.9.23-.66-.794-.267-1.577.357-.414.882,1.175,1.323-.535.75-.929.654.812,1.4,1.2.437.052,1.043-1.255-2.087.164-2.8.149C6.845,6.241,3.653,6.9,4.539,7Zm.806-1.542c.784-.591,2.711.352,1.474-.588C6.7,4.762,4.111,5.583,5.344,5.457ZM8.2,5.575c.917.023-.4-1.233.7-.663-.179-.586-1.272-.7-1.807-.93C6.789,4.518,7.707,5.583,8.2,5.575ZM5.845,2.981C6.163,2.551,5.289,3.2,5.845,2.981Zm1.168.279c1.478-.2-.377-.636-.3-.016l.3.016ZM4.833,1.555C3.791.2,6.79,1.783,5.732.36c-.89-.708-1.745.8-.9,1.195ZM18.188,8.749c.477-.846-1.97-1.141-.321-.3.152.05.117.358.321.3ZM8.5,40.241a10.713,10.713,0,0,0-.2,2.1q0,.289-.261.29a.367.367,0,0,1-.364-.252,3.292,3.292,0,0,0-.532-.952,1.279,1.279,0,0,0-.793-.382A23.853,23.853,0,0,0,3.7,40.96a1.269,1.269,0,0,0-.634.1q-.093.065-.093.28v4.226q0,.215.27.205.831-.01,2.407-.112a.547.547,0,0,0,.415-.2,2.669,2.669,0,0,0,.21-.844.319.319,0,0,1,.438-.289c.211.044.3.14.271.289a13.77,13.77,0,0,0-.168,3.3q.01.242-.308.261-.262.028-.326-.28-.242-1.166-.9-1.246a20.275,20.275,0,0,0-2.141-.079c-.112,0-.168.04-.168.121v4.2a.638.638,0,0,0,.345.634,4.205,4.205,0,0,0,1.166.252c.305.031.438.165.4.4q-.056.308-.821.243a17.436,17.436,0,0,0-3.647.019q-.4.055-.4-.327,0-.243.4-.28.914-.1.914-1.6V42.247a1.716,1.716,0,0,0-.219-.946A1.888,1.888,0,0,0,.3,40.7q-.373-.168-.28-.457c.031-.118.081-.184.149-.2a1.577,1.577,0,0,1,.494.037,24.057,24.057,0,0,0,2.771.093q2.575,0,4.45-.112.625-.038.625.1a.288.288,0,0,1-.01.075Zm6.049,11.842q0,.373-.42.326a18.5,18.5,0,0,0-3.19.037.982.982,0,0,1-.471-.018c-.059-.038-.088-.14-.088-.308q0-.223.508-.378t.508-.918V42.382a2.178,2.178,0,0,0-.219-1.11,1.42,1.42,0,0,0-.77-.55q-.289-.1-.29-.29,0-.28.42-.42a5.873,5.873,0,0,0,1.316-.634,2.166,2.166,0,0,1,.709-.336q.345,0,.345.475,0-.037-.038.933-.027.923-.018,1.819l.037,8.33a1.073,1.073,0,0,0,.28.826,1.748,1.748,0,0,0,.961.34q.42.046.42.317Zm8.437-.55q0,.2-.713.592a2.568,2.568,0,0,1-1.143.4.809.809,0,0,1-.644-.354q-.28-.354-.392-.354a5.821,5.821,0,0,0-.886.382,3.714,3.714,0,0,1-1.614.383,1.877,1.877,0,0,1-1.278-.448,1.7,1.7,0,0,1-.56-1.344q0-1.614,3.694-2.313c.422-.081.637-.252.643-.513l.019-.6q.056-1.53-1.353-1.53-.4,0-.761.718a1.244,1.244,0,0,1-1.031.775q-.765.074-.765-.644,0-.448,1.138-1.045a4.952,4.952,0,0,1,2.3-.625q1.893,0,1.875,1.8l-.038,3.843q-.009.607.513.606a2.991,2.991,0,0,0,.392-.047q.29-.047.336-.047c.18,0,.27.122.27.364Zm-2.873-2.126c.006-.156-.03-.259-.108-.308a.52.52,0,0,0-.368-.028q-2.248.4-2.248,1.465t1.166,1.073a2.84,2.84,0,0,0,.961-.177q.579-.206.579-.495l.019-1.53Zm9.808,1.053a1.879,1.879,0,0,1-.761,1.572,3.331,3.331,0,0,1-2.076.583,8.4,8.4,0,0,1-1.754-.187,2.128,2.128,0,0,1-.877-.308,5.189,5.189,0,0,1-.075-1.278q0-.494.224-.513a.389.389,0,0,1,.382.242,2.4,2.4,0,0,0,2.258,1.222q1.315,0,1.315-.915a.868.868,0,0,0-.3-.671,4.785,4.785,0,0,0-1.268-.718,6.514,6.514,0,0,1-1.819-1.064,1.745,1.745,0,0,1-.494-1.306,1.822,1.822,0,0,1,.774-1.567,3.116,3.116,0,0,1,1.921-.541,7.252,7.252,0,0,1,1.381.121q.672.121.7.3.074.522.308,1.511c.019.08-.069.146-.261.2s-.342.009-.411-.1a2.157,2.157,0,0,0-1.866-1.2q-1.278,0-1.278.821a.876.876,0,0,0,.345.727,8.732,8.732,0,0,0,1.446.728,5.86,5.86,0,0,1,1.623.923,1.876,1.876,0,0,1,.56,1.427Zm10.974,1.633q0,.326-.439.345-.653.01-1.707.093A.782.782,0,0,1,38,52.4a19.345,19.345,0,0,1-2.5-3.321.245.245,0,0,0-.214-.149,1.248,1.248,0,0,0-.55.28.754.754,0,0,0-.439.69q0,.318.019.915a.925.925,0,0,0,.3.783,2.4,2.4,0,0,0,.9.205q.438.056.439.326c0,.143-.023.232-.07.266a.675.675,0,0,1-.369.023,21.47,21.47,0,0,0-3.153.093q-.56.047-.606-.14a.718.718,0,0,1-.019-.187c0-.192.19-.339.57-.438q.513-.132.513-1.2V42.391a2.614,2.614,0,0,0-.15-1.063,1.415,1.415,0,0,0-.858-.6q-.307-.1-.308-.289,0-.271.438-.42a5.849,5.849,0,0,0,1.334-.644,2.024,2.024,0,0,1,.634-.336q.383,0,.383.485,0-.066-.01.923-.01.914-.009,1.829l.019,5.839c0,.162.043.242.13.242a.843.843,0,0,0,.429-.242q.774-.607,1.9-1.586a.642.642,0,0,0,.224-.373c0-.168-.252-.286-.755-.354a.31.31,0,0,1-.308-.364q.028-.326.327-.28a16.183,16.183,0,0,0,1.959.1q.9.009,1.782.009c.192.006.289.121.289.345s-.152.326-.457.345a3.436,3.436,0,0,0-1.353.326A6.7,6.7,0,0,0,36.574,47.7a.17.17,0,0,0-.075.14,1.861,1.861,0,0,0,.317.625,13.262,13.262,0,0,0,2.2,2.677,1.969,1.969,0,0,0,1.241.569,1.349,1.349,0,0,1,.532.061q.1.061.1.322Z" transform="translate(190 580)"></path></g></svg> 