<?xml version="1.0" encoding="UTF-8"?> <svg xmlns="http://www.w3.org/2000/svg" xmlns:xlink="http://www.w3.org/1999/xlink" width="60" height="60" viewBox="0 0 60 60"><defs><clipPath id="clip-path"><rect id="Rectangle_734" data-name="Rectangle 734" width="60" height="60" transform="translate(272 576)" fill="#fff" stroke="#707070" stroke-width="1"></rect></clipPath></defs><g id="Mask_Group_56" data-name="Mask Group 56" transform="translate(-272 -576)" clip-path="url(#clip-path)"><path id="djangoproject-ar21" d="M11.308,10.725h3V24.632a19.808,19.808,0,0,1-3.9.41c-3.668,0-5.58-1.658-5.58-4.838A4.794,4.794,0,0,1,10,15.151a4.8,4.8,0,0,1,1.307.156Zm0,7a2.982,2.982,0,0,0-1.014-.156,2.269,2.269,0,0,0-2.4,2.575,2.188,2.188,0,0,0,2.38,2.478,7.1,7.1,0,0,0,1.034-.078Zm7.785-2.36v6.965c0,2.4-.176,3.55-.7,4.546A4.8,4.8,0,0,1,15.938,29.1l-2.79-1.327a4.347,4.347,0,0,0,2.38-2.01c.429-.858.566-1.853.566-4.468V15.371Zm-3-4.623h3V13.83h-3Zm4.819,5.306a9.02,9.02,0,0,1,3.981-.9c1.541,0,2.556.41,3,1.21a4.687,4.687,0,0,1,.332,2.283v6.11a33.049,33.049,0,0,1-4.292.332c-2.517,0-3.648-.878-3.648-2.829,0-2.107,1.5-3.087,5.19-3.395V18.2c0-.546-.274-.747-1.034-.747a7.869,7.869,0,0,0-3.531.917V16.047Zm4.7,4.78c-1.99.2-2.639.508-2.639,1.288,0,.585.371.858,1.2.858a8.294,8.294,0,0,0,1.444-.136Zm4.083-4.994a18.022,18.022,0,0,1,4.721-.682,4.5,4.5,0,0,1,3.317,1.034c.624.644.819,1.346.819,2.848v5.892h-3V19.151c0-1.151-.39-1.58-1.464-1.58a4.532,4.532,0,0,0-1.385.214v7.14h-3.01ZM39.714,26.565a6.84,6.84,0,0,0,3.219.8c1.97,0,2.809-.8,2.809-2.712v-.059a4.112,4.112,0,0,1-1.951.41c-2.639,0-4.312-1.736-4.312-4.487,0-3.415,2.478-5.346,6.868-5.346a18.956,18.956,0,0,1,3.922.429L49.24,17.767c-.8-.156-.065-.021-.669-.08V18l.039,1.268.02,1.639c.02.41.02.82.04,1.229v.82c0,2.575-.214,3.784-.858,4.78q-1.4,2.2-4.858,2.191a8.594,8.594,0,0,1-3.239-.586V26.57Zm5.975-8.975h-.312a3.278,3.278,0,0,0-1.736.429,2.327,2.327,0,0,0-1.092,2.2c0,1.5.747,2.36,2.068,2.36a3.7,3.7,0,0,0,1.131-.2V21.355c0-.351-.02-.747-.02-1.151l-.02-1.385-.02-.995V17.59Zm9.244-2.478c3,0,4.838,1.892,4.838,4.956,0,3.137-1.912,5.112-4.956,5.112-3,0-4.858-1.892-4.858-4.936,0-3.161,1.912-5.131,4.975-5.131Zm-.059,7.648c1.151,0,1.834-.956,1.834-2.614s-.663-2.614-1.814-2.614c-1.2,0-1.873.956-1.873,2.614S53.7,22.761,54.874,22.761Z" transform="translate(270.17 585.275)" fill="#092e20"></path></g></svg> 