<?xml version="1.0" encoding="UTF-8"?> <svg xmlns="http://www.w3.org/2000/svg" xmlns:xlink="http://www.w3.org/1999/xlink" width="169" height="177" viewBox="0 0 169 177"><defs><clipPath id="clip-path"><rect id="Rectangle_757" data-name="Rectangle 757" width="66.279" height="66.279" fill="#383838"></rect></clipPath></defs><g id="Group_173" data-name="Group 173" transform="translate(-765 -117)"><g id="Group_171" data-name="Group 171" transform="translate(561.071 -264)"><rect id="Rectangle_947" data-name="Rectangle 947" width="169" height="177" transform="translate(203.929 381)" fill="#fff"></rect><path id="Rectangle_947_-_Outline" data-name="Rectangle 947 - Outline" d="M.3.3V176.7H168.7V.3H.3M0,0H169V177H0Z" transform="translate(203.929 381)" fill="rgba(112,112,112,0.83)"></path></g><g id="Group_60" data-name="Group 60" transform="translate(812.637 147.36)" clip-path="url(#clip-path)"><path id="Path_82" data-name="Path 82" d="M384.444,25.019a4.849,4.849,0,0,1,1.389,2.341c.764,2.42,2.069,1.97,3.66,1.3a24.836,24.836,0,0,1,3.879-1.676,7.847,7.847,0,0,1,2.233-.323c1.525.093,2.47,1.114,2.954,2.972.409,1.569-.084,3.057-.32,4.573-.541,3.467-3,5.321-5.784,6.9-1.852,1.048-3.808,1.916-4.74,4.078a9.128,9.128,0,0,0-.595,4.525,37.889,37.889,0,0,1-.536,10.546,5.874,5.874,0,0,1-1.322,2.623,3.154,3.154,0,0,1-3.955.149,11.894,11.894,0,0,1-3.118-5.933c-.467-1.949-1.035-3.876-1.371-5.854a11.758,11.758,0,0,1,0-3.843c.216-1.344-.236-2.7.018-4.051.061-.325-.289-.609-.627-.672-.437-.081-.559.332-.653.618a10.47,10.47,0,0,1-1.391,3.349c-.827,1.071-1.351,1.078-1.874-.146a11.974,11.974,0,0,1-1.171-4.756c0-1.617-.246-3.23-.178-4.853.019-.484-.075-1.02-.607-1.1a1.183,1.183,0,0,0-1.307.859,7.891,7.891,0,0,0-.389,2.418,16.125,16.125,0,0,1-.417,3.627c-.061.266-.158.553-.484.524-.269-.024-.3-.314-.352-.534a16.754,16.754,0,0,1-.259-4.428c.017-.462.028-.925.059-1.385a.9.9,0,0,0-.838-1.033.834.834,0,0,0-.972.782q-.222,1.917-.413,3.837c-.078.788-.124,1.58-.2,2.369-.03.34-.114.719-.514.726-.354.007-.407-.352-.47-.654a14.651,14.651,0,0,1-.277-2.854,3.6,3.6,0,0,0-.022-.791c-.081-.341-.139-.817-.512-.883-.432-.076-.719.322-.849.7-1.094,3.19-1.5,6.238.185,9.521,1.393,2.707,2.965,5.33,4.225,8.1a28.618,28.618,0,0,1,2.112,6.665c.058.313.037.662-.3.733s-.346-.319-.424-.549c-.19-.56-.389-1.12-.537-1.692a17.8,17.8,0,0,0-1.425-3.648c-1.994-3.915-4.316-7.711-5.537-11.949a8.962,8.962,0,0,1,1.425-8.123c.845-1.107,1.737-1.1,2.254-.1.183-.582.389-1.116.518-1.669a2.031,2.031,0,0,1,1.881-1.6c.937-.158,1.327.507,1.756,1.157.529-.89,1.168-1.527,2.263-1.2a2.079,2.079,0,0,1,1.452,2.212c.514.676.26,1.46.312,2.2a31.723,31.723,0,0,0,.8,6.556c1-1.29.938-2.855,1.882-3.942a1.638,1.638,0,0,1,2-.249c1.41.891,1.332,2.421,1.159,3.666-.636,4.548.537,8.786,1.874,13.015a6.3,6.3,0,0,0,2.014,3.126,1.666,1.666,0,0,0,2.766-.625,6.153,6.153,0,0,0,.494-2.016,38,38,0,0,0,.308-8.391,14.121,14.121,0,0,1,.555-5.493,5.778,5.778,0,0,1,3.652-3.9,11.747,11.747,0,0,0,5.05-3.388,8.872,8.872,0,0,0,2.374-6.526,6.446,6.446,0,0,0-.218-1.268,1.784,1.784,0,0,0-2.462-1.46,15.271,15.271,0,0,0-4.414,1.735c-2.406,1.442-4.248.836-5.3-1.763a9,9,0,0,0-.886-1.876c-.3-.59-.859-.4-1.346-.426a5.093,5.093,0,0,1-.889-.022c-1.278-.155-1.685-.633-1.778-1.917-.12-1.686.313-3.34.247-5.02-.176-.509.244-.955.153-1.456a22.081,22.081,0,0,0-.4-2.731,5.6,5.6,0,0,1,.347-3.108,12.3,12.3,0,0,1,5.677-6.354,9.346,9.346,0,0,1,3.745-.851,14.181,14.181,0,0,1,4.431.111,5.48,5.48,0,0,1,1.7.953.317.317,0,0,1,.128.43.335.335,0,0,1-.411.181,3.25,3.25,0,0,1-.666-.136,9.763,9.763,0,0,0-7.846.188,9.366,9.366,0,0,0-5.479,5.391,8.23,8.23,0,0,0-.058,6.073,1.345,1.345,0,0,1,.42,1.008,17.357,17.357,0,0,1-.172,4.645c-.17.731.194,1.053.9,1.06.265,0,.529-.043.795-.019a1,1,0,0,1,1.007.695" transform="translate(-337.273 -0.9)" fill="#383838"></path><path id="Path_83" data-name="Path 83" d="M385.8,25.792q-2.269,3.669-4.537,7.339c-.493.09-.719.494-.927.879-.447.827-.976,1.405-2.034,1.01a1.534,1.534,0,0,0-.885.025,1.029,1.029,0,0,1-1.177-.511c-2.2-3.1-4.448-6.169-6.687-9.243a3.4,3.4,0,0,1,.112-2.98,1.148,1.148,0,0,1,.594-.337,8.229,8.229,0,0,1,1.061-.252c3.683-.617,7.332-1.409,11-2.1.418-.079.866-.132,1.082-.593a2.806,2.806,0,0,0-.107-1.414c-.093.453-.482.365-.786.425-4.1.8-8.208,1.573-12.3,2.43-.953.2-1.528.017-1.864-.884a.889.889,0,0,1-.124-1.144c1.231-2.22,2.5-4.425,3.6-6.711a2.037,2.037,0,0,1,2.224-1.292,2.037,2.037,0,0,0,2.3-1.478c1.061-2.911-.744-5.432-3.785-5.287a3.7,3.7,0,0,0-3.051,2.56,3.363,3.363,0,0,0,1.224,3.606c.52.331.448.582.22,1.008q-1.868,3.494-3.7,7c-.212.406-.436.591-.935.45a2.88,2.88,0,0,0-2.558.389c-.519.375-.871.181-1.307-.153-2.593-1.98-5.205-3.936-7.811-5.9-.464-.367-.906-.766-1.4-1.092a.961.961,0,0,1-.441-1.309,4.2,4.2,0,0,0-.582-3.762c-1.194-1.872-5-1.886-6.184.016a4.823,4.823,0,0,0,.12,4.805c1.094,1.325,2.586,2.045,4.209,1.308,1.488-.676,2.433-.172,3.414.785a4.352,4.352,0,0,0,.653.444c2.205,1.7,4.352,3.482,6.641,5.058a1.729,1.729,0,0,1,.767,2.5,4.289,4.289,0,0,0,.116,2.189c.419.372.555,1.035,1.2,1.173.3.515-.145.771-.384,1.095-1.307,1.762-2.787,3.393-3.982,5.24a39.139,39.139,0,0,0-2.575,3.365c-1.137-.1-2.3-.6-3.376.214-2.171,1.13-2.592,3.257-.983,4.974l.418.361a3.889,3.889,0,0,0,5.241-.307,3.558,3.558,0,0,0-.024-3.9,1.065,1.065,0,0,1,.112-1.522,14.551,14.551,0,0,0,2.032-2.768c1.386-1.52,2.548-3.216,3.795-4.846.471-.617.932-1.134,1.854-.9a2.089,2.089,0,0,0,1.458-.111c.813-.431,1.262-.106,1.749.58,2.148,3.039,4.321,6.061,6.555,9.037.549.731.549,1.23-.1,1.792q0,1.2,0,2.4c.1.311.116.641.2.954a2.262,2.262,0,0,0,2.939,1.635,1.551,1.551,0,0,1,1.77-.218,1.617,1.617,0,0,0,1.035-.523,3.07,3.07,0,0,0,.7-2.3c0-1.708-.685-3.483.5-5.077.072-.1-.019.036,0-.094a1.43,1.43,0,0,0-.034-.151c.69-1.1,1.368-2.2,2.086-3.279A36.822,36.822,0,0,1,387,26.084c-.283-.576-.747-.409-1.2-.291m-33.82,10.242c0-.019.008-.035.012-.053l.037.024-.049.029" transform="translate(-340.249 -1.032)" fill="#383838"></path><path id="Path_84" data-name="Path 84" d="M387.772,12.141h0c-1.162-.906-3.572-.618-4.324.564a6.077,6.077,0,0,0-.975,1.92.9.9,0,0,1-.873.755c-1.255.22-2.5.5-3.746.764a2.287,2.287,0,0,0,.173,1.072c.63.472,1.263.055,1.893,0,.93-.076,1.828-.635,2.794-.181a1.841,1.841,0,0,1,.236.11,4.742,4.742,0,0,1-.628,1.439c-.719,1.167-1.461,2.322-2.156,3.5-.177.3-.458.574-.324.98a1.776,1.776,0,0,1,.962.461q1.552-2.509,3.1-5.021c.11-.178.226-.323.464-.275h0c2.291.831,3.879.291,4.76-1.866.694-1.778-.246-3.033-1.359-4.23" transform="translate(-333.635 0.589)" fill="#383838"></path></g><path id="Path_168" data-name="Path 168" d="M7.163-11.232A3.462,3.462,0,0,0,4.315-9.949,5.485,5.485,0,0,0,3.278-6.407a5.522,5.522,0,0,0,1,3.577A3.523,3.523,0,0,0,7.163-1.617,7.586,7.586,0,0,0,8.745-1.78q.765-.163,1.591-.417V-.4A9.645,9.645,0,0,1,6.908.176,5.479,5.479,0,0,1,2.575-1.534,7.151,7.151,0,0,1,1.063-6.425,7.9,7.9,0,0,1,1.8-9.932a5.238,5.238,0,0,1,2.123-2.3,6.42,6.42,0,0,1,3.261-.8,8.092,8.092,0,0,1,3.639.826l-.756,1.749A11.285,11.285,0,0,0,8.688-11,4.956,4.956,0,0,0,7.163-11.232ZM14.95,0H12.885V-13.676H14.95Zm9.035,0-.413-1.354H23.5A3.982,3.982,0,0,1,22.087-.145a4.475,4.475,0,0,1-1.828.321A3.094,3.094,0,0,1,18.022-.6a2.894,2.894,0,0,1-.8-2.188,2.57,2.57,0,0,1,1.116-2.268,6.436,6.436,0,0,1,3.4-.835l1.679-.053V-6.46a1.965,1.965,0,0,0-.435-1.393,1.774,1.774,0,0,0-1.349-.461,4.665,4.665,0,0,0-1.433.22,10.811,10.811,0,0,0-1.318.519l-.668-1.477a7.189,7.189,0,0,1,1.731-.628A7.968,7.968,0,0,1,21.718-9.9a4.2,4.2,0,0,1,2.8.809,3.166,3.166,0,0,1,.945,2.54V0ZM20.909-1.406a2.558,2.558,0,0,0,1.806-.628A2.278,2.278,0,0,0,23.4-3.8v-.844l-1.248.053a4.27,4.27,0,0,0-2.123.488,1.482,1.482,0,0,0-.664,1.332,1.3,1.3,0,0,0,.387,1.006A1.661,1.661,0,0,0,20.909-1.406ZM35.2,0l-.29-1.274H34.8A2.931,2.931,0,0,1,33.579-.211a4.1,4.1,0,0,1-1.815.387A3.563,3.563,0,0,1,29.127-.7a3.643,3.643,0,0,1-.87-2.663V-9.721H30.34v5.994A2.6,2.6,0,0,0,30.8-2.052a1.745,1.745,0,0,0,1.433.558,2.281,2.281,0,0,0,1.912-.778,4.286,4.286,0,0,0,.611-2.606V-9.721h2.074V0Zm7.849.176A3.386,3.386,0,0,1,40.21-1.143a5.926,5.926,0,0,1-1.02-3.7,5.945,5.945,0,0,1,1.033-3.722A3.418,3.418,0,0,1,43.084-9.9,3.351,3.351,0,0,1,46-8.481h.105a12.381,12.381,0,0,1-.149-1.652v-3.542h2.074V0H46.415l-.36-1.274h-.1A3.3,3.3,0,0,1,43.049.176Zm.554-1.67a2.248,2.248,0,0,0,1.854-.716,3.771,3.771,0,0,0,.6-2.325v-.29a4.357,4.357,0,0,0-.6-2.61,2.217,2.217,0,0,0-1.872-.773,1.9,1.9,0,0,0-1.679.883,4.527,4.527,0,0,0-.589,2.518,4.414,4.414,0,0,0,.571,2.465A1.929,1.929,0,0,0,43.6-1.494ZM55.23.176a4.7,4.7,0,0,1-3.546-1.323A5.021,5.021,0,0,1,50.405-4.79a5.509,5.509,0,0,1,1.187-3.744A4.1,4.1,0,0,1,54.853-9.9a4.006,4.006,0,0,1,3.041,1.169A4.467,4.467,0,0,1,59.01-5.511v1.116H52.532A3.193,3.193,0,0,0,53.3-2.219a2.663,2.663,0,0,0,2.03.76,7.5,7.5,0,0,0,1.6-.163,8.408,8.408,0,0,0,1.6-.541V-.483A6.342,6.342,0,0,1,57,.026,9.378,9.378,0,0,1,55.23.176Zm-.378-8.508a2.075,2.075,0,0,0-1.578.624,2.974,2.974,0,0,0-.708,1.819h4.412a2.691,2.691,0,0,0-.58-1.824A1.984,1.984,0,0,0,54.853-8.332Z" transform="translate(819.429 256)"></path></g></svg> 