<?xml version="1.0" encoding="UTF-8"?> <svg xmlns="http://www.w3.org/2000/svg" width="169" height="177" viewBox="0 0 169 177"><g id="Group_174" data-name="Group 174" transform="translate(-969 -116)"><g id="Group_172" data-name="Group 172" transform="translate(765.071 -265)"><rect id="Rectangle_947" data-name="Rectangle 947" width="169" height="177" transform="translate(203.929 381)" fill="#fff"></rect><path id="Rectangle_947_-_Outline" data-name="Rectangle 947 - Outline" d="M.3.3V176.7H168.7V.3H.3M0,0H169V177H0Z" transform="translate(203.929 381)" fill="rgba(112,112,112,0.83)"></path></g><path id="Path_163" data-name="Path 163" d="M68.161,35.059a11.466,11.466,0,0,0-2.38-6.721,2.334,2.334,0,0,1-.444-2.148A14.784,14.784,0,0,0,65.5,20.48,15.3,15.3,0,0,0,48.857,7.956a2.264,2.264,0,0,1-1.781-.49c-.9-.713-1.793-1.438-2.76-2.07C42.673,4.323,40.8,4.172,38.948,3.922H34.526c-.132.123-.3.088-.453.1a10.113,10.113,0,0,0-4.808,1.274,15.476,15.476,0,0,0-6.321,6.9,2.924,2.924,0,0,1-1.917,1.717,13.74,13.74,0,0,0-6.492,4.279,12.175,12.175,0,0,0-3.242,6.7c-.145,1.438-.079,2.877-.125,4.315a11.832,11.832,0,0,0,2.388,7.832,2.6,2.6,0,0,1,.49,2.339,14.6,14.6,0,0,0,.615,8.305C16.742,53.7,23.257,58.12,29.617,57.57A4.631,4.631,0,0,1,33.4,58.88a10.375,10.375,0,0,0,4.72,2.469,25.605,25.605,0,0,0,6.618.3,10.987,10.987,0,0,0,4.278-.9,15.2,15.2,0,0,0,7.5-7.529A2.616,2.616,0,0,1,58.3,51.638,10.965,10.965,0,0,0,61,50.4c3.823-2.282,6.534-5.361,7.039-9.994.041-.374-.1-.769.118-1.124Zm-22.6-21.489a10.1,10.1,0,0,1,10.9.543,10.491,10.491,0,0,1,4.79,9.852c-.046.972-.5.534-.892.311C56.893,22.28,53.425,20.306,50,18.264a2.732,2.732,0,0,0-3.113-.01c-3.9,2.307-7.844,4.55-11.771,6.814-.46.265-.926.522-1.545.872,0-1.81.015-3.409-.01-5.008a.843.843,0,0,1,.521-.818c3.823-2.187,7.6-4.472,11.479-6.546m.309,19.448c-.064.957.423,2.346-.171,3.252-.566.86-1.884,1.232-2.88,1.805-1.023.586-2.052,1.6-3.083,1.607s-2.062-1.009-3.086-1.587c-.862-.487-1.7-1.009-2.576-1.475a.883.883,0,0,1-.514-.906q.03-2.974,0-5.949a.878.878,0,0,1,.524-.892c1.7-.95,3.392-1.913,5.053-2.924a1,1,0,0,1,1.2.035q2.464,1.47,4.971,2.873a.936.936,0,0,1,.571.967c-.035.99-.012,1.982-.012,3.194m-19.74-16a9.912,9.912,0,0,1,6.534-8.434A10.376,10.376,0,0,1,43.173,9.962a1.326,1.326,0,0,1,.2.274l-8.385,4.842c-.941.543-1.861,1.124-2.826,1.621a2.5,2.5,0,0,0-1.423,2.489c.017,4.769-.01,9.539-.022,14.31v1.159c-1.614-.935-3.089-1.785-4.56-2.647-.221-.13-.216-.375-.213-.6.068-4.8-.328-9.62.179-14.393M15.166,27.774a10.324,10.324,0,0,1,5.805-9.069c1.051-.559,1.061-.546,1.061.605,0,4,.025,8-.015,12a2.47,2.47,0,0,0,1.4,2.391c4.244,2.417,8.469,4.866,12.7,7.3.22.127.429.269.769.483-1.481.854-2.87,1.636-4.24,2.454a.9.9,0,0,1-1.044,0c-3.835-2.234-7.739-4.354-11.5-6.7a10.053,10.053,0,0,1-4.935-9.47M18.227,43.79a14.019,14.019,0,0,1-.034-2.013c.008-1.033.025-1.044.9-.543q4.523,2.6,9.039,5.222c3.051,1.773,2.623,1.808,5.743-.014,3.75-2.187,7.518-4.345,11.281-6.51a.868.868,0,0,1,.712-.226c0,1.631-.014,3.23.008,4.827a.84.84,0,0,1-.505.825c-3.794,2.173-7.541,4.435-11.381,6.525a10.7,10.7,0,0,1-15.76-8.094m35.161,3.492a10.117,10.117,0,0,1-5.74,9.2,10.338,10.338,0,0,1-10.839-.544,6.171,6.171,0,0,1-.548-.389,2.07,2.07,0,0,1-.235-.289c2.283-1.317,4.551-2.618,6.816-3.924,1.438-.832,2.853-1.707,4.322-2.484a2.636,2.636,0,0,0,1.5-2.642c-.042-4.741-.02-9.481-.012-14.222A1.69,1.69,0,0,1,48.8,30.9c1.442.825,2.877,1.643,4.31,2.466.338.194.306.529.306.848,0,4.357.073,8.716-.032,13.069m10.864-9.415a10.4,10.4,0,0,1-5.941,9.008c-.745.392-.941.3-.933-.571.034-3.94-.02-7.879.03-11.819A2.809,2.809,0,0,0,55.823,31.7c-4.2-2.366-8.368-4.8-12.546-7.22-.218-.127-.426-.274-.747-.48,1.506-.867,2.9-1.65,4.269-2.464a.825.825,0,0,1,.958-.01c3.867,2.25,7.807,4.382,11.6,6.75a10.04,10.04,0,0,1,4.894,9.593" transform="translate(1014.268 146.099)" fill="#383838" stroke="rgba(195,195,195,0)" stroke-width="1"></path><g id="d" transform="translate(604.166 -201.9)"><path id="Path_186" data-name="Path 186" d="M424.3,450.4a7.968,7.968,0,0,1-.8,3.6,4.708,4.708,0,0,1-2.4,2.2,8.433,8.433,0,0,1-3.7.7h-3.6V444.2h4a7.824,7.824,0,0,1,3.5.7,5.827,5.827,0,0,1,2.3,2.1A7.121,7.121,0,0,1,424.3,450.4Zm-2.8.1a5.27,5.27,0,0,0-.4-2.3,2.562,2.562,0,0,0-1.2-1.3,3.966,3.966,0,0,0-2-.4h-1.4v8.3h1.2a3.69,3.69,0,0,0,2.9-1.1A5.075,5.075,0,0,0,421.5,450.5Z" stroke="#fff" stroke-width="0.3"></path><path id="Path_187" data-name="Path 187" d="M434.8,456.9l-.9-3h-4.6l-.9,3h-2.9l4.5-12.8h3.3l4.5,12.8Zm-1.6-5.3-.9-3c-.1-.2-.1-.5-.2-.8l-.3-.9a3.091,3.091,0,0,1-.2-.8,6.374,6.374,0,0,0-.2.9c-.1.4-.2.7-.3,1a2.544,2.544,0,0,0-.2.7l-.9,3h3.2Z" stroke="#fff" stroke-width="0.3"></path><path id="Path_188" data-name="Path 188" d="M439.3,456.9V444.2H442v10.5h5.2v2.2Z" stroke="#fff" stroke-width="0.3"></path><path id="Path_189" data-name="Path 189" d="M449.3,456.9V444.2H452v10.5h5.2v2.2Z" stroke="#fff" stroke-width="0.3"></path><path id="Path_190" data-name="Path 190" d="M458.8,450.7a1.246,1.246,0,0,1,.4-1.1,2.167,2.167,0,0,1,2.2,0,1.713,1.713,0,0,1,0,2.2,2.167,2.167,0,0,1-2.2,0A1.246,1.246,0,0,1,458.8,450.7Z" stroke="#fff" stroke-width="0.3"></path><path id="Path_191" data-name="Path 191" d="M471.8,456.9h-7.3V444.2h7.3v2.2h-4.6v2.8h4.3v2.2h-4.3v3.3h4.6Z" stroke="#fff" stroke-width="0.3"></path><path id="Path_192" data-name="Path 192" d="M487,456.9h-8.9V455l3.2-3.2c.6-.7,1.2-1.2,1.6-1.7a4.7,4.7,0,0,0,.9-1.2,2.663,2.663,0,0,0,.3-1.2,1.246,1.246,0,0,0-.4-1.1,2.1,2.1,0,0,0-1.1-.4,3.194,3.194,0,0,0-1.4.3,5.557,5.557,0,0,0-1.5,1l-1.5-1.7,1.2-.9a6.11,6.11,0,0,1,1.4-.7,5.618,5.618,0,0,1,2-.3,5.091,5.091,0,0,1,2.2.5,3.325,3.325,0,0,1,1.4,1.2,3.453,3.453,0,0,1,.5,1.8,4.058,4.058,0,0,1-.4,1.9,6.569,6.569,0,0,1-1.2,1.7c-.5.6-1.2,1.2-1.9,1.9l-1.6,1.5v.1h5.5v2.4Z" stroke="#fff" stroke-width="0.3"></path></g></g></svg> 