<?xml version="1.0" encoding="UTF-8"?> <svg xmlns="http://www.w3.org/2000/svg" xmlns:xlink="http://www.w3.org/1999/xlink" width="169" height="177" viewBox="0 0 169 177"><defs><clipPath id="clip-path"><rect id="Rectangle_755" data-name="Rectangle 755" width="78.945" height="28.462" fill="#383838"></rect></clipPath></defs><g id="Group_145" data-name="Group 145" transform="translate(-555 -336)"><g id="Rectangle_946" data-name="Rectangle 946" transform="translate(555 336)" fill="#fff" stroke="rgba(112,112,112,0.83)" stroke-linecap="round" stroke-linejoin="round" stroke-width="0.3"><rect width="169" height="177" stroke="none"></rect><rect x="0.15" y="0.15" width="168.7" height="176.7" fill="none"></rect></g><g id="Group_56" data-name="Group 56" transform="translate(600 384)" clip-path="url(#clip-path)"><path id="Path_37" data-name="Path 37" d="M263.659,100.217a5.928,5.928,0,0,1-5.223,5.219,6.033,6.033,0,0,1,5.236,5.168,6.03,6.03,0,0,1,5.137-5.158,6.065,6.065,0,0,1-5.15-5.229" transform="translate(-209.936 -100.216)" fill="#383838"></path><path id="Path_38" data-name="Path 38" d="M243.524,115.4q-2.119.006-4.241.007c-1.4,0-2.791.009-4.185-.014-.384-.007-.484.129-.461.484a8.527,8.527,0,0,1,0,1.325c-.044.471.145.57.583.564,1.953-.02,3.907-.01,5.86-.006.215,0,.5-.085.484.3l-.107.785a6.745,6.745,0,0,1-3.251,4.139,8.865,8.865,0,0,1-2.764.736,8.291,8.291,0,0,1-2.374-.053c-.115-.148-.3-.117-.451-.158a7.331,7.331,0,0,1-5.481-7.054,11.269,11.269,0,0,1,.509-3.513c.1-.168.208-.329.292-.5a7.3,7.3,0,0,1,2.265-2.652,12.227,12.227,0,0,1,2.074-1.077c.112-.021.223-.04.335-.069a7.723,7.723,0,0,1,6.453,1.191c.334.232.519.829.941.709.36-.1.623-.559.921-.86.887-.88.875-.868-.117-1.639a9.609,9.609,0,0,0-4.577-1.881,10.112,10.112,0,0,0-4.841.385,1.638,1.638,0,0,0-.189.04,9.871,9.871,0,0,0-4.842,3.7,8.809,8.809,0,0,0-1.474,3.215c-.11.468-.2.94-.3,1.411v2.361a1.794,1.794,0,0,1,.185.8,9.773,9.773,0,0,0,4.831,6.765,9.351,9.351,0,0,0,4.143,1.272,4.886,4.886,0,0,0,1.991-.076,8.036,8.036,0,0,0,4.242-1.378,4.157,4.157,0,0,0,1.1-.8,7.338,7.338,0,0,0,2.351-3.334.494.494,0,0,0,.087-.116,10.958,10.958,0,0,0,.5-4.679c-.034-.338-.256-.322-.494-.322" transform="translate(-224.583 -97.704)" fill="#383838"></path><path id="Path_39" data-name="Path 39" d="M266.874,110.565c-.655.026-1.314.019-1.968.024-.172.142-.092.337-.093.5-.006,1.163,0,2.324,0,3.487,0,2.85.014,5.7-.006,8.546,0,.467.142.6.584.563a12.7,12.7,0,0,1,1.477,0c.325.014.421-.106.42-.424-.013-2.062-.009-4.125-.01-6.188,0-2.03,0-4.06.02-6.086,0-.321-.1-.433-.423-.421" transform="translate(-207.185 -95.738)" fill="#383838"></path><path id="Path_40" data-name="Path 40" d="M269.177,114.538h0A4.98,4.98,0,0,0,268,111.633c-1.533-1.824-5.274-1.791-7.027-.074a7.9,7.9,0,0,0-1.012,1.2,4.65,4.65,0,0,0-6.278-1.956c-.066.036-.132.072-.195.109a4.8,4.8,0,0,0-1.878,1.653c0-.574-.016-.991.006-1.41.017-.327-.069-.479-.431-.458a15.061,15.061,0,0,1-1.526,0c-.317-.013-.431.087-.427.415.017,1.244.011,2.489.014,3.733q0,4.274-.01,8.547c0,.277.069.411.365.451a11.917,11.917,0,0,0,1.766.032c.308,0,.347-.219.347-.478-.009-2.391-.007-4.781-.009-7.172a4.111,4.111,0,0,1,2.123-3.423,4.454,4.454,0,0,1,2.023-.231,2.336,2.336,0,0,1,1.868,1.393c.027.347.178.656.219,1,.146,1.239.03,2.481.086,3.721,0,1.57,0,3.14-.014,4.709,0,.375.155.5.494.494.491-.006.984-.02,1.474.006.381.017.516-.11.516-.5-.016-2.387-.009-4.776-.009-7.165l.087-.688a4.421,4.421,0,0,1,1.351-2.282,3.226,3.226,0,0,1,3.285-.5c1.076.327,1.374,1.265,1.5,2.265.173,1.314.036,2.643.092,3.964,0,1.507,0,3.017-.013,4.524,0,.309.116.4.407.387.526-.016,1.054-.024,1.579,0,.4.021.5-.145.5-.52-.011-2.754,0-5.507-.007-8.261a.823.823,0,0,0-.087-.57" transform="translate(-213.92 -95.868)" fill="#383838"></path><path id="Path_41" data-name="Path 41" d="M266.22,106.185a1.742,1.742,0,0,0-1.759,1.723v.062a1.655,1.655,0,0,0,1.633,1.673c.033,0,.067,0,.1,0a1.712,1.712,0,0,0,1.768-1.655c0-.017,0-.033,0-.049a1.738,1.738,0,0,0-1.723-1.752h-.024" transform="translate(-207.33 -97.633)" fill="#383838"></path><path id="Path_42" data-name="Path 42" d="M279.043,109.651a1.645,1.645,0,0,0,1.676-1.613c0-.033,0-.066,0-.1a1.631,1.631,0,0,0-1.5-1.751,1.687,1.687,0,0,0-.191,0,1.733,1.733,0,0,0-.05,3.466h.067" transform="translate(-201.789 -97.634)" fill="#383838"></path><path id="Path_43" data-name="Path 43" d="M280.075,110.581h-2.358c-.16.125-.1.3-.1.454V114.9q0,2.108-.007,4.219c0,1.374,0,2.746,0,4.122,0,.322.052.54.451.523.523-.02,1.05,0,1.576-.007.322,0,.471-.155.451-.49-.02-.393-.006-.785-.007-1.176.046-1.355.026-2.712.069-4.07.08-2.322.024-4.65.022-6.977,0-.155.064-.332-.1-.456m-2.311,5.18c-.019.006-.03.02-.049.026v-.066a.3.3,0,0,0,.049.034" transform="translate(-201.642 -95.732)" fill="#383838"></path><path id="Path_44" data-name="Path 44" d="M279.687,114.833a4.479,4.479,0,0,0-1.384-3.241,1.546,1.546,0,0,0-.456-.438,5.554,5.554,0,0,0-6.232.159,14.393,14.393,0,0,0-1.142,1.129,9.382,9.382,0,0,1-.05-1.375c.01-.269-.079-.384-.362-.375-.639.019-1.279.014-1.918.019-.129.069-.1.195-.1.3q.007,2.6.016,5.2-.006,3.63-.013,7.262c0,.215.026.4.3.4.59,0,1.18,0,1.769-.011.286-.009.414-.156.405-.474-.02-1.145-.01-2.289-.013-3.433v-3.642c.033-.226.052-.456.1-.678a3.614,3.614,0,0,1,5.524-2.573,3.1,3.1,0,0,1,1.089,2.166q0,4.107-.009,8.212c0,.351.145.458.473.447.494-.017.987-.007,1.479,0,.421,0,.616-.16.612-.617-.013-2.656,0-5.311-.006-7.964,0-.159.046-.332-.087-.468M277.32,117.3v-.037a.293.293,0,0,0,.03.03c-.013,0-.019.007-.03.007" transform="translate(-205.782 -95.864)" fill="#383838"></path><path id="Path_45" data-name="Path 45" d="M248.953,111.154a6.7,6.7,0,0,0-3.967-.842,5.854,5.854,0,0,0-4.832,2.861,1.473,1.473,0,0,0-.148.191,7.861,7.861,0,0,0-.96,4.715A6.794,6.794,0,0,0,240.9,122.3a6.881,6.881,0,0,0,10.594-1.16c.172-.269.191-.444-.158-.593-.513-.219-1.013-.473-1.5-.738-.258-.139-.367-.107-.529.153a3.986,3.986,0,0,1-4.543,1.944,4.237,4.237,0,0,1-3.232-3.822c-.026-.309.1-.407.394-.39.328.017.658,0,.986,0h7.007c.494,0,.989-.023,1.479.014.431.032.514-.145.513-.537a9.428,9.428,0,0,0-.305-2.324,6.029,6.029,0,0,0-2.652-3.693m-6.473,4.413a.954.954,0,0,0-.593.128c-.027-.258.185-.5.052-.768a.527.527,0,0,0,.285-.294,3.422,3.422,0,0,1,3.444-1.936,1.025,1.025,0,0,0,.8-.122,3.692,3.692,0,0,1,2.447,1.8,3.75,3.75,0,0,1,.249.633c.185.609.116.7-.526.715a.844.844,0,0,0-.65-.155q-2.753-.009-5.507,0" transform="translate(-218.346 -95.862)" fill="#383838"></path></g><path id="Path_174" data-name="Path 174" d="M6.952-6.97h4.729V-.519A13.684,13.684,0,0,1,9.453.018,15.772,15.772,0,0,1,7.146.176a5.8,5.8,0,0,1-4.5-1.727A6.955,6.955,0,0,1,1.063-6.425a6.5,6.5,0,0,1,1.784-4.856,6.707,6.707,0,0,1,4.913-1.753,9.568,9.568,0,0,1,3.814.773l-.738,1.749a7.423,7.423,0,0,0-3.129-.721A4.213,4.213,0,0,0,4.456-9.94a5,5,0,0,0-1.2,3.533A5.275,5.275,0,0,0,4.337-2.826,3.9,3.9,0,0,0,7.436-1.6a10.182,10.182,0,0,0,2.18-.255V-5.168H6.952ZM23.168-4.878A5.306,5.306,0,0,1,21.946-1.16a4.377,4.377,0,0,1-3.4,1.336,4.66,4.66,0,0,1-2.408-.615,4.062,4.062,0,0,1-1.608-1.767,6.017,6.017,0,0,1-.562-2.672,5.27,5.27,0,0,1,1.213-3.691A4.4,4.4,0,0,1,18.6-9.9a4.282,4.282,0,0,1,3.34,1.358A5.245,5.245,0,0,1,23.168-4.878Zm-7.075,0q0,3.366,2.487,3.366,2.461,0,2.461-3.366,0-3.331-2.479-3.331a2.113,2.113,0,0,0-1.885.861A4.383,4.383,0,0,0,16.093-4.878Zm18.07,0A5.306,5.306,0,0,1,32.941-1.16,4.377,4.377,0,0,1,29.54.176a4.66,4.66,0,0,1-2.408-.615,4.062,4.062,0,0,1-1.608-1.767,6.017,6.017,0,0,1-.562-2.672,5.27,5.27,0,0,1,1.213-3.691A4.4,4.4,0,0,1,29.593-9.9a4.282,4.282,0,0,1,3.34,1.358A5.245,5.245,0,0,1,34.163-4.878Zm-7.075,0q0,3.366,2.487,3.366,2.461,0,2.461-3.366,0-3.331-2.479-3.331a2.113,2.113,0,0,0-1.885.861A4.383,4.383,0,0,0,27.088-4.878ZM44.745-9.721v1.134l-1.661.308a2.681,2.681,0,0,1,.378.756,2.982,2.982,0,0,1,.149.949A2.908,2.908,0,0,1,42.574-4.21a4.34,4.34,0,0,1-2.856.861,4.632,4.632,0,0,1-.844-.07,1.164,1.164,0,0,0-.668.967.537.537,0,0,0,.312.5,2.7,2.7,0,0,0,1.147.167h1.7A3.772,3.772,0,0,1,43.8-1.1,2.412,2.412,0,0,1,44.64.879a2.876,2.876,0,0,1-1.362,2.549,7.173,7.173,0,0,1-3.937.9,5.434,5.434,0,0,1-3.032-.7,2.273,2.273,0,0,1-1.046-2A2.133,2.133,0,0,1,35.829.11a3.038,3.038,0,0,1,1.586-.848,1.552,1.552,0,0,1-.681-.567,1.431,1.431,0,0,1-.268-.822,1.415,1.415,0,0,1,.308-.923,3.549,3.549,0,0,1,.914-.747,2.707,2.707,0,0,1-1.226-1.059,3.115,3.115,0,0,1-.47-1.718,3.08,3.08,0,0,1,1-2.452,4.194,4.194,0,0,1,2.843-.87,6.921,6.921,0,0,1,.866.057,5.45,5.45,0,0,1,.681.119ZM37.107,1.512a1.136,1.136,0,0,0,.6,1.028A3.309,3.309,0,0,0,39.4,2.9a5.112,5.112,0,0,0,2.514-.483,1.449,1.449,0,0,0,.826-1.283.963.963,0,0,0-.453-.9,3.635,3.635,0,0,0-1.683-.268H39.041A2.2,2.2,0,0,0,37.63.382,1.369,1.369,0,0,0,37.107,1.512ZM38-6.574a1.956,1.956,0,0,0,.47,1.406,1.778,1.778,0,0,0,1.349.492q1.793,0,1.793-1.916a2.173,2.173,0,0,0-.444-1.463,1.686,1.686,0,0,0-1.349-.514,1.739,1.739,0,0,0-1.358.51A2.143,2.143,0,0,0,38-6.574ZM48.612,0H46.547V-13.676h2.065Zm7.2.176a4.7,4.7,0,0,1-3.546-1.323A5.021,5.021,0,0,1,50.985-4.79a5.509,5.509,0,0,1,1.187-3.744A4.1,4.1,0,0,1,55.433-9.9a4.006,4.006,0,0,1,3.041,1.169A4.467,4.467,0,0,1,59.59-5.511v1.116H53.112a3.193,3.193,0,0,0,.765,2.175,2.663,2.663,0,0,0,2.03.76,7.5,7.5,0,0,0,1.6-.163,8.408,8.408,0,0,0,1.6-.541V-.483a6.342,6.342,0,0,1-1.529.51A9.378,9.378,0,0,1,55.811.176Zm-.378-8.508a2.075,2.075,0,0,0-1.578.624,2.974,2.974,0,0,0-.708,1.819H57.56a2.691,2.691,0,0,0-.58-1.824A1.984,1.984,0,0,0,55.433-8.332ZM72.088-6.97h4.729V-.519a13.684,13.684,0,0,1-2.228.536,15.772,15.772,0,0,1-2.307.158,5.8,5.8,0,0,1-4.5-1.727A6.955,6.955,0,0,1,66.2-6.425a6.5,6.5,0,0,1,1.784-4.856A6.707,6.707,0,0,1,72.9-13.034a9.568,9.568,0,0,1,3.814.773l-.738,1.749a7.423,7.423,0,0,0-3.129-.721A4.213,4.213,0,0,0,69.592-9.94a5,5,0,0,0-1.2,3.533,5.275,5.275,0,0,0,1.077,3.582,3.9,3.9,0,0,0,3.1,1.226,10.182,10.182,0,0,0,2.18-.255V-5.168H72.088ZM83.927.176A4.7,4.7,0,0,1,80.38-1.147,5.021,5.021,0,0,1,79.1-4.79a5.509,5.509,0,0,1,1.187-3.744A4.1,4.1,0,0,1,83.549-9.9,4.006,4.006,0,0,1,86.59-8.728a4.467,4.467,0,0,1,1.116,3.217v1.116H81.229a3.193,3.193,0,0,0,.765,2.175,2.663,2.663,0,0,0,2.03.76,7.5,7.5,0,0,0,1.6-.163,8.408,8.408,0,0,0,1.6-.541V-.483a6.342,6.342,0,0,1-1.529.51A9.378,9.378,0,0,1,83.927.176Zm-.378-8.508a2.075,2.075,0,0,0-1.578.624,2.974,2.974,0,0,0-.708,1.819h4.412a2.691,2.691,0,0,0-.58-1.824A1.984,1.984,0,0,0,83.549-8.332ZM98.244,0H96.17V-5.994a2.718,2.718,0,0,0-.422-1.666,1.557,1.557,0,0,0-1.318-.549,2.011,2.011,0,0,0-1.753.778,4.564,4.564,0,0,0-.558,2.588V0H90.053V-9.721H91.67l.29,1.274h.105a2.693,2.693,0,0,1,1.173-1.072A3.783,3.783,0,0,1,94.931-9.9,2.956,2.956,0,0,1,97.9-8.367h.141a2.963,2.963,0,0,1,1.213-1.125,3.849,3.849,0,0,1,1.793-.4,3.265,3.265,0,0,1,2.536.879,3.892,3.892,0,0,1,.8,2.681V0h-2.065V-5.994a2.7,2.7,0,0,0-.426-1.666,1.569,1.569,0,0,0-1.323-.549,2.05,2.05,0,0,0-1.762.751,3.874,3.874,0,0,0-.558,2.307Zm11.083,0h-2.065V-9.721h2.065Zm-2.188-12.3a1.144,1.144,0,0,1,.3-.853,1.182,1.182,0,0,1,.866-.3,1.156,1.156,0,0,1,.848.3,1.144,1.144,0,0,1,.3.853,1.122,1.122,0,0,1-.3.831,1.147,1.147,0,0,1-.848.3,1.171,1.171,0,0,1-.866-.3A1.122,1.122,0,0,1,107.139-12.3ZM120.832,0h-2.074V-5.977a2.616,2.616,0,0,0-.453-1.679,1.75,1.75,0,0,0-1.437-.554,2.285,2.285,0,0,0-1.916.773,4.27,4.27,0,0,0-.606,2.593V0H112.28V-9.721H113.9l.29,1.274h.105a2.876,2.876,0,0,1,1.248-1.072,4.182,4.182,0,0,1,1.793-.378q3.5,0,3.5,3.56Zm4.939,0h-2.065V-9.721h2.065Zm-2.188-12.3a1.144,1.144,0,0,1,.3-.853,1.182,1.182,0,0,1,.866-.3,1.156,1.156,0,0,1,.848.3,1.144,1.144,0,0,1,.3.853,1.122,1.122,0,0,1-.3.831,1.147,1.147,0,0,1-.848.3,1.171,1.171,0,0,1-.866-.3A1.122,1.122,0,0,1,123.583-12.3Z" transform="translate(575.937 473.568)"></path></g></svg> 