<?xml version="1.0" encoding="UTF-8"?> <svg xmlns="http://www.w3.org/2000/svg" xmlns:xlink="http://www.w3.org/1999/xlink" width="90" height="90" viewBox="0 0 90 90"><defs><clipPath id="clip-path"><rect id="Rectangle_77" data-name="Rectangle 77" width="90" height="90" transform="translate(222 731)" fill="#fff" stroke="#707070" stroke-width="1"></rect></clipPath></defs><g id="Mask_Group_23" data-name="Mask Group 23" transform="translate(-222 -731)" clip-path="url(#clip-path)"><g id="Group_315" data-name="Group 315" transform="translate(-145.809 -155)"><path id="Path_217" data-name="Path 217" d="M171.286,63.984a35.628,35.628,0,0,1,33.52,33.52h6.3v3.888h-6.3a35.613,35.613,0,0,1-33.52,33.414v6.3H167.4v-6.3a35.613,35.613,0,0,1-33.414-33.52h-6.305V97.4h6.305A35.613,35.613,0,0,1,167.5,63.984v-6.3h3.888v6.3Zm29.632,37.3H189.99a20.832,20.832,0,0,1-18.7,18.7v10.928a31.531,31.531,0,0,0,29.632-29.632Zm-14.921,0h-4.413V97.4H186a16.747,16.747,0,0,0-14.71-14.71V87.1H167.4V82.688a16.747,16.747,0,0,0-14.71,14.71H157.1v3.888h-4.413A16.849,16.849,0,0,0,167.4,116v-4.413h3.888V116A16.548,16.548,0,0,0,186,101.286ZM189.99,97.5h10.928a31.531,31.531,0,0,0-29.632-29.632V78.8a20.464,20.464,0,0,1,18.7,18.7Zm-52.118,3.782A31.531,31.531,0,0,0,167.5,130.918V119.99a20.832,20.832,0,0,1-18.7-18.7ZM148.8,97.5a20.832,20.832,0,0,1,18.7-18.7V67.872A31.531,31.531,0,0,0,137.872,97.5Zm20.6-6.2a8.091,8.091,0,1,0,8.091,8.091A8.094,8.094,0,0,0,169.395,91.3Z" transform="translate(243.13 831.321)" fill="#1b54f8" stroke="#fff" stroke-width="1" fill-rule="evenodd"></path></g></g></svg> 