<?xml version="1.0" encoding="UTF-8"?> <svg xmlns="http://www.w3.org/2000/svg" xmlns:xlink="http://www.w3.org/1999/xlink" width="90" height="90" viewBox="0 0 90 90"><defs><clipPath id="clip-path"><rect id="Rectangle_80" data-name="Rectangle 80" width="90" height="90" transform="translate(994 727)" fill="#fff" stroke="#707070" stroke-width="1"></rect></clipPath></defs><g id="Mask_Group_25" data-name="Mask Group 25" transform="translate(-994 -727)" clip-path="url(#clip-path)"><path id="noun-evaluation-4038318" d="M166.25,117.6V51.285a7.532,7.532,0,0,1,7.535-7.535h48.226a7.532,7.532,0,0,1,7.535,7.535V117.6a7.532,7.532,0,0,1-7.535,7.535H173.785a7.532,7.532,0,0,1-7.535-7.535Zm60.282-4.521H169.264V117.6a4.518,4.518,0,0,0,4.521,4.521h48.226a4.518,4.518,0,0,0,4.521-4.521ZM191.87,119.1h12.056a1.507,1.507,0,0,0,0-3.014H191.87a1.507,1.507,0,1,0,0,3.014Zm34.662-9.042V51.285a4.518,4.518,0,0,0-4.521-4.521H173.785a4.518,4.518,0,0,0-4.521,4.521v58.775ZM215.983,98H197.9a1.507,1.507,0,1,0,0,3.014h18.085a1.507,1.507,0,1,0,0-3.014Zm-33.155-.624,4.961-4.965a1.509,1.509,0,0,1,2.134,2.134l-6.028,6.028a1.511,1.511,0,0,1-2.134,0l-3.014-3.014a1.509,1.509,0,0,1,2.134-2.134Zm27.127-5.4H197.9a1.507,1.507,0,1,0,0,3.014h12.056a1.507,1.507,0,1,0,0-3.014Zm6.028-12.056H197.9a1.507,1.507,0,1,0,0,3.014h18.085a1.507,1.507,0,1,0,0-3.014ZM182.828,79.3l4.961-4.965a1.509,1.509,0,0,1,2.134,2.134l-6.028,6.028a1.511,1.511,0,0,1-2.134,0l-3.014-3.014a1.509,1.509,0,0,1,2.134-2.134Zm27.127-5.4H197.9a1.507,1.507,0,1,0,0,3.014h12.056a1.507,1.507,0,1,0,0-3.014Zm6.028-12.056H197.9a1.507,1.507,0,1,0,0,3.014h18.085a1.507,1.507,0,1,0,0-3.014Zm-33.155-.624,4.961-4.965a1.509,1.509,0,0,1,2.134,2.134l-6.028,6.028a1.511,1.511,0,0,1-2.134,0l-3.014-3.014a1.509,1.509,0,0,1,2.134-2.134Zm27.127-5.4H197.9a1.507,1.507,0,1,0,0,3.014h12.056a1.507,1.507,0,1,0,0-3.014Z" transform="translate(841.25 687.75)" fill="#1b54f8" stroke="#fff" stroke-width="0.6" fill-rule="evenodd"></path></g></svg> 