<?xml version="1.0" encoding="UTF-8"?> <svg xmlns="http://www.w3.org/2000/svg" xmlns:xlink="http://www.w3.org/1999/xlink" width="90" height="90" viewBox="0 0 90 90"><defs><clipPath id="clip-path"><rect id="Rectangle_78" data-name="Rectangle 78" width="90" height="90" transform="translate(520 727)" fill="#fff" stroke="#707070" stroke-width="1"></rect></clipPath></defs><g id="Mask_Group_24" data-name="Mask Group 24" transform="translate(-520 -727)" clip-path="url(#clip-path)"><g id="Group_316" data-name="Group 316" transform="translate(26.171 -183.679)"><path id="Path_218" data-name="Path 218" d="M287.045,151.445l-5.375-6.083-2.622,2.316,7.84,8.871L299.84,143.6l-2.465-2.473Z" transform="translate(249.082 793.204)" fill="#1b54f8" stroke="#fff" stroke-width="1"></path><path id="Path_219" data-name="Path 219" d="M158.308,96.837a9.352,9.352,0,0,0-9.168,7.56h-5.1v-20a14.857,14.857,0,0,0,4.256-27.136V56.81h0a15.941,15.941,0,0,0-28.011-10.426,11.543,11.543,0,0,0-3.566-.542A11.736,11.736,0,0,0,105.11,56.153,14.858,14.858,0,0,0,108.5,84.68V104.4h-5.1a9.334,9.334,0,1,0,0,3.5H112V84.837h12.524V97a9.334,9.334,0,1,0,3.5,0V84.837H140.54v23.055h8.6a9.334,9.334,0,1,0,9.168-11.056ZM94.23,112.009a5.847,5.847,0,1,1,4.123-1.728,5.841,5.841,0,0,1-4.123,1.728Zm37.877-5.865a5.847,5.847,0,1,1-1.722-4.108,5.836,5.836,0,0,1,1.722,4.108Zm8.408-24.8H110.678A11.362,11.362,0,0,1,107.3,59.063a1.748,1.748,0,0,0,1.232-1.651,8.225,8.225,0,0,1,8.189-8.076,8.127,8.127,0,0,1,3.408.752,1.748,1.748,0,0,0,2.141-.559,12.445,12.445,0,0,1,22.54,7.3,8.646,8.646,0,0,1-.061,1.267h0a1.748,1.748,0,0,0,.944,1.748,11.362,11.362,0,0,1-5.174,21.5Zm17.795,30.667a5.848,5.848,0,1,1,4.141-1.719,5.838,5.838,0,0,1-4.141,1.719Z" transform="translate(412.935 877.823)" fill="#1b54f8" stroke="#fff" stroke-width="1"></path></g></g></svg> 