<?xml version="1.0" encoding="UTF-8"?> <svg xmlns="http://www.w3.org/2000/svg" xmlns:xlink="http://www.w3.org/1999/xlink" width="90" height="90" viewBox="0 0 90 90"><defs><clipPath id="clip-path"><rect id="Rectangle_79" data-name="Rectangle 79" width="90" height="90" transform="translate(787 727)" fill="#fff" stroke="#707070" stroke-width="1"></rect></clipPath></defs><g id="Mask_Group_28" data-name="Mask Group 28" transform="translate(-787 -727)" clip-path="url(#clip-path)"><g id="Group_319" data-name="Group 319" transform="translate(44.71 -152.713)"><path id="Path_236" data-name="Path 236" d="M190.094,46.668H119.2a2.544,2.544,0,0,0-2.525,2.525v70.895a2.544,2.544,0,0,0,2.525,2.525h70.895a2.544,2.544,0,0,0,2.525-2.525V49.193a2.544,2.544,0,0,0-2.525-2.525Zm-2.544,70.877H121.742V51.737h65.807Z" transform="translate(632.616 840.045)" fill="#1b54f8" stroke="#fff" stroke-width="3"></path><path id="Path_237" data-name="Path 237" d="M232.02,144.3H217.894l-18.777-18.777V111.4a2.543,2.543,0,0,0-2.525-2.544H181.4a2.544,2.544,0,0,0-2.544,2.544v15.189a2.543,2.543,0,0,0,2.544,2.525h14.126l18.777,18.777v14.126a2.543,2.543,0,0,0,2.525,2.544H232.02a2.544,2.544,0,0,0,2.544-2.544V146.828a2.543,2.543,0,0,0-2.544-2.525Zm-37.972-20.258h-10.12v-10.12h10.12ZM229.5,159.493h-10.12v-10.12H229.5Z" transform="translate(580.551 787.977)" fill="#1b54f8" stroke="#fff" stroke-width="3"></path><path id="Path_238" data-name="Path 238" d="M186.45,357.82a7.594,7.594,0,1,0,5.37,2.224A7.595,7.595,0,0,0,186.45,357.82Zm0,10.12a2.544,2.544,0,1,1,1.793-.739,2.543,2.543,0,0,1-1.793.739Z" transform="translate(580.553 579.53)" fill="#1b54f8" stroke="#fff" stroke-width="3"></path><path id="Path_239" data-name="Path 239" d="M435.407,108.85a7.594,7.594,0,1,0,5.37,2.224A7.594,7.594,0,0,0,435.407,108.85Zm0,10.139h0a2.544,2.544,0,1,1,1.786-.751,2.544,2.544,0,0,1-1.786.751Z" transform="translate(372.112 787.982)" fill="#1b54f8" stroke="#fff" stroke-width="3"></path></g></g></svg> 