<?xml version="1.0" encoding="UTF-8"?> <svg xmlns="http://www.w3.org/2000/svg" xmlns:xlink="http://www.w3.org/1999/xlink" width="90" height="90" viewBox="0 0 90 90"><defs><clipPath id="clip-path"><rect id="Rectangle_81" data-name="Rectangle 81" width="90" height="90" transform="translate(1237 727)" fill="#fff" stroke="#707070" stroke-width="1"></rect></clipPath></defs><g id="Mask_Group_26" data-name="Mask Group 26" transform="translate(-1237 -727)" clip-path="url(#clip-path)"><g id="Group_317" data-name="Group 317" transform="translate(122.366 -147.031)"><path id="Path_220" data-name="Path 220" d="M321.649,258.359a6.706,6.706,0,1,0-6.706-6.706A6.72,6.72,0,0,0,321.649,258.359Zm0-11.393a4.687,4.687,0,1,1-4.687,4.687A4.7,4.7,0,0,1,321.649,246.965Z" transform="translate(838.383 667.52)" fill="#1b54f8"></path><path id="Path_221" data-name="Path 221" d="M154.361,87.93a7.64,7.64,0,0,0,2.56.907V109.69a7.521,7.521,0,0,0,1.264,14.935,7.538,7.538,0,0,0,5.864-2.841l18.045,10.421a7.346,7.346,0,0,0-.518,2.678,7.516,7.516,0,1,0,14.482-2.8l18.024-10.4a7.6,7.6,0,0,0,2.106,1.825,7.454,7.454,0,0,0,3.748,1.015,7.611,7.611,0,0,0,1.955-.259,7.516,7.516,0,0,0-.863-14.708l0-20.809a7.666,7.666,0,0,0,2.624-.907,7.525,7.525,0,1,0-7.527-13.034,7.776,7.776,0,0,0-2.084,1.793L195.98,66.171a7.376,7.376,0,0,0,.508-2.635,7.521,7.521,0,1,0-15.043,0,7.623,7.623,0,0,0,.5,2.635L163.886,76.612a7.414,7.414,0,0,0-2-1.706,7.521,7.521,0,1,0-7.527,13.023Zm9.136,30.582a5.5,5.5,0,1,1-8.067-6.188,5.571,5.571,0,0,1,2.495-.713h.011c.022,0,.032-.011.043-.011.065,0,.13-.022.194-.022a5.508,5.508,0,0,1,5.324,6.933Zm1.577,1.522a7.874,7.874,0,0,0,.378-.994,7.461,7.461,0,0,0-.389-4.913l10.68-6.156.572.994a1.008,1.008,0,0,0,1.22.443l3.736-1.35a11.848,11.848,0,0,0,3.3,2.03l.724,4.125a1.008,1.008,0,0,0,.994.832h1.7v12.43a7.511,7.511,0,0,0-4.914,2.959ZM179.382,101a9.943,9.943,0,0,1-.173-1.846,9.826,9.826,0,0,1,.292-2.386,1,1,0,0,0-.324-1.015l-2.862-2.408,1.577-2.743,3.693,1.35a1,1,0,0,0,1.015-.194,9.529,9.529,0,0,1,3.7-2.008,1.035,1.035,0,0,0,.724-.8l.648-3.683h3.175l.68,3.855a1.011,1.011,0,0,0,.658.777,9.9,9.9,0,0,1,3.6,2.224,1.014,1.014,0,0,0,1.048.227l3.509-1.285,1.577,2.743-3,2.516a1,1,0,0,0-.346.951,10.173,10.173,0,0,1,.173,1.868,9.675,9.675,0,0,1-.292,2.376,1,1,0,0,0,.324,1.015l2.862,2.408-1.587,2.743-3.693-1.339a1,1,0,0,0-1.015.194,9.529,9.529,0,0,1-3.7,2.008,1.035,1.035,0,0,0-.724.8l-.648,3.683h-3.175l-.68-3.855a1.011,1.011,0,0,0-.658-.777,9.9,9.9,0,0,1-3.6-2.224,1.014,1.014,0,0,0-1.048-.227l-3.521,1.275-1.577-2.743,3-2.516a.967.967,0,0,0,.368-.962Zm9.719,39.383a5.507,5.507,0,1,1,5.507-5.507A5.517,5.517,0,0,1,189.1,140.379Zm5.961-10.043A7.465,7.465,0,0,0,190,127.442V115.034h1.145a1.018,1.018,0,0,0,.994-.832l.691-3.909a11.633,11.633,0,0,0,3.412-1.858l3.942,1.436a1.012,1.012,0,0,0,1.22-.443l.842-1.458L213.01,114.2a7.431,7.431,0,0,0-.313,4.741,8.562,8.562,0,0,0,.378,1Zm27.657-18.11a5.5,5.5,0,1,1-7.43,7.625.04.04,0,0,0-.011-.032l-.032-.032a5.271,5.271,0,0,1-.6-1.382,5.477,5.477,0,0,1,.529-4.136v-.011a.04.04,0,0,0,.011-.032,5.547,5.547,0,0,1,4.774-2.754c.022,0,.043.011.065.011a5.6,5.6,0,0,1,2.7.745ZM214.6,79.9a5.46,5.46,0,0,1,2.56-3.337,5.541,5.541,0,0,1,2.743-.745,5.512,5.512,0,1,1-5.3,4.082Zm4.438,8.888v20.776a6.637,6.637,0,0,0-1.015.173,7.5,7.5,0,0,0-4.007,2.71l-10.767-6.221.572-1a1,1,0,0,0-.227-1.275l-3.034-2.56a11.907,11.907,0,0,0,.216-2.236,12.286,12.286,0,0,0-.119-1.641l3.207-2.7a1,1,0,0,0,.227-1.275l-.842-1.469,10.691-6.177a7.577,7.577,0,0,0,5.1,2.9ZM213.043,78.33a7,7,0,0,0-.389,1.036,7.426,7.426,0,0,0,.324,4.762l-10.724,6.188-.572-.994a1.02,1.02,0,0,0-1.22-.443l-3.736,1.36a11.848,11.848,0,0,0-3.3-2.03l-.723-4.125a1.008,1.008,0,0,0-.994-.832h-1.7v-12.3a7.5,7.5,0,0,0,5.054-3Zm-24.049-20.3a5.507,5.507,0,1,1-5.507,5.507A5.517,5.517,0,0,1,188.994,58.028Zm-6.058,9.913a7.459,7.459,0,0,0,5.054,3v12.3h-1.145a1.018,1.018,0,0,0-.994.832l-.692,3.909a11.634,11.634,0,0,0-3.412,1.858L177.8,88.4a1.02,1.02,0,0,0-1.22.443l-.842,1.469L165.1,84.172a7.468,7.468,0,0,0,.3-4.708,6.966,6.966,0,0,0-.432-1.145ZM164.1,85.932l10.626,6.144-.572.994a1,1,0,0,0,.227,1.275l3.034,2.56a12.017,12.017,0,0,0-.216,2.246,13.937,13.937,0,0,0,.108,1.631L174.1,103.47a1,1,0,0,0-.227,1.275l.853,1.469-10.7,6.177a7.453,7.453,0,0,0-3.9-2.57,7.372,7.372,0,0,0-1.188-.194V88.88a7.856,7.856,0,0,0,1.123-.2,7.437,7.437,0,0,0,4.039-2.744Zm-10.745-7.268a5.5,5.5,0,1,1-.551,4.179,5.45,5.45,0,0,1,.551-4.179Z" transform="translate(971.04 820.022)" fill="#1b54f8"></path></g></g></svg> 