<?xml version="1.0" encoding="UTF-8"?> <svg xmlns="http://www.w3.org/2000/svg" xmlns:xlink="http://www.w3.org/1999/xlink" width="60" height="60" viewBox="0 0 60 60"><defs><clipPath id="clip-path"><rect id="Rectangle_784" data-name="Rectangle 784" width="60" height="60" transform="translate(1288 139)" fill="#fff" stroke="#707070" stroke-width="1"></rect></clipPath></defs><g id="Mask_Group_81" data-name="Mask Group 81" transform="translate(-1288 -139)" clip-path="url(#clip-path)"><g id="aws-api-gateway" transform="translate(1295 141.366)"><path id="Path_42" data-name="Path 42" d="M171.731,131.792l-11.025.457-7.147-.456,11.821-1.133,6.351,1.132" transform="translate(-126.32 -106.961)" fill="#634b1e"></path><path id="Path_43" data-name="Path 43" d="M217.785,62.056l6.376.637V49.85l-6.376-3.188-.49.529V61.51l.49.547" transform="translate(-178.75 -37.862)" fill="#d9a740"></path><path id="Path_44" data-name="Path 44" d="M153.559,49.789l11.8-3.192V62l-11.8.638V49.789" transform="translate(-126.32 -37.81)" fill="#886a2a"></path><path id="Path_45" data-name="Path 45" d="M0,131.192l11.025.457,7.147-.456L6.384,129.93,0,131.192" transform="translate(0 -106.361)" fill="#634b1e"></path><path id="Path_46" data-name="Path 46" d="M6.376,61.813,0,62.431V49.548l6.376-3.183.294.548V61.331l-.294.481" transform="translate(0 -37.619)" fill="#886a2a"></path><path id="Path_47" data-name="Path 47" d="M47.74,49.789,35.945,46.6V62l11.8.638V49.789" transform="translate(-29.569 -37.81)" fill="#d9a740"></path><g id="Group_73" data-name="Group 73" transform="translate(27.239 31.016)"><path id="Path_48" data-name="Path 48" d="M171.731,172.367l-11.025-.457-7.147.456,11.77,1.19,6.4-1.189" transform="translate(-153.559 -171.91)" fill="#fad791"></path><path id="Path_49" data-name="Path 49" d="M218.5,175.123l6.376-.637V187.33l-6.376,3.188-.335-.729v-14.01l.335-.655" transform="translate(-206.706 -174.029)" fill="#d9a740"></path><path id="Path_50" data-name="Path 50" d="M153.559,187.333l11.8,3.192V175.119l-11.8-.638v12.852" transform="translate(-153.559 -174.025)" fill="#886a2a"></path></g><g id="Group_74" data-name="Group 74" transform="translate(0 31.016)"><path id="Path_51" data-name="Path 51" d="M0,172.367l11.025-.457,7.147.456L6.3,173.659,0,172.367" transform="translate(0 -171.91)" fill="#fad791"></path><path id="Path_52" data-name="Path 52" d="M6.376,175.123,0,174.486V187.33l6.376,3.188.387-.575V175.778l-.387-.655" transform="translate(0 -174.029)" fill="#886a2a"></path><path id="Path_53" data-name="Path 53" d="M47.74,187.333l-11.8,3.192V175.119l11.8-.638v12.852" transform="translate(-29.569 -174.025)" fill="#d9a740"></path></g><g id="Group_75" data-name="Group 75" transform="translate(9.933 0.634)"><path id="Path_54" data-name="Path 54" d="M95.553,101.873l5.848-1.025,11.674,1.653,1.006.578-5.67.62-12.857-1.827" transform="translate(-88.537 -83.072)" fill="#634b1e"></path><path id="Path_55" data-name="Path 55" d="M74.526,101.873l-5.848-1.025L56.5,102.738l-.5.342,5.67.62,12.857-1.827" transform="translate(-55.998 -83.072)" fill="#634b1e"></path><path id="Path_56" data-name="Path 56" d="M95.553,196.429l5.848,1.025,11.645-1.628,1.035-.6-5.67-.62-12.857,1.827" transform="translate(-88.537 -160.195)" fill="#fad791"></path><path id="Path_57" data-name="Path 57" d="M74.526,196.429l-5.848,1.025-12.266-1.747L56,195.223l5.67-.62,12.857,1.827" transform="translate(-55.998 -160.195)" fill="#fad791"></path><path id="Path_58" data-name="Path 58" d="M139.219,20.642V14.294l-5.98-1.956V4.03l-6.792-3.4h0l-.283.451-.052,53.675.335.69,6.792-3.4V43.965l5.98-1.956V35.662l-5.98,1.053V19.589l5.98,1.053" transform="translate(-113.675 -0.634)" fill="#d9a740"></path><path id="Path_59" data-name="Path 59" d="M61.978,4.03v8.309L56,14.294v6.348l5.98-1.053V36.714L56,35.662V42.01l5.98,1.956v8.089l6.792,3.4V.634l-6.792,3.4" transform="translate(-55.998 -0.634)" fill="#886a2a"></path></g></g></g></svg> 