<?xml version="1.0" encoding="UTF-8"?> <svg xmlns="http://www.w3.org/2000/svg" xmlns:xlink="http://www.w3.org/1999/xlink" width="90" height="90" viewBox="0 0 90 90"><defs><clipPath id="clip-path"><rect id="Rectangle_20" data-name="Rectangle 20" width="90" height="90" transform="translate(911 338)" fill="#fff" stroke="#707070" stroke-width="1"></rect></clipPath></defs><g id="Mask_Group_39" data-name="Mask Group 39" transform="translate(-911 -338)" clip-path="url(#clip-path)"><g id="Group_55" data-name="Group 55" transform="translate(124.386 -3.551)"><path id="Path_186" data-name="Path 186" d="M20.258,59.875a6.06,6.06,0,1,0,.766,9.106l9.622,6.927a5.982,5.982,0,0,0-.676,2.771A6.053,6.053,0,0,0,42,79.57H45.46a.827.827,0,0,0,.215-.044.827.827,0,0,0,.215.044h3.457a6.053,6.053,0,0,0,12.034-.89,5.977,5.977,0,0,0-.676-2.771l9.623-6.932a6.044,6.044,0,1,0,.765-9.1l-2.464-2.505,3.811-6.619a5.977,5.977,0,0,0,2.225.422A6.053,6.053,0,1,0,72.44,39.484l-3.811-6.619,2.464-2.505a6.06,6.06,0,1,0-.766-9.106L60.705,14.33a5.98,5.98,0,0,0,.676-2.771,6.053,6.053,0,0,0-12.034-.89H45.891a.827.827,0,0,0-.215.044.827.827,0,0,0-.215-.044H42a6.053,6.053,0,0,0-12.034.89,5.983,5.983,0,0,0,.676,2.772l-9.623,6.931a6.044,6.044,0,1,0-.765,9.1l2.464,2.505L18.91,39.492a5.987,5.987,0,0,0-2.22-.422,6.053,6.053,0,1,0,0,12.107,5.98,5.98,0,0,0,2.225-.421l3.811,6.619ZM22.068,22.7l9.623-6.928a6.155,6.155,0,0,0,.574.521l-5.617,9.756-3.905-.577h0a5.981,5.981,0,0,0-.675-2.771ZM33.8,17.19a5.972,5.972,0,0,0,2.22.422A6.053,6.053,0,0,0,39.9,16.194l4.221,3.755L39.9,23.7a6.036,6.036,0,0,0-9.665,2.874l-1.691-.25Zm11.662-4.741a.865.865,0,0,0,.211-.044.865.865,0,0,0,.215.044h3.454a5.975,5.975,0,0,0,.918,2.42l-4.587,4.079-4.587-4.081a5.977,5.977,0,0,0,.918-2.418ZM68.609,25.471l-3.905.577-5.617-9.756a6.155,6.155,0,0,0,.574-.521L69.283,22.7a5.964,5.964,0,0,0-.676,2.771ZM57.55,17.192l5.261,9.138-1.691.25a6.034,6.034,0,0,0-9.663-2.874l-4.221-3.755L51.457,16.2a6.053,6.053,0,0,0,3.871,1.417,5.976,5.976,0,0,0,2.22-.422ZM69.284,67.542l-9.623,6.927a6.157,6.157,0,0,0-.574-.521L64.7,64.193l3.905.577h0a5.985,5.985,0,0,0,.673,2.77ZM57.548,73.048a5.973,5.973,0,0,0-2.22-.422,6.1,6.1,0,0,0-4.2,1.706L47,70.49l4.451-3.957a6.035,6.035,0,0,0,9.665-2.874l1.691.25ZM45.891,77.79a.865.865,0,0,0-.215.044.866.866,0,0,0-.215-.044H42.006a5.927,5.927,0,0,0-.693-2.042l4.363-4.056,4.362,4.056a5.92,5.92,0,0,0-.693,2.042ZM22.746,64.768l3.905-.577,5.617,9.756a6.053,6.053,0,0,0-.575.521l-9.626-6.928a5.964,5.964,0,0,0,.676-2.771Zm11.06,8.279-5.261-9.138,1.691-.25A6.034,6.034,0,0,0,39.9,66.533l4.451,3.959L40.22,74.33a6.093,6.093,0,0,0-4.2-1.7,5.976,5.976,0,0,0-2.22.422Zm-.779-24.872a4.29,4.29,0,1,1,3.148,1.213,4.3,4.3,0,0,1-3.148-1.213ZM32.8,31.136a4.193,4.193,0,0,1-1.042-2.8A3.617,3.617,0,0,1,31.8,27.7a4.264,4.264,0,1,1,.991,3.434Zm12.88-10.187,4.587,4.081a5.985,5.985,0,0,0-.918,2.42H45.891a.827.827,0,0,0-.215.045.827.827,0,0,0-.215-.044H42.006a5.975,5.975,0,0,0-.918-2.42Zm13.881,6.785a3.516,3.516,0,0,1,.045.605,4.194,4.194,0,0,1-1.044,2.8,4.272,4.272,0,1,1,1-3.41Zm-17.55,1.5H45.46a.865.865,0,0,0,.215-.045.865.865,0,0,0,.215.044h3.454a5.975,5.975,0,0,0,.918,2.42L45.675,35.73l-4.587-4.081A5.99,5.99,0,0,0,42.006,29.229Zm3.669,8.5,4.587,4.081a5.99,5.99,0,0,0-.918,2.418H45.891a.865.865,0,0,0-.215.044.865.865,0,0,0-.215-.044H42.006a5.975,5.975,0,0,0-.918-2.42Zm12.651,4.333a4.3,4.3,0,0,1,0,6.109,4.25,4.25,0,0,1-3,1.22,4.273,4.273,0,1,1,3-7.33ZM42.006,46.01H45.46a.865.865,0,0,0,.215-.044.865.865,0,0,0,.215.044h3.454a5.975,5.975,0,0,0,.918,2.42l-4.587,4.079-4.587-4.081A5.99,5.99,0,0,0,42.006,46.01Zm3.669,8.5,4.587,4.081a5.99,5.99,0,0,0-.918,2.42H45.891a.865.865,0,0,0-.215.044.865.865,0,0,0-.215-.044H42.006a5.975,5.975,0,0,0-.918-2.42ZM58.558,59.1A4.193,4.193,0,0,1,59.6,61.9a3.618,3.618,0,0,1-.049.634,4.267,4.267,0,1,1-.993-3.433ZM45.675,69.287l-4.59-4.078A5.977,5.977,0,0,0,42,62.79h3.454a.827.827,0,0,0,.218-.045.827.827,0,0,0,.215.044h3.454a5.975,5.975,0,0,0,.918,2.42ZM39.221,59.069a4.271,4.271,0,1,1-7.427,3.441,3.517,3.517,0,0,1-.045-.605A4.194,4.194,0,0,1,32.794,59.1a4.273,4.273,0,0,1,6.427-.03ZM61.381,61.9h0a6.035,6.035,0,0,0-.956-3.245l3.76-3.264,2.225,2.264-2.647,4.6Zm-2.12-4.593a6.016,6.016,0,0,0-7.811-.044L47.23,53.509l4.222-3.755a6.032,6.032,0,0,0,7.443.257l4.04,4.107Zm.9-8.546a6.039,6.039,0,0,0,1.148-2.752h7.378a6.014,6.014,0,0,0,.876,2.355L64.28,52.953Zm8.526-4.533H61.309a6.038,6.038,0,0,0-1.148-2.751l4.12-4.193,5.282,4.585a6.024,6.024,0,0,0-.875,2.358Zm-9.792-4.006a6.035,6.035,0,0,0-7.444.258L47.23,36.727l4.222-3.755a6.015,6.015,0,0,0,7.81-.044l3.673,3.189Zm1.53-8.635a6.035,6.035,0,0,0,.956-3.245h0l2.383-.352,2.647,4.6-2.225,2.264ZM29.97,28.338h0a6.04,6.04,0,0,0,.956,3.25l-3.76,3.264L24.94,32.589l2.647-4.6Zm2.12,4.593a6.016,6.016,0,0,0,7.811.044l4.221,3.755L39.9,40.484a6.032,6.032,0,0,0-7.443-.261l-4.04-4.1Zm-.9,8.546a6.039,6.039,0,0,0-1.148,2.752H22.664a6.014,6.014,0,0,0-.876-2.355l5.282-4.589ZM22.664,46.01h7.378A6.038,6.038,0,0,0,31.19,48.76l-4.12,4.193-5.282-4.585a6.024,6.024,0,0,0,.875-2.358Zm9.792,4.006a6.035,6.035,0,0,0,7.444-.258l4.221,3.755L39.9,57.267a6.017,6.017,0,0,0-7.81.043l-3.673-3.19Zm-1.53,8.642A6.037,6.037,0,0,0,29.97,61.9h0l-2.383.352-2.647-4.6,2.225-2.264Zm-5.233,3.874-3.214.475a6.081,6.081,0,0,0-.956-1.879l2.12-2.156Zm-9,6.509a4.284,4.284,0,1,1,4.229-4.878,3.533,3.533,0,0,1,.044.605A4.283,4.283,0,0,1,16.69,69.041ZM36.023,82.953A4.278,4.278,0,0,1,31.75,78.68a4.206,4.206,0,0,1,.812-2.5,4.341,4.341,0,0,1,1.329-1.208,4.16,4.16,0,0,1,2.132-.567,4.257,4.257,0,0,1,3.433,1.723,4.212,4.212,0,0,1,.84,2.55,4.277,4.277,0,0,1-4.273,4.273Zm19.3,0a4.273,4.273,0,1,1,0-8.546,4.162,4.162,0,0,1,2.128.564,4.37,4.37,0,0,1,1.34,1.22,4.2,4.2,0,0,1,.8,2.493,4.278,4.278,0,0,1-4.269,4.268ZM78.933,64.768a4.273,4.273,0,0,1-8.546,0,3.7,3.7,0,0,1,.047-.629h0V64.13a4.273,4.273,0,0,1,8.5.637Zm-9.1-3.641a6.089,6.089,0,0,0-.957,1.88l-3.214-.475L67.7,58.971Zm-4.3-6.905,5.194-4.509c.057.049.115.1.174.145l-3.567,6.195Zm13.4-9.1a4.274,4.274,0,1,1-7.5-2.8h0a4.235,4.235,0,0,1,1.1-.9,4.173,4.173,0,0,1,2.136-.566A4.278,4.278,0,0,1,78.933,45.119ZM70.9,40.381c-.059.047-.117.1-.174.146l-5.194-4.51,1.8-1.831ZM65.658,27.707l3.214-.475a6.081,6.081,0,0,0,.956,1.879l-2.12,2.156Zm9-6.509a4.284,4.284,0,1,1-4.229,4.878,3.533,3.533,0,0,1-.044-.605A4.283,4.283,0,0,1,74.661,21.2ZM55.328,7.286A4.278,4.278,0,0,1,59.6,11.559a4.206,4.206,0,0,1-.812,2.5,4.341,4.341,0,0,1-1.329,1.208,4.16,4.16,0,0,1-2.132.567,4.293,4.293,0,0,1-3.2-1.443,4.2,4.2,0,0,1-1.074-2.83,4.277,4.277,0,0,1,4.273-4.273Zm-19.3,0A4.277,4.277,0,0,1,40.3,11.559a4.21,4.21,0,0,1-1.079,2.835,4.291,4.291,0,0,1-3.194,1.438,4.162,4.162,0,0,1-2.128-.564,4.37,4.37,0,0,1-1.335-1.22,4.2,4.2,0,0,1-.8-2.488,4.278,4.278,0,0,1,4.265-4.273ZM12.418,25.471a4.273,4.273,0,1,1,8.546,0,3.7,3.7,0,0,1-.047.629h0v.008a4.273,4.273,0,0,1-8.5-.637Zm9.1,3.641a6.089,6.089,0,0,0,.957-1.88l3.214.475-2.047,3.561Zm4.3,6.905-5.194,4.509c-.057-.049-.115-.1-.178-.145l3.567-6.195Zm-13.4,9.1a4.274,4.274,0,1,1,7.5,2.8h0a4.235,4.235,0,0,1-1.1.9,4.173,4.173,0,0,1-2.136.566,4.273,4.273,0,0,1-4.27-4.271Zm8.033,4.739.178-.146,5.194,4.51-1.8,1.831Z" transform="translate(786 341)" fill="#1c54f8" stroke="#1c54f8" stroke-width="0.5"></path></g></g></svg> 