<?xml version="1.0" encoding="UTF-8"?> <svg xmlns="http://www.w3.org/2000/svg" xmlns:xlink="http://www.w3.org/1999/xlink" width="60" height="60" viewBox="0 0 60 60"><defs><clipPath id="clip-path"><rect id="Rectangle_8" data-name="Rectangle 8" width="60" height="60" transform="translate(378 69)" fill="#fff" stroke="#707070" stroke-width="1"></rect></clipPath></defs><g id="Mask_Group_3" data-name="Mask Group 3" transform="translate(-378 -69)" clip-path="url(#clip-path)"><g id="Group_3" data-name="Group 3" transform="translate(-4.218 200.427)"><path id="Path_23" data-name="Path 23" d="M15.248,5.736h4.368c.606,0,.788.793.82.954l3.9,20.366a2.92,2.92,0,1,0,4.116,3.4h6.64a2.921,2.921,0,1,0,0-1.586h-6.64a2.935,2.935,0,0,0-2.562-2.117l-.316-1.64H37.822A2.5,2.5,0,0,0,40.2,22.892l2.23-10.317a.8.8,0,0,0-.155-.665.785.785,0,0,0-.616-.295H22.992l-1-5.225a2.492,2.492,0,0,0-2.38-2.24H15.242a.793.793,0,0,0,0,1.586Zm22.66,22.6a1.335,1.335,0,1,1-1.335,1.335,1.338,1.338,0,0,1,1.335-1.335ZM26.979,29.666a1.335,1.335,0,1,1-1.335-1.335A1.338,1.338,0,0,1,26.979,29.666ZM24.434,19.146h2.642l.724,4.389H25.275Zm8.42-1.57V13.2h3.564l-.724,4.379H32.848Zm2.583,1.586-.718,4.368H32.853V19.157h2.583Zm-4.17-1.586H28.421L27.7,13.2h3.564Zm0,1.586v4.373H29.4l-.724-4.379h2.583Zm7.38,3.409c-.048.23-.252.975-.825.975h-1.5l.718-4.363h2.337l-.729,3.387ZM39.719,17.6H37.3l.724-4.389h2.642ZM26.1,13.213l.718,4.363H24.128l-.836-4.363ZM50.116,7.832H46.852a.793.793,0,1,0,0,1.586h3.264a1.148,1.148,0,0,1,1.147,1.147v26.7H11.876V10.56a1.148,1.148,0,0,1,1.147-1.147h3.291a.793.793,0,1,0,0-1.586H13.023A2.738,2.738,0,0,0,10.29,10.56V38.842h0v3.612a2.738,2.738,0,0,0,2.733,2.733h11.3v2.878H16.609a1.59,1.59,0,0,0-1.586,1.586V51.71A1.59,1.59,0,0,0,16.609,53.3H46.536a1.59,1.59,0,0,0,1.586-1.586V49.652a1.59,1.59,0,0,0-1.586-1.586H38.824V45.188h11.3a2.738,2.738,0,0,0,2.733-2.733V10.56a2.738,2.738,0,0,0-2.733-2.733ZM46.531,51.721H16.609V49.663H46.536v2.058Zm-9.3-3.644H25.9V45.2h11.33ZM51.263,42.46a1.148,1.148,0,0,1-1.147,1.147H13.023a1.148,1.148,0,0,1-1.147-1.147V38.847H51.269V42.46ZM15.778,13.3a1.425,1.425,0,0,0-1.426,1.426v17.2a1.425,1.425,0,0,0,1.426,1.426h1.479a1.425,1.425,0,0,0,1.426-1.426V14.73A1.425,1.425,0,0,0,17.257,13.3ZM17.1,31.773H15.939V14.89H17.1V31.773Zm28.786,1.586h1.479a1.425,1.425,0,0,0,1.426-1.426V14.73A1.425,1.425,0,0,0,47.362,13.3H45.882a1.425,1.425,0,0,0-1.426,1.426v17.2a1.425,1.425,0,0,0,1.426,1.426Zm.161-18.469H47.2V31.773H46.043V14.89ZM29.123,41.334a.791.791,0,0,1,.793-.793h3.307a.793.793,0,0,1,0,1.586H29.916a.791.791,0,0,1-.793-.793Z" transform="translate(380.645 -130.15)" fill="#1c54f8" stroke="#fff" stroke-width="0.4"></path></g></g></svg> 