<?xml version="1.0" encoding="UTF-8"?> <svg xmlns="http://www.w3.org/2000/svg" xmlns:xlink="http://www.w3.org/1999/xlink" width="60" height="60" viewBox="0 0 60 60"><defs><clipPath id="clip-path"><rect id="Rectangle_26" data-name="Rectangle 26" width="60" height="60" transform="translate(50 45)" fill="#fff" stroke="#707070" stroke-width="1"></rect></clipPath></defs><g id="Mask_Group_21" data-name="Mask Group 21" transform="translate(-50 -45)" clip-path="url(#clip-path)"><g id="Group_37" data-name="Group 37" transform="translate(50.313 42.411)"><path id="Path_89" data-name="Path 89" d="M61.384,12.5H34.6a3.353,3.353,0,0,0-3.348,3.348V31.4a.837.837,0,0,0,1.674,0V15.848A1.676,1.676,0,0,1,34.6,14.174H61.384a1.676,1.676,0,0,1,1.674,1.674V33.769a1.676,1.676,0,0,1-1.674,1.674H59.71a.837.837,0,0,0-.837.837l0,6.355-6.939-6.948a.838.838,0,0,0-.592-.245H42.969a.837.837,0,0,0,0,1.674h8.023l6.694,6.7a1.687,1.687,0,0,0,2.861-1.187V37.117h.837a3.353,3.353,0,0,0,3.348-3.348V15.848A3.353,3.353,0,0,0,61.384,12.5Z" transform="translate(-11.607)" fill="#1c54f8" stroke="#fff" stroke-width="0.3"></path><path id="Path_90" data-name="Path 90" d="M9.1,61.366h.938v4.043a3.232,3.232,0,0,0,3.229,3.229,1.8,1.8,0,0,0,1.793-1.793V61.4a17.09,17.09,0,0,1,9.886,3.758l1.706,1.379a.838.838,0,0,0,1.364-.651V47.712a.843.843,0,0,0-1.364-.651L24.945,48.44a17.1,17.1,0,0,1-10.723,3.794.548.548,0,0,0-.059,0H9.1a2.853,2.853,0,0,0-2.85,2.85v3.43a2.853,2.853,0,0,0,2.85,2.85Zm4.164,5.6a1.556,1.556,0,0,1-1.555-1.555V61.366h1.674v5.479a.119.119,0,0,1-.119.119ZM26,49.742l.343-.276v14.67a18.832,18.832,0,0,0-11.282-4.407V53.875A18.769,18.769,0,0,0,26,49.744ZM7.924,55.086A1.177,1.177,0,0,1,9.1,53.91h4.286v5.78H9.1a1.177,1.177,0,0,1-1.176-1.176v-3.43Z" transform="translate(0 -15.959)" fill="#1c54f8" stroke="#fff" stroke-width="0.3"></path><path id="Path_91" data-name="Path 91" d="M62.835,33.325a2.511,2.511,0,0,0-5.022,0A2.511,2.511,0,0,0,62.835,33.325Zm-3.348,0a.837.837,0,0,1,1.674,0A.837.837,0,0,1,59.487,33.325Z" transform="translate(-23.94 -8.516)" fill="#1c54f8" stroke="#fff" stroke-width="0.3"></path><path id="Path_92" data-name="Path 92" d="M76.9,33.325a2.511,2.511,0,0,0-5.022,0A2.511,2.511,0,0,0,76.9,33.325Zm-3.348,0a.837.837,0,0,1,1.674,0A.837.837,0,0,1,73.549,33.325Z" transform="translate(-30.469 -8.516)" fill="#1c54f8" stroke="#fff" stroke-width="0.3"></path><path id="Path_93" data-name="Path 93" d="M48.772,33.325a2.511,2.511,0,0,0-5.022,0A2.511,2.511,0,0,0,48.772,33.325Zm-2.511.837a.837.837,0,0,1,0-1.674A.837.837,0,0,1,46.261,34.162Z" transform="translate(-17.411 -8.516)" fill="#1c54f8" stroke="#fff" stroke-width="0.3"></path></g></g></svg> 