<?xml version="1.0" encoding="UTF-8"?> <svg xmlns="http://www.w3.org/2000/svg" xmlns:xlink="http://www.w3.org/1999/xlink" width="60" height="60" viewBox="0 0 60 60"><defs><clipPath id="clip-path"><rect id="Rectangle_34" data-name="Rectangle 34" width="60" height="60" transform="translate(50 349)" fill="#fff" stroke="#707070" stroke-width="1"></rect></clipPath></defs><g id="Mask_Group_26" data-name="Mask Group 26" transform="translate(-50 -349)" clip-path="url(#clip-path)"><g id="Group_73" data-name="Group 73" transform="translate(149.72 44.73)"><g id="Group_72" data-name="Group 72" transform="translate(-91.72 312.27)"><path id="Path_123" data-name="Path 123" d="M44.834,44.172H35.259V36.412a6.678,6.678,0,0,0-.539-2.629v-.007l1.531-.879a3.129,3.129,0,1,0,2.829-5.318V16.672a3.13,3.13,0,1,0-2.735-5.4h0L26.112,5.361l0,0a3.2,3.2,0,0,0,.146-.952,3.135,3.135,0,1,0-6.27,0,3.244,3.244,0,0,0,.146.958h0L9.909,11.269l0,0a3.128,3.128,0,1,0-2.731,5.4V28.093a3.133,3.133,0,1,0,3.134,4.982l1.647.951a6.651,6.651,0,0,0-.438,2.386v7.759H1.946a.666.666,0,0,0,0,1.331c12.469,0,4.494,0,42.889,0a.666.666,0,0,0,0-1.331Zm-4.624-13.53a1.8,1.8,0,1,1-1.8-1.8A1.8,1.8,0,0,1,40.211,30.642ZM36.61,13.6a1.807,1.807,0,1,1,0,.02Zm1.138,3.075V27.58a3.087,3.087,0,0,0-1.544.839L29.548,23.5a6.529,6.529,0,0,0,.373-1.9,6.459,6.459,0,0,0-.892-3.607L35.8,15.347A3.1,3.1,0,0,0,37.748,16.672ZM25.44,6.51l10.111,5.837a3.108,3.108,0,0,0-.272,1.269,2.928,2.928,0,0,0,.04.486l-7.108,2.775a6.492,6.492,0,0,0-4.419-2.1V7.467A3.058,3.058,0,0,0,25.44,6.51ZM28.6,21.537a5.21,5.21,0,1,1-5.211-5.444C27.249,16.781,28.705,18.973,28.6,21.537ZM23.126,2.6a1.8,1.8,0,1,1-1.8,1.8A1.809,1.809,0,0,1,23.126,2.6ZM10.7,12.35,20.808,6.514v0a3.14,3.14,0,0,0,1.651.952v7.361a6.5,6.5,0,0,0-3.947,2.11L10.966,13.81a1.806,1.806,0,0,0,.007-.193,3.079,3.079,0,0,0-.273-1.265ZM6.041,13.617a1.8,1.8,0,1,1,1.8,1.8A1.8,1.8,0,0,1,6.041,13.617Zm1.8,19.341a1.8,1.8,0,1,1,1.73-2.283A1.805,1.805,0,0,1,7.844,32.958Zm2.03-4.18a3.119,3.119,0,0,0-1.364-.686h0V16.672h0a3.144,3.144,0,0,0,2.09-1.577l7.115,2.955A6.423,6.423,0,0,0,16.856,21a6.6,6.6,0,0,0,.293,2.263ZM33.928,44.172H12.849V36.412a5.422,5.422,0,0,1,5.418-5.418h2.09l2.5,3.221a.673.673,0,0,0,1.052,0l2.509-3.221h2.09a5.422,5.422,0,0,1,5.418,5.418v7.759Zm.16-11.56a6.755,6.755,0,0,0-5.577-2.948H26.094a.656.656,0,0,0-.526.26l-2.183,2.8-2.176-2.8a.656.656,0,0,0-.526-.26H18.267a6.753,6.753,0,0,0-5.717,3.168l-1.664-.96a3.073,3.073,0,0,0-.207-2.028l7.015-5.318a6.536,6.536,0,0,0,5.4,3.308c.1.007.206.007.306.007a6.536,6.536,0,0,0,5.571-3.121l6.516,4.819v.007a2.984,2.984,0,0,0-.206,1.1,3.138,3.138,0,0,0,.22,1.151Z" transform="translate(-1.28 -1.27)" fill="#1c54f8"></path></g></g></g></svg> 