<?xml version="1.0" encoding="UTF-8"?> <svg xmlns="http://www.w3.org/2000/svg" xmlns:xlink="http://www.w3.org/1999/xlink" width="60" height="60" viewBox="0 0 60 60"><defs><clipPath id="clip-path"><rect id="Rectangle_39" data-name="Rectangle 39" width="60" height="60" transform="translate(193 503)" fill="#fff" stroke="#707070" stroke-width="1"></rect></clipPath></defs><g id="Mask_Group_29" data-name="Mask Group 29" transform="translate(-193 -503)" clip-path="url(#clip-path)"><g id="Group_76" data-name="Group 76" transform="translate(-75 19)"><path id="Path_126" data-name="Path 126" d="M34.741,32.5H30.993V30.249A2.251,2.251,0,0,0,28.744,28h-1.5a.749.749,0,0,0-.75.75v4.187l-1.809,1.809H19.75a.749.749,0,0,0-.75.75v6.746a.749.749,0,0,0,.75.75H34.741a3.752,3.752,0,0,0,3.748-3.748v-3A3.752,3.752,0,0,0,34.741,32.5ZM20.5,36.245h3.748v5.247H20.5Zm16.491,3a2.251,2.251,0,0,1-2.249,2.249H25.746V35.806l2.029-2.029a.746.746,0,0,0,.22-.53V29.5h.75a.75.75,0,0,1,.75.75v3a.749.749,0,0,0,.75.75h4.5a2.251,2.251,0,0,1,2.249,2.249Z" transform="translate(269.743 483.489)" fill="#1c54f8" stroke="#fff" stroke-width="0.4"></path><path id="Path_127" data-name="Path 127" d="M43.226,2H29.734a3.752,3.752,0,0,0-3.748,3.748v7.5a3.744,3.744,0,0,0,.076.75h-3.15a3.744,3.744,0,0,0,.076-.75v-7.5A3.752,3.752,0,0,0,19.24,2H5.748A3.752,3.752,0,0,0,2,5.748v7.5a3.752,3.752,0,0,0,3.748,3.748V40.978h-3a.749.749,0,0,0-.75.75,5.253,5.253,0,0,0,5.247,5.247h34.48a5.253,5.253,0,0,0,5.247-5.247.749.749,0,0,0-.75-.75h-3V16.991a3.752,3.752,0,0,0,3.748-3.748v-7.5A3.752,3.752,0,0,0,43.226,2Zm-21,13.492h4.528c.043.058.093.109.139.164a3.711,3.711,0,0,0,.367.378c.069.061.14.12.213.175a3.817,3.817,0,0,0,.321.223,3.643,3.643,0,0,0,.365.2c.075.035.15.069.227.1a3.742,3.742,0,0,0,.541.169c.049.01.1.018.148.027a3.685,3.685,0,0,0,.663.067h3v1.5H16.242v-1.5h3a3.67,3.67,0,0,0,.662-.067c.049-.009.1-.016.148-.027a3.679,3.679,0,0,0,.541-.169c.078-.03.152-.064.227-.1a3.815,3.815,0,0,0,.365-.2,3.649,3.649,0,0,0,.321-.223c.073-.056.144-.114.213-.175a3.711,3.711,0,0,0,.367-.378C22.13,15.6,22.179,15.55,22.223,15.492Zm14.568,4.5h1.938v17.99H10.245V19.99h1.938l2.779,2.779a.745.745,0,0,0,.222.148.593.593,0,0,0,.07.025.726.726,0,0,0,.192.037c.016,0,.031.01.046.01s.018-.005.027-.005a.727.727,0,0,0,.259-.052.75.75,0,0,0,.463-.693V19.99H32.732v2.249a.75.75,0,0,0,.462.693.727.727,0,0,0,.259.052c.01,0,.019.005.028.005s.031-.008.047-.009a.767.767,0,0,0,.483-.21ZM3.5,13.244v-7.5A2.251,2.251,0,0,1,5.748,3.5H19.24a2.251,2.251,0,0,1,2.249,2.249v7.5a2.224,2.224,0,0,1-.306,1.112l-.008.01a2.268,2.268,0,0,1-.785.8c-.033.02-.067.037-.1.055a2.224,2.224,0,0,1-.378.158c-.046.015-.091.031-.139.043a2.23,2.23,0,0,1-.531.07H15.492a.749.749,0,0,0-.75.75v4.187L13.024,18.71l-3-3a.748.748,0,0,0-.53-.22H5.748A2.251,2.251,0,0,1,3.5,13.244ZM41.727,45.475H7.247a3.754,3.754,0,0,1-3.672-3H45.4A3.754,3.754,0,0,1,41.727,45.475Zm0-4.5H7.247V16.991H9.185l1.5,1.5H9.5a.749.749,0,0,0-.75.75V38.729a.749.749,0,0,0,.75.75H39.479a.749.749,0,0,0,.75-.75V19.24a.749.749,0,0,0-.75-.75H38.29l1.5-1.5h1.938Zm3.748-27.734a2.251,2.251,0,0,1-2.249,2.249H39.479a.748.748,0,0,0-.53.22l-3,3-1.719,1.719V16.242a.749.749,0,0,0-.75-.75H29.734a2.23,2.23,0,0,1-.531-.07c-.048-.012-.093-.028-.139-.043a2.141,2.141,0,0,1-.378-.158c-.034-.018-.069-.035-.1-.055a2.274,2.274,0,0,1-.785-.8l-.008-.01a2.224,2.224,0,0,1-.306-1.112v-7.5A2.251,2.251,0,0,1,29.734,3.5H43.226a2.251,2.251,0,0,1,2.249,2.249Z" transform="translate(274 490)" fill="#1c54f8" stroke="#fff" stroke-width="0.4"></path><rect id="Rectangle_44" data-name="Rectangle 44" width="1" height="1" transform="translate(307 499)" fill="#1c54f8" stroke="#fff" stroke-width="0.4"></rect><rect id="Rectangle_45" data-name="Rectangle 45" width="1" height="1" transform="translate(310 499)" fill="#1c54f8" stroke="#fff" stroke-width="0.4"></rect><rect id="Rectangle_46" data-name="Rectangle 46" width="1" height="1" transform="translate(313 499)" fill="#1c54f8" stroke="#fff" stroke-width="0.4"></rect><path id="Path_128" data-name="Path 128" d="M13.937,15.246a.749.749,0,0,0,1.06,0l3.373-3.373a2.34,2.34,0,0,0-3.309-3.309l-.594.594-.594-.594a2.34,2.34,0,1,0-3.309,3.309ZM11.624,9.624a.843.843,0,0,1,1.189,0l1.124,1.124a.749.749,0,0,0,1.06,0l1.124-1.124a.843.843,0,0,1,1.189,0,.84.84,0,0,1,0,1.189l-2.843,2.843-2.843-2.843a.84.84,0,0,1,0-1.189Z" transform="translate(272.027 488.527)" fill="#1c54f8" stroke="#fff" stroke-width="0.4"></path></g></g></svg> 