<?xml version="1.0" encoding="UTF-8"?> <svg xmlns="http://www.w3.org/2000/svg" xmlns:xlink="http://www.w3.org/1999/xlink" width="60" height="60" viewBox="0 0 60 60"><defs><clipPath id="clip-path"><rect id="Rectangle_38" data-name="Rectangle 38" width="60" height="60" transform="translate(50 503)" fill="#fff" stroke="#707070" stroke-width="1"></rect></clipPath></defs><g id="Mask_Group_28" data-name="Mask Group 28" transform="translate(-50 -503)" clip-path="url(#clip-path)"><g id="Group_75" data-name="Group 75" transform="translate(184.81 27)"><path id="Path_125" data-name="Path 125" d="M38.366,6.111H31.253A1.465,1.465,0,0,0,29.8,4.758H27.742a3.306,3.306,0,0,0-6.52,0H19.168a1.466,1.466,0,0,0-1.457,1.353H10.6A2.4,2.4,0,0,0,8.208,8.5V30.893c-.286.024-.56.042-.813.051H4.38A2.191,2.191,0,0,0,2.19,33.134v2.49A2.191,2.191,0,0,0,4.38,37.814h1l1.437,5.37a1.94,1.94,0,0,0,1.395,1.373v.165A2.4,2.4,0,0,0,10.6,47.113H38.366a2.4,2.4,0,0,0,2.391-2.391V8.5a2.392,2.392,0,0,0-2.391-2.386ZM7.955,36.729V32.017A19.443,19.443,0,0,0,16.6,29.391V39.36a19.4,19.4,0,0,0-8.649-2.63ZM12.07,38.57a12.506,12.506,0,0,1,4.562,2.18,1.741,1.741,0,0,0,3.467-.235V36.588l1.09-.5a1.387,1.387,0,0,0,.817-1.274v-.831a1.392,1.392,0,0,0-.817-1.274l-1.09-.5V28.227a1.741,1.741,0,0,0-3.467-.235,12.506,12.506,0,0,1-4.562,2.18V10.339a.372.372,0,0,1,.371-.371H17.7v.187a1.469,1.469,0,0,0,1.47,1.47H29.8a1.469,1.469,0,0,0,1.47-1.47V9.968h5.261a.372.372,0,0,1,.371.371l0,32.535a.372.372,0,0,1-.371.371H12.442a.372.372,0,0,1-.371-.371Zm5.638,1.949V28.225a.644.644,0,1,1,1.288,0v12.29a.644.644,0,0,1-1.288,0ZM20.1,33.426l.629.286a.288.288,0,0,1,.174.272v.831a.28.28,0,0,1-.174.272l-.629.286Zm-1.3-27.2a.372.372,0,0,1,.371-.371h2.556a.549.549,0,0,0,.551-.551,2.208,2.208,0,1,1,4.415,0,.549.549,0,0,0,.551.551H29.8a.372.372,0,0,1,.371.371v3.927a.372.372,0,0,1-.371.371H19.168a.372.372,0,0,1-.371-.371ZM9.313,8.5A1.294,1.294,0,0,1,10.6,7.2H17.7V8.863H12.437a1.469,1.469,0,0,0-1.47,1.47V30.446c-.569.127-1.127.229-1.659.31V8.5ZM3.294,35.615v-2.49a1.089,1.089,0,0,1,1.085-1.09H6.854V36.7H4.38a1.08,1.08,0,0,1-1.086-1.085ZM7.88,42.888,6.518,37.8H7.4c.272.009.569.028.879.057l1.231,4.6a.844.844,0,1,1-1.631.431ZM39.658,44.71A1.294,1.294,0,0,1,38.367,46H10.6A1.294,1.294,0,0,1,9.308,44.71V44.5a1.92,1.92,0,0,0,1.063-.864,1.956,1.956,0,0,0,.2-1.475L9.454,38c.488.075,1,.169,1.518.286l0,4.586a1.469,1.469,0,0,0,1.47,1.47H36.528A1.469,1.469,0,0,0,38,42.873l0-32.535a1.469,1.469,0,0,0-1.47-1.47H31.268V7.21h7.1A1.294,1.294,0,0,1,39.658,8.5Zm-10.5-19.257h2.03a1.129,1.129,0,0,0,1.127-1.127V14.789a1.129,1.129,0,0,0-1.127-1.127l-2.03,0a1.129,1.129,0,0,0-1.127,1.127v9.538a1.126,1.126,0,0,0,1.127,1.129Zm-.029-10.666a.03.03,0,0,1,.028-.028h2.03a.03.03,0,0,1,.028.028v9.538a.03.03,0,0,1-.028.028H29.163a.03.03,0,0,1-.028-.028ZM23.468,25.454H25.5a1.129,1.129,0,0,0,1.127-1.127V17.489A1.129,1.129,0,0,0,25.5,16.362h-2.03a1.129,1.129,0,0,0-1.127,1.127v6.84a1.125,1.125,0,0,0,1.127,1.125Zm-.024-7.965a.03.03,0,0,1,.028-.028H25.5a.03.03,0,0,1,.028.028v6.84a.03.03,0,0,1-.028.028h-2.03a.03.03,0,0,1-.028-.028ZM19.8,19.064h-2.03a1.129,1.129,0,0,0-1.127,1.127v4.138a1.129,1.129,0,0,0,1.127,1.127H19.8a1.129,1.129,0,0,0,1.127-1.127V20.19A1.127,1.127,0,0,0,19.8,19.064Zm.028,5.267a.03.03,0,0,1-.028.028h-2.03a.03.03,0,0,1-.028-.028V20.192a.03.03,0,0,1,.028-.028H19.8a.03.03,0,0,1,.028.028ZM45.122,16.4H43.956a1.992,1.992,0,0,0-1.991,1.991V35.567a.608.608,0,0,0,.051.24l1.776,3.7a.829.829,0,0,0,1.494,0l1.776-3.7a.535.535,0,0,0,.051-.24l0-17.181A2,2,0,0,0,45.122,16.4Zm-1.165,1.1h1.165a.892.892,0,0,1,.892.892v1.6H43.068v-1.6A.885.885,0,0,1,43.956,17.494Zm-.892,17.524V21.084H46.01V35.019Zm1.474,3.5-1.151-2.4h2.3ZM24.2,28.831H34.03a.551.551,0,0,1,0,1.1l-9.833,0a.55.55,0,1,1,0-1.1Zm10.382,3.647a.549.549,0,0,1-.551.551l-9.831,0a.551.551,0,1,1,0-1.1H34.03a.556.556,0,0,1,.549.552Zm0,3.1a.549.549,0,0,1-.551.551l-9.831,0a.551.551,0,1,1,0-1.1H34.03a.556.556,0,0,1,.549.552Zm-2.7,3.1a.549.549,0,0,1-.551.551H24.2a.551.551,0,1,1,0-1.1h7.132a.549.549,0,0,1,.549.551Z" transform="translate(-129 481)" fill="#1c54f8"></path></g></g></svg> 