<?xml version="1.0" encoding="UTF-8"?> <svg xmlns="http://www.w3.org/2000/svg" xmlns:xlink="http://www.w3.org/1999/xlink" width="60" height="60" viewBox="0 0 60 60"><defs><clipPath id="clip-path"><rect id="Rectangle_35" data-name="Rectangle 35" width="60" height="60" transform="translate(193 349)" fill="#fff" stroke="#707070" stroke-width="1"></rect></clipPath></defs><g id="Mask_Group_27" data-name="Mask Group 27" transform="translate(-193 -349)" clip-path="url(#clip-path)"><g id="Group_74" data-name="Group 74" transform="translate(-67.069 13.5)"><path id="Path_124" data-name="Path 124" d="M35.291,6.419V8.808A3.221,3.221,0,0,1,36.9,8.35a3.018,3.018,0,1,1,0,6.036,3.226,3.226,0,0,1-1.613-.458v2.408h3.227a.7.7,0,0,1,.7.7c0,1.381-.58,1.5-.58,2.315a1.619,1.619,0,1,0,3.237,0c0-.814-.579-.934-.579-2.315a.7.7,0,0,1,.7-.7h3.213a10.636,10.636,0,0,0-9.918-9.918ZM13.962,25.475h3.221a.7.7,0,0,1,.7.7v1.008a9.218,9.218,0,0,1,2.325.963l.713-.713a.7.7,0,0,1,.989,0l2.277,2.277a.7.7,0,0,1,0,.989l-.713.713a9.192,9.192,0,0,1,.963,2.325h1.009a.7.7,0,0,1,.7.7v3.221a.7.7,0,0,1-.7.7H24.437a9.193,9.193,0,0,1-.963,2.325l.713.712a.7.7,0,0,1,0,.989l-.388.388a2.187,2.187,0,0,0,1.133.3h5.636a2.171,2.171,0,0,0,2.163-2.162V38.749H27.76a.7.7,0,1,1,0-1.4h5c.405-5.191,5.247-7.046,5.618-12.789H35.988a3.22,3.22,0,0,1,.459,1.613,3.018,3.018,0,1,1-6.035,0,3.225,3.225,0,0,1,.457-1.613H27.761a.7.7,0,0,1-.7-.705.736.736,0,0,1,.006-.092V19.926a.7.7,0,0,1,.7-.7c1.381,0,1.5.579,2.316.579a1.619,1.619,0,0,0,0-3.237c-.814,0-.934.579-2.316.579a.7.7,0,0,1-.7-.7v-3.2a10.632,10.632,0,0,0-9.932,10.609.7.7,0,0,1-1.4,0A12.031,12.031,0,0,1,27.765,11.826a.7.7,0,0,1,.7.7v3.106a3.241,3.241,0,0,1,1.616-.458,3.018,3.018,0,1,1,0,6.036,3.241,3.241,0,0,1-1.616-.459v2.413h3.224v0a.7.7,0,0,1,.7.7c0,1.387-.577,1.5-.577,2.312a1.619,1.619,0,1,0,3.237,0c0-.8-.579-.957-.579-2.312a.7.7,0,0,1,.7-.7H39.1v0a.7.7,0,0,1,.7.7c0,7.1-5.663,8.873-5.663,14.188v2.862a3.573,3.573,0,0,1-2.893,3.5,3.489,3.489,0,0,1-3.474,2.21,3.5,3.5,0,0,1-3.472-2.2,3.6,3.6,0,0,1-1.5-.641l-.887.887a.7.7,0,0,1-.989,0l-.713-.713a9.2,9.2,0,0,1-2.325.963v1.009a.7.7,0,0,1-.7.7H13.962a.7.7,0,0,1-.7-.7V44.912a9.194,9.194,0,0,1-2.325-.963l-.712.713a.7.7,0,0,1-.989,0L6.958,42.385a.7.7,0,0,1,0-.989l.713-.713a9.194,9.194,0,0,1-.963-2.325H5.7a.7.7,0,0,1-.7-.7V34.437a.7.7,0,0,1,.7-.7H6.708a9.218,9.218,0,0,1,.963-2.325L6.958,30.7a.7.7,0,0,1,0-.989l2.277-2.277a.7.7,0,0,1,.989,0l.713.713a9.211,9.211,0,0,1,2.325-.963V26.175A.7.7,0,0,1,13.962,25.475Zm2.521,1.4H14.662v.866h0a.7.7,0,0,1-.567.686,7.714,7.714,0,0,0-2.839,1.17.7.7,0,0,1-.912-.067l-.612-.613L8.442,30.2l.613.612h0a.7.7,0,0,1,.085.885A7.653,7.653,0,0,0,7.96,34.53a.7.7,0,0,1-.694.607H6.4v1.822h.867a.7.7,0,0,1,.686.567,7.714,7.714,0,0,0,1.17,2.839.7.7,0,0,1-.067.912l-.613.612,1.288,1.288.612-.613h0a.7.7,0,0,1,.885-.085,7.655,7.655,0,0,0,2.827,1.182.7.7,0,0,1,.607.694v.866h1.822v-.866h0a.7.7,0,0,1,.567-.686,7.714,7.714,0,0,0,2.84-1.17.7.7,0,0,1,.912.067l.614.613,1.288-1.288-.613-.612h0a.7.7,0,0,1-.085-.885,7.635,7.635,0,0,0,1.18-2.827.7.7,0,0,1,.694-.607h.865V35.137H23.88a.7.7,0,0,1-.686-.567,7.717,7.717,0,0,0-1.17-2.84.7.7,0,0,1,.067-.912L22.7,30.2l-1.287-1.287-.612.613h0a.7.7,0,0,1-.885.085,7.643,7.643,0,0,0-2.827-1.18.7.7,0,0,1-.607-.694v-.867Zm-.911,4.86a4.314,4.314,0,1,0,4.314,4.314,4.314,4.314,0,0,0-4.314-4.314Zm-4.039.274a5.712,5.712,0,1,0,8.079,0A5.712,5.712,0,0,0,11.534,32.008ZM22.873,8.3a.7.7,0,1,1,1.35-.361l.481,1.8a.7.7,0,1,1-1.35.361Zm-7.125,4.532,1.316,1.316a.7.7,0,1,0,.989-.989l-1.316-1.317a.7.7,0,1,0-.989.989Zm-3.9,7.485,1.8.482A.7.7,0,1,0,14,19.446l-1.8-.48a.7.7,0,1,0-.361,1.35ZM25.881,44.473a2.763,2.763,0,0,0,3.778,0ZM33.89,9.629V5.7A.7.7,0,0,1,34.6,5V5A12.021,12.021,0,0,1,46.621,17.035a.7.7,0,0,1-.7.7H42.815a3.237,3.237,0,0,1,.458,1.615,3.018,3.018,0,1,1-6.036,0,3.237,3.237,0,0,1,.459-1.615H34.59a.7.7,0,0,1-.7-.7V13.106h0a.7.7,0,0,1,.7-.7c1.387,0,1.5.577,2.312.577a1.619,1.619,0,1,0,0-3.237c-.8,0-.957.58-2.312.58a.7.7,0,0,1-.7-.7Z" transform="translate(264.069 339.5)" fill="#1c54f8" fill-rule="evenodd"></path></g></g></svg> 