<?xml version="1.0" encoding="UTF-8"?> <svg xmlns="http://www.w3.org/2000/svg" xmlns:xlink="http://www.w3.org/1999/xlink" width="60" height="60" viewBox="0 0 60 60"><defs><clipPath id="clip-path"><rect id="Rectangle_32" data-name="Rectangle 32" width="60" height="60" transform="translate(353 197)" fill="#fff" stroke="#707070" stroke-width="1"></rect></clipPath></defs><g id="Mask_Group_25" data-name="Mask Group 25" transform="translate(-353 -197)" clip-path="url(#clip-path)"><g id="Group_71" data-name="Group 71" transform="translate(-70.936 15.078)"><path id="Path_122" data-name="Path 122" d="M41.308,38.157H38.44v-21.1a2.117,2.117,0,0,0-2.115-2.115H29.68a9.16,9.16,0,0,0-.666-1.457l.578-1.131a1.158,1.158,0,0,0-.209-1.348L28.16,9.788a1.161,1.161,0,0,0-1.34-.209l-1.135.578A9,9,0,0,0,23.6,9.29l-.394-1.21a1.156,1.156,0,0,0-1.1-.8H20.38a1.156,1.156,0,0,0-1.1.8l-.394,1.21a8.951,8.951,0,0,0-2.089.867l-1.131-.578a1.151,1.151,0,0,0-1.344.209L13.1,11.007a1.158,1.158,0,0,0-.214,1.344l.578,1.135a8.8,8.8,0,0,0-.666,1.457H6.152a2.117,2.117,0,0,0-2.115,2.115v21.1H1.169A.65.65,0,0,0,.52,38.8v1.8a2.453,2.453,0,0,0,2.45,2.45H39.507a2.453,2.453,0,0,0,2.45-2.45V38.8A.646.646,0,0,0,41.308,38.157ZM10.678,19.239a1.156,1.156,0,0,0,.712.657l1.21.394a8.847,8.847,0,0,0,.867,2.085l-.582,1.139a1.157,1.157,0,0,0,.214,1.34l1.218,1.218a1.157,1.157,0,0,0,1.344.214l1.135-.578a9.026,9.026,0,0,0,2.089.867l.389,1.21a1.156,1.156,0,0,0,1.1.8H22.1a1.156,1.156,0,0,0,1.1-.8l.394-1.21a8.817,8.817,0,0,0,2.085-.867l1.139.578a1.16,1.16,0,0,0,1.344-.214l1.218-1.218A1.152,1.152,0,0,0,29.6,23.51l-.578-1.135a9,9,0,0,0,.867-2.085L31.1,19.9a1.159,1.159,0,0,0,.708-.657h2.408a.334.334,0,0,1,.331.331V34.51a.334.334,0,0,1-.331.331H8.271a.334.334,0,0,1-.331-.331V19.57a.334.334,0,0,1,.331-.331Zm4.485-8.458,1.114.569a1.141,1.141,0,0,0,1.105-.033,7.64,7.64,0,0,1,1.9-.791,1.144,1.144,0,0,0,.808-.754s0,0,0-.008l.385-1.185H22l.385,1.185a1.141,1.141,0,0,0,.8.762,7.577,7.577,0,0,1,1.905.791,1.152,1.152,0,0,0,1.105.029l1.114-.569,1.076,1.076-.565,1.114a1.13,1.13,0,0,0,.033,1.105,7.592,7.592,0,0,1,.787,1.905,1.15,1.15,0,0,0,.762.8l1.189.385v1.52l-1.189.385a1.133,1.133,0,0,0-.762.808,7.656,7.656,0,0,1-.787,1.905,1.13,1.13,0,0,0-.029,1.105L28.4,24l-1.076,1.08-1.105-.565a1.136,1.136,0,0,0-1.114.029,7.734,7.734,0,0,1-1.905.791,1.15,1.15,0,0,0-.8.762l-.385,1.185H20.485L20.1,26.1s0,0,0-.008a1.139,1.139,0,0,0-.8-.754,7.722,7.722,0,0,1-1.905-.787,1.138,1.138,0,0,0-1.11-.029l-1.11.565-1.076-1.076.565-1.114a1.141,1.141,0,0,0-.033-1.105,7.592,7.592,0,0,1-.787-1.905,1.135,1.135,0,0,0-.762-.8L11.888,18.7V17.17l1.185-.385a1.135,1.135,0,0,0,.762-.8,7.592,7.592,0,0,1,.787-1.905,1.13,1.13,0,0,0,.029-1.105l-.565-1.114ZM5.331,17.061a.822.822,0,0,1,.821-.821h4.786a1.154,1.154,0,0,0-.348.829v.871H8.271A1.631,1.631,0,0,0,6.642,19.57V34.51a1.631,1.631,0,0,0,1.629,1.629H34.21a1.631,1.631,0,0,0,1.629-1.629V19.57a1.631,1.631,0,0,0-1.629-1.629h-2.32V17.07a1.142,1.142,0,0,0-.352-.829h4.786a.822.822,0,0,1,.821.821v21.1H5.331ZM13.563,39.45H28.918V39.7a.259.259,0,0,1-.255.255H13.814a.256.256,0,0,1-.251-.255Zm27.1,1.156a1.151,1.151,0,0,1-1.151,1.151H2.97a1.151,1.151,0,0,1-1.151-1.151V39.455H12.265v.251a1.551,1.551,0,0,0,1.549,1.549H28.667a1.551,1.551,0,0,0,1.549-1.549v-.251H40.663v1.151Zm-16.5-20.991a3.376,3.376,0,0,0,.159-3.061.647.647,0,1,1,1.181-.528,4.673,4.673,0,0,1-4.246,6.578,4.968,4.968,0,0,1-.557-.033l.427.7a.652.652,0,0,1-.553.988.643.643,0,0,1-.553-.31l-1.34-2.2a.648.648,0,0,1-.075-.49.664.664,0,0,1,.293-.4l2.2-1.34a.649.649,0,0,1,.674,1.11l-1.047.636A3.354,3.354,0,0,0,24.157,19.616Zm-7.177.222A4.663,4.663,0,0,1,21.787,13.3l-.431-.708a.649.649,0,1,1,1.11-.674l1.336,2.2a.648.648,0,0,1,.075.49.664.664,0,0,1-.293.4l-2.2,1.336a.658.658,0,0,1-.335.1.643.643,0,0,1-.553-.31.652.652,0,0,1,.218-.892l1.043-.636a3.372,3.372,0,0,0-3.6,4.706.643.643,0,0,1-.59.909A.631.631,0,0,1,16.98,19.837Z" transform="translate(432.698 186.757)" fill="#1c54f7" stroke="#fff" stroke-width="0.2"></path></g></g></svg> 