<?xml version="1.0" encoding="UTF-8"?> <svg xmlns="http://www.w3.org/2000/svg" xmlns:xlink="http://www.w3.org/1999/xlink" width="60" height="60" viewBox="0 0 60 60"><defs><clipPath id="clip-path"><rect id="Rectangle_43" data-name="Rectangle 43" width="60" height="60" transform="translate(813 503)" fill="#fff" stroke="#707070" stroke-width="1"></rect></clipPath></defs><g id="Mask_Group_33" data-name="Mask Group 33" transform="translate(-813 -503)" clip-path="url(#clip-path)"><g id="Group_81" data-name="Group 81" transform="translate(-2.655 88.923)"><path id="Path_148" data-name="Path 148" d="M56.6,34.743h-4.28a1.09,1.09,0,0,0-1.079.959H41.363a.627.627,0,0,0-.442.183l-1.755,1.757-1.755-1.755a.627.627,0,0,0-.441-.183H26.4v0a1.1,1.1,0,0,0-1.1-1.1H21.031a1.1,1.1,0,0,0-1.092,1.1V49.432a1.1,1.1,0,0,0,1.092,1.092H25.31a1.1,1.1,0,0,0,1.056-.822h1.27A2.492,2.492,0,0,0,30.1,51.776c.059,0,.116-.013.175-.017,0,.059-.017.115-.017.174a2.5,2.5,0,0,0,2.5,2.5c.06,0,.116-.012.174-.016,0,.058-.016.115-.016.175a2.5,2.5,0,0,0,2.5,2.505c.058,0,.116-.012.175-.016,0,.058-.017.114-.017.173a2.5,2.5,0,0,0,2.5,2.5h0a2.485,2.485,0,0,0,1.37-.407A2.363,2.363,0,0,0,43.006,57.2h.1a2.365,2.365,0,0,0,2.371-2.37v-.1a2.37,2.37,0,0,0,2.416-2.9A2.346,2.346,0,0,0,49.989,49.7h1.255a1.09,1.09,0,0,0,1.079.959H56.6a1.1,1.1,0,0,0,1.1-1.092V35.836a1.1,1.1,0,0,0-1.1-1.094Zm-14.975,2.21h9.6v11.5H49.779a2.035,2.035,0,0,0-.1-.179c-.027-.047-.051-.1-.081-.141a2.385,2.385,0,0,0-.282-.346l-6.422-6.422h1.952a.624.624,0,0,0,0-1.248H41.382a.623.623,0,0,0-.442.183l-2.577,2.578a.938.938,0,0,1-.668.274h0a.943.943,0,0,1-.666-1.609ZM25.155,49.276H21.187V35.853h3.967Zm4.056.883a1.258,1.258,0,0,1,0-1.781l1.873-1.873a1.259,1.259,0,1,1,1.781,1.781L30.99,50.16a1.26,1.26,0,0,1-1.779,0Zm2.661,2.661a1.261,1.261,0,0,1,0-1.781l1.875-1.872a1.246,1.246,0,0,1,.89-.366h0a1.256,1.256,0,0,1,.89,2.145L33.654,52.82a1.293,1.293,0,0,1-1.783,0Zm2.661,2.663a1.264,1.264,0,0,1,0-1.781l1.873-1.873a1.259,1.259,0,1,1,1.781,1.781l-1.872,1.874a1.261,1.261,0,0,1-1.782,0Zm3.551,3.028h0a1.257,1.257,0,0,1-.89-2.145l1.872-1.874a1.259,1.259,0,1,1,1.781,1.781l-1.874,1.868a1.246,1.246,0,0,1-.888.368Zm3.345-.411a1.128,1.128,0,0,1-.959.312l1.258-1.258.014-.016a1.122,1.122,0,0,1-.313.959Zm7-7.842a1.125,1.125,0,0,1-1.589,0l-5.9-5.9a.624.624,0,0,0-.883.883l5.9,5.9h0l.417.416a1.125,1.125,0,1,1-1.591,1.591L39.629,48a.624.624,0,0,0-.883.883L43.9,54.034a1.122,1.122,0,0,1-1.474,1.685,2.475,2.475,0,0,0-2.644-2.828,2.472,2.472,0,0,0-2.661-2.663c0-.058.017-.114.017-.173a2.5,2.5,0,0,0-2.5-2.5h0c-.059,0-.116.012-.173.016A2.495,2.495,0,0,0,30.2,45.627L28.331,47.5a2.47,2.47,0,0,0-.587.955H26.4v-11.5H36.712l1.575,1.571L36.143,40.66a2.191,2.191,0,0,0,1.548,3.74h0a2.176,2.176,0,0,0,1.55-.641l2.136-2.137,7.05,7.046h0a1.1,1.1,0,0,1,.168.225c.012.02.021.04.032.06a1.118,1.118,0,0,1-.2,1.3Zm8.013-.846H52.473V35.989h3.968ZM28.7,27.765a1.268,1.268,0,0,0,1.261,1.192h1.752V31.7a1.986,1.986,0,0,0,3.967,0V28.958h1.751a1.264,1.264,0,0,0,1-.5c1.644.325,5.184,1.3,6.643,3.831,0,0,.008.008.01.012a1.967,1.967,0,0,0,3.846-.588V27.765a3.871,3.871,0,0,0,0-7.626V16.191a1.967,1.967,0,0,0-3.847-.586s-.007.007-.01.011c-1.461,2.53-5,3.5-6.643,3.83a1.263,1.263,0,0,0-1-.5h-7.47a1.267,1.267,0,0,0-1.261,1.19,3.87,3.87,0,0,0,0,7.628ZM34.342,31.7a.646.646,0,0,1-1.292,0V28.958h1.292ZM50.8,23.953A2.541,2.541,0,0,1,48.936,26.4V21.5A2.544,2.544,0,0,1,50.8,23.953Zm-3.841-8.4a.636.636,0,0,1,.636.636V31.712a.636.636,0,0,1-1.27,0V16.191a.636.636,0,0,1,.635-.634Zm-1.972,2.3v12.2a13.076,13.076,0,0,0-6.29-2.909V20.761a13.089,13.089,0,0,0,6.29-2.908ZM37.363,27.62H30.029V20.285h7.333ZM28.692,21.5v4.9a2.537,2.537,0,0,1,0-4.9Zm2.115.336a.668.668,0,0,1,.668-.669h4.441a.669.669,0,0,1,0,1.337H31.475a.668.668,0,0,1-.668-.668Zm0,2.113a.668.668,0,0,1,.668-.669h4.441a.669.669,0,0,1,0,1.338H31.475a.668.668,0,0,1-.668-.668Zm0,2.112a.668.668,0,0,1,.668-.668h4.441a.669.669,0,0,1,0,1.337H31.475a.668.668,0,0,1-.668-.669Z" transform="translate(806.716 406.86)" fill="#1c54f8"></path></g></g></svg> 