<?xml version="1.0" encoding="UTF-8"?> <svg xmlns="http://www.w3.org/2000/svg" xmlns:xlink="http://www.w3.org/1999/xlink" width="60" height="60" viewBox="0 0 60 60"><defs><clipPath id="clip-path"><rect id="Rectangle_31" data-name="Rectangle 31" width="60" height="60" transform="translate(193 197)" fill="#fff" stroke="#707070" stroke-width="1"></rect></clipPath></defs><g id="Mask_Group_24" data-name="Mask Group 24" transform="translate(-193 -197)" clip-path="url(#clip-path)"><g id="Group_70" data-name="Group 70" transform="translate(-68.175 31.484)"><g id="Group_69" data-name="Group 69" transform="translate(267.9 171)"><g id="Group_61" data-name="Group 61" transform="translate(23.045 3.598)"><path id="Path_114" data-name="Path 114" d="M32.777,23.539h0l3.445,6.125a.812.812,0,0,0,1.378,0l3.445-6.125v-.153c0-.077.077-.153.077-.23V7.231A1.536,1.536,0,0,0,39.591,5.7H34.231A1.536,1.536,0,0,0,32.7,7.231v16a.46.46,0,0,0,.077.306Zm4.134,4.211L34.767,24h4.288Zm2.68-5.283H37.677V7.231h1.914ZM36.145,7.231V22.467H34.231V7.231Z" transform="translate(-32.7 -5.7)" fill="#1c54f8" stroke="#fff" stroke-width="0.3"></path></g><g id="Group_62" data-name="Group 62" transform="translate(15.236 13.092)"><path id="Path_115" data-name="Path 115" d="M22.5,18.866a.723.723,0,0,0,.766.766h3.9a.766.766,0,0,0,0-1.531h-3.9A.767.767,0,0,0,22.5,18.866Z" transform="translate(-22.5 -18.1)" fill="#1c54f8" stroke="#fff" stroke-width="0.3"></path></g><g id="Group_63" data-name="Group 63" transform="translate(15.236 18.375)"><path id="Path_116" data-name="Path 116" d="M27.17,25h-3.9a.766.766,0,0,0,0,1.531h3.9a.723.723,0,0,0,.766-.766A.767.767,0,0,0,27.17,25Z" transform="translate(-22.5 -25)" fill="#1c54f8" stroke="#fff" stroke-width="0.3"></path></g><g id="Group_64" data-name="Group 64" transform="translate(15.236 23.734)"><path id="Path_117" data-name="Path 117" d="M27.17,32h-3.9a.766.766,0,1,0,0,1.531h3.9a.766.766,0,0,0,0-1.531Z" transform="translate(-22.5 -32)" fill="#1c54f8" stroke="#fff" stroke-width="0.3"></path></g><g id="Group_65" data-name="Group 65" transform="translate(13.398 34.147)"><path id="Path_118" data-name="Path 118" d="M20.866,47.131H22.4a.766.766,0,0,0,0-1.531H20.866a.723.723,0,0,0-.766.766A.767.767,0,0,0,20.866,47.131Z" transform="translate(-20.1 -45.6)" fill="#1c54f8" stroke="#fff" stroke-width="0.3"></path></g><g id="Group_66" data-name="Group 66" transform="translate(21.744 34.147)"><path id="Path_119" data-name="Path 119" d="M31.766,47.131H33.3a.766.766,0,0,0,0-1.531H31.766a.723.723,0,0,0-.766.766A.823.823,0,0,0,31.766,47.131Z" transform="translate(-31 -45.6)" fill="#1c54f8" stroke="#fff" stroke-width="0.3"></path></g><g id="Group_67" data-name="Group 67" transform="translate(30.089 34.147)"><path id="Path_120" data-name="Path 120" d="M42.666,47.131H44.2a.766.766,0,0,0,0-1.531H42.666a.723.723,0,0,0-.766.766A.823.823,0,0,0,42.666,47.131Z" transform="translate(-41.9 -45.6)" fill="#1c54f8" stroke="#fff" stroke-width="0.3"></path></g><g id="Group_68" data-name="Group 68" transform="translate(0 0)"><path id="Path_121" data-name="Path 121" d="M3.366,32.314a.766.766,0,0,0,0,1.531h2.3v6.048a.723.723,0,0,0,.766.766H18.372l-4.594,8.192a.788.788,0,1,0,1.378.766l4.977-8.958h4.977v4.594a.766.766,0,0,0,1.531,0V40.659h4.977l4.977,8.958a.788.788,0,0,0,1.378-.766l-4.594-8.192H45.322a.723.723,0,0,0,.766-.766V33.845h2.3a.766.766,0,0,0,0-1.531h-2.3V20.753h2.3a.766.766,0,0,0,0-1.531h-2.3V13.173a.723.723,0,0,0-.766-.766H38.661V3.3a2.3,2.3,0,0,0-2.3-2.3H20.516a.546.546,0,0,0-.459.23h0L13.319,7.891h0a.827.827,0,0,0-.23.536v3.981H6.428a.723.723,0,0,0-.766.766v6.048h-2.3a.766.766,0,1,0,0,1.531h2.3V32.314ZM37.13,3.3V30.323a.767.767,0,0,1-.766.766H15.386a.767.767,0,0,1-.766-.766V13.173h0v-3.9h5.9a.723.723,0,0,0,.766-.766V2.531H36.288A.787.787,0,0,1,37.13,3.3Zm-17.3.306V7.661H15.769ZM7.194,13.939h5.9V30.323a2.3,2.3,0,0,0,2.3,2.3H36.364a2.3,2.3,0,0,0,2.3-2.3V13.939h5.9V39.128H7.194Z" transform="translate(-2.6 -1)" fill="#1c54f8" stroke="#fff" stroke-width="0.3"></path></g></g></g></g></svg> 