<?xml version="1.0" encoding="UTF-8"?> <svg xmlns="http://www.w3.org/2000/svg" xmlns:xlink="http://www.w3.org/1999/xlink" width="60" height="60" viewBox="0 0 60 60"><defs><clipPath id="clip-path"><rect id="Rectangle_42" data-name="Rectangle 42" width="60" height="60" transform="translate(662 503)" fill="#fff" stroke="#707070" stroke-width="1"></rect></clipPath></defs><g id="Mask_Group_32" data-name="Mask Group 32" transform="translate(-662 -503)" clip-path="url(#clip-path)"><g id="Group_80" data-name="Group 80" transform="translate(-76.432 67.127)"><g id="Group_79" data-name="Group 79" transform="translate(745.432 442.873)"><path id="Path_142" data-name="Path 142" d="M9.483,40.195H20.37a.808.808,0,1,0,0-1.616H9.483a1.619,1.619,0,0,1-1.616-1.616V9.483A1.619,1.619,0,0,1,9.483,7.866H48.277a1.619,1.619,0,0,1,1.616,1.616v3.233H38.914a1.936,1.936,0,0,1-1.38-.572A3.55,3.55,0,0,0,35.012,11.1H11.1a.808.808,0,0,0,0,1.616H35.011a1.936,1.936,0,0,1,1.38.572,3.55,3.55,0,0,0,2.522,1.045h10.98v22.63a1.619,1.619,0,0,1-1.616,1.616h-1.2a.808.808,0,0,0,0,1.616h1.2a3.237,3.237,0,0,0,3.233-3.233l0-27.479A3.237,3.237,0,0,0,48.278,6.25H9.484A3.237,3.237,0,0,0,6.251,9.483V36.962a3.237,3.237,0,0,0,3.233,3.233Z" transform="translate(-6.251 -6.25)" fill="#1c54f8" stroke="#fff" stroke-width="0.4"></path><path id="Path_143" data-name="Path 143" d="M72.71,13.318a.808.808,0,0,0-1.616,0A.808.808,0,0,0,72.71,13.318Z" transform="translate(-37.554 -9.277)" fill="#1c54f8" stroke="#fff" stroke-width="0.4"></path><path id="Path_144" data-name="Path 144" d="M78.96,13.318a.808.808,0,0,0-1.616,0A.808.808,0,0,0,78.96,13.318Z" transform="translate(-40.571 -9.277)" fill="#1c54f8" stroke="#fff" stroke-width="0.4"></path><path id="Path_145" data-name="Path 145" d="M85.21,13.318a.808.808,0,0,0-1.616,0A.808.808,0,0,0,85.21,13.318Z" transform="translate(-43.588 -9.277)" fill="#1c54f8" stroke="#fff" stroke-width="0.4"></path><path id="Path_146" data-name="Path 146" d="M48.526,63.2a10.519,10.519,0,0,0,6.563-1.517L60.8,67.4a2.426,2.426,0,0,0,3.427-3.435l-5.71-5.708a10.488,10.488,0,0,0-.459-11.7l3.172-3.17v1.479a.808.808,0,0,0,1.616,0V41.434a.816.816,0,0,0-.808-.808H58.609a.808.808,0,0,0,0,1.616h1.479l-9.935,9.933-2.287-2.287a.81.81,0,0,0-1.144,0l-3.281,3.281a.809.809,0,0,0,1.144,1.144l2.71-2.71,2.287,2.287a.809.809,0,0,0,1.146,0L56.9,47.718a8.85,8.85,0,0,1-.077,10.18.807.807,0,0,0,.087,1.039l6.177,6.175a.8.8,0,0,1,.232.568.813.813,0,0,1-1.378.576l-6.177-6.183a.807.807,0,0,0-1.043-.085,8.884,8.884,0,1,1-4-16.053,8.69,8.69,0,0,1,2.693.792.808.808,0,1,0,.7-1.457A10.525,10.525,0,0,0,42.154,45.32a10.534,10.534,0,0,0,6.373,17.886Z" transform="translate(-22.1 -22.845)" fill="#1c54f8" stroke="#fff" stroke-width="0.4"></path><path id="Path_147" data-name="Path 147" d="M27.639,34.313a7.268,7.268,0,1,0-12.566.091,7.3,7.3,0,0,0,12.566-.091Zm-.653-3.6a5.612,5.612,0,0,1-.408,2.1l-4.441-2.564V25.118a5.662,5.662,0,0,1,4.849,5.593ZM20.52,25.118v5.126l-4.441,2.564a5.682,5.682,0,0,1,4.441-7.69Zm.808,11.25a5.64,5.64,0,0,1-4.439-2.162l4.439-2.562,4.439,2.562A5.646,5.646,0,0,1,21.329,36.368Z" transform="translate(-10.014 -14.546)" fill="#1c54f8" stroke="#fff" stroke-width="0.4"></path></g></g></g></svg> 