<?xml version="1.0" encoding="UTF-8"?> <svg xmlns="http://www.w3.org/2000/svg" xmlns:xlink="http://www.w3.org/1999/xlink" width="60" height="60" viewBox="0 0 60 60"><defs><clipPath id="clip-path"><rect id="Rectangle_30" data-name="Rectangle 30" width="60" height="60" transform="translate(50 197)" fill="#fff" stroke="#707070" stroke-width="1"></rect></clipPath></defs><g id="Mask_Group_23" data-name="Mask Group 23" transform="translate(-50 -197)" clip-path="url(#clip-path)"><g id="Group_60" data-name="Group 60" transform="translate(137 28)"><g id="Group_59" data-name="Group 59" transform="translate(-82 174)"><g id="Group_58" data-name="Group 58"><path id="Path_111" data-name="Path 111" d="M47.467,20.72l-3.1-.387A19.883,19.883,0,0,0,41.748,14l1.917-2.464a2.324,2.324,0,0,0-.191-3.066L41.029,6.027a2.374,2.374,0,0,0-3.065-.191L35.5,7.752a19.879,19.879,0,0,0-6.332-2.621l-.387-3.1A2.326,2.326,0,0,0,26.478,0H23.021a2.324,2.324,0,0,0-2.3,2.033l-.387,3.1A19.876,19.876,0,0,0,14,7.753L11.535,5.836a2.374,2.374,0,0,0-3.065.191L6.025,8.471a2.326,2.326,0,0,0-.191,3.066L7.751,14a19.876,19.876,0,0,0-2.621,6.332l-3.1.387A2.323,2.323,0,0,0,0,23.022v3.456a2.324,2.324,0,0,0,2.033,2.3l3.1.387A19.883,19.883,0,0,0,7.752,35.5L5.836,37.965a2.323,2.323,0,0,0,.191,3.065l2.444,2.444a2.376,2.376,0,0,0,3.065.191L14,41.749a19.879,19.879,0,0,0,6.332,2.621l.387,3.1a2.324,2.324,0,0,0,2.3,2.031h3.456a2.325,2.325,0,0,0,2.3-2.033l.387-3.1A19.861,19.861,0,0,0,35.5,41.747l2.464,1.917a2.33,2.33,0,0,0,1.424.489,2.3,2.3,0,0,0,1.641-.68l2.444-2.444a2.323,2.323,0,0,0,.191-3.065L41.748,35.5a19.876,19.876,0,0,0,2.621-6.332l3.1-.387a2.323,2.323,0,0,0,2.033-2.3V23.021A2.324,2.324,0,0,0,47.467,20.72Zm.486,5.758a.774.774,0,0,1-.678.767l-3.647.456a.773.773,0,0,0-.663.62,18.372,18.372,0,0,1-2.809,6.785.775.775,0,0,0,.031.907l2.256,2.9a.774.774,0,0,1-.064,1.021l-2.445,2.444a.774.774,0,0,1-1.022.064l-2.9-2.255a.771.771,0,0,0-.906-.031,18.385,18.385,0,0,1-6.786,2.809.775.775,0,0,0-.62.663l-.456,3.647a.775.775,0,0,1-.768.678H23.021a.775.775,0,0,1-.767-.678L21.8,43.629a.773.773,0,0,0-.62-.663,18.385,18.385,0,0,1-6.786-2.809.773.773,0,0,0-.907.031l-2.9,2.255a.788.788,0,0,1-1.022-.064L7.12,39.935a.773.773,0,0,1-.063-1.021l2.255-2.9a.775.775,0,0,0,.031-.907,18.372,18.372,0,0,1-2.809-6.785.774.774,0,0,0-.663-.62l-3.647-.456a.775.775,0,0,1-.678-.768V23.021a.774.774,0,0,1,.678-.767L5.871,21.8a.773.773,0,0,0,.663-.62,18.372,18.372,0,0,1,2.809-6.785.775.775,0,0,0-.031-.907l-2.256-2.9A.775.775,0,0,1,7.12,9.564L9.565,7.121a.786.786,0,0,1,1.022-.064l2.9,2.255a.77.77,0,0,0,.906.031,18.385,18.385,0,0,1,6.786-2.809.775.775,0,0,0,.62-.663l.456-3.647a.775.775,0,0,1,.768-.678h3.456a.776.776,0,0,1,.768.678L27.7,5.871a.773.773,0,0,0,.62.663,18.385,18.385,0,0,1,6.786,2.809.77.77,0,0,0,.906-.031l2.9-2.255a.786.786,0,0,1,1.022.064L42.38,9.564a.775.775,0,0,1,.064,1.022l-2.255,2.9a.775.775,0,0,0-.031.907,18.372,18.372,0,0,1,2.809,6.785.774.774,0,0,0,.663.62l3.647.456a.775.775,0,0,1,.678.767v3.456Z" fill="#1c54f8"></path><path id="Path_112" data-name="Path 112" d="M27.469,12A15.469,15.469,0,1,0,42.938,27.469,15.486,15.486,0,0,0,27.469,12Zm0,29.391A13.922,13.922,0,1,1,41.391,27.469,13.938,13.938,0,0,1,27.469,41.391Z" transform="translate(-2.719 -2.719)" fill="#1c54f8"></path><path id="Path_113" data-name="Path 113" d="M32.762,28.9a5.414,5.414,0,1,0-6.056,0A7.744,7.744,0,0,0,22,36.016v.278a.776.776,0,0,0,.237.558,10.785,10.785,0,0,0,14.994,0,.773.773,0,0,0,.237-.558v-.278A7.744,7.744,0,0,0,32.762,28.9Zm-6.9-4.486a3.867,3.867,0,1,1,3.867,3.867A3.872,3.872,0,0,1,25.867,24.414Zm3.867,13.922a9.221,9.221,0,0,1-6.188-2.379,6.188,6.188,0,0,1,12.375,0A9.221,9.221,0,0,1,29.734,38.336Z" transform="translate(-4.984 -4.305)" fill="#1c54f8"></path></g></g></g></g></svg> 