<?xml version="1.0" encoding="UTF-8"?> <svg xmlns="http://www.w3.org/2000/svg" width="91" height="90" viewBox="0 0 91 90" fill="none"><mask id="mask0_2_171" style="mask-type:luminance" maskUnits="userSpaceOnUse" x="0" y="0" width="91" height="90"><path d="M90.29 0H0.290009V90H90.29V0Z" fill="white"></path></mask><g mask="url(#mask0_2_171)"><path d="M88.27 59.09L84.99 57.78C84.53 56.19 83.9 54.65 83.09 53.2L84.48 49.95C84.92 48.92 84.74 47.73 84.01 46.88C83.05 45.74 82 44.69 80.86 43.73C80.01 43.04 78.85 42.88 77.84 43.31L74.59 44.7C73.14 43.89 71.61 43.26 70.01 42.8L68.83 39.85C71.78 21.02 58.9 3.37 40.07 0.420002C21.24 -2.53 3.58997 10.35 0.639973 29.18C-2.31003 48.01 10.57 65.66 29.4 68.61C32.94 69.16 36.54 69.16 40.08 68.61L43.03 69.79C43.49 71.38 44.12 72.92 44.93 74.37L43.54 77.62C43.1 78.65 43.28 79.84 44.01 80.69C44.97 81.83 46.02 82.88 47.16 83.84C48.01 84.53 49.17 84.69 50.18 84.26L53.43 82.87C54.88 83.68 56.41 84.31 58.01 84.77L59.32 88.05C59.72 89.08 60.66 89.79 61.76 89.9C62.54 89.97 63.32 90 64.07 90C64.82 90 65.56 89.97 66.3 89.89C67.38 89.77 68.3 89.06 68.7 88.05L70.01 84.77C71.6 84.31 73.14 83.67 74.59 82.87L77.84 84.26C78.87 84.7 80.06 84.52 80.92 83.79C82.06 82.83 83.11 81.78 84.07 80.64C84.77 79.79 84.93 78.63 84.49 77.62L83.1 74.37C83.9 72.92 84.54 71.39 85 69.79L88.28 68.48C89.3 68.08 89.9999 67.15 90.1199 66.07C90.27 64.55 90.27 63.02 90.1199 61.5C89.9999 60.43 89.29 59.49 88.27 59.09ZM3.35997 34.59C3.35997 17.22 17.44 3.14 34.81 3.14C52.18 3.14 66.26 17.22 66.26 34.59C66.26 35.64 66.19 36.66 66.1 37.68C65.1 37.6 64.09 37.58 63.09 37.62C63.21 36.61 63.27 35.6 63.27 34.58C63.27 18.86 50.53 6.12 34.81 6.12C19.09 6.12 6.34999 18.86 6.34999 34.58C6.34999 50.3 19.09 63.04 34.81 63.04C35.83 63.03 36.84 62.97 37.85 62.86C37.8 63.87 37.82 64.87 37.91 65.87C36.89 65.97 35.86 66.03 34.81 66.03C17.44 66.02 3.36997 51.95 3.35997 34.59ZM43.54 49.95L44.93 53.2C44.13 54.65 43.49 56.18 43.03 57.78L39.75 59.09C39.42 59.24 39.11 59.44 38.85 59.7C38.01 59.83 37.16 59.93 36.3 59.98V57.05C36.3 56.22 35.63 55.55 34.8 55.55C33.97 55.55 33.3 56.22 33.3 57.05V59.97C27.6 59.64 22.17 57.39 17.91 53.59L19.97 51.53C20.53 50.92 20.49 49.97 19.88 49.41C19.31 48.88 18.42 48.88 17.85 49.41L15.79 51.47C11.99 47.21 9.73999 41.78 9.40999 36.08H12.33C13.16 36.08 13.83 35.41 13.83 34.58C13.83 33.75 13.16 33.08 12.33 33.08H9.40999C9.73999 27.38 11.99 21.95 15.79 17.69L17.85 19.75C18.46 20.31 19.41 20.27 19.97 19.66C20.5 19.09 20.5 18.2 19.97 17.63L17.91 15.57C22.17 11.77 27.6 9.52 33.3 9.19V12.11C33.3 12.94 33.97 13.61 34.8 13.61C35.63 13.61 36.3 12.94 36.3 12.11V9.19C42 9.52 47.43 11.77 51.69 15.57L49.63 17.63C49.02 18.19 48.98 19.14 49.54 19.75C50.1 20.36 51.05 20.4 51.66 19.84C51.69 19.81 51.72 19.78 51.75 19.75L53.81 17.69C57.61 21.95 59.86 27.38 60.19 33.08H57.27C56.44 33.08 55.77 33.75 55.77 34.58C55.77 35.41 56.44 36.08 57.27 36.08H60.2C60.15 36.93 60.06 37.77 59.93 38.61C59.67 38.87 59.46 39.19 59.32 39.53L58.01 42.81C56.42 43.27 54.88 43.91 53.43 44.71L50.18 43.32C49.15 42.88 47.96 43.06 47.1 43.78C45.96 44.74 44.91 45.79 43.95 46.93C43.27 47.79 43.11 48.95 43.54 49.95ZM87.16 65.71L83.19 67.3C82.74 67.48 82.41 67.86 82.29 68.33C81.84 70.15 81.12 71.9 80.15 73.51C79.9 73.92 79.87 74.43 80.05 74.87L81.76 78.75C80.92 79.74 80.01 80.67 79.03 81.52L75.09 79.84C74.65 79.65 74.14 79.69 73.73 79.94C72.12 80.91 70.38 81.63 68.56 82.08C68.09 82.2 67.71 82.53 67.53 82.98L66.02 86.93C64.72 87.05 63.41 87.06 62.11 86.96L60.52 82.98C60.34 82.53 59.96 82.2 59.49 82.08C57.67 81.63 55.92 80.9 54.32 79.93C53.91 79.68 53.4 79.65 52.96 79.83L49.09 81.54C48.1 80.7 47.17 79.79 46.32 78.81L48.01 74.88C48.2 74.44 48.16 73.93 47.91 73.52C46.94 71.91 46.21 70.17 45.76 68.34C45.64 67.87 45.31 67.49 44.86 67.31L40.91 65.73C40.79 64.45 40.78 63.17 40.89 61.89L44.86 60.3C45.31 60.12 45.64 59.74 45.76 59.27C46.21 57.45 46.93 55.7 47.9 54.09C48.15 53.68 48.18 53.17 48 52.73L46.29 48.85C47.13 47.86 48.04 46.93 49.02 46.08L52.96 47.76C53.4 47.95 53.91 47.91 54.32 47.66C55.93 46.69 57.67 45.97 59.49 45.52C59.96 45.4 60.34 45.07 60.52 44.62L62.03 40.68C63.33 40.56 64.64 40.55 65.94 40.65L67.53 44.63C67.71 45.08 68.09 45.41 68.56 45.53C70.38 45.98 72.13 46.71 73.73 47.68C74.14 47.93 74.65 47.96 75.09 47.78L78.96 46.07C79.95 46.91 80.88 47.82 81.73 48.8L80.04 52.73C79.85 53.17 79.89 53.68 80.14 54.09C81.11 55.7 81.84 57.44 82.29 59.27C82.41 59.74 82.74 60.12 83.19 60.3L87.13 61.82C87.25 63.1 87.26 64.41 87.16 65.71Z" fill="#1B54F8" stroke="white" stroke-width="0.25" stroke-miterlimit="10"></path><path d="M64.01 48.07C55.32 48.07 48.28 55.11 48.28 63.8C48.28 72.49 55.32 79.53 64.01 79.53C72.7 79.53 79.74 72.49 79.74 63.8C79.73 55.11 72.69 48.08 64.01 48.07ZM64.01 76.52C56.98 76.52 51.28 70.82 51.28 63.79C51.28 56.76 56.98 51.06 64.01 51.06C71.04 51.06 76.74 56.76 76.74 63.79C76.73 70.82 71.04 76.51 64.01 76.52Z" fill="#1B54F8" stroke="white" stroke-width="0.25" stroke-miterlimit="10"></path><path d="M64.01 54.06C58.63 54.06 54.28 58.42 54.28 63.79C54.28 69.17 58.64 73.52 64.01 73.52C69.39 73.52 73.74 69.16 73.74 63.79C73.74 58.42 69.39 54.06 64.01 54.06ZM64.01 70.53C60.29 70.53 57.27 67.51 57.27 63.79C57.27 60.07 60.29 57.05 64.01 57.05C67.73 57.05 70.75 60.07 70.75 63.79C70.75 67.51 67.73 70.53 64.01 70.53Z" fill="#1B54F8" stroke="white" stroke-width="0.25" stroke-miterlimit="10"></path><path d="M45.21 38.05C45.47 37.27 45.05 36.42 44.26 36.16L36.3 33.5V18.11C36.3 17.28 35.63 16.61 34.8 16.61C33.97 16.61 33.3 17.28 33.3 18.11V34.58C33.3 35.22 33.71 35.8 34.32 36L43.31 39C44.1 39.26 44.95 38.84 45.21 38.05Z" fill="#1B54F8" stroke="white" stroke-width="0.25" stroke-miterlimit="10"></path></g></svg> 