<?xml version="1.0" encoding="UTF-8"?> <svg xmlns="http://www.w3.org/2000/svg" xmlns:xlink="http://www.w3.org/1999/xlink" width="60" height="60" viewBox="0 0 60 60"><defs><clipPath id="clip-path"><rect id="Rectangle_810" data-name="Rectangle 810" width="60" height="60" transform="translate(65 63)" fill="#fff" stroke="#707070" stroke-width="1"></rect></clipPath></defs><g id="Mask_Group_47" data-name="Mask Group 47" transform="translate(-65 -63)" clip-path="url(#clip-path)"><g id="Group_28" data-name="Group 28" transform="translate(593.256 88.619)"><path id="Path_1" data-name="Path 1" d="M98.616,33.637a3.221,3.221,0,1,1-.943-2.275,3.216,3.216,0,0,1,.943,2.275Zm-8.493,0a5.281,5.281,0,1,0,1.547-3.729,5.276,5.276,0,0,0-1.547,3.729ZM86.8,10.9h16.239V21.6H101.55a1.03,1.03,0,0,0-1.03,1.03v2.809l-4.712-3.625a1.024,1.024,0,0,0-.627-.213H86.8V10.906Zm-1.03,12.751a1.03,1.03,0,0,1-1.03-1.031V9.878a1.03,1.03,0,0,1,1.03-1.03h18.3a1.03,1.03,0,0,1,1.03,1.03V22.627a1.03,1.03,0,0,1-1.03,1.03h-1.492v3.87a1.031,1.031,0,0,1-1.656.815l-6.09-4.686Zm31.854,16.237a3.223,3.223,0,1,1,.944,2.274,3.219,3.219,0,0,1-.944-2.274Zm8.494,0a5.282,5.282,0,1,0-1.548,3.729A5.276,5.276,0,0,0,126.12,39.892Zm3.321,19.568H112.248V57.126a8.567,8.567,0,0,1,.382-2.538c.009-.024.017-.048.024-.074h0a8.6,8.6,0,0,1,16.786,2.612v2.335Zm-48.555-4.2h29.469a10.568,10.568,0,0,0-.164,1.862v2.335H80.886ZM86.8,50.87a8.6,8.6,0,1,1,17.194,0V53.2H86.8Zm34.043-4.4a10.674,10.674,0,0,0-9.9,6.734h-4.887V50.87a10.654,10.654,0,0,0-21.309,0V53.2H79.858a1.031,1.031,0,0,0-1.03,1.031v6.253a1.03,1.03,0,0,0,1.03,1.03h50.608a1.03,1.03,0,0,0,1.03-1.03V57.126a10.666,10.666,0,0,0-10.655-10.654Zm8.6-18.615h-8.38a1.032,1.032,0,0,0-.63.213l-4.71,3.623V28.882a1.03,1.03,0,0,0-1.03-1.03H113.2V17.159h16.24Zm1.03-12.751h0a1.03,1.03,0,0,1,1.03,1.03V28.882a1.03,1.03,0,0,1-1.03,1.03h-9.06l-6.09,4.684a1.031,1.031,0,0,1-1.657-.815v-3.87h-1.493a1.031,1.031,0,0,1-1.03-1.031V16.132a1.031,1.031,0,0,1,1.03-1.031Z" transform="translate(-603.084 -30.467)" fill="#1b54f8" stroke="#fff" stroke-width="1" fill-rule="evenodd"></path></g></g></svg> 