<?xml version="1.0" encoding="UTF-8"?> <svg xmlns="http://www.w3.org/2000/svg" width="90" height="90" viewBox="0 0 90 90" fill="none"><mask id="mask0_2_148" style="mask-type:luminance" maskUnits="userSpaceOnUse" x="0" y="0" width="90" height="90"><path d="M90 0H0V90H90V0Z" fill="white"></path></mask><g mask="url(#mask0_2_148)"><path d="M59.75 24.85C58.37 24.11 59.5 22.06 60.86 22.77C70.54 27.95 77.24 37.61 78.54 48.62C78.71 50.17 76.39 50.44 76.19 48.91C74.98 38.64 68.75 29.68 59.75 24.85ZM64.48 77.43C64.98 77.02 65.74 77.12 66.13 77.62C66.54 78.12 66.44 78.86 65.96 79.27C53.6 89.09 36.1 89.09 23.75 79.27C23.25 78.86 23.15 78.13 23.56 77.62C23.97 77.11 24.7 77.02 25.21 77.43C36.7 86.55 53 86.55 64.48 77.43ZM13.49 48.91C13.32 50.44 10.97 50.17 11.14 48.62C12.46 37.6 19.15 27.95 28.82 22.77C30.18 22.03 31.3 24.11 29.93 24.85C20.94 29.68 14.73 38.64 13.49 48.91ZM77.93 59.43L79.6 62.71L83.25 63.29C84.22 63.45 84.57 64.63 83.91 65.29L81.29 67.91L81.87 71.56C82.01 72.51 81.02 73.21 80.16 72.78L76.88 71.11L73.6 72.78C72.77 73.21 71.72 72.53 71.91 71.46L72.47 67.89L69.85 65.27C69.17 64.59 69.54 63.41 70.53 63.27L74.14 62.69L75.81 59.41C76.26 58.57 77.49 58.59 77.93 59.43ZM77.78 64.33L76.89 62.56L76 64.33C75.84 64.66 75.51 64.89 75.15 64.95L73.19 65.26C75.31 67.38 75.07 66.68 74.61 69.63C77.27 68.29 76.55 68.27 79.21 69.63C78.74 66.7 78.51 67.38 80.63 65.26L78.75 64.97C78.34 64.94 77.97 64.7 77.78 64.33ZM76.88 52.42C84.31 52.42 90.33 58.44 90.33 65.87C90.33 73.3 84.31 79.32 76.88 79.32C69.45 79.32 63.43 73.3 63.43 65.87C63.44 58.44 69.45 52.42 76.88 52.42ZM84.7 58.01C80.37 53.68 73.37 53.68 69.04 58.01C64.71 62.34 64.71 69.34 69.04 73.67C73.37 78 80.37 78 84.7 73.67C89.03 69.36 89.03 62.34 84.7 58.01ZM13.88 59.43L15.55 62.71L19.2 63.29C20.17 63.45 20.5 64.63 19.84 65.29L17.22 67.91L17.8 71.56C17.96 72.51 16.95 73.21 16.09 72.78L12.81 71.11L9.53 72.8C8.7 73.23 7.65 72.55 7.84 71.48L8.39999 67.91L5.78 65.29C5.1 64.61 5.46999 63.43 6.45999 63.29L10.07 62.71L11.76 59.43C12.21 58.57 13.43 58.59 13.88 59.43ZM13.72 64.33L12.83 62.56L11.94 64.33C11.77 64.66 11.45 64.89 11.09 64.95L9.13 65.26C11.25 67.38 11.01 66.68 10.55 69.63C13.21 68.29 12.47 68.27 15.15 69.63C14.68 66.7 14.45 67.38 16.57 65.26L14.69 64.97C14.28 64.94 13.91 64.7 13.72 64.33ZM12.81 52.42C20.24 52.42 26.26 58.44 26.26 65.87C26.26 73.3 20.24 79.32 12.81 79.32C5.38 79.32 -0.640015 73.3 -0.640015 65.87C-0.640015 58.44 5.4 52.42 12.81 52.42ZM20.65 58.01C16.32 53.68 9.31999 53.68 4.98999 58.01C0.65999 62.34 0.65999 69.34 4.98999 73.67C9.31999 78 16.32 78 20.65 73.67C24.97 69.36 24.97 62.34 20.65 58.01ZM44.85 33.03C52.92 33.03 56.34 43.39 49.82 48.19H52.07C56.07 48.19 59.33 51.45 59.33 55.45V67.62C59.33 68.28 58.81 68.8 58.15 68.8H31.56C30.9 68.8 30.38 68.28 30.38 67.62V55.45C30.38 51.45 33.64 48.19 37.64 48.19H39.89C35.76 45.14 35.27 39.13 38.92 35.48C40.42 33.97 42.54 33.03 44.85 33.03ZM49.11 37.15C45.33 33.37 38.81 36.06 38.81 41.42C38.81 46.78 45.33 49.49 49.11 45.69C51.48 43.34 51.48 39.52 49.11 37.15ZM52.06 50.56H37.62C34.94 50.56 32.73 52.77 32.73 55.47V66.45H56.97V55.47C56.97 52.77 54.76 50.56 52.06 50.56ZM45.89 10.08L47.56 13.36L51.21 13.94C52.18 14.1 52.53 15.26 51.87 15.94L49.25 18.56L49.83 22.21C49.99 23.16 48.98 23.86 48.12 23.43L44.84 21.76L41.56 23.43C40.73 23.86 39.68 23.18 39.87 22.11L40.43 18.54L37.81 15.92C37.13 15.24 37.5 14.06 38.49 13.92L42.1 13.34L43.77 10.06C44.24 9.22001 45.47 9.24001 45.89 10.08ZM45.74 14.99L44.85 13.22L43.96 14.99C43.79 15.32 43.47 15.55 43.09 15.61L41.15 15.92C43.25 18.04 43.03 17.34 42.57 20.29C45.23 18.95 44.51 18.93 47.17 20.29C46.7 17.36 46.47 18.04 48.59 15.9L46.71 15.61C46.3 15.59 45.93 15.36 45.74 14.99ZM44.85 3.07001C52.28 3.07001 58.3 9.09001 58.3 16.52C58.3 23.95 52.28 29.97 44.85 29.97C37.42 29.97 31.4 23.95 31.4 16.52C31.4 9.09001 37.41 3.07001 44.85 3.07001ZM52.69 8.68001C48.36 4.35001 41.36 4.35001 37.03 8.68001C32.7 13.01 32.7 20.01 37.03 24.34C41.36 28.67 48.36 28.67 52.69 24.34C57.01 20.01 57.01 13.01 52.69 8.68001Z" fill="#1B54F8"></path></g></svg> 