<?xml version="1.0" encoding="UTF-8"?> <svg xmlns="http://www.w3.org/2000/svg" width="90" height="90" viewBox="0 0 90 90" fill="none"><path d="M76.859 56.25C73.7659 56.25 71.2352 53.7188 71.2352 50.625C71.2352 47.5312 73.7659 45 76.859 45C79.9521 45 82.4828 47.5312 82.4828 50.625C82.4828 53.7188 79.9521 56.25 76.859 56.25ZM76.859 48.75C75.828 48.75 74.9844 49.5938 74.9844 50.625C74.9844 51.6562 75.828 52.5 76.859 52.5C77.89 52.5 78.7336 51.6562 78.7336 50.625C78.7336 49.5938 77.89 48.75 76.859 48.75Z" fill="#1B54F8"></path><path d="M14.9969 56.25C11.9038 56.25 9.37305 53.7188 9.37305 50.625C9.37305 47.5312 11.9038 45 14.9969 45C18.09 45 20.6207 47.5312 20.6207 50.625C20.6207 53.7188 18.09 56.25 14.9969 56.25ZM14.9969 48.75C13.9658 48.75 13.1223 49.5938 13.1223 50.625C13.1223 51.6562 13.9658 52.5 14.9969 52.5C16.0279 52.5 16.8715 51.6562 16.8715 50.625C16.8715 49.5938 16.0279 48.75 14.9969 48.75Z" fill="#1B54F8"></path><path d="M67.5234 35.625H22.4578C19.3835 35.625 16.5153 34.3875 14.7719 32.3062C13.4222 30.6937 12.8786 28.725 13.2347 26.7563L15.5593 14.0437C16.2529 10.2562 20.1333 7.5 24.7823 7.5H65.2177C69.8667 7.5 73.7471 10.2562 74.4407 14.0437L76.7653 26.7563C77.1214 28.725 76.5778 30.6937 75.2281 32.3062C73.4847 34.3875 70.6165 35.625 67.5422 35.625H67.5234ZM24.7636 11.25C21.9704 11.25 19.5897 12.75 19.2335 14.7188L16.909 27.4312C16.7028 28.5187 17.1902 29.3813 17.6401 29.9062C18.6711 31.1437 20.4707 31.875 22.4391 31.875H67.5234C69.5105 31.875 71.2914 31.1437 72.3224 29.9062C72.7723 29.3813 73.241 28.5187 73.0535 27.4312L70.729 14.7188C70.3728 12.7312 67.9921 11.25 65.1989 11.25H24.7636Z" fill="#1B54F8"></path><path d="M63.7367 63.2812H59.9875V54.375H29.9938V63.2812H26.2445V50.625H63.7367V63.2812Z" fill="#1B54F8"></path><path d="M7.34846 38.55L4.12413 36.6188L5.73629 37.575L3.95541 37.0125C4.2741 35.7938 6.86106 19.65 8.41698 9.76875C9.0731 4.2375 13.8533 0 19.4959 0H70.5041C76.1466 0 80.9081 4.21875 81.583 9.825L84.976 37.2563L81.2643 37.725L77.8713 10.275C77.4214 6.54375 74.2533 3.73125 70.5041 3.73125H19.4959C15.7467 3.73125 12.5786 6.54375 12.1287 10.2562C7.81711 37.7437 7.59216 38.1188 7.34846 38.5125V38.55Z" fill="#1B54F8"></path><path d="M89.9813 75H0V45.5625C0 44.6062 0.243699 43.6687 0.693605 42.8438L4.08665 36.675L7.36721 38.475L3.97417 44.6437C3.8242 44.925 3.74922 45.2437 3.74922 45.5625V71.25H86.232V45.5625C86.232 45.2812 86.1758 45 86.0446 44.7375L81.2081 37.8937C81.1331 37.7625 81.0581 37.6125 81.0019 37.5H80.9644V37.425C80.9644 37.425 80.9269 37.3687 80.9081 37.35C80.9081 37.35 80.9456 37.3875 80.9644 37.4063V33.75C83.2889 33.75 84.0013 35.1375 84.5449 36.1688L84.7324 36.5062L89.3064 42.8625C89.7563 43.6875 90 44.625 90 45.5812V75.0187L89.9813 75Z" fill="#1B54F8"></path><path d="M88.1066 61.875H1.8746V65.6242H88.1066V61.875Z" fill="#1B54F8"></path><path d="M19.4772 90H14.172C11.4726 90 9.2793 87.8063 9.2793 85.1063V71.475H24.3699V85.1063C24.3699 87.8063 22.1766 90 19.4772 90ZM13.0285 75.225V85.1063C13.0285 85.7438 13.5347 86.25 14.172 86.25H19.4772C20.1145 86.25 20.6207 85.7438 20.6207 85.1063V75.225H13.0285Z" fill="#1B54F8"></path><path d="M75.4905 90H70.7103C67.8609 90 65.5551 87.675 65.5551 84.8438V71.475H80.6457V84.8438C80.6457 87.6938 78.3212 90 75.4905 90ZM69.3043 75.225V84.8438C69.3043 85.6313 69.9417 86.25 70.7103 86.25H75.4905C76.2779 86.25 76.8965 85.6125 76.8965 84.8438V75.225H69.3043Z" fill="#1B54F8"></path></svg> 