<?xml version="1.0" encoding="UTF-8"?> <svg xmlns="http://www.w3.org/2000/svg" width="92" height="92" viewBox="0 0 92 92" fill="none"><path d="M47.3776 1C46.9184 1 46.6123 1.15278 46.3061 1.45839L38.9592 8.64007C38.3469 9.25128 38.3469 10.168 38.9592 10.7792L39.2653 11.0849L21.8163 28.5043L21.5102 28.1986C20.898 27.5874 19.9796 27.5874 19.3673 28.1986L12.0204 35.5331C11.4082 36.1443 11.4082 37.0611 12.0204 37.6723L32.5306 58.1477C33.1429 58.7589 34.0612 58.7589 34.6735 58.1477L42.0204 50.8132C42.6327 50.202 42.6327 49.2853 42.0204 48.6741L41.7143 48.3685L45.5408 44.5484L80.7449 79.6927C81.3572 80.304 82.2755 80.304 82.8878 79.6927L90.5408 72.0527C91.1531 71.4415 91.1531 70.5246 90.5408 69.9134L55.3367 34.7691L59.1633 30.949L59.4694 31.2547C60.0816 31.8659 61 31.8659 61.6123 31.2547L68.9592 24.073C69.5714 23.4618 69.5714 22.545 68.9592 21.9338L48.449 1.45839C48.2959 1.15278 47.8367 1 47.3776 1ZM47.5306 4.82004L65.898 23.1562L60.8469 28.1986L60.6939 28.0459C60.6939 28.0459 60.6939 28.0458 60.5408 27.893L51.6633 19.0306L42.4796 9.86247L47.5306 4.82004ZM41.5612 13.5297L57.0204 28.9626L52.1224 33.8523L44.4694 41.4924L39.7245 46.2292L24.2653 30.7963L41.5612 13.5297ZM20.5918 31.5603L38.9592 49.8965L33.9082 54.9389L15.5408 36.6027L20.5918 31.5603ZM53.3469 37.0611L87.3265 70.983L81.9694 76.3311L47.9898 42.4092L49.3674 41.034L53.3469 37.0611ZM6.81633 69.6078C5.89796 69.6078 5.28571 70.3718 5.28571 71.1358V78.7759H2.53061C1.61224 78.7759 1 79.5399 1 80.3039V89.472C1 90.3888 1.76531 91 2.53061 91H44.7755C45.6939 91 46.3061 90.236 46.3061 89.472V80.3039C46.3061 79.3871 45.5408 78.7759 44.7755 78.7759H42.0204V71.1358C42.0204 70.219 41.2551 69.6078 40.4898 69.6078H6.81633ZM8.5 72.6638H38.9592V78.7759H8.5V72.6638ZM4.21428 81.8319H6.81633H40.4898H43.2449V87.944H4.21428V81.8319Z" fill="#1B54F8" stroke="white" stroke-width="0.3944" stroke-miterlimit="10"></path></svg> 