<?xml version="1.0" encoding="UTF-8"?> <svg xmlns="http://www.w3.org/2000/svg" width="90" height="90" viewBox="0 0 90 90" fill="none"><mask id="mask0_1_61" style="mask-type:alpha" maskUnits="userSpaceOnUse" x="0" y="0" width="90" height="90"><rect width="90" height="90" fill="#D9D9D9"></rect></mask><g mask="url(#mask0_1_61)"><mask id="mask1_1_61" style="mask-type:alpha" maskUnits="userSpaceOnUse" x="14" y="-1" width="62" height="92"><path d="M65.5525 90C70.515 90 74.5525 85.9625 74.5525 81V9C74.5525 4.03748 70.515 0 65.5525 0H24C19.0375 0 15 4.03748 15 9V81C15 85.9625 19.0375 90 24 90H65.5525ZM24 2.25H65.5525C69.2747 2.25 72.3025 5.27783 72.3025 9V66.5684H17.25V9C17.25 5.27783 20.2778 2.25 24 2.25ZM17.25 81V68.8184H72.3025V81C72.3025 84.7222 69.2747 87.75 65.5525 87.75H24C20.2778 87.75 17.25 84.7222 17.25 81Z" fill="#1B54F8" stroke="#1B54F8"></path><path d="M44.7762 84.6617C48.3875 84.6617 51.3263 81.7234 51.3263 78.1122C51.3263 74.501 48.3875 71.5627 44.7762 71.5627C41.165 71.5627 38.2262 74.501 38.2262 78.1122C38.2262 81.7234 41.165 84.6617 44.7762 84.6617ZM44.7762 73.8127C47.1471 73.8127 49.0763 75.7414 49.0763 78.1122C49.0763 80.4831 47.1471 82.4117 44.7762 82.4117C42.4054 82.4117 40.4762 80.4831 40.4762 78.1122C40.4762 75.7414 42.4054 73.8127 44.7762 73.8127Z" fill="#1B54F8" stroke="#1B54F8"></path><path d="M41.0354 9.5246H48.5171C49.1389 9.5246 49.6421 9.02087 49.6421 8.3996C49.6421 7.77832 49.1389 7.2746 48.5171 7.2746H41.0354C40.4136 7.2746 39.9104 7.77832 39.9104 8.3996C39.9104 9.02087 40.4136 9.5246 41.0354 9.5246Z" fill="#1B54F8" stroke="#1B54F8"></path><path d="M24.6229 15.6297C26.2401 15.6297 27.5958 16.8426 27.7749 18.4504L30.4764 42.6599C30.7431 45.0467 32.2757 46.9937 34.3528 47.9059C33.1216 48.9803 32.3265 50.5418 32.3265 52.3004C32.3265 55.5298 34.9534 58.1572 38.1833 58.1572C41.4133 58.1572 44.0402 55.5298 44.0402 52.3004C44.0402 50.8309 43.4775 49.5022 42.5804 48.4728H52.3071C51.4099 49.5022 50.8473 50.8309 50.8473 52.3004C50.8473 55.5298 53.4741 58.1572 56.7041 58.1572C59.9341 58.1572 62.5609 55.5298 62.5609 52.3004C62.5609 50.8309 61.9983 49.5022 61.1011 48.4728H62.3467C62.9685 48.4728 63.4717 47.9691 63.4717 47.3478C63.4717 46.7265 62.9685 46.2228 62.3467 46.2228H36.9738C34.7917 46.2228 32.963 44.5895 32.7157 42.4226H63.2003C63.7826 42.4226 64.2682 41.9782 64.3209 41.3981L66.0502 22.1391C66.0787 21.8243 65.9733 21.5123 65.7601 21.2794C65.547 21.0465 65.246 20.9136 64.9296 20.9136H30.3144L30.0117 18.201C29.7041 15.4523 27.3882 13.3797 24.6229 13.3797C24.0011 13.3797 23.4979 13.8834 23.4979 14.5047C23.4979 15.126 24.0011 15.6297 24.6229 15.6297ZM56.7041 55.9072C54.7156 55.9072 53.0973 54.2889 53.0973 52.3004C53.0973 50.3119 54.7156 48.6936 56.7041 48.6936C58.6926 48.6936 60.3109 50.3119 60.3109 52.3004C60.3109 54.2889 58.6926 55.9072 56.7041 55.9072ZM38.1833 55.9072C36.1948 55.9072 34.5765 54.2889 34.5765 52.3004C34.5765 50.3119 36.1948 48.6936 38.1833 48.6936C40.1719 48.6936 41.7902 50.3119 41.7902 52.3004C41.7902 54.2889 40.1719 55.9072 38.1833 55.9072ZM52.1393 32.7931V40.1726H42.5372V32.7931H52.1393ZM42.5372 30.5431V23.1636H52.1393V30.5431H42.5372ZM40.2872 40.1726H32.4635L31.64 32.7931H40.2872V40.1726ZM54.3893 40.1726V32.7931H62.8345L62.172 40.1726H54.3893ZM63.0366 30.5431H54.3893V23.1636H63.6991L63.0366 30.5431ZM40.2872 23.1636V30.5431H31.389L30.5655 23.1636H40.2872Z" fill="#1B54F8" stroke="#1B54F8"></path></mask><g mask="url(#mask1_1_61)"><rect width="90" height="90" fill="#1B54F8" stroke="#1B54F8"></rect></g></g></svg> 