<?xml version="1.0" encoding="UTF-8"?> <svg xmlns="http://www.w3.org/2000/svg" width="90" height="90" viewBox="0 0 90 90" fill="none"><mask id="mask0_1_32" style="mask-type:luminance" maskUnits="userSpaceOnUse" x="0" y="0" width="90" height="90"><path d="M90 0H0V90H90V0Z" fill="white"></path></mask><g mask="url(#mask0_1_32)"><path d="M88.65 37.2C87.45 35.7 85.95 34.8 84.15 34.8C81.45 34.8 78.9 35.55 76.5 37.05V26.1C76.5 21.75 73.3499 18.3 69.2999 18.3H55.7999V14.25C55.7999 10.95 53.2499 8.09999 50.0999 8.09999H41.5499C38.3999 8.09999 35.8499 10.8 35.8499 14.25V18.15H22.5C18.6 18.15 15.2999 21.6 15.2999 25.95V54.9C15.2999 59.25 18.45 62.7 22.5 62.7H48L52.2 66.6C52.35 66.75 52.65 67.05 52.65 67.35L55.0499 72.9C55.7999 74.7 57.45 75.9 59.25 75.9C60.3 75.9 61.1999 75.45 62.0999 74.85L62.5499 74.4C64.6499 72.6 65.55 69.75 64.95 66.9L64.65 65.85L67.7999 63.45L71.4 70.05C72.3 71.55 73.8 72.6 75.45 72.6C76.8 72.6 78.15 71.85 79.2 70.8C80.85 68.55 81.4499 65.85 80.8499 63L79.2 55.05L83.7 51.6C86.55 49.35 88.6499 46.2 89.5499 42.6C89.9999 40.65 89.7 38.7 88.65 37.2ZM69.2999 22.5C71.0999 22.5 72.5999 24 72.5999 26.1V40.35L70.2 42.45L63.5999 38.7V22.65H69.2999V22.5ZM39.9 14.25C39.9 13.2 40.65 12.3 41.7 12.3H50.25C51.15 12.3 52.0499 13.05 52.0499 14.25V18.15H39.9V14.25ZM28.2 58.5H22.5C20.7 58.5 19.2 57 19.2 54.9V25.95C19.2 24 20.55 22.35 22.5 22.35H28.2V58.5ZM32.0999 22.5H59.5499V37.5H59.4C58.2 37.5 57 37.8 55.95 38.25C54.6 39 53.55 40.35 53.25 41.85C52.95 43.5 53.4 45.15 54.45 46.5L59.4 51.9L56.4 54.6L55.5 54.15C54.45 53.55 53.4 53.25 52.2 53.25C50.85 53.25 49.3499 53.7 48.2999 54.75L47.8499 54.9C46.7999 55.8 46.1999 57.15 46.0499 58.5H31.7999V22.5H32.0999ZM85.7999 41.4C85.1999 44.1 83.7 46.5 81.45 48.15L74.7 53.1L76.95 63.9C77.25 65.4 76.9499 66.9 76.0499 68.1C75.8999 68.25 75.6 68.4 75.45 68.4C75.15 68.4 74.8499 68.25 74.8499 67.95L69.15 57.45L60.2999 64.2L61.2 68.1C61.5 69.15 61.0499 70.35 60.2999 71.1L59.8499 71.55C59.6999 71.7 59.55 71.7 59.4 71.7C59.1 71.7 58.7999 71.55 58.7999 71.25L56.4 65.55C55.95 64.8 55.5 63.9 54.9 63.45L50.5499 59.55C50.0999 59.25 50.0999 58.65 50.5499 58.35L51 57.9C51.45 57.45 52.05 57.3 52.5 57.3C52.95 57.3 53.3999 57.45 53.8499 57.75L57 59.85L65.25 52.35L57.2999 43.65C56.8499 43.2 57 42.6 57.45 42.15C58.05 41.85 58.65 41.7 59.4 41.7C60.15 41.7 60.9 41.85 61.5 42.3L70.5 47.55L76.7999 42C78.7499 40.2 81.2999 39.3 83.8499 39.3C85.1999 39 86.0999 40.2 85.7999 41.4Z" fill="#1B54F8" stroke="white" stroke-width="0.5" stroke-miterlimit="10"></path><path d="M45.4499 68.55C25.1999 81.3 11.85 77.25 6.74996 70.05C2.09996 63.6 3.29996 54.3 9.74996 47.4C10.5 46.65 10.5 45.3 9.74996 44.4C8.99996 43.65 7.79989 43.65 7.04989 44.4C-0.900111 52.8 -2.25004 64.5 3.74996 72.75C7.34996 77.85 13.3499 80.85 20.3999 81.15C20.8499 81.15 21.1499 81.15 21.5999 81.15C29.3999 81.15 38.2499 78.15 47.5499 72.3C48.4499 71.7 48.7499 70.5 48.2999 69.45C47.5499 68.25 46.3499 67.95 45.4499 68.55Z" fill="#1B54F8" stroke="white" stroke-width="0.5" stroke-miterlimit="10"></path></g></svg> 