<?xml version="1.0" encoding="UTF-8"?> <svg xmlns="http://www.w3.org/2000/svg" xmlns:xlink="http://www.w3.org/1999/xlink" width="60" height="60" viewBox="0 0 60 60"><defs><clipPath id="clip-path"><rect id="Rectangle_3" data-name="Rectangle 3" width="60" height="60" transform="translate(449 75)" fill="#fff" stroke="#707070" stroke-width="1"></rect></clipPath></defs><g id="Mask_Group_3" data-name="Mask Group 3" transform="translate(-449 -75)" clip-path="url(#clip-path)"><path id="Path_14" data-name="Path 14" d="M34.312,17.252a.977.977,0,0,1,0,1.383l-9.335,9.336a.979.979,0,0,1-1.383,0l-6.2-6.2a.978.978,0,1,1,1.383-1.383L24.285,25.9l8.644-8.644A.979.979,0,0,1,34.312,17.252ZM25.853,42.136c12-6.432,16.754-15.276,16.753-31.226a10.138,10.138,0,0,1-7.871-6.454H16.971A10.139,10.139,0,0,1,9.1,10.91C9.1,26.861,13.851,35.7,25.853,42.136ZM43.645,9.063A8.165,8.165,0,0,1,36.38,3.206a.978.978,0,0,0-.939-.706H16.264a.978.978,0,0,0-.939.706A8.165,8.165,0,0,1,8.061,9.063a.978.978,0,0,0-.911.966c-.1,9,1.221,15.707,4.14,21.1,2.879,5.325,7.363,9.449,14.11,12.98a.98.98,0,0,0,.907,0c6.747-3.53,11.231-7.654,14.111-12.98,2.921-5.4,4.234-12.1,4.139-21.1a.979.979,0,0,0-.911-.966Z" transform="translate(453.147 81.638)" fill="#1c54f8" stroke="#fff" stroke-width="0.4" fill-rule="evenodd"></path></g></svg> 