<?xml version="1.0" encoding="UTF-8"?> <svg xmlns="http://www.w3.org/2000/svg" width="91" height="91" viewBox="0 0 91 91" fill="none"><mask id="mask0_2_237" style="mask-type:luminance" maskUnits="userSpaceOnUse" x="0" y="0" width="91" height="91"><path d="M90.81 0.459991H0.809998V90.46H90.81V0.459991Z" fill="white"></path></mask><g mask="url(#mask0_2_237)"><path d="M26.11 39.6C26.16 38.94 26.73 38.44 27.39 38.49C28.01 38.53 28.64 38.53 29.27 38.49C29.93 38.4 30.53 38.86 30.62 39.52C30.71 40.18 30.25 40.78 29.59 40.87C29.54 40.88 29.48 40.88 29.43 40.88C29.06 40.91 28.69 40.92 28.33 40.92C27.97 40.92 27.59 40.91 27.22 40.88C26.56 40.83 26.06 40.26 26.11 39.6ZM27.22 55.6C27.59 55.63 27.96 55.64 28.33 55.64C28.7 55.64 29.07 55.63 29.43 55.6C30.09 55.6 30.63 55.06 30.63 54.4C30.63 53.74 30.09 53.2 29.43 53.2C29.38 53.2 29.32 53.2 29.27 53.21C28.65 53.25 28.02 53.25 27.39 53.21C26.73 53.12 26.13 53.58 26.04 54.24C25.95 54.9 26.41 55.5 27.07 55.59C27.11 55.59 27.16 55.6 27.22 55.6ZM29.27 67.93C28.65 67.97 28.02 67.97 27.39 67.93C26.73 67.93 26.19 68.46 26.19 69.13C26.19 69.73 26.63 70.24 27.23 70.32C27.6 70.35 27.97 70.36 28.33 70.36C28.7 70.36 29.07 70.35 29.43 70.32C30.09 70.32 30.63 69.78 30.63 69.12C30.63 68.46 30.09 67.92 29.43 67.92C29.37 67.92 29.31 67.92 29.27 67.93ZM74.06 61.48V66.18C74.06 67.46 73.02 68.5 71.74 68.5H69.95C69.65 69.47 69.26 70.41 68.78 71.31L70.04 72.57C70.95 73.48 70.95 74.95 70.04 75.85L66.72 79.17C65.81 80.08 64.34 80.08 63.43 79.17L62.17 77.91C61.27 78.39 60.33 78.78 59.36 79.07V80.86C59.36 82.14 58.32 83.18 57.04 83.18H52.34C51.06 83.18 50.02 82.14 50.02 80.86V79.07C49.05 78.77 48.11 78.38 47.21 77.91L45.95 79.17C45.04 80.08 43.57 80.08 42.67 79.17L40 76.5C36.16 77.32 32.25 77.73 28.33 77.71C12.88 77.71 0.769989 71.91 0.769989 64.51V20.33C0.769989 12.93 12.87 7.12997 28.33 7.12997C43.79 7.12997 55.89 12.93 55.89 20.33V44.45H57.05C58.33 44.45 59.37 45.49 59.37 46.77V48.56C60.34 48.86 61.28 49.25 62.18 49.72L63.44 48.46C64.35 47.56 65.82 47.56 66.73 48.46L70.05 51.78C70.96 52.69 70.96 54.16 70.05 55.07L68.79 56.33C69.27 57.23 69.66 58.17 69.95 59.14H71.74C73.01 59.16 74.05 60.2 74.06 61.48ZM3.17001 20.35C3.17001 23.02 5.73 25.71 10.19 27.75C15.02 29.95 21.46 31.16 28.33 31.16C35.2 31.16 41.65 29.95 46.47 27.75C50.93 25.72 53.49 23.02 53.49 20.35C53.49 17.68 50.93 14.99 46.47 12.95C41.64 10.75 35.2 9.53998 28.33 9.53998C21.46 9.53998 15.01 10.75 10.19 12.95C5.72 14.98 3.17001 17.68 3.17001 20.35ZM3.17001 35.08C3.17001 37.75 5.73 40.44 10.19 42.48C15.02 44.68 21.46 45.89 28.33 45.89C35.2 45.89 41.64 44.68 46.47 42.48C50.93 40.45 53.49 37.75 53.49 35.08V25.83C49.22 30.42 39.68 33.55 28.33 33.55C16.98 33.55 7.43001 30.42 3.17001 25.83V35.08ZM3.17001 49.8C3.17001 52.47 5.73 55.16 10.19 57.19C15.02 59.39 21.46 60.6 28.33 60.6C30.83 60.6 33.33 60.44 35.8 60.1C36.24 59.51 36.93 59.16 37.66 59.16H39.44C39.74 58.19 40.13 57.25 40.6 56.35L39.34 55.09C38.44 54.18 38.44 52.71 39.34 51.8L42.66 48.48C43.57 47.58 45.04 47.58 45.95 48.48L47.21 49.74C48.11 49.26 49.05 48.87 50.02 48.58V46.79C50.02 45.51 51.06 44.47 52.35 44.47H53.49V40.55C49.22 45.14 39.68 48.27 28.33 48.27C16.98 48.27 7.43001 45.15 3.17001 40.55V49.8ZM28.33 75.32C31.8 75.33 35.27 75 38.68 74.34C38.64 73.68 38.89 73.04 39.35 72.57L40.61 71.31C40.13 70.41 39.74 69.47 39.45 68.5H37.66C36.38 68.5 35.34 67.46 35.34 66.18V62.58C33.01 62.86 30.67 63 28.33 63C16.98 63 7.43001 59.87 3.17001 55.28V64.53C3.17001 67.2 5.73 69.89 10.19 71.93C15.01 74.11 21.45 75.32 28.33 75.32ZM71.67 61.55H69.04C68.49 61.55 68.01 61.17 67.88 60.63C67.55 59.26 67.01 57.96 66.28 56.76C65.99 56.29 66.06 55.68 66.45 55.29L68.31 53.43L65.09 50.21L63.23 52.07C62.84 52.46 62.23 52.53 61.76 52.24C60.56 51.51 59.26 50.97 57.9 50.64C57.36 50.51 56.98 50.03 56.98 49.48V46.86H52.43V49.49C52.43 50.04 52.05 50.52 51.51 50.65C50.15 50.98 48.84 51.52 47.65 52.25C47.18 52.54 46.57 52.47 46.18 52.07L44.32 50.21L41.1 53.43L42.96 55.29C43.35 55.68 43.42 56.29 43.13 56.76C42.4 57.96 41.86 59.26 41.53 60.63C41.4 61.17 40.92 61.55 40.37 61.55H37.74V66.1H40.37C40.92 66.1 41.4 66.48 41.53 67.02C41.86 68.38 42.4 69.69 43.13 70.88C43.42 71.35 43.35 71.96 42.95 72.35L41.09 74.21L44.31 77.43L46.17 75.57C46.56 75.18 47.17 75.11 47.64 75.4C48.84 76.13 50.14 76.67 51.5 77C52.04 77.13 52.42 77.61 52.42 78.17V80.8H56.97V78.17C56.97 77.62 57.35 77.14 57.89 77C59.25 76.67 60.56 76.13 61.76 75.4C62.23 75.11 62.84 75.18 63.23 75.58L65.09 77.44L68.31 74.22L66.45 72.36C66.06 71.97 65.99 71.36 66.27 70.89C67 69.69 67.54 68.39 67.87 67.02C68 66.48 68.48 66.1 69.04 66.1H71.67V61.55ZM64.39 63.83C64.39 69.18 60.05 73.51 54.71 73.51C49.37 73.51 45.03 69.17 45.03 63.83C45.03 58.48 49.37 54.14 54.71 54.14C60.04 54.16 64.37 58.49 64.39 63.83ZM50.32 69.66C51.89 68.45 53.49 66.68 53.49 64.53V56.65C49.52 57.31 46.84 61.07 47.51 65.04C47.82 66.88 48.82 68.53 50.32 69.66ZM61.99 63.83C61.99 60.27 59.41 57.22 55.89 56.64V64.52C55.78 66.99 54.6 69.29 52.66 70.82C56.52 71.95 60.57 69.73 61.69 65.87C61.89 65.21 61.99 64.52 61.99 63.83ZM90.77 28.25V32.16C90.77 33.34 89.81 34.29 88.64 34.3H87.3C87.07 35.03 86.78 35.73 86.43 36.41L87.38 37.36C88.21 38.19 88.21 39.55 87.38 40.38L84.61 43.15C83.78 43.98 82.42 43.98 81.59 43.15L80.64 42.2C79.96 42.55 79.26 42.84 78.54 43.07V44.41C78.54 45.59 77.58 46.54 76.4 46.55H72.49C71.31 46.55 70.36 45.59 70.36 44.41V43.07C69.63 42.84 68.93 42.55 68.25 42.2L67.3 43.15C66.47 43.98 65.11 43.98 64.28 43.15L61.51 40.38C60.68 39.55 60.68 38.19 61.51 37.36L62.46 36.41C62.11 35.73 61.82 35.03 61.59 34.3H60.25C59.07 34.3 58.12 33.34 58.12 32.16V28.25C58.12 27.07 59.08 26.12 60.25 26.11H61.59C61.82 25.38 62.11 24.68 62.46 24L61.51 23.05C60.68 22.22 60.68 20.86 61.51 20.03L64.28 17.26C65.11 16.43 66.47 16.43 67.3 17.26L68.25 18.21C68.93 17.86 69.63 17.57 70.36 17.34V16C70.36 14.82 71.31 13.86 72.49 13.86H76.4C77.58 13.86 78.53 14.82 78.54 16V17.34C79.27 17.57 79.97 17.86 80.64 18.21L81.59 17.26C82.42 16.43 83.78 16.43 84.61 17.26L87.38 20.03C88.21 20.86 88.21 22.22 87.38 23.05L86.43 24C86.78 24.68 87.07 25.38 87.3 26.11H88.64C89.81 26.12 90.76 27.07 90.77 28.25ZM88.37 28.51H86.38C85.83 28.51 85.35 28.13 85.22 27.59C84.95 26.47 84.51 25.41 83.91 24.43C83.62 23.96 83.69 23.35 84.09 22.96L85.5 21.55L83.1 19.15L81.69 20.56C81.3 20.95 80.69 21.02 80.22 20.73C79.24 20.13 78.17 19.69 77.06 19.42C76.52 19.29 76.14 18.81 76.14 18.26V16.27H72.75V18.26C72.75 18.81 72.37 19.29 71.83 19.42C70.71 19.69 69.65 20.13 68.67 20.73C68.2 21.02 67.59 20.95 67.2 20.55L65.79 19.14L63.39 21.54L64.8 22.95C65.19 23.34 65.26 23.95 64.97 24.42C64.37 25.4 63.93 26.47 63.66 27.58C63.53 28.12 63.05 28.5 62.5 28.5H60.51V31.89H62.5C63.05 31.89 63.53 32.27 63.66 32.81C63.93 33.93 64.37 34.99 64.97 35.97C65.26 36.44 65.19 37.05 64.8 37.44L63.39 38.85L65.79 41.25L67.2 39.84C67.59 39.45 68.2 39.38 68.67 39.67C69.65 40.27 70.72 40.71 71.83 40.98C72.37 41.11 72.75 41.59 72.75 42.15V44.14H76.14V42.15C76.14 41.6 76.52 41.12 77.06 40.98C78.18 40.71 79.24 40.27 80.22 39.67C80.69 39.38 81.3 39.45 81.69 39.85L83.1 41.26L85.5 38.86L84.09 37.45C83.7 37.06 83.63 36.45 83.92 35.98C84.52 35 84.96 33.93 85.23 32.82C85.36 32.28 85.84 31.9 86.39 31.9H88.38L88.37 28.51ZM82.27 30.21C82.27 34.54 78.76 38.05 74.43 38.05C70.1 38.05 66.59 34.54 66.59 30.21C66.59 25.88 70.1 22.37 74.43 22.37C78.76 22.38 82.26 25.88 82.27 30.21ZM79.87 30.21C79.87 27.2 77.43 24.77 74.42 24.77C71.41 24.77 68.97 27.21 68.97 30.21C68.97 33.22 71.41 35.66 74.42 35.66C77.44 35.66 79.88 33.22 79.87 30.21Z" fill="#1B54F8"></path></g></svg> 