<?xml version="1.0" encoding="UTF-8"?> <svg xmlns="http://www.w3.org/2000/svg" width="91" height="90" viewBox="0 0 91 90" fill="none"><path fill-rule="evenodd" clip-rule="evenodd" d="M66.53 52.28C67.03 52.84 66.97 53.71 66.41 54.2L56.19 63.2C55.63 63.7 54.77 63.64 54.27 63.08L50.04 58.31C49.54 57.75 49.59 56.88 50.16 56.39C50.72 55.89 51.59 55.94 52.08 56.51L55.41 60.26L64.6199 52.16C65.17 51.66 66.03 51.72 66.53 52.28ZM67.5 66.56C72.37 61.69 72.37 53.81 67.5 48.94C62.63 44.07 54.75 44.07 49.88 48.94C45.01 53.81 45.01 61.69 49.88 66.56C54.74 71.43 62.63 71.43 67.5 66.56ZM69.42 47.01C63.49 41.07 53.88 41.08 47.94 47.01C42.01 52.94 42.01 62.55 47.94 68.49C53.87 74.42 63.49 74.42 69.42 68.49C75.36 62.55 75.36 52.95 69.42 47.01ZM87.78 86.85C87.23 87.4 86.31 87.4 85.76 86.85L72.57 73.66C73.29 73.02 73.96 72.36 74.59 71.64L87.78 84.83C88.34 85.39 88.34 86.29 87.78 86.85ZM45.69 70.75C52.88 77.93 64.5 77.94 71.69 70.75C78.87 63.57 78.87 51.94 71.69 44.75C64.51 37.57 52.88 37.57 45.69 44.75C38.52 51.92 38.52 63.58 45.69 70.75ZM34.26 61.9C32.45 61.97 31.36 60.77 30.77 59.76C29.21 57.08 29.06 52.09 32.04 46.72L39.44 49.06C37.79 52.72 37.24 56.75 37.77 60.65C36.51 61.61 35.47 61.85 34.26 61.9ZM37.3 36.87C39.33 31.28 38.89 24.97 35.97 18.07C35.07 13.43 36.58 8.93 40.03 5.99C43.05 3.42 46.99 2.61 50.31 3.86C54.64 5.5 57.6 10.39 58.63 17.62C59.68 25.01 59.28 30.35 54.2 37.11C51.72 37.64 49.36 38.62 47.23 40.01L37.3 36.87ZM89.71 82.9L76.26 69.45C81.8 61.15 80.76 49.98 73.61 42.82C69.43 38.63 63.76 36.41 57.84 36.66C62.07 30.1 62.35 24.42 61.33 17.24C59.74 6.10001 54.35 2.48 51.27 1.31C42.04 -2.19 30.88 6.75001 33.32 18.74C33.34 18.83 33.36 18.92 33.4 19C36.31 25.81 36.59 31.92 34.23 37.16C33.89 37.9 34.29 38.77 35.06 39.02L44.58 42.03C43.08 43.38 41.79 44.92 40.75 46.59L31.84 43.77C31.24 43.58 30.59 43.81 30.26 44.35C26.63 50.22 25.9 56.8 28.41 61.12C29.75 63.42 31.94 64.73 34.36 64.61C35.52 64.57 36.86 64.38 38.38 63.5C40.92 72.51 49.15 78.85 58.68 78.85C62.91 78.85 66.94 77.62 70.38 75.32L83.83 88.77C85.45 90.39 88.09 90.39 89.71 88.77C91.33 87.16 91.33 84.52 89.71 82.9ZM6.89998 30.38C9.92998 24.59 13.87 21.34 18 21.25C21.14 21.18 24.2 23.03 25.98 26.08C28.01 29.57 27.94 33.8 25.81 37.43C21.28 42.4 18.99 47.62 19 52.96L6.48 52.54C2.15 42.72 3.17998 37.51 6.89998 30.38ZM20.38 55.74C21.25 55.74 21.85 55.06 21.79 54.26C21.36 49.14 23.43 44.06 27.92 39.17C27.98 39.1 28.04 39.03 28.09 38.95C36.89 24.11 16.05 7 4.49001 29.12C2.77001 32.4 1.15997 36.04 0.949967 40.38C0.749967 44.49 1.82999 48.96 4.34999 54.45C4.56999 54.92 5.02999 55.23 5.53999 55.24L20.38 55.74ZM17.72 74.42C16.94 75.08 15.71 75.75 14.25 75.17C12.22 74.36 10.37 72.84 8.46999 62.77L20.54 63.18C21.41 68.54 19.81 72.65 17.72 74.42ZM21.7 60.48L20.67 60.45L6.86995 59.98C6.00995 59.95 5.33 60.73 5.48 61.57C7.53 73.41 9.71001 76.29 13.24 77.7C15.38 78.55 17.65 78.05 19.48 76.49C22.95 73.54 24.33 67.68 22.99 61.55C22.86 60.94 22.33 60.5 21.7 60.48Z" fill="#1B54F8"></path></svg> 