<?xml version="1.0" encoding="UTF-8"?> <svg xmlns="http://www.w3.org/2000/svg" width="91" height="91" viewBox="0 0 91 91" fill="none"><mask id="mask0_2_209" style="mask-type:luminance" maskUnits="userSpaceOnUse" x="0" y="0" width="91" height="91"><path d="M90.56 0.759979H0.559998V90.76H90.56V0.759979Z" fill="white"></path></mask><g mask="url(#mask0_2_209)"><path d="M87.56 12.66C87.56 11.83 86.89 11.16 86.06 11.16H5.06C4.23 11.16 3.56 11.83 3.56 12.66V71.16H0.559998V75.66C0.559998 78.15 2.57 80.16 5.06 80.16H86.06C88.55 80.16 90.56 78.15 90.56 75.66V71.16H87.56V12.66ZM6.56 14.16H84.56V71.16H68.74C70.2 70.32 71.57 69.31 72.81 68.16H80.06C80.89 68.16 81.56 67.49 81.56 66.66V18.66C81.56 17.83 80.89 17.16 80.06 17.16H11.06C10.23 17.16 9.56 17.83 9.56 18.66V66.66C9.56 67.49 10.23 68.16 11.06 68.16H42.31C43.55 69.31 44.92 70.32 46.38 71.16H6.56V14.16ZM78.56 43.65C74.16 32.04 61.19 26.19 49.58 30.59C37.97 34.99 32.12 47.96 36.52 59.57C37.28 61.57 38.32 63.45 39.61 65.16H12.57V20.16H78.57V43.65H78.56ZM38.06 51.66C38.06 40.89 46.79 32.16 57.56 32.16C68.33 32.16 77.06 40.89 77.06 51.66C77.06 62.43 68.33 71.16 57.56 71.16C46.8 71.15 38.07 62.42 38.06 51.66ZM78.56 59.67V65.16H75.52C76.79 63.48 77.81 61.63 78.56 59.67ZM87.56 75.66C87.56 76.49 86.89 77.16 86.06 77.16H5.06C4.23 77.16 3.56 76.49 3.56 75.66V74.16H87.56V75.66Z" fill="#1B54F8" stroke="white" stroke-width="0.25" stroke-miterlimit="10"></path><path d="M51.12 58.1L44.68 51.66L51.12 45.22L49 43.1L41.5 50.6C40.91 51.19 40.91 52.14 41.5 52.72L49 60.22L51.12 58.1Z" fill="#1B54F8" stroke="white" stroke-width="0.25" stroke-miterlimit="10"></path><path d="M66.12 60.22L73.62 52.72C74.21 52.13 74.21 51.18 73.62 50.6L66.12 43.1L64 45.22L70.44 51.66L64 58.1L66.12 60.22Z" fill="#1B54F8" stroke="white" stroke-width="0.25" stroke-miterlimit="10"></path><path d="M59.1386 42.2039L53.1365 60.1988L55.9823 61.148L61.9844 43.1531L59.1386 42.2039Z" fill="#1B54F8" stroke="white" stroke-width="0.25" stroke-miterlimit="10"></path><path d="M18.56 23.16H15.56V26.16H18.56V23.16Z" fill="#1B54F8" stroke="white" stroke-width="0.25" stroke-miterlimit="10"></path><path d="M36.56 23.16H21.56V26.16H36.56V23.16Z" fill="#1B54F8" stroke="white" stroke-width="0.25" stroke-miterlimit="10"></path><path d="M48.56 23.16H39.56V26.16H48.56V23.16Z" fill="#1B54F8" stroke="white" stroke-width="0.25" stroke-miterlimit="10"></path><path d="M33.56 29.16H24.56V32.16H33.56V29.16Z" fill="#1B54F8" stroke="white" stroke-width="0.25" stroke-miterlimit="10"></path><path d="M42.56 29.16H36.56V32.16H42.56V29.16Z" fill="#1B54F8" stroke="white" stroke-width="0.25" stroke-miterlimit="10"></path><path d="M21.56 29.16H18.56V32.16H21.56V29.16Z" fill="#1B54F8" stroke="white" stroke-width="0.25" stroke-miterlimit="10"></path><path d="M36.56 35.16H27.56V38.16H36.56V35.16Z" fill="#1B54F8" stroke="white" stroke-width="0.25" stroke-miterlimit="10"></path><path d="M24.56 35.16H18.56V38.16H24.56V35.16Z" fill="#1B54F8" stroke="white" stroke-width="0.25" stroke-miterlimit="10"></path><path d="M21.56 41.16H15.56V44.16H21.56V41.16Z" fill="#1B54F8" stroke="white" stroke-width="0.25" stroke-miterlimit="10"></path><path d="M32.06 47.16H21.56V50.16H32.06V47.16Z" fill="#1B54F8" stroke="white" stroke-width="0.25" stroke-miterlimit="10"></path><path d="M18.56 47.16H15.56V50.16H18.56V47.16Z" fill="#1B54F8" stroke="white" stroke-width="0.25" stroke-miterlimit="10"></path><path d="M24.56 53.16H18.56V56.16H24.56V53.16Z" fill="#1B54F8" stroke="white" stroke-width="0.25" stroke-miterlimit="10"></path><path d="M33.56 53.16H27.56V56.16H33.56V53.16Z" fill="#1B54F8" stroke="white" stroke-width="0.25" stroke-miterlimit="10"></path><path d="M57.56 23.16H51.56V26.16H57.56V23.16Z" fill="#1B54F8" stroke="white" stroke-width="0.25" stroke-miterlimit="10"></path><path d="M69.56 23.16H60.56V26.16H69.56V23.16Z" fill="#1B54F8" stroke="white" stroke-width="0.25" stroke-miterlimit="10"></path><path d="M27.56 59.16H24.56V62.16H27.56V59.16Z" fill="#1B54F8" stroke="white" stroke-width="0.25" stroke-miterlimit="10"></path><path d="M21.56 59.16H15.56V62.16H21.56V59.16Z" fill="#1B54F8" stroke="white" stroke-width="0.25" stroke-miterlimit="10"></path><path d="M35.06 59.16H30.56V62.16H35.06V59.16Z" fill="#1B54F8" stroke="white" stroke-width="0.25" stroke-miterlimit="10"></path><path d="M75.56 23.16H72.56V26.16H75.56V23.16Z" fill="#1B54F8" stroke="white" stroke-width="0.25" stroke-miterlimit="10"></path></g></svg> 