<?xml version="1.0" encoding="UTF-8"?> <svg xmlns="http://www.w3.org/2000/svg" width="90" height="90" viewBox="0 0 90 90" fill="none"><mask id="mask0_2_161" style="mask-type:luminance" maskUnits="userSpaceOnUse" x="0" y="0" width="90" height="90"><path d="M90 0H0V90H90V0Z" fill="white"></path></mask><g mask="url(#mask0_2_161)"><path d="M39.28 22.46L38.01 28.12C37.89 28.65 38.1 29.19 38.53 29.51C38.97 29.83 39.55 29.85 40.02 29.58L45.01 26.62L50 29.58C50.21 29.71 50.45 29.77 50.69 29.77C50.97 29.77 51.25 29.68 51.48 29.51C51.92 29.19 52.12 28.65 52 28.12L50.73 22.46L55.08 18.63C55.48 18.27 55.64 17.71 55.47 17.2C55.3 16.69 54.85 16.32 54.31 16.27L48.54 15.73L46.25 10.41C46.04 9.91 45.55 9.59 45.01 9.59C44.47 9.59 43.98 9.91 43.77 10.41L41.48 15.73L35.71 16.27C35.17 16.32 34.72 16.69 34.55 17.2C34.38 17.71 34.54 18.28 34.94 18.63L39.28 22.46ZM42.52 18.35C43.01 18.3 43.44 17.99 43.64 17.54L45.01 14.36L46.38 17.54C46.58 17.99 47 18.3 47.5 18.35L50.95 18.67L48.35 20.96C47.98 21.29 47.81 21.79 47.92 22.27L48.68 25.65L45.7 23.88C45.49 23.75 45.25 23.69 45.01 23.69C44.77 23.69 44.53 23.75 44.32 23.88L41.34 25.65L42.1 22.27C42.21 21.79 42.04 21.28 41.67 20.96L39.07 18.67L42.52 18.35ZM52.75 53.33C54.79 51.34 56.07 48.58 56.07 45.53C56.07 39.49 51.11 34.59 45.01 34.59C38.91 34.59 33.95 39.5 33.95 45.53C33.95 48.58 35.22 51.34 37.26 53.33C34.91 54.23 32.79 55.72 31.13 57.67C28.81 60.4 27.53 63.86 27.53 67.42V74.32C27.53 75.52 28.51 76.5 29.71 76.5H60.3C61.5 76.5 62.48 75.52 62.48 74.32V67.42C62.48 63.86 61.2 60.4 58.88 57.67C57.23 55.71 55.11 54.23 52.75 53.33ZM36.64 45.53C36.64 40.99 40.39 37.29 45 37.29C49.61 37.29 53.36 40.99 53.36 45.53C53.36 50.07 49.61 53.77 45 53.77C40.39 53.77 36.64 50.07 36.64 45.53ZM59.78 73.79H30.23V67.41C30.23 61.53 34.34 56.51 40.06 55.31C41.55 56.05 43.23 56.47 45.01 56.47C46.79 56.47 48.47 56.05 49.96 55.31C55.68 56.51 59.79 61.53 59.79 67.41V73.79H59.78ZM28.06 39.62L26.79 33.96L31.14 30.13C31.54 29.77 31.7 29.21 31.53 28.7C31.36 28.19 30.91 27.82 30.37 27.77L24.6 27.23L22.3 21.91C22.09 21.41 21.6 21.09 21.06 21.09C20.52 21.09 20.03 21.41 19.82 21.91L17.53 27.23L11.76 27.77C11.22 27.82 10.77 28.19 10.6 28.7C10.43 29.21 10.59 29.78 10.99 30.13L15.34 33.96L14.07 39.62C13.95 40.15 14.16 40.69 14.59 41.01C15.03 41.33 15.61 41.35 16.08 41.08L21.07 38.12L26.06 41.08C26.27 41.21 26.51 41.27 26.75 41.27C27.03 41.27 27.31 41.18 27.54 41.01C27.97 40.69 28.18 40.14 28.06 39.62ZM24.4 32.46C24.03 32.79 23.86 33.29 23.97 33.77L24.73 37.15L21.75 35.38C21.54 35.25 21.3 35.19 21.06 35.19C20.82 35.19 20.58 35.25 20.37 35.38L17.39 37.15L18.15 33.77C18.26 33.29 18.1 32.78 17.72 32.46L15.12 30.17L18.57 29.85C19.06 29.8 19.49 29.49 19.69 29.04L21.06 25.86L22.43 29.04C22.63 29.49 23.05 29.8 23.55 29.85L27 30.17L24.4 32.46ZM18.87 51.71L13.1 51.17L10.81 45.85C10.6 45.35 10.11 45.03 9.56999 45.03C9.02999 45.03 8.53999 45.35 8.32999 45.85L6.03999 51.17L0.26999 51.71C-0.27001 51.76 -0.719999 52.13 -0.889999 52.64C-1.06 53.15 -0.899999 53.72 -0.499999 54.07L3.84999 57.9L2.57999 63.56C2.45999 64.09 2.66999 64.63 3.09999 64.95C3.53999 65.27 4.12 65.29 4.59 65.02L9.57999 62.06L14.57 65.02C14.78 65.15 15.02 65.21 15.26 65.21C15.54 65.21 15.82 65.12 16.06 64.95C16.5 64.63 16.7 64.09 16.58 63.56L15.31 57.9L19.66 54.07C20.06 53.71 20.22 53.15 20.05 52.64C19.87 52.12 19.41 51.76 18.87 51.71ZM12.9 56.4C12.53 56.73 12.36 57.23 12.47 57.71L13.23 61.09L10.25 59.32C10.04 59.19 9.8 59.13 9.56 59.13C9.32 59.13 9.08 59.19 8.87 59.32L5.89 61.09L6.64999 57.71C6.75999 57.23 6.6 56.72 6.22 56.4L3.62 54.11L7.06999 53.79C7.55999 53.74 7.98999 53.43 8.18999 52.98L9.56 49.8L10.93 52.98C11.13 53.43 11.55 53.74 12.05 53.79L15.5 54.11L12.9 56.4ZM74.62 41.26C74.9 41.26 75.18 41.17 75.41 41C75.85 40.68 76.05 40.14 75.93 39.61L74.66 33.95L79.01 30.12C79.41 29.76 79.57 29.2 79.4 28.69C79.23 28.18 78.78 27.81 78.24 27.76L72.47 27.22L70.18 21.9C69.97 21.4 69.48 21.08 68.94 21.08C68.4 21.08 67.91 21.4 67.7 21.9L65.41 27.22L59.64 27.76C59.1 27.81 58.65 28.18 58.48 28.69C58.31 29.2 58.47 29.77 58.87 30.12L63.22 33.95L61.95 39.61C61.83 40.14 62.04 40.68 62.47 41C62.91 41.32 63.49 41.34 63.96 41.07L68.95 38.11L73.94 41.07C74.14 41.2 74.38 41.26 74.62 41.26ZM69.63 35.38C69.42 35.25 69.18 35.19 68.94 35.19C68.7 35.19 68.46 35.25 68.25 35.38L65.27 37.15L66.03 33.77C66.14 33.29 65.98 32.78 65.6 32.46L63 30.17L66.45 29.85C66.94 29.8 67.37 29.49 67.57 29.04L68.94 25.86L70.31 29.04C70.51 29.49 70.93 29.8 71.43 29.85L74.88 30.17L72.28 32.46C71.91 32.79 71.74 33.29 71.85 33.77L72.61 37.15L69.63 35.38ZM90.91 52.64C90.74 52.13 90.29 51.76 89.75 51.71L83.98 51.17L81.69 45.85C81.48 45.35 80.99 45.03 80.45 45.03C79.91 45.03 79.42 45.35 79.21 45.85L76.92 51.17L71.15 51.71C70.61 51.76 70.16 52.13 69.99 52.64C69.82 53.15 69.98 53.72 70.38 54.07L74.73 57.9L73.46 63.56C73.34 64.09 73.55 64.63 73.98 64.95C74.42 65.27 75 65.29 75.47 65.02L80.46 62.06L85.45 65.02C85.66 65.15 85.9 65.21 86.14 65.21C86.42 65.21 86.7 65.12 86.93 64.95C87.37 64.63 87.57 64.09 87.45 63.56L86.18 57.9L90.53 54.07C90.92 53.71 91.08 53.15 90.91 52.64ZM83.78 56.4C83.41 56.73 83.24 57.23 83.35 57.71L84.11 61.09L81.13 59.32C80.92 59.19 80.68 59.13 80.44 59.13C80.2 59.13 79.96 59.19 79.75 59.32L76.77 61.09L77.53 57.71C77.64 57.23 77.48 56.72 77.1 56.4L74.5 54.11L77.95 53.79C78.44 53.74 78.87 53.43 79.07 52.98L80.44 49.8L81.81 52.98C82.01 53.43 82.43 53.74 82.93 53.79L86.38 54.11L83.78 56.4Z" fill="#1B54F8"></path></g></svg> 