<?xml version="1.0" encoding="UTF-8"?> <svg xmlns="http://www.w3.org/2000/svg" width="90" height="90" viewBox="0 0 90 90" fill="none"><mask id="mask0_1_13" style="mask-type:luminance" maskUnits="userSpaceOnUse" x="0" y="0" width="90" height="90"><path d="M90 0H0V90H90V0Z" fill="white"></path></mask><g mask="url(#mask0_1_13)"><path d="M81.9 43L80.9 42.3L81.3 41.2C84.1 32.9 82 24 75.9 17.8C71.6 13.5 65.8 11.1 59.7 11.1C53.6 11.1 47.9 13.5 43.5 17.7L41.1 20.1L38.7 17.7C34.4 13.4 28.7 11.1 22.6 11.1C16.2 11.1 10.3 13.6 6 18.2C-2.5 27.2 -2.2 41.6 6.7 50.4L37.5 81.2C39.4 83.1 42.7 83.1 44.8 81.2L53.2 72.8L54.4 74C58.3 78.1 63.7 80.4 69.4 80.4C80.9 80.4 90.2 71.1 90.2 59.6C90.2 53 87.2 47 81.9 43ZM51.1 69L51.7 70.1L42.6 79.1C42.2 79.5 41.7 79.6 41.2 79.6C40.7 79.6 40.2 79.4 39.8 79.1L9 48.2C1.2 40.6 0.900002 28.1 8.3 20.4C12 16.5 17.1 14.3 22.6 14.3C27.8 14.3 32.8 16.3 36.6 20L40.2 23.6C40.8 24.2 41.8 24.2 42.4 23.6L46 20.1C49.7 16.4 54.6 14.4 60 14.4C65.2 14.4 70.2 16.4 74 20.1C77.7 23.9 79.7 28.9 79.7 34.1C79.7 35.8 79.4 37.4 79.1 39L78.7 40.9L76.9 40.3C74.3 39.4 72 38.9 69.8 38.9C58.3 38.9 49 48.2 49 59.7C48.7 62.7 49.5 65.9 51.1 69ZM69.4 75.5C60.5 75.5 53.3 68.3 53.3 59.4C53.3 50.5 60.5 43.3 69.4 43.3C78.3 43.3 85.5 50.5 85.5 59.4C85.4 68.3 78.2 75.5 69.4 75.5Z" fill="#1B54F8"></path><path d="M77.4 58H71V51.5H67.9V58H61.4V61.1H67.9V67.5H71V61.1H77.4V58Z" fill="#1B54F8"></path></g></svg> 