<?xml version="1.0" encoding="UTF-8"?> <svg xmlns="http://www.w3.org/2000/svg" width="90" height="90" viewBox="0 0 90 90" fill="none"><mask id="mask0_1_79" style="mask-type:alpha" maskUnits="userSpaceOnUse" x="0" y="0" width="90" height="90"><rect width="90" height="90" fill="#D9D9D9"></rect></mask><g mask="url(#mask0_1_79)"><path fill-rule="evenodd" clip-rule="evenodd" d="M30.7976 23.5365C32.9381 22.4633 34.2919 20.2765 34.2919 17.8814C34.2919 15.4864 32.9381 13.2995 30.7976 12.2264C28.2608 10.9594 25.5128 9.58546 23.0917 8.37635C21.1334 7.39576 18.8049 7.49989 16.9421 8.65114C15.0792 9.80239 13.9453 11.8388 13.9453 14.0285V21.7344C13.9453 23.9241 15.0792 25.9605 16.9421 27.1117C18.8049 28.263 21.1334 28.3671 23.0917 27.3865C25.5128 26.1774 28.2608 24.8034 30.7976 23.5365ZM29.4091 20.7596C26.8723 22.0294 24.1244 23.4034 21.7062 24.6125C20.7082 25.1129 19.5223 25.058 18.5735 24.4708C17.6247 23.8865 17.0462 22.848 17.0462 21.7344V14.0285C17.0462 12.9148 17.6247 11.8764 18.5735 11.2921C19.5223 10.7049 20.7082 10.6499 21.7062 11.1504L29.4091 15.0033C30.4997 15.5471 31.1881 16.6636 31.1881 17.8814C31.1881 19.0992 30.4997 20.2157 29.4091 20.7596Z" fill="#1B54F8" stroke="white" stroke-width="0.2"></path><path fill-rule="evenodd" clip-rule="evenodd" d="M65.2347 57.2539L65.0811 56.9467C64.3117 55.4094 62.7402 54.4382 61.0213 54.4382C59.3024 54.4382 57.7309 55.4094 56.963 56.9467C56.1688 58.5353 55.3078 60.2557 54.5507 61.7698C53.848 63.1769 53.9224 64.8476 54.7493 66.1849C55.5761 67.5237 57.0375 68.3381 58.609 68.3381H73.9904C75.7915 68.3381 77.4638 67.4058 78.4117 65.8731C79.358 64.3403 79.4448 62.4276 78.6381 60.8157C77.7136 58.9665 76.6649 56.8676 75.6953 54.9269C74.8141 53.1677 73.0146 52.0554 71.046 52.0554C69.0773 52.0554 67.2778 53.1677 66.3982 54.9269L65.2347 57.2539ZM63.5003 60.7227L62.3058 58.3336C62.0622 57.848 61.5658 57.5409 61.0213 57.5409C60.4783 57.5409 59.9804 57.848 59.7384 58.3336L57.326 63.1582C57.1027 63.6019 57.1275 64.1309 57.3881 64.5544C57.6503 64.9779 58.1126 65.2355 58.609 65.2355H63.3452C62.7262 63.8315 62.7557 62.2104 63.4538 60.8157L63.5003 60.7227ZM72.92 56.3153C73.8895 58.2545 74.9382 60.355 75.8644 62.2042C76.1886 62.8526 76.1545 63.6236 75.7728 64.2411C75.3912 64.8585 74.7164 65.2355 73.9904 65.2355H68.1015C67.3755 65.2355 66.7022 64.8585 66.3206 64.2411C65.939 63.6236 65.9033 62.8526 66.2291 62.2042L69.172 56.3153C69.5272 55.6048 70.2532 55.1581 71.046 55.1581C71.8387 55.1581 72.5647 55.6048 72.92 56.3153Z" fill="#1B54F8" stroke="white" stroke-width="0.2"></path><path fill-rule="evenodd" clip-rule="evenodd" d="M61.5061 15.9406V25.4952C61.5061 26.805 62.0259 28.0617 62.9527 28.9884C63.8794 29.9152 65.1361 30.435 66.4459 30.435H66.4493C67.7591 30.435 69.0158 29.9152 69.9425 28.9884C70.8693 28.0617 71.389 26.805 71.389 25.4952V15.9406H71.5823C72.8937 15.9406 74.1505 15.4191 75.0755 14.4924C76.0022 13.5673 76.5237 12.3106 76.5237 10.9991V10.9957C76.5237 9.68598 76.0022 8.42924 75.0755 7.5025C74.1505 6.57747 72.8937 6.05597 71.5823 6.05597C68.6037 6.05597 64.2915 6.05597 61.3129 6.05597C60.0015 6.05597 58.7447 6.57747 57.8197 7.5025C56.8929 8.42924 56.3714 9.68598 56.3714 10.9957V10.9991C56.3714 12.3106 56.8929 13.5673 57.8197 14.4924C58.7447 15.4191 60.0015 15.9406 61.3129 15.9406H61.5061ZM64.6078 14.3881C64.6078 13.5314 63.9136 12.8372 63.057 12.8372H61.3129C60.8256 12.8372 60.3571 12.644 60.0134 12.2986C59.668 11.9549 59.4748 11.4864 59.4748 10.9991V10.9957C59.4748 10.5084 59.668 10.0416 60.0134 9.69623C60.3571 9.35255 60.8256 9.15933 61.3129 9.15933H71.5823C72.0696 9.15933 72.5381 9.35255 72.8817 9.69623C73.2271 10.0416 73.4204 10.5084 73.4204 10.9957V10.9991C73.4204 11.4864 73.2271 11.9549 72.8817 12.2986C72.5381 12.644 72.0696 12.8372 71.5823 12.8372H69.8382C68.9816 12.8372 68.2874 13.5314 68.2874 14.3881V25.4952C68.2874 25.9825 68.0925 26.4493 67.7488 26.7947C67.4034 27.1384 66.9366 27.3333 66.4493 27.3333H66.4459C65.9586 27.3333 65.4918 27.1384 65.1464 26.7947C64.8027 26.4493 64.6078 25.9825 64.6078 25.4952V14.3881Z" fill="#1B54F8" stroke="white" stroke-width="0.2"></path><path fill-rule="evenodd" clip-rule="evenodd" d="M38.9661 81.9215H28.6002C27.7439 81.9215 27.0489 82.6165 27.0489 83.4728C27.0489 84.3292 27.7439 85.0242 28.6002 85.0242H38.9661C39.6642 87.8786 42.2394 89.9993 45.308 89.9993C48.3765 89.9993 50.9517 87.8786 51.6498 85.0242H62.0328C62.8891 85.0242 63.5841 84.3292 63.5841 83.4728C63.5841 82.6165 62.8891 81.9215 62.0328 81.9215H51.6498C50.9517 79.0671 48.3765 76.9464 45.308 76.9464C42.2394 76.9464 39.6642 79.0671 38.9661 81.9215ZM41.8888 83.6605C41.9866 85.4632 43.4805 86.8966 45.308 86.8966C47.1975 86.8966 48.7317 85.3623 48.7317 83.4728C48.7317 81.5833 47.1975 80.0491 45.308 80.0491C43.4805 80.0491 41.9866 81.4825 41.8888 83.2851C41.8966 83.3472 41.8997 83.4092 41.8997 83.4728C41.8997 83.5364 41.8966 83.5985 41.8888 83.6605Z" fill="#1B54F8" stroke="white" stroke-width="0.2"></path><path fill-rule="evenodd" clip-rule="evenodd" d="M84.3769 7.75674C84.3769 3.47285 80.9041 0 76.6202 0H56.6409C52.357 0 48.8842 3.47285 48.8842 7.75674V27.736C48.8842 32.0199 52.357 35.4928 56.6409 35.4928H76.6202C80.9041 35.4928 84.3769 32.0199 84.3769 27.736V7.75674ZM81.2746 7.75674V27.736C81.2746 30.306 79.1902 32.3904 76.6202 32.3904H56.6409C54.0709 32.3904 51.9865 30.306 51.9865 27.736V7.75674C51.9865 5.18674 54.0709 3.10236 56.6409 3.10236H76.6202C79.1902 3.10236 81.2746 5.18674 81.2746 7.75674Z" fill="#1B54F8" stroke="white" stroke-width="0.2"></path><path fill-rule="evenodd" clip-rule="evenodd" d="M41.7336 7.91151C41.7336 3.62762 38.2607 0.15477 33.9768 0.15477H13.9976C9.71368 0.15477 6.24084 3.62762 6.24084 7.91151V27.8908C6.24084 32.1747 9.71368 35.6475 13.9976 35.6475H33.9768C38.2607 35.6475 41.7336 32.1747 41.7336 27.8908V7.91151ZM38.6312 7.91151V27.8908C38.6312 30.4608 36.5468 32.5452 33.9768 32.5452H13.9976C11.4276 32.5452 9.34319 30.4608 9.34319 27.8908V7.91151C9.34319 5.34151 11.4276 3.25713 13.9976 3.25713H33.9768C36.5468 3.25713 38.6312 5.34151 38.6312 7.91151Z" fill="#1B54F8" stroke="white" stroke-width="0.2"></path><path fill-rule="evenodd" clip-rule="evenodd" d="M84.3769 50.2073C84.3769 45.9234 80.9041 42.4505 76.6202 42.4505H56.6409C52.357 42.4505 48.8842 45.9234 48.8842 50.2073V70.1866C48.8842 74.4705 52.357 77.9433 56.6409 77.9433H76.6202C80.9041 77.9433 84.3769 74.4705 84.3769 70.1866V50.2073ZM81.2746 50.2073V70.1866C81.2746 72.7566 79.1902 74.8409 76.6202 74.8409H56.6409C54.0709 74.8409 51.9865 72.7566 51.9865 70.1866V50.2073C51.9865 47.6373 54.0709 45.5529 56.6409 45.5529H76.6202C79.1902 45.5529 81.2746 47.6373 81.2746 50.2073Z" fill="#1B54F8" stroke="white" stroke-width="0.2"></path><path fill-rule="evenodd" clip-rule="evenodd" d="M41.7336 50.2073C41.7336 45.9234 38.2607 42.4505 33.9768 42.4505H13.9976C9.71368 42.4505 6.24084 45.9234 6.24084 50.2073V70.1866C6.24084 74.4705 9.71368 77.9433 13.9976 77.9433H33.9768C38.2607 77.9433 41.7336 74.4705 41.7336 70.1866V50.2073ZM38.6312 50.2073V70.1866C38.6312 72.7566 36.5468 74.8409 33.9768 74.8409H13.9976C11.4276 74.8409 9.34319 72.7566 9.34319 70.1866V50.2073C9.34319 47.6373 11.4276 45.5529 13.9976 45.5529H33.9768C36.5468 45.5529 38.6312 47.6373 38.6312 50.2073Z" fill="#1B54F8" stroke="white" stroke-width="0.2"></path><path fill-rule="evenodd" clip-rule="evenodd" d="M18.9183 61.0981C18.3056 60.8359 17.6308 60.6916 16.9218 60.6916C14.1077 60.6916 11.8226 62.9767 11.8226 65.7908C11.8226 68.6065 14.1077 70.8916 16.9218 70.8916C19.7359 70.8916 22.021 68.6065 22.021 65.7908V59.0627H32.193V61.0981C31.5803 60.8359 30.9054 60.6916 30.1965 60.6916C27.3824 60.6916 25.0973 62.9767 25.0973 65.7908C25.0973 68.6065 27.3824 70.8916 30.1965 70.8916C33.0106 70.8916 35.2957 68.6065 35.2957 65.7908V52.5425C35.2957 51.6862 34.6007 50.9912 33.7444 50.9912H20.4697C19.6133 50.9912 18.9183 51.6862 18.9183 52.5425V61.0981ZM16.9218 63.7943C18.0232 63.7943 18.9183 64.6894 18.9183 65.7908C18.9183 66.8938 18.0232 67.7889 16.9218 67.7889C15.8188 67.7889 14.9252 66.8938 14.9252 65.7908C14.9252 64.6894 15.8188 63.7943 16.9218 63.7943ZM30.1965 63.7943C31.2979 63.7943 32.193 64.6894 32.193 65.7908C32.193 66.8938 31.2979 67.7889 30.1965 67.7889C29.0935 67.7889 28.1999 66.8938 28.1999 65.7908C28.1999 64.6894 29.0935 63.7943 30.1965 63.7943ZM32.193 55.9601V54.0938H22.021V55.9601H32.193Z" fill="#1B54F8" stroke="white" stroke-width="0.2"></path></g></svg> 