<?xml version="1.0" encoding="UTF-8"?> <svg xmlns="http://www.w3.org/2000/svg" width="91" height="91" viewBox="0 0 91 91" fill="none"><mask id="mask0_2_242" style="mask-type:luminance" maskUnits="userSpaceOnUse" x="0" y="0" width="91" height="91"><path d="M90.44 0.409973H0.440002V90.41H90.44V0.409973Z" fill="white" stroke="white" stroke-width="0.5"></path></mask><g mask="url(#mask0_2_242)"><path d="M86.07 69.5L83.71 69.17C83.45 68.36 83.13 67.59 82.74 66.87L84.17 64.98C84.49 64.55 84.44 63.96 84.07 63.59L79.92 59.5C79.55 59.13 78.94 59.09 78.51 59.4L76.59 60.81C75.85 60.43 75.06 60.11 74.25 59.86L73.92 57.53C73.85 57 73.39 56.62 72.85 56.62H67C66.47 56.62 66.01 57 65.93 57.53L65.6 59.86C64.78 60.12 64 60.43 63.26 60.81L61.36 59.4C60.93 59.09 60.34 59.13 59.95 59.5L55.8 63.59C55.43 63.96 55.38 64.56 55.7 64.98L57.13 66.87C56.74 67.61 56.41 68.38 56.16 69.17L53.8 69.5C53.27 69.57 52.88 70.03 52.88 70.55V76.32C52.88 76.85 53.27 77.3 53.8 77.37L56.16 77.7C56.42 78.5 56.74 79.26 57.13 80L55.7 81.89C55.38 82.32 55.43 82.91 55.8 83.28L59.95 87.37C60.32 87.74 60.93 87.78 61.36 87.47L63.28 86.06C64.03 86.44 64.81 86.76 65.62 87.01L65.95 89.34C66.02 89.87 66.48 90.25 67.02 90.25H72.87C73.4 90.25 73.86 89.87 73.94 89.34L74.27 87.01C75.08 86.77 75.86 86.44 76.61 86.06L78.53 87.47C78.96 87.78 79.55 87.74 79.94 87.37L84.09 83.28C84.46 82.91 84.51 82.31 84.19 81.89L82.76 80C83.15 79.28 83.47 78.51 83.73 77.7L86.09 77.37C86.62 77.3 87.01 76.84 87.01 76.32V70.55C87 70.03 86.6 69.58 86.07 69.5ZM84.84 75.41L82.71 75.71C82.28 75.77 81.93 76.08 81.82 76.49C81.52 77.61 81.08 78.64 80.54 79.56C80.31 79.93 80.34 80.4 80.6 80.74L81.88 82.43L79.05 85.22L77.33 83.95C76.98 83.69 76.52 83.67 76.13 83.88C75.15 84.45 74.1 84.87 73 85.16C72.58 85.27 72.26 85.61 72.21 86.04L71.91 88.14H67.93L67.63 86.04C67.57 85.61 67.26 85.27 66.84 85.16C65.74 84.88 64.69 84.45 63.71 83.88C63.34 83.67 62.86 83.7 62.51 83.95L60.79 85.22L57.96 82.43L59.24 80.74C59.5 80.4 59.53 79.93 59.31 79.56C58.73 78.59 58.3 77.56 58.01 76.48C57.89 76.07 57.55 75.76 57.12 75.7L54.99 75.4V71.48L57.12 71.18C57.55 71.12 57.9 70.81 58.01 70.4C58.3 69.32 58.73 68.3 59.31 67.32C59.53 66.95 59.5 66.48 59.24 66.14L57.96 64.45L60.79 61.66L62.51 62.93C62.86 63.19 63.33 63.21 63.71 62.99C64.65 62.44 65.7 62.01 66.82 61.72C67.24 61.61 67.56 61.27 67.61 60.84L67.91 58.74H71.89L72.19 60.84C72.25 61.27 72.56 61.61 72.98 61.72C74.1 62 75.14 62.43 76.09 62.99C76.46 63.2 76.94 63.19 77.29 62.93L79.01 61.66L81.84 64.45L80.56 66.14C80.3 66.48 80.27 66.95 80.5 67.32C81.06 68.24 81.49 69.28 81.78 70.39C81.9 70.8 82.24 71.11 82.67 71.17L84.8 71.47V75.42H84.84V75.41Z" fill="#1A53F6" stroke="#1B54F8" stroke-width="0.5"></path><path d="M69.93 65.93C65.73 65.93 62.32 69.3 62.32 73.45C62.32 77.59 65.74 80.96 69.93 80.96C74.14 80.96 77.56 77.59 77.56 73.45C77.56 69.3 74.13 65.93 69.93 65.93ZM69.93 78.82C66.92 78.82 64.48 76.4 64.48 73.45C64.48 70.48 66.93 68.06 69.93 68.06C72.94 68.06 75.39 70.48 75.39 73.45C75.39 76.42 72.94 78.82 69.93 78.82Z" fill="#1A53F6" stroke="#1B54F8" stroke-width="0.5"></path><path d="M54.84 46.79V50.34C54.84 50.92 55.33 51.41 55.92 51.41C56.51 51.41 57 50.93 57 50.34V46.79H63.13V50.34C63.13 50.92 63.62 51.41 64.21 51.41C64.8 51.41 65.29 50.93 65.29 50.34V46.79H71.42V50.34C71.42 50.92 71.91 51.41 72.5 51.41C73.09 51.41 73.58 50.93 73.58 50.34V46.79H76.06C79.03 46.79 81.44 44.42 81.44 41.49V39.05H85.04C85.63 39.05 86.12 38.57 86.12 37.98C86.12 37.4 85.63 36.91 85.04 36.91H81.44V30.87H85.04C85.63 30.87 86.12 30.39 86.12 29.8C86.12 29.22 85.63 28.73 85.04 28.73H81.44V22.69H85.04C85.63 22.69 86.12 22.21 86.12 21.62C86.12 21.04 85.63 20.55 85.04 20.55H81.44V14.51H85.04C85.63 14.51 86.12 14.03 86.12 13.44C86.12 12.86 85.63 12.37 85.04 12.37H81.44V9.93997C81.44 7.00997 79.03 4.63998 76.06 4.63998H73.58V1.06998C73.58 0.489977 73.09 0 72.5 0C71.91 0 71.42 0.479977 71.42 1.06998V4.62H65.29V1.06998C65.29 0.489977 64.8 0 64.21 0C63.62 0 63.13 0.479977 63.13 1.06998V4.62H57V1.06998C57 0.489977 56.51 0 55.92 0C55.33 0 54.84 0.479977 54.84 1.06998V4.62H48.71V1.06998C48.71 0.489977 48.22 0 47.63 0C47.04 0 46.55 0.479977 46.55 1.06998V4.62H44.08C41.11 4.62 38.7 6.98998 38.7 9.91998V12.36H35.1C34.51 12.36 34.02 12.84 34.02 13.43C34.02 14.01 34.51 14.5 35.1 14.5H38.7V20.54H35.1C34.51 20.54 34.02 21.02 34.02 21.61C34.02 22.2 34.51 22.68 35.1 22.68H38.7V28.72H35.1C34.51 28.72 34.02 29.2 34.02 29.79C34.02 30.37 34.51 30.86 35.1 30.86H38.7V36.9H35.1C34.51 36.9 34.02 37.38 34.02 37.97C34.02 38.55 34.51 39.04 35.1 39.04H38.7V41.48C38.7 44.41 41.11 46.78 44.08 46.78H46.55V50.33C46.55 50.91 47.04 51.4 47.63 51.4C48.22 51.4 48.71 50.92 48.71 50.33V46.78H54.84V46.79ZM40.85 41.48V9.94998C40.85 8.19998 42.29 6.78 44.07 6.78H76.05C77.82 6.78 79.27 8.19998 79.27 9.94998V41.48C79.27 43.23 77.83 44.65 76.05 44.65H44.08C42.31 44.65 40.85 43.23 40.85 41.48Z" fill="#1A53F6" stroke="#1B54F8" stroke-width="0.5"></path><path d="M71.76 38.31C72.35 38.31 72.84 37.83 72.84 37.24V22.64C72.84 22.36 72.72 22.09 72.52 21.89L63.93 13.42C63.73 13.22 63.45 13.11 63.17 13.11H48.36C47.77 13.11 47.28 13.59 47.28 14.18V37.25C47.28 37.83 47.77 38.32 48.36 38.32H71.76V38.31ZM49.44 15.24H62.72L70.68 23.09V36.18H49.44V15.24Z" fill="#1A53F6" stroke="#1B54F8" stroke-width="0.5"></path><path d="M36.6 75.09C31.81 80.85 24.23 81.64 24.16 81.66H24.1501C22.6601 81.8 21.08 82.06 19.45 82.33C18.74 82.44 18.04 82.56 17.33 82.67C14.66 83.08 13.06 81.86 12.17 80.77C10.92 79.22 10.5601 77.17 10.9601 76.19C12.1301 73.3 11.45 72.05 10.08 71.07C9.19005 70.44 8.70004 69.82 8.70004 69.32C8.70004 68.81 9.23001 68.4 9.23001 68.4C9.60001 68.14 9.78005 67.68 9.65005 67.25C9.53005 66.81 9.15002 66.5 8.68002 66.47C8.18002 66.44 7.81001 66.3 7.73001 66.13C7.59001 65.83 7.80005 65.19 8.02005 64.92C8.08005 64.85 8.15003 64.76 8.25003 64.66C8.75003 64.12 9.58002 63.21 9.30002 62.03C9.08002 61.12 8.26001 60.4 6.79001 59.84C4.37001 58.92 4.37002 57.68 4.37002 57.67C4.40002 57.46 4.38006 57.34 4.28006 57.14C4.18006 56.13 7.31001 51.95 9.36001 50.09C12.98 46.79 13.01 41.97 13.01 41.65C11.51 29.33 16.0801 23.3 16.1501 23.2C22.2201 14.53 30.19 11.19 35.8 9.91997C36.38 9.78997 36.75 9.20997 36.61 8.63997C36.48 8.06997 35.9 7.69998 35.31 7.83998C29.33 9.18998 20.8201 12.76 14.4001 21.94C14.1801 22.21 9.24006 28.63 10.8401 41.78C10.8401 41.82 10.78 45.89 7.88003 48.53C7.81003 48.59 1.36005 54.93 2.21005 57.76C2.25005 58.54 2.71003 60.57 6.00003 61.83C6.98003 62.21 7.17002 62.5 7.18002 62.5C7.15002 62.67 6.79003 63.07 6.63003 63.24C6.49003 63.4 6.37005 63.52 6.27005 63.65C5.75005 64.33 5.19003 65.81 5.75003 67.03C5.92003 67.4 6.23005 67.81 6.77005 68.12C6.63005 68.46 6.51004 68.86 6.51004 69.3C6.50004 70.54 7.26004 71.72 8.76004 72.8C9.31004 73.18 9.70005 73.47 8.90005 75.42C8.15005 77.28 8.80003 80.1 10.44 82.11C12.2 84.27 14.75 85.22 17.62 84.78C18.34 84.67 19.06 84.55 19.77 84.44C24.43 83.67 28.82 82.95 30.02 85.09C31.66 88.07 32.07 89.5 32.07 89.5C32.2 89.97 32.63 90.3 33.11 90.3C33.2 90.3 33.3 90.29 33.38 90.26C33.96 90.1 34.3 89.52 34.14 88.95C34.13 88.88 33.69 87.33 31.89 84.07C31.43 83.25 30.79 82.68 30 82.28C32.64 81.21 35.72 79.44 38.22 76.45C38.59 76 38.54 75.33 38.08 74.94C37.65 74.57 36.97 74.63 36.6 75.09Z" fill="#1A53F6" stroke="#1B54F8" stroke-width="0.5"></path></g></svg> 