<?xml version="1.0" encoding="UTF-8"?> <svg xmlns="http://www.w3.org/2000/svg" width="90" height="91" viewBox="0 0 90 91" fill="none"><mask id="mask0_2_181" style="mask-type:luminance" maskUnits="userSpaceOnUse" x="0" y="0" width="90" height="91"><path d="M90 0.470001H0V90.47H90V0.470001Z" fill="white"></path></mask><g mask="url(#mask0_2_181)"><path d="M87.04 42.64V21.83C89.01 21.27 90.42 19.44 90.42 17.19C90.42 14.52 88.31 12.41 85.64 12.41C82.97 12.41 80.86 14.52 80.86 17.19C80.86 19.3 82.27 21.13 84.24 21.83V42.08L80.72 45.46C80.3 43.77 79.31 42.23 77.91 41.1C76.36 39.69 74.68 38.85 72.71 38.57L76.23 35.05C76.51 34.77 76.65 34.49 76.65 34.07V12.69C78.62 12.13 80.03 10.3 80.03 8.04999C80.03 5.37999 77.92 3.26999 75.25 3.26999C72.58 3.26999 70.47 5.37999 70.47 8.04999C70.47 10.16 71.88 11.99 73.85 12.69V33.36L69.91 37.3C67.52 31.82 60.91 29.28 55.29 31.82V12.41C57.26 11.85 58.67 10.02 58.67 7.76999C58.67 5.09999 56.56 2.98999 53.89 2.98999C51.22 2.98999 49.11 5.09999 49.11 7.76999C49.11 9.87999 50.52 11.71 52.49 12.41V30.13C49.4 27.46 45.04 27.04 41.52 28.86V12.41C43.49 11.85 44.9 10.02 44.9 7.76999C44.9 5.09999 42.79 2.98999 40.12 2.98999C37.45 2.98999 35.34 5.09999 35.34 7.76999C35.34 9.87999 36.75 11.71 38.72 12.41V28.16C32.11 23.1 22.13 26.47 20.02 34.77L16.79 31.39V11.14C18.76 10.44 20.17 8.61 20.17 6.5C20.17 3.83 18.06 1.72 15.39 1.72C12.72 1.72 10.47 3.83 10.47 6.5C10.47 8.61 11.88 10.44 13.85 11.14V31.95C13.85 32.37 13.99 32.65 14.27 32.93L17.79 36.45C13.43 37.15 10.2 40.53 9.63 44.75L6.67999 41.8V21.55C8.64999 20.99 10.06 19.16 10.06 16.91C10.06 14.24 7.95 12.13 5.28 12.13C2.61 12.13 0.5 14.38 0.5 17.05C0.5 19.16 1.91 20.99 3.88 21.69V42.5C3.88 42.92 4.02 43.2 4.3 43.48L8.52 47.7C4.16 49.53 2.33 53.89 2.61 57.54C3.03 61.9 6.27 66.68 12.45 66.68H23.98V71.46C23.98 72.16 24.4 72.73 25.1 72.87L28.19 73.43C28.47 74.55 29.03 75.68 29.6 76.81L27.91 79.2C27.49 79.76 27.63 80.47 28.05 81.03L32.27 85.39C32.69 85.81 33.54 85.95 34.1 85.53L36.63 83.7C37.75 84.26 38.74 84.68 40.01 85.11L40.57 88.2C40.71 88.9 41.27 89.32 41.98 89.32H48.03C48.73 89.32 49.3 88.9 49.44 88.2L50 85.11C51.12 84.83 52.25 84.27 53.38 83.7L55.91 85.53C56.47 85.95 57.18 85.81 57.74 85.39L62.1 81.03C62.52 80.61 62.66 79.76 62.24 79.2L60.41 76.67C60.97 75.55 61.39 74.56 61.82 73.29L64.91 72.73C65.61 72.59 66.03 72.03 66.03 71.32V66.54H77.56C83.47 66.54 86.7 62.18 87.4 57.96C87.96 54.3 86.42 49.94 82.34 47.84L86.84 43.34C86.9 43.34 87.04 42.92 87.04 42.64ZM73.26 8.18997C73.26 7.06997 74.1 6.22 75.23 6.22C76.36 6.22 77.2 7.05997 77.2 8.18997C77.2 9.31997 76.36 10.16 75.23 10.16C74.1 10.16 73.26 9.30997 73.26 8.18997ZM13.21 6.5C13.21 5.38 14.05 4.53 15.18 4.53C16.31 4.53 17.15 5.37 17.15 6.5C17.15 7.63 16.31 8.47 15.18 8.47C14.2 8.47 13.21 7.62 13.21 6.5ZM3.23 17.05C3.23 15.93 4.07 15.08 5.2 15.08C6.33 15.08 7.17 15.92 7.17 17.05C7.17 18.18 6.33 19.02 5.2 19.02C4.07 19.02 3.23 18.03 3.23 17.05ZM52.03 7.76999C52.03 6.64999 52.87 5.79999 54 5.79999C55.13 5.79999 55.97 6.63999 55.97 7.76999C55.97 8.89999 55.13 9.73999 54 9.73999C52.87 9.73999 52.03 8.88999 52.03 7.76999ZM38.25 7.76999C38.25 6.64999 39.09 5.79999 40.22 5.79999C41.35 5.79999 42.19 6.63999 42.19 7.76999C42.19 8.89999 41.35 9.73999 40.22 9.73999C39.09 9.86999 38.25 8.88999 38.25 7.76999ZM63 70.2L60.19 70.62C59.63 70.76 59.21 71.18 59.07 71.74C58.79 73.15 58.23 74.55 57.38 75.96C57.1 76.38 57.1 77.08 57.38 77.51L58.93 79.76L56.26 82.43L54.01 80.88C53.59 80.6 52.89 80.6 52.46 80.88C51.19 81.72 49.79 82.29 48.24 82.57C47.68 82.71 47.26 83.13 47.12 83.69L46.7 86.5H43.04L42.62 83.69C42.48 83.13 42.06 82.71 41.5 82.57C39.95 82.15 38.55 81.59 37.28 80.88C36.86 80.6 36.16 80.6 35.73 80.88L33.48 82.43L30.81 79.76L32.36 77.51C32.64 77.09 32.64 76.39 32.36 75.96C31.52 74.69 30.95 73.29 30.67 71.74C30.53 71.18 30.11 70.76 29.55 70.62L26.74 70.2V66.54L29.55 65.98C30.11 65.84 30.53 65.42 30.67 64.86C30.95 63.45 31.65 61.91 32.36 60.64C32.64 60.22 32.64 59.52 32.36 59.09L30.81 56.84L33.48 54.17L35.73 55.72C36.15 56 36.71 56 37.28 55.72C38.55 54.88 39.95 54.31 41.5 54.03C42.06 53.89 42.48 53.47 42.62 52.91L43.04 50.1H46.84L47.26 52.91C47.4 53.47 47.82 53.89 48.38 54.03C49.93 54.45 51.33 55.01 52.6 55.72C53.02 56 53.72 56 54.15 55.72L56.4 54.17L59.07 56.84L57.52 59.09C57.24 59.51 57.24 60.21 57.52 60.64C58.36 61.91 58.93 63.31 59.21 64.86C59.35 65.42 59.77 65.84 60.33 65.98L63.14 66.54V70.2H63ZM84.37 57.83C83.95 60.92 81.56 64.02 77.34 64.02H64.12L61.59 63.6C61.31 62.48 60.75 61.35 60.18 60.22L62.01 57.69C62.43 57.13 62.29 56.42 61.87 55.86L57.51 51.64C57.09 51.22 56.24 51.08 55.68 51.5L53.15 53.19C52.17 52.63 51.04 52.21 49.77 51.78L49.21 48.69C49.07 47.99 48.51 47.57 47.8 47.57H41.75C41.05 47.57 40.48 47.99 40.34 48.69L39.78 51.78C38.66 52.06 37.53 52.62 36.4 53.19L34.15 51.36C33.59 50.94 32.88 51.08 32.32 51.5L28.1 55.72C27.68 56.14 27.54 56.99 27.96 57.55L29.79 60.08C29.23 61.2 28.81 62.19 28.38 63.46L25.57 64.02C25.01 63.88 26.69 64.02 12.63 64.02C8.13 64.02 5.88001 60.79 5.60001 57.41C4.76001 47.14 19.66 47.43 19.66 56.85C19.66 57.69 20.22 58.26 21.07 58.26C21.92 58.26 22.48 57.7 22.48 56.85C22.48 50.8 17 46.58 12.5 47.01C11.94 42.51 16.02 38.29 21.08 39.28C21.92 39.42 22.77 38.72 22.77 37.73C22.77 29.29 33.18 25.64 38.66 31.68C38.66 31.68 38.66 31.82 38.8 31.82C43.72 37.59 39.64 46.73 31.91 46.73C31.07 46.73 30.5 47.29 30.5 48.14C30.5 48.99 31.06 49.55 31.91 49.55C40.91 49.55 46.68 39.85 42.32 31.97C43.87 30.85 45.84 30.28 47.8 30.7C53.14 31.68 52.3 36.32 54.69 35.62C55.39 35.48 58.35 32.39 63.13 34.21C65.38 35.05 67.21 36.88 67.91 39.13C64.11 40.54 61.72 44.19 61.72 48.27C61.72 49.11 62.28 49.68 63.13 49.68C63.98 49.68 64.54 49.12 64.54 48.27C64.54 42.22 71.71 38.85 76.35 43.35C77.9 44.76 78.74 46.87 78.6 48.55C78.46 49.25 79.02 49.96 79.58 50.1C83.39 51.08 84.79 54.73 84.37 57.83ZM83.53 17.19C83.53 16.07 84.37 15.22 85.5 15.22C86.63 15.22 87.47 16.06 87.47 17.19C87.47 18.32 86.63 19.16 85.5 19.16C84.51 19.16 83.53 18.31 83.53 17.19Z" fill="#1B54F8" stroke="white" stroke-width="0.25" stroke-miterlimit="10"></path><path d="M45 57.55C39.09 57.55 34.17 62.47 34.17 68.38C34.17 74.29 39.09 79.21 45 79.21C50.91 79.21 55.83 74.29 55.83 68.38C55.83 62.47 50.9 57.55 45 57.55ZM45 76.39C40.64 76.39 36.98 72.73 36.98 68.37C36.98 64.01 40.64 60.35 45 60.35C49.36 60.35 53.02 64.01 53.02 68.37C53.01 72.87 49.36 76.39 45 76.39Z" fill="#1B54F8" stroke="white" stroke-width="0.25" stroke-miterlimit="10"></path></g></svg> 