<?xml version="1.0" encoding="UTF-8"?> <svg xmlns="http://www.w3.org/2000/svg" width="90" height="90" viewBox="0 0 90 90" fill="none"><mask id="mask0_1_21" style="mask-type:luminance" maskUnits="userSpaceOnUse" x="0" y="0" width="90" height="90"><path d="M90 0H0V90H90V0Z" fill="white"></path></mask><g mask="url(#mask0_1_21)"><path d="M87.8 33.2C88.6 33.2 89.3 32.5 89.3 31.7V22.9C89.3 22.1 88.6 21.4 87.8 21.4H84.9V11.1C84.9 10.4 84.4 9.80001 83.8 9.70001L45.5 0.899963C45.3 0.899963 45.1 0.899963 44.8 0.899963L6.5 9.70001C5.8 9.90001 5.4 10.5 5.4 11.1V21.4H2.5C1.7 21.4 1 22.1 1 22.9V31.7C1 32.5 1.7 33.2 2.5 33.2H8.4V71.5H6.9C6.1 71.5 5.4 72.2 5.4 73V80.4H2.5C1.7 80.4 1 81.1 1 81.9V87.8C1 88.6 1.7 89.3 2.5 89.3H88C88.8 89.3 89.5 88.6 89.5 87.8V81.9C89.5 81.1 88.8 80.4 88 80.4H85.1V73C85.1 72.2 84.4 71.5 83.6 71.5H81.9V33.2H87.8ZM8.1 12.2L45 3.70001L81.9 12.2V21.3H8.1V12.2ZM3.7 24.3H86.3V30.2H3.7V24.3ZM22.9 71.5V33.2H67.1V71.5H22.9ZM11.1 33.2H19.9V71.5H11.1V33.2ZM86.3 86.2H3.7V83.3H86.3V86.2ZM8.1 80.3V74.4H81.9V80.3H8.1ZM78.9 71.5H70.1V33.2H78.9V71.5Z" fill="#1B54F8"></path><path d="M45 6.59998C41.7 6.59998 39.1 9.2 39.1 12.5C39.1 15.8 41.7 18.4 45 18.4C48.3 18.4 50.9 15.8 50.9 12.5C50.9 9.3 48.2 6.59998 45 6.59998ZM45 15.5C43.4 15.5 42.1 14.2 42.1 12.6C42.1 11 43.4 9.70001 45 9.70001C46.6 9.70001 47.9 11 47.9 12.6C47.9 14.2 46.6 15.5 45 15.5Z" fill="#1B54F8"></path><path d="M45 47.9C45.8 47.9 46.5 48.6 46.5 49.4H49.4C49.4 47.5 48.2 45.9 46.5 45.2V43.5H43.6V45.2C41.3 46 40.1 48.5 40.9 50.8C41.5 52.6 43.2 53.8 45.1 53.7C45.9 53.7 46.6 54.4 46.6 55.2C46.6 56 45.9 56.7 45.1 56.7C44.3 56.7 43.6 56 43.6 55.2H40.7C40.7 57.1 41.9 58.7 43.6 59.4V61.1H46.5V59.4C48.8 58.6 50 56.1 49.2 53.8C48.6 52 46.9 50.8 45 50.9C44.2 50.9 43.5 50.2 43.5 49.4C43.5 48.6 44.2 47.9 45 47.9Z" fill="#1B54F8"></path><path d="M45 39.1C37.7 39.1 31.7 45 31.7 52.4C31.7 59.8 37.6 65.7 45 65.7C52.3 65.7 58.3 59.8 58.3 52.4C58.3 45 52.3 39.1 45 39.1ZM45 62.7C39.3 62.7 34.7 58.1 34.7 52.4C34.7 46.7 39.3 42.1 45 42.1C50.7 42.1 55.3 46.7 55.3 52.4C55.3 58 50.7 62.6 45 62.7Z" fill="#1B54F8"></path><path d="M53.8 50.9H50.9V53.8H53.8V50.9Z" fill="#1B54F8"></path><path d="M39 50.9H36.1V53.8H39V50.9Z" fill="#1B54F8"></path></g></svg> 