<?xml version="1.0" encoding="UTF-8"?> <svg xmlns="http://www.w3.org/2000/svg" xmlns:xlink="http://www.w3.org/1999/xlink" width="60" height="60" viewBox="0 0 60 60"><defs><clipPath id="clip-path"><rect id="Rectangle_17" data-name="Rectangle 17" width="60" height="60" transform="translate(1188 374)" fill="#fff" stroke="#707070" stroke-width="1"></rect></clipPath></defs><g id="Mask_Group_17" data-name="Mask Group 17" transform="translate(-1188 -374)" clip-path="url(#clip-path)"><g id="Group_7" data-name="Group 7" transform="translate(0 7.767)"><g id="Group_5" data-name="Group 5" transform="translate(-63 7.654)"><path id="Path_72" data-name="Path 72" d="M18.318,9.275,9.687,14.134.445,8.942,0,9.182v3.769l9.687,5.432,8.631-4.841v2L9.687,20.4.445,15.205,0,15.446v.647l9.687,5.432,9.668-5.432V12.323l-.444-.24L9.687,17.256,1.037,12.416v-2l8.649,4.841,9.668-5.432V6.115l-.482-.277L9.687,10.993l-8.2-4.582,8.2-4.6L16.428,5.6l.593-.333V4.8L9.687.684,0,6.115v.591l9.687,5.432,8.631-4.859Z" transform="translate(1271 370.896)" fill="#ee3d2c"></path></g><g id="Group_6" data-name="Group 6" transform="translate(-104.151 33)"><path id="Path_73" data-name="Path 73" d="M31.057,9.819V1.852H29.83V4.833a.1.1,0,0,1-.071.1.108.108,0,0,1-.116-.027,2.318,2.318,0,0,0-1.779-.763,2.786,2.786,0,0,0-2.713,2.91,3.008,3.008,0,0,0,.783,2.076,2.614,2.614,0,0,0,1.93.834,2.314,2.314,0,0,0,1.779-.8.117.117,0,0,1,.116-.035.1.1,0,0,1,.071.1v.594Zm-2.926-.967a1.753,1.753,0,0,1-1.743-1.8,1.744,1.744,0,1,1,3.487,0A1.753,1.753,0,0,1,28.131,8.852Z" transform="translate(1271 370.896)"></path><path id="Path_74" data-name="Path 74" d="M44.736,12.288V6.743H43.517V7.3a.1.1,0,0,1-.071.1.1.1,0,0,1-.116-.035A2.278,2.278,0,0,0,41.551,6.6a2.786,2.786,0,0,0-2.713,2.91,2.786,2.786,0,0,0,2.713,2.91,2.293,2.293,0,0,0,1.779-.807.117.117,0,0,1,.116-.035.1.1,0,0,1,.071.1v.6h1.219Zm-2.909-.967a1.753,1.753,0,0,1-1.743-1.8,1.744,1.744,0,1,1,3.487,0A1.753,1.753,0,0,1,41.827,11.321Z" transform="translate(1263.886 368.428)"></path><path id="Path_75" data-name="Path 75" d="M66.46,12.288V6.743H65.242V7.3a.1.1,0,0,1-.071.1.1.1,0,0,1-.116-.035A2.278,2.278,0,0,0,63.276,6.6,2.783,2.783,0,0,0,60.563,9.52a2.781,2.781,0,0,0,2.713,2.91,2.292,2.292,0,0,0,1.779-.807.117.117,0,0,1,.116-.035.1.1,0,0,1,.071.1v.6Zm-2.909-.967a1.753,1.753,0,0,1-1.743-1.8,1.744,1.744,0,1,1,3.487,0A1.753,1.753,0,0,1,63.552,11.321Z" transform="translate(1252.594 368.428)"></path><path id="Path_76" data-name="Path 76" d="M76.087,9.163c.009,0,.027-.009.036-.009a.133.133,0,0,1,.08.035,2.318,2.318,0,0,0,1.779.763,2.786,2.786,0,0,0,2.713-2.91,3.009,3.009,0,0,0-.783-2.076,2.614,2.614,0,0,0-1.93-.834,2.314,2.314,0,0,0-1.779.8.111.111,0,0,1-.116.035.1.1,0,0,1-.071-.1V1.852H74.788V9.819h1.227V9.26A.1.1,0,0,1,76.087,9.163Zm-.125-2.112a1.744,1.744,0,1,1,3.487,0,1.744,1.744,0,1,1-3.487,0Z" transform="translate(1245.201 370.896)"></path><path id="Path_77" data-name="Path 77" d="M91.377,7.909a1.324,1.324,0,0,1,.294.027V6.676a1.164,1.164,0,0,0-.2-.018,1.786,1.786,0,0,0-1.539.852.091.091,0,0,1-.116.044.1.1,0,0,1-.08-.1V6.774H88.513v5.554H89.74V9.879C89.74,8.663,90.363,7.909,91.377,7.909Z" transform="translate(1238.067 368.398)"></path><path id="Path_78" data-name="Path 78" d="M97.944,6.9H96.7v5.554h1.245Z" transform="translate(1233.813 368.273)"></path><path id="Path_79" data-name="Path 79" d="M97.139,1.87a.754.754,0,1,0,.756.754A.754.754,0,0,0,97.139,1.87Z" transform="translate(1233.976 370.886)"></path><path id="Path_80" data-name="Path 80" d="M103.7,6.6a2.833,2.833,0,0,0-2.944,2.919,2.814,2.814,0,0,0,2.935,2.919,3.358,3.358,0,0,0,2.242-.878l-.7-.736a2.566,2.566,0,0,1-1.414.488,1.792,1.792,0,1,1,0-3.585,2.326,2.326,0,0,1,1.4.488l.782-.736A3.36,3.36,0,0,0,103.7,6.6Z" transform="translate(1231.704 368.428)"></path><path id="Path_81" data-name="Path 81" d="M114.418,7.389a.1.1,0,0,1,.072-.027h.009a.16.16,0,0,1,.08.035l1.966,2.431h1.512l-2.544-3.07a.1.1,0,0,1,.009-.142l2.339-2.334h-1.5l-2.019,2.023a.129.129,0,0,1-.116.027.109.109,0,0,1-.062-.1V1.87h-1.236V9.838h1.228V7.673a.1.1,0,0,1,.036-.08Z" transform="translate(1225.379 370.886)"></path><path id="Path_82" data-name="Path 82" d="M125.476,12.42a1.863,1.863,0,0,0,2.028-1.775c0-.763-.48-1.287-1.458-1.606l-.668-.222c-.453-.151-.667-.364-.667-.657,0-.337.3-.568.729-.568a1.158,1.158,0,0,1,1.005.728l.987-.532a2.178,2.178,0,0,0-1.993-1.207,1.744,1.744,0,0,0-1.9,1.677c0,.772.462,1.287,1.414,1.588l.685.222c.48.151.685.346.685.657,0,.47-.436.639-.81.639a1.264,1.264,0,0,1-1.156-.843l-1.005.532A2.2,2.2,0,0,0,125.476,12.42Z" transform="translate(1219.96 368.437)"></path><path id="Path_83" data-name="Path 83" d="M55.256,10.677a7.207,7.207,0,0,0,.934-.062V9.55c-.16.018-.445.035-.614.035-.5,0-.881-.089-.881-1.162V6.143a.1.1,0,0,1,.107-.106H56v-1H54.8a.1.1,0,0,1-.107-.106V3.33H53.468V4.936a.1.1,0,0,1-.107.106h-.854v1h.854a.1.1,0,0,1,.107.106V8.734C53.468,10.677,54.767,10.677,55.256,10.677Z" transform="translate(1256.781 370.128)"></path></g></g></g></svg> 