<?xml version="1.0" encoding="UTF-8"?> <svg xmlns="http://www.w3.org/2000/svg" xmlns:xlink="http://www.w3.org/1999/xlink" width="90" height="90" viewBox="0 0 90 90"><defs><clipPath id="clip-path"><rect id="Rectangle_29" data-name="Rectangle 29" width="90" height="90" transform="translate(791 702)" fill="#fff" stroke="#707070" stroke-width="1"></rect></clipPath></defs><g id="Mask_Group_3" data-name="Mask Group 3" transform="translate(-791 -702)" clip-path="url(#clip-path)"><g id="Supply_Chain" data-name="Supply Chain" transform="translate(795.5 718.5)"><g id="Transportation"><path id="Shape" d="M7.23,64.455V18.647A1.7,1.7,0,0,1,8.926,17H58.684a1.7,1.7,0,0,1,1.7,1.709v10.1H79.162a1.709,1.709,0,0,1,1.449.8l7.515,12.145a1.77,1.77,0,0,1,.248.9v21.79a1.7,1.7,0,0,1-1.7,1.709H81.725a9.446,9.446,0,0,1-18.571,0H35.99a9.446,9.446,0,0,1-18.571,0H8.926a1.7,1.7,0,0,1-1.7-1.709Zm65.147-9.521a9.508,9.508,0,0,1,9.31,7.874h3.256V44.423H60.38V62.808h2.687A9.508,9.508,0,0,1,72.377,55Zm5.844-22.756H60.343v8.815H83.705Zm-5.844,38.38a6.1,6.1,0,1,0-6-6.091,6.1,6.1,0,0,0,6,6.091Zm-45.7,0a6.067,6.067,0,0,0,5.608-3.714A6.19,6.19,0,0,0,30.964,60.2a6.017,6.017,0,0,0-6.611-1.312A6.1,6.1,0,0,0,26.68,70.621Zm0-15.624a9.508,9.508,0,0,1,9.31,7.874H56.976V20.355H10.659V62.808h6.735A9.508,9.508,0,0,1,26.7,55Z" transform="translate(-7.23 -17)" fill="#1b54f8"></path><path id="Path" d="M41.479,25.86,27.39,40.023l-7.738-7.775-2.4,2.427L27.39,44.864l16.491-16.59Z" transform="translate(-4.845 -14.891)" fill="#1b54f8"></path></g></g></g></svg> 