<?xml version="1.0" encoding="UTF-8"?> <svg xmlns="http://www.w3.org/2000/svg" xmlns:xlink="http://www.w3.org/1999/xlink" width="60" height="60" viewBox="0 0 60 60"><defs><clipPath id="clip-path"><rect id="Rectangle_816" data-name="Rectangle 816" width="60" height="60" transform="translate(544 264)" fill="#fff" stroke="#707070" stroke-width="1"></rect></clipPath><clipPath id="clip-path-2"><rect id="Rectangle_85" data-name="Rectangle 85" width="60" height="60" transform="translate(608 202)" fill="#fff" stroke="#707070" stroke-width="1"></rect></clipPath></defs><g id="Mask_Group_55" data-name="Mask Group 55" transform="translate(-544 -264)" clip-path="url(#clip-path)"><g id="docker-4" transform="translate(546.039 156.393)"><path id="Path_65" data-name="Path 65" d="M56.281,206.685a7.536,7.536,0,0,0-4.642-1.2,14.942,14.942,0,0,0-2.4.208,8.939,8.939,0,0,0-4.062-6.016l-.818-.469-.528.755A11.063,11.063,0,0,0,42.38,203.3a7.828,7.828,0,0,0,.95,6.224,11.308,11.308,0,0,1-4.141.99H1.732a1.756,1.756,0,0,0-1.767,1.745A26.052,26.052,0,0,0,1.6,221.764a14.284,14.284,0,0,0,5.7,7.318c2.8,1.693,7.359,2.656,12.5,2.656a38.822,38.822,0,0,0,6.937-.625,28.87,28.87,0,0,0,9.074-3.255,24.773,24.773,0,0,0,6.172-5,33.054,33.054,0,0,0,6.041-10.287h.528a8.737,8.737,0,0,0,6.357-2.37,6.934,6.934,0,0,0,1.688-2.448l.237-.677Z" transform="translate(0 -73.843)" fill="#0091e2"></path><path id="Path_66" data-name="Path 66" d="M50.926,135.6h5.012a.442.442,0,0,0,.449-.443v-4.427a.442.442,0,0,0-.449-.443H50.926a.442.442,0,0,0-.448.443v4.427a.459.459,0,0,0,.448.443Zm6.911,0h5.012a.442.442,0,0,0,.448-.443v-4.427a.442.442,0,0,0-.448-.443H57.837a.442.442,0,0,0-.448.443v4.427a.459.459,0,0,0,.448.443m7.043,0h5.012a.442.442,0,0,0,.448-.443v-4.427a.442.442,0,0,0-.448-.443H64.88a.442.442,0,0,0-.448.443v4.427A.427.427,0,0,0,64.88,135.6Zm6.937,0H76.83a.442.442,0,0,0,.448-.443v-4.427a.442.442,0,0,0-.448-.443H71.818a.442.442,0,0,0-.448.443v4.427A.442.442,0,0,0,71.818,135.6Zm-13.98-6.329h5.012a.459.459,0,0,0,.448-.443V124.4a.442.442,0,0,0-.448-.443H57.837a.442.442,0,0,0-.448.443v4.427a.479.479,0,0,0,.448.443m7.043,0h5.012a.459.459,0,0,0,.448-.443V124.4a.442.442,0,0,0-.448-.443H64.88a.442.442,0,0,0-.448.443v4.427a.442.442,0,0,0,.448.443m6.937,0H76.83a.459.459,0,0,0,.448-.443V124.4a.459.459,0,0,0-.448-.443H71.818a.442.442,0,0,0-.448.443v4.427a.459.459,0,0,0,.448.443m0-6.355H76.83a.442.442,0,0,0,.448-.443V118.05a.459.459,0,0,0-.448-.443H71.818a.442.442,0,0,0-.448.443v4.427a.459.459,0,0,0,.448.443m6.99,12.683H83.82a.442.442,0,0,0,.448-.443v-4.427a.442.442,0,0,0-.448-.443H78.808a.442.442,0,0,0-.449.443v4.427a.459.459,0,0,0,.449.443" transform="translate(-45.713 0)" fill="#0091e2"></path></g></g></svg> 