<?xml version="1.0" encoding="UTF-8"?> <svg xmlns="http://www.w3.org/2000/svg" xmlns:xlink="http://www.w3.org/1999/xlink" width="80" height="80" viewBox="0 0 80 80"><defs><clipPath id="clip-path"><rect id="Rectangle_2" data-name="Rectangle 2" width="80" height="80" transform="translate(389 132)" fill="#fff" stroke="#707070" stroke-width="1"></rect></clipPath></defs><g id="Mask_Group_2" data-name="Mask Group 2" transform="translate(-389 -132)" clip-path="url(#clip-path)"><g id="Group_2" data-name="Group 2" transform="translate(82.169 -151)"><path id="Path_11" data-name="Path 11" d="M58.083,57.964h-.05l-21.9-.239a4.46,4.46,0,0,1-4.413-4.512l.157-13.641a4.469,4.469,0,0,1,4.462-4.411h.049l21.9.239A4.461,4.461,0,0,1,62.7,39.913l-.156,13.641A4.467,4.467,0,0,1,58.083,57.964ZM36.339,36.782a2.843,2.843,0,0,0-2.84,2.807l-.157,13.642A2.838,2.838,0,0,0,36.15,56.1l21.9.239h.032a2.842,2.842,0,0,0,2.839-2.806l.156-13.641a2.839,2.839,0,0,0-2.808-2.873l-21.9-.239Z" transform="translate(299.715 276.182)" fill="#1c54f8" stroke="#1c54f7" stroke-width="0.4"></path><path id="Path_12" data-name="Path 12" d="M55.837,35.817l-12.383-.135.024-2.087a4.594,4.594,0,0,1,4.653-4.55l3.178.034a4.6,4.6,0,0,1,4.552,4.656ZM45.1,34.077l9.139.1,0-.46A2.979,2.979,0,0,0,51.292,30.7l-3.178-.034A2.954,2.954,0,0,0,45.1,33.613Z" transform="translate(297.5 277.336)" fill="#1c54f8" stroke="#1c54f7" stroke-width="0.4"></path><rect id="Rectangle_7" data-name="Rectangle 7" width="21.516" height="1.623" transform="translate(338.636 333.796) rotate(-89.33)" fill="#1c54f8" stroke="#1c54f7" stroke-width="0.4"></rect><rect id="Rectangle_8" data-name="Rectangle 8" width="20.592" height="1.623" transform="translate(353.513 333.034) rotate(-89.33)" fill="#1c54f8" stroke="#1c54f7" stroke-width="0.4"></rect><path id="Path_13" data-name="Path 13" d="M68.187,61.439H22.239V30.269A22.673,22.673,0,0,1,44.886,7.621h.653A22.673,22.673,0,0,1,68.187,30.269ZM23.862,59.817h42.7V30.269A21.049,21.049,0,0,0,45.539,9.244h-.653A21.048,21.048,0,0,0,23.862,30.269V59.817Z" transform="translate(301.504 281.379)" fill="#1c54f8" stroke="#1c54f7" stroke-width="0.4"></path><path id="Path_14" data-name="Path 14" d="M72.69,81.419H14.952v-9.4H72.69ZM16.575,79.8H71.068V73.646H16.575Z" transform="translate(302.879 269.225)" fill="#1c54f8" stroke="#1c54f7" stroke-width="0.4"></path><path id="Path_15" data-name="Path 15" d="M28.218,90.438a4.173,4.173,0,1,1,4.173-4.172A4.177,4.177,0,0,1,28.218,90.438Zm0-6.722a2.55,2.55,0,1,0,2.551,2.551A2.553,2.553,0,0,0,28.218,83.715Z" transform="translate(301.163 267.325)" fill="#1c54f8" stroke="#1c54f7" stroke-width="0.4"></path><path id="Path_16" data-name="Path 16" d="M70.527,90.438A4.173,4.173,0,1,1,74.7,86.265,4.178,4.178,0,0,1,70.527,90.438Zm0-6.722a2.55,2.55,0,1,0,2.551,2.551A2.554,2.554,0,0,0,70.527,83.715Z" transform="translate(293.179 267.325)" fill="#1c54f8" stroke="#1c54f7" stroke-width="0.4"></path><rect id="Rectangle_9" data-name="Rectangle 9" width="34.429" height="1.623" transform="translate(330.812 345.135)" fill="#1c54f8" stroke="#1c54f7" stroke-width="0.4"></rect><path id="Path_17" data-name="Path 17" d="M65.643,71.176H25.954V61.849H65.643ZM27.577,69.553H64.02V63.472H27.577Z" transform="translate(300.803 271.145)" fill="#1c54f8" stroke="#1c54f7" stroke-width="0.4"></path><rect id="Rectangle_10" data-name="Rectangle 10" width="1.623" height="7.943" transform="translate(331.362 334.064)" fill="#1c54f8" stroke="#1c54f7" stroke-width="0.4"></rect><rect id="Rectangle_11" data-name="Rectangle 11" width="1.623" height="8.201" transform="translate(360.4 333.806)" fill="#1c54f8" stroke="#1c54f7" stroke-width="0.4"></rect></g></g></svg> 