<?xml version="1.0" encoding="UTF-8"?> <svg xmlns="http://www.w3.org/2000/svg" width="90" height="90" viewBox="0 0 90 90" fill="none"><g clip-path="url(#clip0_23_533)"><mask id="mask0_23_533" style="mask-type:luminance" maskUnits="userSpaceOnUse" x="0" y="0" width="90" height="90"><path d="M90 0H0V90H90V0Z" fill="white"></path></mask><g mask="url(#mask0_23_533)"><path d="M85.9 53.3C84.9 51 82.2001 49.9 79.9 50.9C79.9 50.9 79.9 50.9 79.8 50.9L64 57.8C64.1 55 61.9001 52.6 59 52.5C58.9001 52.5 58.9 52.5 58.8 52.5H50.6C46.8 52.6 41.5 51 37.8 50.2C32.1 48.9 26.2001 49.6 21 52.3L15.2 55.3C15.2 53.3 13.6 51.7 11.6 51.7H7.40005C5.40005 51.7 3.80005 53.3 3.80005 55.3V78.4C3.80005 80.4 5.40005 82 7.40005 82H11.7C13.7 82 15.3 80.4 15.3 78.4V77.4C20 74.5 25.4 73 30.9 72.8C34.3 72.9 37.6 73.4 40.8 74.5C43 75.3 49.4001 74.8 51.7001 74.9C53.8 74.9 55.8 74.4 57.6 73.4L83.8 59.2C85.9 58 86.8 55.5 85.9 53.3ZM12.4 78.3C12.4 78.7 12.1 79 11.7 79H7.40005C7.00005 79 6.70005 78.7 6.70005 78.3V55.2C6.70005 54.8 7.00005 54.5 7.40005 54.5H11.7C12.1 54.5 12.4 54.8 12.4 55.2V78.3ZM82.4 56.5L56.2001 70.7C54.8 71.4 53.3 71.8 51.7001 71.8H44C42.1 71.6 40.1 71.2 38.3 70.6C31.2 68.8 23.8 69.7 17.3 73L15.4 74V58.5L22.5 54.8C27 52.4 32.2001 51.8 37.2001 53C41.2001 54 46.6001 55.5 50.7001 55.4H58.9001C60.1001 55.4 61.1 56.4 61.1 57.7C61.1 58.8 60.3 59.7 59.2001 59.9L58.4001 60C54.1001 60.8 46.9001 60.5 42.4001 60.6C41.6001 60.6 40.9001 61.3 40.9001 62.1C40.9001 62.9 41.6001 63.6 42.4001 63.6C47.4001 63.6 54.8 63.9 59.7001 62.9C59.9001 63.2 80.2 54.1 81 53.8C81.8 53.4 82.7 53.8 83.1 54.6C83.4 55.2 83.1 56.1 82.4 56.5Z" fill="#1B54F8"></path></g><mask id="mask1_23_533" style="mask-type:luminance" maskUnits="userSpaceOnUse" x="0" y="0" width="90" height="90"><path d="M90 0H0V90H90V0Z" fill="white"></path></mask><g mask="url(#mask1_23_533)"><path d="M36.4 33.6L50.1 45.1C50.7 45.6 51.5 45.6 52.1 45L65.7 32.2C71.1 27.2 74.4 19.3 70.1 12.8C66.7 7.40001 59.5 5.70001 54 9.10001C52.5 10 51.3 11.2 50.3 12.7C48.4 10 45.5 8.10001 42.2 7.60001C36.6 6.90001 32 11.2 31.8 11.4C25.6 17.4 29.9 28.5 36.4 33.6ZM34 13.5C38.1 9.80001 44.7 8.50001 49.1 16.1C49.5 16.8 50.5 17 51.2 16.5C51.4 16.4 51.6 16.2 51.7 16C51.9 15.7 55.5 9.20001 61.7 10.4C64.2 10.9 66.3 12.4 67.7 14.5C71.2 19.9 68.1 26.1 63.8 30.2L51 42.1L38.3 31.4C33.1 27.3 29 18.3 34 13.5Z" fill="#1B54F8"></path></g><mask id="mask2_23_533" style="mask-type:luminance" maskUnits="userSpaceOnUse" x="0" y="0" width="90" height="90"><path d="M90 0H0V90H90V0Z" fill="white"></path></mask><g mask="url(#mask2_23_533)"><path d="M45.3 27.9H49V31.5C49 32.3 49.7 33 50.5 33C51.3 33 52 32.3 52 31.5V27.9H55.6C56.4 27.9 57.1 27.2 57.1 26.4C57.1 25.6 56.4 24.9 55.6 24.9H52V21.3C52 20.5 51.3 19.8 50.5 19.8C49.7 19.8 49 20.5 49 21.3V24.9H45.4C44.6 24.9 43.9 25.6 44 26.4C43.9 27.2 44.5 27.9 45.3 27.9Z" fill="#1B54F8"></path></g></g><defs><clipPath id="clip0_23_533"><rect width="90" height="90" fill="white"></rect></clipPath></defs></svg> 