<?xml version="1.0" encoding="UTF-8"?> <svg xmlns="http://www.w3.org/2000/svg" width="90" height="90" viewBox="0 0 90 90" fill="none"><path d="M40.4726 4.40744C36.6803 4.42772 33.0502 5.94846 30.3757 8.63728C27.7013 11.3261 26.2 14.9643 26.2001 18.7567V22.5039H15.1632C14.64 22.4908 14.1308 22.6738 13.7357 23.0169C13.3405 23.36 13.0879 23.8385 13.0274 24.3583L6.08296 75.898C5.9046 77.2443 6.01417 78.6131 6.4044 79.9139C6.79463 81.2147 7.45664 82.4178 8.34661 83.4436C9.2322 84.4653 10.3259 85.2859 11.5544 85.8506C12.783 86.4152 14.118 86.7108 15.4701 86.7175H74.5298C75.8818 86.7108 77.2169 86.4152 78.4454 85.8506C79.674 85.2859 80.7677 84.4653 81.6533 83.4436C82.5432 82.4178 83.2052 81.2147 83.5955 79.9139C83.9857 78.6131 84.0953 77.2443 83.9169 75.898L79.9651 46.7902C79.9034 46.2813 79.6596 45.8119 79.2788 45.4687C78.898 45.1255 78.4059 44.9317 77.8933 44.923H70.6675L67.8795 24.3583C67.8138 23.8498 67.5642 23.3829 67.1777 23.046C66.7913 22.709 66.2948 22.5253 65.7821 22.5295H54.7452V18.7567C54.7452 14.9643 53.244 11.3261 50.5695 8.63728C47.8951 5.94846 44.265 4.42772 40.4726 4.40744ZM30.4205 18.7567C30.4205 16.0907 31.4795 13.5339 33.3647 11.6488C35.2498 9.76361 37.8066 8.70455 40.4726 8.70455C43.1386 8.70455 45.6954 9.76361 47.5806 11.6488C49.4657 13.5339 50.5248 16.0907 50.5248 18.7567V22.5039H30.4205V18.7567ZM79.7221 76.4352C79.8237 77.1872 79.7621 77.9523 79.5414 78.6784C79.3207 79.4045 78.9461 80.0745 78.4432 80.6428C77.9537 81.2158 77.3458 81.6761 76.6614 81.9918C75.977 82.3075 75.2323 82.4712 74.4786 82.4716H43.785C43.0313 82.47 42.2868 82.3066 41.6016 81.9927C40.9165 81.6788 40.3066 81.2215 39.8133 80.6518C39.3199 80.0821 38.9545 79.4131 38.7417 78.6901C38.5289 77.9671 38.4737 77.2069 38.5798 76.4608L42.2759 49.1946H76.0389L79.7221 76.4352ZM66.4215 44.923H40.5238C40.0118 44.9216 39.5168 45.1063 39.1309 45.4427C38.745 45.7792 38.4946 46.2445 38.4264 46.7519L34.4874 75.898C34.1894 78.2061 34.7442 80.5436 36.0476 82.4716H15.4701C14.7198 82.4692 13.9788 82.3059 13.297 81.9926C12.6153 81.6793 12.0087 81.2234 11.5183 80.6556C11.0192 80.0874 10.647 79.4194 10.4265 78.6961C10.206 77.9727 10.1422 77.2107 10.2394 76.4608L16.992 26.7371H63.9405L66.4215 44.923Z" fill="#1B54F8" stroke="white" stroke-width="1.8"></path><path d="M59.1958 70.5778C60.6312 70.5745 62.0518 70.2882 63.3765 69.7354C64.7011 69.1827 65.9038 68.3742 66.9158 67.3563C67.9278 66.3384 68.7292 65.131 69.2742 63.8031C69.8192 62.4752 70.0971 61.053 70.0921 59.6176V57.9167C70.0921 57.357 69.8697 56.8203 69.474 56.4246C69.0783 56.0288 68.5415 55.8065 67.9819 55.8065C67.4222 55.8065 66.8855 56.0288 66.4898 56.4246C66.094 56.8203 65.8717 57.357 65.8717 57.9167V59.6176C65.8717 61.3882 65.1683 63.0862 63.9164 64.3382C62.6644 65.5901 60.9664 66.2935 59.1958 66.2935C57.4253 66.2935 55.7272 65.5901 54.4753 64.3382C53.2233 63.0862 52.52 61.3882 52.52 59.6176V57.9167C52.52 57.357 52.2976 56.8203 51.9019 56.4246C51.5062 56.0288 50.9694 55.8065 50.4098 55.8065C49.8501 55.8065 49.3134 56.0288 48.9176 56.4246C48.5219 56.8203 48.2996 57.357 48.2996 57.9167V59.6176C48.2928 62.5155 49.4366 65.2975 51.4796 67.3525C53.5227 69.4076 56.298 70.5676 59.1958 70.5778Z" fill="#1B54F8" stroke="white" stroke-width="1.8"></path><path d="M30.1518 39.0145C31.7128 39.0145 32.9782 37.7434 32.9782 36.1753C32.9782 34.6073 31.7128 33.3362 30.1518 33.3362C28.5908 33.3362 27.3254 34.6073 27.3254 36.1753C27.3254 37.7434 28.5908 39.0145 30.1518 39.0145Z" fill="#1B54F8" stroke="white" stroke-width="1.8"></path><path d="M50.8062 39.0145C52.3672 39.0145 53.6326 37.7434 53.6326 36.1753C53.6326 34.6073 52.3672 33.3362 50.8062 33.3362C49.2453 33.3362 47.9799 34.6073 47.9799 36.1753C47.9799 37.7434 49.2453 39.0145 50.8062 39.0145Z" fill="#1B54F8" stroke="white" stroke-width="1.8"></path></svg> 