<?xml version="1.0" encoding="UTF-8"?> <svg xmlns="http://www.w3.org/2000/svg" width="90" height="90" viewBox="0 0 90 90" fill="none"><path d="M74.6074 70.5707C73.5026 71.2868 72.2097 71.6579 70.8933 71.6366C70.8932 71.6366 70.893 71.6366 70.8928 71.6366L70.8961 71.4366C69.2075 71.4194 67.5943 70.7347 66.4088 69.5321C65.2233 68.3295 64.5618 66.7067 64.5688 65.018L74.6074 70.5707ZM74.6074 70.5707C75.7124 69.8546 76.5791 68.8257 77.0972 67.6151C77.6152 66.4046 77.7612 65.0673 77.5165 63.7735C77.2719 62.4797 76.6476 61.288 75.7232 60.3503C74.7988 59.4126 73.6162 58.7713 72.326 58.508C71.0359 58.2448 69.6966 58.3717 68.4788 58.8723C67.2609 59.373 66.2197 60.2249 65.4878 61.3195C64.756 62.4139 64.3664 63.7013 64.3688 65.0178L74.6074 70.5707ZM2.44846 65.0065H2.44846V65.005V16.7381C2.46123 16.3263 2.63365 15.9355 2.92935 15.6484C3.22573 15.3607 3.6226 15.1998 4.03567 15.2H4.03575H56.4673C56.6767 15.2 56.8841 15.2414 57.0774 15.3219C57.2707 15.4024 57.4462 15.5204 57.5938 15.669C57.7413 15.8176 57.858 15.994 57.9371 16.1879C58.0162 16.3818 58.0561 16.5895 58.0546 16.7989V16.8003V27.4458V27.6458H58.2546H78.0451C78.3166 27.646 78.5836 27.7153 78.821 27.8472C79.0582 27.979 79.258 28.1689 79.4016 28.3991C79.4017 28.3993 79.4018 28.3994 79.4019 28.3996L87.3185 41.1938C87.3188 41.1944 87.3191 41.1949 87.3194 41.1954C87.4714 41.4524 87.5515 41.7455 87.5514 42.0441L87.5514 65.005L87.5514 65.0065C87.5529 65.2159 87.513 65.4235 87.4339 65.6174L87.6191 65.693L87.4339 65.6175C87.3548 65.8114 87.2382 65.9877 87.0906 66.1363C86.9431 66.285 86.7676 66.4029 86.5742 66.4834C86.3809 66.5639 86.1735 66.6053 85.9641 66.6053H80.7457H80.5797L80.5491 66.7686C80.1308 69.0057 78.9434 71.0261 77.1924 72.48C75.4414 73.9339 73.2372 74.7297 70.9613 74.7297C68.6854 74.7297 66.4812 73.9339 64.7302 72.48C62.9792 71.0261 61.7918 69.0057 61.3735 66.7686L61.3429 66.6053H61.1769H32.5541H32.3881L32.3575 66.7686C31.9392 69.0057 30.7518 71.0261 29.0008 72.48C27.2498 73.9339 25.0456 74.7297 22.7697 74.7297C20.4938 74.7297 18.2895 73.9339 16.5386 72.48C14.7876 71.0261 13.6002 69.0057 13.1818 66.7686L13.1513 66.6053H12.9853H4.03575C3.82632 66.6053 3.61896 66.5639 3.42563 66.4834C3.23229 66.4029 3.05679 66.285 2.90925 66.1363C2.7617 65.9877 2.64502 65.8114 2.56594 65.6175C2.48685 65.4235 2.44693 65.2159 2.44846 65.0065ZM71.0961 55.1759C73.3257 55.2349 75.4712 56.0515 77.1773 57.4944C78.9346 58.9806 80.114 61.0369 80.5096 63.3043L80.5385 63.4699H80.7066H84.1377H84.3377V63.2699V43.8967V43.6967H84.1377H58.2546H58.0546V43.8967V63.2699V63.4699H58.2546H61.0855H61.2525L61.2823 63.3056C61.6912 61.05 62.8764 59.0085 64.6324 57.5351C66.3885 56.0616 68.6047 55.2489 70.897 55.2379L71.0961 55.237V55.1759ZM77.2236 30.8886L77.1649 30.7943H77.0537H58.2154H58.0154V30.9943V40.283V40.483H58.2154H82.8331H83.1931L83.0029 40.1773L77.2236 30.8886ZM22.9436 71.7026V71.6341C24.1743 71.6 25.3724 71.2219 26.4011 70.5406C27.4856 69.8224 28.3334 68.7994 28.8378 67.6004L28.8389 67.5976C29.3273 66.3845 29.4513 65.0554 29.1958 63.7729C28.9403 62.4904 28.3163 61.3103 27.4002 60.3771L27.3996 60.3765C26.481 59.4486 25.3057 58.8168 24.025 58.5626C22.7442 58.3083 21.4167 58.4433 20.2133 58.95C18.8008 59.5394 17.6356 60.5992 16.9154 61.9497C16.1951 63.3004 15.9642 64.8587 16.262 66.3603C16.5598 67.8618 17.3679 69.2141 18.5491 70.1877C19.7304 71.1613 21.2121 71.6963 22.7429 71.7019L22.9436 71.7026ZM23.0645 55.2365L23.0415 55.179C25.236 55.259 27.3437 56.0726 29.0248 57.4944C30.7821 58.9806 31.9616 61.0369 32.3571 63.3043L32.386 63.4699H32.5541H54.667H54.867V63.2699V18.5354V18.3354H54.667H5.86218H5.66218V18.5354V63.2699V63.4699H5.86218H12.9592H13.1262L13.156 63.3056C13.5648 61.05 14.75 59.0085 16.5061 57.5351C18.2621 56.0616 20.4783 55.2489 22.7706 55.2379L23.0645 55.2365Z" fill="#1B54F8" stroke="white" stroke-width="0.4"></path><path d="M26.147 41.6243L40.8514 26.8423L43.1003 29.1027L26.0051 46.3005L15.6023 35.847L17.8519 33.5743L25.8634 41.6243L26.0052 41.7668L26.147 41.6243Z" fill="#1B54F8" stroke="white" stroke-width="0.4"></path></svg> 