<?xml version="1.0" encoding="UTF-8"?> <svg xmlns="http://www.w3.org/2000/svg" xmlns:xlink="http://www.w3.org/1999/xlink" width="80" height="80" viewBox="0 0 80 80"><defs><clipPath id="clip-path"><rect id="Rectangle_4" data-name="Rectangle 4" width="80" height="80" transform="translate(809 132)" fill="#fff" stroke="#707070" stroke-width="1"></rect></clipPath></defs><g id="Mask_Group_4" data-name="Mask Group 4" transform="translate(-809 -132)" clip-path="url(#clip-path)"><g id="Group_3" data-name="Group 3" transform="translate(813.393 133.602)"><path id="Path_19" data-name="Path 19" d="M23.022,49.369h-.35A17.682,17.682,0,1,1,40.3,34.824v.21a1.03,1.03,0,0,0,1.049,1.049,1.06,1.06,0,0,0,1.049-.91,21.423,21.423,0,0,0,.35-3.707A20.069,20.069,0,1,0,22.675,51.535h.35a1.03,1.03,0,0,0,1.049-1.049,1.144,1.144,0,0,0-1.052-1.117Z" transform="translate(0)" fill="#1c54f8"></path><path id="Path_20" data-name="Path 20" d="M26.492,26.372A3.68,3.68,0,0,0,20.9,29.519V41.967a3.706,3.706,0,0,0,1.887,3.218,3.388,3.388,0,0,0,1.819.489,3.709,3.709,0,0,0,1.887-.56l10.489-6.222a3.693,3.693,0,0,0,0-6.365Zm9.372,10.7L25.375,43.292a1.519,1.519,0,0,1-1.538,0,1.5,1.5,0,0,1-.77-1.328V29.519a1.492,1.492,0,0,1,.77-1.328,1.516,1.516,0,0,1,1.541,0l10.489,6.222a1.5,1.5,0,0,1,.77,1.328,1.672,1.672,0,0,1-.773,1.328Z" transform="translate(-5.501 -4.343)" fill="#1c54f8"></path><path id="Path_21" data-name="Path 21" d="M59.118,46.442a3.236,3.236,0,0,0-3.357.21l-9.23,6.362H40.377A3.758,3.758,0,0,0,36.6,56.789v8.463a3.758,3.758,0,0,0,3.775,3.775h6.154l9.3,6.365a3.467,3.467,0,0,0,1.819.56,4.079,4.079,0,0,0,1.538-.35,3.3,3.3,0,0,0,1.748-2.868l0-23.426a3.365,3.365,0,0,0-1.817-2.865ZM38.768,65.18V56.72a1.583,1.583,0,0,1,1.609-1.609H45.76V66.721H40.377a1.527,1.527,0,0,1-1.609-1.541ZM58.7,72.664a1.3,1.3,0,0,1-.56.978,1.082,1.082,0,0,1-1.12-.071l-9.091-6.222,0-12.726L57.02,48.4a1.088,1.088,0,0,1,1.12-.071,1.069,1.069,0,0,1,.56.978Z" transform="translate(-10.223 -10.426)" fill="#1c54f8"></path><path id="Path_22" data-name="Path 22" d="M76.924,59.952a1.077,1.077,0,0,0-.56,1.4,8.965,8.965,0,0,1,0,7.271,1.053,1.053,0,0,0,.56,1.4.874.874,0,0,0,.421.071,1.051,1.051,0,0,0,.978-.628,11.053,11.053,0,0,0,0-9.091,1.064,1.064,0,0,0-1.4-.421Z" transform="translate(-22.157 -14.568)" fill="#1c54f8"></path><path id="Path_23" data-name="Path 23" d="M84.541,54.173a1.068,1.068,0,0,0-1.819,1.12,15.076,15.076,0,0,1,0,15.805,1.106,1.106,0,0,0,.35,1.47.845.845,0,0,0,.56.139,1.2,1.2,0,0,0,.91-.489A17.061,17.061,0,0,0,87.06,63.2a16.267,16.267,0,0,0-2.519-9.025Z" transform="translate(-24.04 -12.706)" fill="#1c54f8"></path><path id="Path_24" data-name="Path 24" d="M90.665,48a1.058,1.058,0,0,0-1.748,1.191,20.951,20.951,0,0,1,0,24.2,1.026,1.026,0,0,0,.279,1.47,1.131,1.131,0,0,0,1.538-.21,22.709,22.709,0,0,0,4.2-13.286A23.86,23.86,0,0,0,90.665,48Z" transform="translate(-25.897 -10.864)" fill="#1c54f8"></path></g></g></svg> 