<?xml version="1.0" encoding="UTF-8"?> <svg xmlns="http://www.w3.org/2000/svg" xmlns:xlink="http://www.w3.org/1999/xlink" width="80" height="80" viewBox="0 0 80 80"><defs><clipPath id="clip-path"><rect id="Rectangle_12" data-name="Rectangle 12" width="80" height="80" transform="translate(1221 132)" fill="#fff" stroke="#707070" stroke-width="1"></rect></clipPath></defs><g id="Mask_Group_7" data-name="Mask Group 7" transform="translate(-1221 -132)" clip-path="url(#clip-path)"><path id="Path_40" data-name="Path 40" d="M14.591,0a.964.964,0,0,0-.685.288L1.449,12.7a.973.973,0,0,0-.281.784V57.548A4.438,4.438,0,0,0,5.6,61.965H45.5a4.432,4.432,0,0,0,4.088-2.716.967.967,0,1,0-1.786-.743,2.476,2.476,0,0,1-2.3,1.523H5.6a2.461,2.461,0,0,1-2.493-2.481V14.359h8.024a4.431,4.431,0,0,0,4.425-4.418v-8H45.5A2.459,2.459,0,0,1,48,4.417V28.5h0a.968.968,0,1,0,1.937,0V4.417A4.433,4.433,0,0,0,45.5,0H14.612a.067.067,0,0,0-.022,0Zm-.963,3.3V9.944a2.459,2.459,0,0,1-2.493,2.479H4.48L7.3,9.612Zm-.487,15.364a.967.967,0,0,0-.971.971.962.962,0,0,0,.286.685.977.977,0,0,0,.685.281H37.963a.971.971,0,0,0,.973-.966.967.967,0,0,0-.286-.687.951.951,0,0,0-.687-.283Zm0,8.777v0a.977.977,0,0,0-.685.281.968.968,0,0,0,.685,1.656H37.963a.971.971,0,0,0,.973-.971.971.971,0,0,0-.973-.966ZM44.034,28.83a2.906,2.906,0,0,0-2.755,3.851l-8.843,8.838a2.914,2.914,0,0,0-3.006,4.815l7.739,7.736a2.914,2.914,0,0,0,4.817-3.006l2.089-2.089,10,11.648a4.314,4.314,0,0,0,6.284-.029,4.418,4.418,0,0,0,.077-6.233v0a.555.555,0,0,0-.056-.051l-11.641-10,2.079-2.079A2.913,2.913,0,0,0,53.83,37.41l-7.739-7.736a2.894,2.894,0,0,0-2.058-.847Zm0,1.917a.976.976,0,0,1,.692.3l7.739,7.736a.98.98,0,1,1-1.385,1.387l-7.739-7.741a.958.958,0,0,1,0-1.385.976.976,0,0,1,.692-.3Zm-1.6,3.515,6.807,6.807-8.414,8.414-6.807-6.807ZM13.141,36.217a.967.967,0,1,0,0,1.934H31.974a.967.967,0,0,0,.963-.971.963.963,0,0,0-.963-.963Zm18.351,7.066a.971.971,0,0,1,.656.261l3.907,3.9,3.868,3.868A.979.979,0,0,1,38.538,52.7L30.8,44.966a.961.961,0,0,1,0-1.387.976.976,0,0,1,.692-.3Zm15.879,2.4,11.7,10.048a2.455,2.455,0,0,1-.077,3.5,2.388,2.388,0,0,1-3.445.128L45.447,47.6Z" transform="translate(1229.836 141)" fill="#1c54f8" fill-rule="evenodd"></path></g></svg> 