<?xml version="1.0" encoding="UTF-8"?> <svg xmlns="http://www.w3.org/2000/svg" xmlns:xlink="http://www.w3.org/1999/xlink" width="80" height="80" viewBox="0 0 80 80"><defs><clipPath id="clip-path"><rect id="Rectangle_3" data-name="Rectangle 3" width="80" height="80" transform="translate(599 132)" fill="#fff" stroke="#707070" stroke-width="1"></rect></clipPath></defs><g id="Mask_Group_3" data-name="Mask Group 3" transform="translate(-599 -132)" clip-path="url(#clip-path)"><path id="Path_18" data-name="Path 18" d="M28.129,19a1.491,1.491,0,0,0-.862.419L4.439,41.735A1.491,1.491,0,0,0,5.487,44.3H8.143V63.725a1.491,1.491,0,0,0,1.491,1.491H71.085a1.491,1.491,0,1,0,0-2.982H36.073V43.156a1.491,1.491,0,0,0-1.491-1.491H22.026a1.412,1.412,0,0,0-1.491,1.491V62.235H11.124V42.807a1.491,1.491,0,0,0-1.491-1.491H9.144L28.316,22.587l8.619,8.433a1.491,1.491,0,0,0,2.539-1.072v-.3h3.937v7.082a1.491,1.491,0,0,0,.443,1.072l3.587,3.518h-.466a1.491,1.491,0,0,0-1.491,1.491V58.833a1.491,1.491,0,1,0,2.982,0V44.3h2.656a1.491,1.491,0,0,0,1.048-2.562L46.393,36.1V28.154A1.491,1.491,0,0,0,44.9,26.663H37.983a1.491,1.491,0,0,0-.908.3l-7.734-7.548A1.491,1.491,0,0,0,28.269,19q-.07,0-.14,0Zm28.49,19.009A1.491,1.491,0,0,0,55.268,39.5v8.689a1.491,1.491,0,0,0,1.491,1.491h5.661v9.155a1.491,1.491,0,1,0,2.982,0V49.679h5.684a1.491,1.491,0,0,0,1.491-1.491V39.5a1.491,1.491,0,0,0-1.491-1.491H56.759Q56.689,38,56.619,38.008ZM58.25,40.99H69.594V46.7H58.25ZM23.517,44.647h9.574V62.235H23.517Zm2.493,7.408a1.362,1.362,0,0,0-1.374,1.351A1.382,1.382,0,0,0,26.01,54.78a1.362,1.362,0,0,0,1.351-1.374A1.342,1.342,0,0,0,26.01,52.055Z" transform="translate(600.72 129.893)" fill="#1c54f8" stroke="#fff" stroke-width="1"></path></g></svg> 