<?xml version="1.0" encoding="UTF-8"?> <svg xmlns="http://www.w3.org/2000/svg" width="90" height="90" viewBox="0 0 90 90"><g id="Group_390" data-name="Group 390" transform="translate(-2739 -140)"><rect id="Rectangle_15" data-name="Rectangle 15" width="90" height="90" transform="translate(2739 140)" fill="#fff" opacity="0.002"></rect><g id="Group_374" data-name="Group 374" transform="translate(-0.194)"><g id="Group_355" data-name="Group 355" transform="translate(2746.394 151)"><path id="Path_124" data-name="Path 124" d="M126.685,130.379H60a5.211,5.211,0,0,1-5.2-5.2V80.08a5.211,5.211,0,0,1,5.2-5.2h66.685a5.211,5.211,0,0,1,5.2,5.2v45.094A5.211,5.211,0,0,1,126.685,130.379ZM60,77.276a2.808,2.808,0,0,0-2.8,2.8v45.094a2.808,2.808,0,0,0,2.8,2.8h66.685a2.808,2.808,0,0,0,2.8-2.8V80.08a2.808,2.808,0,0,0-2.8-2.8Z" transform="translate(-55.995 -76.076)" fill="#1b54f8"></path><path id="Path_125" data-name="Path 125" d="M130.694,326.559H56a1.2,1.2,0,0,1,0-2.4h74.695a1.2,1.2,0,0,1,0,2.4Z" transform="translate(-55.999 -283.796)" fill="#1b54f8"></path><path id="Path_126" data-name="Path 126" d="M226.86,410.672H209.482a1.2,1.2,0,0,1-.436-2.318c2.567-1,4.029-2.126,4.226-3.255.336-1.92-2.729-4.6-5.192-6.749a39.038,39.038,0,0,1-3.171-2.969,1.2,1.2,0,0,1,.89-2.005h24.743a1.2,1.2,0,0,1,.89,2.005,39.052,39.052,0,0,1-3.17,2.968c-2.463,2.151-5.529,4.829-5.193,6.749.2,1.129,1.659,2.255,4.227,3.256a1.2,1.2,0,0,1-.436,2.318ZM214,408.272h8.349a4.822,4.822,0,0,1-1.641-2.76c-.266-1.522.322-3.133,1.8-4.926a36.942,36.942,0,0,1,4.18-4.045c.3-.259.589-.515.873-.766H208.785c.284.252.577.507.874.767a36.933,36.933,0,0,1,4.18,4.045c1.476,1.793,2.064,3.4,1.8,4.925A4.821,4.821,0,0,1,214,408.272Z" transform="translate(-180.823 -341.471)" fill="#1b54f8"></path><path id="Path_127" data-name="Path 127" d="M219.563,130.89H197.891a1.2,1.2,0,0,1-1.161-.9l-4.756-18.167H189.33a1.2,1.2,0,0,1,0-2.4H192.9a1.2,1.2,0,0,1,1.161.9l4.756,18.167h20.746a1.2,1.2,0,0,1,0,2.4Z" transform="translate(-167.099 -104.867)" fill="#1b54f8"></path><path id="Path_128" data-name="Path 128" d="M239.773,164.655h-15.2a1.2,1.2,0,0,1-1.161-.9l-3.223-12.307a1.2,1.2,0,0,1,1.161-1.5h24.494a1.2,1.2,0,0,1,1.076,1.731l-6.073,12.307A1.2,1.2,0,0,1,239.773,164.655Zm-14.272-2.4h13.526l4.888-9.907H222.907Z" transform="translate(-193.782 -138.631)" fill="#1b54f8"></path><path id="Path_129" data-name="Path 129" d="M329.46,264.313A4.312,4.312,0,1,1,333.772,260,4.317,4.317,0,0,1,329.46,264.313Zm0-6.225A1.912,1.912,0,1,0,331.372,260,1.915,1.915,0,0,0,329.46,258.088Z" transform="translate(-281.272 -226.741)" fill="#1b54f8"></path><path id="Path_130" data-name="Path 130" d="M243.677,264.313A4.312,4.312,0,1,1,247.99,260,4.317,4.317,0,0,1,243.677,264.313Zm0-6.225A1.912,1.912,0,1,0,245.59,260,1.915,1.915,0,0,0,243.677,258.088Z" transform="translate(-209.792 -226.741)" fill="#1b54f8"></path></g></g></g></svg> 