<?xml version="1.0" encoding="UTF-8"?> <svg xmlns="http://www.w3.org/2000/svg" width="90" height="90" viewBox="0 0 90 90"><g id="Group_2791" data-name="Group 2791" transform="translate(-1342 -6200)"><g id="Group_2734" data-name="Group 2734" transform="translate(-3746 3703)" opacity="0"><rect id="Rectangle_635" data-name="Rectangle 635" width="90" height="90" transform="translate(5088 2497)" fill="#bcbcbc" opacity="0.84"></rect></g><g id="Real_estate" data-name="Real estate" transform="translate(1337 6194.7)"><path id="Path_2555" data-name="Path 2555" d="M81.2,82.8V48.016l-16-4.8V26.8H60.4V20.4H50.8V14H47.6v6.4H38v6.4H33.2v56H23.6V76.271c4.08-.56,6.4-3.344,6.4-7.872,0-5.216-3.12-12.8-8-12.8s-8,7.584-8,12.8c0,4.528,2.32,7.312,6.4,7.872V82.8H15.6V86H86V82.8Zm-64-14.4c0-4.4,2.608-9.6,4.8-9.6s4.8,5.2,4.8,9.6c0,3.312-1.488,4.8-4.8,4.8S17.2,71.712,17.2,68.4Zm24-44.8h16v3.2h-16ZM54,82.8H44.4V70H54Zm8,0H57.2v-16h-16v16H36.4V30H62Zm16,0H65.2V46.545L78,50.384Z" fill="#1b54f8"></path><path id="Path_2556" data-name="Path 2556" d="M39.6,34.8h8V38h-8Z" fill="#1b54f8"></path><path id="Path_2557" data-name="Path 2557" d="M50.8,34.8h8V38h-8Z" fill="#1b54f8"></path><path id="Path_2558" data-name="Path 2558" d="M39.6,42.8h8V46h-8Z" fill="#1b54f8"></path><path id="Path_2559" data-name="Path 2559" d="M50.8,42.8h8V46h-8Z" fill="#1b54f8"></path><path id="Path_2560" data-name="Path 2560" d="M39.6,50.8h8V54h-8Z" fill="#1b54f8"></path><path id="Path_2561" data-name="Path 2561" d="M50.8,50.8h8V54h-8Z" fill="#1b54f8"></path><path id="Path_2562" data-name="Path 2562" d="M39.6,58.8h8V62h-8Z" fill="#1b54f8"></path><path id="Path_2563" data-name="Path 2563" d="M50.8,58.8h8V62h-8Z" fill="#1b54f8"></path><path id="Path_2564" data-name="Path 2564" d="M68.4,52.4h6.4v3.2H68.4Z" fill="#1b54f8"></path><path id="Path_2565" data-name="Path 2565" d="M68.4,60.4h6.4v3.2H68.4Z" fill="#1b54f8"></path><path id="Path_2566" data-name="Path 2566" d="M68.4,68.4h6.4v3.2H68.4Z" fill="#1b54f8"></path><path id="Path_2567" data-name="Path 2567" d="M68.4,76.4h6.4v3.2H68.4Z" fill="#1b54f8"></path></g></g></svg> 