<?xml version="1.0" encoding="UTF-8"?> <svg xmlns="http://www.w3.org/2000/svg" xmlns:xlink="http://www.w3.org/1999/xlink" width="60" height="60" viewBox="0 0 60 60"><defs><clipPath id="clip-path"><rect id="Rectangle_806" data-name="Rectangle 806" width="60" height="60" transform="translate(45 600)" fill="#fff" stroke="#707070" stroke-width="1"></rect></clipPath></defs><g id="Mask_Group_65" data-name="Mask Group 65" transform="translate(-45 -600)" clip-path="url(#clip-path)"><g id="github-actions-seeklogo" transform="translate(50 605)"><path id="Path_121" data-name="Path 121" d="M10.446,0a10.442,10.442,0,0,1,.294,20.879,4.973,4.973,0,0,0,.293,1.933c.377.759,2.635,2.172,4.851,2.172h.8a7.33,7.33,0,0,1,14.508-.043h4.117a7.328,7.328,0,1,1,0,2.142H31.188a7.331,7.331,0,0,1-14.5.02h0l-.88.026A7.678,7.678,0,0,1,11.6,25.9c-.335-.228-.665-.467-1.01-.694h0v.476c0,.154-.03,2.466-.032,5.034v.544c0,1.684.014,3.419.054,4.684a6.094,6.094,0,0,0,4.837,5.542,5.117,5.117,0,0,0,1.232.046,7.325,7.325,0,1,1,.017,2.179h-.634a8.333,8.333,0,0,1-7.671-8.17c.065-4.458.016-8.918.015-13.377h0V20.686A10.443,10.443,0,0,1,10.446,0Zm13.49,37.372a5.186,5.186,0,1,0,5.188,5.186A5.187,5.187,0,0,0,23.936,37.372Zm0-16.547a5.186,5.186,0,1,0,5.188,5.186A5.187,5.187,0,0,0,23.936,20.825Zm18.62,0a5.186,5.186,0,1,0,5.188,5.186A5.187,5.187,0,0,0,42.557,20.825Zm2.954,3a1.071,1.071,0,0,1,.033,1.482l-.031.033-3.178,3.185a1.072,1.072,0,0,1-1.477.039l-.034-.032L39.269,27a1.071,1.071,0,0,1,1.47-1.558l.033.031.8.785L44,23.83A1.071,1.071,0,0,1,45.511,23.828Zm-18.706-.016a1.071,1.071,0,0,1,.033,1.482l-.031.033-3.178,3.185a1.072,1.072,0,0,1-1.477.039l-.034-.032-1.556-1.532a1.071,1.071,0,0,1,1.47-1.557l.033.031.8.785,2.426-2.432A1.072,1.072,0,0,1,26.805,23.812ZM10.446,2.142a8.3,8.3,0,1,0,8.3,8.3A8.3,8.3,0,0,0,10.446,2.142Zm-.864,3.34q2.62,1.574,5.17,3.257a2.032,2.032,0,0,1-.019,3.584q-2.6,1.7-5.273,3.257a2.041,2.041,0,0,1-3.118-1.821c-.025-1.092,0-2.185-.006-3.277,0-1.063-.022-2.126,0-3.189A2.06,2.06,0,0,1,9.582,5.482ZM8.43,7.211v.754q0,.56,0,1.106v1.791c0,.824,0,1.636,0,2.447,0,.382.2.366.457.207q2.223-1.378,4.448-2.753c.245-.151.252-.309.012-.461C11.759,9.3,10.168,8.3,8.43,7.211Z" transform="translate(0)" fill="#4a7ebf"></path><path id="Path_122" data-name="Path 122" d="M128.8,215.028a1.071,1.071,0,1,0-1.071-1.071,1.071,1.071,0,0,0,1.071,1.071" transform="translate(-102.839 -171.401)" fill="#85b3df"></path><path id="Path_123" data-name="Path 123" d="M107.752,215.028a1.071,1.071,0,1,0-1.071-1.071,1.071,1.071,0,0,0,1.071,1.071" transform="translate(-85.892 -171.401)" fill="#85b3df"></path><path id="Path_124" data-name="Path 124" d="M179.554,193.3a5.186,5.186,0,1,1,5.188-5.186,5.187,5.187,0,0,1-5.188,5.186m0-12.515a7.331,7.331,0,0,0-7.251,6.257h-1.2a1.079,1.079,0,0,0,0,2.142h1.2a7.33,7.33,0,1,0,7.251-8.4" transform="translate(-136.997 -145.556)" fill="#85b3df"></path></g></g></svg> 