<?xml version="1.0" encoding="UTF-8"?> <svg xmlns="http://www.w3.org/2000/svg" xmlns:xlink="http://www.w3.org/1999/xlink" width="60" height="60" viewBox="0 0 60 60"><defs><clipPath id="clip-path"><rect id="Rectangle_813" data-name="Rectangle 813" width="60" height="60" transform="translate(525 71)" fill="#fff" stroke="#707070" stroke-width="1"></rect></clipPath></defs><g id="Mask_Group_51" data-name="Mask Group 51" transform="translate(-525 -71)" clip-path="url(#clip-path)"><g id="Group_26" data-name="Group 26" transform="translate(33 98.657)"><g id="Group_25" data-name="Group 25" transform="translate(505.444 -18.657)"><path id="Path_41" data-name="Path 41" d="M51.2,280.115a2.227,2.227,0,0,0,.351-.876,1.941,1.941,0,0,0-.05-.926,2.1,2.1,0,0,0-.676-1.077,2.465,2.465,0,0,0,.3-.851,2.214,2.214,0,0,0-.6-1.828,2.019,2.019,0,0,0-1.5-.626h-.2A14.8,14.8,0,1,0,19.9,269.5a14.588,14.588,0,0,0,.676,4.407h-.025a2.019,2.019,0,0,0-1.5.626,2.214,2.214,0,0,0-.6,1.828,2.663,2.663,0,0,0,.3.851,1.949,1.949,0,0,0-.676,1.077,2.319,2.319,0,0,0-.05.926,2.388,2.388,0,0,0,.351.876l-.075.15a2.013,2.013,0,0,0-.05,1.778c.4.876,1.352,1.577,3.255,2.329,1.177.476,2.254.751,2.254.776a16.973,16.973,0,0,0,4.182.6,5.621,5.621,0,0,0,4.432-1.628,15.057,15.057,0,0,0,4.858-.025,5.6,5.6,0,0,0,4.457,1.653,16.973,16.973,0,0,0,4.182-.6s1.077-.3,2.254-.776c1.878-.751,2.854-1.452,3.255-2.329a2.018,2.018,0,0,0-.05-1.778A.206.206,0,0,1,51.2,280.115Zm-19.556,2.3a4.075,4.075,0,0,1-.275.426,3.106,3.106,0,0,1-.951.851,5.312,5.312,0,0,1-2.554.526,16.7,16.7,0,0,1-3.781-.551c-.05,0-5.133-1.452-4.482-2.679a.526.526,0,0,1,.5-.3c.9,0,2.554,1.352,3.28,1.352a.323.323,0,0,0,.326-.225c.3-1.077-4.607-1.552-4.182-3.1a.518.518,0,0,1,.551-.4c1.2,0,3.881,2.1,4.457,2.1a.13.13,0,0,0,.1-.05h0c.275-.426.125-.751-1.7-1.853l-.175-.1c-2-1.2-3.38-1.928-2.6-2.8a.51.51,0,0,1,.376-.15,1.814,1.814,0,0,1,.651.175,15.9,15.9,0,0,1,3.13,2.178c.175.15.275.25.275.25s.776.8,1.227.8a.275.275,0,0,0,.25-.15c.326-.551-3.08-3.13-3.255-4.207-.125-.726.1-1.077.5-1.077a1.326,1.326,0,0,1,.7.25c.8.526,2.379,3.205,2.955,4.257a.946.946,0,0,0,.826.5c.6,0,1.052-.576.05-1.327-1.5-1.127-.977-2.955-.25-3.055h.1c.651,0,.926,1.127.926,1.127a11.924,11.924,0,0,0,2.279,3.556C32.244,280.015,32.419,281.091,31.643,282.418Zm4.682.25H36.25l-.125.025c-.075,0-.125.025-.2.025H33.872a.552.552,0,0,1-.2-.025h-.25a.489.489,0,0,1-.175-.025h0c.8-1.778.4-3.455-1.227-5.058a10.746,10.746,0,0,1-1.9-2.955,2.663,2.663,0,0,0-2.379-2.153,1.427,1.427,0,0,0-.326.025,2.251,2.251,0,0,0-1.427.9,4.884,4.884,0,0,0-1.1-1.077,2.782,2.782,0,0,0-1.5-.476,1.924,1.924,0,0,0-1.552.726h0l-.025-.1h0c-.075-.326-.125-.626-.175-.951h0v-.075a.226.226,0,0,0-.025-.125,1439.531,1439.531,0,0,1-.05-.2v-.2h0c-.025-.15-.025-.275-.05-.426V269.5a13.271,13.271,0,1,1,26.541,0v.476h0v.351a3.394,3.394,0,0,1-.05.5h0v.1c0,.075-.025.15-.025.2v.25a.151.151,0,0,1-.025.1v.075l-.025.1a2880.159,2880.159,0,0,0-.05.2c0,.05-.025.125-.025.175-.025.125-.05.25-.075.351,0,.025-.025.05-.025.1a2.056,2.056,0,0,0-1.4-.551,2.939,2.939,0,0,0-1.5.476,6.2,6.2,0,0,0-1.1,1.077,2.068,2.068,0,0,0-1.427-.9,1.427,1.427,0,0,0-.326-.025,2.663,2.663,0,0,0-2.379,2.153,10.389,10.389,0,0,1-1.9,2.955C35.925,279.238,35.524,280.891,36.326,282.669ZM50,279.088h0c0,.025-.025.025-.025.05s-.025.025-.025.05c-.025.025-.025.075-.05.1a.44.44,0,0,1-.1.125l-.025.025c0,.025-.025.025-.05.05a4.065,4.065,0,0,1-1,.626.355.355,0,0,1-.15.05l-.05.025c-.025.025-.05.025-.1.05-.025.025-.075.025-.1.05l-.1.05c-.225.1-.451.175-.7.275l-.1.05-.1.05c-.075.025-.125.05-.2.075l-.1.025-.1.025-.05.025c-.025.025-.05.025-.1.025-.676.3-1.152.576-1.052.951v.025c0,.025.025.05.025.075s.025.025.025.05c.125.125.326.1.6,0,.025,0,.05-.025.075-.025s.025,0,.05-.025h.025a.748.748,0,0,0,.2-.1c.025,0,.025-.025.05-.025.326-.175.726-.376,1.1-.576a.629.629,0,0,0,.175-.1,2.731,2.731,0,0,0,.275-.15,2.327,2.327,0,0,1,.951-.275.627.627,0,0,1,.326.075h.025a.3.3,0,0,1,.125.125l.025.025.025.025c.125.25.025.526-.25.776a4.71,4.71,0,0,1-1.077.7c-.025.025-.075.025-.1.05a26.84,26.84,0,0,1-3.055,1.152c-.451.125-1.127.275-1.853.4l-.1.025h-.025c-.175.025-.326.05-.5.075h-.025l-.926.075h-.476a3.7,3.7,0,0,1-.526-.025h0a.426.426,0,0,1-.175-.025,1.725,1.725,0,0,1-.326-.05c-.05,0-.075-.025-.125-.025h-.05a.464.464,0,0,1-.175-.05c-.025,0-.075-.025-.1-.025h-.025c-.025,0-.025,0-.05-.025h0l-.05-.025c-.025,0-.05,0-.05-.025h0l-.05-.025c-.025,0-.05,0-.05-.025-.025,0-.025,0-.05-.025h-.025c-.025,0-.075-.025-.1-.025h-.05l-.15-.075-.025-.025h0a.025.025,0,0,1-.025-.025c-.025,0-.05-.025-.075-.025h0l-.025-.025a.628.628,0,0,1-.175-.1l-.025-.025c-.025,0-.025-.025-.05-.025l-.05-.025c-.025,0-.025-.025-.05-.025l-.025-.025c-.025-.025-.05-.05-.075-.05s-.025-.025-.05-.025a.346.346,0,0,0-.1-.075h0l-.075-.075h0l-.05-.05-.05-.05-.05-.05c-.025-.025-.025-.025-.025-.05h0a1.377,1.377,0,0,1-.175-.225l-.025-.025c-.025-.025-.025-.05-.05-.075l-.05-.075a.13.13,0,0,1-.05-.1c-.025-.025-.025-.05-.05-.075a.087.087,0,0,0-.025-.05.025.025,0,0,0-.025-.025l-.025-.025v-.025h0c0-.025-.025-.05-.025-.075a.025.025,0,0,0-.025-.025l-.025-.025-.025-.025-.025-.05a.025.025,0,0,0-.025-.025c0-.025-.025-.05-.025-.075v-.025c-.025-.025-.025-.05-.05-.1a.087.087,0,0,0-.025-.05c-.025-.05-.05-.125-.075-.175,0-.025,0-.025-.025-.05a.226.226,0,0,1-.025-.125c0-.05-.025-.1-.025-.15a.092.092,0,0,0-.025-.075v-.075a.489.489,0,0,0-.025-.175v-.075a3.269,3.269,0,0,1,1.177-2.279,11.609,11.609,0,0,0,2.279-3.556,1.95,1.95,0,0,1,.075-.225c.025-.05.025-.075.05-.125l.075-.15v-.025a.628.628,0,0,1,.1-.175c0-.025.025-.025.025-.05a.346.346,0,0,1,.075-.1l.075-.075a1.111,1.111,0,0,1,.275-.2h.275a.608.608,0,0,1,.351.225l.025.025c.025.05.075.075.1.125a.19.19,0,0,1,.05.1c0,.025.025.025.025.05v.025c0,.025.025.025.025.05a1.321,1.321,0,0,1,.075.3,1.428,1.428,0,0,1,.025.326v.2a2.571,2.571,0,0,1-.125.6.087.087,0,0,1-.025.05,2.325,2.325,0,0,1-.125.25.524.524,0,0,1-.1.15l-.025.025c-.075.1-.175.2-.25.3a2.65,2.65,0,0,1-.3.25c-.1.075-.2.175-.3.25a.733.733,0,0,0-.275.7.087.087,0,0,0,.025.05c.025.05.05.075.075.125h0l.025.025h0c.025.025.05.025.075.05a.025.025,0,0,1,.025.025c.05.025.075.025.125.05h.4a.4.4,0,0,0,.225-.075c.025,0,.025-.025.05-.025.025-.025.05-.025.1-.05a.44.44,0,0,0,.125-.1l.025-.025h0l.075-.075c.025-.05.075-.1.1-.15.351-.626.7-1.227,1.077-1.828l.05-.075.05-.075c.025-.05.05-.075.075-.125l.025-.05.05-.075c.075-.1.15-.225.225-.326l.05-.075c.1-.15.225-.3.326-.451l.05-.075c.125-.15.225-.326.351-.476l.05-.05.025-.025.05-.05.025-.025.05-.05.025-.025.075-.075.05-.05a1.453,1.453,0,0,1,.3-.25l.025-.025.025-.025c.025,0,.025-.025.05-.025.426-.225.751-.25.951-.05a.823.823,0,0,1,.175.6v.2h0v.025h0v.125a.092.092,0,0,1-.025.075c-.025.05-.025.1-.05.125,0,.025-.025.025-.025.05-.025.05-.05.075-.075.125a.087.087,0,0,1-.025.05l-.025.025a.19.19,0,0,0-.05.1c0,.025-.05.075-.075.1a.546.546,0,0,1-.1.125l-.025.025a2.663,2.663,0,0,1-.225.275l-.075.075-.025.025a.664.664,0,0,0-.125.15l-.025.025-.075.075-.075.075-.075.075-.075.075-.075.075-.15.15a13.992,13.992,0,0,0-1.7,1.9c-.025.025-.025.05-.05.1a.774.774,0,0,0-.05.2c0,.025,0,.025.025.05s.025.05.05.075l.025.025a.464.464,0,0,0,.175.05h.2c.025,0,.025,0,.05-.025a.19.19,0,0,0,.1-.05h.05c.025-.025.05-.025.1-.05.025-.025.05-.025.075-.05l.025-.025a.025.025,0,0,0,.025-.025l.025-.025h0l.025-.025a.345.345,0,0,1,.1-.075h0l.05-.025a1.089,1.089,0,0,0,.175-.15l.025-.025h0l.025-.025a.439.439,0,0,1,.125-.1l.025-.025.025-.025.025-.025h0l.025-.025h0l.025-.025.025-.025.025-.025.025-.025h.025l.025-.025.025-.025.025-.025a2.66,2.66,0,0,1,.275-.225l.05-.025.075-.05.075-.05c.1-.075.2-.175.3-.25l.075-.05a1.391,1.391,0,0,1,.2-.15c.025-.025.05-.05.075-.05.075-.05.125-.1.2-.15a5.08,5.08,0,0,1,.451-.326l.075-.05c.05-.025.1-.075.15-.1l.05-.025a1.519,1.519,0,0,0,.25-.175l.05-.025.05-.025c.05-.025.075-.05.125-.075l.05-.025.075-.05c.025-.025.05-.025.075-.05h.025l.075-.025c.025-.025.05-.025.075-.05l.05-.025.05-.025c.1-.05.175-.075.275-.125.025,0,.025,0,.025-.025.025,0,.05-.025.075-.025s.05-.025.075-.025.05-.025.075-.025h.025a.092.092,0,0,0,.075-.025h0c.025,0,.075-.025.1-.025H49.2a.4.4,0,0,1,.175.1h0a.9.9,0,0,1,.175.25v.025a.151.151,0,0,1,.025.1.419.419,0,0,1-.025.3c-.025.05-.025.075-.05.125l-.025.025a.981.981,0,0,1-.2.25l-.025.025-.1.1-.025.025-.025.025c-.05.025-.075.075-.125.1a.025.025,0,0,0-.025.025l-.075.075a3.663,3.663,0,0,1-.326.225c-.075.05-.125.075-.2.125a3.26,3.26,0,0,0-.376.25c-.025.025-.075.05-.1.075q-.526.3-1.127.676l-.1.075a3.715,3.715,0,0,0-.326.2l-.05.025-.1.075c-.05.025-.075.05-.125.075-.025.025-.05.025-.075.05l-.05.025c-.025.025-.05.025-.075.05l-.025.025c-.025.025-.05.025-.075.05l-.05.025-.05.025-.05.025c-.075.05-.125.1-.2.15l-.025.025c-.025.025-.05.05-.075.05l-.025.025c-.05.05-.1.075-.15.125l-.025.025-.025.025-.025.025h0l-.075.075v.025l-.075.075v.025a.19.19,0,0,0-.05.1v.025h0v.025a.092.092,0,0,1-.025.075h0v.075h0v.05h0v.05c0,.025,0,.05.025.05h0v.025a.087.087,0,0,0,.025.05v.075h.025a1.085,1.085,0,0,0,.576-.2l.05-.025.075-.05.05-.025c.025-.025.05-.025.1-.05l.05-.025c.376-.2.8-.476,1.252-.751.05-.025.075-.05.125-.075l.075-.05c.05-.025.075-.05.125-.075.175-.1.376-.2.551-.3l.075-.05a1.221,1.221,0,0,1,.175-.075c.1-.05.2-.1.326-.15l.05-.025h0a2.318,2.318,0,0,1,.826-.2h.2c.025,0,.05,0,.05.025.025,0,.025.025.05.025a.226.226,0,0,1,.15.15v.025c.025.025.025.05.05.075,0,.025,0,.025.025.05,0,.025,0,.025.025.05A.609.609,0,0,1,50,279.088Z" transform="translate(-17.996 -254.7)" fill="#ff9d00"></path><path id="Path_42" data-name="Path 42" d="M52.22,274.246v-.075a13.271,13.271,0,0,0-26.541,0v.576h0v.1h0v.2h0v.075h0v.075h0v.05c0,.125.025.25.025.376h0v.2c0,.075.025.125.025.2a.226.226,0,0,0,.025.125h0c.025.1.025.175.05.275l.15.751h0v.025a.092.092,0,0,0,.025.075h0a2,2,0,0,1,1.552-.726,2.939,2.939,0,0,1,1.5.476,6.2,6.2,0,0,1,1.1,1.077,2.067,2.067,0,0,1,1.427-.9,1.429,1.429,0,0,1,.326-.025,2.663,2.663,0,0,1,2.379,2.153,10.389,10.389,0,0,0,1.9,2.955c1.628,1.6,2.028,3.28,1.227,5.058h0a.489.489,0,0,1,.175.025h.25a.552.552,0,0,1,.2.025h2.028c.075,0,.125-.025.2-.025a.226.226,0,0,0,.125-.025h.075c-.776-1.778-.376-3.43,1.227-5.033a10.154,10.154,0,0,0,1.9-2.955A2.663,2.663,0,0,1,45.96,277.2a1.427,1.427,0,0,1,.326.025,2.251,2.251,0,0,1,1.427.9,4.883,4.883,0,0,1,1.1-1.077,2.782,2.782,0,0,1,1.5-.476,1.967,1.967,0,0,1,1.4.551,1.065,1.065,0,0,0,.05-.275c0-.05.025-.125.025-.175.025-.075.025-.15.05-.2v-.05a.189.189,0,0,1,.025-.1h0v-.15h0a.15.15,0,0,1,.025-.1v-.25a.318.318,0,0,1,.025-.15v-.25a3.03,3.03,0,0,0,.025-.476h0v-.275h0V274.6h0v-.351ZM35.669,287.492c1.052-1.552.977-2.7-.476-4.131a11.924,11.924,0,0,1-2.279-3.556s-.326-1.227-1.027-1.1c-.726.1-1.227,1.928.25,3.055,1.5,1.127-.3,1.878-.876.826s-2.153-3.756-2.955-4.257c-.826-.526-1.377-.225-1.2.826a7.477,7.477,0,0,0,1.8,2.279c.851.851,1.628,1.653,1.452,1.928-.326.551-1.5-.651-1.5-.651s-3.656-3.33-4.457-2.454c-.726.8.4,1.477,2.128,2.529.15.1.3.175.451.275,2,1.2,2.153,1.527,1.853,1.978-.1.175-.776-.225-1.6-.726-1.4-.851-3.255-1.953-3.505-.951-.225.851,1.127,1.377,2.354,1.853,1.027.4,1.953.751,1.828,1.252-.15.5-.926.075-1.753-.376-.951-.526-2-1.1-2.329-.451-.651,1.227,4.457,2.654,4.482,2.679C30.036,288.718,34.217,289.62,35.669,287.492Zm6.761,0c-1.052-1.552-.977-2.7.476-4.131a11.924,11.924,0,0,0,2.279-3.556s.3-1.227,1.027-1.1c.726.1,1.227,1.928-.25,3.055-1.5,1.127.3,1.878.876.826s2.153-3.756,2.955-4.257c.826-.526,1.377-.225,1.2.826a7.477,7.477,0,0,1-1.8,2.279c-.851.851-1.628,1.653-1.452,1.928.326.551,1.5-.651,1.5-.651s3.656-3.33,4.457-2.454c.726.8-.4,1.477-2.128,2.529-.15.1-.3.175-.451.275-2,1.2-2.153,1.527-1.853,1.978.1.175.776-.225,1.6-.726,1.4-.851,3.255-1.953,3.505-.951.225.851-1.127,1.377-2.354,1.853-1.027.4-1.953.751-1.828,1.252.15.5.926.075,1.753-.376.951-.526,2-1.1,2.329-.451.651,1.227-4.457,2.654-4.482,2.679C48.064,288.718,43.882,289.62,42.43,287.492Z" transform="translate(-22.272 -259.348)" fill="#ffd21e"></path><path id="Path_43" data-name="Path 43" d="M68.338,291.376a1.368,1.368,0,0,1,.5.5c.2.275.376.551.676.4a1.93,1.93,0,0,0,.776-.776,1.994,1.994,0,0,0,.225-1.077,2.3,2.3,0,0,0-.25-.8,1.892,1.892,0,0,0-.576-.6,2.092,2.092,0,0,0-.776-.3,1.829,1.829,0,0,0-.826.05,2.055,2.055,0,0,0-.926.6,1.782,1.782,0,0,0-.426,1.027,1.627,1.627,0,0,0,.225,1.077c.125.25.426.125.726,0A1.047,1.047,0,0,1,68.338,291.376Zm-8.989,0a1.368,1.368,0,0,0-.5.5c-.2.275-.376.551-.676.4a1.666,1.666,0,0,1-.626-.551,2.067,2.067,0,0,1-.351-.751,1.844,1.844,0,0,1,.025-.826,2.121,2.121,0,0,1,.376-.751,1.889,1.889,0,0,1,.651-.526,1.814,1.814,0,0,1,.826-.175,1.964,1.964,0,0,1,.826.175,2.154,2.154,0,0,1,.651.5,1.782,1.782,0,0,1,.426,1.027,1.627,1.627,0,0,1-.225,1.077c-.125.25-.426.125-.726,0A1.1,1.1,0,0,0,59.349,291.376Zm7.612,8.188a5.491,5.491,0,0,0,1.953-4.081c0-.9-.6-.6-1.552-.125l-.05.025a7.792,7.792,0,0,1-3.355,1.027,7.671,7.671,0,0,1-3.355-1.027c-1-.5-1.6-.8-1.6.1a5.4,5.4,0,0,0,2.078,4.182,3.442,3.442,0,0,1,.826-1.077,3.123,3.123,0,0,1,1.2-.651c.15-.05.3.225.476.476.15.25.326.526.476.526.175,0,.351-.25.5-.526.175-.275.351-.526.5-.476A3.579,3.579,0,0,1,66.961,299.564Z" transform="translate(-47.354 -280.184)" fill="#32343d"></path><path id="Path_44" data-name="Path 44" d="M78.684,327.208a5.139,5.139,0,0,1-5.884.1,3.442,3.442,0,0,1,.826-1.077,3.123,3.123,0,0,1,1.2-.651c.3-.1.626,1,.951,1,.351,0,.7-1.1,1-1A3.579,3.579,0,0,1,78.684,327.208Z" transform="translate(-59.078 -307.828)" fill="#ff323d"></path><path id="Path_45" data-name="Path 45" d="M46.547,298.867a.9.9,0,0,1-.451.175,1.517,1.517,0,0,1-.476,0,1.677,1.677,0,0,1-.451-.175,1.551,1.551,0,0,1-.351-.351,1,1,0,0,1-.175-.451,1.516,1.516,0,0,1,0-.476,1.677,1.677,0,0,1,.175-.451,1.551,1.551,0,0,1,.351-.351,1.228,1.228,0,0,1,1.878,1.277A1.032,1.032,0,0,1,46.547,298.867Zm17.753,0a.9.9,0,0,1-.451.175,1.517,1.517,0,0,1-.476,0,1.677,1.677,0,0,1-.451-.175,1.551,1.551,0,0,1-.351-.351,1,1,0,0,1-.175-.451,1.516,1.516,0,0,1,0-.476,1.677,1.677,0,0,1,.175-.451,1.551,1.551,0,0,1,.351-.351,1.228,1.228,0,0,1,1.878,1.277A1.1,1.1,0,0,1,64.3,298.867Z" transform="translate(-37.957 -286.097)" fill="#ffad03"></path></g><path id="Path_40" data-name="Path 40" d="M184.2,293.522v-5.767h1.523V289.9h1.727v-2.146h1.523v5.767h-1.523v-2.29h-1.727v2.29Zm7.278.108a1.187,1.187,0,0,1-1.055-.492,2.387,2.387,0,0,1-.324-1.319v-2.734h1.511v2.542a1,1,0,0,0,.108.564.4.4,0,0,0,.336.144.667.667,0,0,0,.36-.084.989.989,0,0,0,.288-.3V289.1h1.523v4.436h-1.247l-.108-.587h-.036a1.978,1.978,0,0,1-.6.5A1.6,1.6,0,0,1,191.478,293.63Zm5.4,1.715a3.33,3.33,0,0,1-.935-.12,1.535,1.535,0,0,1-.683-.348.831.831,0,0,1-.252-.635.962.962,0,0,1,.623-.851v-.036a1.36,1.36,0,0,1-.288-.3.885.885,0,0,1-.12-.456.944.944,0,0,1,.132-.456,1.558,1.558,0,0,1,.36-.384v-.036a1.585,1.585,0,0,1-.432-.456,1.323,1.323,0,0,1-.18-.683,1.467,1.467,0,0,1,.264-.911,1.557,1.557,0,0,1,.707-.528,2.391,2.391,0,0,1,.923-.18,2.189,2.189,0,0,1,.707.108h1.655v1.1h-.635a1.751,1.751,0,0,1,.048.2,1.788,1.788,0,0,1,.024.252,1.431,1.431,0,0,1-.24.851,1.3,1.3,0,0,1-.647.468,2.739,2.739,0,0,1-.911.156,2.6,2.6,0,0,1-.492-.06.327.327,0,0,0-.108.252.2.2,0,0,0,.144.2,1.5,1.5,0,0,0,.48.06h.671a2.517,2.517,0,0,1,1.283.276.92.92,0,0,1,.456.875,1.208,1.208,0,0,1-.324.839,1.991,1.991,0,0,1-.887.564A3.213,3.213,0,0,1,196.873,295.345Zm.144-4.137a.432.432,0,0,0,.348-.156.7.7,0,0,0,.132-.468.688.688,0,0,0-.132-.456.453.453,0,0,0-.348-.156.432.432,0,0,0-.348.156.666.666,0,0,0-.132.456.7.7,0,0,0,.132.468A.416.416,0,0,0,197.017,291.208Zm.108,3.2a1.378,1.378,0,0,0,.623-.12q.252-.108.252-.288a.212.212,0,0,0-.156-.228,1.786,1.786,0,0,0-.432-.048h-.348a3.747,3.747,0,0,1-.408-.012.649.649,0,0,1-.228-.036.457.457,0,0,0-.156.324.338.338,0,0,0,.24.312A1.628,1.628,0,0,0,197.125,294.41Zm4.592.935a3.33,3.33,0,0,1-.935-.12,1.535,1.535,0,0,1-.683-.348.831.831,0,0,1-.252-.635.962.962,0,0,1,.623-.851v-.036a1.36,1.36,0,0,1-.288-.3.885.885,0,0,1-.12-.456.944.944,0,0,1,.132-.456,1.558,1.558,0,0,1,.36-.384v-.036a1.584,1.584,0,0,1-.432-.456,1.323,1.323,0,0,1-.18-.683,1.467,1.467,0,0,1,.264-.911,1.557,1.557,0,0,1,.707-.528,2.391,2.391,0,0,1,.923-.18,2.189,2.189,0,0,1,.707.108H204.2v1.1h-.635a1.748,1.748,0,0,1,.048.2,1.788,1.788,0,0,1,.024.252,1.431,1.431,0,0,1-.24.851,1.3,1.3,0,0,1-.647.468,2.739,2.739,0,0,1-.911.156,2.6,2.6,0,0,1-.492-.06.327.327,0,0,0-.108.252.2.2,0,0,0,.144.2,1.5,1.5,0,0,0,.48.06h.671a2.517,2.517,0,0,1,1.283.276.92.92,0,0,1,.456.875,1.208,1.208,0,0,1-.324.839,1.991,1.991,0,0,1-.887.564A3.213,3.213,0,0,1,201.717,295.345Zm.144-4.137a.432.432,0,0,0,.348-.156.7.7,0,0,0,.132-.468.688.688,0,0,0-.132-.456.453.453,0,0,0-.348-.156.432.432,0,0,0-.348.156.666.666,0,0,0-.132.456.7.7,0,0,0,.132.468A.416.416,0,0,0,201.861,291.208Zm.108,3.2a1.378,1.378,0,0,0,.623-.12q.252-.108.252-.288a.212.212,0,0,0-.156-.228,1.786,1.786,0,0,0-.432-.048h-.348a3.747,3.747,0,0,1-.408-.012.649.649,0,0,1-.228-.036.457.457,0,0,0-.156.324.338.338,0,0,0,.24.312A1.628,1.628,0,0,0,201.969,294.41Zm2.973-.887v-4.436h1.535v4.436Zm.767-4.988a.863.863,0,0,1-.6-.2.715.715,0,0,1-.228-.564.69.69,0,0,1,.228-.552.856.856,0,0,1,.6-.216.836.836,0,0,1,.6.216.69.69,0,0,1,.228.552.733.733,0,0,1-.228.564A.885.885,0,0,1,205.71,288.535Zm1.8,4.988v-4.436h1.247l.108.528h.036a3.1,3.1,0,0,1,.6-.444,1.563,1.563,0,0,1,.8-.192,1.174,1.174,0,0,1,1.055.492,2.359,2.359,0,0,1,.324,1.319v2.734h-1.523v-2.542a1,1,0,0,0-.108-.564.387.387,0,0,0-.336-.144.667.667,0,0,0-.36.084,2.411,2.411,0,0,0-.324.252v2.914Zm6.774,1.822a3.33,3.33,0,0,1-.935-.12,1.535,1.535,0,0,1-.683-.348.831.831,0,0,1-.252-.635.962.962,0,0,1,.623-.851v-.036a1.36,1.36,0,0,1-.288-.3.885.885,0,0,1-.12-.456.944.944,0,0,1,.132-.456,1.558,1.558,0,0,1,.36-.384v-.036a1.585,1.585,0,0,1-.432-.456,1.323,1.323,0,0,1-.18-.683,1.467,1.467,0,0,1,.264-.911,1.557,1.557,0,0,1,.707-.528,2.39,2.39,0,0,1,.923-.18,2.19,2.19,0,0,1,.707.108h1.679v1.1h-.635a1.744,1.744,0,0,1,.048.2,1.788,1.788,0,0,1,.024.252,1.431,1.431,0,0,1-.24.851,1.3,1.3,0,0,1-.647.468,2.739,2.739,0,0,1-.911.156,2.6,2.6,0,0,1-.492-.06.327.327,0,0,0-.108.252.2.2,0,0,0,.144.2,1.5,1.5,0,0,0,.48.06h.671a2.518,2.518,0,0,1,1.283.276.92.92,0,0,1,.456.875,1.208,1.208,0,0,1-.324.839,1.991,1.991,0,0,1-.887.564A3.405,3.405,0,0,1,214.283,295.345Zm.144-4.137a.432.432,0,0,0,.348-.156.7.7,0,0,0,.132-.468.688.688,0,0,0-.132-.456.452.452,0,0,0-.348-.156.432.432,0,0,0-.348.156.666.666,0,0,0-.132.456.7.7,0,0,0,.132.468A.432.432,0,0,0,214.426,291.208Zm.108,3.2a1.378,1.378,0,0,0,.623-.12q.252-.108.252-.288a.212.212,0,0,0-.156-.228,1.786,1.786,0,0,0-.432-.048h-.348a3.747,3.747,0,0,1-.408-.012.649.649,0,0,1-.228-.036.457.457,0,0,0-.156.324.338.338,0,0,0,.24.312A1.673,1.673,0,0,0,214.534,294.41Zm4.88-.887v-5.767h3.765v1.283h-2.242v1.1h1.918v1.283h-1.918v2.11h-1.523Zm5.431.108a1.292,1.292,0,0,1-.719-.192,1.363,1.363,0,0,1-.611-1.175,1.245,1.245,0,0,1,.564-1.079,4.038,4.038,0,0,1,1.846-.528c-.036-.312-.24-.456-.623-.456a1.616,1.616,0,0,0-.5.1,4.271,4.271,0,0,0-.611.276l-.528-1a4.152,4.152,0,0,1,.947-.432,3.535,3.535,0,0,1,1.007-.156,1.841,1.841,0,0,1,1.355.492,2.175,2.175,0,0,1,.492,1.583v2.47h-1.247l-.108-.432h-.036a3.433,3.433,0,0,1-.564.4A1.659,1.659,0,0,1,224.846,293.63Zm.54-1.175a.528.528,0,0,0,.312-.084,1.068,1.068,0,0,0,.24-.228v-.6a1.68,1.68,0,0,0-.755.24.47.47,0,0,0-.2.348C224.978,292.347,225.109,292.455,225.385,292.455Zm5.072,1.175a2.388,2.388,0,0,1-1.139-.276,1.963,1.963,0,0,1-.8-.791,2.571,2.571,0,0,1-.288-1.259,2.27,2.27,0,0,1,.324-1.247,2.344,2.344,0,0,1,.875-.8,2.607,2.607,0,0,1,1.175-.276,1.933,1.933,0,0,1,1.295.456l-.707.971a.827.827,0,0,0-.252-.168.775.775,0,0,0-.24-.048.81.81,0,0,0-.671.3,1.234,1.234,0,0,0-.24.8,1.194,1.194,0,0,0,.252.8.778.778,0,0,0,.6.288.789.789,0,0,0,.36-.084,2.033,2.033,0,0,0,.348-.2l.587,1a1.771,1.771,0,0,1-.731.408A2.166,2.166,0,0,1,230.457,293.63Zm3.969,0a2.534,2.534,0,0,1-1.175-.276,1.991,1.991,0,0,1-.815-.791,2.447,2.447,0,0,1-.3-1.259,2.386,2.386,0,0,1,.3-1.235,2.069,2.069,0,0,1,.8-.8,2,2,0,0,1,1.031-.288,1.852,1.852,0,0,1,1.079.288,1.659,1.659,0,0,1,.635.767,2.628,2.628,0,0,1,.216,1.079c0,.132-.012.252-.024.384a2.028,2.028,0,0,1-.036.252h-2.53a.9.9,0,0,0,.384.564,1.359,1.359,0,0,0,.647.156,1.865,1.865,0,0,0,.911-.264l.492.911a2.927,2.927,0,0,1-.8.384A2.958,2.958,0,0,1,234.426,293.63Zm-.827-2.866h1.319a.775.775,0,0,0-.132-.444.509.509,0,0,0-.468-.192.669.669,0,0,0-.444.156A.708.708,0,0,0,233.6,290.765Z" transform="translate(311.8 -271.76)" fill="#000b1b"></path></g></g></svg> 