<svg width="51" height="50" viewBox="0 0 51 50" fill="none" xmlns="http://www.w3.org/2000/svg">
<path d="M38.2261 24.492C36.5738 24.492 34.9938 24.8235 33.5529 25.4304C31.7059 23.2895 29.3971 21.57 26.7823 20.4294C29.0188 18.3727 30.4374 15.4171 30.4374 12.1299C30.4374 5.93197 25.4471 0.891602 19.3108 0.891602C13.1745 0.891602 8.18416 5.93197 8.18416 12.1299C8.18416 15.4171 9.59724 18.3727 11.8337 20.4294C5.1132 23.3625 0.395508 30.1224 0.395508 37.9779V40.2256C0.395508 42.0855 1.89204 43.5971 3.7335 43.5971H27.9729C30.1593 46.9742 33.9368 49.2162 38.2261 49.2162C44.9744 49.2162 50.4654 43.6701 50.4654 36.8541C50.4654 30.0381 44.9744 24.492 38.2261 24.492ZM10.4095 12.1299C10.4095 7.1738 14.404 3.13926 19.3108 3.13926C24.2177 3.13926 28.2121 7.1738 28.2121 12.1299C28.2121 17.086 24.2177 21.1205 19.3108 21.1205C14.404 21.1205 10.4095 17.086 10.4095 12.1299ZM26.8268 41.3494H3.7335C3.11597 41.3494 2.62084 40.8437 2.62084 40.2256V37.9779C2.62084 30.555 7.3886 24.2447 13.9978 22.0027C15.5778 22.8737 17.3859 23.3682 19.3108 23.3682C21.2301 23.3682 23.0438 22.8737 24.6238 22.0027C27.2886 22.9074 29.653 24.4751 31.5279 26.5093C28.1954 28.7232 25.9868 32.533 25.9868 36.8541C25.9868 38.4387 26.2872 39.9559 26.8268 41.3494ZM38.2261 46.9686C32.7017 46.9686 28.2121 42.4283 28.2121 36.8541C28.2121 31.2743 32.7017 26.7396 38.2261 26.7396C43.7449 26.7396 48.2401 31.2743 48.2401 36.8541C48.2401 42.4283 43.7449 46.9686 38.2261 46.9686Z" fill="#4A4B65"/>
</svg>
