<svg width="56" height="44" viewBox="0 0 56 44" fill="none" xmlns="http://www.w3.org/2000/svg">
<path d="M27.7621 20.4009C26.9083 20.3999 26.0898 20.0605 25.4858 19.457C24.8819 18.8535 24.5418 18.0353 24.54 17.1815C24.54 16.9021 24.651 16.6342 24.8486 16.4367C25.0461 16.2391 25.3141 16.1281 25.5934 16.1281C25.8728 16.1281 26.1407 16.2391 26.3383 16.4367C26.5358 16.6342 26.6468 16.9021 26.6468 17.1815C26.6476 17.4019 26.7137 17.6172 26.8367 17.8C26.9597 17.9829 27.1342 18.1253 27.338 18.2091C27.5419 18.2929 27.766 18.3144 27.9821 18.2709C28.1982 18.2274 28.3965 18.1209 28.5521 17.9648C28.7077 17.8087 28.8135 17.6099 28.8562 17.3937C28.8989 17.1775 28.8766 16.9534 28.7921 16.7499C28.7076 16.5463 28.5646 16.3723 28.3813 16.25C28.198 16.1276 27.9825 16.0623 27.7621 16.0623C27.1248 16.0623 26.5018 15.8733 25.972 15.5192C25.4421 15.1651 25.0291 14.6619 24.7852 14.0731C24.5414 13.4843 24.4776 12.8364 24.602 12.2114C24.7264 11.5864 25.0333 11.0122 25.484 10.5617C25.9347 10.1111 26.5088 9.80425 27.1339 9.68C27.759 9.55575 28.4068 9.61965 28.9956 9.86362C29.5843 10.1076 30.0875 10.5207 30.4415 11.0506C30.7954 11.5806 30.9843 12.2036 30.9842 12.8409C30.9842 13.1203 30.8732 13.3882 30.6756 13.5857C30.4781 13.7833 30.2101 13.8943 29.9308 13.8943C29.6514 13.8943 29.3835 13.7833 29.1859 13.5857C28.9884 13.3882 28.8774 13.1203 28.8774 12.8409C28.8775 12.6203 28.8122 12.4046 28.6897 12.2211C28.5673 12.0376 28.3931 11.8945 28.1894 11.81C27.9856 11.7255 27.7613 11.7033 27.5449 11.7463C27.3285 11.7893 27.1298 11.8954 26.9737 12.0514C26.8177 12.2073 26.7114 12.406 26.6683 12.6224C26.6252 12.8388 26.6473 13.063 26.7317 13.2669C26.816 13.4707 26.959 13.6449 27.1424 13.7675C27.3258 13.8901 27.5415 13.9555 27.7621 13.9555C28.6166 13.9555 29.4362 14.295 30.0404 14.8992C30.6447 15.5035 30.9842 16.323 30.9842 17.1776C30.9842 18.0321 30.6447 18.8516 30.0404 19.4559C29.4362 20.0602 28.6166 20.3996 27.7621 20.3996V20.4009Z" fill="#4A4B65"/>
<path d="M27.7624 11.728C27.483 11.728 27.2151 11.617 27.0175 11.4195C26.82 11.2219 26.709 10.954 26.709 10.6746V9.40398C26.709 9.1246 26.82 8.85667 27.0175 8.65912C27.2151 8.46157 27.483 8.35059 27.7624 8.35059C28.0418 8.35059 28.3097 8.46157 28.5072 8.65912C28.7048 8.85667 28.8158 9.1246 28.8158 9.40398V10.6746C28.8158 10.954 28.7048 11.2219 28.5072 11.4195C28.3097 11.617 28.0418 11.728 27.7624 11.728ZM27.7624 21.6727C27.483 21.6727 27.2151 21.5617 27.0175 21.3642C26.82 21.1666 26.709 20.8987 26.709 20.6193V19.3486C26.709 19.0693 26.82 18.8013 27.0175 18.6038C27.2151 18.4062 27.483 18.2953 27.7624 18.2953C28.0418 18.2953 28.3097 18.4062 28.5072 18.6038C28.7048 18.8013 28.8158 19.0693 28.8158 19.3486V20.6193C28.8158 20.8987 28.7048 21.1666 28.5072 21.3642C28.3097 21.5617 28.0418 21.6727 27.7624 21.6727Z" fill="#4A4B65"/>
<path d="M27.7625 39.9029C26.7078 39.9029 25.6767 39.5901 24.7997 39.0042C23.9228 38.4182 23.2393 37.5853 22.8356 36.6109C22.432 35.6364 22.3264 34.5642 22.5322 33.5297C22.7379 32.4953 23.2458 31.545 23.9916 30.7992C24.7374 30.0534 25.6876 29.5455 26.7221 29.3398C27.7566 29.134 28.8288 29.2396 29.8033 29.6432C30.7777 30.0469 31.6106 30.7304 32.1965 31.6074C32.7825 32.4843 33.0953 33.5154 33.0953 34.5701C33.0937 35.984 32.5314 37.3395 31.5316 38.3392C30.5318 39.339 29.1763 39.9013 27.7625 39.9029ZM27.7625 31.3441C27.1244 31.3441 26.5007 31.5333 25.9702 31.8878C25.4397 32.2422 25.0262 32.7461 24.782 33.3356C24.5379 33.925 24.474 34.5737 24.5985 35.1995C24.7229 35.8252 25.0302 36.4001 25.4813 36.8512C25.9325 37.3024 26.5073 37.6096 27.1331 37.7341C27.7589 37.8586 28.4075 37.7947 28.997 37.5505C29.5865 37.3064 30.0903 36.8929 30.4448 36.3624C30.7993 35.8319 30.9885 35.2081 30.9885 34.5701C30.9876 33.7148 30.6475 32.8947 30.0426 32.2899C29.4378 31.6851 28.6178 31.345 27.7625 31.3441Z" fill="#4A4B65"/>
<path d="M54.0969 29.4593H35.9562C35.6769 29.4593 35.4089 29.3483 35.2114 29.1508C35.0138 28.9532 34.9029 28.6853 34.9029 28.4059C34.9029 28.1265 35.0138 27.8586 35.2114 27.661C35.4089 27.4635 35.6769 27.3525 35.9562 27.3525H53.0436V2.67026H2.4808V27.3525H19.7643C20.0437 27.3525 20.3116 27.4635 20.5092 27.661C20.7067 27.8586 20.8177 28.1265 20.8177 28.4059C20.8177 28.6853 20.7067 28.9532 20.5092 29.1508C20.3116 29.3483 20.0437 29.4593 19.7643 29.4593H1.42741C1.14804 29.4593 0.880104 29.3483 0.682555 29.1508C0.485006 28.9532 0.374023 28.6853 0.374023 28.4059V1.61687C0.374023 1.33749 0.485006 1.06956 0.682555 0.872007C0.880104 0.674458 1.14804 0.563477 1.42741 0.563477H54.0969C54.3763 0.563477 54.6443 0.674458 54.8418 0.872007C55.0394 1.06956 55.1503 1.33749 55.1503 1.61687V28.4059C55.1503 28.6853 55.0394 28.9532 54.8418 29.1508C54.6443 29.3483 54.3763 29.4593 54.0969 29.4593Z" fill="#4A4B65"/>
<path d="M8.38487 12.067H6.03581C5.75644 12.067 5.4885 11.956 5.29095 11.7584C5.0934 11.5609 4.98242 11.2929 4.98242 11.0136C4.98242 10.7342 5.0934 10.4663 5.29095 10.2687C5.4885 10.0712 5.75644 9.96018 6.03581 9.96018H8.38553C8.72934 9.96018 9.05907 9.82361 9.30217 9.5805C9.54528 9.33739 9.68186 9.00766 9.68186 8.66385C9.68186 8.32004 9.54528 7.99032 9.30217 7.74721C9.05907 7.5041 8.72934 7.36752 8.38553 7.36752C8.10616 7.36752 7.83822 7.25654 7.64067 7.05899C7.44312 6.86144 7.33214 6.59351 7.33214 6.31413C7.33214 6.03476 7.44312 5.76682 7.64067 5.56927C7.83822 5.37172 8.10616 5.26074 8.38553 5.26074C9.28809 5.26074 10.1537 5.61928 10.7919 6.25749C11.4301 6.8957 11.7886 7.76129 11.7886 8.66385C11.7886 9.56641 11.4301 10.432 10.7919 11.0702C10.1537 11.7084 9.28809 12.067 8.38553 12.067H8.38487ZM49.4882 12.067H47.1391C46.2366 12.067 45.371 11.7084 44.7328 11.0702C44.0945 10.432 43.736 9.56641 43.736 8.66385C43.736 7.76129 44.0945 6.8957 44.7328 6.25749C45.371 5.61928 46.2366 5.26074 47.1391 5.26074C47.4185 5.26074 47.6864 5.37172 47.884 5.56927C48.0815 5.76682 48.1925 6.03476 48.1925 6.31413C48.1925 6.59351 48.0815 6.86144 47.884 7.05899C47.6864 7.25654 47.4185 7.36752 47.1391 7.36752C46.7954 7.3677 46.4657 7.50433 46.2227 7.7474C45.9796 7.99047 45.843 8.3201 45.8428 8.66385C45.8431 9.00755 45.9798 9.33708 46.2229 9.58011C46.4659 9.82314 46.7954 9.95983 47.1391 9.96018H49.4882C49.7676 9.96018 50.0355 10.0712 50.233 10.2687C50.4306 10.4663 50.5416 10.7342 50.5416 11.0136C50.5416 11.2929 50.4306 11.5609 50.233 11.7584C50.0355 11.956 49.7676 12.067 49.4882 12.067ZM8.38487 24.761C8.1055 24.761 7.83756 24.65 7.64001 24.4524C7.44246 24.2549 7.33148 23.987 7.33148 23.7076C7.33148 23.4282 7.44246 23.1603 7.64001 22.9627C7.83756 22.7652 8.1055 22.6542 8.38487 22.6542C8.72852 22.6537 9.05794 22.5169 9.30094 22.2739C9.54393 22.0309 9.68068 21.7015 9.6812 21.3579C9.68085 21.0142 9.54417 20.6846 9.30113 20.4416C9.0581 20.1986 8.72857 20.0619 8.38487 20.0615H6.03581C5.75644 20.0615 5.4885 19.9506 5.29095 19.753C5.0934 19.5555 4.98242 19.2875 4.98242 19.0081C4.98242 18.7288 5.0934 18.4608 5.29095 18.2633C5.4885 18.0657 5.75644 17.9548 6.03581 17.9548H8.38553C9.28809 17.9548 10.1537 18.3133 10.7919 18.9515C11.4301 19.5897 11.7886 20.4553 11.7886 21.3579C11.7886 22.2604 11.4301 23.126 10.7919 23.7642C10.1537 24.4024 9.28809 24.761 8.38553 24.761H8.38487ZM47.1391 24.761C46.2366 24.761 45.371 24.4024 44.7328 23.7642C44.0945 23.126 43.736 22.2604 43.736 21.3579C43.736 20.4553 44.0945 19.5897 44.7328 18.9515C45.371 18.3133 46.2366 17.9548 47.1391 17.9548H49.4882C49.7676 17.9548 50.0355 18.0657 50.233 18.2633C50.4306 18.4608 50.5416 18.7288 50.5416 19.0081C50.5416 19.2875 50.4306 19.5555 50.233 19.753C50.0355 19.9506 49.7676 20.0615 49.4882 20.0615H47.1391C46.7953 20.0615 46.4656 20.1981 46.2225 20.4412C45.9794 20.6843 45.8428 21.0141 45.8428 21.3579C45.8428 21.7017 45.9794 22.0314 46.2225 22.2745C46.4656 22.5176 46.7953 22.6542 47.1391 22.6542C47.4185 22.6542 47.6864 22.7652 47.884 22.9627C48.0815 23.1603 48.1925 23.4282 48.1925 23.7076C48.1925 23.987 48.0815 24.2549 47.884 24.4524C47.6864 24.65 47.4185 24.761 47.1391 24.761ZM27.9595 43.5469C22.4812 43.5469 17.8865 41.2781 14.8428 39.2221C11.9282 37.2522 10.2257 35.3489 10.1546 35.2718C9.98353 35.0791 9.88907 34.8303 9.88907 34.5727C9.88907 34.315 9.98353 34.0662 10.1546 33.8735C10.2257 33.7938 11.9282 31.8898 14.8428 29.92C20.7648 25.9164 32.6003 21.1011 45.3253 33.828C45.4231 33.9259 45.5008 34.042 45.5537 34.1698C45.6067 34.2976 45.6339 34.4346 45.6339 34.573C45.6339 34.7113 45.6067 34.8483 45.5537 34.9762C45.5008 35.104 45.4231 35.2201 45.3253 35.3179C39.134 41.5073 33.1507 43.5469 27.9595 43.5469ZM12.4174 34.5694C13.5342 35.6391 14.7401 36.6117 16.022 37.4767C22.4476 41.822 32.2955 44.7609 43.0717 34.5694C32.2955 24.3778 22.4476 27.3207 16.022 31.662C14.7402 32.5272 13.5343 33.4998 12.4174 34.5694Z" fill="#4A4B65"/>
</svg>
