<svg width="90" height="66" viewBox="0 0 90 66" fill="none" xmlns="http://www.w3.org/2000/svg">
<g clip-path="url(#clip0_185_216)">
<path d="M81.1581 1.10547H41.8315C37.5645 1.10547 34.1055 4.56454 34.1055 8.83151V48.1581C34.1055 52.4251 37.5645 55.8841 41.8315 55.8841H81.1581C85.4251 55.8841 88.8841 52.4251 88.8841 48.1581V8.83151C88.8841 4.56454 85.4251 1.10547 81.1581 1.10547Z" stroke="#B9B9B9" stroke-width="2.2106" stroke-miterlimit="10"/>
<path d="M66.2041 37.2378C66.2041 39.797 65.1875 42.2513 63.3779 44.0609C61.5683 45.8705 59.114 46.8871 56.5548 46.8871H52.7636C50.2068 46.8882 47.754 45.8745 45.9439 44.0686C44.5958 42.7191 43.6779 41.0004 43.3061 39.1295C42.9344 37.2586 43.1255 35.3195 43.8552 33.5572C44.585 31.7948 45.8207 30.2883 47.4063 29.2279C48.9919 28.1676 50.8562 27.6009 52.7636 27.5996H56.5548C59.1131 27.6025 61.5657 28.6201 63.3747 30.429C65.1836 32.238 66.2012 34.6906 66.2041 37.2489V37.2378Z" stroke="#B9B9B9" stroke-width="2.2106" stroke-miterlimit="10"/>
<path d="M54.6532 22.4486C58.0656 22.4486 60.8319 19.6823 60.8319 16.2699C60.8319 12.8576 58.0656 10.0913 54.6532 10.0913C51.2409 10.0913 48.4746 12.8576 48.4746 16.2699C48.4746 19.6823 51.2409 22.4486 54.6532 22.4486Z" stroke="#B9B9B9" stroke-width="2.2106" stroke-miterlimit="10"/>
<path d="M65.8262 24.9687V19.9064C65.8291 18.7084 66.3063 17.5602 67.1535 16.713C68.0006 15.8659 69.1488 15.3887 70.3468 15.3857H73.9059M79.8745 19.9064V24.9687C79.8716 26.1668 79.3944 27.3149 78.5472 28.1621C77.7001 29.0092 76.5519 29.4864 75.3539 29.4894H71.7948" stroke="#B9B9B9" stroke-width="2.2106" stroke-linecap="round" stroke-linejoin="round"/>
<path d="M71.7949 12.8989L73.8397 15.3859L71.7949 17.8065M73.8397 27.0468L71.7949 29.5337L73.8397 31.9543" stroke="#B9B9B9" stroke-width="2.2106" stroke-linecap="round" stroke-linejoin="round"/>
</g>
<path opacity="0.1" fill-rule="evenodd" clip-rule="evenodd" d="M21.9717 62.0361C36.5303 69.137 65.3265 64.5576 72.4274 49.999C79.5283 35.4404 58.4652 18.9941 43.9065 11.8933C29.3479 4.79236 9.67793 -5.81579 2.57704 8.74282C-4.52385 23.3014 7.41307 54.9352 21.9717 62.0361Z" fill="#00245B"/>
<defs>
<clipPath id="clip0_185_216">
<rect width="56.9893" height="56.9893" fill="white" transform="translate(33)"/>
</clipPath>
</defs>
</svg>
