<svg width="59" height="60" viewBox="0 0 59 60" fill="none" xmlns="http://www.w3.org/2000/svg">
<path d="M1.02332 0.966867C0.805953 1.03794 0.617979 1.1785 0.488354 1.36691C0.358729 1.55532 0.294643 1.78112 0.305967 2.00953V58.3135C0.305967 58.5901 0.415819 58.8553 0.611357 59.0508C0.806895 59.2464 1.0721 59.3562 1.34863 59.3562H57.6526C57.9292 59.3562 58.1944 59.2464 58.3899 59.0508C58.5855 58.8553 58.6953 58.5901 58.6953 58.3135V2.00953C58.6953 1.733 58.5855 1.4678 58.3899 1.27226C58.1944 1.07672 57.9292 0.966867 57.6526 0.966867H1.34863C1.24086 0.949846 1.13109 0.949846 1.02332 0.966867ZM2.3913 3.0522H56.61V9.3082H2.3913V3.0522ZM5.5193 5.13753C5.24277 5.13753 4.97756 5.24739 4.78203 5.44292C4.58649 5.63846 4.47663 5.90367 4.47663 6.1802C4.47663 6.45673 4.58649 6.72194 4.78203 6.91748C4.97756 7.11302 5.24277 7.22287 5.5193 7.22287C5.79583 7.22287 6.06104 7.11302 6.25658 6.91748C6.45212 6.72194 6.56197 6.45673 6.56197 6.1802C6.56197 5.90367 6.45212 5.63846 6.25658 5.44292C6.06104 5.24739 5.79583 5.13753 5.5193 5.13753ZM9.68997 5.13753C9.41344 5.13753 9.14823 5.24739 8.95269 5.44292C8.75715 5.63846 8.6473 5.90367 8.6473 6.1802C8.6473 6.45673 8.75715 6.72194 8.95269 6.91748C9.14823 7.11302 9.41344 7.22287 9.68997 7.22287C9.9665 7.22287 10.2317 7.11302 10.4272 6.91748C10.6228 6.72194 10.7326 6.45673 10.7326 6.1802C10.7326 5.90367 10.6228 5.63846 10.4272 5.44292C10.2317 5.24739 9.9665 5.13753 9.68997 5.13753ZM13.8606 5.13753C13.5841 5.13753 13.3189 5.24739 13.1234 5.44292C12.9278 5.63846 12.818 5.90367 12.818 6.1802C12.818 6.45673 12.9278 6.72194 13.1234 6.91748C13.3189 7.11302 13.5841 7.22287 13.8606 7.22287C14.1372 7.22287 14.4024 7.11302 14.5979 6.91748C14.7935 6.72194 14.9033 6.45673 14.9033 6.1802C14.9033 5.90367 14.7935 5.63846 14.5979 5.44292C14.4024 5.24739 14.1372 5.13753 13.8606 5.13753ZM2.3913 11.3935H56.61V57.2709H2.3913V11.3935ZM29.5006 19.7349C21.4513 19.7349 14.9033 26.2828 14.9033 34.3322C14.9033 42.3816 21.4513 48.9295 29.5006 48.9295C37.55 48.9295 44.098 42.3816 44.098 34.3322C44.098 26.2828 37.55 19.7349 29.5006 19.7349ZM28.458 22.0162V26.5122H24.2873C24.6481 25.2506 25.0839 23.9598 25.5906 22.6668C26.5103 22.3624 27.4466 22.1038 28.458 22.0162ZM30.5433 22.0162C31.5046 22.0996 32.4013 22.3207 33.2813 22.6022C33.7964 23.916 34.2198 25.2297 34.5847 26.5122H30.5433V22.0162ZM22.984 23.8409C22.6795 24.7376 22.373 25.6197 22.1373 26.5122H19.9206C20.7832 25.4548 21.819 24.5516 22.984 23.8409ZM35.9527 23.8409C37.1413 24.5666 38.1902 25.4216 39.0807 26.5122H36.7993C36.5616 25.6197 36.2571 24.7376 35.9527 23.8409ZM18.5526 28.5975H21.6806C21.3695 30.1449 21.1736 31.7132 21.0947 33.2895H17.1847C17.3212 31.6496 17.7864 30.0539 18.5526 28.5975ZM23.766 28.5975H28.458V33.2895H23.1133C23.205 31.7339 23.4219 30.1636 23.766 28.5975ZM30.5433 28.5975H35.106C35.4501 30.1636 35.667 31.7339 35.7566 33.2895H30.5433V28.5975ZM37.256 28.5975H40.4486C41.2149 30.0539 41.6801 31.6496 41.8166 33.2895H37.842C37.763 31.7132 37.5671 30.1449 37.256 28.5975ZM17.1847 35.3749H21.03C21.055 36.918 21.2073 38.5029 21.4846 40.0669H18.5526C17.7815 38.6125 17.316 37.0158 17.1847 35.3749ZM23.0486 35.3749H28.458V40.0669H23.57C23.2584 38.5213 23.0839 36.9512 23.0486 35.3749ZM30.5433 35.3749H35.8213C35.7921 36.9347 35.6128 38.4799 35.3 40.0669H30.5433V35.3749ZM37.9066 35.3749H41.8166C41.6854 37.0158 41.2198 38.6125 40.4486 40.0669H37.4499C37.7273 38.5029 37.8795 36.918 37.9066 35.3749ZM19.9873 42.1522H21.9413C22.1478 42.978 22.3771 43.7913 22.6587 44.6296C21.6555 43.9343 20.7561 43.1002 19.9873 42.1522ZM24.0913 42.1522H28.458V46.6482C27.413 46.5651 26.3832 46.3464 25.3946 45.9976C24.8804 44.7442 24.4451 43.4599 24.0913 42.1522ZM30.5433 42.1522H34.7786C34.4276 43.4819 33.9923 44.7878 33.4753 46.0622C32.5259 46.3778 31.5411 46.5747 30.5433 46.6482V42.1522ZM36.9953 42.1522H39.0139C38.2361 43.0906 37.3478 43.9477 36.3447 44.6296C36.6221 43.7996 36.7889 42.9717 36.9953 42.1522Z" fill="#B9B9B9"/>
</svg>
