<svg width="91" height="72" viewBox="0 0 91 72" fill="none" xmlns="http://www.w3.org/2000/svg">
<path opacity="0.1" fill-rule="evenodd" clip-rule="evenodd" d="M21.5908 67.9536C36.1494 75.0545 64.9457 70.4751 72.0466 55.9165C79.1474 41.3579 58.0843 24.9116 43.5257 17.8107C28.9671 10.7098 9.29707 0.101693 2.19618 14.6603C-4.9047 29.2189 7.03221 60.8527 21.5908 67.9536Z" fill="#00245B"/>
<g clip-path="url(#clip0_185_225)">
<path fill-rule="evenodd" clip-rule="evenodd" d="M64.6428 58.7695H39.9464C37.5318 58.7695 35.5684 56.806 35.5684 54.3923L35.5688 8.03448C35.5688 5.6208 37.5315 3.65726 39.946 3.65726L64.6428 3.65723C67.0565 3.65723 69.0204 5.62087 69.0204 8.03448L69.0205 16.3069C69.0205 16.6554 68.7378 16.9379 68.3895 16.9379C68.0415 16.9379 67.7583 16.6555 67.7583 16.307L67.7584 8.03448C67.7584 6.31669 66.3605 4.91931 64.6427 4.91931H39.9465C38.2284 4.91931 36.8305 6.31677 36.8305 8.03448L36.8308 54.3922C36.8308 56.1098 38.2284 57.5076 39.9461 57.5076L64.6429 57.5075C66.3609 57.5075 67.7584 56.11 67.7584 54.3923L67.7585 46.1199C67.7585 45.7714 68.0411 45.4889 68.3895 45.4889C68.7381 45.4889 69.0204 45.7714 69.0204 46.1199L69.0205 54.3923C69.0205 56.8059 67.056 58.7696 64.6428 58.7695Z" fill="#B9B9B9"/>
<path fill-rule="evenodd" clip-rule="evenodd" d="M68.3894 10.3907H36.1998C35.8512 10.3907 35.5684 10.1084 35.5684 9.75991C35.5688 9.41137 35.851 9.12891 36.1994 9.12891H68.3894C68.738 9.12891 69.0204 9.41141 69.0204 9.75991C69.0205 10.1082 68.7378 10.3909 68.3894 10.3907ZM68.3894 53.3082H36.1998C35.8512 53.3082 35.5684 53.0258 35.5684 52.6773C35.5688 52.3286 35.851 52.0463 36.1994 52.0463L68.3894 52.0461C68.738 52.0461 69.0204 52.3288 69.0204 52.6773C69.0205 53.0257 68.7378 53.3083 68.3894 53.3082ZM66.8656 45.4941H69.9133V42.8913C69.9133 42.5869 70.1302 42.3257 70.4303 42.2708C71.9918 41.9845 73.4486 41.3805 74.7599 40.4757C75.0108 40.3026 75.3493 40.3336 75.5651 40.549L77.4058 42.3902L79.5606 40.2354L77.7203 38.3943C77.5044 38.1788 77.4736 37.8405 77.6466 37.5898C78.552 36.2781 79.1552 34.8211 79.4422 33.2595C79.497 32.9598 79.7577 32.7423 80.0623 32.7423L82.6645 32.7422V29.6947H80.0625C79.7578 29.6947 79.497 29.4773 79.4422 29.1777C79.1554 27.6163 78.5516 26.1593 77.6467 24.8473C77.4738 24.5965 77.5042 24.2581 77.7201 24.0428L79.5606 22.2018L77.4058 20.0467L75.5654 21.888C75.3495 22.1034 75.0107 22.1342 74.7599 21.9614C73.4486 21.0568 71.9915 20.453 70.4303 20.1664C70.1302 20.1112 69.9133 19.8503 69.9133 19.5457V16.9431H66.8656V19.5456C66.8656 19.8502 66.6475 20.1114 66.3484 20.1664C64.7878 20.4527 63.3302 21.0569 62.0178 21.9616C61.7681 22.1345 61.4294 22.1036 61.2136 21.8884L59.3722 20.0469L57.2174 22.2018L59.0592 24.0428C59.2746 24.2583 59.3053 24.5968 59.1321 24.8475C58.2275 26.1588 57.6236 27.6158 57.3365 29.1778C57.2819 29.4773 57.0211 29.6949 56.7155 29.6949L54.1135 29.6947V32.7422H56.7164C57.0211 32.7422 57.2818 32.9599 57.3365 33.2595C57.6236 34.8204 58.2272 36.2772 59.1321 37.5898C59.3056 37.8404 59.2745 38.1788 59.0587 38.3941L57.2174 40.2353L59.3722 42.3902L61.214 40.5489C61.4295 40.3337 61.768 40.303 62.0178 40.4759C63.3304 41.3805 64.7862 41.9847 66.3484 42.2713C66.6488 42.3261 66.8655 42.5873 66.8655 42.8919L66.8656 45.4941ZM70.5444 46.7559H66.2346C65.886 46.7559 65.6034 46.4736 65.6034 46.1251L65.6036 43.4063C64.2311 43.0947 62.9358 42.5579 61.7417 41.8054L59.8193 43.7287C59.701 43.8472 59.5397 43.9137 59.3721 43.9137C59.2056 43.9135 59.0445 43.8473 58.9261 43.7289L55.8798 40.6815C55.6334 40.435 55.633 40.0357 55.8794 39.7893L57.8025 37.8653C57.0497 36.671 56.5127 35.3764 56.2016 34.0044L53.4824 34.0042C53.1344 34.0042 52.8514 33.7218 52.8514 33.3734V29.0639C52.8514 28.7152 53.1341 28.433 53.4824 28.433L56.2018 28.4329C56.5129 27.0599 57.0495 25.7651 57.8022 24.5714L55.8784 22.6479C55.7601 22.5296 55.6944 22.3692 55.6944 22.2018C55.6945 22.0342 55.7601 21.8739 55.8784 21.7556L58.9265 18.7082C59.173 18.4618 59.5726 18.462 59.819 18.7083L61.743 20.6321C62.937 19.8793 64.2307 19.3428 65.6034 19.0311L65.6036 16.312C65.6036 15.9635 65.8861 15.6812 66.2345 15.6812L70.5444 15.681C70.8929 15.681 71.1753 15.9637 71.1753 16.3122L71.1754 19.0309C72.5484 19.3427 73.843 19.8796 75.036 20.6317L76.9601 18.7082C77.0784 18.5899 77.2391 18.5235 77.4056 18.5235C77.5731 18.5235 77.7343 18.5899 77.8526 18.7083L80.8995 21.7554C81.1461 22.0019 81.1458 22.4016 80.8993 22.648L78.9769 24.5711C79.7292 25.7654 80.265 27.0604 80.5772 28.4328L83.2955 28.4327C83.6436 28.4327 83.9262 28.7154 83.9262 29.0639L83.9265 33.3732C83.9265 33.7217 83.6436 34.0043 83.2952 34.0043L80.5772 34.0042C80.2651 35.3769 79.7282 36.6719 78.9755 37.8657L80.8995 39.7892C81.0179 39.9075 81.0844 40.0681 81.0844 40.2355C81.0844 40.4027 81.0175 40.5633 80.8993 40.6817L77.8529 43.7287C77.6064 43.9752 77.2063 43.9753 76.9597 43.7289L75.036 41.805C73.842 42.5576 72.5469 43.0946 71.1753 43.4062L71.1754 46.1251C71.1754 46.4737 70.8927 46.756 70.5444 46.7559Z" fill="#B9B9B9"/>
<path fill-rule="evenodd" clip-rule="evenodd" d="M68.3751 23.6545C64.2069 23.6545 60.8148 27.0461 60.8148 31.215C60.8152 35.3837 64.2066 38.7754 68.3751 38.7754C72.5439 38.7754 75.9353 35.3838 75.9353 31.215C75.9357 27.046 72.5436 23.6545 68.3751 23.6545ZM68.3751 40.0375C63.5099 40.0375 59.5527 36.0797 59.5527 31.215C59.5531 26.3501 63.5097 22.3926 68.3751 22.3926C73.2395 22.3924 77.1974 26.3503 77.1974 31.215C77.1977 36.0796 73.2393 40.0375 68.3751 40.0375Z" fill="#B9B9B9"/>
<path fill-rule="evenodd" clip-rule="evenodd" d="M69.4813 31.6753C69.256 31.6753 69.0386 31.5544 68.9247 31.3419L66.7249 27.2312C66.5608 26.9238 66.6767 26.5416 66.9834 26.3772C67.2914 26.2129 67.6736 26.3287 67.8379 26.6358L70.0378 30.7462C70.2025 31.0536 70.086 31.4361 69.7781 31.6004C69.6844 31.6511 69.5821 31.6753 69.4813 31.6753ZM65.7183 31.675C65.5838 31.675 65.4464 31.6315 65.3303 31.5416L62.6303 29.4341C62.4769 29.3146 62.3878 29.131 62.3878 28.9367C62.3882 28.7422 62.4765 28.5587 62.6298 28.4392L65.3319 26.3317C65.6054 26.1173 66.0019 26.1663 66.2166 26.441C66.4317 26.7158 66.382 27.1124 66.107 27.3268L64.0446 28.9364L66.1073 30.5465C66.3824 30.761 66.4313 31.1575 66.2166 31.4323C66.092 31.5917 65.9066 31.6751 65.7183 31.675ZM71.0436 31.675C70.8562 31.675 70.67 31.5918 70.5461 31.4323C70.3317 31.1573 70.3807 30.7611 70.6557 30.5467L72.7187 28.9364L70.656 27.3266C70.381 27.1124 70.3314 26.7158 70.5461 26.441C70.7611 26.1661 71.1574 26.1174 71.4313 26.3318L74.1322 28.439C74.2854 28.5586 74.375 28.7423 74.375 28.9366C74.3752 29.1309 74.2851 29.3145 74.1318 29.4341L71.4315 31.5414C71.3166 31.6314 71.1793 31.6751 71.0436 31.675ZM72.1459 33.9524H64.6174C64.2689 33.9524 63.986 33.67 63.986 33.3215C63.9864 32.973 64.2687 32.6905 64.6171 32.6905L72.1459 32.6903C72.4944 32.6903 72.7766 32.973 72.7766 33.3215C72.7769 33.6699 72.4943 33.9524 72.1459 33.9524ZM72.1459 36.2297H64.6174C64.2689 36.2297 63.986 35.9474 63.986 35.5989C63.9864 35.2504 64.2687 34.9679 64.6171 34.9679L72.1459 34.9677C72.4944 34.9677 72.7766 35.2505 72.7766 35.5989C72.7769 35.9473 72.4943 36.2297 72.1459 36.2297ZM62.1007 16.5296H42.4709C42.1229 16.5296 41.8399 16.2471 41.8399 15.8986C41.8399 15.5501 42.1225 15.2677 42.4709 15.2677L62.1007 15.2676C62.4502 15.2676 62.7316 15.5502 62.7316 15.8986C62.7318 16.2469 62.4501 16.5297 62.1007 16.5296ZM53.2348 22.6557H42.4709C42.1229 22.6557 41.8399 22.3734 41.8399 22.0248C41.8399 21.6762 42.1225 21.3938 42.4709 21.3938L53.2348 21.3937C53.5829 21.3937 53.8656 21.6763 53.8656 22.0248C53.8659 22.3733 53.5829 22.6559 53.2348 22.6557ZM49.5492 28.7819H42.4709C42.1228 28.7819 41.8399 28.4994 41.8399 28.1509C41.8399 27.8023 42.1225 27.5199 42.4709 27.5199L49.5492 27.5198C49.8977 27.5198 50.1801 27.8024 50.1801 28.1509C50.1802 28.4994 49.8975 28.782 49.5492 28.7819ZM50.2265 34.9081H42.4709C42.1228 34.9081 41.8398 34.6257 41.8398 34.2772C41.8398 33.9285 42.1225 33.6462 42.4709 33.6462L50.2265 33.646C50.5746 33.646 50.8572 33.9287 50.8572 34.2772C50.8576 34.6256 50.5749 34.9081 50.2265 34.9081ZM52.5579 41.0344H42.4709C42.1229 41.0344 41.8399 40.7518 41.8399 40.4034C41.8399 40.0548 42.1225 39.7723 42.4709 39.7723H52.5579C52.9059 39.7723 53.1885 40.0549 53.1885 40.4034C53.1885 40.7516 52.9058 41.0344 52.5579 41.0344ZM62.1007 47.1606H42.4709C42.1229 47.1606 41.8399 46.8781 41.8399 46.5296C41.8399 46.181 42.1225 45.8986 42.4709 45.8986L62.1007 45.8985C62.4502 45.8985 62.7316 46.1811 62.7316 46.5296C62.7318 46.8781 62.4501 47.1606 62.1007 47.1606Z" fill="#B9B9B9"/>
</g>
<defs>
<clipPath id="clip0_185_225">
<rect width="62.1035" height="62.1035" fill="white" transform="translate(28.6914 0.166016)"/>
</clipPath>
</defs>
</svg>
