<svg width="92" height="70" viewBox="0 0 92 70" fill="none" xmlns="http://www.w3.org/2000/svg">
<path opacity="0.1" fill-rule="evenodd" clip-rule="evenodd" d="M21.8389 65.9536C36.3975 73.0545 65.1937 68.4751 72.2946 53.9165C79.3955 39.3579 58.3323 22.9116 43.7737 15.8107C29.2151 8.70984 9.54512 -1.89831 2.44423 12.6603C-4.65666 27.2189 7.28026 58.8527 21.8389 65.9536Z" fill="#00245B"/>
<path d="M87.205 39.9904C86.8546 34.4303 83.626 29.6463 78.9966 27.1049C78.9874 27.0998 78.9781 27.0949 78.9689 27.0897C78.3237 26.7373 77.6518 26.4287 76.9564 26.1673C76.9396 26.161 76.9229 26.1544 76.906 26.1481C76.562 26.0201 76.213 25.9029 75.8583 25.7987C75.8571 25.7984 75.8558 25.798 75.8546 25.7977C75.5104 25.6966 75.1612 25.608 74.8079 25.5302C74.785 25.5251 74.7622 25.5194 74.7392 25.5143C74.3989 25.441 74.0546 25.3788 73.7065 25.3278C73.6535 25.3199 73.6002 25.3138 73.547 25.3065C73.2476 25.2656 72.9457 25.2329 72.6413 25.2091C72.584 25.2046 72.5271 25.1982 72.4698 25.1943C72.4476 25.1928 72.4257 25.1899 72.4035 25.1886C72.0936 25.1689 71.7843 25.1603 71.4755 25.1588C71.4431 25.1586 71.411 25.1554 71.3785 25.1554C71.3197 25.1554 71.2565 25.1629 71.1971 25.1636C70.8442 25.168 70.4927 25.1838 70.1427 25.2115C70.0868 25.2158 70.0336 25.214 69.9777 25.219C69.9676 25.2199 69.9584 25.2238 69.9485 25.2251C66.2715 25.5614 62.794 27.1668 60.1554 29.8068C59.1535 30.8093 58.3008 31.9324 57.6099 33.1409C57.6026 33.1518 57.5931 33.1605 57.5866 33.172C57.4615 33.3915 57.3475 33.6168 57.2335 33.8418C57.2232 33.8619 57.212 33.8814 57.2019 33.9016C57.0995 34.1057 57.0044 34.3129 56.9109 34.5211C56.8801 34.5899 56.8486 34.6583 56.8187 34.7275C56.7327 34.9269 56.6511 35.1277 56.5734 35.3304C56.5428 35.41 56.5137 35.4901 56.4845 35.5703C56.4111 35.7716 56.3392 35.973 56.274 36.1771C56.2498 36.2526 56.2289 36.3291 56.2058 36.405C56.0805 36.8181 55.9709 37.2356 55.8796 37.6578C55.8658 37.7213 55.849 37.784 55.836 37.8477C55.8034 38.0078 55.7778 38.169 55.7503 38.3301C55.7239 38.4829 55.6972 38.6354 55.6753 38.7891C55.6546 38.9356 55.6375 39.0826 55.6209 39.2296C55.6007 39.4064 55.5833 39.5837 55.569 39.7615C55.5587 39.8913 55.5488 40.0207 55.5417 40.1508C55.5294 40.3715 55.5233 40.5929 55.5202 40.8147C55.5193 40.8818 55.5137 40.9485 55.5137 41.0157C55.5137 41.0412 55.5155 41.0664 55.5156 41.0919C55.5161 41.2491 55.5221 41.4067 55.5274 41.5642C55.5313 41.6808 55.5339 41.7978 55.5403 41.9141C55.5427 41.9596 55.5424 42.0048 55.5453 42.0503C55.5546 42.1972 55.57 42.3423 55.5833 42.4882C55.5893 42.5537 55.5938 42.6196 55.6005 42.685C55.6211 42.8841 55.6472 43.0816 55.6752 43.2786C55.6841 43.3415 55.6909 43.4049 55.7006 43.4676C55.7298 43.6567 55.7646 43.8439 55.8005 44.0308C55.9002 44.554 56.026 45.0697 56.1771 45.5766C56.1839 45.5992 56.1897 45.6222 56.1965 45.6447C56.2592 45.8514 56.3277 46.0559 56.3987 46.2597C56.4075 46.2847 56.4155 46.3099 56.4243 46.3348C56.4958 46.5363 56.5725 46.7357 56.6522 46.9339C56.6626 46.9599 56.6726 46.986 56.6831 47.0118C56.7626 47.2068 56.8467 47.3997 56.9341 47.5912C56.9473 47.6203 56.9605 47.6494 56.974 47.6784C57.0603 47.8645 57.15 48.0488 57.2436 48.2314C57.2619 48.2674 57.2809 48.3032 57.2996 48.3392C57.3904 48.513 57.4835 48.6855 57.5809 48.856C57.6092 48.9058 57.639 48.9547 57.6679 49.0042C57.7588 49.1592 57.8502 49.3138 57.9466 49.4659C58.0033 49.5559 58.0632 49.6435 58.1218 49.7323C58.1943 49.8419 58.2648 49.9525 58.3402 50.0604C61.0228 53.9192 65.3748 56.5335 70.3437 56.849C70.5233 56.8604 70.7019 56.8607 70.8808 56.8661C70.8987 56.8683 70.9152 56.8755 70.9335 56.8761C71.0686 56.8807 71.2071 56.8807 71.3427 56.8807C71.347 56.8807 71.3514 56.8811 71.3556 56.8811C71.3581 56.8811 71.3605 56.8809 71.3629 56.8809C71.3681 56.8809 71.3735 56.8811 71.3787 56.8811C74.5262 56.8811 77.5506 55.9567 80.1248 54.2472C80.156 54.2266 80.187 54.2056 80.2181 54.1847C80.3818 54.0743 80.5438 53.9609 80.7038 53.844C80.7742 53.7928 80.8442 53.7407 80.9139 53.6883C81.0303 53.6003 81.1456 53.5107 81.26 53.4192C81.3644 53.336 81.4679 53.2514 81.5705 53.1654C81.6462 53.1016 81.7211 53.0368 81.7958 52.9715C81.9272 52.8571 82.057 52.7407 82.1847 52.6215C82.2033 52.6043 82.2227 52.5882 82.2412 52.5708C82.2446 52.5676 82.2464 52.5631 82.2498 52.5597C82.3628 52.4533 82.4772 52.3488 82.5873 52.2388C85.8092 49.018 87.4926 44.5534 87.205 39.9904ZM79.2812 34.5724C79.5604 34.9766 79.8614 35.366 80.153 35.7425C80.6573 36.3954 81.1341 37.0117 81.5061 37.6973C81.8584 38.3446 82.5823 39.9926 81.6907 41.3148C81.2821 41.921 80.5881 42.2362 79.9571 42.1062C79.71 42.0544 78.957 41.8956 78.5866 40.3107C78.5342 40.0906 78.4909 39.8677 78.4481 39.6442C78.3355 39.064 78.2191 38.4634 77.9506 37.892C77.5656 37.0607 76.7259 36.2525 75.6903 36.2525C75.647 36.2525 75.6024 36.2536 75.5586 36.2564C74.6737 36.3178 74.0654 36.9121 73.5289 37.4367C73.3207 37.641 73.1236 37.8335 72.9211 37.9877C72.3453 38.4274 71.5527 38.5781 70.7473 38.4014C69.9396 38.2241 69.2805 37.7542 68.94 37.112C68.3648 36.0245 68.5084 34.5645 69.3785 32.6486C69.4951 32.3908 69.6177 32.133 69.7404 31.8741C70.3882 30.5115 71.0586 29.1021 71.022 27.5278C71.013 27.1225 70.9518 26.7194 70.8396 26.3236C71.0257 26.3165 71.2118 26.3098 71.3986 26.3098C71.6052 26.3098 71.8127 26.3207 72.0202 26.3293C72.1259 26.3339 72.2324 26.333 72.338 26.3398C72.7421 26.3655 73.1401 26.4135 73.5349 26.4714C73.6664 26.4908 73.797 26.5141 73.9277 26.5371C74.2016 26.5848 74.4724 26.6412 74.7407 26.7039C74.8735 26.7349 75.0071 26.763 75.1389 26.7978C75.4962 26.8919 75.8487 26.9981 76.1948 27.118C76.3288 27.1645 76.4597 27.2192 76.5923 27.2696C76.8248 27.3577 77.0552 27.4499 77.2819 27.5496C77.4349 27.6168 77.5869 27.6864 77.7378 27.759C77.952 27.862 78.162 27.9719 78.3702 28.0848C78.5052 28.1579 78.6421 28.2269 78.775 28.3044C78.7838 28.3094 78.7918 28.3155 78.8006 28.3206C78.3043 29.0377 78.0203 29.7935 77.9534 30.5735C77.8437 31.8224 78.2782 33.1309 79.2812 34.5724ZM60.9701 30.6217C63.3237 28.2673 66.3936 26.8031 69.6601 26.4165C69.7907 26.79 69.8613 27.1709 69.8693 27.5536C69.8997 28.8549 69.3166 30.0808 68.6997 31.3793C68.5736 31.6444 68.4481 31.9083 68.3288 32.1724C67.301 34.4344 67.1682 36.2266 67.9212 37.6516C68.4216 38.5938 69.3616 39.2778 70.5002 39.527C71.6354 39.7775 72.7735 39.5501 73.6206 38.904C73.8789 38.7064 74.1108 38.4802 74.3348 38.2612C74.7862 37.8194 75.1763 37.4383 75.6361 37.4068C76.1617 37.3781 76.6762 37.8835 76.9059 38.3788C77.1148 38.8235 77.2127 39.3289 77.3163 39.8636C77.3624 40.1027 77.4091 40.342 77.4649 40.575C77.9079 42.474 78.9362 43.069 79.7202 43.2339C79.8987 43.2716 80.0782 43.2897 80.2566 43.2897C81.1797 43.2897 82.0781 42.8017 82.6465 41.9597V41.9591C83.5228 40.6596 83.4761 38.9051 82.5187 37.1467C82.1033 36.3801 81.5754 35.6974 81.0649 35.0371C80.7795 34.6685 80.4936 34.2998 80.2285 33.9154C79.3848 32.703 79.0166 31.6431 79.1017 30.6728C79.152 30.0833 79.3862 29.5037 79.7816 28.9419C83.3496 31.4302 85.7646 35.4608 86.0546 40.0623C86.3214 44.2956 84.7607 48.4364 81.7719 51.4234C81.7194 51.4758 81.664 51.5243 81.6108 51.5759C80.1055 51.6085 78.5601 51.4607 77.0648 51.3092C76.0786 51.2079 74.9609 51.0925 74.1583 50.5241C73.9803 50.3974 73.8132 50.2493 73.6466 50.1025C73.0516 49.5796 72.3098 48.9313 71.1447 49.1738C70.5228 49.3055 69.9577 49.7052 69.5952 50.2708C68.9384 51.2957 68.899 52.5598 69.4742 54.1375C69.598 54.4729 69.7393 54.8017 69.8801 55.1298C69.9579 55.3115 70.0314 55.4875 70.1036 55.6638C66.7306 55.3767 63.6856 53.9473 61.3469 51.7634C61.2465 51.1139 61.0492 50.4921 60.8515 49.8904C60.7704 49.6421 60.6888 49.3946 60.6157 49.1463C60.2662 47.957 60.2684 47.0576 60.6241 46.3951C60.9804 45.7269 61.7166 45.2817 62.3802 44.9159L62.5884 44.8005C63.3421 44.3845 64.1217 43.9545 64.6936 43.2363C65.3763 42.3796 65.6588 41.0153 64.8788 40.0623C64.357 39.4207 63.5887 39.2344 62.9111 39.07C62.5947 38.993 62.2953 38.9203 62.0342 38.8089C61.2496 38.4768 60.6063 37.6832 60.067 36.3807C59.9551 36.1122 59.8503 35.8386 59.7462 35.5646C59.4745 34.8534 59.1866 34.1254 58.7675 33.4537C59.3792 32.4325 60.1137 31.4786 60.9701 30.6217ZM80.1667 52.8053C79.9304 52.9823 79.6891 53.1511 79.4437 53.3129C79.3122 53.399 79.1785 53.4813 79.0446 53.563C78.8725 53.6687 78.6986 53.7709 78.5226 53.8691C78.3652 53.9564 78.2071 54.0424 78.0468 54.1239C77.9281 54.1845 77.8069 54.24 77.6867 54.2972C77.3757 54.4449 77.0605 54.5824 76.7401 54.7078C76.6456 54.7449 76.551 54.7821 76.4556 54.8172C76.2522 54.892 76.0479 54.9644 75.8412 55.0302C75.7887 55.0469 75.7352 55.0607 75.6824 55.0768C75.3078 55.1914 74.9282 55.2903 74.5448 55.375C74.4062 55.4054 74.2672 55.4348 74.1273 55.4613C73.9523 55.4947 73.7772 55.5277 73.6007 55.5549C73.3094 55.5991 73.0165 55.636 72.7215 55.6628C72.5997 55.6741 72.4771 55.6803 72.3548 55.6886C72.0876 55.7061 71.8195 55.7182 71.55 55.7213C71.4884 55.7222 71.4271 55.7245 71.3655 55.7245C71.2341 55.3639 71.0851 55.0156 70.9393 54.6757C70.806 54.365 70.6726 54.0544 70.556 53.7397C70.113 52.5256 70.1164 51.5941 70.5656 50.8928C70.7626 50.5854 71.0608 50.3699 71.3828 50.3018C71.4723 50.2832 71.5555 50.2737 71.6361 50.2737C72.0706 50.2737 72.3988 50.5404 72.8851 50.9683C73.0753 51.136 73.2723 51.3088 73.4913 51.4647C74.5416 52.2082 75.8749 52.3455 76.9478 52.4564C78.0386 52.5665 79.1553 52.6791 80.2768 52.7215C80.24 52.7494 80.2036 52.7778 80.1667 52.8053ZM59.4847 49.6658C59.3681 49.5066 59.256 49.3447 59.1463 49.1814C59.0097 48.9773 58.8779 48.7698 58.7513 48.5586C58.6706 48.4242 58.5907 48.2895 58.5144 48.1528C58.3752 47.9025 58.2448 47.6468 58.1201 47.3879C58.0648 47.2733 58.0074 47.1595 57.9552 47.0435C57.825 46.754 57.7073 46.4579 57.5957 46.1588C57.5591 46.0607 57.518 45.9645 57.4836 45.8656C57.364 45.5229 57.2602 45.1731 57.1658 44.8194C57.1494 44.7577 57.128 44.6978 57.1124 44.6358C57.0085 44.2244 56.9227 43.8059 56.8544 43.3816C56.8343 43.256 56.8251 43.1275 56.8083 43.001C56.7686 42.7056 56.7316 42.4093 56.7098 42.1086C56.6848 41.7639 56.6693 41.4173 56.6682 41.0681C56.668 40.9648 56.6713 40.8617 56.6734 40.7586C56.676 40.6048 56.6789 40.4511 56.6864 40.2978C56.6935 40.1556 56.7049 40.014 56.7161 39.8723C56.7253 39.7543 56.7339 39.6362 56.746 39.5186C56.7631 39.3535 56.7844 39.189 56.8071 39.0249C56.8196 38.9326 56.8318 38.8403 56.8461 38.7483C56.8747 38.5657 56.9076 38.3841 56.9429 38.203C56.9568 38.1315 56.9705 38.0601 56.9854 37.9889C57.0268 37.7922 57.0725 37.5967 57.1218 37.4022C57.1353 37.349 57.1488 37.2959 57.1628 37.2429C57.2182 37.0345 57.2778 36.8273 57.3423 36.6216C57.3537 36.585 57.3655 36.5483 57.3772 36.5117C57.4473 36.2937 57.5219 36.0774 57.6021 35.863C57.6106 35.8403 57.6193 35.8178 57.6279 35.7951C57.7131 35.5708 57.8031 35.3482 57.8991 35.1282C57.9045 35.116 57.9101 35.1039 57.9155 35.0917C57.9806 34.9438 58.0516 34.7988 58.1214 34.6532C58.3228 35.0699 58.4929 35.5155 58.6685 35.9757C58.7777 36.2611 58.8864 36.5459 59.0023 36.8239C59.6625 38.4179 60.5073 39.4142 61.5823 39.8695C61.9302 40.0187 62.2904 40.1059 62.6394 40.1903C63.2124 40.3293 63.7076 40.4498 63.984 40.7898C63.9846 40.7909 63.9852 40.7915 63.9857 40.792C64.3612 41.2496 64.1816 42.0286 63.7915 42.5178C63.3627 43.057 62.716 43.4133 62.0315 43.7915L61.8209 43.9075C60.9553 44.3854 60.0879 44.9516 59.6078 45.8516C59.1023 46.7926 59.0702 47.9769 59.5099 49.4724C59.5472 49.599 59.5869 49.7261 59.6276 49.8528C59.5806 49.7899 59.531 49.7293 59.4847 49.6658ZM64.978 7.90122L74.4348 10.6765L70.9888 14.6916L66.5726 14.8007C66.4246 14.8046 66.2839 14.8648 66.1792 14.9695L65.1188 16.0299C64.9713 16.1774 64.9151 16.3935 64.9719 16.5945C65.0287 16.7954 65.1897 16.9496 65.3929 16.9981L68.7839 17.8051C68.7203 18.3907 68.9078 18.9976 69.3497 19.4392C69.7364 19.8264 70.2502 20.0223 70.7652 20.0223C70.838 20.0223 70.9105 20.0114 70.983 20.0035L71.7953 23.401C71.8437 23.6042 71.9984 23.7652 72.1994 23.8215C72.2507 23.8361 72.3035 23.8435 72.3559 23.8435C72.5068 23.8435 72.6536 23.7843 72.7635 23.6746L73.8239 22.6142C73.9285 22.5096 73.9893 22.3682 73.9927 22.2203L74.0964 17.8007L78.1157 14.3512L80.8858 23.8097C80.9433 24.005 81.0992 24.1559 81.2962 24.2059C81.3434 24.2182 81.3913 24.224 81.4391 24.224C81.59 24.224 81.7374 24.1648 81.8466 24.0551L84.0947 21.8071C84.2078 21.6939 84.2685 21.5392 84.2629 21.3799L83.8514 9.42873L86.0495 7.54225C86.7665 6.92651 87.1988 6.03213 87.2348 5.08715C87.2708 4.14273 86.9084 3.21738 86.2397 2.54926C85.571 1.88057 84.6451 1.51869 83.7018 1.55414C82.7568 1.59015 81.8625 2.02248 81.2467 2.73951L79.3616 4.93605L67.4073 4.52492C67.2464 4.50742 67.0927 4.58011 66.9802 4.69318L64.7327 6.94065C64.5887 7.08468 64.5312 7.29356 64.5818 7.49054C64.632 7.68797 64.7827 7.8439 64.978 7.90122ZM81.7189 22.5528L79.0769 13.5314L82.7315 10.3936L83.1025 21.1693L81.7189 22.5528ZM69.2405 16.729L66.6633 16.1155L66.8315 15.9478L69.9774 15.8702L69.2461 16.7222C69.2455 16.7229 69.2451 16.7238 69.2446 16.7245C69.2432 16.7261 69.2419 16.7276 69.2405 16.729ZM72.8456 21.9624L72.6767 22.1312L72.0599 19.5506C72.0632 19.5483 72.066 19.5455 72.0689 19.5433L72.9193 18.8127L72.8456 21.9624ZM82.1214 3.4902C82.5345 3.0084 83.1114 2.73031 83.7458 2.70619C83.7756 2.70507 83.8055 2.70451 83.8348 2.70451C84.4353 2.70451 84.997 2.93694 85.4247 3.36422C85.8733 3.81282 86.1069 4.40949 86.0827 5.04318C86.0584 5.67754 85.7805 6.25446 85.2987 6.66761L71.3158 18.6681C70.9815 18.9546 70.4761 18.9348 70.1648 18.6242C69.8531 18.3133 69.834 17.8083 70.1203 17.4741L71.6984 15.6372C71.7007 15.6345 71.7017 15.6312 71.7038 15.6285L82.1214 3.4902ZM67.6179 5.68528L78.3942 6.05568L75.2557 9.7159L66.2349 7.06887L67.6179 5.68528Z" fill="#B9B9B9"/>
<path d="M83.8333 6.17254C83.946 6.28516 84.0934 6.34137 84.2409 6.34137C84.3884 6.34137 84.5358 6.28505 84.6484 6.17254C84.8736 5.9474 84.8736 5.58271 84.6484 5.35757L83.4304 4.13956C83.2053 3.91442 82.8406 3.91442 82.6154 4.13956C82.3903 4.3647 82.3903 4.72938 82.6154 4.95452L83.8333 6.17254ZM51.443 32.1648H51.1076V25.2305H51.1701C52.2733 25.2305 53.171 24.3327 53.171 23.229C53.171 22.1253 52.2733 21.2276 51.1701 21.2276H41.6678C40.5641 21.2276 39.6664 22.1253 39.6664 23.229C39.6664 24.3327 40.5641 25.2305 41.6678 25.2305H41.73V32.1648H41.3948C39.6328 32.1648 38.1992 33.5984 38.1992 35.3601V53.3256V54.9866C38.1992 56.0319 39.0494 56.8823 40.0946 56.8823C41.1397 56.8823 41.9899 56.0319 41.9899 54.9866V53.902H50.8475V54.9866C50.8475 56.0319 51.6979 56.8823 52.7432 56.8823C53.7884 56.8823 54.6383 56.0319 54.6383 54.9866V53.3256V35.3602C54.6384 33.5984 53.2048 32.1648 51.443 32.1648ZM40.819 23.229C40.819 22.7607 41.1997 22.3803 41.6677 22.3803H51.17C51.6378 22.3803 52.0182 22.7608 52.0182 23.229C52.0182 23.6974 51.6377 24.0778 51.17 24.0778H50.5312H42.3064H41.6678C41.1998 24.0779 40.819 23.6974 40.819 23.229ZM42.8827 25.2306H49.9549V32.1649H42.8827V25.2306ZM39.3519 35.3602C39.3519 34.2339 40.2683 33.3176 41.3948 33.3176H42.3064H50.5313H51.443C52.5693 33.3176 53.4857 34.2338 53.4857 35.3602V52.7494H51.424H41.4136H39.3519V35.3602ZM40.8373 54.9866C40.8373 55.3964 40.5041 55.7296 40.0946 55.7296C39.6851 55.7296 39.3518 55.3964 39.3518 54.9866V53.902H40.8372V54.9866H40.8373ZM53.4857 54.9866C53.4857 55.3964 53.1525 55.7296 52.7433 55.7296C52.3335 55.7296 52.0003 55.3964 52.0003 54.9866V53.902H53.4857V54.9866Z" fill="#B9B9B9"/>
<path d="M42.305 42.0363H50.5299C50.8485 42.0363 51.1063 41.7785 51.1063 41.4599V36.5896C51.1063 36.2711 50.8485 36.0133 50.5299 36.0133H42.305C41.9868 36.0133 41.7286 36.2711 41.7286 36.5896V41.46C41.7286 41.7785 41.9868 42.0363 42.305 42.0363ZM42.8814 37.166H49.9536V40.8837H42.8814V37.166ZM42.305 50.0541H50.5299C50.8485 50.0541 51.1063 49.7963 51.1063 49.4778V44.6068C51.1063 44.2882 50.8485 44.0304 50.5299 44.0304H42.305C41.9868 44.0304 41.7286 44.2882 41.7286 44.6068V49.4778C41.7286 49.7963 41.9868 50.0541 42.305 50.0541ZM42.8814 45.1832H49.9536V48.9014H42.8814V45.1832ZM44.7717 17.2339H58.2854C60.4529 17.2339 62.2163 15.4704 62.2163 13.303C62.2163 11.1355 60.4529 9.37205 58.2854 9.37205C58.1396 9.37205 57.9944 9.38046 57.8497 9.39684C57.588 7.87886 56.2636 6.72053 54.6741 6.72053C54.337 6.72053 54.0054 6.77235 53.6913 6.87309C53.0345 4.98919 51.2452 3.68457 49.1956 3.68457C47.8869 3.68457 46.7001 4.21371 45.8371 5.06805C45.8322 5.07265 45.8258 5.07399 45.821 5.0787C45.4013 5.49825 45.0738 5.98442 44.8395 6.5112C44.8255 6.54239 44.8091 6.57223 44.7958 6.60375C44.7667 6.67296 44.7438 6.74453 44.7182 6.81509C44.6888 6.89518 44.6572 6.97416 44.6321 7.05616C44.6276 7.07108 44.6247 7.08645 44.6204 7.10148C44.494 7.52865 44.4235 7.97938 44.4235 8.44682C44.4235 8.76259 44.4541 9.07445 44.5152 9.38058C42.4642 9.51283 40.8359 11.2216 40.8359 13.3031C40.8359 15.4704 42.6016 17.2339 44.7717 17.2339ZM44.7717 10.5247C44.8218 10.5247 44.8654 10.5335 44.9139 10.5362C45.143 11.0047 45.4458 11.4389 45.8253 11.8182C45.938 11.9308 46.0854 11.987 46.2329 11.987C46.3804 11.987 46.5278 11.9307 46.6404 11.8182C46.8656 11.593 46.8656 11.2284 46.6404 11.0032C46.264 10.6269 45.9845 10.1803 45.8059 9.69478C45.7436 9.52551 45.6919 9.35343 45.6555 9.17799C45.6451 9.12706 45.6388 9.07501 45.6306 9.02352C45.6049 8.86423 45.5893 8.70325 45.5852 8.54071C45.5844 8.50963 45.5806 8.47912 45.5806 8.44783C45.5802 7.99586 45.6653 7.55781 45.8224 7.14848C45.8344 7.11774 45.8439 7.08577 45.8566 7.05549C45.8743 7.01308 45.8961 6.9727 45.9154 6.93108C45.9472 6.86299 45.9776 6.79423 46.0135 6.72849C46.0153 6.72524 46.0174 6.72221 46.0192 6.71884C46.6342 5.59876 47.8272 4.83719 49.1957 4.83719C50.9347 4.83719 52.4267 6.07607 52.7436 7.78262C52.7785 7.9695 52.9029 8.12711 53.0762 8.20418C53.2507 8.2818 53.4511 8.26834 53.6121 8.16817C53.9262 7.97511 54.2937 7.87326 54.6742 7.87326C55.8157 7.87326 56.7443 8.80421 56.7454 9.98958C56.7077 10.1877 56.7769 10.3915 56.9278 10.526C57.0781 10.6605 57.288 10.705 57.4816 10.6471C57.7439 10.5659 58.0141 10.5249 58.2854 10.5249C59.8175 10.5249 61.0636 11.7711 61.0636 13.3031C61.0636 14.8351 59.8174 16.0812 58.2854 16.0812H44.7717C43.2371 16.0812 41.9887 14.8351 41.9887 13.3031C41.9887 11.7711 43.2371 10.5247 44.7717 10.5247Z" fill="#B9B9B9"/>
</svg>
