<svg width="103" height="66" viewBox="0 0 103 66" fill="none" xmlns="http://www.w3.org/2000/svg">
<path d="M39.1605 43.8139H90.8384C92.572 43.8139 93.9754 42.3987 93.9754 40.6769V8.22196C93.9754 6.48835 92.5602 5.08496 90.8384 5.08496H39.1605C37.4269 5.08496 36.0235 6.50015 36.0235 8.22196V40.6769C36.0117 42.3987 37.4269 43.8139 39.1605 43.8139ZM38.2996 8.22196C38.2996 7.75023 38.6888 7.36105 39.1605 7.36105H90.8384C91.3101 7.36105 91.6993 7.75023 91.6993 8.22196V40.6769C91.6993 41.1486 91.3101 41.5378 90.8384 41.5378H39.1605C38.6888 41.5378 38.2996 41.1486 38.2996 40.6887V8.22196Z" fill="#B9B9B9"/>
<path d="M101.594 46.585H98.7758C98.9409 46.1722 99.0352 45.7359 99.0352 45.2642V3.63411C99.0352 1.64106 97.4195 0.0253906 95.4265 0.0253906H34.5617C32.5687 0.0253906 30.953 1.64106 30.953 3.63411V45.2642C30.953 45.7359 31.0473 46.1722 31.2124 46.585H28.4057C27.7688 46.585 27.2617 47.0921 27.2617 47.7289C27.2617 52.8236 31.4129 56.9748 36.5076 56.9748H93.5042C98.5989 56.9748 102.75 52.8236 102.75 47.7289C102.738 47.0921 102.231 46.585 101.594 46.585ZM33.2527 3.62232C33.2527 2.89114 33.8423 2.30148 34.5735 2.30148H95.4383C96.1695 2.30148 96.7591 2.89114 96.7591 3.62232V45.2524C96.7591 45.9835 96.1695 46.5732 95.4383 46.5732H34.5617C33.8305 46.5732 33.2409 45.9835 33.2409 45.2524V3.62232H33.2527ZM72.1467 48.8729C71.6985 49.9107 70.6725 50.6301 69.4814 50.6301H60.5186C59.3275 50.6301 58.2897 49.8989 57.8533 48.8729H72.1467ZM93.4924 54.6751H36.5076C33.064 54.6751 30.1982 52.1632 29.6439 48.8611H55.4593C55.9782 51.1726 58.042 52.9062 60.5186 52.9062H69.4814C71.9462 52.9062 74.01 51.1726 74.5407 48.8611H100.356C99.8136 52.1632 96.9478 54.6751 93.4924 54.6751Z" fill="#B9B9B9"/>
<path d="M69.1033 27.1851H69.9878V28.447C69.9878 28.8952 70.2472 29.2961 70.6482 29.4848C70.8015 29.5556 70.9666 29.591 71.1317 29.591C71.4029 29.591 71.6624 29.4966 71.8747 29.3197L74.363 27.1969H83.9037C85.4958 27.1969 86.7931 25.8997 86.7931 24.3076V15.5217C86.7931 13.9296 85.4958 12.6323 83.9037 12.6323H69.1033C67.5112 12.6323 66.2139 13.9296 66.2139 15.5217V24.3076C66.2139 25.8879 67.5112 27.1851 69.1033 27.1851ZM68.5018 15.4981C68.5018 15.1679 68.7731 14.8966 69.1033 14.8966H83.9155C84.2457 14.8966 84.517 15.1679 84.517 15.4981V24.284C84.517 24.6142 84.2457 24.8855 83.9155 24.8855H73.9503C73.679 24.8855 73.4196 24.9798 73.2073 25.1567L72.2756 25.9469C72.2403 25.3454 71.7449 24.8737 71.1317 24.8737H69.1033C68.7731 24.8737 68.5018 24.6024 68.5018 24.2722V15.4981ZM44.3611 36.2777H66.037C66.6385 36.2777 67.1456 35.806 67.181 35.1927C67.2989 33.1643 67.0512 32.1501 66.7446 31.0887C65.754 28.1404 63.584 27.421 61.6146 26.7724C60.8952 26.5365 60.2584 26.3125 59.6333 26.0058C59.4918 25.9351 59.3739 25.8643 59.2441 25.7935C59.8102 25.0506 60.2937 24.1779 60.6121 23.2226C60.9541 22.232 61.1193 21.206 61.1193 20.1918C61.1193 18.9181 60.8834 17.8095 60.4117 16.9133C59.4682 15.0735 57.6167 14.0475 55.2109 14.0475C52.7932 14.0475 50.9417 15.0617 49.9983 16.9133C49.5383 17.8213 49.2907 18.9299 49.2907 20.1918C49.2907 21.206 49.4558 22.232 49.7978 23.2226C50.1162 24.1779 50.5997 25.0506 51.1658 25.7935C51.0361 25.8643 50.9181 25.9469 50.7766 26.0058C50.1398 26.3125 49.4794 26.5483 48.7364 26.7842C46.8259 27.421 44.6677 28.1286 43.6653 31.1123C43.3587 32.1147 43.1228 33.1171 43.229 35.1809C43.2525 35.806 43.7596 36.2777 44.3611 36.2777ZM52.0267 17.9629C52.5692 16.8897 53.6424 16.3472 55.1991 16.3472C56.7558 16.3472 57.8172 16.8897 58.3714 17.9629C58.6781 18.5407 58.8314 19.2955 58.8314 20.2036C58.8314 20.9701 58.7016 21.7485 58.4422 22.5032C58.0766 23.5882 57.4869 24.5317 56.7676 25.1567C56.2369 25.6167 55.7062 25.8525 55.1991 25.8525C54.574 25.8525 54.0079 25.4751 53.6424 25.1567C52.923 24.5435 52.3333 23.6 51.9677 22.5032C51.7083 21.7485 51.5785 20.9701 51.5785 20.2036C51.5785 19.3073 51.7319 18.5525 52.0267 17.9629ZM45.8353 31.8199C46.4603 29.9566 47.6514 29.5556 49.5029 28.9541C50.2695 28.7065 51.0125 28.447 51.779 28.0696C52.18 27.8809 52.5456 27.6569 52.8876 27.421C53.6306 27.8809 54.4207 28.1286 55.1991 28.1286C55.9892 28.1286 56.7676 27.8809 57.5105 27.421C57.8643 27.6569 58.2181 27.8692 58.6191 28.0578C59.3739 28.4234 60.1286 28.6829 60.9424 28.9541C62.7467 29.5438 63.9378 29.9448 64.5393 31.7609C64.7398 32.4331 64.8813 33.011 64.9049 33.9662H45.4815C45.505 33.011 45.6466 32.4449 45.8353 31.8199Z" fill="#B9B9B9"/>
<path d="M71.31 20.9002H72.1001C72.7369 20.9002 73.244 20.3931 73.244 19.7562C73.244 19.1194 72.7369 18.6123 72.1001 18.6123H71.31C70.6731 18.6123 70.166 19.1194 70.166 19.7562C70.166 20.3931 70.6731 20.9002 71.31 20.9002ZM76.1216 20.9002H76.9117C77.5486 20.9002 78.0557 20.3931 78.0557 19.7562C78.0557 19.1194 77.5486 18.6123 76.9117 18.6123H76.1216C75.4848 18.6123 74.9776 19.1194 74.9776 19.7562C74.9776 20.3931 75.4848 20.9002 76.1216 20.9002ZM80.9332 20.9002H81.7234C82.3602 20.9002 82.8673 20.3931 82.8673 19.7562C82.8673 19.1194 82.3602 18.6123 81.7234 18.6123H80.9332C80.2964 18.6123 79.7893 19.1194 79.7893 19.7562C79.7893 20.3931 80.2964 20.9002 80.9332 20.9002Z" fill="#B9B9B9"/>
<path opacity="0.1" fill-rule="evenodd" clip-rule="evenodd" d="M22.4678 62.0361C37.0264 69.137 65.8226 64.5576 72.9235 49.999C80.0244 35.4404 58.9613 18.9941 44.4026 11.8933C29.844 4.79236 10.174 -5.81579 3.07313 8.74282C-4.02775 23.3014 7.90917 54.9352 22.4678 62.0361Z" fill="#00245B"/>
</svg>
