<svg width="45" height="57" viewBox="0 0 45 57" fill="none" xmlns="http://www.w3.org/2000/svg">
<path d="M44.2388 25.9619C44.2371 24.5115 43.6602 23.121 42.6347 22.0954C41.6091 21.0698 40.2185 20.4929 38.7681 20.4913H38.6929C39.3738 19.8265 39.8412 18.9738 40.0352 18.0422C40.2293 17.1105 40.1412 16.1422 39.7823 15.2608C39.4234 14.3795 38.81 13.6251 38.0203 13.094C37.2306 12.5629 36.3006 12.2793 35.349 12.2793C34.3973 12.2793 33.4673 12.5629 32.6776 13.094C31.888 13.6251 31.2745 14.3795 30.9156 15.2608C30.5567 16.1422 30.4687 17.1105 30.6627 18.0422C30.8568 18.9738 31.3241 19.8265 32.005 20.4913H31.9298C31.3468 20.4919 30.7676 20.5862 30.2144 20.7706C30.6105 21.111 30.9665 21.4952 31.2757 21.916C31.4919 21.8795 31.7106 21.8604 31.9298 21.8589H38.7681C39.8559 21.8601 40.8989 22.2928 41.6681 23.062C42.4373 23.8312 42.8699 24.8741 42.8711 25.9619L42.8718 33.484H32.6137C32.6137 33.5165 32.6082 33.5473 32.6072 33.5798C32.5909 34.0365 32.461 34.4819 32.229 34.8756C32.7874 35.2152 33.3108 35.6092 33.7916 36.0518C32.6831 37.2598 31.5879 38.7434 31.2039 40.6786C31.0668 41.1091 30.9352 41.5515 30.8022 41.9977C29.9761 44.7758 29.122 47.6475 26.5221 48.5256C25.8 48.4886 25.2522 48.0418 24.8057 47.1288C24.4595 45.9792 24.2423 44.7946 24.1581 43.5969C23.9188 41.4578 23.6722 39.247 22.2782 37.5344C21.4891 36.3595 19.7607 36.4392 18.3702 36.5021C18.1082 36.5141 17.8545 36.5261 17.6196 36.5285C17.3556 36.451 17.1 36.3475 16.8565 36.2194H14.8341C14.7578 36.2194 14.6829 36.2142 14.6084 36.2081C15.3462 37.0158 16.3007 37.5942 17.3581 37.8746C17.7147 37.9227 18.0763 37.9207 18.4324 37.8684C19.4865 37.8202 20.7988 37.7604 21.1506 38.3088C21.1652 38.3318 21.1812 38.354 21.1985 38.3751C22.3552 39.7777 22.5706 41.7064 22.7986 43.7483C22.8932 45.0647 23.139 46.3658 23.531 47.626C23.539 47.648 23.5481 47.6696 23.5584 47.6906C24.4347 49.513 25.7083 49.896 26.6219 49.896C26.691 49.8961 26.7597 49.8858 26.8257 49.8652C30.2028 48.8114 31.2176 45.3988 32.1131 42.3879C32.2471 41.9372 32.3798 41.491 32.5189 41.0578C32.5272 41.0317 32.534 41.0051 32.5391 40.9781C32.8188 39.5247 33.6021 38.2141 35.1582 36.5962C35.2806 36.4686 35.349 36.2987 35.349 36.1219C35.349 35.728 34.9759 35.2702 34.5103 34.8517H42.8646C42.6171 44.7054 35.2683 52.8375 25.7152 54.4051C25.6947 54.3582 25.669 54.3137 25.6386 54.2725C21.6519 48.9595 15.3114 52.1793 14.0169 52.9188C11.5418 51.8223 9.30715 50.2488 7.4405 48.2883C7.56209 48.2224 7.67636 48.1437 7.78138 48.0537C8.66626 47.2906 8.68404 46.0258 8.63754 44.9515C8.58638 44.0419 8.69882 43.1305 8.96954 42.2607C9.17245 41.6969 9.30263 41.1095 9.35693 40.5128C9.45609 38.7184 8.40401 37.6516 7.47571 36.7107C6.87394 36.1011 6.33645 35.5533 6.08754 34.8517H12.4687C12.2265 34.4366 12.0988 33.9646 12.0987 33.484H1.84129V25.9619C1.84247 24.8741 2.27512 23.8312 3.04433 23.062C3.81353 22.2928 4.85646 21.8601 5.94427 21.8589H12.7826C13.0018 21.8604 13.2205 21.8795 13.4367 21.916C13.7459 21.4952 14.1019 21.111 14.498 20.7706C13.9448 20.5862 13.3656 20.4919 12.7826 20.4913H12.7074C13.3883 19.8265 13.8556 18.9738 14.0497 18.0422C14.2437 17.1105 14.1557 16.1422 13.7968 15.2608C13.4379 14.3795 12.8244 13.6251 12.0348 13.094C11.2451 12.5629 10.3151 12.2793 9.36343 12.2793C8.41179 12.2793 7.48175 12.5629 6.69209 13.094C5.90242 13.6251 5.28897 14.3795 4.93008 15.2608C4.57118 16.1422 4.48314 17.1105 4.67719 18.0422C4.87123 18.9738 5.33856 19.8265 6.0195 20.4913H5.94427C4.49387 20.4929 3.10334 21.0698 2.07775 22.0954C1.05215 23.121 0.475262 24.5115 0.473633 25.9619L0.473633 34.3375C0.473633 46.3103 10.29 56.0504 22.3562 56.0504C34.4224 56.0504 44.2388 46.3103 44.2388 34.3375V33.484V25.9619ZM31.9298 17.0721C31.9298 16.3959 32.1304 15.7348 32.5061 15.1725C32.8818 14.6103 33.4158 14.172 34.0405 13.9132C34.6653 13.6544 35.3528 13.5867 36.016 13.7187C36.6793 13.8506 37.2885 14.1762 37.7667 14.6544C38.2449 15.1326 38.5705 15.7418 38.7024 16.4051C38.8344 17.0683 38.7666 17.7558 38.5079 18.3806C38.2491 19.0053 37.8108 19.5393 37.2486 19.915C36.6863 20.2907 36.0252 20.4913 35.349 20.4913C34.4425 20.4903 33.5734 20.1297 32.9324 19.4887C32.2914 18.8477 31.9308 17.9786 31.9298 17.0721ZM5.94427 17.0721C5.94427 16.3959 6.1448 15.7348 6.52051 15.1725C6.89621 14.6103 7.43021 14.172 8.05497 13.9132C8.67974 13.6544 9.36722 13.5867 10.0305 13.7187C10.6937 13.8506 11.303 14.1762 11.7811 14.6544C12.2593 15.1326 12.585 15.7418 12.7169 16.4051C12.8488 17.0683 12.7811 17.7558 12.5223 18.3806C12.2635 19.0053 11.8253 19.5393 11.263 19.915C10.7007 20.2907 10.0397 20.4913 9.36343 20.4913C8.45692 20.4903 7.58782 20.1297 6.94682 19.4887C6.30582 18.8477 5.94527 17.9786 5.94427 17.0721ZM4.66654 34.8517C4.93904 36.084 5.76203 36.9213 6.50262 37.6715C7.33689 38.5174 8.05731 39.2477 7.99132 40.4372C7.94482 41.2821 7.54786 42.0671 7.37587 42.8884C7.24805 43.5883 7.21276 44.3019 7.27091 45.011C7.28048 45.224 7.29005 45.4418 7.29313 45.6682C7.30202 46.2871 7.15055 46.7917 6.8883 47.0181C6.76304 47.1193 6.60366 47.1685 6.44313 47.1555C3.57968 43.6829 1.96185 39.3512 1.84779 34.8517H4.66654ZM15.7046 53.5798C17.6125 52.7055 21.4142 51.5628 24.1386 54.6017C23.5505 54.652 22.9569 54.6828 22.3562 54.6828C20.0934 54.6834 17.846 54.3107 15.7046 53.5798Z" fill="#4A4B65"/>
<path d="M13.4668 13.6904V21.2126C13.4672 21.5752 13.6114 21.9228 13.8678 22.1792C14.1242 22.4356 14.4718 22.5799 14.8345 22.5802H29.8787C30.2413 22.5799 30.589 22.4356 30.8454 22.1792C31.1018 21.9228 31.246 21.5752 31.2464 21.2126V13.6904C31.2448 12.24 30.6679 10.8495 29.6423 9.82389C28.6167 8.7983 27.2261 8.22141 25.7757 8.21978H25.7005C26.3815 7.555 26.8488 6.70234 27.0428 5.7707C27.2369 4.83906 27.1488 3.87072 26.7899 2.98936C26.431 2.10799 25.8176 1.3536 25.0279 0.822531C24.2383 0.29146 23.3082 0.0078125 22.3566 0.0078125C21.405 0.0078125 20.4749 0.29146 19.6853 0.822531C18.8956 1.3536 18.2821 2.10799 17.9232 2.98936C17.5643 3.87072 17.4763 4.83906 17.6703 5.7707C17.8644 6.70234 18.3317 7.555 19.0127 8.21978H18.9374C17.487 8.22141 16.0965 8.7983 15.0709 9.82389C14.0453 10.8495 13.4684 12.24 13.4668 13.6904ZM18.9374 4.80063C18.9374 4.12439 19.138 3.46333 19.5137 2.90105C19.8894 2.33877 20.4234 1.90053 21.0481 1.64175C21.6729 1.38296 22.3604 1.31525 23.0236 1.44718C23.6869 1.57911 24.2961 1.90475 24.7743 2.38293C25.2525 2.8611 25.5781 3.47034 25.71 4.13359C25.842 4.79684 25.7743 5.48431 25.5155 6.10908C25.2567 6.73385 24.8184 7.26785 24.2562 7.64355C23.6939 8.01925 23.0328 8.21978 22.3566 8.21978C21.4501 8.21879 20.581 7.85823 19.94 7.21724C19.299 6.57624 18.9384 5.70714 18.9374 4.80063ZM25.7757 9.58744C26.8636 9.58862 27.9065 10.0213 28.6757 10.7905C29.4449 11.5597 29.8775 12.6026 29.8787 13.6904L29.8794 21.2126H14.8345V13.6904C14.8356 12.6026 15.2683 11.5597 16.0375 10.7905C16.8067 10.0213 17.8496 9.58862 18.9374 9.58744H25.7757Z" fill="#4A4B65"/>
</svg>
