<svg width="60" height="60" viewBox="0 0 60 60" fill="none" xmlns="http://www.w3.org/2000/svg">
<path d="M50.1503 1.94922H9.34967C4.92273 1.94922 1.33398 5.53796 1.33398 9.9649V50.7656C1.33398 55.1925 4.92273 58.7812 9.34967 58.7812H50.1503C54.5773 58.7812 58.166 55.1925 58.166 50.7656V9.9649C58.166 5.53796 54.5773 1.94922 50.1503 1.94922Z" stroke="#B9B9B9" stroke-width="2.368" stroke-miterlimit="10"/>
<path d="M47.9956 31.0049H43.7332C43.5948 31.0049 43.4578 31.0322 43.3299 31.0851C43.2021 31.1381 43.0859 31.2157 42.9881 31.3136C42.8902 31.4114 42.8126 31.5276 42.7596 31.6554C42.7067 31.7833 42.6794 31.9203 42.6794 32.0587V47.1902C42.681 47.4005 42.6407 47.6091 42.561 47.8037C42.4812 47.9984 42.3635 48.1752 42.2148 48.324C42.066 48.4727 41.8892 48.5904 41.6946 48.6701C41.4999 48.7499 41.2914 48.7902 41.081 48.7886H35.161C34.9517 48.7886 34.7444 48.7472 34.5511 48.6667C34.3579 48.5862 34.1824 48.4683 34.0349 48.3197C33.8875 48.1711 33.7708 47.9948 33.6918 47.801C33.6128 47.6071 33.5729 47.3995 33.5745 47.1902V40.1809C33.5745 39.757 33.4061 39.3504 33.1063 39.0507C32.8065 38.7509 32.4 38.5825 31.9761 38.5825H27.4887C27.2793 38.5825 27.0721 38.6239 26.8788 38.7044C26.6855 38.7849 26.5101 38.9028 26.3626 39.0514C26.2151 39.2 26.0985 39.3763 26.0195 39.5701C25.9405 39.764 25.9006 39.9716 25.9021 40.1809V47.1902C25.9021 47.6141 25.7337 48.0207 25.434 48.3204C25.1342 48.6202 24.7277 48.7886 24.3037 48.7886H18.3837C17.9598 48.7886 17.5533 48.6202 17.2535 48.3204C16.9537 48.0207 16.7853 47.6141 16.7853 47.1902V32.0587C16.7869 31.9209 16.7611 31.7841 16.7094 31.6563C16.6578 31.5285 16.5813 31.4123 16.4844 31.3143C16.3875 31.2162 16.2721 31.1384 16.1449 31.0853C16.0177 31.0322 15.8812 31.0049 15.7434 31.0049H11.4692C11.3102 31.0045 11.1549 30.9571 11.0229 30.8686C10.8909 30.7801 10.788 30.6545 10.7272 30.5076C10.6664 30.3608 10.6505 30.1992 10.6814 30.0433C10.7123 29.8873 10.7886 29.7441 10.9008 29.6315L29.1581 12.1793C29.2326 12.0959 29.3238 12.0291 29.4258 11.9834C29.5278 11.9377 29.6383 11.9141 29.7501 11.9141C29.8619 11.9141 29.9725 11.9377 30.0745 11.9834C30.1765 12.0291 30.2677 12.0959 30.3421 12.1793L48.5994 29.6315C48.714 29.7462 48.7913 29.8928 48.8212 30.0521C48.8511 30.2115 48.8322 30.3761 48.7669 30.5246C48.7016 30.673 48.5931 30.7982 48.4555 30.8839C48.3179 30.9697 48.1576 31.0118 47.9956 31.0049Z" stroke="#B9B9B9" stroke-width="2.368" stroke-miterlimit="10"/>
</svg>
