<?xml version="1.0" encoding="UTF-8"?> <svg xmlns="http://www.w3.org/2000/svg" xmlns:xlink="http://www.w3.org/1999/xlink" width="60" height="60" viewBox="0 0 60 60"><defs><clipPath id="clip-path"><rect id="Rectangle_38" data-name="Rectangle 38" width="60" height="60" transform="translate(409 596)" fill="#fff" stroke="#707070" stroke-width="1"></rect></clipPath></defs><g id="Mask_Group_33" data-name="Mask Group 33" transform="translate(-409 -596)" clip-path="url(#clip-path)"><g id="Group_86" data-name="Group 86" transform="translate(74 61)"><g id="Group_85" data-name="Group 85" transform="translate(342 542)"><path id="Path_216" data-name="Path 216" d="M46.68,22.914a.95.95,0,0,0,.951-.951v-3.8s0,0,0-.007a.944.944,0,0,0-.067-.334.9.9,0,0,0-.05-.094.843.843,0,0,0-.217-.276.91.91,0,0,0-.072-.069L25.358,2.17a.95.95,0,0,0-1.086,0L2.408,17.38a.91.91,0,0,0-.072.069.843.843,0,0,0-.218.276.906.906,0,0,0-.049.094A.944.944,0,0,0,2,18.154s0,0,0,.007v3.8a.95.95,0,0,0,.951.951H7.7V41.927H2.951A.95.95,0,0,0,2,42.878v3.8a.95.95,0,0,0,.951.951H46.68a.95.95,0,0,0,.951-.951v-3.8a.95.95,0,0,0-.951-.951H41.927V22.914ZM24.815,4.109l18.834,13.1H5.982ZM3.9,21.013v-1.9H45.729v1.9H3.9ZM21.013,41.927h-5.7V22.914h5.7Zm1.9-19.013h3.8V41.927h-3.8Zm5.7,0h5.7V41.927h-5.7Zm-19.013,0h3.8V41.927h-3.8ZM45.729,43.828v1.9H3.9v-1.9H45.729Zm-5.7-1.9h-3.8V22.914h3.8Z" transform="translate(-2 -2)" fill="#1c54f8" stroke="#fff" stroke-width="0.5"></path><path id="Path_217" data-name="Path 217" d="M25.8,8a3.8,3.8,0,1,0,3.8,3.8A3.807,3.807,0,0,0,25.8,8Zm0,5.7a1.9,1.9,0,1,1,1.9-1.9A1.9,1.9,0,0,1,25.8,13.7Z" transform="translate(-2.987 -2.296)" fill="#1c54f8" stroke="#fff" stroke-width="0.5"></path></g></g></g></svg> 