<?xml version="1.0" encoding="UTF-8"?> <svg xmlns="http://www.w3.org/2000/svg" xmlns:xlink="http://www.w3.org/1999/xlink" width="60" height="60" viewBox="0 0 60 60"><defs><clipPath id="clip-path"><rect id="Rectangle_44" data-name="Rectangle 44" width="60" height="60" transform="translate(222 744)" fill="#fff" stroke="#707070" stroke-width="1"></rect></clipPath></defs><g id="Mask_Group_39" data-name="Mask Group 39" transform="translate(-222 -744)" clip-path="url(#clip-path)"><g id="Group_93" data-name="Group 93" transform="translate(-114 7)"><path id="Path_226" data-name="Path 226" d="M40.687,72.9a2.472,2.472,0,0,1-2.173.679L20.081,70.285a.588.588,0,0,0-.1-.009h-9.4a.583.583,0,1,0,0,1.166h9.343L38.31,74.725a3.633,3.633,0,0,0,3.2-1l14.038-13.95a3.674,3.674,0,0,0-4.966-5.408L42.154,61.5h-.627v-.775a4.248,4.248,0,0,0-4.244-4.241h-6.7L20.606,54.5A5.389,5.389,0,0,0,14.2,59.2H10.583a.583.583,0,0,0,0,1.166H14.75a.583.583,0,0,0,.583-.583,4.222,4.222,0,0,1,5.046-4.139l10.033,1.991a.579.579,0,0,0,.113.011h6.757a3.081,3.081,0,0,1,3.078,3.076V61.5H29.232a.583.583,0,1,0,0,1.166H42.368a.584.584,0,0,0,.376-.138l8.59-7.267a2.508,2.508,0,0,1,3.391,3.691Z" transform="translate(333 715.856)" fill="#1c54f8" stroke="#1c54f7" stroke-width="0.4"></path><path id="Path_227" data-name="Path 227" d="M32.444,17.055a11.351,11.351,0,0,0-3.431,8.166V26.41a2.332,2.332,0,0,0-1.9,2.288v2.84a2.334,2.334,0,0,0,2.332,2.332h22.02a2.334,2.334,0,0,0,2.332-2.332V28.7a2.332,2.332,0,0,0-1.9-2.288v-.971A11.612,11.612,0,0,0,41.036,13.813V11.166h2.218a.583.583,0,1,0,0-1.166h-5.6a.583.583,0,0,0,0,1.166H39.87v2.648A11.341,11.341,0,0,0,32.444,17.055ZM52.629,28.7v2.84A1.167,1.167,0,0,1,51.463,32.7H29.443a1.167,1.167,0,0,1-1.166-1.166V28.7a1.167,1.167,0,0,1,1.166-1.166h22.02A1.167,1.167,0,0,1,52.629,28.7Zm-1.9-3.259v.927H30.179V25.221A10.271,10.271,0,0,1,40.664,14.954,10.437,10.437,0,0,1,50.727,25.439Z" transform="translate(325.863 734)" fill="#1c54f8" stroke="#1c54f7" stroke-width="0.4"></path></g></g></svg> 