<?xml version="1.0" encoding="UTF-8"?> <svg xmlns="http://www.w3.org/2000/svg" xmlns:xlink="http://www.w3.org/1999/xlink" width="60" height="60" viewBox="0 0 60 60"><defs><clipPath id="clip-path"><rect id="Rectangle_24" data-name="Rectangle 24" width="60" height="60" transform="translate(407 406)" fill="#fff" stroke="#707070" stroke-width="1"></rect></clipPath></defs><g id="Mask_Group_20" data-name="Mask Group 20" transform="translate(-407 -406)" clip-path="url(#clip-path)"><g id="Group_65" data-name="Group 65" transform="translate(-45.004 -117)"><g id="Group_64" data-name="Group 64" transform="translate(458.004 526)"><path id="Path_166" data-name="Path 166" d="M36,959.363a4.413,4.413,0,0,0-.632,8.781c0,.02,0,.04,0,.059v8.209q0,.02,0,.04a10.085,10.085,0,0,0-7.736,4.42c-.025.036-.035.082-.059.118a.629.629,0,0,0-.079-.059l-6.888-4.381a4.384,4.384,0,1,0-.553,1.125L26.823,982a.632.632,0,0,0,.1.079,10.074,10.074,0,0,0,.02,8.9.632.632,0,0,0-.118.059l-6.829,4.341a4.515,4.515,0,1,0,.572,1.125l6.927-4.4a.652.652,0,0,0,.079-.039,10.081,10.081,0,0,0,7.8,4.519q0,.02,0,.039v8.209q0,.03,0,.059a4.421,4.421,0,1,0,1.263,0q0-.03,0-.059V996.62q0-.02,0-.039a10.081,10.081,0,0,0,7.8-4.519.634.634,0,0,0,.079.039l6.927,4.4a4.338,4.338,0,1,0,.572-1.125l-6.829-4.341a.632.632,0,0,0-.118-.059,10.074,10.074,0,0,0,.02-8.9.632.632,0,0,0,.1-.079l6.769-4.322a4.463,4.463,0,1,0-.553-1.125l-6.888,4.381a.629.629,0,0,0-.079.059,10.07,10.07,0,0,0-7.8-4.539q0-.02,0-.04V968.2c0-.02,0-.039,0-.059A4.413,4.413,0,0,0,36,959.363Zm0,1.263a3.157,3.157,0,1,1-3.158,3.157A3.148,3.148,0,0,1,36,960.626Zm-19.8,11.367a3.165,3.165,0,1,1-2.526,1.579A3.175,3.175,0,0,1,16.205,971.992Zm39.59,0a3.165,3.165,0,1,1-1.8.414A3.134,3.134,0,0,1,55.8,971.992ZM36,977.676a8.841,8.841,0,1,1-8.842,8.841,9.041,9.041,0,0,1,.039-.908A8.835,8.835,0,0,1,36,977.676ZM16.639,994.844a3.165,3.165,0,1,1-2.96,4.736,3.185,3.185,0,0,1,2.96-4.736Zm38.722,0a3.165,3.165,0,1,1-2.526,1.579A3.152,3.152,0,0,1,55.361,994.844ZM36,1006.092a3.157,3.157,0,1,1-3.158,3.157A3.148,3.148,0,0,1,36,1006.092Z" transform="translate(-12.004 -959.363)" fill="#1c54f8"></path></g></g></g></svg> 