<?xml version="1.0" encoding="UTF-8"?> <svg xmlns="http://www.w3.org/2000/svg" xmlns:xlink="http://www.w3.org/1999/xlink" width="60" height="60" viewBox="0 0 60 60"><defs><clipPath id="clip-path"><rect id="Rectangle_41" data-name="Rectangle 41" width="60" height="60" transform="translate(858 596)" fill="#fff" stroke="#707070" stroke-width="1"></rect></clipPath></defs><g id="Mask_Group_36" data-name="Mask Group 36" transform="translate(-858 -596)" clip-path="url(#clip-path)"><g id="Group_89" data-name="Group 89" transform="translate(44.854 118.453)"><path id="Path_221" data-name="Path 221" d="M6.628,27.2v17.76A2.948,2.948,0,0,0,9.571,47.9h30.39A2.948,2.948,0,0,0,42.9,44.957V27.2a5.446,5.446,0,0,0,5.035-5.422V17.224h0a1.192,1.192,0,0,0,0-.134q0-.05,0-.1a.149.149,0,0,0-.034-.11c-.034-.038,0-.077-.038-.11s-.033-.057-.048-.091a1.2,1.2,0,0,0-.062-.115L47.7,16.5a1.2,1.2,0,0,0-.1-.11h0L40.128,9.37v-5.5A2.871,2.871,0,0,0,37.257,1H12.275A2.871,2.871,0,0,0,9.4,3.871V9.389L1.972,16.353h0a1.206,1.206,0,0,0-.091.105l-.086.086a1.2,1.2,0,0,0-.062.105c0,.034-.038.062-.053.1s0,.072-.034.105a1.206,1.206,0,0,0-.038.115v.1a1.192,1.192,0,0,0,0,.139h0v4.546A5.446,5.446,0,0,0,6.628,27.2ZM38.477,11.1l5.264,4.925H5.81L11.074,11.1Zm2.034,15.841v11.83H31.528V31.629a1.2,1.2,0,0,0-1.2-1.2H19.2a1.2,1.2,0,0,0-1.2,1.2v7.179H9.021V26.944a5.456,5.456,0,0,0,2.56-1.776,5.432,5.432,0,0,0,4.245,2.048h.3a5.432,5.432,0,0,0,4.245-2.048,5.432,5.432,0,0,0,4.245,2.048h.3a5.432,5.432,0,0,0,4.245-2.048A5.432,5.432,0,0,0,33.4,27.216h.3a5.432,5.432,0,0,0,4.245-2.048A5.456,5.456,0,0,0,40.511,26.944ZM12.754,18.42h6.422v3.35a3.053,3.053,0,0,1-3.049,3.049h-.3a3.053,3.053,0,0,1-3.049-3.049Zm8.791,0h6.418v3.35a3.053,3.053,0,0,1-3.049,3.049h-.3a3.053,3.053,0,0,1-3.049-3.049Zm8.791,0h6.418v3.35a3.053,3.053,0,0,1-3.049,3.049h-.3a3.053,3.053,0,0,1-3.049-3.049ZM3.967,21.77V18.42h6.418v3.35a3.053,3.053,0,0,1-3.049,3.049H7.059a3.053,3.053,0,0,1-3.072-3.044ZM9.021,44.957v-3.79H18v4.341H9.571a.55.55,0,0,1-.55-.55Zm11.376.55v-12.7h8.739v12.7Zm20.1-.55a.55.55,0,0,1-.536.55H31.528V41.167h8.983v3.79Zm5.049-23.182a3.053,3.053,0,0,1-3.072,3.049h-.3a3.053,3.053,0,0,1-3.049-3.049v-3.35h6.418ZM12.275,3.393H37.238a.479.479,0,0,1,.479.479V8.71H11.778V3.871a.479.479,0,0,1,.5-.479Z" transform="translate(818.54 483.547)" fill="#1c54f8" stroke="#fff" stroke-width="1"></path></g></g></svg> 