<?xml version="1.0" encoding="UTF-8"?> <svg xmlns="http://www.w3.org/2000/svg" xmlns:xlink="http://www.w3.org/1999/xlink" width="60" height="60" viewBox="0 0 60 60"><defs><clipPath id="clip-path"><rect id="Rectangle_12" data-name="Rectangle 12" width="60" height="60" transform="translate(386 188)" fill="#fff" stroke="#707070" stroke-width="1"></rect></clipPath></defs><g id="Mask_Group_7" data-name="Mask Group 7" transform="translate(-386 -188)" clip-path="url(#clip-path)"><g id="Group_4" data-name="Group 4" transform="translate(379.773 183.295)"><path id="Path_25" data-name="Path 25" d="M58.252,34.645A.783.783,0,0,0,57.7,34.4a20.588,20.588,0,0,1-7.041-1.173,20.2,20.2,0,0,1-4.633-2.285l0-13.284v-.063a.226.226,0,0,0-.063-.186c0-.063,0-.063-.063-.123a.132.132,0,0,0-.123-.123l-.063-.063-6.793-6.856a.867.867,0,0,0-.246-.186h-.063c-.063,0-.123-.063-.186-.063H15.5A1.637,1.637,0,0,0,13.895,11.6V49.717A1.637,1.637,0,0,0,15.5,51.324H36.383a24.861,24.861,0,0,0,8.277,7.968.877.877,0,0,0,.432.123.9.9,0,0,0,.432-.123C53.554,54.536,58.559,45.33,58.559,35.2a.983.983,0,0,0-.306-.555ZM39.1,12.715l4.138,4.138H39.1Zm-23.6,37V11.6H37.557V17.72a.819.819,0,0,0,.8.8h6.115V30.815a17.635,17.635,0,0,1-4.942,2.471,21.048,21.048,0,0,1-7.041,1.173.917.917,0,0,0-.555.246.947.947,0,0,0-.246.618,29.277,29.277,0,0,0,3.769,14.454l-19.956,0Zm29.529,7.968C37.929,53.3,33.419,45.086,33.173,36a22.833,22.833,0,0,0,6.8-1.236,21.536,21.536,0,0,0,5.065-2.534A20.481,20.481,0,0,0,50.1,34.768,22.834,22.834,0,0,0,56.894,36c-.246,9.083-4.7,17.3-11.86,21.684Z" fill="#295ef8"></path><path id="Path_26" data-name="Path 26" d="M64.953,59.259l-5.188,5.188-2.6-2.531a.787.787,0,1,0-1.112,1.112l3.152,3.152a.923.923,0,0,0,.555.246.672.672,0,0,0,.555-.246l5.746-5.746a.784.784,0,0,0,0-1.112.728.728,0,0,0-1.11-.063Z" transform="translate(-16.028 -18.745)" fill="#295ef8"></path><path id="Path_27" data-name="Path 27" d="M24.4,28.9H42.87a.8.8,0,0,0,0-1.607l-18.47,0a.8.8,0,1,0,0,1.6Z" transform="translate(-3.709 -6.613)" fill="#295ef8"></path><path id="Path_28" data-name="Path 28" d="M24.4,36.307H42.87a.8.8,0,0,0,0-1.607H24.4a.819.819,0,0,0-.8.8A.781.781,0,0,0,24.4,36.307Z" transform="translate(-3.709 -9.443)" fill="#295ef8"></path><path id="Path_29" data-name="Path 29" d="M24.4,43.7H42.87a.8.8,0,0,0,0-1.607l-18.47,0a.819.819,0,0,0-.8.8.78.78,0,0,0,.8.8Z" transform="translate(-3.709 -12.271)" fill="#295ef8"></path><path id="Path_30" data-name="Path 30" d="M24.4,51.108h7.722a.8.8,0,1,0,0-1.607H24.4a.8.8,0,0,0,0,1.607Z" transform="translate(-3.709 -15.101)" fill="#295ef8"></path><path id="Path_31" data-name="Path 31" d="M32.432,56.9H24.4a.8.8,0,0,0,0,1.607h8.031a.819.819,0,0,0,.8-.8A.779.779,0,0,0,32.432,56.9Z" transform="translate(-3.709 -17.928)" fill="#295ef8"></path></g></g></svg> 