<?xml version="1.0" encoding="UTF-8"?> <svg xmlns="http://www.w3.org/2000/svg" xmlns:xlink="http://www.w3.org/1999/xlink" width="60" height="60" viewBox="0 0 60 60"><defs><clipPath id="clip-path"><rect id="Rectangle_26" data-name="Rectangle 26" width="60" height="60" transform="translate(762 408)" fill="#fff" stroke="#707070" stroke-width="1"></rect></clipPath></defs><g id="Mask_Group_22" data-name="Mask Group 22" transform="translate(-762 -408)" clip-path="url(#clip-path)"><g id="Group_70" data-name="Group 70" transform="translate(76 8)"><g id="Group_69" data-name="Group 69" transform="translate(692 406)"><g id="Group_68" data-name="Group 68" transform="translate(0 0)"><path id="Path_173" data-name="Path 173" d="M43.358,32.489H25.085V22.961a.809.809,0,0,0-.809-.809H2.809A.809.809,0,0,0,2,22.961v15.6a.808.808,0,0,0,.809.809H5.9v5.853a.808.808,0,0,0,1.407.544l5.826-6.4h6.355v8.97a.808.808,0,0,0,.809.809H33.323L39.031,53.8a.809.809,0,0,0,1.32-.627s0-4.026,0-4.026h3.008a.808.808,0,0,0,.809-.809V33.3A.808.808,0,0,0,43.358,32.489ZM12.779,37.752a.807.807,0,0,0-.6.265L7.522,43.133V38.561a.808.808,0,0,0-.809-.809h-3.1V23.77H23.467V37.752Zm29.771,9.779c-4.679.025-3.71-.592-3.816,3.94l-4.612-3.759a.808.808,0,0,0-.511-.182h-12.5V39.37h3.166a.808.808,0,0,0,.809-.809V34.106H42.549Z" transform="translate(-2 -6.251)" fill="#1c54f8" stroke="#fff" stroke-width="0.3"></path><path id="Path_174" data-name="Path 174" d="M36.311,46.426h4.6c2.409,0,4.3-1.408,4.3-3.206V41.641a.809.809,0,0,0-1.618,0V43.22c0,.751-1.1,1.588-2.678,1.588h-4.6c-1.578,0-2.678-.837-2.678-1.588V41.641a.809.809,0,0,0-1.618,0s0,1.579,0,1.579C32.015,45.018,33.9,46.426,36.311,46.426Z" transform="translate(-7.739 -9.825)" fill="#1c54f8" stroke="#fff" stroke-width="0.3"></path><path id="Path_175" data-name="Path 175" d="M41.241,49.677H37.936a.809.809,0,0,0,0,1.618h3.305A.809.809,0,0,0,41.241,49.677Z" transform="translate(-8.719 -11.514)" fill="#1c54f8" stroke="#fff" stroke-width="0.3"></path><path id="Path_176" data-name="Path 176" d="M15.277,27.531V25.91a.809.809,0,0,0-1.618,0v1.621c-6.316.657-6.312,7.233,0,7.889v1.621a.809.809,0,0,0,1.618,0V35.42C21.594,34.763,21.591,28.187,15.277,27.531Zm-4.77,3.944c0-1.12,1.378-2.087,3.152-2.318v4.636C11.885,33.563,10.508,32.6,10.508,31.476Zm4.77,2.318V29.158C19.443,29.739,19.44,33.213,15.277,33.794Z" transform="translate(-3.324 -6.815)" fill="#1c54f8" stroke="#fff" stroke-width="0.3"></path><path id="Path_177" data-name="Path 177" d="M54.418,2.491H27.385a.809.809,0,0,0-.809.809V16.021a.809.809,0,0,0,1.618,0s0-11.912,0-11.912H53.609V20.882H49.5a.809.809,0,0,0-.809.809v3.225L42.285,21a.812.812,0,0,0-.422-.118H32.156a.809.809,0,0,0,0,1.618h9.48l7.447,4.549a.809.809,0,0,0,1.231-.69s0-3.858,0-3.858h4.1a.809.809,0,0,0,.809-.809V3.3A.809.809,0,0,0,54.418,2.491Z" transform="translate(-6.699 -2.491)" fill="#1c54f8" stroke="#fff" stroke-width="0.3"></path><path id="Path_178" data-name="Path 178" d="M44.563,6.424a.809.809,0,0,0-.809.809V8.809H38.2a.809.809,0,0,0,0,1.618h1.845a10.4,10.4,0,0,0,3.171,5.984,7.809,7.809,0,0,1-4.107,1.145.809.809,0,0,0,0,1.618,9.372,9.372,0,0,0,5.44-1.7,13.3,13.3,0,0,0,3.477,1.661.809.809,0,1,0,.49-1.542,12.08,12.08,0,0,1-2.645-1.2A16.537,16.537,0,0,0,49.885,9.84a.809.809,0,0,0-.778-1.031H45.371V7.232A.809.809,0,0,0,44.563,6.424Zm-.027,9.016a8.5,8.5,0,0,1-2.863-5.013h6.281A13.913,13.913,0,0,1,44.536,15.439Z" transform="translate(-8.77 -3.243)" fill="#1c54f8" stroke="#fff" stroke-width="0.3"></path></g></g></g></g></svg> 