<?xml version="1.0" encoding="UTF-8"?> <svg xmlns="http://www.w3.org/2000/svg" xmlns:xlink="http://www.w3.org/1999/xlink" width="60" height="60" viewBox="0 0 60 60"><defs><clipPath id="clip-path"><rect id="Rectangle_87" data-name="Rectangle 87" width="60" height="60" transform="translate(25 406)" fill="#fff" stroke="#707070" stroke-width="1"></rect></clipPath></defs><g id="Mask_Group_40" data-name="Mask Group 40" transform="translate(-25 -406)" clip-path="url(#clip-path)"><g id="Group_95" data-name="Group 95" transform="translate(-1850.358 59)"><g id="Ellipse_25" data-name="Ellipse 25" transform="translate(1877.358 369)" fill="none" stroke="#1c54f8" stroke-width="1"><circle cx="6" cy="6" r="6" stroke="none"></circle><circle cx="6" cy="6" r="5.5" fill="none"></circle></g><g id="Ellipse_26" data-name="Ellipse 26" transform="translate(1914.358 362)" fill="none" stroke="#1c54f8" stroke-width="1"><circle cx="5.5" cy="5.5" r="5.5" stroke="none"></circle><circle cx="5.5" cy="5.5" r="5" fill="none"></circle></g><g id="Rectangle_90" data-name="Rectangle 90" transform="translate(1895.358 353)" fill="none" stroke="#1c54f8" stroke-width="1"><rect width="11" height="11" stroke="none"></rect><rect x="0.5" y="0.5" width="10" height="10" fill="none"></rect></g><g id="Rectangle_91" data-name="Rectangle 91" transform="translate(1926.429 376.636) rotate(45)" fill="none" stroke="#1c54f8" stroke-width="1"><rect width="10" height="10" stroke="none"></rect><rect x="0.5" y="0.5" width="9" height="9" fill="none"></rect></g><path id="Path_228" data-name="Path 228" d="M1915.648,456.024l5.4,5.4v17.1" transform="translate(-28.642 -77)" fill="none" stroke="#1c54f8" stroke-width="1"></path><path id="Path_229" data-name="Path 229" d="M1929.5,440.544v38.285" transform="translate(-28.642 -77)" fill="none" stroke="#1c54f8" stroke-width="1"></path><path id="Path_230" data-name="Path 230" d="M1945.075,448.664l-7.545,7.545v22.355" transform="translate(-28.642 -77)" fill="none" stroke="#1c54f8" stroke-width="1"></path><path id="Path_231" data-name="Path 231" d="M1951.355,463.614l-5.415,5.415v9.625" transform="translate(-28.642 -77)" fill="none" stroke="#1c54f8" stroke-width="1"></path></g></g></svg> 