<?xml version="1.0" encoding="UTF-8"?> <svg xmlns="http://www.w3.org/2000/svg" xmlns:xlink="http://www.w3.org/1999/xlink" width="60" height="60" viewBox="0 0 60 60"><defs><clipPath id="clip-path"><rect id="Rectangle_37" data-name="Rectangle 37" width="60" height="60" transform="translate(222 596)" fill="#fff" stroke="#707070" stroke-width="1"></rect></clipPath></defs><g id="Mask_Group_32" data-name="Mask Group 32" transform="translate(-222 -596)" clip-path="url(#clip-path)"><g id="Group_84" data-name="Group 84" transform="translate(-76 37)"><circle id="Ellipse_24" data-name="Ellipse 24" cx="1.36" cy="1.36" r="1.36" transform="translate(326.929 597.242)" fill="#1c54f8" stroke="#fff" stroke-width="0.4"></circle><path id="Path_215" data-name="Path 215" d="M51.046,11.252h-8.73L41.074,9.185V4.907A.907.907,0,0,0,40.168,4H18.411a.907.907,0,0,0-.907.907V9.185l-1.242,2.067H7.533A4.533,4.533,0,0,0,3,15.785V38.448a4.533,4.533,0,0,0,4.533,4.533H22.944V48.42H15.691a.907.907,0,0,0-.907.907v3.626a.907.907,0,0,0,.907.907h27.2a.907.907,0,0,0,.907-.907V49.326a.907.907,0,0,0-.907-.907H35.635V42.981H51.046a4.533,4.533,0,0,0,4.533-4.533V15.785A4.533,4.533,0,0,0,51.046,11.252Zm0,1.813a2.72,2.72,0,0,1,2.72,2.72V33.915H42.887V19.692a5.439,5.439,0,0,0,.907-3c0-3.472.109-2.72-.39-3.626ZM32.009,33.915H26.57V25.757h5.439Zm.907-9.972H25.663a.907.907,0,0,0-.907.907v9.065H17.5V21.4a5.439,5.439,0,0,0,7.252-1.7,5.439,5.439,0,0,0,9.065,0,5.439,5.439,0,0,0,7.252,1.7V33.915H33.822V24.85A.907.907,0,0,0,32.915,23.944Zm9.065-7.252a3.626,3.626,0,1,1-7.252,0V14.878h7.252Zm-9.065,0a3.626,3.626,0,0,1-7.252,0V14.878h7.252Zm-.743-6.346.544,2.72H25.863l.544-2.72ZM23.85,16.691a3.626,3.626,0,0,1-7.252,0V14.878H23.85Zm10.715-3.626-.544-2.72h5.63l1.632,2.72ZM19.317,5.813H39.261v2.72H19.317Zm-.39,4.533h5.63l-.544,2.72H17.3ZM4.813,15.785a2.72,2.72,0,0,1,2.72-2.72h7.642l-.263.444c-.2.326-.109.68-.127,3.182a5.439,5.439,0,0,0,.907,3V33.915H4.813ZM41.981,52.046H16.6V50.233H41.981ZM33.822,48.42H24.757V42.981h9.065Zm17.224-7.252H7.533a2.72,2.72,0,0,1-2.72-2.72v-2.72H53.765v2.72a2.72,2.72,0,0,1-2.72,2.72Z" transform="translate(299 560)" fill="#1c54f8" stroke="#fff" stroke-width="0.4"></path></g></g></svg> 