<?xml version="1.0" encoding="UTF-8"?> <svg xmlns="http://www.w3.org/2000/svg" xmlns:xlink="http://www.w3.org/1999/xlink" width="60" height="60" viewBox="0 0 60 60"><defs><clipPath id="clip-path"><rect id="Rectangle_40" data-name="Rectangle 40" width="60" height="60" transform="translate(719 596)" fill="#fff" stroke="#707070" stroke-width="1"></rect></clipPath></defs><g id="Mask_Group_35" data-name="Mask Group 35" transform="translate(-719 -596)" clip-path="url(#clip-path)"><g id="Group_88" data-name="Group 88" transform="translate(-7.955 92.482)"><path id="Path_219" data-name="Path 219" d="M28.227,50.487a3.843,3.843,0,0,0,5.428,0L49.634,34.509A13.9,13.9,0,0,0,31.551,13.43a.979.979,0,0,1-1.219,0,13.969,13.969,0,0,0-18.8,1.59,14.08,14.08,0,0,0,.721,19.489L28.228,50.487ZM12.939,16.312a12.017,12.017,0,0,1,8.88-3.884,11.885,11.885,0,0,1,7.337,2.509,2.9,2.9,0,0,0,3.572,0,12.046,12.046,0,0,1,16.217,1.375,12.323,12.323,0,0,1-.662,16.845L32.3,49.136a1.93,1.93,0,0,1-2.725,0L13.6,33.157A12.322,12.322,0,0,1,12.939,16.312Z" transform="translate(726 502)" fill="#1c54f8"></path><path id="Path_220" data-name="Path 220" d="M16.956,30.836h8.5a.958.958,0,0,0,.89-.606L28.6,24.495l3.048,12.679a.956.956,0,0,0,.821.727.83.83,0,0,0,.108.007.956.956,0,0,0,.856-.529l3.3-6.593h8.9a.956.956,0,0,0,0-1.912h-9.5a.957.957,0,0,0-.856.529L32.894,34.18,29.75,21.1a.959.959,0,0,0-.863-.731.947.947,0,0,0-.956.6L24.8,28.924H16.956a.956.956,0,1,0,0,1.912Z" transform="translate(725.646 501.566)" fill="#1c54f8"></path></g></g></svg> 