<?xml version="1.0" encoding="UTF-8"?> <svg xmlns="http://www.w3.org/2000/svg" xmlns:xlink="http://www.w3.org/1999/xlink" width="60" height="60" viewBox="0 0 60 60"><defs><clipPath id="clip-path"><rect id="Rectangle_43" data-name="Rectangle 43" width="60" height="60" transform="translate(25 744)" fill="#fff" stroke="#707070" stroke-width="1"></rect></clipPath></defs><g id="Mask_Group_38" data-name="Mask Group 38" transform="translate(-25 -744)" clip-path="url(#clip-path)"><g id="Group_92" data-name="Group 92" transform="translate(-98.833 14.925)"><path id="Path_223" data-name="Path 223" d="M56.123,39.2V10.578A.576.576,0,0,0,55.546,10H10.577a.576.576,0,0,0-.577.577V39.2a.576.576,0,0,0,.577.577h3.335c0,.015-.009.028-.009.044v2.592H10.577a.576.576,0,0,0-.577.577V50.77a.576.576,0,0,0,.577.577H13.9v4.2a.576.576,0,0,0,.577.577h4.15a.576.576,0,0,0,.577-.577v-4.2H46.917v4.2a.576.576,0,0,0,.577.577h4.15a.576.576,0,0,0,.577-.577v-4.2h3.326a.576.576,0,0,0,.577-.577V42.985a.576.576,0,0,0-.577-.577H52.22V39.817c0-.016-.008-.029-.009-.044h3.335A.576.576,0,0,0,56.123,39.2Zm-41.076.577h3.015c0,.015-.009.028-.009.044v2.592h-3V39.817C15.056,39.8,15.048,39.788,15.047,39.773Zm31.87,2.636H19.206V39.817c0-.016-.008-.029-.009-.044H46.926c0,.015-.009.028-.009.044ZM18.053,54.97h-3V51.347h3Zm33.014,0h-3V51.347h3Zm3.9-4.776H11.153V43.562H54.97Zm-3.9-10.377v2.592h-3V39.817c0-.016-.008-.029-.009-.044h3.014C51.074,39.788,51.067,39.8,51.067,39.817Zm3.9-1.2H11.153V11.154H54.97Z" transform="translate(120.833 726.074)" fill="#1c54f8"></path><path id="Path_224" data-name="Path 224" d="M37.042,74.117H51.5a.577.577,0,1,0,0-1.153H37.042a.577.577,0,1,0,0,1.153Z" transform="translate(109.626 699.411)" fill="#1c54f8"></path><path id="Path_225" data-name="Path 225" d="M31.175,33.53h5.344A1.886,1.886,0,0,0,38.4,31.647V30.329a.576.576,0,0,0-.577-.577h-.968L34.376,21.43c.217-.111.439-.232.669-.37A10.654,10.654,0,0,1,40.6,19.48V34.533H38.556a1.649,1.649,0,0,0-1.647,1.647v1.964a.576.576,0,0,0,.577.577h7.382a.576.576,0,0,0,.577-.577V36.18A1.649,1.649,0,0,0,43.8,34.533H41.753V19.48a10.656,10.656,0,0,1,5.556,1.58c.165.1.323.184.48.268l-2.513,8.425h-.642a.576.576,0,0,0-.577.577v1.317a1.886,1.886,0,0,0,1.883,1.883h5.344a1.886,1.886,0,0,0,1.883-1.883V30.329a.576.576,0,0,0-.577-.577h-.968l-2.316-7.766a6.4,6.4,0,0,0,1.971.344,3.342,3.342,0,0,0,1.193-.18.577.577,0,0,0-.439-1.066c-.015.007-1.52.552-4.13-1.014a11.711,11.711,0,0,0-6.15-1.746v-.871a.577.577,0,0,0-1.153,0v.871a11.712,11.712,0,0,0-6.149,1.746c-2.6,1.561-4.123,1.017-4.131,1.014a.577.577,0,0,0-.439,1.066,3.342,3.342,0,0,0,1.193.18,6.2,6.2,0,0,0,1.729-.267L30.51,29.753h-.642a.576.576,0,0,0-.577.577v1.317A1.886,1.886,0,0,0,31.175,33.53Zm13.116,2.65v1.388H38.062V36.18a.494.494,0,0,1,.493-.494H43.8A.494.494,0,0,1,44.291,36.18Zm7.725-4.533a.731.731,0,0,1-.73.73H45.943a.731.731,0,0,1-.73-.73v-.741h6.8Zm-5.535-1.894,1.97-6.606,1.97,6.606Zm-9.232,1.894a.731.731,0,0,1-.73.73H31.175a.731.731,0,0,1-.73-.73v-.741h6.8Zm-3.565-8.5,1.97,6.606h-3.94Z" transform="translate(112.664 723.162)" fill="#1c54f8"></path></g></g></svg> 