<?xml version="1.0" encoding="UTF-8"?> <svg xmlns="http://www.w3.org/2000/svg" xmlns:xlink="http://www.w3.org/1999/xlink" width="60" height="60" viewBox="0 0 60 60"><defs><clipPath id="clip-path"><rect id="Rectangle_42" data-name="Rectangle 42" width="60" height="60" transform="translate(973 596)" fill="#fff" stroke="#707070" stroke-width="1"></rect></clipPath></defs><g id="Mask_Group_37" data-name="Mask Group 37" transform="translate(-973 -596)" clip-path="url(#clip-path)"><g id="Group_91" data-name="Group 91" transform="translate(71 -115)"><g id="Group_90" data-name="Group 90" transform="translate(906 717)"><path id="Path_222" data-name="Path 222" d="M32.741,42.716l-9.934,5.348V27.108L42.356,16.582v10.04a.815.815,0,0,0,1.629,0v-11.4a.841.841,0,0,0-.428-.717L22.379,3.1a.815.815,0,0,0-.772,0L.428,14.5A.841.841,0,0,0,0,15.218V38.025a.815.815,0,0,0,.428.717l21.178,11.4a.979.979,0,0,0,.386.1,1,1,0,0,0,.386-.1l11.135-5.995a.814.814,0,0,0-.772-1.434ZM21.992,25.7,16.651,22.82l19.46-10.478,5.341,2.876Zm-12.4-6.677L29.051,8.541l5.341,2.876L14.934,21.895Zm-.9,1.366,5.425,2.92v5.48L8.691,25.866ZM21.992,4.74l5.341,2.876L7.874,18.094,2.533,15.218ZM1.629,16.582l5.433,2.925v6.846a.814.814,0,0,0,.429.717l7.054,3.8a.814.814,0,0,0,1.2-.717V24.183l5.433,2.925V48.065L1.629,37.539ZM43.17,29.065a8.96,8.96,0,1,0,8.96,8.96A8.96,8.96,0,0,0,43.17,29.065Zm0,16.291A7.331,7.331,0,1,1,50.5,38.025a7.331,7.331,0,0,1-7.331,7.331ZM47,35.413a.814.814,0,0,1,0,1.152l-4.073,4.073a.814.814,0,0,1-1.152,0l-2.444-2.444a.814.814,0,0,1,1.152-1.152l1.868,1.868,3.5-3.5a.814.814,0,0,1,1.152,0Z" transform="translate(0 -3)" fill="#1c54f8"></path></g></g></g></svg> 