<?xml version="1.0" encoding="UTF-8"?> <svg xmlns="http://www.w3.org/2000/svg" width="91" height="91" viewBox="0 0 91 91" fill="none"><mask id="mask0_2_410" style="mask-type:luminance" maskUnits="userSpaceOnUse" x="0" y="0" width="91" height="91"><path d="M90.74 0.359985H0.73999V90.36H90.74V0.359985Z" fill="white"></path></mask><g mask="url(#mask0_2_410)"><path d="M74.59 9.82001C74.59 9.50001 74.58 9.17 74.55 8.87C74.06 4.16 70.07 0.470001 65.23 0.470001H24.54C19.38 0.470001 15.18 4.65999 15.18 9.82999V82.11C15.18 86.61 18.84 90.28 23.35 90.28H66.44C70.94 90.28 74.61 86.62 74.61 82.11L74.59 9.82001ZM17.99 70.98V15.44H71.78V70.98H17.99ZM17.99 9.82001C17.99 6.20001 20.92 3.26999 24.54 3.26999H65.23C67.94 3.26999 70.27 4.92999 71.26 7.26999C71.6 8.05999 71.78 8.91001 71.78 9.82001V12.63H17.99V9.82001ZM66.44 87.45H23.34C20.39 87.45 17.98 85.05 17.98 82.09V73.78H71.78V82.09C71.78 85.05 69.38 87.45 66.44 87.45Z" fill="#1B54F8"></path><path d="M44.89 75.79C42.34 75.79 40.25 77.87 40.25 80.42C40.25 82.97 42.33 85.06 44.89 85.06C47.46 85.06 49.53 82.98 49.53 80.42C49.53 77.86 47.44 75.79 44.89 75.79ZM44.89 82.26C43.88 82.26 43.05 81.43 43.05 80.42C43.05 79.41 43.88 78.6 44.89 78.6C45.9 78.6 46.73 79.41 46.73 80.42C46.72 81.43 45.9 82.26 44.89 82.26Z" fill="#1B54F8"></path><path d="M47.58 21.93H42.18C40.24 21.93 38.67 23.5 38.67 25.44V30.83C38.67 32.77 40.24 34.34 42.18 34.34H47.58C49.52 34.34 51.09 32.77 51.09 30.83V25.44C51.09 23.5 49.52 21.93 47.58 21.93ZM48.28 30.81C48.28 31.19 47.97 31.51 47.58 31.51H42.18C41.8 31.51 41.48 31.2 41.48 30.81V25.42C41.48 25.04 41.79 24.72 42.18 24.72H47.58C47.96 24.72 48.28 25.03 48.28 25.42V30.81Z" fill="#1B54F8"></path><path d="M63.87 21.93H58.47C56.53 21.93 54.96 23.5 54.96 25.44V30.83C54.96 32.77 56.53 34.34 58.47 34.34H63.87C65.81 34.34 67.38 32.77 67.38 30.83V25.44C67.38 23.5 65.8 21.93 63.87 21.93ZM64.57 30.81C64.57 31.19 64.26 31.51 63.87 31.51H58.47C58.09 31.51 57.77 31.2 57.77 30.81V25.42C57.77 25.04 58.08 24.72 58.47 24.72H63.87C64.25 24.72 64.57 25.03 64.57 25.42V30.81Z" fill="#1B54F8"></path><path d="M31.29 21.93H25.89C23.95 21.93 22.38 23.5 22.38 25.44V30.83C22.38 32.77 23.95 34.34 25.89 34.34H31.29C33.23 34.34 34.8 32.77 34.8 30.83V25.44C34.8 23.5 33.23 21.93 31.29 21.93ZM31.99 30.81C31.99 31.19 31.68 31.51 31.29 31.51H25.89C25.51 31.51 25.19 31.2 25.19 30.81V25.42C25.19 25.04 25.5 24.72 25.89 24.72H31.29C31.67 24.72 31.99 25.03 31.99 25.42V30.81Z" fill="#1B54F8"></path><path d="M47.58 37.01H42.18C40.24 37.01 38.67 38.58 38.67 40.52V45.91C38.67 47.85 40.24 49.42 42.18 49.42H47.58C49.52 49.42 51.09 47.85 51.09 45.91V40.52C51.09 38.58 49.52 37.01 47.58 37.01ZM48.28 45.89C48.28 46.27 47.97 46.59 47.58 46.59H42.18C41.8 46.59 41.48 46.28 41.48 45.89V40.5C41.48 40.12 41.79 39.8 42.18 39.8H47.58C47.96 39.8 48.28 40.11 48.28 40.5V45.89Z" fill="#1B54F8"></path><path d="M63.87 37.01H58.47C56.53 37.01 54.96 38.58 54.96 40.52V45.91C54.96 47.85 56.53 49.42 58.47 49.42H63.87C65.81 49.42 67.38 47.85 67.38 45.91V40.52C67.38 38.58 65.8 37.01 63.87 37.01ZM64.57 45.89C64.57 46.27 64.26 46.59 63.87 46.59H58.47C58.09 46.59 57.77 46.28 57.77 45.89V40.5C57.77 40.12 58.08 39.8 58.47 39.8H63.87C64.25 39.8 64.57 40.11 64.57 40.5V45.89Z" fill="#1B54F8"></path><path d="M31.29 37.01H25.89C23.95 37.01 22.38 38.58 22.38 40.52V45.91C22.38 47.85 23.95 49.42 25.89 49.42H31.29C33.23 49.42 34.8 47.85 34.8 45.91V40.52C34.8 38.58 33.23 37.01 31.29 37.01ZM31.99 45.89C31.99 46.27 31.68 46.59 31.29 46.59H25.89C25.51 46.59 25.19 46.28 25.19 45.89V40.5C25.19 40.12 25.5 39.8 25.89 39.8H31.29C31.67 39.8 31.99 40.11 31.99 40.5V45.89Z" fill="#1B54F8"></path><path d="M47.58 52.09H42.18C40.24 52.09 38.67 53.66 38.67 55.6V60.99C38.67 62.93 40.24 64.5 42.18 64.5H47.58C49.52 64.5 51.09 62.93 51.09 60.99V55.6C51.09 53.66 49.52 52.09 47.58 52.09ZM48.28 60.97C48.28 61.35 47.97 61.67 47.58 61.67H42.18C41.8 61.67 41.48 61.36 41.48 60.97V55.58C41.48 55.2 41.79 54.88 42.18 54.88H47.58C47.96 54.88 48.28 55.19 48.28 55.58V60.97Z" fill="#1B54F8"></path><path d="M63.87 52.09H58.47C56.53 52.09 54.96 53.66 54.96 55.6V60.99C54.96 62.93 56.53 64.5 58.47 64.5H63.87C65.81 64.5 67.38 62.93 67.38 60.99V55.6C67.38 53.66 65.8 52.09 63.87 52.09ZM64.57 60.97C64.57 61.35 64.26 61.67 63.87 61.67H58.47C58.09 61.67 57.77 61.36 57.77 60.97V55.58C57.77 55.2 58.08 54.88 58.47 54.88H63.87C64.25 54.88 64.57 55.19 64.57 55.58V60.97Z" fill="#1B54F8"></path><path d="M31.29 52.09H25.89C23.95 52.09 22.38 53.66 22.38 55.6V60.99C22.38 62.93 23.95 64.5 25.89 64.5H31.29C33.23 64.5 34.8 62.93 34.8 60.99V55.6C34.8 53.66 33.23 52.09 31.29 52.09ZM31.99 60.97C31.99 61.35 31.68 61.67 31.29 61.67H25.89C25.51 61.67 25.19 61.36 25.19 60.97V55.58C25.19 55.2 25.5 54.88 25.89 54.88H31.29C31.67 54.88 31.99 55.19 31.99 55.58V60.97Z" fill="#1B54F8"></path><path d="M49.24 6.54001H45.35C44.58 6.54001 43.95 7.17 43.95 7.94C43.95 8.71 44.58 9.34 45.35 9.34H49.24C50.01 9.34 50.64 8.71 50.64 7.94C50.64 7.17 50.01 6.54001 49.24 6.54001Z" fill="#1B54F8"></path><path d="M41.24 6.54001H40.54C39.77 6.54001 39.14 7.17 39.14 7.94C39.14 8.71 39.77 9.34 40.54 9.34H41.23C42 9.34 42.63 8.71 42.63 7.94C42.63 7.17 42.01 6.54001 41.24 6.54001Z" fill="#1B54F8"></path></g></svg> 