<?xml version="1.0" encoding="UTF-8"?> <svg xmlns="http://www.w3.org/2000/svg" width="91" height="91" viewBox="0 0 91 91" fill="none"><mask id="mask0_2_434" style="mask-type:luminance" maskUnits="userSpaceOnUse" x="0" y="0" width="91" height="91"><path d="M90.08 0.359985H0.0800171V90.36H90.08V0.359985Z" fill="white"></path></mask><g mask="url(#mask0_2_434)"><path d="M78.19 2.07001H12.61C6.59003 2.07001 1.78003 6.87999 1.78003 12.9V78.63C1.78003 84.65 6.59003 89.46 12.61 89.46H78.34C84.36 89.46 89.17 84.65 89.17 78.63V12.9C89.02 6.87999 84.21 2.07001 78.19 2.07001ZM4.79002 40.88H22.39C22.09 42.38 21.94 44.04 21.94 45.69C21.94 47.34 22.09 49 22.39 50.5H4.79002V40.88ZM24.8 45.69C24.8 34.41 33.97 25.08 45.41 25.08C56.85 25.08 66.02 34.41 66.02 45.69C66.02 56.97 56.69 66.3 45.41 66.3C34.13 66.3 24.8 56.97 24.8 45.69ZM76.69 37.87H70.37V5.07999H76.69V37.87ZM67.51 37.42C66.16 33.81 64.05 30.65 61.19 28.25V5.09H67.51V37.42ZM68.42 40.88H86.02V50.51H68.42C68.72 49.01 68.87 47.35 68.87 45.7C68.87 44.05 68.87 42.38 68.42 40.88ZM86.01 12.9V38.02H79.69V5.23001C83.31 5.98001 86.01 9.13999 86.01 12.9ZM12.61 5.07999H58.18V25.99C54.42 23.58 50.06 22.23 45.4 22.23C35.17 22.23 26.45 28.85 23.14 38.02H4.79002V12.9C4.79002 8.53999 8.25003 5.07999 12.61 5.07999ZM78.19 86.3H12.61C8.25003 86.3 4.79002 82.84 4.79002 78.48V53.51H23.14C26.3 62.68 35.02 69.3 45.4 69.3C55.78 69.3 64.35 62.68 67.66 53.51H86.01V78.63C86.01 82.84 82.55 86.3 78.19 86.3Z" fill="#1B54F8"></path><path d="M45.4 58.62C52.47 58.62 58.33 52.9 58.33 45.69C58.33 38.48 52.61 32.76 45.4 32.76C38.19 32.76 32.47 38.48 32.47 45.69C32.47 52.9 38.33 58.62 45.4 58.62ZM45.4 35.76C50.81 35.76 55.33 40.12 55.33 45.69C55.33 51.26 50.97 55.62 45.4 55.62C39.83 55.62 35.47 51.26 35.47 45.69C35.47 40.12 39.99 35.76 45.4 35.76Z" fill="#1B54F8"></path><path d="M16.22 23.43C19.98 23.43 22.99 20.42 22.99 16.66C22.99 12.9 19.98 9.89001 16.22 9.89001C12.46 9.89001 9.45001 12.9 9.45001 16.66C9.45001 20.42 12.46 23.43 16.22 23.43ZM16.22 12.75C18.33 12.75 19.98 14.4 19.98 16.51C19.98 18.62 18.33 20.27 16.22 20.27C14.11 20.27 12.46 18.62 12.46 16.51C12.46 14.4 14.12 12.75 16.22 12.75Z" fill="#1B54F8"></path></g></svg> 