<?xml version="1.0" encoding="UTF-8"?> <svg xmlns="http://www.w3.org/2000/svg" width="91" height="91" viewBox="0 0 91 91" fill="none"><mask id="mask0_2_266" style="mask-type:luminance" maskUnits="userSpaceOnUse" x="0" y="0" width="91" height="91"><path d="M90.4 0.359985H0.400024V90.36H90.4V0.359985Z" fill="white"></path></mask><g mask="url(#mask0_2_266)"><path d="M81 63.35C82.49 62.03 83.43 60.1 83.43 57.95C83.43 53.97 80.19 50.73 76.21 50.73C72.23 50.73 68.99 53.97 68.99 57.95C68.99 60.1 69.93 62.03 71.42 63.35C67.33 65.11 64.39 69.05 64.07 73.7L53.19 79.11C52.29 78.36 51.28 77.73 50.19 77.26C51.68 75.94 52.62 74.01 52.62 71.86C52.62 67.88 49.38 64.64 45.4 64.64C41.42 64.64 38.18 67.88 38.18 71.86C38.18 74.01 39.12 75.94 40.61 77.26C39.52 77.73 38.51 78.35 37.61 79.11L26.73 73.7C26.41 69.05 23.47 65.11 19.38 63.35C20.87 62.03 21.81 60.1 21.81 57.95C21.81 53.97 18.57 50.73 14.59 50.73C10.61 50.73 7.37 53.97 7.37 57.95C7.37 60.1 8.30999 62.03 9.79999 63.35C5.45999 65.21 2.41998 69.53 2.41998 74.54C2.41998 75.31 3.05001 75.94 3.82001 75.94H24.95L35.61 81.24C34.12 83.26 33.24 85.75 33.24 88.45C33.24 89.22 33.87 89.85 34.64 89.85H56.18C56.95 89.85 57.58 89.22 57.58 88.45C57.58 85.75 56.7 83.26 55.21 81.24L65.87 75.94H87C87.77 75.94 88.4 75.31 88.4 74.54C88.39 69.52 85.34 65.21 81 63.35ZM71.8 57.94C71.8 55.5 73.78 53.52 76.22 53.52C78.66 53.52 80.64 55.5 80.64 57.94C80.64 60.38 78.66 62.36 76.22 62.36C73.78 62.36 71.8 60.38 71.8 57.94ZM40.98 71.86C40.98 69.42 42.96 67.44 45.4 67.44C47.84 67.44 49.82 69.42 49.82 71.86C49.82 74.29 47.84 76.28 45.41 76.28C42.96 76.27 40.98 74.29 40.98 71.86ZM14.58 53.53C17.02 53.53 19 55.51 19 57.95C19 60.39 17.02 62.37 14.58 62.37C12.14 62.37 10.16 60.39 10.16 57.95C10.16 55.51 12.15 53.53 14.58 53.53ZM5.32001 73.13C6.00001 68.63 9.89002 65.17 14.58 65.17C19.27 65.17 23.16 68.63 23.84 73.13H5.32001ZM36.14 87.05C36.82 82.55 40.71 79.09 45.4 79.09C50.09 79.09 53.98 82.55 54.66 87.05H36.14ZM66.95 73.13C67.63 68.63 71.52 65.17 76.21 65.17C80.9 65.17 84.79 68.63 85.47 73.13H66.95ZM15.55 38H19.42C20.07 40.64 21.1 43.14 22.52 45.47L19.78 48.21C19.23 48.76 19.23 49.65 19.78 50.19L26.82 57.23C27.08 57.49 27.44 57.64 27.81 57.64C28.18 57.64 28.54 57.49 28.8 57.23L31.54 54.49C33.87 55.9 36.37 56.94 39.01 57.59V61.46C39.01 62.23 39.64 62.86 40.41 62.86H50.37C51.14 62.86 51.77 62.23 51.77 61.46V57.59C54.41 56.95 56.91 55.91 59.24 54.49L61.98 57.23C62.53 57.78 63.42 57.78 63.96 57.23L71 50.19C71.26 49.93 71.41 49.57 71.41 49.2C71.41 48.83 71.26 48.47 71 48.21L68.26 45.47C69.67 43.14 70.71 40.64 71.36 38H75.23C76 38 76.63 37.37 76.63 36.6V26.64C76.63 25.87 76 25.24 75.23 25.24H71.36C70.72 22.6 69.68 20.1 68.26 17.77L71 15.03C71.55 14.48 71.55 13.59 71 13.05L63.95 6C63.69 5.74 63.33 5.59 62.96 5.59C62.59 5.59 62.23 5.74 61.97 6L59.23 8.73999C56.9 7.32999 54.4 6.29001 51.76 5.64001V1.76999C51.76 0.999989 51.13 0.369995 50.36 0.369995H40.4C39.63 0.369995 39 0.999989 39 1.76999V5.64001C36.36 6.28001 33.86 7.32001 31.53 8.73001L28.79 5.98999C28.24 5.43999 27.35 5.43999 26.81 5.98999L19.77 13.03C19.51 13.29 19.36 13.65 19.36 14.02C19.36 14.39 19.51 14.75 19.77 15.01L22.51 17.75C21.1 20.08 20.06 22.58 19.41 25.22H15.54C14.77 25.22 14.14 25.85 14.14 26.62V36.58C14.15 37.37 14.78 38 15.55 38ZM16.95 28.04H20.54C21.21 28.04 21.79 27.57 21.92 26.91C22.53 23.84 23.73 20.96 25.47 18.35C25.84 17.79 25.77 17.05 25.3 16.58L22.76 14.04L27.82 8.98001L30.36 11.52C30.83 11.99 31.57 12.07 32.13 11.69C34.74 9.95 37.62 8.75001 40.69 8.14001C41.35 8.01001 41.82 7.43001 41.82 6.76001V3.17001H48.97V6.76999C48.97 7.43999 49.44 8.01999 50.1 8.14999C53.17 8.75999 56.05 9.96001 58.66 11.7C59.22 12.07 59.96 12 60.43 11.53L62.97 8.98999L68.03 14.05L65.49 16.59C65.02 17.06 64.94 17.8 65.32 18.36C67.06 20.97 68.26 23.85 68.87 26.92C69 27.58 69.58 28.05 70.25 28.05H73.85V35.2H70.25C69.58 35.2 69 35.67 68.87 36.33C68.26 39.4 67.06 42.28 65.32 44.89C64.95 45.45 65.02 46.19 65.49 46.66L68.03 49.2L62.97 54.26L60.43 51.72C59.96 51.25 59.22 51.17 58.66 51.55C56.05 53.29 53.17 54.49 50.1 55.1C49.44 55.23 48.97 55.81 48.97 56.48V60.07H41.82V56.48C41.82 55.81 41.35 55.23 40.69 55.1C37.62 54.49 34.74 53.29 32.13 51.55C31.57 51.18 30.83 51.25 30.36 51.72L27.82 54.26L22.76 49.2L25.3 46.66C25.77 46.19 25.85 45.45 25.47 44.89C23.73 42.28 22.53 39.4 21.92 36.33C21.79 35.67 21.21 35.2 20.54 35.2H16.95V28.04ZM23.99 38.46L29.37 39.53C29.46 39.55 29.55 39.56 29.64 39.56C29.92 39.56 30.19 39.48 30.42 39.32C30.6 39.2 30.75 39.03 30.86 38.85L39.13 47.12C39.83 47.82 40.76 48.18 41.68 48.18C42.6 48.18 43.53 47.83 44.23 47.12C44.42 46.93 44.59 46.71 44.74 46.49L45.26 47.01C45.94 47.69 46.85 48.06 47.81 48.06C48.78 48.06 49.68 47.69 50.36 47C50.6 46.76 50.79 46.5 50.95 46.22C51.46 46.49 52.04 46.63 52.63 46.63C53.6 46.63 54.5 46.26 55.18 45.57C55.75 45 56.11 44.27 56.21 43.47C56.98 43.37 57.72 43.03 58.31 42.44C59.17 41.58 59.52 40.38 59.31 39.24L59.85 38.7C60.07 39.21 60.58 39.54 61.13 39.54C61.22 39.54 61.31 39.53 61.41 39.51L66.79 38.44C67.16 38.37 67.48 38.15 67.68 37.84C67.89 37.53 67.96 37.15 67.89 36.79L64.59 20.2C64.44 19.44 63.7 18.95 62.94 19.1L57.56 20.17C57.19 20.24 56.87 20.46 56.67 20.77C56.46 21.08 56.39 21.46 56.46 21.82L56.52 22.12C54.46 22.68 52.12 22.59 49.18 20.16C47.34 18.64 44.83 18.6 43.08 20.05L41.72 21.19H34.3C34.17 20.69 33.76 20.28 33.22 20.17L27.84 19.1C27.48 19.03 27.1 19.1 26.79 19.31C26.48 19.52 26.27 19.84 26.19 20.2L22.89 36.79C22.74 37.57 23.23 38.3 23.99 38.46ZM62.12 22.14L64.88 35.98L62.26 36.5L59.5 22.66L62.12 22.14ZM44.89 22.22C45.61 21.62 46.59 21.67 47.4 22.34C51.22 25.49 54.57 25.51 57.07 24.89L59.17 35.44L57.72 36.89L49.15 28.2C49.13 28.18 49.11 28.16 49.1 28.15C47.9 27.05 45.61 25.32 43.79 25.99C43.04 26.27 42.54 26.92 42.45 27.73C42.45 27.74 42.45 27.75 42.45 27.76C42.43 27.96 42.41 28.15 42.4 28.34C42.2 30.65 42 32.03 40.62 32.83L39.39 27.2C39.34 26.98 39.45 26.77 39.7 26.55L44.89 22.22ZM36.65 27.8L38.22 35.01C38.3 35.38 38.53 35.7 38.85 35.9C39.17 36.1 39.56 36.16 39.93 36.07C44.53 34.94 44.94 31.57 45.18 28.78C45.62 28.97 46.31 29.38 47.19 30.18L56.54 39.66C56.62 39.94 56.55 40.25 56.34 40.46C56.03 40.77 55.51 40.77 55.2 40.46L48.62 33.88C48.07 33.33 47.18 33.33 46.64 33.88C46.09 34.43 46.09 35.32 46.64 35.86L53.22 42.44C53.37 42.59 53.45 42.79 53.45 43.01C53.45 43.23 53.37 43.43 53.22 43.58C53.07 43.73 52.87 43.81 52.65 43.81C52.43 43.81 52.23 43.73 52.08 43.58L45.13 36.63C44.58 36.08 43.69 36.08 43.15 36.63C42.6 37.18 42.6 38.07 43.15 38.61L48.4 43.86C48.71 44.17 48.71 44.69 48.4 45C48.25 45.15 48.05 45.23 47.83 45.23C47.61 45.23 47.41 45.15 47.26 45L41.64 39.38C41.09 38.83 40.2 38.83 39.66 39.38C39.11 39.93 39.11 40.82 39.66 41.36L42.27 43.97C42.42 44.12 42.5 44.32 42.5 44.54C42.5 44.76 42.42 44.96 42.27 45.11C41.96 45.42 41.44 45.42 41.13 45.11L31.59 35.57L33.9 23.99H38.38L37.92 24.37C36.85 25.28 36.38 26.55 36.65 27.8ZM28.68 22.14L31.3 22.66L28.54 36.5L25.92 35.98L28.68 22.14Z" fill="#1B54F8" stroke="white" stroke-width="0.25" stroke-miterlimit="10"></path></g></svg> 