<?xml version="1.0" encoding="UTF-8"?> <svg xmlns="http://www.w3.org/2000/svg" width="91" height="91" viewBox="0 0 91 91" fill="none"><mask id="mask0_2_428" style="mask-type:luminance" maskUnits="userSpaceOnUse" x="0" y="0" width="91" height="91"><path d="M90.08 0.359985H0.0799866V90.36H90.08V0.359985Z" fill="white"></path></mask><g mask="url(#mask0_2_428)"><path fill-rule="evenodd" clip-rule="evenodd" d="M4.97 7.76001C4.2 7.76001 3.57999 8.37999 3.57999 9.14999V26.25C3.57999 27.02 4.2 27.64 4.97 27.64H24.63C25.4 27.64 26.02 27.02 26.02 26.25V9.14999C26.02 8.37999 25.4 7.76001 24.63 7.76001H4.97ZM25.55 29.94H4.04999C2.51999 29.94 1.28 28.7 1.28 27.17V8.23001C1.28 6.70001 2.51999 5.45999 4.04999 5.45999H25.55C27.08 5.45999 28.32 6.70001 28.32 8.23001V27.17C28.32 28.69 27.08 29.94 25.55 29.94ZM55.79 29.94H34.29C32.76 29.94 31.52 28.7 31.52 27.17V8.23001C31.52 6.70001 32.76 5.45999 34.29 5.45999H55.79C57.32 5.45999 58.56 6.70001 58.56 8.23001V27.17C58.57 28.69 57.32 29.94 55.79 29.94ZM35.21 7.76001C34.44 7.76001 33.82 8.37999 33.82 9.14999V26.25C33.82 27.02 34.44 27.64 35.21 27.64H54.87C55.64 27.64 56.26 27.02 56.26 26.25V9.14999C56.26 8.37999 55.64 7.76001 54.87 7.76001H35.21ZM55.79 57.62H34.29C32.76 57.62 31.52 56.38 31.52 54.85V35.91C31.52 34.38 32.76 33.14 34.29 33.14H55.79C57.32 33.14 58.56 34.38 58.56 35.91V54.85C58.57 56.38 57.32 57.62 55.79 57.62ZM35.21 35.45C34.44 35.45 33.82 36.07 33.82 36.84V53.94C33.82 54.71 34.44 55.33 35.21 55.33H54.87C55.64 55.33 56.26 54.71 56.26 53.94V36.84C56.26 36.07 55.64 35.45 54.87 35.45H35.21ZM55.79 85.35H34.29C32.76 85.35 31.52 84.11 31.52 82.58V63.64C31.52 62.11 32.76 60.87 34.29 60.87H55.79C57.32 60.87 58.56 62.11 58.56 63.64V82.58C58.57 84.11 57.32 85.35 55.79 85.35ZM35.21 63.17C34.44 63.17 33.82 63.79 33.82 64.56V81.66C33.82 82.43 34.44 83.05 35.21 83.05H54.87C55.64 83.05 56.26 82.43 56.26 81.66V64.56C56.26 63.79 55.64 63.17 54.87 63.17H35.21ZM4.97 35.45C4.2 35.45 3.57999 36.07 3.57999 36.84V53.94C3.57999 54.71 4.2 55.33 4.97 55.33H24.63C25.4 55.33 26.02 54.71 26.02 53.94V36.84C26.02 36.07 25.4 35.45 24.63 35.45H4.97ZM25.55 57.62H4.04999C2.51999 57.62 1.28 56.38 1.28 54.85V35.91C1.28 34.38 2.51999 33.14 4.04999 33.14H25.55C27.08 33.14 28.32 34.38 28.32 35.91V54.85C28.32 56.38 27.08 57.62 25.55 57.62ZM65.71 7.76001C64.94 7.76001 64.32 8.37999 64.32 9.14999V26.25C64.32 27.02 64.94 27.64 65.71 27.64H85.37C86.14 27.64 86.76 27.02 86.76 26.25V9.14999C86.76 8.37999 86.14 7.76001 85.37 7.76001H65.71ZM86.29 29.94H64.79C63.26 29.94 62.02 28.7 62.02 27.17V8.23001C62.02 6.70001 63.26 5.45999 64.79 5.45999H86.29C87.82 5.45999 89.06 6.70001 89.06 8.23001V27.17C89.06 28.69 87.82 29.94 86.29 29.94ZM65.71 35.45C64.94 35.45 64.32 36.07 64.32 36.84V53.94C64.32 54.71 64.94 55.33 65.71 55.33H85.37C86.14 55.33 86.76 54.71 86.76 53.94V36.84C86.76 36.07 86.14 35.45 85.37 35.45H65.71ZM86.29 57.62H64.79C63.26 57.62 62.02 56.38 62.02 54.85V35.91C62.02 34.38 63.26 33.14 64.79 33.14H86.29C87.82 33.14 89.06 34.38 89.06 35.91V54.85C89.06 56.38 87.82 57.62 86.29 57.62ZM4.97 63.17C4.2 63.17 3.57999 63.79 3.57999 64.56V81.66C3.57999 82.43 4.2 83.05 4.97 83.05H24.63C25.4 83.05 26.02 82.43 26.02 81.66V64.56C26.02 63.79 25.4 63.17 24.63 63.17H4.97ZM25.55 85.35H4.04999C2.51999 85.35 1.28 84.11 1.28 82.58V63.64C1.28 62.11 2.51999 60.87 4.04999 60.87H25.55C27.08 60.87 28.32 62.11 28.32 63.64V82.58C28.32 84.11 27.08 85.35 25.55 85.35ZM65.71 63.17C64.94 63.17 64.32 63.79 64.32 64.56V81.66C64.32 82.43 64.94 83.05 65.71 83.05H85.37C86.14 83.05 86.76 82.43 86.76 81.66V64.56C86.76 63.79 86.14 63.17 85.37 63.17H65.71ZM86.29 85.35H64.79C63.26 85.35 62.02 84.11 62.02 82.58V63.64C62.02 62.11 63.26 60.87 64.79 60.87H86.29C87.82 60.87 89.06 62.11 89.06 63.64V82.58C89.06 84.11 87.82 85.35 86.29 85.35Z" fill="#1B54F8"></path></g></svg> 