<?xml version="1.0" encoding="UTF-8"?> <svg xmlns="http://www.w3.org/2000/svg" width="91" height="91" viewBox="0 0 91 91" fill="none"><mask id="mask0_2_442" style="mask-type:luminance" maskUnits="userSpaceOnUse" x="0" y="0" width="91" height="91"><path d="M90.04 0.359985H0.0400085V90.36H90.04V0.359985Z" fill="white"></path></mask><g mask="url(#mask0_2_442)"><path d="M83.72 12.08H6.35999C3.35999 12.05 0.899985 14.45 0.859985 17.45V72.26C0.899985 75.26 3.35999 77.66 6.35999 77.63H83.72C86.72 77.66 89.18 75.26 89.22 72.26V17.45C89.18 14.46 86.72 12.05 83.72 12.08ZM6.35999 14.93H83.72C85.15 14.9 86.33 16.03 86.37 17.45V26.33H3.70999V17.45C3.74999 16.03 4.92999 14.9 6.35999 14.93ZM83.72 74.79H6.35999C4.92999 74.82 3.74999 73.69 3.70999 72.27V29.19H86.37V72.27C86.33 73.7 85.15 74.83 83.72 74.79ZM7.98001 20.64C7.98001 19.85 8.62 19.21 9.41 19.21H12.26C13.05 19.21 13.69 19.85 13.69 20.64C13.69 21.43 13.05 22.07 12.26 22.07H9.41C8.62 22.06 7.98001 21.42 7.98001 20.64ZM16.53 20.64C16.53 19.85 17.17 19.21 17.96 19.21H20.81C21.6 19.21 22.24 19.85 22.24 20.64C22.24 21.43 21.6 22.07 20.81 22.07H17.96C17.17 22.06 16.53 21.42 16.53 20.64ZM25.09 20.64C25.09 19.85 25.73 19.21 26.52 19.21H29.37C30.16 19.21 30.8 19.85 30.8 20.64C30.8 21.43 30.16 22.07 29.37 22.07H26.52C25.72 22.06 25.09 21.42 25.09 20.64ZM40.76 63.39C38.4 63.39 36.48 65.3 36.48 67.67C36.48 70.03 38.39 71.95 40.76 71.95C43.12 71.95 45.04 70.04 45.04 67.67C45.04 65.31 43.12 63.39 40.76 63.39ZM40.76 69.09C39.97 69.09 39.33 68.45 39.33 67.66C39.33 66.87 39.97 66.23 40.76 66.23C41.55 66.23 42.19 66.87 42.19 67.66C42.19 68.45 41.55 69.09 40.76 69.09ZM53.59 63.39C51.23 63.39 49.31 65.3 49.31 67.67C49.31 70.03 51.22 71.95 53.59 71.95C55.95 71.95 57.87 70.04 57.87 67.67C57.87 65.31 55.95 63.39 53.59 63.39ZM53.59 69.09C52.8 69.09 52.16 68.45 52.16 67.66C52.16 66.87 52.8 66.23 53.59 66.23C54.38 66.23 55.02 66.87 55.02 67.66C55.02 68.45 54.38 69.09 53.59 69.09ZM60.72 43.44L34.74 42.01L33.64 36.05C33.55 35.57 33.22 35.16 32.77 34.98L25.64 32.13C24.91 31.84 24.08 32.2 23.79 32.93C23.5 33.66 23.86 34.49 24.59 34.78L30.99 37.33L35.07 59.36C35.2 60.05 35.8 60.54 36.5 60.53H57.88C58.57 60.54 59.17 60.06 59.31 59.39L62.16 45.14C62.24 44.73 62.14 44.31 61.89 43.99C61.63 43.65 61.23 43.45 60.81 43.43H60.72V43.44ZM56.7 57.69H37.67L35.28 44.95L59 46.2L56.7 57.69Z" fill="#1B54F8"></path></g></svg> 