<?xml version="1.0" encoding="UTF-8"?> <svg xmlns="http://www.w3.org/2000/svg" width="91" height="91" viewBox="0 0 91 91" fill="none"><mask id="mask0_2_447" style="mask-type:luminance" maskUnits="userSpaceOnUse" x="0" y="0" width="91" height="91"><path d="M90.91 0.359985H0.910004V90.36H90.91V0.359985Z" fill="white"></path></mask><g mask="url(#mask0_2_447)"><path d="M18.87 49.48H45.71V51.36H18.87V49.48ZM12.46 42.45H40.94V44.33H12.46V42.45ZM12.46 36.78H40.94V38.66H12.46V36.78ZM18.87 29.76H45.71V31.64H18.87V29.76ZM54.41 38.62H60.07C60.13 36.78 60.33 35.01 60.69 33.41C59.32 33.03 58.04 32.55 56.84 31.94C55.47 33.86 54.6 36.15 54.41 38.62ZM61.95 38.62H72.78C72.72 36.93 72.54 35.31 72.22 33.85C69.04 34.47 65.7 34.47 62.52 33.85C62.21 35.31 62.01 36.93 61.95 38.62ZM74.66 38.62H80.32C80.15 36.14 79.27 33.86 77.9 31.97C76.7 32.55 75.42 33.06 74.05 33.44C74.39 35.03 74.6 36.78 74.66 38.62ZM80.31 40.52H74.65C74.59 42.36 74.39 44.13 74.03 45.73C75.4 46.11 76.68 46.59 77.88 47.2C79.28 45.27 80.15 42.98 80.31 40.52ZM72.78 40.52H61.95C62.01 42.21 62.19 43.83 62.51 45.29C65.69 44.67 69.03 44.67 72.21 45.29C72.53 43.82 72.72 42.21 72.78 40.52ZM60.07 40.52H54.41C54.58 43 55.46 45.28 56.83 47.17C58.03 46.59 59.33 46.08 60.68 45.7C60.35 44.11 60.13 42.36 60.07 40.52ZM71.54 27.26C72.44 28.52 73.1 30.06 73.57 31.6C74.64 31.3 75.68 30.92 76.65 30.47C75.24 29.03 73.49 27.92 71.54 27.26ZM73.59 47.53C73.12 49.07 72.46 50.61 71.56 51.87C73.51 51.21 75.26 50.1 76.67 48.66C75.67 48.2 74.66 47.83 73.59 47.53ZM63.19 51.87C62.29 50.61 61.63 49.07 61.16 47.53C60.09 47.83 59.05 48.21 58.08 48.66C59.51 50.08 61.24 51.21 63.19 51.87ZM61.16 31.61C61.63 30.07 62.29 28.53 63.19 27.27C61.24 27.93 59.51 29.04 58.08 30.48C59.06 30.93 60.09 31.31 61.16 31.61ZM71.01 30.1C68.87 25.4 65.86 25.4 63.72 30.1C63.46 30.68 63.21 31.34 62.99 32.04C65.85 32.59 68.89 32.59 71.75 32.04C71.54 31.34 71.29 30.7 71.01 30.1ZM62.99 47.09C63.72 49.44 65.26 52.54 67.37 52.54C69.48 52.54 71.02 49.42 71.75 47.09C68.91 46.55 65.84 46.55 62.99 47.09ZM67.36 24.69C75.46 24.69 82.23 31.25 82.23 39.56C82.23 48.54 74.49 55.14 65.99 54.35C58.38 53.65 52.49 47.26 52.49 39.56C52.5 31.25 59.26 24.69 67.36 24.69ZM77.21 14.8C75.97 14.8 75.97 12.92 77.21 12.92H81.81C83.05 12.92 83.05 14.8 81.81 14.8H77.21ZM66.74 14.8C65.5 14.8 65.5 12.92 66.74 12.92H71.34C72.58 12.92 72.58 14.8 71.34 14.8H66.74ZM56.28 14.8C55.04 14.8 55.04 12.92 56.28 12.92H60.88C62.12 12.92 62.12 14.8 60.88 14.8H56.28ZM45.79 14.8C44.55 14.8 44.55 12.92 45.79 12.92H50.39C51.63 12.92 51.63 14.8 50.39 14.8H45.79ZM10.26 14.8C9.02 14.8 9.02 12.92 10.26 12.92H17.5C18.74 12.92 18.74 14.8 17.5 14.8H10.26ZM41.24 64.8H86.37C87.12 64.8 87.74 64.18 87.74 63.43V11.76C87.74 11.01 87.12 10.39 86.37 10.39H6.41C5.66 10.39 5.04 11.01 5.04 11.76V63.43C5.04 64.18 5.66 64.8 6.41 64.8H41.24ZM52.48 66.68V74.42H70.69C72.06 74.42 73.04 75.7 73.04 77.07V83.42C73.04 83.95 72.63 84.36 72.1 84.36H59.75C59.56 84.36 59.39 84.3 59.24 84.21L55.16 82.12H37.59L33.44 84.24C33.31 84.32 33.16 84.33 33.01 84.33H20.66C20.15 84.33 19.72 83.92 19.72 83.39V77.06C19.72 75.69 20.7 74.41 22.07 74.41H40.28V66.67H6.41C4.62 66.67 3.16 65.2 3.16 63.42V11.75C3.16 9.96 4.63 8.5 6.41 8.5H86.37C88.16 8.5 89.62 9.97 89.62 11.75V63.42C89.62 65.21 88.15 66.67 86.37 66.67L52.48 66.68ZM52.48 76.3V76.83C52.48 77.34 52.07 77.77 51.54 77.77H41.24C40.73 77.77 40.3 77.36 40.3 76.83V76.3H22.09C21.83 76.3 21.62 76.73 21.62 77.07V82.48H32.8L36.86 80.39C37.01 80.3 37.18 80.24 37.37 80.24H55.38C55.53 80.24 55.66 80.28 55.81 80.33L59.96 82.45H71.14V77.06C71.14 76.7 70.93 76.29 70.67 76.29H52.48V76.3ZM42.18 66.68V75.89H50.58V66.68H42.18Z" fill="#1B54F8" stroke="#1B54F8" stroke-width="0.75" stroke-miterlimit="10"></path></g></svg> 