<?xml version="1.0" encoding="UTF-8"?> <svg xmlns="http://www.w3.org/2000/svg" xmlns:xlink="http://www.w3.org/1999/xlink" width="60" height="60" viewBox="0 0 60 60"><defs><clipPath id="clip-path"><rect id="Rectangle_88" data-name="Rectangle 88" width="60" height="60" transform="translate(585 406)" fill="#fff" stroke="#707070" stroke-width="1"></rect></clipPath></defs><g id="Mask_Group_30" data-name="Mask Group 30" transform="translate(-585 -406)" clip-path="url(#clip-path)"><g id="Group_81" data-name="Group 81" transform="translate(-133.306 1.5)"><path id="Path_210" data-name="Path 210" d="M25.643,49.793a38.8,38.8,0,0,0,5.906-.443,19.011,19.011,0,0,0,10.235,8.061l.2.065a.8.8,0,0,0,.26.041.774.774,0,0,0,.26-.041,1.707,1.707,0,0,0,.207-.065c17.339-5.823,14.67-29.954,14.64-30.2a.886.886,0,0,0-.88-.78c-5.994,0-11.971-2.669-13.678-3.49h0V15.971c0-4.187-7.524-7.471-17.127-7.471S8.54,11.784,8.54,15.971V42.316C8.516,46.509,16.04,49.793,25.643,49.793Zm16.6-25.147A37.089,37.089,0,0,0,55.656,28.19c.283,4.022.785,22.654-13.412,27.509C28.07,50.844,28.555,32.212,28.832,28.19A37.036,37.036,0,0,0,42.244,24.646Zm-16.6-14.375c9.048,0,15.355,3.006,15.355,5.7,0,1.24-1.323,2.545-3.626,3.585a29.744,29.744,0,0,1-11.729,2.12,29.785,29.785,0,0,1-11.729-2.12c-2.3-1.039-3.626-2.362-3.626-3.585C10.288,13.278,16.6,10.272,25.643,10.272Zm-15.355,9.1a11.463,11.463,0,0,0,2.894,1.772,31.6,31.6,0,0,0,12.461,2.28A32.188,32.188,0,0,0,38.1,21.2,11.64,11.64,0,0,0,41,19.4v3.9a33.842,33.842,0,0,1-12.993,3.165.886.886,0,0,0-.886.756c0,.053-.142,1.276-.165,3.213H25.619a29.785,29.785,0,0,1-11.729-2.12c-2.3-1.039-3.626-2.362-3.626-3.585Zm0,8.782a11.463,11.463,0,0,0,2.894,1.772,31.6,31.6,0,0,0,12.461,2.28H27a43.826,43.826,0,0,0,.715,6.969c-.691.035-1.388.065-2.091.065a29.785,29.785,0,0,1-11.729-2.12c-2.3-1.039-3.626-2.362-3.626-3.585Zm0,8.782a11.463,11.463,0,0,0,2.894,1.772,31.6,31.6,0,0,0,12.461,2.28c.833,0,1.654-.035,2.469-.089A29.08,29.08,0,0,0,30.6,47.7a37.206,37.206,0,0,1-4.961.325c-9.048,0-15.355-3.006-15.355-5.7Z" transform="translate(715.766 401)" fill="#1c54f8" stroke="#fff" stroke-width="0.3"></path><path id="Path_211" data-name="Path 211" d="M57.785,65.679l.148.047a.8.8,0,0,0,.26.041.774.774,0,0,0,.26-.041l.142-.041c12.048-4.01,10.2-20.552,10.182-20.717a.88.88,0,0,0-.9-.78,23.842,23.842,0,0,1-9.2-2.327l-.094-.053a.933.933,0,0,0-.856,0h-.059a23.876,23.876,0,0,1-9.2,2.327.88.88,0,0,0-.88.78C47.6,45.133,45.749,61.675,57.785,65.679ZM49.316,45.936a25.838,25.838,0,0,0,8.859-2.362,25.9,25.9,0,0,0,8.859,2.362c.183,3.106.242,14.841-8.859,18.013C49.068,60.777,49.133,49.042,49.316,45.936Z" transform="translate(699.818 387.406)" fill="#1c54f8" stroke="#fff" stroke-width="0.3"></path></g></g></svg> 