<?xml version="1.0" encoding="UTF-8"?> <svg xmlns="http://www.w3.org/2000/svg" xmlns:xlink="http://www.w3.org/1999/xlink" width="60" height="60" viewBox="0 0 60 60"><defs><clipPath id="clip-path"><rect id="Rectangle_36" data-name="Rectangle 36" width="60" height="60" transform="translate(-3 596)" fill="#fff" stroke="#707070" stroke-width="1"></rect></clipPath></defs><g id="Mask_Group_31" data-name="Mask Group 31" transform="translate(3 -596)" clip-path="url(#clip-path)"><g id="Group_83" data-name="Group 83" transform="translate(-1864.095 53.919)"><g id="Group_82" data-name="Group 82" transform="translate(1869.095 546.081)"><path id="Path_212" data-name="Path 212" d="M242.3,1186.019a3.143,3.143,0,0,0-1.107.2.706.706,0,0,0-.1.047l-.01-.018-8.151,4.669a3.3,3.3,0,0,0-3.294-3.186h-8.2a4.436,4.436,0,0,1-2.57-1.214,8.033,8.033,0,0,0-5.108-1.992,6.721,6.721,0,0,0-3.972,1.22,5.768,5.768,0,0,1-2.794,1.035v-.755a2.239,2.239,0,0,0-2.237-2.236h-3.767a.706.706,0,0,0,0,1.412h3.769a.825.825,0,0,1,.822.824v14.452a.825.825,0,0,1-.824.824h-3.767a.706.706,0,0,0,0,1.412h3.8a2.239,2.239,0,0,0,2.2-2.236v-1.161l11.294,4.481h0a6.123,6.123,0,0,0,5.44-.363h0l20.494-11.741-.01-.018a.705.705,0,0,0,.1-.066,3.157,3.157,0,0,0-2.01-5.592Zm-21.655,16.839a4.684,4.684,0,0,1-1.821-.366l-.013,0h0L207,1197.8v-9.6a7.081,7.081,0,0,0,3.534-1.249,5.316,5.316,0,0,1,3.232-1.011,6.663,6.663,0,0,1,4.268,1.714,5.686,5.686,0,0,0,3.411,1.491h8.2a1.884,1.884,0,0,1,0,3.768h-9.517a.706.706,0,0,0,0,1.412h9.515a3.3,3.3,0,0,0,2.736-1.46l9.261-5.305.054-.018a1.745,1.745,0,0,1,1.723,2.981l-.038.034-20.315,11.638-.037.02A4.715,4.715,0,0,1,220.645,1202.857Z" transform="translate(-200.288 -1152.93)" fill="#1c54f8" stroke="#fff" stroke-width="0.3"></path><path id="Path_213" data-name="Path 213" d="M517.053,106.316a2.207,2.207,0,0,0,1.131-.311.7.7,0,0,0,.2-.12l1.6-1.376v13.319h0a3.209,3.209,0,0,0,3.205,3.205h14.256a3.209,3.209,0,0,0,3.2-3.205h.005V104.509l1.6,1.376a.7.7,0,0,0,.217.127,2.216,2.216,0,0,0,2.555-3.6l-.032-.025L532.973,92.065l-.034-.028a4.074,4.074,0,0,0-2.624-.982,4.019,4.019,0,0,0-2.484.868l-.031.026-12.185,10.46c-.016.014-.031.029-.046.044a2.216,2.216,0,0,0,1.485,3.862Zm22.187,11.429a.714.714,0,0,0-.005.084,1.8,1.8,0,0,1-1.793,1.793H523.191a1.8,1.8,0,0,1-1.793-1.793V103.3l8.586-7.371.008-.006a.533.533,0,0,1,.328-.118.538.538,0,0,1,.353.139h0l8.566,7.353ZM532.05,93.135l.021.017,12.037,10.332.018.014a.8.8,0,0,1-.986,1.267.721.721,0,0,0-.069-.041L531.6,94.874h0a1.956,1.956,0,0,0-1.273-.48,1.927,1.927,0,0,0-1.149.382.714.714,0,0,0-.074.056l-11.538,9.9c-.018.01-.036.021-.054.033a.8.8,0,0,1-.973-1.278c.015-.013.029-.026.042-.039l12.135-10.417a2.618,2.618,0,0,1,1.606-.563A2.666,2.666,0,0,1,532.05,93.135Z" transform="translate(-505.954 -91.056)" fill="#1c54f8" stroke="#fff" stroke-width="0.3"></path><path id="Path_214" data-name="Path 214" d="M879.061,592.862v6.591a1.9,1.9,0,0,0,1.9,1.9h6.591a1.9,1.9,0,0,0,1.9-1.9v-6.591a1.9,1.9,0,0,0-1.9-1.9h-6.591A1.9,1.9,0,0,0,879.061,592.862Zm1.9-.488h2.59v3.078h-3.078v-2.59A.489.489,0,0,1,880.961,592.374Zm-.488,7.08v-2.59h3.078v3.078h-2.59A.489.489,0,0,1,880.473,599.454Zm7.08.488h-2.59v-3.078h3.078v2.59A.489.489,0,0,1,887.553,599.942Zm.488-7.08v2.59h-3.078v-3.078h2.59A.489.489,0,0,1,888.041,592.862Z" transform="translate(-859.891 -576.844)" fill="#1c54f8" stroke="#fff" stroke-width="0.3"></path></g></g></g></svg> 