<?xml version="1.0" encoding="UTF-8"?> <svg xmlns="http://www.w3.org/2000/svg" xmlns:xlink="http://www.w3.org/1999/xlink" width="60" height="60" viewBox="0 0 60 60"><defs><clipPath id="clip-path"><rect id="Rectangle_809" data-name="Rectangle 809" width="60" height="60" transform="translate(136 65)" fill="#fff" stroke="#707070" stroke-width="1"></rect></clipPath></defs><g id="Mask_Group_47" data-name="Mask Group 47" transform="translate(-136 -65)" clip-path="url(#clip-path)"><g id="javascript-1" transform="translate(143.723 69.573)"><path id="Path_31" data-name="Path 31" d="M3.731,45.595,0,0,44.555.092l-3.945,45.5-18.164,5.26Z" fill="#e9ca32"></path><path id="Path_32" data-name="Path 32" d="M62.468,54.194V12.085l18.348.061L77.544,49.82Z" transform="translate(-40.022 -7.743)" fill="#ffde25"></path><g id="Group_22" data-name="Group 22" transform="translate(7.366 9.342)"><path id="Path_33" data-name="Path 33" d="M33.615,26H28.764V54.026l-3.773-.719V49.535L20.5,48.816V57.26l13.115,3.413Zm3.639,0H50.682l-.9,5.372h-7.4v8.815h7.4l-.9,17.792L37.254,60.674V55.1l7.859-2.695.454-7.366-8.313,1.2Z" transform="translate(-20.5 -26)" fill="#fff"></path></g></g></g></svg> 