<?xml version="1.0" encoding="UTF-8"?> <svg xmlns="http://www.w3.org/2000/svg" xmlns:xlink="http://www.w3.org/1999/xlink" width="60" height="60" viewBox="0 0 60 60"><defs><clipPath id="clip-path"><rect id="Rectangle_804" data-name="Rectangle 804" width="60" height="60" transform="translate(774 431)" fill="#fff" stroke="#707070" stroke-width="1"></rect></clipPath></defs><g id="Mask_Group_44" data-name="Mask Group 44" transform="translate(-774 -431)" clip-path="url(#clip-path)"><g id="Group_19" data-name="Group 19" transform="translate(-431.696 -159.759)"><g id="Group_18" data-name="Group 18"><path id="Path_19" data-name="Path 19" d="M584.476,320.34l-.032-9.04H579.4l.032,9.04,2.522,3.463Zm-5.044,15.493V344.9h5.044v-9.072l-2.522-3.463Z" transform="translate(653.758 281.94)" fill="#fff" fill-rule="evenodd"></path><path id="Path_20" data-name="Path 20" d="M419.455,365.922l5.313,7.33,4.065-2.958-5.313-7.33-4.065-1.312Zm-5.044-15.493-5.345-7.33L405,346.058l5.313,7.324,4.1,1.312Z" transform="translate(818.779 251.851)" fill="#00f2e6" fill-rule="evenodd"></path><path id="Path_21" data-name="Path 21" d="M325.153,485.291l-8.6-2.791L315,487.27l8.6,2.823,4.065-1.344Zm10.685,6.114,2.522,3.463,8.6,2.791,1.549-4.77-8.6-2.791Z" transform="translate(903.939 119.947)" fill="#00b9f1" fill-rule="evenodd"></path><path id="Path_22" data-name="Path 22" d="M339.9,490.193l8.6-2.823-1.549-4.77-8.6,2.791-2.522,3.463Zm-16.3,0-8.6,2.791,1.549,4.77,8.6-2.791,2.522-3.463Z" transform="translate(903.939 119.852)" fill="#d63aff" fill-rule="evenodd"></path><path id="Path_23" data-name="Path 23" d="M410.313,362.965,405,370.294l4.065,2.958,5.345-7.33v-4.27Zm13.207-9.577,5.313-7.33-4.065-2.958-5.313,7.324v4.27Z" transform="translate(818.779 251.85)" fill="#fb015b" fill-rule="evenodd"></path></g><path id="Path_24" data-name="Path 24" d="M1205.305,470.6v11.761a4.721,4.721,0,0,1-4.705,4.705v-2.355a2.341,2.341,0,0,0,2.355-2.355V470.6Zm42.956,2.355h5.308v-2.35h-12.938v2.35h5.275v14.116h2.355Zm-14.724-2.355v11.761a2.355,2.355,0,1,1-4.711,0v-7.055a4.705,4.705,0,1,0-9.411,0v7.061a2.355,2.355,0,0,1-4.711,0V470.6h-2.355v11.761a4.705,4.705,0,1,0,9.411,0v-7.055a2.355,2.355,0,0,1,4.711,0v7.061a4.705,4.705,0,1,0,9.411,0V470.6Z" transform="translate(8.611 161.207)" fill-rule="evenodd"></path></g></g></svg> 