<?xml version="1.0" encoding="UTF-8"?> <svg xmlns="http://www.w3.org/2000/svg" width="90" height="90" viewBox="0 0 90 90" fill="none"><g clip-path="url(#clip0_7_325)"><mask id="mask0_7_325" style="mask-type:luminance" maskUnits="userSpaceOnUse" x="0" y="0" width="90" height="90"><path d="M90 0H0V90H90V0Z" fill="white"></path></mask><g mask="url(#mask0_7_325)"><path d="M27.6609 49.8008C26.9026 49.8021 26.1618 50.0281 25.5319 50.4503C24.902 50.8725 24.4113 51.4719 24.1219 52.1728C23.8325 52.8736 23.7573 53.6446 23.9058 54.3882C24.0543 55.1318 24.4199 55.8147 24.9563 56.3506C25.4927 56.8866 26.176 57.2515 26.9197 57.3994C27.6634 57.5472 28.4343 57.4714 29.1349 57.1813C29.8355 56.8913 30.4345 56.4001 30.8561 55.7699C31.2778 55.1396 31.5031 54.3986 31.5038 53.6403C31.5029 52.6217 31.0976 51.6451 30.3771 50.9251C29.6565 50.2052 28.6795 49.8008 27.6609 49.8008ZM27.6609 55.5651C27.2823 55.5638 26.9125 55.4502 26.5984 55.2387C26.2843 55.0273 26.04 54.7274 25.8962 54.3771C25.7525 54.0268 25.7159 53.6417 25.7911 53.2706C25.8662 52.8994 26.0497 52.5589 26.3183 52.2921C26.5869 52.0252 26.9287 51.844 27.3003 51.7713C27.6719 51.6987 28.0567 51.7378 28.4061 51.8838C28.7554 52.0299 29.0536 52.2762 29.263 52.5917C29.4724 52.9072 29.5835 53.2777 29.5824 53.6563C29.5818 53.9079 29.5316 54.1569 29.4347 54.3891C29.3378 54.6212 29.1961 54.832 29.0176 55.0093C28.8391 55.1866 28.6274 55.3269 28.3946 55.4223C28.1618 55.5177 27.9125 55.5662 27.6609 55.5651Z" fill="#1B54F8" stroke="#1C54F8" stroke-width="0.2"></path><path d="M12.7993 29.6128C13.5393 29.6133 14.2628 29.3944 14.8782 28.9836C15.4937 28.5729 15.9736 27.9888 16.257 27.3053C16.5405 26.6218 16.6149 25.8696 16.4708 25.1438C16.3267 24.418 15.9705 23.7512 15.4474 23.2279C14.9243 22.7045 14.2577 22.3481 13.532 22.2037C12.8063 22.0592 12.054 22.1333 11.3704 22.4164C10.6868 22.6996 10.1025 23.1792 9.69144 23.7945C9.28042 24.4098 9.06111 25.1332 9.06128 25.8731C9.06262 26.8642 9.45683 27.8144 10.1575 28.5154C10.8582 29.2164 11.8082 29.611 12.7993 29.6128ZM12.7993 24.0667C13.1577 24.068 13.5077 24.1756 13.805 24.3758C14.1022 24.576 14.3335 24.8599 14.4694 25.1915C14.6054 25.5232 14.64 25.8876 14.5688 26.2389C14.4976 26.5902 14.3239 26.9125 14.0696 27.165C13.8153 27.4176 13.4918 27.589 13.14 27.6578C12.7882 27.7265 12.424 27.6893 12.0933 27.5511C11.7627 27.4128 11.4804 27.1796 11.2823 26.8809C11.0842 26.5822 10.979 26.2315 10.9802 25.8731C10.9802 25.6348 11.0273 25.3989 11.1189 25.1789C11.2105 24.9589 11.3447 24.7592 11.5138 24.5913C11.6829 24.4234 11.8835 24.2906 12.1041 24.2005C12.3248 24.1105 12.561 24.065 12.7993 24.0667Z" fill="#1B54F8" stroke="#1C54F8" stroke-width="0.2"></path><path d="M42.2892 15.7787C42.9681 15.7786 43.6317 15.5771 44.1961 15.1997C44.7606 14.8224 45.2004 14.2862 45.4601 13.6589C45.7197 13.0316 45.7875 12.3413 45.6549 11.6755C45.5223 11.0096 45.1952 10.3981 44.715 9.9181C44.2348 9.43814 43.6231 9.11135 42.9572 8.97906C42.2913 8.84678 41.6011 8.91493 40.9739 9.1749C40.3467 9.43487 39.8107 9.87498 39.4336 10.4396C39.0566 11.0042 38.8554 11.6679 38.8556 12.3468C38.8557 12.7976 38.9446 13.244 39.1172 13.6604C39.2898 14.0769 39.5428 14.4552 39.8616 14.7739C40.1804 15.0926 40.5589 15.3453 40.9755 15.5178C41.392 15.6902 41.8384 15.7788 42.2892 15.7787ZM42.2892 10.8347C42.588 10.8349 42.8801 10.9236 43.1285 11.0898C43.3769 11.2559 43.5704 11.4919 43.6847 11.7681C43.799 12.0442 43.8289 12.348 43.7705 12.641C43.7122 12.9341 43.5683 13.2033 43.357 13.4146C43.1457 13.6259 42.8764 13.7699 42.5834 13.8282C42.2903 13.8865 41.9865 13.8567 41.7104 13.7424C41.4343 13.6281 41.1982 13.4346 41.0321 13.1862C40.866 12.9378 40.7772 12.6457 40.777 12.3468C40.7777 11.946 40.9372 11.5618 41.2207 11.2784C41.5041 10.9949 41.8883 10.8354 42.2892 10.8347Z" fill="#1B54F8" stroke="#1C54F8" stroke-width="0.2"></path><path d="M67.0869 22.9909C67.0889 23.1912 67.1501 23.3864 67.2629 23.552C67.3756 23.7175 67.5348 23.846 67.7204 23.9213C67.906 23.9965 68.1097 24.0152 68.3059 23.9749C68.5021 23.9346 68.682 23.8371 68.8229 23.6948C68.9638 23.5525 69.0595 23.3717 69.0978 23.1751C69.1361 22.9785 69.1155 22.775 69.0384 22.5901C68.9613 22.4053 68.8312 22.2474 68.6645 22.1363C68.4979 22.0252 68.302 21.966 68.1018 21.9659C67.8338 21.9751 67.5795 22.0864 67.3908 22.2769C67.2022 22.4675 67.0934 22.7229 67.0869 22.9909Z" fill="#1B54F8" stroke="#1C54F8" stroke-width="0.2"></path><path d="M75.2211 64.4036H69.0685C69.6172 63.633 69.9128 62.7109 69.9143 61.765V43.4469C69.9127 42.2896 69.4687 41.1767 68.6733 40.336C67.8779 39.4953 66.7913 38.9905 65.6358 38.9249L68.1078 33.9674L71.2505 40.2857C71.3307 40.4452 71.4532 40.5798 71.6045 40.6746C71.7558 40.7694 71.9303 40.8209 72.1089 40.8235C72.2564 40.8278 72.4024 40.7925 72.5317 40.7212C73.7145 40.1362 74.6446 39.1414 75.149 37.9221C75.6534 36.7027 75.6978 35.3416 75.2739 34.0919C74.85 32.8423 73.9867 31.7891 72.8445 31.1282C71.7023 30.4674 70.359 30.2438 69.0643 30.4991V27.743C70.2441 27.5033 71.2929 26.8342 72.0074 25.8653C72.7219 24.8964 73.0513 23.6967 72.9316 22.4988C72.812 21.3009 72.2519 20.1901 71.3599 19.3816C70.4678 18.5732 69.3075 18.1246 68.1036 18.123C67.762 18.1216 67.4214 18.1602 67.0887 18.2381L49.1944 9.90021C48.669 8.41572 47.6793 7.14006 46.3719 6.26238C45.0644 5.38469 43.509 4.95172 41.9361 5.02766C40.3632 5.1036 38.8567 5.6844 37.6399 6.68396C36.4231 7.68351 35.5609 9.04859 35.181 10.5768L13.634 17.8034C13.3651 17.778 13.0835 17.7653 12.8018 17.7653C11.0034 17.7669 9.25647 18.3655 7.83508 19.4673C6.41368 20.569 5.39833 22.1116 4.94837 23.8528C4.49841 25.594 4.63931 27.4353 5.34896 29.0878C6.0586 30.7402 7.29682 32.1103 8.8693 32.983L19.2064 51.9269C19.073 52.5284 19.0044 53.1425 19.0017 53.7587V64.4036H15.4506C12.5902 64.4036 9.84687 65.5399 7.82423 67.5625C5.80159 69.5852 4.66528 72.3285 4.66528 75.1889C4.66528 78.0494 5.80159 80.7927 7.82423 82.8153C9.84687 84.8379 12.5902 85.9743 15.4506 85.9743H75.2084C76.6247 85.9751 78.0274 85.6969 79.3362 85.1557C80.6451 84.6144 81.8345 83.8207 82.8366 82.8198C83.8387 81.8189 84.6339 80.6304 85.1767 79.3222C85.7194 78.0139 85.9992 76.6116 86.0001 75.1953C86.0009 73.7789 85.7227 72.3763 85.1815 71.0674C84.6403 69.7586 83.8465 68.5691 82.8456 67.567C81.8447 66.5649 80.6562 65.7698 79.348 65.227C78.0397 64.6842 76.6374 64.4044 75.2211 64.4036ZM67.997 43.4469V61.7777C67.9959 62.4771 67.7176 63.1476 67.223 63.6422C66.7284 64.1368 66.0579 64.4152 65.3584 64.4163H47.0404C46.3429 64.4136 45.6751 64.1342 45.1835 63.6395C44.692 63.1447 44.4169 62.4751 44.4187 61.7777V43.4469C44.4191 42.7502 44.6949 42.0819 45.186 41.5876C45.6771 41.0933 46.3436 40.8132 47.0404 40.8083H51.0626V49.224C51.0633 49.4294 51.1048 49.6326 51.1846 49.8219C51.2644 50.0112 51.3809 50.1828 51.5274 50.3268C51.6739 50.4708 51.8475 50.5843 52.0381 50.6608C52.2288 50.7373 52.4327 50.7753 52.6381 50.7725C52.8522 50.7717 53.0639 50.7269 53.26 50.641C53.4561 50.555 53.6325 50.4296 53.7781 50.2727L56.2121 47.634L58.6333 50.2727C58.8463 50.5033 59.1237 50.6646 59.4295 50.7357C59.7353 50.8067 60.0555 50.7841 60.3483 50.6708C60.6411 50.5575 60.8931 50.3589 61.0715 50.1005C61.25 49.8422 61.3466 49.5362 61.3489 49.2223V40.8083H65.3711C66.0679 40.8143 66.7342 41.0947 67.2257 41.5885C67.7173 42.0824 67.9944 42.7501 67.997 43.4469ZM30.9398 45.7532L20.3684 29.7541L38.9841 18.8791C39.9837 19.3901 41.0884 19.662 42.211 19.6731C43.3336 19.6843 44.4434 19.4345 45.453 18.9434L64.0129 25.6042C64.3641 26.1539 64.822 26.6276 65.3595 26.9973C65.8969 27.3669 66.5031 27.6251 67.142 27.7565V30.5101C66.2065 30.3224 65.2381 30.3843 64.3341 30.6897C63.4301 30.995 62.6225 31.5331 61.9924 32.2496C61.3624 32.9661 60.9321 33.836 60.7449 34.7716C60.5577 35.7072 60.6202 36.6756 60.9261 37.5794C61.0945 38.053 61.3272 38.5012 61.6178 38.9114H47.0404C45.8331 38.9145 44.6763 39.3964 43.8239 40.2512C42.9714 41.1061 42.4928 42.2642 42.493 43.4715V61.803C42.4965 62.7487 42.7918 63.6702 43.3387 64.4417H36.3193V53.7976C36.3191 52.0749 35.8079 50.391 34.8503 48.959C33.8927 47.527 32.5317 46.4114 30.9398 45.7532ZM53.0001 40.8219H59.4275V48.3022L57.3648 46.0602C57.2191 45.9032 57.0428 45.7779 56.8467 45.6919C56.6506 45.6059 56.4389 45.5611 56.2248 45.5604C56.0103 45.5586 55.7978 45.6023 55.6013 45.6884C55.4049 45.7746 55.2288 45.9012 55.0848 46.0602L53.0221 48.3022V40.8219H53.0001ZM63.7338 38.4539C63.2812 38.0503 62.9451 37.5328 62.7604 36.9553C62.6127 36.5137 62.5537 36.0474 62.5866 35.583C62.6196 35.1186 62.7439 34.6653 62.9524 34.249C63.1565 33.8318 63.4417 33.4595 63.7913 33.1538C64.141 32.8481 64.5481 32.6153 64.9888 32.4688C65.3518 32.346 65.733 32.2854 66.1162 32.2895C66.3353 32.2919 66.5537 32.3134 66.7691 32.3538L63.7338 38.4539ZM73.2768 34.2651C73.4853 34.6813 73.6096 35.1347 73.6425 35.5991C73.6755 36.0635 73.6164 36.5298 73.4688 36.9713C73.276 37.545 72.9412 38.0606 72.4954 38.4699L69.4593 32.3724C70.2144 32.2281 70.996 32.3348 71.6848 32.6762C72.3737 33.0176 72.9319 33.575 73.2743 34.2634L73.2768 34.2651ZM71.045 22.9909C71.0445 23.657 70.8171 24.303 70.4003 24.8224C69.9834 25.3419 69.402 25.7038 68.7519 25.8485C68.1018 25.9932 67.4217 25.9121 66.8239 25.6185C66.2261 25.3248 65.7462 24.8363 65.4633 24.2333C65.4117 24.1183 65.3736 24.0024 65.3356 23.8874C65.3042 23.8047 65.2785 23.7199 65.2586 23.6337C65.2247 23.4778 65.2032 23.3194 65.1944 23.1601C65.1944 23.1085 65.1817 23.0577 65.1817 22.9909C65.1856 22.8022 65.2028 22.614 65.2333 22.4277C65.2459 22.3896 65.2459 22.3507 65.2586 22.3254C65.2876 22.1889 65.3304 22.0557 65.3863 21.9279C65.4117 21.8763 65.4379 21.8129 65.4633 21.7587C65.512 21.6564 65.5685 21.558 65.6324 21.4644C65.6705 21.4128 65.6967 21.3494 65.7348 21.2953C65.799 21.2056 65.876 21.116 65.9521 21.0264C65.9936 20.9819 66.032 20.9347 66.0671 20.8851C66.1817 20.772 66.306 20.669 66.4384 20.5773C66.5062 20.5273 66.5791 20.4845 66.6557 20.4496C66.7327 20.4115 66.8097 20.3599 66.8866 20.3219C66.9775 20.2801 67.0717 20.2459 67.1682 20.2195C67.4726 20.1105 67.793 20.0533 68.1163 20.0504C68.502 20.0498 68.8841 20.1256 69.2404 20.2733C69.5968 20.421 69.9204 20.6378 70.1926 20.9111C70.4648 21.1845 70.6803 21.5089 70.8266 21.8659C70.9729 22.2228 71.0471 22.6052 71.045 22.9909ZM49.6172 12.2183L64.9119 19.34C64.8853 19.373 64.8552 19.4031 64.8222 19.4297C64.6628 19.5825 64.5131 19.7452 64.374 19.9168L64.1634 20.1578C64.0331 20.3459 63.9174 20.5439 63.8175 20.7498L63.6636 21.0187C63.5763 21.2212 63.5078 21.4313 63.459 21.6463C63.419 21.7555 63.3849 21.8667 63.3566 21.9795C63.3226 22.1656 63.3011 22.3537 63.2924 22.5427C63.2797 22.6839 63.2408 22.8243 63.2408 22.9782C63.2386 23.0765 63.2429 23.1748 63.2535 23.2726L47.3998 17.5852C47.4155 17.5704 47.4284 17.5529 47.4379 17.5336C47.5021 17.4693 47.5656 17.3923 47.6298 17.3289C47.7322 17.2266 47.8345 17.1116 47.9241 17.0084C47.9847 16.9346 48.0412 16.8575 48.0933 16.7775C48.1829 16.6625 48.2726 16.5602 48.347 16.4443C48.4214 16.3284 48.4882 16.2007 48.5643 16.0857C48.6159 16.0088 48.6667 15.9166 48.7183 15.8422C49.3105 14.7674 49.619 13.5595 49.6147 12.3325V12.3071C49.6172 12.2826 49.6172 12.2437 49.6172 12.2183ZM42.29 6.94107C43.5075 6.94503 44.6882 7.35936 45.6411 8.11713C46.5941 8.87491 47.2637 9.93185 47.5419 11.1172C47.5672 11.2068 47.5799 11.3092 47.6061 11.3988C47.6612 11.6937 47.6907 11.9928 47.6941 12.2927V12.3697C47.6904 12.6843 47.6604 12.998 47.6045 13.3076C47.5918 13.3972 47.5664 13.4767 47.5529 13.5613C47.4904 13.8552 47.4004 14.1426 47.2839 14.4197C47.2712 14.445 47.2712 14.4577 47.2586 14.4839C47.1353 14.7536 46.994 15.0147 46.8357 15.2654C46.7976 15.3297 46.7461 15.3931 46.6945 15.47C46.5325 15.7014 46.3526 15.9197 46.1566 16.1229C46.1439 16.1356 46.1312 16.161 46.105 16.1745C45.8895 16.3841 45.6582 16.577 45.4132 16.7513C45.3363 16.8029 45.2441 16.8663 45.1697 16.9204C44.3131 17.4696 43.3176 17.763 42.3002 17.7661C41.2594 17.7622 40.2415 17.4599 39.3672 16.8951C39.303 16.857 39.2395 16.8054 39.1626 16.7538C38.9531 16.5981 38.7521 16.4312 38.5604 16.254C38.5224 16.216 38.4835 16.1897 38.4454 16.1517C38.2326 15.9345 38.0396 15.6987 37.8687 15.4472C37.8306 15.3829 37.7917 15.3195 37.7536 15.2679C37.6012 15.0361 37.4682 14.7919 37.3562 14.5381C37.3435 14.5 37.3181 14.4738 37.3046 14.4357C37.1781 14.1391 37.0837 13.8298 37.0229 13.5131C37.0103 13.4615 37.0103 13.4234 36.9976 13.3718C36.931 13.0376 36.8967 12.6978 36.8952 12.357C36.8919 11.6467 37.0289 10.9428 37.2985 10.2857C37.5681 9.62863 37.9648 9.03127 38.466 8.52799C38.9672 8.0247 39.5628 7.62542 40.2188 7.35309C40.8748 7.08075 41.5781 6.94073 42.2883 6.94107H42.29ZM16.7496 18.781L34.9645 12.6834C34.9645 12.735 34.9899 12.7858 34.9899 12.8526C35.0132 13.2338 35.0687 13.6123 35.1556 13.9841C35.1683 14.0611 35.1937 14.1254 35.2072 14.2015C35.3112 14.5966 35.4484 14.9822 35.6174 15.3542C35.6362 15.398 35.6577 15.4407 35.6817 15.4819C35.8596 15.8644 36.074 16.2289 36.3219 16.5703C36.3472 16.6084 36.3734 16.6346 36.3988 16.6726C36.645 17.015 36.924 17.3325 37.2318 17.6207C37.2445 17.6334 37.2572 17.6587 37.2699 17.6723L20.8073 27.2821C20.8181 27.2264 20.8224 27.1696 20.82 27.1129C20.8764 26.757 20.9063 26.3975 20.9097 26.0372C20.9097 25.9856 20.9223 25.9348 20.9223 25.8833C20.9223 25.7556 20.897 25.6397 20.897 25.512C20.8843 25.3327 20.8843 25.1534 20.8589 24.9741C20.8335 24.7948 20.8073 24.6155 20.782 24.4489L20.705 24.065C20.6657 23.8697 20.6143 23.6771 20.5511 23.4882C20.537 23.4656 20.528 23.4402 20.5249 23.4138C20.2914 22.6866 19.9551 21.9965 19.5261 21.3646L19.5134 21.3519C19.0964 20.7239 18.5869 20.1625 18.0021 19.6867C17.9767 19.6614 17.9378 19.6352 17.9125 19.6098C17.7433 19.4686 17.5666 19.3409 17.4 19.2258L17.0921 19.0339C16.9916 18.9302 16.8751 18.8434 16.7471 18.7768L16.7496 18.781ZM6.58927 25.8858C6.59061 24.2419 7.24425 22.6657 8.40666 21.5033C9.56907 20.3409 11.1453 19.6872 12.7892 19.6859C13.1505 19.6912 13.5106 19.7297 13.8649 19.8009C14.0823 19.839 14.2751 19.9033 14.4797 19.9548C14.659 20.0064 14.851 20.0572 15.0303 20.124C15.1715 20.1756 15.3119 20.2517 15.4531 20.316C15.684 20.431 15.9014 20.5468 16.1196 20.6745C16.2091 20.727 16.2939 20.787 16.3733 20.8538C16.6182 21.0282 16.8495 21.221 17.0651 21.4306L17.219 21.5845C17.4486 21.8188 17.6585 22.0717 17.8465 22.3406C17.8763 22.3906 17.9106 22.4379 17.9488 22.4818C18.1429 22.769 18.3102 23.0733 18.4486 23.391C18.4649 23.4359 18.4865 23.4788 18.5129 23.5187C18.6566 23.8663 18.7681 24.2264 18.8461 24.5944C18.8461 24.6198 18.8588 24.6325 18.8588 24.6587C18.9413 25.0677 18.984 25.4838 18.9865 25.901C18.9806 26.292 18.9421 26.6818 18.8715 27.0664C18.8588 27.118 18.8461 27.1687 18.8334 27.2355C18.7597 27.5908 18.6524 27.9383 18.5129 28.2732C18.4749 28.3629 18.4233 28.4525 18.3717 28.5549C18.2694 28.7595 18.167 28.965 18.0512 29.157C17.9742 29.2847 17.882 29.4107 17.7974 29.5409C17.6214 29.7968 17.4233 30.0368 17.2055 30.2581C17.1704 30.2957 17.1319 30.33 17.0904 30.3604C16.8588 30.5749 16.6151 30.7759 16.3606 30.9626C16.2709 31.0269 16.1813 31.0903 16.0917 31.1419C15.8743 31.2569 15.6181 31.3956 15.3618 31.5131C15.2712 31.5591 15.1771 31.5976 15.0802 31.6282C14.8011 31.7388 14.5142 31.8287 14.2218 31.8971L13.8378 31.9741C13.5498 32.0236 13.2588 32.0535 12.9668 32.0637C12.9025 32.0637 12.8517 32.0764 12.7875 32.0764C12.7494 32.0764 12.7105 32.0637 12.6598 32.0637C12.348 32.0522 12.0373 32.0211 11.7295 31.9707C11.6259 31.9597 11.5231 31.9425 11.4217 31.9191C11.1318 31.8566 10.8486 31.7666 10.5759 31.6501C10.4046 31.5838 10.2377 31.5067 10.0761 31.4193C9.03503 30.916 8.1562 30.1305 7.53973 29.1522C6.92326 28.1739 6.59394 27.0421 6.58927 25.8858ZM20.0902 49.5572L11.5603 33.9048H11.6246C12.0149 33.9611 12.4084 33.991 12.8027 33.9944C13.6877 33.9947 14.5666 33.8475 15.4032 33.5589C15.4286 33.5462 15.4413 33.5462 15.4675 33.5335C15.7111 33.4439 15.9546 33.3542 16.1847 33.2519C16.2292 33.2252 16.2766 33.2037 16.3259 33.1876C16.5306 33.0853 16.7234 32.983 16.9179 32.8798C16.9822 32.8417 17.0456 32.8028 17.1226 32.7648C17.2917 32.6625 17.4558 32.5474 17.6097 32.4316C17.6852 32.3793 17.7578 32.3228 17.827 32.2624C17.981 32.1474 18.1214 32.0189 18.2626 31.8912C18.3269 31.8269 18.3903 31.7762 18.4546 31.7119C18.6237 31.5427 18.7878 31.3787 18.9417 31.1994L19.006 31.1351L28.2411 45.1231C28.0491 45.1104 27.8698 45.1104 27.6779 45.1104C27.6263 45.1104 27.5755 45.1231 27.5239 45.1231C27.2325 45.125 26.9415 45.1464 26.6529 45.1874C26.5252 45.2001 26.3839 45.2255 26.2554 45.2517C26.038 45.2897 25.8198 45.3286 25.6152 45.3794C25.4875 45.4048 25.3615 45.4437 25.2312 45.4817C24.9619 45.5621 24.6969 45.6561 24.4371 45.7633L24.0143 45.9553C23.8223 46.045 23.6303 46.1346 23.451 46.2369C23.3098 46.3139 23.1821 46.4061 23.0408 46.4805C22.8996 46.5701 22.7592 46.6725 22.618 46.7748C22.4903 46.8644 22.3491 46.9668 22.2205 47.0691C21.9909 47.2528 21.7728 47.4505 21.5676 47.6611C21.4653 47.7634 21.363 47.8785 21.2598 47.9943C21.1321 48.1355 21.0061 48.2759 20.8885 48.4299C20.7989 48.5449 20.7092 48.6607 20.6348 48.7757C20.4936 48.9804 20.3532 49.1986 20.2246 49.4159C20.1732 49.4562 20.1279 49.5038 20.0902 49.5572ZM20.9232 53.7587C20.9301 53.0112 21.0646 52.2705 21.3207 51.5683C21.3849 51.389 21.4357 51.2097 21.5 51.0431C21.8313 50.3023 22.2908 49.6258 22.8573 49.0447C22.914 48.9851 22.9739 48.9287 23.0366 48.8755C23.2711 48.65 23.524 48.4443 23.7927 48.2607C23.8817 48.1936 23.9758 48.1336 24.0743 48.0814C24.3278 47.9204 24.5933 47.779 24.8684 47.6586C24.9834 47.607 25.0858 47.5562 25.2016 47.5173C25.4941 47.4042 25.7935 47.3102 26.0981 47.2357C26.2004 47.2103 26.2901 47.1841 26.3924 47.1588C26.8146 47.0769 27.2435 47.0342 27.6736 47.0311C28.1037 47.0348 28.5325 47.0776 28.9549 47.1588C29.1469 47.1968 29.3135 47.2611 29.5054 47.3127C30.9167 47.7061 32.1608 48.5496 33.0487 49.715C33.9365 50.8803 34.4195 52.3038 34.4241 53.7688V64.4163H20.9223L20.9232 53.7587ZM75.2177 84.0528H15.4506C14.2866 84.0528 13.134 83.8235 12.0585 83.3781C10.9831 82.9326 10.006 82.2797 9.1829 81.4566C8.35982 80.6335 7.70691 79.6564 7.26146 78.581C6.816 77.5056 6.58673 76.353 6.58673 75.1889C6.58673 74.0249 6.816 72.8723 7.26146 71.7969C7.70691 70.7215 8.35982 69.7443 9.1829 68.9212C10.006 68.0981 10.9831 67.4452 12.0585 66.9998C13.134 66.5543 14.2866 66.3251 15.4506 66.3251H75.2211C77.5719 66.3251 79.8265 67.2589 81.4888 68.9212C83.1511 70.5835 84.0849 72.8381 84.0849 75.1889C84.0849 77.5398 83.1511 79.7943 81.4888 81.4566C79.8265 83.1189 77.5719 84.0528 75.2211 84.0528H75.2177Z" fill="#1B54F8" stroke="#1C54F8" stroke-width="0.2"></path><path d="M16.0425 70.4623C15.1076 70.4623 14.1938 70.7395 13.4165 71.2588C12.6392 71.7782 12.0333 72.5164 11.6756 73.3801C11.3178 74.2438 11.2242 75.1942 11.4066 76.1111C11.589 77.0279 12.0392 77.8702 12.7002 78.5312C13.3612 79.1922 14.2035 79.6424 15.1203 79.8248C16.0372 80.0072 16.9876 79.9135 17.8513 79.5558C18.715 79.198 19.4532 78.5922 19.9725 77.8149C20.4919 77.0376 20.7691 76.1238 20.7691 75.1889C20.7678 73.9358 20.2694 72.7343 19.3832 71.8482C18.4971 70.962 17.2956 70.4636 16.0425 70.4623ZM16.0425 77.9941C15.4876 77.9941 14.9453 77.8296 14.484 77.5214C14.0227 77.2131 13.6631 76.775 13.4508 76.2624C13.2385 75.7499 13.1829 75.1858 13.2911 74.6417C13.3994 74.0975 13.6666 73.5977 14.0589 73.2053C14.4512 72.813 14.951 72.5459 15.4952 72.4376C16.0394 72.3294 16.6034 72.3849 17.116 72.5972C17.6286 72.8096 18.0667 73.1691 18.3749 73.6304C18.6832 74.0917 18.8477 74.6341 18.8477 75.1889C18.8482 75.5576 18.7761 75.9228 18.6353 76.2636C18.4946 76.6044 18.2881 76.9141 18.0275 77.175C17.7669 77.4358 17.4575 77.6428 17.1169 77.7839C16.7763 77.925 16.4112 77.9976 16.0425 77.9975V77.9941Z" fill="#1B54F8" stroke="#1C54F8" stroke-width="0.2"></path><path d="M30.6835 70.4623C29.7486 70.4623 28.8348 70.7395 28.0575 71.2588C27.2802 71.7782 26.6743 72.5164 26.3166 73.3801C25.9588 74.2438 25.8652 75.1942 26.0476 76.1111C26.23 77.0279 26.6802 77.8702 27.3412 78.5312C28.0022 79.1922 28.8444 79.6424 29.7613 79.8248C30.6782 80.0072 31.6286 79.9135 32.4923 79.5558C33.356 79.198 34.0942 78.5922 34.6135 77.8149C35.1329 77.0376 35.4101 76.1238 35.4101 75.1889C35.4088 73.9358 34.9104 72.7343 34.0242 71.8482C33.1381 70.962 31.9366 70.4636 30.6835 70.4623ZM30.6835 77.9941C30.1286 77.9941 29.5863 77.8296 29.125 77.5214C28.6636 77.2131 28.3041 76.775 28.0918 76.2624C27.8795 75.7499 27.8239 75.1858 27.9321 74.6417C28.0404 74.0975 28.3076 73.5977 28.6999 73.2053C29.0922 72.813 29.592 72.5459 30.1362 72.4376C30.6803 72.3294 31.2444 72.3849 31.757 72.5972C32.2696 72.8096 32.7077 73.1691 33.0159 73.6304C33.3241 74.0917 33.4887 74.6341 33.4887 75.1889C33.4892 75.5576 33.4171 75.9228 33.2763 76.2636C33.1356 76.6044 32.929 76.9141 32.6685 77.175C32.4079 77.4358 32.0985 77.6428 31.7579 77.7839C31.4173 77.925 31.0522 77.9976 30.6835 77.9975V77.9941Z" fill="#1B54F8" stroke="#1C54F8" stroke-width="0.2"></path><path d="M45.3379 70.4623C44.403 70.4623 43.4892 70.7395 42.7119 71.2588C41.9346 71.7782 41.3288 72.5164 40.971 73.3801C40.6133 74.2438 40.5197 75.1942 40.702 76.1111C40.8844 77.0279 41.3346 77.8702 41.9956 78.5312C42.6567 79.1922 43.4989 79.6424 44.4157 79.8248C45.3326 80.0072 46.283 79.9135 47.1467 79.5558C48.0104 79.198 48.7486 78.5922 49.268 77.8149C49.7873 77.0376 50.0645 76.1238 50.0645 75.1889C50.0632 73.9358 49.5648 72.7343 48.6786 71.8482C47.7925 70.962 46.5911 70.4636 45.3379 70.4623ZM45.3379 77.9941C44.7831 77.9941 44.2407 77.8296 43.7794 77.5214C43.3181 77.2131 42.9585 76.775 42.7462 76.2624C42.5339 75.7499 42.4783 75.1858 42.5866 74.6417C42.6948 74.0975 42.962 73.5977 43.3543 73.2053C43.7466 72.813 44.2464 72.5459 44.7906 72.4376C45.3348 72.3294 45.8988 72.3849 46.4114 72.5972C46.924 72.8096 47.3621 73.1691 47.6703 73.6304C47.9786 74.0917 48.1431 74.6341 48.1431 75.1889C48.1436 75.5576 48.0715 75.9228 47.9308 76.2636C47.79 76.6044 47.5835 76.9141 47.3229 77.175C47.0624 77.4358 46.7529 77.6428 46.4123 77.7839C46.0717 77.925 45.7066 77.9976 45.3379 77.9975V77.9941Z" fill="#1B54F8" stroke="#1C54F8" stroke-width="0.2"></path><path d="M59.9907 70.4623C59.0559 70.4623 58.142 70.7395 57.3647 71.2588C56.5874 71.7782 55.9816 72.5164 55.6238 73.3801C55.2661 74.2438 55.1725 75.1942 55.3549 76.1111C55.5372 77.0279 55.9874 77.8702 56.6484 78.5312C57.3095 79.1922 58.1517 79.6424 59.0686 79.8248C59.9855 80.0072 60.9358 79.9135 61.7995 79.5558C62.6632 79.198 63.4014 78.5922 63.9208 77.8149C64.4402 77.0376 64.7174 76.1238 64.7174 75.1889C64.716 73.9358 64.2176 72.7343 63.3315 71.8482C62.4453 70.962 61.2439 70.4636 59.9907 70.4623ZM59.9907 77.9941C59.4359 77.9941 58.8935 77.8296 58.4322 77.5214C57.9709 77.2131 57.6113 76.775 57.399 76.2624C57.1867 75.7499 57.1312 75.1858 57.2394 74.6417C57.3476 74.0975 57.6148 73.5977 58.0071 73.2053C58.3994 72.813 58.8993 72.5459 59.4434 72.4376C59.9876 72.3294 60.5516 72.3849 61.0642 72.5972C61.5768 72.8096 62.0149 73.1691 62.3232 73.6304C62.6314 74.0917 62.7959 74.6341 62.7959 75.1889C62.7965 75.5576 62.7243 75.9228 62.5836 76.2636C62.4428 76.6044 62.2363 76.9141 61.9757 77.175C61.7152 77.4358 61.4057 77.6428 61.0651 77.7839C60.7245 77.925 60.3594 77.9976 59.9907 77.9975V77.9941Z" fill="#1B54F8" stroke="#1C54F8" stroke-width="0.2"></path><path d="M74.645 70.4623C73.7102 70.4623 72.7963 70.7395 72.019 71.2588C71.2417 71.7782 70.6359 72.5164 70.2781 73.3801C69.9204 74.2438 69.8268 75.1942 70.0092 76.1111C70.1915 77.0279 70.6417 77.8702 71.3027 78.5312C71.9638 79.1922 72.806 79.6424 73.7229 79.8248C74.6398 80.0072 75.5901 79.9135 76.4538 79.5558C77.3175 79.198 78.0557 78.5922 78.5751 77.8149C79.0945 77.0376 79.3717 76.1238 79.3717 75.1889C79.3703 73.9358 78.8719 72.7343 77.9858 71.8482C77.0996 70.962 75.8982 70.4636 74.645 70.4623ZM74.645 77.9941C74.0903 77.9935 73.5483 77.8284 73.0874 77.5197C72.6266 77.2111 72.2675 76.7727 72.0557 76.2601C71.8439 75.7475 71.7889 75.1835 71.8975 74.6396C72.0061 74.0957 72.2735 73.5961 72.666 73.2041C73.0584 72.8122 73.5583 72.5453 74.1024 72.4374C74.6464 72.3294 75.2103 72.3852 75.7227 72.5976C76.2351 72.81 76.673 73.1695 76.9811 73.6308C77.2892 74.092 77.4536 74.6343 77.4536 75.1889C77.4542 75.5579 77.3819 75.9234 77.2409 76.2644C77.1 76.6054 76.8931 76.9152 76.6322 77.1761C76.3713 77.4371 76.0615 77.6439 75.7205 77.7849C75.3795 77.9258 75.014 77.9981 74.645 77.9975V77.9941Z" fill="#1B54F8" stroke="#1C54F8" stroke-width="0.2"></path><path d="M54.1367 59.6127H48.2447C47.9899 59.6127 47.7455 59.7139 47.5653 59.8941C47.3852 60.0742 47.2839 60.3186 47.2839 60.5734C47.2839 60.8282 47.3852 61.0726 47.5653 61.2527C47.7455 61.4329 47.9899 61.5341 48.2447 61.5341H54.1367C54.3915 61.5341 54.6359 61.4329 54.816 61.2527C54.9962 61.0726 55.0974 60.8282 55.0974 60.5734C55.0974 60.3186 54.9962 60.0742 54.816 59.8941C54.6359 59.7139 54.3915 59.6127 54.1367 59.6127Z" fill="#1B54F8" stroke="#1C54F8" stroke-width="0.2"></path><path d="M54.1367 55.6547H48.2447C47.9899 55.6547 47.7455 55.756 47.5653 55.9361C47.3852 56.1163 47.2839 56.3607 47.2839 56.6155C47.2839 56.8703 47.3852 57.1146 47.5653 57.2948C47.7455 57.475 47.9899 57.5762 48.2447 57.5762H54.1367C54.3915 57.5762 54.6359 57.475 54.816 57.2948C54.9962 57.1146 55.0974 56.8703 55.0974 56.6155C55.0974 56.3607 54.9962 56.1163 54.816 55.9361C54.6359 55.756 54.3915 55.6547 54.1367 55.6547Z" fill="#1B54F8" stroke="#1C54F8" stroke-width="0.2"></path></g></g><defs><clipPath id="clip0_7_325"><rect width="90" height="90" fill="white"></rect></clipPath></defs></svg> 