<?xml version="1.0" encoding="UTF-8"?> <svg xmlns="http://www.w3.org/2000/svg" xmlns:xlink="http://www.w3.org/1999/xlink" width="60" height="60" viewBox="0 0 60 60"><defs><clipPath id="clip-path"><rect id="Rectangle_790" data-name="Rectangle 790" width="60" height="60" transform="translate(45 262)" fill="#fff" stroke="#707070" stroke-width="1"></rect></clipPath></defs><g id="Mask_Group_68" data-name="Mask Group 68" transform="translate(-45 -262)" clip-path="url(#clip-path)"><g id="nltk-logo" transform="translate(32.24 261.71)"><path id="Path_172" data-name="Path 172" d="M17.76,36.462V34.6l1.357-.29V25.442l-1.357-.293V23.29h4.585l5.282,8.428h.054V25.442l-1.729-.293V23.29h5.907v1.859l-1.366.289V36.462h-3.13l-5.38-8.253h-.054v6.1l1.736.29v1.858Z" fill="#404040"></path><path id="Path_173" data-name="Path 173" d="M180.14,36.462V34.6l1.366-.29V25.442l-1.366-.293V23.29h6.2v1.859l-1.665.293v8.582h3.129l.073-1.836H190.3v4.273Z" transform="translate(-147.802)" fill="#404040"></path><path id="Path_174" data-name="Path 174" d="M284.608,36.462V34.6l1.375-.29V25.75h-2.034l-.082,1.419h-2.4V23.29h12.235v3.879h-2.424l-.067-1.419h-2.057v8.563l1.375.29v1.858Z" transform="translate(-240.034)" fill="#404040"></path><path id="Path_175" data-name="Path 175" d="M423,36.462V34.6l1.366-.29V25.442L423,25.149V23.29h5.788v1.859l-1.248.289v8.871l1.248.29v1.862Zm3.716-2.873L425.1,31.735l6.566-6.464.009-.018-1.492-.1V23.29h6.149v1.859l-1.241.269Zm3.744,2.873V34.6l1.321-.1h.018l-3.166-4.332,2.216-1.963,4.612,6.168,1.347.226v1.858Z" transform="translate(-368.858)" fill="#404040"></path></g></g></svg> 