<?xml version="1.0" encoding="UTF-8"?> <svg xmlns="http://www.w3.org/2000/svg" xmlns:xlink="http://www.w3.org/1999/xlink" width="60" height="60" viewBox="0 0 60 60"><defs><clipPath id="clip-path"><rect id="Rectangle_823" data-name="Rectangle 823" width="60" height="60" transform="translate(669 600)" fill="#fff" stroke="#707070" stroke-width="1"></rect></clipPath></defs><g id="Mask_Group_64" data-name="Mask Group 64" transform="translate(-669 -600)" clip-path="url(#clip-path)"><g id="oauth" transform="translate(672.573 604)"><path id="Path_111" data-name="Path 111" d="M24.863.076c11.664-.809,19.4,4.9,23.819,11.853a27.914,27.914,0,0,1,4.4,14.224,26.738,26.738,0,0,1-4.4,14.788,26.318,26.318,0,0,1-10.047,9.144c-6.952,3.5-16.666,3.6-23.03.226C8.519,46.559,3.071,41.2,1.043,31.911a27.9,27.9,0,0,1,.226-12.644A28.906,28.906,0,0,1,2.4,16.332,25.719,25.719,0,0,1,11.2,5.043a30.591,30.591,0,0,1,5.08-2.935A28.53,28.53,0,0,1,24.863.076Z" transform="translate(0 0)" fill="#fff"></path><path id="Path_112" data-name="Path 112" d="M72.551,53.186a19.96,19.96,0,1,1-19.96-19.96,19.959,19.959,0,0,1,19.96,19.96Z" transform="translate(-25.564 -26.375)"></path><path id="Path_113" data-name="Path 113" d="M24.863.076c11.664-.809,19.4,4.9,23.819,11.853a27.914,27.914,0,0,1,4.4,14.224,26.738,26.738,0,0,1-4.4,14.788,26.318,26.318,0,0,1-10.047,9.144c-6.952,3.5-16.666,3.6-23.03.226C8.519,46.559,3.071,41.2,1.043,31.911a27.9,27.9,0,0,1,.226-12.644A28.906,28.906,0,0,1,2.4,16.332,25.719,25.719,0,0,1,11.2,5.043a30.591,30.591,0,0,1,5.08-2.935A28.53,28.53,0,0,1,24.863.076ZM20.912,2A27.222,27.222,0,0,0,10.639,7.3c-3.985,3.129-6.526,7.5-8.015,12.756A25.773,25.773,0,0,0,4.317,37.442,24.708,24.708,0,0,0,14.364,48.167,25.519,25.519,0,0,0,31.3,50.989a24.331,24.331,0,0,0,13.547-7.225,25.382,25.382,0,0,0,5.983-23.481,28.039,28.039,0,0,0-2.935-7.451A25.938,25.938,0,0,0,44.957,9.22a23.957,23.957,0,0,0-19.417-7.9A23.849,23.849,0,0,0,20.912,2Z" transform="translate(0 0)"></path><g id="Group_38" data-name="Group 38" transform="translate(1.952 2.02)"><path id="Path_114" data-name="Path 114" d="M34.2,60.7,57.263,37.64l-.124-.125L34.074,60.579l.124.125Zm-2.016-1.827L55.347,35.713l-.124-.125L32.058,58.752Zm-2.016-1.826L53.432,33.785l-.125-.125L30.042,56.926ZM28.15,55.224,51.516,31.858l-.124-.125L28.025,55.1ZM26.134,53.4,49.6,29.931l-.125-.125L26.009,53.273l.125.124Zm-2.016-1.826L47.685,28l-.124-.125L23.993,51.447l.125.124ZM22.1,49.745,45.769,26.077l-.125-.124L21.976,49.62l.125.125Zm-2.016-1.826L43.853,24.15l-.125-.125L19.96,47.794l.125.125Zm-2.016-1.827L41.937,22.222l-.125-.124L17.944,45.967Zm-2.016-1.826L40.022,20.3l-.124-.124-23.97,23.97Zm-2.016-1.826L38.106,18.368l-.125-.125L13.911,42.314Zm-2.016-1.826L36.191,16.441l-.124-.124L11.895,40.488l.125.125ZM10,38.786,34.275,14.514l-.124-.125L9.878,38.661l.125.124ZM7.986,36.959,32.359,12.586l-.124-.124L7.862,36.835Z" transform="translate(-7.854 -11.912)" fill="#fff"></path><g id="Group_37" data-name="Group 37"><path id="Path_115" data-name="Path 115" d="M7.823,35.075,31.348,58.6l.125-.124L7.948,34.951ZM9.731,33.14,33.3,56.712l.124-.124L9.855,33.016Zm1.908-1.935L35.255,54.823l.125-.125L11.763,31.081Zm1.908-1.935L37.209,52.934l.124-.124L13.671,29.145l-.124.125Zm1.908-1.935L39.163,51.044l.124-.124L15.579,27.211ZM17.362,25.4,41.116,49.155l.124-.124L17.487,25.275l-.125.124Zm1.908-1.935,23.8,23.8.125-.124-23.8-23.8Zm1.908-1.935L45.023,45.376l.124-.124L21.3,21.405Zm1.908-1.935L46.977,43.487l.125-.124L23.21,19.47Zm1.908-1.935L48.931,41.6l.124-.124L25.117,17.535l-.124.124ZM26.9,15.725,50.884,39.708l.125-.125L27.025,15.6Zm1.908-1.935L52.837,37.819l.125-.124L28.933,13.665l-.124.124Zm1.908-1.935L54.791,35.93l.125-.124L30.841,11.73l-.124.124Zm1.908-1.935L56.745,34.04l.124-.125L32.749,9.8l-.124.124Z" transform="translate(-7.823 -9.795)" fill="#fff"></path></g></g><path id="Path_116" data-name="Path 116" d="M53.6,18.466a21.592,21.592,0,0,0-7.676-5.08,24.6,24.6,0,0,0-10.95-1.806,23.585,23.585,0,0,0-15.014,7.112,23.415,23.415,0,0,0-5.645,9.031,24.366,24.366,0,0,0,.339,16.595,23.317,23.317,0,0,0,8.692,10.95,23.922,23.922,0,0,0,15.466,4.177A23.658,23.658,0,0,0,55.4,50.526a13.218,13.218,0,0,0,2.371-3.951c.522-1.105.777-1.856,1.016-2.258a20.523,20.523,0,0,0,1.693-7.225A23.664,23.664,0,0,0,53.6,18.466ZM51.386,42.992l-.042.091a9.171,9.171,0,0,1-1.658,2.744,16.576,16.576,0,0,1-11.6,6.193,16.818,16.818,0,0,1-10.815-2.9,16.252,16.252,0,0,1-5.325-5.947c-.075-.143-.794-1.8-.8-1.872a20.188,20.188,0,0,1-.059-10.867,17.494,17.494,0,0,1,3.274-5.758A15.339,15.339,0,0,1,31.7,19.82,15.209,15.209,0,0,1,36.325,18.8a17.606,17.606,0,0,1,11.4,4.064,18.734,18.734,0,0,1,5.419,9.6A15.889,15.889,0,0,1,51.386,42.992Z" transform="translate(-9.995 -9.133)"></path><path id="Path_117" data-name="Path 117" d="M100.795,99.6a2.5,2.5,0,0,1-2.39-1.725l-1.219-3.715h-6.1l-1.133,3.681a2.541,2.541,0,0,1-4.848-1.521l5.148-16.306a2.548,2.548,0,0,1,2.393-1.761h2.737a2.532,2.532,0,0,1,2.393,1.73l5.414,16.3a2.526,2.526,0,0,1-1.6,3.191A2.573,2.573,0,0,1,100.795,99.6Z" transform="translate(-67.13 -62.119)" fill="#fff"></path><path id="Path_118" data-name="Path 118" d="M99.781,97.9a2.237,2.237,0,0,1-2.139-1.542L96.422,92.64l-.06-.182H89.878l-.057.186-1.133,3.681a2.277,2.277,0,0,1-4.343-1.368l5.147-16.3a2.284,2.284,0,0,1,2.142-1.576h2.737a2.268,2.268,0,0,1,2.142,1.546l5.414,16.3a2.263,2.263,0,0,1-1.428,2.857,2.317,2.317,0,0,1-.716.114Zm0,.528a2.843,2.843,0,0,0,.88-.14,2.79,2.79,0,0,0,1.767-3.523l-5.414-16.3a2.8,2.8,0,0,0-2.643-1.91H91.632a2.812,2.812,0,0,0-2.645,1.944L83.839,94.8a2.8,2.8,0,0,0,5.351,1.683L90.325,92.8l-.252.186h6.1L95.92,92.8l1.219,3.714a2.765,2.765,0,0,0,2.641,1.906Z" transform="translate(-66.115 -60.765)"></path><g id="Group_39" data-name="Group 39" transform="translate(13.066 3.991)"><path id="Path_119" data-name="Path 119" d="M62.1,26.305l-.006-.009a2.044,2.044,0,0,1,3.293-2.417l.007.009A2.044,2.044,0,0,1,62.1,26.3Zm2.433-1.776-.006-.009a.986.986,0,0,0-1.391-.252.967.967,0,0,0-.178,1.384l.006.009a.985.985,0,0,0,1.387.256A.968.968,0,0,0,64.533,24.529Zm3.756-3.99.965-.309,2.7,3.144-1.073.344-.47-.561-1.393.447-.051.728-1.052.338Zm1.587,1.932-.732-.9-.078,1.157Zm3.82-.986.008-2.13,1.068,0-.008,2.108c0,.547.273.808.7.81s.7-.247.7-.777l.008-2.135,1.068,0-.008,2.1a1.586,1.586,0,0,1-1.784,1.754A1.567,1.567,0,0,1,73.7,21.485Zm7.4-.372L80,20.78l.269-.881,3.182.971-.269.881L82.1,21.419l-.838,2.747-1.005-.307.838-2.747Zm5.2.987.875.582-.786,1.182,1.123.748L88.3,23.43l.875.582-2.1,3.158-.875-.583.8-1.2-1.123-.748-.8,1.2-.875-.582Z" transform="translate(-61.717 -19.355)" fill="#fff"></path></g><g id="Group_40" data-name="Group 40" transform="translate(13.801 40.514)"><path id="Path_120" data-name="Path 120" d="M92.216,197.2l.007.008a2.044,2.044,0,0,1-3.2,2.541l-.007-.008a2.044,2.044,0,0,1,3.2-2.541Zm-2.364,1.868.007.008a.986.986,0,0,0,1.4.2.967.967,0,0,0,.124-1.39l-.007-.008a.984.984,0,0,0-1.4-.2A.968.968,0,0,0,89.852,199.072Zm-3.57,4.142-.95.352-2.84-3.022,1.057-.391.494.539,1.372-.508.019-.729,1.037-.384Zm-1.671-1.86.771.864.027-1.16-.8.3Zm-3.768,1.139.094,2.128-1.066.047-.093-2.106c-.024-.546-.312-.794-.734-.776s-.687.28-.664.81l.094,2.133-1.066.047-.093-2.1a1.586,1.586,0,0,1,1.7-1.838A1.567,1.567,0,0,1,80.844,202.492Zm-7.41.7,1.1.3-.24.889-3.212-.867.24-.889,1.1.3.749-2.773,1.015.274-.749,2.773Zm-5.193-.773-.9-.54.73-1.218-1.157-.694-.73,1.218-.9-.54,1.95-3.254.9.54-.741,1.236,1.157.694.741-1.236.9.54Z" transform="translate(-65.28 -196.463)" fill="#fff"></path></g></g></g></svg> 