<?xml version="1.0" encoding="UTF-8"?> <svg xmlns="http://www.w3.org/2000/svg" xmlns:xlink="http://www.w3.org/1999/xlink" width="90" height="90" viewBox="0 0 90 90"><defs><clipPath id="clip-path"><rect id="Rectangle_72" data-name="Rectangle 72" width="90" height="90" transform="translate(965 164)" fill="#fff" stroke="#707070" stroke-width="1"></rect></clipPath></defs><g id="Mask_Group_6" data-name="Mask Group 6" transform="translate(-965 -164)" clip-path="url(#clip-path)"><g id="Group_60" data-name="Group 60" transform="translate(-226.729 58.474)"><path id="Path_36" data-name="Path 36" d="M152.874,26.956H137.269a18.206,18.206,0,1,0-36.412,0H85.252a6.509,6.509,0,0,0-6.5,6.5V67.269a6.509,6.509,0,0,0,6.5,6.5H108.66v5.2h-1.3a9.114,9.114,0,0,0-9.1,9.1,1.3,1.3,0,0,0,1.3,1.3H138.57a1.3,1.3,0,0,0,1.3-1.3,9.114,9.114,0,0,0-9.1-9.1h-1.3v-5.2h23.408a6.509,6.509,0,0,0,6.5-6.5V33.458A6.509,6.509,0,0,0,152.874,26.956ZM86.553,65.969V34.759h16.087a18.249,18.249,0,0,0,12.523,9.972v3.033h-1.3a1.3,1.3,0,0,0-1.3,1.3V65.969ZM117.763,45.1c.432.031.861.066,1.3.066s.868-.035,1.3-.066v2.667h-2.6Zm-2.6,5.268h7.8V65.968h-7.8Zm9.1-2.6h-1.3V44.729a18.252,18.252,0,0,0,12.523-9.972h16.087v31.21H125.566V49.062a1.3,1.3,0,0,0-1.3-1.3Zm-5.2-36.412a15.605,15.605,0,1,1-15.605,15.605A15.623,15.623,0,0,1,119.063,11.35Zm18.075,75.425H100.99a6.513,6.513,0,0,1,6.371-5.2h23.408a6.512,6.512,0,0,1,6.371,5.2Zm-10.272-7.8H111.261v-5.2h15.605Zm29.91-11.7a3.906,3.906,0,0,1-3.9,3.9H85.253a3.906,3.906,0,0,1-3.9-3.9V33.457a3.906,3.906,0,0,1,3.9-3.9h15.813a18.034,18.034,0,0,0,.559,2.6H85.253a1.3,1.3,0,0,0-1.3,1.3V67.268a1.3,1.3,0,0,0,1.3,1.3h67.622a1.3,1.3,0,0,0,1.3-1.3V33.457a1.3,1.3,0,0,0-1.3-1.3H136.5a18.113,18.113,0,0,0,.559-2.6h15.813a3.906,3.906,0,0,1,3.9,3.9Z" transform="translate(1117.979 101.776)" fill="#1b54f8" stroke="#fff" stroke-width="1"></path><path id="Path_37" data-name="Path 37" d="M360.4,56.754H363a13.019,13.019,0,0,0-13-13v2.6A10.415,10.415,0,0,1,360.4,56.754Z" transform="translate(887.043 71.978)" fill="#1b54f8" stroke="#fff" stroke-width="1"></path><path id="Path_38" data-name="Path 38" d="M275.5,144.254v-2.6a10.415,10.415,0,0,1-10.4-10.4h-2.6A13.019,13.019,0,0,0,275.5,144.254Z" transform="translate(961.538 -2.518)" fill="#1b54f8" stroke="#fff" stroke-width="1"></path><path id="Path_39" data-name="Path 39" d="M321.691,99.666a1.206,1.206,0,0,0,.228-.021,1.3,1.3,0,0,0,1.018-.906l3.9-13-2.492-.747-3.161,10.537-2.355-3.142-2.081,1.561,3.9,5.2a1.3,1.3,0,0,0,1.04.52Z" transform="translate(915.352 36.868)" fill="#1b54f8" stroke="#fff" stroke-width="1"></path></g></g></svg> 