<?xml version="1.0" encoding="UTF-8"?> <svg xmlns="http://www.w3.org/2000/svg" xmlns:xlink="http://www.w3.org/1999/xlink" width="90" height="90" viewBox="0 0 90 90"><defs><clipPath id="clip-path"><rect id="Rectangle_69" data-name="Rectangle 69" width="90" height="90" transform="translate(222 436)" fill="#fff" stroke="#707070" stroke-width="1"></rect></clipPath></defs><g id="Mask_Group_7" data-name="Mask Group 7" transform="translate(-222 -436)" clip-path="url(#clip-path)"><g id="noun-workflow-2601887" transform="translate(155.997 426.687)"><path id="Path_40" data-name="Path 40" d="M79.37,27.784a3.122,3.122,0,0,0-3.122,3.122V43.4a3.122,3.122,0,0,0,3.122,3.122H91.859A3.123,3.123,0,0,0,94.982,43.4V30.906a3.122,3.122,0,0,0-3.122-3.122Zm0-6.245H91.859a9.367,9.367,0,0,1,9.367,9.367V43.4a9.367,9.367,0,0,1-9.367,9.367H79.37A9.367,9.367,0,0,1,70,43.4V30.906a9.367,9.367,0,0,1,9.367-9.367Z" transform="translate(0 -4.468)" fill="#1b54f8" stroke="#fff" stroke-width="4"></path><path id="Path_41" data-name="Path 41" d="M423.984,329.32a3.123,3.123,0,0,0-3.122,3.122v12.49a3.122,3.122,0,0,0,3.122,3.122h12.489a3.122,3.122,0,0,0,3.122-3.122v-12.49a3.122,3.122,0,0,0-3.122-3.122Zm0-6.244h12.489a9.367,9.367,0,0,1,9.367,9.367v12.49a9.367,9.367,0,0,1-9.367,9.367H423.984a9.367,9.367,0,0,1-9.367-9.367v-12.49A9.367,9.367,0,0,1,423.984,323.076Z" transform="translate(-294.657 -262.293)" fill="#1b54f8" stroke="#fff" stroke-width="4"></path><path id="Path_42" data-name="Path 42" d="M353.123,113.937a3.122,3.122,0,0,1,0-6.245h31.223a3.122,3.122,0,1,1,0,6.245Z" transform="translate(-239.408 -78.132)" fill="#1b54f8" stroke="#fff" stroke-width="4"></path><path id="Path_43" data-name="Path 43" d="M491.188,32.682,480.149,21.644a3.122,3.122,0,0,1,4.416-4.416l13.247,13.247a3.123,3.123,0,0,1,0,4.416L484.564,48.137a3.122,3.122,0,0,1-4.416-4.416Z" transform="translate(-349.907)" fill="#1b54f8" stroke="#fff" stroke-width="4"></path><path id="Path_44" data-name="Path 44" d="M125.886,415.477a3.122,3.122,0,1,0,0-6.245H94.663a3.122,3.122,0,1,0,0,6.245Z" transform="translate(-18.416 -335.959)" fill="#1b54f8" stroke="#fff" stroke-width="4"></path><path id="Path_45" data-name="Path 45" d="M93.849,334.22l11.039-11.039a3.122,3.122,0,0,0-4.416-4.416L87.225,332.012a3.123,3.123,0,0,0,0,4.416l13.247,13.247a3.122,3.122,0,0,0,4.416-4.416Z" transform="translate(-13.943 -257.825)" fill="#1b54f8" stroke="#fff" stroke-width="4"></path></g></g></svg> 