<?xml version="1.0" encoding="UTF-8"?> <svg xmlns="http://www.w3.org/2000/svg" xmlns:xlink="http://www.w3.org/1999/xlink" width="90" height="90" viewBox="0 0 90 90"><defs><clipPath id="clip-path"><rect id="Rectangle_76" data-name="Rectangle 76" width="90" height="90" transform="translate(1282 436)" fill="#fff" stroke="#707070" stroke-width="1"></rect></clipPath></defs><g id="Mask_Group_22" data-name="Mask Group 22" transform="translate(-1282 -436)" clip-path="url(#clip-path)"><path id="noun-security-5661926" d="M174.12,20.195a39.205,39.205,0,0,0,13.427,11.951,39.233,39.233,0,0,0,17.368,4.709,1.322,1.322,0,0,1,1.279,1.363v9.741c.032,12.446-2.583,23.626-8.224,32.935-5.341,8.812-13.372,15.922-24.406,20.814a1.321,1.321,0,0,1-1.067,0c-11.034-4.892-19.065-12-24.406-20.814-5.643-9.309-8.257-20.49-8.225-32.935l0-9.783a1.326,1.326,0,0,1,1.326-1.326h.06a39.234,39.234,0,0,0,17.266-4.7,39.216,39.216,0,0,0,13.434-11.962,1.325,1.325,0,0,1,1.844-.322,1.311,1.311,0,0,1,.329.332ZM163.445,58.241l.007-7.288a9.582,9.582,0,0,1,19.157.125l0,7.164a4.287,4.287,0,0,1,.969.726,4.227,4.227,0,0,1,1.253,3V74.6a4.258,4.258,0,0,1-4.253,4.253H165.475a4.258,4.258,0,0,1-4.253-4.253V61.972a4.245,4.245,0,0,1,1.247-3l.088-.08a4.289,4.289,0,0,1,.887-.646Zm16.519-.521V51.1a6.938,6.938,0,0,0-13.87-.077l0,6.694Zm-5.607,13.031v2.194a1.326,1.326,0,1,1-2.651,0V70.751a4.326,4.326,0,1,1,2.653,0Zm-.141-5.3A1.676,1.676,0,1,0,173,68.307h.069a1.676,1.676,0,0,0,1.15-2.861Zm6.368-5.075H165.477a1.606,1.606,0,0,0-1.081.419l-.049.052a1.6,1.6,0,0,0-.471,1.13V74.6a1.608,1.608,0,0,0,1.6,1.6h15.107a1.608,1.608,0,0,0,1.6-1.6V61.972a1.608,1.608,0,0,0-1.6-1.6Zm-7.552,30.642a41.347,41.347,0,0,0,17.3-16.63c4.147-7.5,6.011-16.442,6.011-26.426l0-2.235a49.111,49.111,0,0,1-12.526-4.411,49.115,49.115,0,0,1-10.781-7.505,49.121,49.121,0,0,1-10.782,7.505,49.1,49.1,0,0,1-12.525,4.411v2.234c0,9.993,1.863,18.934,6.008,26.428a41.348,41.348,0,0,0,17.3,16.628Zm19.62-15.356a44.117,44.117,0,0,1-19.014,18.025,1.321,1.321,0,0,1-1.211,0A44.117,44.117,0,0,1,153.414,75.66c-4.373-7.908-6.34-17.277-6.34-27.7V44.636a1.332,1.332,0,0,1,1.093-1.3,46.44,46.44,0,0,0,12.883-4.374,46.449,46.449,0,0,0,11.066-7.923,1.323,1.323,0,0,1,1.833,0,46.461,46.461,0,0,0,11.065,7.923,46.4,46.4,0,0,0,12.774,4.353,1.326,1.326,0,0,1,1.2,1.321v3.323c0,10.429-1.969,19.8-6.338,27.7ZM186.3,34.476a41.882,41.882,0,0,1-13.264-11.3,41.9,41.9,0,0,1-13.264,11.3,41.856,41.856,0,0,1-17.253,4.957v8.525c-.036,11.975,2.458,22.694,7.836,31.569,4.972,8.2,12.438,14.863,22.682,19.516,10.244-4.654,17.709-11.314,22.682-19.516,5.379-8.875,7.871-19.594,7.84-31.569V39.434A41.866,41.866,0,0,1,186.3,34.477Z" transform="translate(1153.638 419.876)" fill="#1b54f8" stroke="#fff" stroke-width="1"></path></g></svg> 