<?xml version="1.0" encoding="UTF-8"?> <svg xmlns="http://www.w3.org/2000/svg" xmlns:xlink="http://www.w3.org/1999/xlink" width="90" height="90" viewBox="0 0 90 90"><defs><clipPath id="clip-path"><rect id="Rectangle_74" data-name="Rectangle 74" width="90" height="90" transform="translate(875 436)" fill="#fff" stroke="#707070" stroke-width="1"></rect></clipPath></defs><g id="Mask_Group_20" data-name="Mask Group 20" transform="translate(-875 -436)" clip-path="url(#clip-path)"><g id="Group_313" data-name="Group 313" transform="translate(-360.985 221.09)"><path id="Path_199" data-name="Path 199" d="M158.622,142.956H96.137a8.652,8.652,0,0,1-8.642-8.642V91.772a8.652,8.652,0,0,1,8.642-8.642h26.257a1.662,1.662,0,1,1,0,3.324H96.137a5.324,5.324,0,0,0-5.318,5.318v42.543a5.324,5.324,0,0,0,5.318,5.318h62.485a5.324,5.324,0,0,0,5.318-5.318V91.772a5.324,5.324,0,0,0-5.318-5.318h-1.329a1.662,1.662,0,1,1,0-3.324h1.329a8.652,8.652,0,0,1,8.642,8.642v42.543A8.652,8.652,0,0,1,158.622,142.956Z" transform="translate(1153.49 146.751)" fill="#1b54f8" stroke="#fff" stroke-width="1"></path><path id="Path_200" data-name="Path 200" d="M165.608,370.828H89.164a1.662,1.662,0,1,1,0-3.324h76.444a1.662,1.662,0,1,1,0,3.324Z" transform="translate(1153.484 -94.415)" fill="#1b54f8" stroke="#fff" stroke-width="1"></path><path id="Path_201" data-name="Path 201" d="M336.918,414.568h-1.662a1.662,1.662,0,0,1,0-3.324h1.662a1.662,1.662,0,0,1,0,3.324Z" transform="translate(944.784 -131.509)" fill="#1b54f8" stroke="#fff" stroke-width="1"></path><path id="Path_202" data-name="Path 202" d="M264.164,468.294a1.662,1.662,0,1,1,0-3.324,4.991,4.991,0,0,0,4.985-4.985v-3.324a1.662,1.662,0,1,1,3.324,0v3.324A8.318,8.318,0,0,1,264.164,468.294Z" transform="translate(1005.074 -168.616)" fill="#1b54f8" stroke="#fff" stroke-width="1"></path><path id="Path_203" data-name="Path 203" d="M380.181,468.294a8.318,8.318,0,0,1-8.309-8.309v-3.324a1.662,1.662,0,1,1,3.324,0v3.324a4.991,4.991,0,0,0,4.985,4.985,1.662,1.662,0,1,1,0,3.324Z" transform="translate(912.321 -168.616)" fill="#1b54f8" stroke="#fff" stroke-width="1"></path><path id="Path_204" data-name="Path 204" d="M287.429,523.948H264.164a1.662,1.662,0,1,1,0-3.324h23.265a1.662,1.662,0,1,1,0,3.324Z" transform="translate(1005.074 -224.27)" fill="#1b54f8" stroke="#fff" stroke-width="1"></path><path id="Path_205" data-name="Path 205" d="M342.813,47.417h-34.9a1.662,1.662,0,0,1-1.662-1.662V19.166a1.662,1.662,0,0,1,1.662-1.662h34.9a1.662,1.662,0,0,1,1.662,1.662V45.755A1.662,1.662,0,0,1,342.813,47.417Zm-33.237-3.324h31.574V20.829H309.576Z" transform="translate(967.971 202.406)" fill="#1b54f8" stroke="#fff" stroke-width="1"></path><path id="Path_206" data-name="Path 206" d="M152.856,166.065H132.914a1.662,1.662,0,0,1-1.662-1.662V139.476a1.662,1.662,0,0,1,1.662-1.662h13.959a1.662,1.662,0,0,1,1.175.487l5.983,5.983a1.662,1.662,0,0,1,.487,1.175V164.4a1.662,1.662,0,0,1-1.662,1.662Zm-18.28-3.324H151.2V146.147l-5.009-5.009H134.577Z" transform="translate(1116.382 100.376)" fill="#1b54f8" stroke="#fff" stroke-width="1"></path><path id="Path_207" data-name="Path 207" d="M183.311,250.508h-6.647a1.662,1.662,0,1,1,0-3.324h6.647a1.662,1.662,0,1,1,0,3.324Z" transform="translate(1079.279 7.623)" fill="#1b54f8" stroke="#fff" stroke-width="1"></path><path id="Path_208" data-name="Path 208" d="M179.983,206.758h-3.324a1.662,1.662,0,1,1,0-3.324h3.324a1.662,1.662,0,0,1,0,3.324Z" transform="translate(1079.283 44.726)" fill="#1b54f8" stroke="#fff" stroke-width="1"></path><path id="Path_209" data-name="Path 209" d="M361.368,305.2H329.794a1.662,1.662,0,0,1,0-3.324h31.574a1.662,1.662,0,1,1,0,3.324Z" transform="translate(949.416 -38.757)" fill="#1b54f8" stroke="#fff" stroke-width="1"></path><path id="Path_210" data-name="Path 210" d="M361.368,261.448H329.794a1.662,1.662,0,0,1,0-3.324h31.574a1.662,1.662,0,1,1,0,3.324Z" transform="translate(949.416 -1.654)" fill="#1b54f8" stroke="#fff" stroke-width="1"></path><path id="Path_211" data-name="Path 211" d="M342.813,64.573h-34.9a1.662,1.662,0,1,1,0-3.324h34.9a1.662,1.662,0,0,1,0,3.324Z" transform="translate(967.971 165.308)" fill="#1b54f8" stroke="#fff" stroke-width="1"></path><path id="Path_212" data-name="Path 212" d="M364.959,108.328H351.664a1.662,1.662,0,1,1,0-3.324h13.295a1.662,1.662,0,0,1,0,3.324Z" transform="translate(930.869 128.201)" fill="#1b54f8" stroke="#fff" stroke-width="1"></path><path id="Path_213" data-name="Path 213" d="M373.258,152.068h-21.6a1.662,1.662,0,1,1,0-3.324h21.6a1.662,1.662,0,0,1,0,3.324Z" transform="translate(930.877 91.106)" fill="#1b54f8" stroke="#fff" stroke-width="1"></path></g></g></svg> 