<?xml version="1.0" encoding="UTF-8"?> <svg xmlns="http://www.w3.org/2000/svg" xmlns:xlink="http://www.w3.org/1999/xlink" width="90" height="90" viewBox="0 0 90 90"><defs><clipPath id="clip-path"><rect id="Rectangle_71" data-name="Rectangle 71" width="90" height="90" transform="translate(720 164)" fill="#fff" stroke="#707070" stroke-width="1"></rect></clipPath></defs><g id="Mask_Group_5" data-name="Mask Group 5" transform="translate(-720 -164)" clip-path="url(#clip-path)"><g id="Group_59" data-name="Group 59" transform="translate(3.341 158.5)"><path id="Path_31" data-name="Path 31" d="M164.787,76.886V29.16a6.32,6.32,0,0,0-6.363-6.363h-14.2c-3.549-7.955-14.073-8.688-19.09-2.692a5.487,5.487,0,0,0-5.14.612c-3.426-3.549-10.647-3.426-14.685,2.08H92.831a6.479,6.479,0,0,0-6.363,6.363V76.886a6.32,6.32,0,0,0,6.363,6.364h20.436L110.7,92.06h-6.119a1.224,1.224,0,1,0,0,2.447h42.1a1.224,1.224,0,1,0,0-2.447h-6.119l-2.57-8.811h20.436a6.321,6.321,0,0,0,6.363-6.364Zm-46.5-54.334a5.243,5.243,0,0,0-.734,2.692,1.224,1.224,0,1,0,2.447,0,3,3,0,0,1,.734-1.958,3.165,3.165,0,0,1,4.038-.489,3.03,3.03,0,0,1,1.346,2.57,1.224,1.224,0,0,0,2.447,0,5.181,5.181,0,0,0-1.469-3.671c5.262-6,15.175-1.958,15.42,4.65a9.772,9.772,0,0,0-4.772,3.671,4.494,4.494,0,0,0-5.262,1.346,1.183,1.183,0,0,0,.122,1.713,1.3,1.3,0,0,0,1.713-.122,2.094,2.094,0,0,1,3.181-.122,2.072,2.072,0,0,1,.122,2.815,1.224,1.224,0,1,0,1.958,1.469,4.589,4.589,0,0,0,0-5.629c2.447-3.3,5.507-3.916,9.056-1.835,2.815,1.713,4.772,4.038,5.384,6.363,1.224,4.406,0,10.035-4.528,10.035h-4.161a5.262,5.262,0,0,1,.367-6.241,1.224,1.224,0,1,0-1.958-1.469,7.708,7.708,0,0,0-1.1,7.71h-35a6.952,6.952,0,0,1,4.406-5.629,1.205,1.205,0,0,0-.979-2.2,9.55,9.55,0,0,0-5.874,7.955H101.03c-2.57,0-5.018-2.692-4.406-7.1.489-3.426,2.57-6.363,5.874-6.73a4.269,4.269,0,0,0,1.1,4.038,1.212,1.212,0,0,0,1.713-1.713c-1.469-1.346.367-3.671,2.08-2.692a1.239,1.239,0,0,0,1.347-2.08,4.153,4.153,0,0,0-3.181-.489c.244-7.71,9.055-10.892,12.727-6.853Zm14.195,34.51a1.835,1.835,0,1,1-1.835,1.835A1.882,1.882,0,0,1,132.48,57.062ZM88.914,76.886V72.97H136.4a1.224,1.224,0,1,0,0-2.447H88.914V29.161a3.866,3.866,0,0,1,3.916-3.916h11.136a11.289,11.289,0,0,0-.857,4.406c-4.161.122-7.955,3.426-8.688,8.811-.857,6,2.815,9.912,6.853,9.912h6v8.933h-3.916a4.255,4.255,0,1,0-4.038,5.507,4.219,4.219,0,0,0,4.038-3.06h5.14a1.156,1.156,0,0,0,1.224-1.224V54.981h8.566v4.528a4.255,4.255,0,1,0,5.507,4.038,4.219,4.219,0,0,0-3.06-4.038V53.757a1.156,1.156,0,0,0-1.224-1.224h-9.79V48.373h21.661v6.241a4.255,4.255,0,1,0,5.507,4.038,4.219,4.219,0,0,0-3.06-4.038V48.373h8.566V59.754a1.156,1.156,0,0,0,1.224,1.224h5.14a4.255,4.255,0,1,0,4.038-5.507,4.219,4.219,0,0,0-4.038,3.06H144.84V48.374h4.895c4.895,0,8.933-5.384,6.853-13.094-.734-2.937-3.181-5.752-6.486-7.71a10.974,10.974,0,0,0-5.018-1.591,1.551,1.551,0,0,0-.122-.734h13.461a3.866,3.866,0,0,1,3.916,3.916V70.522h-20.8a1.224,1.224,0,1,0,0,2.447h20.8v3.916a3.866,3.866,0,0,1-3.916,3.916H92.831a3.865,3.865,0,0,1-3.916-3.915Zm10.279-16.4a1.835,1.835,0,1,1,1.835-1.835A1.882,1.882,0,0,1,99.194,60.488Zm20.315,1.468a1.835,1.835,0,1,1-1.835,1.835A1.8,1.8,0,0,1,119.508,61.956Zm31.449-2.08a1.835,1.835,0,1,1,1.835,1.835A1.882,1.882,0,0,1,150.957,59.876ZM137.986,92.061H113.267l2.57-8.811h19.581Z" transform="translate(636.192 -4.64)" fill="#1b54f8" stroke="#fff" stroke-width="0.6"></path><path id="Path_32" data-name="Path 32" d="M307.744,134.106a6.116,6.116,0,0,0,1.713-4.283,6.335,6.335,0,0,0-1.713-4.283,1.212,1.212,0,0,0-1.713,1.713,3.548,3.548,0,1,1-5.017,5.018,1.212,1.212,0,1,0-1.714,1.713,5.877,5.877,0,0,0,8.444.122Z" transform="translate(455.298 -97.47)" fill="#1b54f8" stroke="#fff" stroke-width="0.6"></path><path id="Path_33" data-name="Path 33" d="M128.017,415.425a1.212,1.212,0,1,0,1.713,0A1.182,1.182,0,0,0,128.017,415.425Z" transform="translate(601.128 -344.28)" fill="#1b54f8" stroke="#fff" stroke-width="0.6"></path><path id="Path_34" data-name="Path 34" d="M170.837,415.425a1.212,1.212,0,1,0,1.713,0A1.182,1.182,0,0,0,170.837,415.425Z" transform="translate(564.671 -344.28)" fill="#1b54f8" stroke="#fff" stroke-width="0.6"></path><path id="Path_35" data-name="Path 35" d="M213.667,415.425a1.212,1.212,0,1,0,1.713,0A1.182,1.182,0,0,0,213.667,415.425Z" transform="translate(528.205 -344.28)" fill="#1b54f8" stroke="#fff" stroke-width="0.6"></path></g></g></svg> 