<?xml version="1.0" encoding="UTF-8"?> <svg xmlns="http://www.w3.org/2000/svg" xmlns:xlink="http://www.w3.org/1999/xlink" width="90" height="90" viewBox="0 0 90 90"><defs><clipPath id="clip-path"><rect id="Rectangle_75" data-name="Rectangle 75" width="90" height="90" transform="translate(1070 436)" fill="#fff" stroke="#707070" stroke-width="1"></rect></clipPath></defs><g id="Mask_Group_21" data-name="Mask Group 21" transform="translate(-1070 -436)" clip-path="url(#clip-path)"><g id="Group_314" data-name="Group 314" transform="translate(-114.792 149)"><path id="Path_214" data-name="Path 214" d="M111.614,312.1h16.16a7.294,7.294,0,0,0,7.259,7.337,1.453,1.453,0,0,0,0-2.9,4.393,4.393,0,0,1-3.832-6.446,16.705,16.705,0,0,1,29.434,0,4.367,4.367,0,0,1-3.832,6.446H142.294a1.452,1.452,0,0,0,0,2.9H156.8a7.293,7.293,0,0,0,7.259-7.337h16.16a6.3,6.3,0,0,0,5.449-3.093c3.365-6.14-3.854-12.288-9.074-14.159a9.111,9.111,0,1,0-11.142,0,16.723,16.723,0,0,0-8.6,6.867,19.564,19.564,0,0,0-4.872-2.369,10.52,10.52,0,0,0-6.064-19.122c-10.237-.017-14.361,13.362-6.063,19.122a19.569,19.569,0,0,0-4.876,2.37,16.8,16.8,0,0,0-8.6-6.867,9.112,9.112,0,1,0-11.139,0c-5.233,1.867-12.432,8.023-9.075,14.159a6.3,6.3,0,0,0,5.449,3.093Zm53.2-24.455a6.214,6.214,0,1,1,3.124,5.333A6.214,6.214,0,0,1,164.812,287.644Zm6.2,9.118a13.868,13.868,0,0,1,12.24,7.324,3.481,3.481,0,0,1-3.034,5.107H163.415a18.635,18.635,0,0,0-4.267-5.681,13.894,13.894,0,0,1,11.867-6.75Zm-32.722-6.009c.32-10.076,14.93-10.074,15.249,0C153.222,300.83,138.613,300.827,138.294,290.753Zm-23.7-3.109a6.214,6.214,0,1,1,3.124,5.333A6.214,6.214,0,0,1,114.6,287.645Zm-6.016,16.442a13.908,13.908,0,0,1,24.106-.574,18.637,18.637,0,0,0-4.266,5.681H111.613a3.481,3.481,0,0,1-3.034-5.107Z" transform="translate(1083.488 52.892)" fill="#1b54f8" stroke="#fff" stroke-width="1"></path><path id="Path_215" data-name="Path 215" d="M271.972,58.678c.967-.089,2.024-.388,2.033-1.57V50.654c-.016-1.173-1.05-1.483-2.034-1.569a2.348,2.348,0,0,1-1.794-1.457,2.784,2.784,0,0,1,.735-2.943,1.452,1.452,0,0,0-.154-1.871l-4.564-4.564c-.823-.82-1.806-.3-2.547.329h0a2.411,2.411,0,0,1-3.725-1.542c-.088-.967-.386-2.025-1.569-2.034H251.9c-1.173.016-1.483,1.049-1.568,2.033a2.346,2.346,0,0,1-1.459,1.795,2.783,2.783,0,0,1-2.941-.735,1.447,1.447,0,0,0-1.871.155l-4.564,4.564c-.815.821-.3,1.8.327,2.547h0a2.359,2.359,0,0,1,.234,2.312,2.326,2.326,0,0,1-1.777,1.413c-.967.089-2.024.388-2.033,1.57v6.454c.016,1.173,1.05,1.483,2.034,1.569a2.411,2.411,0,0,1,1.543,3.723c-.62.735-1.157,1.722-.329,2.548l4.564,4.564c.821.816,1.806.3,2.547-.329h0a2.41,2.41,0,0,1,3.724,1.542c.088.967.386,2.025,1.569,2.034h6.456c1.173-.016,1.483-1.049,1.568-2.033a2.4,2.4,0,0,1,3.725-1.542c.735.618,1.72,1.156,2.547.327l4.564-4.564a1.452,1.452,0,0,0,.154-1.871l-.482-.675h0a2.41,2.41,0,0,1,1.543-3.725Zm-4.476.34h0a5.216,5.216,0,0,0,.348,4.737L265,66.6h0a5.339,5.339,0,0,0-7.861,3.257h-4.025a5.339,5.339,0,0,0-7.861-3.256l-2.846-2.846a5.307,5.307,0,0,0-3.256-7.861V51.869a5.308,5.308,0,0,0,3.257-7.861l2.845-2.846a5.309,5.309,0,0,0,7.861-3.257h4.025A5.339,5.339,0,0,0,265,41.162l2.846,2.846a5.34,5.34,0,0,0,3.256,7.861v4.025a5.231,5.231,0,0,0-3.6,3.124Z" transform="translate(974.28 255.998)" fill="#1b54f8" stroke="#fff" stroke-width="1"></path><path id="Path_216" data-name="Path 216" d="M308.107,95.261c-1.872.734-.318,2.774-.493,4.159-.295,9.18-13.6,9.166-13.885,0a6.973,6.973,0,0,1,9.251-6.544,1.453,1.453,0,0,0,.959-2.742,9.889,9.889,0,0,0-12.552,12.556c3.7,10.33,19.052,7.715,19.132-3.27-.086-1.5-.156-4.728-2.411-4.159Z" transform="translate(928.734 210.459)" fill="#1b54f8" stroke="#fff" stroke-width="1"></path></g></g></svg> 