<?xml version="1.0" encoding="UTF-8"?> <svg xmlns="http://www.w3.org/2000/svg" xmlns:xlink="http://www.w3.org/1999/xlink" width="90" height="90" viewBox="0 0 90 90"><defs><clipPath id="clip-path"><rect id="Rectangle_22" data-name="Rectangle 22" width="90" height="90" transform="translate(734 780)" fill="#fff" stroke="#707070" stroke-width="1"></rect></clipPath></defs><g id="Mask_Group_17" data-name="Mask Group 17" transform="translate(-734 -780)" clip-path="url(#clip-path)"><path id="Path_90" data-name="Path 90" d="M12.6,29.422h9.249a1.012,1.012,0,0,0,1.012-1.012V22.627l4.342-4.342a1.012,1.012,0,1,0-1.431-1.43l-2.913,2.914v-.606a1.012,1.012,0,0,0-1.012-1.012H12.6a1.012,1.012,0,0,0-1.012,1.012v9.248A1.012,1.012,0,0,0,12.6,29.422Zm1.012-9.248h7.229v1.619l-2.41,2.4-2.191-2.191a1.012,1.012,0,1,0-1.431,1.431l2.906,2.906a1.011,1.011,0,0,0,1.431,0l1.691-1.691V27.4H13.616ZM12.6,45.241h9.249a1.012,1.012,0,0,0,1.012-1.012V38.447L27.206,34.1a1.012,1.012,0,1,0-1.431-1.427l-2.913,2.913v-.6a1.012,1.012,0,0,0-1.012-1.012H12.6a1.012,1.012,0,0,0-1.012,1.012V44.23A1.012,1.012,0,0,0,12.6,45.241ZM13.616,36h7.229v1.619l-2.407,2.407-2.194-2.2a1.012,1.012,0,1,0-1.431,1.431l2.906,2.906a1.012,1.012,0,0,0,1.431,0l1.691-1.692v2.752H13.616ZM27.724,20.538h8.445a1.012,1.012,0,1,1,0,2.023H27.724a1.012,1.012,0,0,1,0-2.023Zm0,4.478H49.308a1.012,1.012,0,1,1,0,2.023H27.724a1.012,1.012,0,0,1,0-2.023ZM26.712,37.369a1.011,1.011,0,0,1,1.012-1.012h8.445a1.012,1.012,0,1,1,0,2.023H27.724a1.012,1.012,0,0,1-1.009-1.014Zm20.151,4.478a1.012,1.012,0,0,1-1.012,1.009H27.724a1.012,1.012,0,0,1,0-2.023H45.852a1.012,1.012,0,0,1,1.014,1.012ZM36.169,52.175a1.012,1.012,0,1,1,0,2.023H27.724a1.012,1.012,0,0,1,0-2.023Zm2.113,5.489a1.012,1.012,0,0,1-1.012,1.012H27.724a1.012,1.012,0,0,1,0-2.023h9.55a1.012,1.012,0,0,1,1.008,1.012Zm-11.075-7.74a1.012,1.012,0,1,0-1.431-1.43l-2.913,2.914v-.6a1.012,1.012,0,0,0-1.012-1.012H12.6A1.012,1.012,0,0,0,11.593,50.8v9.245A1.012,1.012,0,0,0,12.6,61.061h9.249a1.012,1.012,0,0,0,1.012-1.012V54.266Zm-6.362,9.113H13.616V51.813h7.229v1.619l-2.407,2.407-2.191-2.191a1.012,1.012,0,0,0-1.431,1.431l2.906,2.906a1.012,1.012,0,0,0,1.431,0l1.691-1.692ZM76.482,67.3a2.832,2.832,0,0,0-1.328-1.734L57.624,55.443l2.256-3.908h.071a2.948,2.948,0,0,0,1.483-5.5l-5.168-2.978V15.845a.587.587,0,0,0-.006-.1.437.437,0,0,0-.006-.045.119.119,0,0,0-.008-.053.24.24,0,0,1-.012-.052c0-.018-.007-.029-.011-.044L56.2,15.5c0-.014-.01-.028-.015-.042s-.015-.032-.023-.048-.013-.028-.02-.042-.018-.032-.028-.047l-.023-.038-.04-.054a.214.214,0,0,0-.019-.025c-.022-.027-.045-.053-.07-.077L46.135,5.3a1.028,1.028,0,0,0-.077-.07l-.027-.02c-.018-.013-.035-.027-.053-.039s-.027-.016-.04-.024l-.045-.027-.042-.02c-.015-.007-.031-.015-.047-.022l-.043-.016-.05-.017-.045-.011-.051-.013-.053-.008L45.518,5a.706.706,0,0,0-.1,0H8.041A1.012,1.012,0,0,0,7.029,6.012v58.81a1.012,1.012,0,0,0,1.012,1.012H43.847a1.052,1.052,0,0,0,.21-.022l4.47,2.58a2.92,2.92,0,0,0,1.466.394,2.964,2.964,0,0,0,2.561-1.47,2.913,2.913,0,0,0,.391-1.479h2.309a1.012,1.012,0,0,0,1.012-1.012V61.253L72.3,70.51A2.853,2.853,0,0,0,76.482,67.3ZM50.939,62.976l-7.353-4.245L50.6,46.591l7.351,4.244ZM60.85,48.351a.925.925,0,0,1-1.353,1.04l-8.425-4.864a.927.927,0,0,1-.338-1.263l-.876-.506.876.506A.925.925,0,0,1,52,42.925l8.422,4.864a.915.915,0,0,1,.431.562ZM46.429,8.452l6.383,6.384H46.429ZM9.052,63.81V7.023H44.406v8.821a1.012,1.012,0,0,0,1.012,1.012h8.821V41.884l-1.233-.712a2.952,2.952,0,0,0-4.027,1.08h0a2.952,2.952,0,0,0,.041,3.017L41.655,58.028a2.947,2.947,0,0,0-1.555,5.5l.486.282ZM50.8,66.3a.932.932,0,0,1-1.263.338l-8.425-4.864a.926.926,0,0,1,.468-1.725.906.906,0,0,1,.457.123l8.425,4.864A.931.931,0,0,1,50.8,66.3Zm1.991-2.491L54.243,61.3V63.81Zm21.654,4.643a.834.834,0,0,1-1.138.305L55.78,58.637l.835-1.442L74.142,67.316A.838.838,0,0,1,74.447,68.453ZM55.24,71.679H35.232a3.083,3.083,0,0,0-3.075,3.075v2.071a1.012,1.012,0,0,0,1.008,1.012H57.31a1.012,1.012,0,0,0,1.012-1.012V74.761A3.083,3.083,0,0,0,55.24,71.679Zm1.052,4.135H34.176V74.761a1.058,1.058,0,0,1,1.052-1.052H55.24a1.057,1.057,0,0,1,1.052,1.052Z" transform="translate(736.971 784)" fill="#1c54f8" stroke="#fff" stroke-width="0.3"></path></g></svg> 