<?xml version="1.0" encoding="UTF-8"?> <svg xmlns="http://www.w3.org/2000/svg" xmlns:xlink="http://www.w3.org/1999/xlink" width="90" height="90" viewBox="0 0 90 90"><defs><clipPath id="clip-path"><rect id="Rectangle_67" data-name="Rectangle 67" width="90" height="90" transform="translate(221 164)" fill="#fff" stroke="#707070" stroke-width="1"></rect></clipPath></defs><g id="Mask_Group_3" data-name="Mask Group 3" transform="translate(-221 -164)" clip-path="url(#clip-path)"><g id="Group_57" data-name="Group 57" transform="translate(-1435.854 397.903)"><path id="Path_26" data-name="Path 26" d="M183.45,103.7a1.071,1.071,0,0,1-.389,2.107,27.84,27.84,0,0,1-22.093-22.039,1.075,1.075,0,0,1-1.841-1.1l1.717-3.31a1.065,1.065,0,0,1,1.841-.089L164.7,82.4a1.068,1.068,0,0,1-1.54,1.434A25.746,25.746,0,0,0,183.45,103.7ZM213.6,82.861a1.068,1.068,0,0,1,2.107.354,27.872,27.872,0,0,1-20.358,22.164,1.069,1.069,0,0,1-.956,1.894l-3.505-1.257a1.072,1.072,0,0,1-.319-1.823l2.85-2.408a1.069,1.069,0,0,1,1.5,1.5A25.672,25.672,0,0,0,213.6,82.861Zm-26.571-7.9a1.071,1.071,0,0,1,2.142,0V77.39h2.425a1.071,1.071,0,0,1,0,2.142h-2.425v2.443a1.071,1.071,0,0,1-2.142,0V79.55H184.6a1.071,1.071,0,0,1,0-2.142h2.425Zm1.08-4.8a8.294,8.294,0,1,1-8.3,8.285A8.3,8.3,0,0,1,188.107,70.168Zm4.337,3.948a6.148,6.148,0,1,0,0,8.692A6.156,6.156,0,0,0,192.444,74.116Zm-5.435-11.631h2.213a2.251,2.251,0,0,1,2.248,2.248c0,.407-.071.921.071.956a13.626,13.626,0,0,1,3.187,1.328l.124-.018c.655-.655,1.133-1.275,2.2-1.275a2.3,2.3,0,0,1,1.593.655l1.629,1.646a2.249,2.249,0,0,1-.071,3.1c-.266.266-.708.6-.637.744a12.906,12.906,0,0,1,1.328,3.187c.071.283,1.469-.336,2.549.726a2.248,2.248,0,0,1,.655,1.593v2.213a2.263,2.263,0,0,1-2.248,2.248h-.867l-.106.071-.549,1.629a14.055,14.055,0,0,1-.761,1.558c-.142.248,1.292.814,1.292,2.319A2.222,2.222,0,0,1,200.2,89l-1.646,1.629a2.234,2.234,0,0,1-3.1-.071l-.655-.655-1.611.779-1.629.549c-.283.071.336,1.487-.744,2.549a2.237,2.237,0,0,1-1.576.655h-2.213a2.251,2.251,0,0,1-2.248-2.248c0-.389.071-.921-.071-.956a13.947,13.947,0,0,1-3.187-1.328c-.248-.142-.814,1.292-2.319,1.292a2.182,2.182,0,0,1-1.576-.655L176,88.9a2.25,2.25,0,0,1,.071-3.1l.637-.655a.106.106,0,0,0-.018-.071,14.121,14.121,0,0,1-.761-1.558,13.545,13.545,0,0,1-.549-1.629c-.071-.283-1.5.336-2.532-.744a2.248,2.248,0,0,1-.655-1.593V77.338a2.251,2.251,0,0,1,2.248-2.248c.389,0,.921.071.956-.071l.566-1.646a12.443,12.443,0,0,1,.761-1.54c.142-.266-1.292-.814-1.292-2.319a2.182,2.182,0,0,1,.655-1.576l1.558-1.558a2.276,2.276,0,0,1,3.187,0l.673.655,1.611-.779,1.629-.566.071-.106v-.867a2.148,2.148,0,0,1,2.2-2.23Zm2.2,2.142-2.284.035a.134.134,0,0,0-.035.071V65.6a2.237,2.237,0,0,1-1.664,2.177,11.337,11.337,0,0,0-2.673,1.1,2.222,2.222,0,0,1-2.708-.354c-.319-.3-.62-.726-.761-.6l-1.593,1.629c0,.212,1.115.761,1.275,1.983.142,1.027-.46,1.576-.921,2.708s-.425,1.947-1.257,2.585c-1.062.814-2.319.248-2.319.566l.035,2.284c.159.159,1.345-.248,2.3.5.832.637.8,1.452,1.275,2.567.478,1.133,1.062,1.7.921,2.708a3.12,3.12,0,0,1-1.239,1.912l-.018.142,1.576,1.576c.23.212.726-1.08,2.054-1.239,1.062-.142,1.593.478,2.708.921a12.337,12.337,0,0,0,1.363.46,2.232,2.232,0,0,1,1.664,2.16l.035.938h2.354c.142-.142-.248-1.345.5-2.3.655-.85,1.452-.779,2.567-1.257.443-.195.885-.407,1.292-.637a2.222,2.222,0,0,1,2.708.354c.23.248.62.708.744.62l1.611-1.646c0-.212-1.115-.761-1.275-1.983-.142-1.027.46-1.576.921-2.708.46-1.115.425-1.93,1.257-2.567a2.222,2.222,0,0,1,1.363-.46h.867l.106-.106-.035-2.284c-.159-.159-1.328.248-2.3-.5-.85-.655-.8-1.469-1.257-2.585a11.047,11.047,0,0,0-.655-1.292,2.222,2.222,0,0,1,.354-2.708l.6-.6.018-.124L197.1,67.955c-.142-.124-.46.3-.761.6a2.218,2.218,0,0,1-2.708.354,11.038,11.038,0,0,0-2.673-1.1,2.237,2.237,0,0,1-1.664-2.177l-.035-.921c0-.071-.018-.089-.053-.089Zm-23.6-18.977a1.07,1.07,0,0,1-1.062-1.859l29.3-16.923h-1.1a1.071,1.071,0,0,1,0-2.142h5.1a1.065,1.065,0,0,1,.9,1.629l-2.532,4.373a1.063,1.063,0,0,1-1.841-1.062l.549-.956Zm22.5,53.673a20.872,20.872,0,0,1-20.465-24.89h-9.719a1.073,1.073,0,0,1-1.08-1.08v-8.78a1.073,1.073,0,0,1,1.08-1.08h5.328V52.482a1.073,1.073,0,0,1,1.08-1.08h10.8a1.084,1.084,0,0,1,1.08,1.08V61.3a20.349,20.349,0,0,1,5.523-2.726V41.312a1.073,1.073,0,0,1,1.08-1.08h10.781a1.073,1.073,0,0,1,1.08,1.08V58.626a20.8,20.8,0,0,1,5.523,2.8V31.328a1.084,1.084,0,0,1,1.08-1.08h10.781a1.073,1.073,0,0,1,1.08,1.08v32.2h5.151a1.073,1.073,0,0,1,1.08,1.08v8.78a1.073,1.073,0,0,1-1.08,1.08h-9.7a20.878,20.878,0,0,1-20.482,24.854ZM168.173,72.291a20.829,20.829,0,0,1,3.452-6.639H159v6.639Zm5.382-8.763c.159-.159.336-.319.5-.478V53.6h-8.639v9.931Zm10.321-5.488a21.2,21.2,0,0,1,8.639.035V42.426h-8.639Zm18.446,5.169.319.319h8.32V32.407h-8.639Zm2.266,2.461a20.644,20.644,0,0,1,3.452,6.639h9.17V65.67ZM174.865,91.692a18.714,18.714,0,1,0,0-26.466,18.709,18.709,0,0,0,0,26.466Z" transform="translate(1514.01 -254.63)" fill="#1b54f8" stroke="#fff" stroke-width="0.4"></path></g></g></svg> 