<?xml version="1.0" encoding="UTF-8"?> <svg xmlns="http://www.w3.org/2000/svg" xmlns:xlink="http://www.w3.org/1999/xlink" width="90" height="90" viewBox="0 0 90 90"><defs><clipPath id="clip-path"><rect id="Rectangle_73" data-name="Rectangle 73" width="90" height="90" transform="translate(675 436)" fill="#fff" stroke="#707070" stroke-width="1"></rect></clipPath></defs><g id="Mask_Group_19" data-name="Mask Group 19" transform="translate(-675 -436)" clip-path="url(#clip-path)"><g id="Group_312" data-name="Group 312" transform="translate(-95.832 58)"><path id="Path_193" data-name="Path 193" d="M151.166,73.117a1.314,1.314,0,0,0-.919-.932L145.837,71h0a1.313,1.313,0,0,0-1.313.341l-3.177,3.216a1.313,1.313,0,0,0-.341,1.313l1.181,4.41h0a1.313,1.313,0,0,0,.932.919l4.4,1.181a1.313,1.313,0,0,0,1.313-.342l3.216-3.216a1.313,1.313,0,0,0,.342-1.313Zm-3.7,6.563-2.941-.788-.788-2.941,2.153-2.153,2.941.788.788,2.941Z" transform="translate(642.71 319.898)" fill="#1b54f8" stroke="#fff" stroke-width="0.6"></path><path id="Path_194" data-name="Path 194" d="M168.341,80.941a12.459,12.459,0,0,0-12.287-3.111L120.178,41.954c3.544-12.3-11.617-21.3-20.727-12.287s0,24.311,12.313,20.754L147.613,86.27c-2.468,7.627,3.86,16.172,11.919,15.91,10.974.118,16.62-13.521,8.809-21.239ZM166.49,96.693c-7.43,7.39-19.69-.538-16.172-10.357h0a1.418,1.418,0,0,0-.328-1.4L113.051,47.993a1.431,1.431,0,0,0-1.378-.3,9.747,9.747,0,1,1,5.776-5.776,1.442,1.442,0,0,0,.328,1.4l36.939,36.888a1.418,1.418,0,0,0,1.418.328c9.792-3.6,17.721,8.743,10.357,16.159Z" transform="translate(681.127 358.098)" fill="#1b54f8" stroke="#fff" stroke-width="0.6"></path><path id="Path_195" data-name="Path 195" d="M488.251,409a1.312,1.312,0,0,0-.932-.919l-5.251-1.431a1.313,1.313,0,0,0-1.313.342l-3.938,3.938a1.312,1.312,0,0,0-.341,1.313l1.431,5.251h0a1.313,1.313,0,0,0,.919.932l5.329,1.431h0a1.314,1.314,0,0,0,1.313-.342l3.938-3.938a1.313,1.313,0,0,0,.341-1.313Zm-4.122,8.1-3.86-1.037-1.037-3.86,2.822-2.822,3.86,1.037,1.037,3.86Z" transform="translate(357.567 34.606)" fill="#1b54f8" stroke="#fff" stroke-width="0.6"></path><path id="Path_196" data-name="Path 196" d="M370.427,55.365a1.315,1.315,0,0,0,.932-.381l10.226-10.239a1.405,1.405,0,0,0,.288-1.431,10.279,10.279,0,0,1,8.7-13.993l-3.767,3.807a1.313,1.313,0,0,0-.342,1.313l1.93,7.193a1.312,1.312,0,0,0,.919.919l7.193,1.93a1.514,1.514,0,0,0,.342,0,1.312,1.312,0,0,0,.932-.381l3.768-3.768h0a10.279,10.279,0,0,1-13.993,8.7,1.312,1.312,0,0,0-1.431.289L375.9,59.566a1.318,1.318,0,0,0,1.864,1.864l9.635-9.661c9.031,3.163,18.64-5.395,16.579-14.7a1.313,1.313,0,0,0-1.155-1.024,1.392,1.392,0,0,0-1.064.355l-5.251,5.251-5.723-1.536L389.2,34.441l5.251-5.251a1.39,1.39,0,0,0,.354-1.063,1.313,1.313,0,0,0-1-1.234c-9.373-2.022-17.787,7.548-14.649,16.553L369.5,53.121h0a1.313,1.313,0,0,0,.932,2.245Z" transform="translate(448.783 357.577)" fill="#1b54f8" stroke="#fff" stroke-width="0.6"></path><path id="Path_197" data-name="Path 197" d="M129.821,305.92l-9.635,9.635A12.232,12.232,0,0,0,115.631,311l9.648-9.622a1.318,1.318,0,1,0-1.864-1.864l-10.357,10.357c-12.26-3.689-21.528,11.447-12.431,20.688s24.377-.171,20.688-12.418l10.37-10.357a1.318,1.318,0,0,0-1.864-1.864ZM116.365,328.7a9.8,9.8,0,0,1-13.875,0c-6.2-6.025-1.615-16.894,6.931-16.684C117.967,311.8,122.561,322.671,116.365,328.7Z" transform="translate(680.096 125.95)" fill="#1b54f8" stroke="#fff" stroke-width="0.6"></path><path id="Path_198" data-name="Path 198" d="M144.271,405.6a1.313,1.313,0,0,0-1.313-.341L137.6,406.7a1.312,1.312,0,0,0-.932.932l-1.444,5.4h0a1.312,1.312,0,0,0,.341,1.313l3.938,3.938a1.312,1.312,0,0,0,1.313.341l5.395-1.444a1.311,1.311,0,0,0,.932-.932l1.444-5.395h0a1.314,1.314,0,0,0-.342-1.313Zm.512,9.189-3.938,1.063-2.888-2.888,1.063-3.938,3.938-1.05,2.888,2.888Z" transform="translate(647.622 35.789)" fill="#1b54f8" stroke="#fff" stroke-width="0.6"></path></g></g></svg> 