<?xml version="1.0" encoding="UTF-8"?> <svg xmlns="http://www.w3.org/2000/svg" xmlns:xlink="http://www.w3.org/1999/xlink" width="60" height="60" viewBox="0 0 60 60"><defs><clipPath id="clip-path"><rect id="Rectangle_801" data-name="Rectangle 801" width="60" height="60" transform="translate(290 641)" fill="#fff" stroke="#707070" stroke-width="1"></rect></clipPath></defs><g id="Mask_Group_85" data-name="Mask Group 85" transform="translate(-290 -641)" clip-path="url(#clip-path)"><g id="Group_99" data-name="Group 99" transform="translate(61 59)"><path id="Path_155" data-name="Path 155" d="M44.4,34.734l-2.313-.925a14.789,14.789,0,0,0-1.337-3.227l.98-2.292a1.864,1.864,0,0,0-.267-1.941c-.316-.378-.663-.757-1.033-1.127s-.749-.713-1.127-1.034a1.872,1.872,0,0,0-1.939-.267l-2.293.98a14.745,14.745,0,0,0-3.227-1.337l-.925-2.317a1.866,1.866,0,0,0-1.564-1.179,18.028,18.028,0,0,0-3.055,0,1.866,1.866,0,0,0-1.568,1.181l-.925,2.317A14.771,14.771,0,0,0,20.581,24.9l-2.3-.98a1.863,1.863,0,0,0-1.938.273c-.378.316-.758.663-1.127,1.034s-.719.75-1.034,1.127a1.865,1.865,0,0,0-.267,1.939l.98,2.294a14.746,14.746,0,0,0-1.337,3.227l-2.317.925A1.864,1.864,0,0,0,10.068,36.3c-.045.485-.068,1-.068,1.521s.022,1.037.067,1.529a1.864,1.864,0,0,0,1.181,1.563l2.317.925A14.746,14.746,0,0,0,14.9,45.07l-.98,2.293a1.865,1.865,0,0,0,.273,1.939c.314.377.661.756,1.033,1.127s.75.713,1.127,1.034a1.862,1.862,0,0,0,1.939.267l2.293-.98a14.752,14.752,0,0,0,3.227,1.337l.919,2.316A1.866,1.866,0,0,0,26.3,55.583c.492.044,1.005.066,1.527.066s1.035-.022,1.529-.066A1.866,1.866,0,0,0,30.918,54.4l.925-2.313a14.789,14.789,0,0,0,3.227-1.337l2.292.98a1.864,1.864,0,0,0,1.941-.267c.378-.316.757-.663,1.127-1.033s.713-.749,1.034-1.127a1.861,1.861,0,0,0,.267-1.939l-.98-2.294a14.789,14.789,0,0,0,1.337-3.227l2.316-.929a1.866,1.866,0,0,0,1.179-1.564c.044-.493.066-1.007.066-1.528s-.022-1.035-.066-1.529A1.866,1.866,0,0,0,44.4,34.734Zm-.6,4.456a.1.1,0,0,1-.066.068l-2.725,1.1a.891.891,0,0,0-.535.612,12.939,12.939,0,0,1-1.488,3.583.891.891,0,0,0-.055.811L40.1,48.068a.1.1,0,0,1,0,.089c-.283.338-.594.676-.927,1.01s-.672.644-1.009.926a.106.106,0,0,1-.1,0l-2.706-1.159a.886.886,0,0,0-.811.055,12.94,12.94,0,0,1-3.583,1.488.891.891,0,0,0-.612.535l-1.093,2.733a.1.1,0,0,1-.067.066,16.132,16.132,0,0,1-2.737,0,.1.1,0,0,1-.069-.066L25.3,51.017a.891.891,0,0,0-.613-.535A12.947,12.947,0,0,1,21.1,49a.891.891,0,0,0-.461-.128.875.875,0,0,0-.351.072L17.585,50.1a.1.1,0,0,1-.094,0c-.337-.282-.676-.593-1.01-.926s-.645-.674-.925-1.009a.1.1,0,0,1,0-.1l1.159-2.706a.891.891,0,0,0-.056-.811,12.965,12.965,0,0,1-1.487-3.583.891.891,0,0,0-.535-.612l-2.73-1.094a.1.1,0,0,1-.065-.068c-.04-.439-.06-.9-.06-1.368s.02-.93.06-1.368a.1.1,0,0,1,.065-.068L14.635,35.3a.891.891,0,0,0,.535-.612A12.965,12.965,0,0,1,16.656,31.1a.891.891,0,0,0,.056-.811l-1.159-2.707a.1.1,0,0,1,0-.094c.28-.335.591-.675.925-1.009s.673-.644,1.009-.926a.106.106,0,0,1,.1,0l2.706,1.159a.891.891,0,0,0,.812-.056,12.947,12.947,0,0,1,3.584-1.488.891.891,0,0,0,.613-.535l1.091-2.728a.1.1,0,0,1,.068-.066,16.133,16.133,0,0,1,2.737,0,.1.1,0,0,1,.068.066l1.092,2.728a.891.891,0,0,0,.612.535,12.94,12.94,0,0,1,3.583,1.488.891.891,0,0,0,.812.055l2.705-1.159a.112.112,0,0,1,.094,0c.338.283.676.594,1.01.927s.644.672.926,1.009a.1.1,0,0,1,0,.1l-1.159,2.706a.891.891,0,0,0,.055.811,12.94,12.94,0,0,1,1.488,3.583.891.891,0,0,0,.535.612l2.728,1.092a.1.1,0,0,1,.066.067c.039.44.059.9.059,1.369s-.019.93-.058,1.369Z" transform="translate(230.891 582.825)" fill="#1c54f8" stroke="#fff" stroke-width="0.4"></path><path id="Path_156" data-name="Path 156" d="M36.258,31.133c-.008-.008-.019-.011-.027-.019a10.674,10.674,0,0,0-15.071,0c-.009.008-.02.01-.028.019s-.011.019-.019.028a10.673,10.673,0,0,0,0,15.07c.008.009.01.02.019.028s.019.011.028.019a10.674,10.674,0,0,0,15.071,0c.008-.008.019-.011.027-.019s.011-.019.019-.027a10.675,10.675,0,0,0,0-15.072A.163.163,0,0,0,36.258,31.133Zm.459,8.454h.846a8.87,8.87,0,0,1-1.971,4.745L35,43.737A.891.891,0,1,0,33.737,45l.595.594a8.87,8.87,0,0,1-4.745,1.971v-.846a.891.891,0,0,0-1.783,0v.846a8.864,8.864,0,0,1-4.745-1.971L23.653,45a.891.891,0,1,0-1.26-1.26l-.594.595a8.861,8.861,0,0,1-1.971-4.745h.846a.891.891,0,1,0,0-1.783h-.846A8.861,8.861,0,0,1,21.8,33.059l.594.594a.891.891,0,1,0,1.26-1.26l-.595-.594A8.864,8.864,0,0,1,27.8,29.828v.846a.891.891,0,1,0,1.783,0v-.846A8.87,8.87,0,0,1,34.332,31.8l-.594.594A.891.891,0,1,0,35,33.654l.594-.595A8.87,8.87,0,0,1,37.563,37.8h-.846a.891.891,0,1,0,0,1.783Z" transform="translate(230.022 581.956)" fill="#1c54f8" stroke="#fff" stroke-width="0.4"></path><path id="Path_157" data-name="Path 157" d="M32.255,39.889a2.593,2.593,0,0,0-.947-2.748l.989-2.969a.892.892,0,1,0-1.693-.563l-.988,2.961a2.674,2.674,0,1,0,1.645,4.8l.583.39a.891.891,0,1,0,.991-1.481Zm-3.476-.651a.891.891,0,1,1,.891.891A.891.891,0,0,1,28.779,39.239Z" transform="translate(229.047 581.412)" fill="#1c54f8" stroke="#fff" stroke-width="0.4"></path><path id="Path_158" data-name="Path 158" d="M10.521,12.2l1.152-1.152V23.152a.891.891,0,1,0,1.783,0V11.043L14.609,12.2a.891.891,0,1,0,1.26-1.26L13.2,8.261a.891.891,0,0,0-1.26,0L9.261,10.935a.891.891,0,1,0,1.26,1.26Z" transform="translate(231 584.13)" fill="#1c54f8" stroke="#fff" stroke-width="0.4"></path><path id="Path_159" data-name="Path 159" d="M20.565,19.043a.891.891,0,0,0,.891-.891V6.043L22.609,7.2a.891.891,0,1,0,1.26-1.26L21.2,3.261a.891.891,0,0,0-1.26,0L17.261,5.935a.891.891,0,1,0,1.26,1.26l1.152-1.153V18.152A.891.891,0,0,0,20.565,19.043Z" transform="translate(230.13 584.674)" fill="#1c54f8" stroke="#fff" stroke-width="0.4"></path><path id="Path_160" data-name="Path 160" d="M47.2,8.261a.891.891,0,0,0-1.26,0l-2.674,2.674a.891.891,0,1,0,1.26,1.26l1.152-1.153V23.152a.891.891,0,1,0,1.783,0V11.043L48.609,12.2a.891.891,0,1,0,1.26-1.26Z" transform="translate(227.304 584.13)" fill="#1c54f8" stroke="#fff" stroke-width="0.4"></path><path id="Path_161" data-name="Path 161" d="M38.565,19.043a.891.891,0,0,0,.891-.891V6.043L40.609,7.2a.891.891,0,1,0,1.26-1.26L39.2,3.261a.891.891,0,0,0-1.26,0L35.261,5.935a.891.891,0,1,0,1.26,1.26l1.152-1.153V18.152A.891.891,0,0,0,38.565,19.043Z" transform="translate(228.173 584.674)" fill="#1c54f8" stroke="#fff" stroke-width="0.4"></path><path id="Path_162" data-name="Path 162" d="M29.565,16.043a.891.891,0,0,0,.891-.891V3.043L31.609,4.2a.891.891,0,1,0,1.26-1.26L30.2.261a.891.891,0,0,0-1.26,0L26.261,2.935a.891.891,0,1,0,1.26,1.26l1.152-1.153V15.152A.891.891,0,0,0,29.565,16.043Z" transform="translate(229.152 585)" fill="#1c54f8" stroke="#fff" stroke-width="0.4"></path></g></g></svg> 