<?xml version="1.0" encoding="UTF-8"?> <svg xmlns="http://www.w3.org/2000/svg" xmlns:xlink="http://www.w3.org/1999/xlink" width="60" height="60" viewBox="0 0 60 60"><defs><clipPath id="clip-path"><rect id="Rectangle_793" data-name="Rectangle 793" width="60" height="60" transform="translate(415 262)" fill="#fff" stroke="#707070" stroke-width="1"></rect></clipPath></defs><g id="Mask_Group_54" data-name="Mask Group 54" transform="translate(-415 -262)" clip-path="url(#clip-path)"><g id="react-2" transform="translate(242.3 189.955)"><path id="Path_64" data-name="Path 64" d="M229.7,102.05c0-3.577-4.48-6.967-11.348-9.07,1.585-7,.881-12.57-2.223-14.353a4.826,4.826,0,0,0-2.466-.616v2.455a2.549,2.549,0,0,1,1.255.286c1.5.859,2.146,4.128,1.64,8.332-.121,1.035-.319,2.124-.561,3.236a53.341,53.341,0,0,0-6.989-1.2,53.692,53.692,0,0,0-4.579-5.5c3.588-3.335,6.956-5.162,9.246-5.162V78c-3.027,0-6.989,2.157-11,5.9-4.007-3.72-7.969-5.856-11-5.856V80.5c2.278,0,5.658,1.816,9.246,5.129a51.989,51.989,0,0,0-4.546,5.492,51.4,51.4,0,0,0-7,1.211c-.253-1.1-.44-2.168-.572-3.192-.517-4.2.121-7.474,1.607-8.343a2.45,2.45,0,0,1,1.266-.286V78.055a4.908,4.908,0,0,0-2.488.616c-3.093,1.783-3.786,7.342-2.19,14.32-6.846,2.113-11.3,5.492-11.3,9.059s4.48,6.967,11.348,9.07c-1.585,7-.881,12.57,2.223,14.353a4.839,4.839,0,0,0,2.477.616c3.027,0,6.989-2.157,11-5.9,4.007,3.72,7.969,5.856,11,5.856a4.908,4.908,0,0,0,2.488-.616c3.093-1.783,3.786-7.342,2.19-14.32C225.242,109.007,229.7,105.616,229.7,102.05Zm-14.331-7.342c-.407,1.42-.914,2.884-1.486,4.348-.451-.881-.925-1.761-1.442-2.642s-1.046-1.739-1.585-2.576C212.419,94.07,213.927,94.356,215.369,94.709Zm-5.041,11.722c-.859,1.486-1.739,2.895-2.653,4.2-1.64.143-3.3.22-4.975.22s-3.324-.077-4.953-.209q-1.37-1.965-2.664-4.183-1.255-2.163-2.289-4.381c.682-1.475,1.453-2.95,2.278-4.392.859-1.486,1.739-2.895,2.653-4.2,1.64-.143,3.3-.22,4.975-.22s3.324.077,4.953.209q1.37,1.965,2.664,4.183,1.255,2.163,2.289,4.381C211.913,103.514,211.153,104.989,210.328,106.431ZM213.883,105c.594,1.475,1.1,2.95,1.519,4.381-1.442.352-2.961.649-4.535.881.539-.848,1.079-1.717,1.585-2.609S213.432,105.881,213.883,105Zm-11.161,11.744a45.377,45.377,0,0,1-3.06-3.522c.991.044,2,.077,3.027.077s2.058-.022,3.06-.077A42.963,42.963,0,0,1,202.722,116.744Zm-8.189-6.483c-1.563-.231-3.071-.517-4.513-.87.407-1.42.914-2.884,1.486-4.348.451.881.925,1.761,1.442,2.642S193.994,109.425,194.533,110.261Zm8.134-22.905a45.38,45.38,0,0,1,3.06,3.522c-.991-.044-2-.077-3.027-.077s-2.058.022-3.06.077A42.966,42.966,0,0,1,202.667,87.356Zm-8.145,6.483c-.539.848-1.079,1.717-1.585,2.609s-.98,1.761-1.431,2.642c-.594-1.475-1.1-2.95-1.519-4.381,1.442-.341,2.961-.638,4.535-.87Zm-9.961,13.781c-3.9-1.662-6.417-3.841-6.417-5.57s2.521-3.918,6.417-5.57c.947-.407,1.981-.77,3.049-1.112a52.864,52.864,0,0,0,2.477,6.7,52.116,52.116,0,0,0-2.444,6.67C186.553,108.4,185.518,108.027,184.561,107.62Zm5.922,15.729c-1.5-.859-2.146-4.128-1.64-8.332.121-1.035.319-2.124.561-3.236a53.343,53.343,0,0,0,6.989,1.2,53.693,53.693,0,0,0,4.579,5.5c-3.588,3.335-6.956,5.162-9.246,5.162A2.627,2.627,0,0,1,190.482,123.349Zm26.108-8.387c.517,4.2-.121,7.474-1.607,8.343a2.449,2.449,0,0,1-1.266.286c-2.278,0-5.658-1.816-9.246-5.129a51.985,51.985,0,0,0,4.546-5.492,51.4,51.4,0,0,0,7-1.211A30.814,30.814,0,0,1,216.591,114.961Zm4.238-7.342c-.947.407-1.981.77-3.049,1.112a52.871,52.871,0,0,0-2.477-6.7,52.116,52.116,0,0,0,2.444-6.67c1.09.341,2.124.715,3.093,1.123,3.9,1.662,6.417,3.841,6.417,5.57S224.725,105.969,220.828,107.62Z" fill="#61dafb"></path><circle id="Ellipse_17" data-name="Ellipse 17" cx="5.03" cy="5.03" r="5.03" transform="translate(197.659 97.02)" fill="#61dafb"></circle></g></g></svg> 