<?xml version="1.0" encoding="UTF-8"?> <svg xmlns="http://www.w3.org/2000/svg" xmlns:xlink="http://www.w3.org/1999/xlink" width="90" height="90" viewBox="0 0 90 90"><defs><clipPath id="clip-path"><rect id="Rectangle_16" data-name="Rectangle 16" width="90" height="90" transform="translate(578 749)" fill="#fff" stroke="#707070" stroke-width="1"></rect></clipPath></defs><g id="Mask_Group_16" data-name="Mask Group 16" transform="translate(-578 -749)" clip-path="url(#clip-path)"><g id="Group_17" data-name="Group 17" transform="translate(89.936 -183)"><path id="Path_23" data-name="Path 23" d="M21.128,39.954a15.067,15.067,0,0,1,14.905,12.87h5.309V40.939a.986.986,0,0,1,.986-.985h7.3a.986.986,0,0,1,.986.985V52.825h1.011V42.144a.985.985,0,0,1,.986-.985h7.3a.985.985,0,0,1,.985.985v2.638h5.459V39.154a.986.986,0,0,1,.986-.986h4.169V35.724a7.629,7.629,0,0,1-5.646-3.731,7.7,7.7,0,0,1-13.258,0,7.7,7.7,0,0,1-13.259,0,7.7,7.7,0,0,1-13.258,0,7.629,7.629,0,0,1-5.646,3.731v4.245q.337-.015.674-.015ZM72.263,58.128H39.094V70.814h33.17Zm-34.155-1.97h35.14a.985.985,0,0,1,.985.985V71.8a.986.986,0,0,1-.985.986H38.109a.986.986,0,0,1-.986-.986V57.143A.985.985,0,0,1,38.109,56.158ZM15.815,45.1a4.635,4.635,0,1,1-4.635,4.635A4.635,4.635,0,0,1,15.815,45.1ZM17.7,47.852a2.665,2.665,0,1,0,0,3.769,2.665,2.665,0,0,0,0-3.769Zm9.229,7.068a4.635,4.635,0,1,1-4.635,4.635,4.635,4.635,0,0,1,4.635-4.635Zm1.885,2.751a2.665,2.665,0,1,0,0,3.769,2.665,2.665,0,0,0,0-3.769ZM15.422,62.206a.982.982,0,0,1-1.47-1.3l11.5-12.949a.982.982,0,1,1,1.47,1.3L15.422,62.2Zm45.6-9.381V46.757h5.33v6.067Zm-7.43,0v-9.7h5.335v9.7Zm-10.281,0v-10.9H48.65v10.9Zm25.011,0V40.139h5.331V52.825Zm7.3,0H76.8a.985.985,0,0,1,.985.985V75.13a.985.985,0,0,1-.985.988H14.374a.986.986,0,0,1-.986-.986V67.944a15.068,15.068,0,0,1,5.094-27.758V35.727A7.492,7.492,0,0,1,11.993,26.9a7.416,7.416,0,0,1,.458-1.468L18.42,12.6a.984.984,0,0,1,.919-.63H72.221a.983.983,0,0,1,1.264.5l6,12.893a7.42,7.42,0,0,1-6,10.365v2.444h1.16a.985.985,0,0,1,.985.986V52.825Zm1.483-27.9L72,13.938H19.962l-5.1,10.985ZM67.045,26.9H77.951a5.609,5.609,0,1,1-10.906,0Zm-13.255,0h10.9a5.609,5.609,0,1,1-10.9,0Zm-13.258,0h10.9a5.609,5.609,0,1,1-10.9,0Zm-13.258,0h10.9a5.609,5.609,0,1,1-10.9,0Zm-2.354,0a5.529,5.529,0,0,1-5.452,6.923A5.53,5.53,0,0,1,14.016,26.9ZM36.194,54.8H75.812V74.146H15.359V68.938A15.072,15.072,0,0,0,36.191,54.8Zm-5.808-9.04a13.094,13.094,0,1,1-18.517,0,13.094,13.094,0,0,1,18.517,0Z" transform="translate(490 933.106)" fill="#1c54f8" fill-rule="evenodd"></path></g></g></svg> 