<?xml version="1.0" encoding="UTF-8"?> <svg xmlns="http://www.w3.org/2000/svg" xmlns:xlink="http://www.w3.org/1999/xlink" width="90" height="90" viewBox="0 0 90 90"><defs><clipPath id="clip-path"><rect id="Rectangle_29" data-name="Rectangle 29" width="90" height="90" transform="translate(613 1239)" fill="#fff" stroke="#707070" stroke-width="1"></rect></clipPath></defs><g id="Mask_Group_25" data-name="Mask Group 25" transform="translate(-613 -1239)" clip-path="url(#clip-path)"><path id="Path_68" data-name="Path 68" d="M66.456,12.354H64.94V8.413a3.337,3.337,0,0,0-3.335-3.335H20.376a3.337,3.337,0,0,0-3.335,3.335v3.941H15.525a5.765,5.765,0,0,0-5.76,5.76v38.8a5.765,5.765,0,0,0,5.76,5.76H33.706L30.613,72.985H26.439a.909.909,0,0,0,0,1.819h29.1a.909.909,0,0,0,0-1.819H51.368L48.275,62.678H66.456a5.765,5.765,0,0,0,5.76-5.76v-38.8a5.765,5.765,0,0,0-5.76-5.76ZM18.86,8.413A1.516,1.516,0,0,1,20.376,6.9H61.605a1.516,1.516,0,0,1,1.516,1.516V60.859H18.86ZM11.584,56.918v-38.8a3.945,3.945,0,0,1,3.941-3.941h1.516V60.859H15.525a3.945,3.945,0,0,1-3.941-3.941ZM49.469,72.985H32.51L35.6,62.678H46.377ZM70.4,56.918a3.945,3.945,0,0,1-3.941,3.941H64.94V14.173h1.516A3.945,3.945,0,0,1,70.4,18.114ZM26.742,43.579a.908.908,0,0,1,.909-.909H54.329a.909.909,0,0,1,0,1.819H27.651a.908.908,0,0,1-.909-.909Zm0,7.276a.908.908,0,0,1,.909-.909H54.329a.909.909,0,0,1,0,1.819H27.651a.908.908,0,0,1-.909-.909Zm.909-36.682h3.823a.3.3,0,0,1,.3.255l.437,2.613,0,.024,1.649,9.889a2.114,2.114,0,0,0,2.092,1.774H47.293a2.1,2.1,0,0,0,2.071-1.661l1.886-8.489a2.121,2.121,0,0,0-2.071-2.583h-15.3l-.312-1.864a2.114,2.114,0,0,0-2.092-1.774H27.651a.909.909,0,0,0,0,1.819ZM49.178,17.81a.3.3,0,0,1,.236.112.3.3,0,0,1,.061.255L47.59,26.666a.3.3,0,0,1-.3.236H35.955a.3.3,0,0,1-.3-.255l-1.473-8.84h15ZM47.66,32.665a1.819,1.819,0,1,1-1.819-1.819A1.82,1.82,0,0,1,47.66,32.665Zm-8.489,0a1.819,1.819,0,1,1-1.819-1.819A1.82,1.82,0,0,1,39.171,32.665Z" transform="translate(617.235 1243.922)" fill="#1c54f8"></path></g></svg> 