<?xml version="1.0" encoding="UTF-8"?> <svg xmlns="http://www.w3.org/2000/svg" xmlns:xlink="http://www.w3.org/1999/xlink" width="90" height="90" viewBox="0 0 90 90"><defs><clipPath id="clip-path"><rect id="Rectangle_19" data-name="Rectangle 19" width="90" height="90" transform="translate(1183 749)" fill="#fff" stroke="#707070" stroke-width="1"></rect></clipPath></defs><g id="Mask_Group_19" data-name="Mask Group 19" transform="translate(-1183 -749)" clip-path="url(#clip-path)"><path id="Path_32" data-name="Path 32" d="M98.319,41.767,76.172,32.7,54.021,41.767l22.151,9.071L86.218,46.72l-7.277-2.978c-2.483,1.488-6.839.472-6.839-1.975,0-2.425,4.277-3.451,6.776-2.01a2.182,2.182,0,0,1,1.2,2.769l8.19,3.352ZM74.106,80.007l3.778,5.509,13.174-9.03-3.773-5.509Zm2.332,6.159-3.455-5.05a11.322,11.322,0,0,0-1.587,4.8,11.381,11.381,0,0,0,5.042.252ZM88.564,70.1l3.778,5.509,2.589-1.777-3.773-5.5Zm3.874-2.651,3.773,5.5,2.567-1.758c2.536-1.736-1.233-7.25-3.773-5.5Zm-15.2,20.106a12.7,12.7,0,0,1-6.906-.327.778.778,0,0,1-.544-.835c.173-2.4,1.078-6.049,3.287-7.563l4.175-2.858V59.274a25.154,25.154,0,0,1-5.606-.4v7.1a.781.781,0,0,1-.782.782H46.949a.777.777,0,0,1-.778-.782V57.966a.776.776,0,0,1,.778-.778H66.131a26.765,26.765,0,0,1-4.881-2.757.782.782,0,0,1-.323-.636l0-7.528-9.247-3.786a.778.778,0,0,1,0-1.435l.385-.154H41.218V91.482H73.026a4.241,4.241,0,0,0,4.211-3.929ZM78.809,74.9,94.126,64.4a3.757,3.757,0,0,1,4.647.438c2.271,1.816,3.631,5.752.884,7.638L78.809,86.766v.491a5.8,5.8,0,0,1-5.784,5.784H50.474v7.369a.78.78,0,0,1-1.163.676l-4.245-2.4-4.192,2.372a.78.78,0,0,1-1.216-.645V93.04H36.864a5.8,5.8,0,0,1-5.784-5.784V45.115a5.8,5.8,0,0,1,5.784-5.784H55.87l20.008-8.195a.774.774,0,0,1,.588,0l24.2,9.909a.777.777,0,0,1,0,1.435l-9.247,3.786v7.528a.773.773,0,0,1-.385.672q-.975.7-1.984,1.3v3.622a3.394,3.394,0,1,1-1.56.014V56.61a25.217,25.217,0,0,1-8.681,2.55ZM89.594,61.4a1.832,1.832,0,1,0,0,2.59,1.833,1.833,0,0,0,0-2.59ZM89.05,47.241v6.7c.27-.173.544-.354.809-.539v-6.49Zm-1.559,7.62V47.88L76.465,52.395a.774.774,0,0,1-.588,0l-13.4-5.487v6.485A23.733,23.733,0,0,0,87.492,54.86ZM78.108,41.1c-1.693-.973-4.445-.19-4.445.667s2.752,1.64,4.445.662c.759-.432.759-.891,0-1.329ZM48.914,93.039h-7.7v6.035l3.463-1.962a.775.775,0,0,1,.778,0l3.455,1.957Zm5.5-10.991a.778.778,0,0,1,0-1.555H63.4a.778.778,0,0,1,0,1.555Zm-4.3,4.489a.778.778,0,0,1,0-1.555H67.694a.778.778,0,0,1,0,1.555ZM70.085,58.749H47.726V65.2H70.085ZM39.66,40.891h-2.8a4.235,4.235,0,0,0-4.224,4.224V87.257a4.238,4.238,0,0,0,4.224,4.224h2.8Z" transform="translate(1161.42 727.421)" fill="#1c54f8" stroke="#1c54f8" stroke-width="0.4"></path></g></svg> 