<?xml version="1.0" encoding="UTF-8"?> <svg xmlns="http://www.w3.org/2000/svg" xmlns:xlink="http://www.w3.org/1999/xlink" width="90" height="90" viewBox="0 0 90 90"><defs><clipPath id="clip-path"><rect id="Rectangle_18" data-name="Rectangle 18" width="90" height="90" transform="translate(980 749)" fill="#fff" stroke="#707070" stroke-width="1"></rect></clipPath></defs><g id="Mask_Group_18" data-name="Mask Group 18" transform="translate(-980 -749)" clip-path="url(#clip-path)"><g id="Group_19" data-name="Group 19" transform="translate(42.108 -215)"><path id="Path_25" data-name="Path 25" d="M60.17,59.769h-.054L36.483,59.51a4.813,4.813,0,0,1-4.763-4.87l.169-14.721A4.823,4.823,0,0,1,36.7,35.16h.053l23.633.258a4.814,4.814,0,0,1,4.762,4.871L64.984,55.01A4.82,4.82,0,0,1,60.17,59.769ZM36.7,36.91a3.068,3.068,0,0,0-3.064,3.029l-.169,14.722a3.063,3.063,0,0,0,3.03,3.1l23.634.258h.034a3.067,3.067,0,0,0,3.063-3.028L63.4,40.269a3.064,3.064,0,0,0-3.03-3.1L36.737,36.91Z" transform="translate(934.852 960.95)" fill="#1c54f8"></path><path id="Path_26" data-name="Path 26" d="M56.818,36.353l-13.364-.146.025-2.252a4.958,4.958,0,0,1,5.021-4.91l3.429.037a4.967,4.967,0,0,1,4.912,5.025ZM45.225,34.475l9.863.108.005-.5a3.215,3.215,0,0,0-3.181-3.253L48.483,30.8a3.187,3.187,0,0,0-3.251,3.179Z" transform="translate(933.391 961.712)" fill="#1c54f8"></path><rect id="Rectangle_27" data-name="Rectangle 27" width="23.219" height="1.751" transform="translate(974.343 1020.342) rotate(-89.33)" fill="#1c54f8"></rect><rect id="Rectangle_28" data-name="Rectangle 28" width="22.222" height="1.751" transform="translate(990.398 1019.52) rotate(-89.33)" fill="#1c54f8"></rect><path id="Path_27" data-name="Path 27" d="M71.824,65.7H22.239V32.062A24.467,24.467,0,0,1,46.679,7.621h.7a24.468,24.468,0,0,1,24.44,24.441ZM23.99,63.948H70.073V32.062A22.715,22.715,0,0,0,47.383,9.372h-.7A22.714,22.714,0,0,0,23.99,32.062V63.948Z" transform="translate(936.032 964.379)" fill="#1c54f8"></path><path id="Path_28" data-name="Path 28" d="M77.261,82.163H14.952V72.023H77.261ZM16.7,80.412H75.51V73.774H16.7Z" transform="translate(936.94 956.361)" fill="#1c54f8"></path><path id="Path_29" data-name="Path 29" d="M28.549,91.1a4.5,4.5,0,1,1,4.5-4.5A4.508,4.508,0,0,1,28.549,91.1Zm0-7.254A2.752,2.752,0,1,0,31.3,86.6,2.755,2.755,0,0,0,28.549,83.844Z" transform="translate(935.807 955.107)" fill="#1c54f8"></path><path id="Path_30" data-name="Path 30" d="M70.858,91.1a4.5,4.5,0,1,1,4.5-4.5A4.508,4.508,0,0,1,70.858,91.1Zm0-7.254A2.752,2.752,0,1,0,73.61,86.6,2.756,2.756,0,0,0,70.858,83.844Z" transform="translate(930.54 955.107)" fill="#1c54f8"></path><rect id="Rectangle_29" data-name="Rectangle 29" width="37.154" height="1.751" transform="translate(965.9 1032.579)" fill="#1c54f8"></rect><path id="Path_31" data-name="Path 31" d="M68.784,71.914H25.954V61.849h42.83ZM27.705,70.163H67.033V63.6H27.705Z" transform="translate(935.57 957.628)" fill="#1c54f8"></path><rect id="Rectangle_30" data-name="Rectangle 30" width="1.751" height="8.572" transform="translate(966.493 1020.631)" fill="#1c54f8"></rect><rect id="Rectangle_31" data-name="Rectangle 31" width="1.751" height="8.85" transform="translate(997.83 1020.352)" fill="#1c54f8"></rect></g></g></svg> 