<?xml version="1.0" encoding="UTF-8"?> <svg xmlns="http://www.w3.org/2000/svg" xmlns:xlink="http://www.w3.org/1999/xlink" width="90" height="90" viewBox="0 0 90 90"><defs><clipPath id="clip-path"><rect id="Rectangle_28" data-name="Rectangle 28" width="90" height="90" transform="translate(340 1239)" fill="#fff" stroke="#707070" stroke-width="1"></rect></clipPath></defs><g id="Mask_Group_24" data-name="Mask Group 24" transform="translate(-340 -1239)" clip-path="url(#clip-path)"><g id="Group_18" data-name="Group 18" transform="translate(343.75 1242.406)"><path id="Path_62" data-name="Path 62" d="M28.788,71.2v2.5a1.252,1.252,0,0,0,1.252,1.252H75.118a1.252,1.252,0,0,0,1.252-1.252V66.193a1.252,1.252,0,0,0-1.252-1.252H72.482V41.149A1.254,1.254,0,0,0,71.23,39.9H61.9a1.254,1.254,0,0,0-1.252,1.252V64.941H58.5V48.663a1.254,1.254,0,0,0-1.252-1.252H53.831V9.847a1.252,1.252,0,0,0-1.252-1.252H7.5A1.252,1.252,0,0,0,6.25,9.847v60.1A1.252,1.252,0,0,0,7.5,71.2Zm45.077-3.756v5.009H31.293V67.445ZM51.327,47.411V11.1H8.754V68.7H28.788v-2.5a1.252,1.252,0,0,1,1.252-1.252h2.636V43.655A1.254,1.254,0,0,1,33.929,42.4h9.329a1.254,1.254,0,0,1,1.252,1.252V64.941h2.154V48.663a1.254,1.254,0,0,1,1.252-1.252Zm-2.16,2.5h6.824V64.941H49.167V49.915ZM42,44.906V64.941H35.181V44.906Zm27.973-2.5V64.941H63.153V42.4Z" fill="#1c54f8" stroke="#fff" stroke-width="1" fill-rule="evenodd"></path><path id="Path_63" data-name="Path 63" d="M46.565,27.059a1.252,1.252,0,0,0-1.252,1.252v12.75a1.252,1.252,0,0,0,1.252,1.252h7.513a1.252,1.252,0,0,0,1.252-1.252V28.311a1.252,1.252,0,0,0-1.252-1.252Zm1.252,2.5h5.009V39.809H47.817Z" transform="translate(-7.759 -3.668)" fill="#1c54f8" stroke="#fff" stroke-width="1" fill-rule="evenodd"></path><path id="Path_64" data-name="Path 64" d="M30.94,22.516a1.252,1.252,0,0,0-1.252,1.252v16.39a1.252,1.252,0,0,0,1.252,1.252h7.513A1.252,1.252,0,0,0,39.7,40.159V23.768a1.252,1.252,0,0,0-1.252-1.252Zm1.252,2.5H37.2V38.907H32.192Z" transform="translate(-4.655 -2.765)" fill="#1c54f8" stroke="#fff" stroke-width="1" fill-rule="evenodd"></path><path id="Path_65" data-name="Path 65" d="M15.315,17.969a1.252,1.252,0,0,0-1.252,1.252V39.255a1.252,1.252,0,0,0,1.252,1.252h7.513a1.252,1.252,0,0,0,1.252-1.252V19.221a1.252,1.252,0,0,0-1.252-1.252Zm1.252,2.5h5.009V38H16.567Z" transform="translate(-1.552 -1.862)" fill="#1c54f8" stroke="#fff" stroke-width="1" fill-rule="evenodd"></path><path id="Path_66" data-name="Path 66" d="M14.819,57.686l2.338,2.338a1.254,1.254,0,0,0,1.772,0l6.427-6.43a1.253,1.253,0,0,0-1.772-1.772l-5.541,5.544-1.452-1.452a1.253,1.253,0,1,0-1.772,1.772Z" transform="translate(-1.629 -8.514)" fill="#1c54f8" stroke="#fff" stroke-width="1" fill-rule="evenodd"></path><path id="Path_67" data-name="Path 67" d="M14.819,74.2l2.338,2.335a1.254,1.254,0,0,0,1.772,0l6.427-6.427a1.253,1.253,0,0,0-1.772-1.772l-5.541,5.541-1.452-1.449A1.253,1.253,0,0,0,14.819,74.2Z" transform="translate(-1.629 -11.793)" fill="#1c54f8" stroke="#fff" stroke-width="1" fill-rule="evenodd"></path></g></g></svg> 