<?xml version="1.0" encoding="UTF-8"?> <svg xmlns="http://www.w3.org/2000/svg" xmlns:xlink="http://www.w3.org/1999/xlink" width="90" height="90" viewBox="0 0 90 90"><defs><clipPath id="clip-path"><rect id="Rectangle_27" data-name="Rectangle 27" width="90" height="90" transform="translate(84 1239)" fill="#fff" stroke="#707070" stroke-width="1"></rect></clipPath></defs><g id="Mask_Group_23" data-name="Mask Group 23" transform="translate(-84 -1239)" clip-path="url(#clip-path)"><path id="Path_61" data-name="Path 61" d="M74.935,31.736V46.025a4.7,4.7,0,0,1-4.69,4.69h-16.9v16.9a4.7,4.7,0,0,1-4.69,4.69H34.36a4.7,4.7,0,0,1-4.69-4.69v-16.9h-16.9a4.7,4.7,0,0,1-4.69-4.69v-.636a1.156,1.156,0,0,1,2.311,0v.636a2.385,2.385,0,0,0,2.385,2.385H30.823a1.156,1.156,0,0,1,1.156,1.155V67.616A2.385,2.385,0,0,0,34.364,70H48.65a2.385,2.385,0,0,0,2.385-2.385V49.563a1.155,1.155,0,0,1,1.155-1.155H70.244a2.385,2.385,0,0,0,2.385-2.385V31.736a2.385,2.385,0,0,0-2.385-2.385H52.188A1.155,1.155,0,0,1,51.033,28.2V10.144a2.385,2.385,0,0,0-2.385-2.385H34.36a2.385,2.385,0,0,0-2.385,2.385V28.2a1.156,1.156,0,0,1-1.156,1.155H12.766a2.385,2.385,0,0,0-2.385,2.385v6a1.156,1.156,0,0,1-2.311,0V31.736a4.7,4.7,0,0,1,4.69-4.69H29.668v-16.9a4.7,4.7,0,0,1,4.69-4.69H48.65a4.7,4.7,0,0,1,4.69,4.69v16.9h16.9A4.7,4.7,0,0,1,74.935,31.736ZM20.477,42.048l3.362-7.314L28.4,46.515a1.156,1.156,0,0,0,2.136.045L37.1,31.545l6.36,26.122a1.155,1.155,0,0,0,1.065.882h.06a1.156,1.156,0,0,0,1.088-.769l6.4-18.025H64.234a1.155,1.155,0,1,0,0-2.31H51.263a1.156,1.156,0,0,0-1.089.769L44.792,53.361l-6.256-25.69a1.155,1.155,0,0,0-2.181-.189L29.544,43.064,25.009,31.355a1.156,1.156,0,0,0-2.127-.065l-4.194,9.121H2.155a1.155,1.155,0,0,0,0,2.31H19.428A1.154,1.154,0,0,0,20.477,42.048Z" transform="translate(91 1245.546)" fill="#1c54f8" stroke="#fff" stroke-width="0.4"></path></g></svg> 