<?xml version="1.0" encoding="UTF-8"?> <svg xmlns="http://www.w3.org/2000/svg" xmlns:xlink="http://www.w3.org/1999/xlink" width="90" height="90" viewBox="0 0 90 90"><defs><clipPath id="clip-path"><rect id="Rectangle_33" data-name="Rectangle 33" width="90" height="90" transform="translate(84 1437)" fill="#fff" stroke="#707070" stroke-width="1"></rect></clipPath></defs><g id="Mask_Group_29" data-name="Mask Group 29" transform="translate(-84 -1437)" clip-path="url(#clip-path)"><path id="Path_75" data-name="Path 75" d="M56.807,68.979a1.022,1.022,0,0,0,.47.094,1.336,1.336,0,0,0,.564-.188L66.015,64a1.121,1.121,0,0,0,.47-.846.987.987,0,0,0-.47-.846L57.84,57.421a1.018,1.018,0,0,0-1.034,0,1.251,1.251,0,0,0-.564.846V68.04A.943.943,0,0,0,56.807,68.979Zm1.5-8.833,5.168,3.1-5.168,3.1ZM36.416,26.225H46.565a1.034,1.034,0,0,0,0-2.067H36.416a1.043,1.043,0,0,0-1.034,1.034A.986.986,0,0,0,36.416,26.225Zm0,8.269H56.337a1.034,1.034,0,0,0,0-2.067H36.416a1.034,1.034,0,0,0,0,2.067ZM21.946,66.818a4.51,4.51,0,1,0,0-9.021,4.51,4.51,0,1,0,0,9.021Zm0-7.047a2.537,2.537,0,1,1-2.537,2.537A2.654,2.654,0,0,1,21.946,59.771ZM84.433,39.944H66.485V25a1.067,1.067,0,0,0-.282-.752L54.552,12.882A1.067,1.067,0,0,0,53.8,12.6H28.053a1.043,1.043,0,0,0-1.034,1.034V51.972H11.234A1.043,1.043,0,0,0,10.2,53.005V81.759a1.043,1.043,0,0,0,1.034,1.034H46.471A1.043,1.043,0,0,0,47.5,81.759V78.376H84.339a1.043,1.043,0,0,0,1.034-1.034V40.978A.966.966,0,0,0,84.433,39.944ZM54.552,15.795,63.2,24.252H54.552V15.795ZM29.087,14.667h23.4V25.191a1.043,1.043,0,0,0,1.034,1.034h10.9V39.944h-28a1.043,1.043,0,0,0-1.034,1.034V51.6a.565.565,0,0,0,.094.376h-6.39ZM45.531,80.819H12.267v-1.6l7.141-7.141,3.665,3.665a1.022,1.022,0,0,0,1.409,0L36.134,64.093l9.4,9.4Zm0-10.242-8.645-8.645a1.022,1.022,0,0,0-1.409,0L23.825,73.584,20.16,69.919a1.022,1.022,0,0,0-1.409,0l-6.39,6.39V54.039h33.17ZM83.4,76.4H47.5v-23.4a1.043,1.043,0,0,0-1.034-1.034H37.356c0-.094.094-.282.094-.376V49.153H83.4V76.4Zm0-29.223H37.45V42.011H83.4v5.168Z" transform="translate(80.8 1434.4)" fill="#1c54f8"></path></g></svg> 