<?xml version="1.0" encoding="UTF-8"?> <svg xmlns="http://www.w3.org/2000/svg" xmlns:xlink="http://www.w3.org/1999/xlink" width="60" height="60" viewBox="0 0 60 60"><defs><clipPath id="clip-path"><rect id="Rectangle_811" data-name="Rectangle 811" width="60" height="60" transform="translate(137 262)" fill="#fff" stroke="#707070" stroke-width="1"></rect></clipPath></defs><g id="Mask_Group_48" data-name="Mask Group 48" transform="translate(-137 -262)" clip-path="url(#clip-path)"><path id="SpaCy_logo" d="M6.808,328.4c-1.23-.146-1.321-1.8-2.9-1.65-.766,0-1.476.319-1.476,1.021,0,1.057,1.631,1.157,2.616,1.422,1.677.51,3.3.857,3.3,2.679,0,2.315-1.814,3.117-4.211,3.117-2.005,0-4.037-.711-4.037-2.552a.975.975,0,0,1,.966-.911.985.985,0,0,1,1.021.674,2.213,2.213,0,0,0,2.278,1.258c.82,0,1.659-.31,1.659-1.021,0-1.012-1.03-1.23-2.1-1.476-1.887-.529-3.509-.8-3.7-2.9-.2-3.573,7.245-3.709,7.674-.574A1.008,1.008,0,0,1,6.808,328.4Zm8.859-3.135c2.616,0,4.1,2.187,4.1,4.885s-1.44,4.885-4.1,4.885a3.448,3.448,0,0,1-3.062-1.595v3.573c0,1.075-.346,1.595-1.13,1.595-.957,0-1.13-.611-1.13-1.595v-10.39c0-.848.355-1.367,1.13-1.367.729,0,1.13.574,1.13,1.367v.292A3.664,3.664,0,0,1,15.666,325.263Zm-.62,7.911c1.531,0,2.215-1.413,2.215-3.062,0-1.613-.693-3.062-2.215-3.062-1.595,0-2.333,1.312-2.333,3.062C12.713,331.816,13.461,333.174,15.047,333.174Zm6.5-5.359c0-1.877,2.16-2.552,4.256-2.552,2.944,0,4.156.857,4.156,3.7V331.7c0,.647.4,1.941.4,2.333a1.043,1.043,0,0,1-1.13.966c-.647,0-1.13-.766-1.476-1.312A5.242,5.242,0,0,1,24.233,335c-1.713,0-3.062-1.012-3.062-2.679A2.679,2.679,0,0,1,23.5,329.7c0,.009,4.1-.966,4.1-.975,0-1.258-.447-1.814-1.768-1.814a2.275,2.275,0,0,0-2.215,1.021c-.365.529-.319.848-1.021.848A1.006,1.006,0,0,1,21.545,327.815Zm3.5,5.641c1.8,0,2.552-.948,2.552-2.834v-.4c-.483.164-2.433.647-2.962.729a1.285,1.285,0,0,0-1.13,1.194A1.5,1.5,0,0,0,25.044,333.457ZM38.232,321.7c2.534,0,5.277,1.513,5.277,3.919a1.1,1.1,0,0,1-1.075,1.13c-.829,0-.948-.447-1.312-1.075a2.983,2.983,0,0,0-2.9-1.868c-2.424-.018-3.509,2.06-3.509,4.648,0,2.607.9,4.484,3.409,4.484a3.1,3.1,0,0,0,3.062-2.215c.191-.574.538-1.13,1.258-1.13a1.233,1.233,0,0,1,1.13,1.194c0,2.552-2.607,4.32-5.286,4.32-2.935,0-4.593-1.239-5.5-3.3a7.787,7.787,0,0,1-.729-3.409c-.018-3.955,2.288-6.7,6.179-6.7Zm14.491,3.563a.968.968,0,0,1,1.021,1.075,5.573,5.573,0,0,1-.292,1.075l-3.117,8.193c-.693,1.777-1.212,3.008-3.573,3.008-1.121,0-2.1-.1-2.1-1.075,0-.565.428-.848,1.021-.848.109,0,.292.055.4.055.173,0,.292.055.4.055,1.185,0,1.349-1.212,1.768-2.051L45.249,327.3a2.607,2.607,0,0,1-.292-.911,1.129,1.129,0,0,1,1.194-1.13c.766,0,1.066.6,1.258,1.258l1.987,5.906,1.987-5.459C51.684,326.12,51.711,325.263,52.723,325.263Z" transform="translate(139.9 -37.7)" fill="#09a3d5"></path></g></svg> 