<?xml version="1.0" encoding="UTF-8"?> <svg xmlns="http://www.w3.org/2000/svg" xmlns:xlink="http://www.w3.org/1999/xlink" width="60" height="60" viewBox="0 0 60 60"><defs><clipPath id="clip-path"><rect id="Rectangle_651" data-name="Rectangle 651" width="60" height="60" transform="translate(2122 394)" fill="#b44444"></rect></clipPath></defs><g id="Mask_Group_24" data-name="Mask Group 24" transform="translate(-2122 -394)" clip-path="url(#clip-path)"><g id="Group_31" data-name="Group 31"><rect id="Rectangle_650" data-name="Rectangle 650" width="60" height="60" transform="translate(2122 394)" fill="#fff"></rect><g id="mysql-logo" transform="translate(2130.458 387.42)"><path id="Path_2" data-name="Path 2" d="M-18.458,6.58H62.776v56.3H-18.458Z" fill="none"></path><path id="Path_3" data-name="Path 3" d="M21.513,95.8h-2.2q-.117-5.568-.642-10.472h-.02L15.3,95.8H13.629L10.3,85.332h-.019q-.37,4.71-.467,10.472h-2Q8,88.8,8.783,82.664h2.726l3.172,9.655h.02l3.192-9.655H20.5q.857,7.183,1.012,13.14m9.538-9.694Q29.707,93.4,27.507,96.7q-1.713,2.545-3.757,2.546a3.693,3.693,0,0,1-1.343-.327V97.75a6.468,6.468,0,0,0,.915.059,2.21,2.21,0,0,0,1.538-.526,1.919,1.919,0,0,0,.7-1.44,9.58,9.58,0,0,0-.545-2.239L22.6,86.109h2.161L26.5,91.714a7.564,7.564,0,0,1,.487,2.668,36.615,36.615,0,0,0,1.986-8.273H31.05Z" transform="translate(-15.105 -43.751)" fill="#5d87a1"></path><path id="Path_4" data-name="Path 4" d="M93.642,95.539H87.395V82.4h2.1V93.922h4.146Zm-7.882.317-2.416-1.192a4.489,4.489,0,0,0,.6-.587,8.066,8.066,0,0,0,1.539-5.352q0-6.521-5.119-6.522a4.848,4.848,0,0,0-3.913,1.655,8.042,8.042,0,0,0-1.538,5.334q0,3.465,1.362,5.079a4.668,4.668,0,0,0,3.758,1.461,6.055,6.055,0,0,0,1.72-.231L84.9,97.333ZM77.934,92.91a8.1,8.1,0,0,1-.8-4.125q0-4.963,3.017-4.965a2.531,2.531,0,0,1,2.316,1.187,8.017,8.017,0,0,1,.8,4.088q0,5-3.017,5a2.527,2.527,0,0,1-2.317-1.188M74,91.9a3.486,3.486,0,0,1-1.226,2.744,4.827,4.827,0,0,1-3.288,1.071,6.585,6.585,0,0,1-3.737-1.227l.565-1.128a6.393,6.393,0,0,0,2.821.778,2.963,2.963,0,0,0,1.859-.524,1.785,1.785,0,0,0,.716-1.459c0-.781-.544-1.448-1.543-2.007-.921-.506-2.763-1.563-2.763-1.563a3.145,3.145,0,0,1-1.5-2.8,3.264,3.264,0,0,1,1.119-2.579,4.216,4.216,0,0,1,2.891-.984,5.994,5.994,0,0,1,3.327.974l-.507,1.129a6.433,6.433,0,0,0-2.529-.544,2.253,2.253,0,0,0-1.555.487,1.628,1.628,0,0,0-.589,1.246c0,.777.556,1.453,1.582,2.022.933.507,2.821,1.582,2.821,1.582A3.105,3.105,0,0,1,74,91.9" transform="translate(-48.422 -43.486)" fill="#f8981d"></path><path id="Path_5" data-name="Path 5" d="M108.5,48.328a7.337,7.337,0,0,0-3.08.445c-.238.1-.617.1-.651.4.129.127.144.333.255.509a3.689,3.689,0,0,0,.825.967c.333.255.667.507,1.017.73.617.382,1.317.6,1.919.985.351.221.7.508,1.05.746.173.127.283.333.507.413v-.048c-.112-.143-.144-.349-.254-.508l-.477-.46a7.556,7.556,0,0,0-1.651-1.6c-.508-.35-1.62-.826-1.826-1.412l-.032-.032a6.324,6.324,0,0,0,1.1-.257c.54-.142,1.033-.11,1.587-.252.255-.064.508-.144.764-.222v-.143c-.287-.286-.492-.666-.794-.936a21.137,21.137,0,0,0-2.62-1.953c-.493-.318-1.127-.523-1.652-.794-.189-.1-.508-.143-.619-.3a6.468,6.468,0,0,1-.651-1.223c-.459-.872-.9-1.841-1.3-2.763a17.173,17.173,0,0,0-.81-1.809,16.012,16.012,0,0,0-6.144-5.937,7.614,7.614,0,0,0-2.031-.651l-1.191-.063A6.312,6.312,0,0,1,91,31.594c-.906-.571-3.239-1.809-3.905-.175-.429,1.033.635,2.049,1,2.573a7.3,7.3,0,0,1,.808,1.191c.112.27.143.556.255.841a19.016,19.016,0,0,0,.826,2.128,7.574,7.574,0,0,0,.587.983c.127.176.349.254.4.541a4.556,4.556,0,0,0-.366,1.19,7,7,0,0,0,.462,5.334c.253.4.858,1.271,1.666.936.716-.286.557-1.19.763-1.984.047-.192.016-.317.111-.443v.031c.221.444.445.872.65,1.317a9.052,9.052,0,0,0,2.065,2.126c.38.287.682.779,1.158.954V49.09H97.45a1.779,1.779,0,0,0-.364-.317,7.71,7.71,0,0,1-.826-.952,20.448,20.448,0,0,1-1.777-2.89c-.256-.493-.476-1.032-.683-1.524-.1-.19-.1-.476-.255-.572a5.938,5.938,0,0,0-.761,1.079,8.98,8.98,0,0,0-.446,2.4l-.062.031c-.506-.127-.682-.65-.874-1.094a6.876,6.876,0,0,1-.143-4.24c.11-.333.589-1.381.4-1.7-.1-.3-.414-.477-.588-.716A6.454,6.454,0,0,1,90.5,37.58c-.381-.889-.572-1.873-.983-2.761a8.552,8.552,0,0,0-.794-1.223,7.865,7.865,0,0,1-.875-1.238c-.079-.175-.19-.46-.063-.65a.253.253,0,0,1,.222-.207c.206-.174.793.047,1,.143a8.043,8.043,0,0,1,1.572.793c.222.159.461.461.746.541h.334c.507.11,1.079.031,1.556.174A10.22,10.22,0,0,1,95.5,34.245a14.087,14.087,0,0,1,4.952,5.43c.19.365.271.7.444,1.079.334.779.748,1.572,1.08,2.334a10.46,10.46,0,0,0,1.128,2.127c.238.333,1.192.508,1.62.683a11.2,11.2,0,0,1,1.1.444c.54.333,1.078.715,1.586,1.081.253.19,1.048.587,1.095.905M92.3,34.532a2.473,2.473,0,0,0-.65.08v.032h.031a5.18,5.18,0,0,0,.509.651c.128.255.239.507.364.761l.031-.031a.892.892,0,0,0,.335-.794,3.632,3.632,0,0,1-.192-.333c-.093-.159-.3-.238-.428-.365" transform="translate(-60.641 -13.816)" fill="#5d87a1"></path><path id="Path_6" data-name="Path 6" d="M136.92,111.4h.329v-1.61h-.493l-.4,1.1-.437-1.1h-.475v1.61h.311v-1.225h.017l.458,1.225h.237l.456-1.225V111.4Zm-2.65,0h.348v-1.337h.456v-.273H133.8v.273h.474Z" transform="translate(-87.55 -59.348)" fill="#f8981d"></path></g></g></g></svg> 