<?xml version="1.0" encoding="UTF-8"?> <svg xmlns="http://www.w3.org/2000/svg" xmlns:xlink="http://www.w3.org/1999/xlink" width="60" height="60" viewBox="0 0 60 60"><defs><clipPath id="clip-path"><rect id="Rectangle_715" data-name="Rectangle 715" width="60" height="60" transform="translate(223 251)" fill="#fff" stroke="#707070" stroke-width="1"></rect></clipPath><linearGradient id="linear-gradient" x1="0.5" x2="0.5" y2="0.998" gradientUnits="objectBoundingBox"><stop offset="0" stop-color="#4387fd"></stop><stop offset="1" stop-color="#4683ea"></stop></linearGradient></defs><g id="Mask_Group_51" data-name="Mask Group 51" transform="translate(-223 -251)" clip-path="url(#clip-path)"><g id="google-bigquery-logo-1" transform="translate(224 247.967)"><path id="Path_34" data-name="Path 34" d="M12.613,56.137.7,35.5a5.219,5.219,0,0,1,0-5.219L12.613,9.643a5.22,5.22,0,0,1,4.521-2.61H40.963a5.22,5.22,0,0,1,4.52,2.61L57.4,30.28a5.219,5.219,0,0,1,0,5.22L45.483,56.136a5.22,5.22,0,0,1-4.52,2.609H17.134a5.22,5.22,0,0,1-4.521-2.61Z" transform="translate(0)" fill="url(#linear-gradient)"></path><path id="Path_35" data-name="Path 35" d="M77.763,62.967,60.241,45.444,52.7,43.425l-6.778,2.519L43.3,52.764l2.1,7.593L63.986,78.938l3.943-.175Z" transform="translate(-23.647 -19.874)" opacity="0.07"></path><g id="Group_63" data-name="Group 63" transform="translate(18.521 22.361)"><path id="Path_36" data-name="Path 36" d="M51.333,40.8A10.528,10.528,0,1,0,61.86,51.332,10.528,10.528,0,0,0,51.333,40.8m0,18.516a7.988,7.988,0,1,1,7.988-7.988,7.989,7.989,0,0,1-7.988,7.988" transform="translate(-40.805 -40.804)" fill="#fff"></path><path id="Path_37" data-name="Path 37" d="M52.99,59.785v3.273a5.807,5.807,0,0,0,1.988,2.031v-5.3Zm3.942-2.759v8.81a5.384,5.384,0,0,0,1.989.014V57.026Zm4.126,4.119v3.886A5.8,5.8,0,0,0,63.047,62.9V61.145Zm4.5,5.532-1.091,1.092a.494.494,0,0,0,0,.7L68.61,72.6a.494.494,0,0,0,.7,0l1.091-1.09a.5.5,0,0,0,0-.7L66.26,66.676a.5.5,0,0,0-.7,0" transform="translate(-47.459 -49.663)" fill="#fff"></path></g></g></g></svg> 