<?xml version="1.0" encoding="UTF-8"?> <svg xmlns="http://www.w3.org/2000/svg" width="91" height="91" viewBox="0 0 91 91" fill="none"><mask id="mask0_2_384" style="mask-type:luminance" maskUnits="userSpaceOnUse" x="0" y="0" width="91" height="91"><path d="M90.81 0.26001H0.809998V90.26H90.81V0.26001Z" fill="white"></path></mask><g mask="url(#mask0_2_384)"><path d="M60.55 25.1C59.17 24.36 60.3 22.31 61.66 23.02C71.34 28.2 78.04 37.86 79.34 48.87C79.51 50.42 77.19 50.69 76.99 49.16C75.78 38.9 69.56 29.94 60.55 25.1ZM65.29 77.69C65.79 77.28 66.55 77.38 66.94 77.88C67.35 78.38 67.25 79.12 66.77 79.53C54.41 89.35 36.91 89.35 24.56 79.53C24.06 79.12 23.96 78.39 24.37 77.88C24.78 77.38 25.51 77.28 26.02 77.69C37.5 86.81 53.8 86.81 65.29 77.69ZM14.29 49.17C14.12 50.7 11.77 50.43 11.94 48.88C13.26 37.86 19.95 28.21 29.62 23.03C30.98 22.29 32.1 24.37 30.73 25.11C21.74 29.94 15.53 38.9 14.29 49.17ZM78.73 59.68L80.4 62.96L84.05 63.54C85.02 63.7 85.37 64.88 84.71 65.54L82.09 68.16L82.67 71.81C82.81 72.76 81.82 73.46 80.96 73.03L77.68 71.36L74.4 73.03C73.57 73.46 72.52 72.78 72.71 71.71L73.27 68.14L70.65 65.52C69.97 64.84 70.34 63.66 71.33 63.52L74.94 62.94L76.61 59.66C77.06 58.83 78.29 58.85 78.73 59.68ZM78.58 64.59L77.69 62.82L76.8 64.59C76.64 64.92 76.31 65.15 75.95 65.21L73.99 65.52C76.11 67.64 75.87 66.94 75.41 69.89C78.07 68.55 77.35 68.53 80.01 69.89C79.54 66.96 79.31 67.64 81.43 65.52L79.55 65.23C79.14 65.19 78.77 64.96 78.58 64.59ZM77.69 52.68C85.12 52.68 91.14 58.7 91.14 66.13C91.14 73.56 85.12 79.58 77.69 79.58C70.26 79.58 64.24 73.56 64.24 66.13C64.24 58.69 70.25 52.68 77.69 52.68ZM85.51 58.27C81.18 53.94 74.18 53.94 69.85 58.27C65.52 62.6 65.52 69.6 69.85 73.93C74.18 78.26 81.18 78.26 85.51 73.93C89.83 69.62 89.83 62.59 85.51 58.27ZM14.68 59.68L16.35 62.96L20 63.54C20.97 63.7 21.3 64.88 20.64 65.54L18.02 68.16L18.6 71.81C18.76 72.76 17.75 73.46 16.89 73.03L13.61 71.36L10.33 73.05C9.5 73.48 8.45 72.8 8.64 71.73L9.2 68.16L6.58 65.54C5.9 64.86 6.26999 63.68 7.25999 63.54L10.87 62.96L12.56 59.68C13.01 58.83 14.23 58.85 14.68 59.68ZM14.52 64.59L13.63 62.82L12.74 64.59C12.57 64.92 12.25 65.15 11.89 65.21L9.92999 65.52C12.05 67.64 11.81 66.94 11.35 69.89C14.01 68.55 13.27 68.53 15.95 69.89C15.48 66.96 15.25 67.64 17.37 65.52L15.49 65.23C15.08 65.19 14.72 64.96 14.52 64.59ZM13.61 52.68C21.04 52.68 27.06 58.7 27.06 66.13C27.06 73.56 21.04 79.58 13.61 79.58C6.18 79.58 0.160004 73.56 0.160004 66.13C0.160004 58.69 6.2 52.68 13.61 52.68ZM21.45 58.27C17.12 53.94 10.12 53.94 5.78999 58.27C1.45999 62.6 1.45999 69.6 5.78999 73.93C10.12 78.26 17.12 78.26 21.45 73.93C25.78 69.62 25.78 62.59 21.45 58.27ZM45.65 33.29C53.72 33.29 57.14 43.65 50.62 48.45H52.87C56.87 48.45 60.13 51.71 60.13 55.71V67.88C60.13 68.54 59.61 69.06 58.95 69.06H32.36C31.7 69.06 31.18 68.54 31.18 67.88V55.71C31.18 51.71 34.44 48.45 38.44 48.45H40.69C36.56 45.4 36.07 39.39 39.72 35.74C41.22 34.22 43.34 33.29 45.65 33.29ZM49.92 37.41C46.14 33.63 39.62 36.32 39.62 41.68C39.62 47.04 46.14 49.75 49.92 45.95C52.28 43.6 52.28 39.77 49.92 37.41ZM52.87 50.82H38.43C35.75 50.82 33.54 53.03 33.54 55.73V66.71H57.78V55.73C57.78 53.03 55.56 50.82 52.87 50.82ZM46.7 10.34L48.37 13.62L52.02 14.2C52.99 14.36 53.34 15.52 52.68 16.2L50.06 18.82L50.64 22.47C50.8 23.42 49.79 24.12 48.93 23.69L45.65 22.02L42.37 23.69C41.54 24.12 40.49 23.44 40.68 22.37L41.24 18.8L38.62 16.18C37.94 15.5 38.31 14.32 39.3 14.18L42.91 13.6L44.58 10.32C45.05 9.48001 46.27 9.5 46.7 10.34ZM46.54 15.25L45.65 13.48L44.76 15.25C44.59 15.58 44.27 15.81 43.89 15.87L41.95 16.18C44.05 18.3 43.83 17.6 43.37 20.55C46.03 19.21 45.31 19.19 47.97 20.55C47.5 17.62 47.27 18.3 49.39 16.16L47.51 15.87C47.1 15.85 46.73 15.61 46.54 15.25ZM45.65 3.32999C53.08 3.32999 59.1 9.35 59.1 16.78C59.1 24.21 53.08 30.23 45.65 30.23C38.22 30.23 32.2 24.21 32.2 16.78C32.2 9.35 38.22 3.32999 45.65 3.32999ZM53.49 8.94C49.16 4.61 42.16 4.61 37.83 8.94C33.5 13.27 33.5 20.27 37.83 24.6C42.16 28.93 49.16 28.93 53.49 24.6C57.82 20.27 57.81 13.27 53.49 8.94Z" fill="#1B54F8"></path></g></svg> 