<?xml version="1.0" encoding="UTF-8"?> <svg xmlns="http://www.w3.org/2000/svg" width="91" height="91" viewBox="0 0 91 91" fill="none"><mask id="mask0_2_389" style="mask-type:luminance" maskUnits="userSpaceOnUse" x="0" y="0" width="91" height="91"><path d="M90.28 0.839996H0.279999V90.84H90.28V0.839996Z" fill="white"></path></mask><g mask="url(#mask0_2_389)"><path d="M87.33 43.01V22.2C89.3 21.64 90.71 19.81 90.71 17.56C90.71 14.89 88.6 12.78 85.93 12.78C83.26 12.78 81.15 14.89 81.15 17.56C81.15 19.67 82.56 21.5 84.53 22.2V42.45L81.01 45.83C80.59 44.14 79.6 42.6 78.2 41.47C76.65 40.06 74.97 39.22 73 38.94L76.52 35.42C76.8 35.14 76.94 34.86 76.94 34.44V13.06C78.91 12.5 80.32 10.67 80.32 8.42001C80.32 5.75001 78.21 3.64001 75.54 3.64001C72.87 3.64001 70.76 5.75001 70.76 8.42001C70.76 10.53 72.17 12.36 74.14 13.06V33.73L70.2 37.67C67.81 32.19 61.2 29.65 55.58 32.19V12.78C57.55 12.22 58.96 10.39 58.96 8.14001C58.96 5.47001 56.85 3.35999 54.18 3.35999C51.51 3.35999 49.4 5.47001 49.4 8.14001C49.4 10.25 50.81 12.08 52.78 12.78V30.5C49.69 27.83 45.33 27.41 41.81 29.23V12.78C43.78 12.22 45.19 10.39 45.19 8.14001C45.19 5.47001 43.08 3.35999 40.41 3.35999C37.74 3.35999 35.63 5.47001 35.63 8.14001C35.63 10.25 37.04 12.08 39.01 12.78V28.53C32.4 23.47 22.42 26.84 20.31 35.14L17.08 31.76V11.51C19.05 10.81 20.46 8.97999 20.46 6.87C20.46 4.2 18.35 2.09 15.68 2.09C13.01 2.09 10.76 4.2 10.76 6.87C10.76 8.97999 12.17 10.81 14.14 11.51V32.32C14.14 32.74 14.28 33.02 14.56 33.3L18.08 36.82C13.72 37.52 10.49 40.9 9.92001 45.12L6.97 42.17V21.92C8.94 21.36 10.35 19.53 10.35 17.28C10.35 14.61 8.24001 12.5 5.57001 12.5C2.90001 12.5 0.790009 14.75 0.790009 17.42C0.790009 19.53 2.20001 21.36 4.17001 22.06V42.87C4.17001 43.29 4.31 43.57 4.59 43.85L8.81 48.07C4.45 49.9 2.61999 54.26 2.89999 57.91C3.31999 62.27 6.55999 67.05 12.74 67.05H24.27V71.83C24.27 72.53 24.69 73.1 25.39 73.24L28.48 73.8C28.76 74.92 29.32 76.05 29.89 77.18L28.2 79.57C27.78 80.13 27.92 80.84 28.34 81.4L32.56 85.76C32.98 86.18 33.83 86.32 34.39 85.9L36.92 84.07C38.04 84.63 39.03 85.05 40.3 85.48L40.86 88.57C41 89.27 41.56 89.69 42.27 89.69H48.32C49.02 89.69 49.59 89.27 49.73 88.57L50.29 85.48C51.41 85.2 52.54 84.64 53.67 84.07L56.2 85.9C56.76 86.32 57.47 86.18 58.03 85.76L62.39 81.4C62.81 80.98 62.95 80.13 62.53 79.57L60.7 77.04C61.26 75.92 61.68 74.93 62.11 73.66L65.2 73.1C65.9 72.96 66.32 72.4 66.32 71.69V66.91H77.85C83.76 66.91 86.99 62.55 87.69 58.33C88.25 54.67 86.71 50.31 82.63 48.21L87.13 43.71C87.19 43.71 87.33 43.29 87.33 43.01ZM73.55 8.56C73.55 7.44 74.39 6.59 75.52 6.59C76.65 6.59 77.49 7.43 77.49 8.56C77.49 9.69 76.65 10.53 75.52 10.53C74.39 10.53 73.55 9.68 73.55 8.56ZM13.5 6.87C13.5 5.75 14.34 4.89999 15.47 4.89999C16.6 4.89999 17.44 5.74 17.44 6.87C17.44 8 16.6 8.84 15.47 8.84C14.49 8.84 13.5 7.99 13.5 6.87ZM3.51999 17.41C3.51999 16.29 4.35999 15.44 5.48999 15.44C6.61999 15.44 7.45999 16.28 7.45999 17.41C7.45999 18.54 6.61999 19.38 5.48999 19.38C4.35999 19.38 3.51999 18.4 3.51999 17.41ZM52.31 8.13C52.31 7.01 53.15 6.16 54.28 6.16C55.41 6.16 56.25 7 56.25 8.13C56.25 9.26 55.41 10.1 54.28 10.1C53.16 10.1 52.31 9.26 52.31 8.13ZM38.53 8.13C38.53 7.01 39.37 6.16 40.5 6.16C41.63 6.16 42.47 7 42.47 8.13C42.47 9.26 41.63 10.1 40.5 10.1C39.38 10.24 38.53 9.26 38.53 8.13ZM63.28 70.57L60.47 70.99C59.91 71.13 59.49 71.55 59.35 72.11C59.07 73.52 58.51 74.92 57.66 76.33C57.38 76.75 57.38 77.45 57.66 77.88L59.21 80.13L56.54 82.8L54.29 81.25C53.87 80.97 53.17 80.97 52.74 81.25C51.47 82.09 50.07 82.66 48.52 82.94C47.96 83.08 47.54 83.5 47.4 84.06L46.98 86.87H43.32L42.9 84.06C42.76 83.5 42.34 83.08 41.78 82.94C40.23 82.52 38.83 81.96 37.56 81.25C37.14 80.97 36.44 80.97 36.01 81.25L33.76 82.8L31.09 80.13L32.64 77.88C32.92 77.46 32.92 76.76 32.64 76.33C31.8 75.06 31.23 73.66 30.95 72.11C30.81 71.55 30.39 71.13 29.83 70.99L27.02 70.57V66.91L29.83 66.35C30.39 66.21 30.81 65.79 30.95 65.23C31.23 63.82 31.93 62.28 32.64 61.01C32.92 60.59 32.92 59.89 32.64 59.46L31.09 57.21L33.76 54.54L36.01 56.09C36.43 56.37 36.99 56.37 37.56 56.09C38.83 55.25 40.23 54.68 41.78 54.4C42.34 54.26 42.76 53.84 42.9 53.28L43.32 50.47H47.12L47.54 53.28C47.68 53.84 48.1 54.26 48.66 54.4C50.21 54.82 51.61 55.38 52.88 56.09C53.3 56.37 54 56.37 54.43 56.09L56.68 54.54L59.35 57.21L57.8 59.46C57.52 59.88 57.52 60.58 57.8 61.01C58.64 62.28 59.21 63.68 59.49 65.23C59.63 65.79 60.05 66.21 60.61 66.35L63.42 66.91V70.57H63.28ZM84.66 58.2C84.24 61.29 81.85 64.39 77.63 64.39H64.41L61.88 63.97C61.6 62.85 61.04 61.72 60.47 60.59L62.3 58.06C62.72 57.5 62.58 56.79 62.16 56.23L57.8 52.01C57.38 51.59 56.53 51.45 55.97 51.87L53.44 53.56C52.46 53 51.33 52.58 50.06 52.15L49.5 49.06C49.36 48.36 48.8 47.94 48.09 47.94H42.04C41.34 47.94 40.77 48.36 40.63 49.06L40.07 52.15C38.95 52.43 37.82 52.99 36.69 53.56L34.44 51.73C33.88 51.31 33.17 51.45 32.61 51.87L28.39 56.09C27.97 56.51 27.83 57.36 28.25 57.92L30.08 60.45C29.52 61.57 29.1 62.56 28.67 63.83L25.86 64.39C25.3 64.25 26.98 64.39 12.92 64.39C8.42001 64.39 6.17001 61.16 5.89001 57.78C5.05001 47.51 19.95 47.8 19.95 57.22C19.95 58.06 20.51 58.63 21.36 58.63C22.21 58.63 22.77 58.07 22.77 57.22C22.77 51.17 17.29 46.95 12.79 47.38C12.23 42.88 16.31 38.66 21.37 39.65C22.21 39.79 23.06 39.09 23.06 38.1C23.06 29.66 33.47 26.01 38.95 32.05C38.95 32.05 38.95 32.19 39.09 32.19C44.01 37.96 39.93 47.1 32.2 47.1C31.36 47.1 30.79 47.66 30.79 48.51C30.79 49.36 31.35 49.92 32.2 49.92C41.2 49.92 46.97 40.22 42.61 32.34C44.16 31.22 46.13 30.65 48.09 31.07C53.43 32.05 52.59 36.69 54.98 35.99C55.68 35.85 58.64 32.76 63.42 34.58C65.67 35.42 67.5 37.25 68.2 39.5C64.4 40.91 62.01 44.56 62.01 48.64C62.01 49.48 62.57 50.05 63.42 50.05C64.26 50.05 64.83 49.49 64.83 48.64C64.83 42.59 72 39.22 76.64 43.72C78.19 45.13 79.03 47.24 78.89 48.92C78.75 49.62 79.31 50.33 79.87 50.47C83.67 51.45 85.08 55.1 84.66 58.2ZM83.81 17.56C83.81 16.44 84.65 15.59 85.78 15.59C86.91 15.59 87.75 16.43 87.75 17.56C87.75 18.69 86.91 19.53 85.78 19.53C84.8 19.52 83.81 18.68 83.81 17.56Z" fill="#1B54F8" stroke="white" stroke-width="0.25" stroke-miterlimit="10"></path><path d="M45.28 57.91C39.37 57.91 34.45 62.83 34.45 68.74C34.45 74.65 39.37 79.57 45.28 79.57C51.19 79.57 56.11 74.65 56.11 68.74C56.11 62.83 51.19 57.91 45.28 57.91ZM45.28 76.76C40.92 76.76 37.26 73.1 37.26 68.74C37.26 64.38 40.92 60.72 45.28 60.72C49.64 60.72 53.3 64.38 53.3 68.74C53.3 73.24 49.64 76.76 45.28 76.76Z" fill="#1B54F8" stroke="white" stroke-width="0.25" stroke-miterlimit="10"></path></g></svg> 