<?xml version="1.0" encoding="UTF-8"?> <svg xmlns="http://www.w3.org/2000/svg" width="92" height="91" viewBox="0 0 92 91" fill="none"><path d="M45.49 78.97C45.63 79.01 45.78 79.03 45.93 79.03C46.08 79.03 46.22 79.01 46.37 78.97C81.78 69.31 74.98 26.65 74.91 26.22C74.79 25.53 74.25 24.98 73.56 24.86C54.28 21.35 47.28 13.3 47.22 13.22C46.9 12.84 46.44 12.62 45.94 12.62C45.94 12.62 45.94 12.62 45.93 12.62C45.44 12.62 44.97 12.84 44.65 13.21C44.58 13.29 37.58 21.35 18.3 24.86C17.61 24.99 17.07 25.53 16.95 26.22C16.88 26.65 10.08 69.32 45.49 78.97ZM20.07 27.92C35.38 24.92 43.1 19.21 45.92 16.65C48.74 19.22 56.46 24.93 71.77 27.92C72.62 34.6 75.23 67.32 45.92 75.64C16.62 67.31 19.22 34.59 20.07 27.92Z" fill="#1B54F8" stroke="white" stroke-width="0.25" stroke-miterlimit="10"></path><path d="M38.16 57.28H53.7C54.62 57.28 55.37 56.53 55.37 55.61V44.15C55.37 43.23 54.62 42.48 53.7 42.48H53.19V42.25C53.19 38.25 49.93 34.99 45.93 34.99C41.93 34.99 38.67 38.25 38.67 42.25V42.48H38.16C37.24 42.48 36.49 43.23 36.49 44.15V55.61C36.49 56.54 37.23 57.28 38.16 57.28ZM52.03 53.95H39.83V45.83H52.03V53.95ZM42 42.26C42 40.1 43.76 38.34 45.92 38.34C48.08 38.34 49.84 40.1 49.84 42.26V42.49H42V42.26Z" fill="#1B54F8" stroke="white" stroke-width="0.25" stroke-miterlimit="10"></path><path d="M45.92 52.38C46.84 52.38 47.59 51.63 47.59 50.71V49.04C47.59 48.12 46.84 47.37 45.92 47.37C45 47.37 44.25 48.12 44.25 49.04V50.71C44.26 51.64 45 52.38 45.92 52.38Z" fill="#1B54F8" stroke="white" stroke-width="0.25" stroke-miterlimit="10"></path><path d="M72.44 72.34C71.34 73.44 70.73 74.91 70.73 76.47C70.73 77.31 70.92 78.12 71.26 78.86C64.02 84.42 55.09 87.49 45.93 87.49C22.95 87.49 4.26001 68.8 4.26001 45.82C4.26001 38.55 6.13997 31.45 9.71997 25.18C10.17 24.39 9.93998 23.4 9.16998 22.92C8.37998 22.42 7.30998 22.67 6.84998 23.48C2.96998 30.26 0.919983 37.95 0.919983 45.81C0.919983 70.62 21.11 90.81 45.92 90.81C55.89 90.81 65.59 87.45 73.44 81.37C74.39 81.97 75.47 82.28 76.56 82.28C78.05 82.28 79.55 81.71 80.68 80.58C81.78 79.48 82.39 78.01 82.39 76.45C82.39 74.89 81.78 73.43 80.68 72.32C78.41 70.07 74.72 70.07 72.44 72.34ZM78.33 78.23C77.36 79.2 75.77 79.2 74.79 78.23C74.32 77.76 74.06 77.13 74.06 76.46C74.06 75.79 74.32 75.16 74.79 74.69C75.28 74.2 75.92 73.96 76.56 73.96C77.2 73.96 77.84 74.2 78.33 74.69C78.8 75.16 79.06 75.79 79.06 76.46C79.06 77.13 78.8 77.76 78.33 78.23Z" fill="#1B54F8" stroke="white" stroke-width="0.25" stroke-miterlimit="10"></path><path d="M45.92 0.820007C35.96 0.820007 26.25 4.18001 18.4 10.26C16.14 8.83001 13.12 9.08999 11.15 11.05C10.05 12.15 9.44 13.62 9.44 15.18C9.44 16.74 10.05 18.2 11.15 19.3C12.29 20.44 13.78 21.01 15.27 21.01C16.76 21.01 18.26 20.44 19.39 19.31C20.49 18.21 21.1 16.74 21.1 15.18C21.1 14.34 20.91 13.53 20.57 12.79C27.81 7.23001 36.74 4.16 45.9 4.16C68.88 4.16 87.57 22.85 87.57 45.83C87.57 53.1 85.69 60.2 82.11 66.47C81.66 67.26 81.89 68.25 82.66 68.73C83.45 69.23 84.52 68.98 84.98 68.17C88.86 61.39 90.91 53.7 90.91 45.84C90.92 21.01 70.74 0.820007 45.92 0.820007ZM17.05 16.95C16.08 17.92 14.49 17.92 13.51 16.95C13.04 16.48 12.78 15.85 12.78 15.18C12.78 14.51 13.04 13.88 13.51 13.41C14 12.92 14.64 12.68 15.28 12.68C15.92 12.68 16.56 12.92 17.05 13.41C17.52 13.88 17.78 14.51 17.78 15.18C17.78 15.85 17.52 16.48 17.05 16.95Z" fill="#1B54F8" stroke="white" stroke-width="0.25" stroke-miterlimit="10"></path></svg> 