<?xml version="1.0" encoding="UTF-8"?> <svg xmlns="http://www.w3.org/2000/svg" width="91" height="91" viewBox="0 0 91 91" fill="none"><path d="M45.49 26.21C42.81 26.21 40.28 27.25 38.38 29.16C34.46 33.08 34.46 39.46 38.38 43.38C40.27 45.27 42.8 46.33 45.49 46.33C48.17 46.33 50.7 45.29 52.6 43.38C56.52 39.46 56.52 33.08 52.6 29.16C50.7 27.25 48.17 26.21 45.49 26.21ZM50.61 41.39C49.25 42.75 47.43 43.51 45.49 43.51C43.56 43.51 41.74 42.76 40.37 41.39C37.55 38.57 37.55 33.97 40.37 31.14C41.73 29.78 43.55 29.02 45.49 29.02C47.42 29.02 49.24 29.77 50.61 31.14C53.43 33.97 53.43 38.57 50.61 41.39ZM83.05 37.62C82.07 33.16 80.33 28.96 77.87 25.11L81.43 18.12L73.24 9.92001L66.24 13.48C62.39 11.01 58.2 9.25999 53.75 8.29999L51.31 0.839996H39.7L37.28 8.29999C32.83 9.26999 28.63 11.01 24.78 13.48L17.79 9.92001L9.57999 18.12L13.15 25.11C10.68 28.96 8.94 33.15 7.97 37.61L0.5 40.04V51.65L7.95999 54.08C8.92999 58.52 10.67 62.72 13.15 66.59L9.57999 73.58L17.79 81.78L24.78 78.22C28.63 80.69 32.82 82.44 37.28 83.4L39.7 90.85H51.31L53.74 83.39C58.18 82.42 62.38 80.68 66.24 78.21L73.23 81.77L81.42 73.57L77.86 66.58C80.33 62.73 82.07 58.54 83.03 54.08L90.51 51.65V40.05L83.05 37.62ZM87.68 49.6L80.6 51.9L80.44 52.71C79.53 57.37 77.73 61.74 75.07 65.69L74.61 66.37L77.99 73L72.68 78.31L66.05 74.93L65.37 75.39C61.41 78.05 57.04 79.86 52.39 80.77L51.58 80.93L49.27 88.01H41.75L39.46 80.93L38.65 80.77C33.99 79.86 29.62 78.05 25.67 75.39L24.99 74.93L18.36 78.31L13.05 73L16.44 66.37L15.98 65.68C13.31 61.71 11.5 57.34 10.6 52.7L10.44 51.89L3.35999 49.59V42.07L10.44 39.77L10.6 38.96C11.52 34.29 13.33 29.92 15.98 25.98L16.44 25.3L13.05 18.66L18.36 13.35L24.99 16.73L25.67 16.27C29.62 13.61 34 11.8 38.65 10.89L39.46 10.73L41.75 3.64999H49.27L51.58 10.73L52.39 10.89C57.04 11.8 61.41 13.61 65.36 16.27L66.04 16.73L72.69 13.35L78 18.66L74.62 25.29L75.08 25.97C77.73 29.92 79.55 34.29 80.46 38.96L80.62 39.77L87.69 42.07L87.68 49.6ZM45.5 19.96C31.22 19.96 19.61 31.57 19.61 45.84C19.61 58.62 28.92 69.26 41.12 71.34C42.56 71.61 44.03 71.76 45.51 71.76C46.98 71.76 48.44 71.62 49.88 71.35C62.07 69.27 71.39 58.63 71.39 45.84C71.37 31.56 59.77 19.96 45.5 19.96ZM58.44 64.55C57.09 65.58 55.63 66.44 54.09 67.13V59.54C54.09 58.76 53.46 58.14 52.69 58.14C51.92 58.14 51.29 58.77 51.29 59.54V68.13C50.62 68.32 49.94 68.48 49.25 68.6C48.03 68.8 46.78 68.91 45.51 68.91C44.23 68.91 42.97 68.8 41.75 68.6C41.07 68.48 40.4 68.32 39.72 68.13V59.54C39.72 58.76 39.09 58.14 38.32 58.14C37.55 58.14 36.92 58.77 36.92 59.54V67.13C35.38 66.45 33.92 65.59 32.57 64.55V56.07C32.57 52.79 35.24 50.12 38.52 50.12H41.13L44.53 55.79C44.79 56.22 45.28 56.43 45.74 56.46C46.23 56.46 46.7 56.19 46.94 55.76L50.22 50.12H52.48C55.76 50.12 58.43 52.79 58.43 56.07L58.44 64.55ZM61.26 62.67V56.08C61.26 51.25 57.33 47.32 52.5 47.32H49.42C48.92 47.32 48.45 47.59 48.21 48.02L45.71 52.31L43.1 48C42.84 47.58 42.39 47.33 41.9 47.33H38.5C33.67 47.33 29.74 51.26 29.74 56.09V62.67C25.25 58.45 22.44 52.48 22.44 45.84C22.44 33.12 32.79 22.77 45.52 22.77C58.23 22.77 68.58 33.12 68.58 45.84C68.56 52.47 65.75 58.45 61.26 62.67Z" fill="#1B54F8"></path></svg> 