<?xml version="1.0" encoding="UTF-8"?> <svg xmlns="http://www.w3.org/2000/svg" width="92" height="92" viewBox="0 0 92 92" fill="none"><path d="M91.07 83.7C91.13 83.58 91.18 83.45 91.21 83.32C91.22 83.29 91.2299 83.27 91.2299 83.24C91.2599 83.08 91.28 82.92 91.27 82.76C91.27 82.73 91.26 82.69 91.26 82.66C91.25 82.53 91.23 82.4 91.19 82.28C91.18 82.24 91.17 82.2 91.15 82.16C91.1 82.01 91.03 81.86 90.94 81.72L86.94 75.72C86.33 74.8 85.09 74.55 84.17 75.17C83.25 75.78 83 77.02 83.62 77.94L85.55 80.83H75.2899V14.83C75.2899 13.73 74.3899 12.83 73.2899 12.83H11.29V6.57001L14.18 8.50001C14.52 8.73001 14.91 8.84 15.29 8.84C15.94 8.84 16.57 8.53002 16.96 7.95002C17.57 7.03002 17.3199 5.79 16.4099 5.18L10.4099 1.18C10.3799 1.16 10.34 1.14 10.3 1.12C10.28 1.11 10.26 1.08999 10.24 1.07999C10.22 1.06999 10.19 1.05999 10.17 1.04999C10.05 0.989994 9.91996 0.94001 9.79996 0.91001C9.76996 0.90001 9.74 0.890011 9.71 0.880011C9.55 0.850011 9.38996 0.830003 9.23996 0.840003C9.19996 0.840003 9.16998 0.850013 9.12998 0.850013C8.99998 0.860013 8.87998 0.88002 8.75998 0.92002C8.71998 0.93002 8.67998 0.939998 8.62998 0.959998C8.47998 1.01 8.32998 1.08002 8.18998 1.17002L2.18998 5.17002C1.26998 5.78002 1.01999 7.02001 1.63999 7.94001C2.24999 8.86001 3.48995 9.11 4.40995 8.49L7.29996 6.56V71.66C3.69996 73.23 1.29996 76.8 1.29996 80.82C1.29996 86.33 5.78996 90.82 11.3 90.82C15.33 90.82 18.9 88.42 20.46 84.82H85.56L83.63 87.71C83.02 88.63 83.27 89.87 84.18 90.48C84.52 90.71 84.91 90.82 85.2899 90.82C85.9399 90.82 86.57 90.51 86.96 89.93L90.96 83.93C90.98 83.89 91 83.86 91.02 83.82C91.03 83.8 91.05 83.78 91.06 83.76C91.05 83.75 91.06 83.72 91.07 83.7ZM71.28 16.82V80.82H57.28V32.82C57.28 31.72 56.38 30.82 55.28 30.82H11.28V16.82H71.28ZM37.28 48.82H11.28V34.82H53.28V80.82H39.28V50.82C39.28 49.72 38.38 48.82 37.28 48.82ZM11.28 86.82C7.97 86.82 5.28 84.13 5.28 80.82C5.28 78.08 7.13 75.69 9.78 75.01C10.27 74.88 10.77 74.82 11.28 74.82C13.97 74.82 16.25 76.6 17.01 79.04C17.19 79.6 17.28 80.2 17.28 80.82C17.28 81.33 17.22 81.83 17.09 82.32C16.41 84.97 14.02 86.82 11.28 86.82ZM11.28 70.82V52.82H35.28V80.82H21.28C21.28 75.31 16.79 70.82 11.28 70.82Z" fill="#1B54F8" stroke="white" stroke-width="0.75" stroke-miterlimit="10"></path><path d="M47.28 40.82H43.28V44.82H47.28V40.82Z" fill="#1B54F8" stroke="white" stroke-width="0.75" stroke-miterlimit="10"></path><path d="M29.28 58.82H25.28V62.82H29.28V58.82Z" fill="#1B54F8" stroke="white" stroke-width="0.75" stroke-miterlimit="10"></path><path d="M65.28 22.82H61.28V26.82H65.28V22.82Z" fill="#1B54F8" stroke="white" stroke-width="0.75" stroke-miterlimit="10"></path></svg> 