<?xml version="1.0" encoding="UTF-8"?> <svg xmlns="http://www.w3.org/2000/svg" xmlns:xlink="http://www.w3.org/1999/xlink" width="60" height="60" viewBox="0 0 60 60"><defs><clipPath id="clip-path"><rect id="Rectangle_808" data-name="Rectangle 808" width="60" height="60" transform="translate(312 596)" fill="#fff" stroke="#707070" stroke-width="1"></rect></clipPath></defs><g id="Mask_Group_67" data-name="Mask Group 67" transform="translate(-312 -596)" clip-path="url(#clip-path)"><g id="Group_45" data-name="Group 45" transform="translate(0 -2.241)"><g id="Group_44" data-name="Group 44" transform="translate(-51.529 16)"><path id="Path_163" data-name="Path 163" d="M46.185,25.287H43.53V23.7h7.111v1.585H47.986V33.22h-1.8Zm6.094,6.638a7.293,7.293,0,0,0,2.128-.328l.274,1.313a7.464,7.464,0,0,1-2.555.456c-2.187,0-2.942-1.01-2.942-2.683V28.861c0-1.471.649-2.741,2.883-2.741s2.741,1.3,2.741,2.8V30.4H50.935v.356c0,.834.288,1.154,1.353,1.154ZM50.913,29h2.214v-.342c0-.649-.2-1.111-1.057-1.111s-1.157.456-1.157,1.111Z" transform="translate(323.999 603.051)"></path><path id="Path_164" data-name="Path 164" d="M64.219,28.64A13.436,13.436,0,0,0,62.4,29.657v4.482H60.635V27.183h1.471l.114.77a7.789,7.789,0,0,1,1.822-.911Z" transform="translate(319.23 602.12)"></path><path id="Path_165" data-name="Path 165" d="M64.219,28.64A13.436,13.436,0,0,0,62.4,29.657v4.482H60.635V27.183h1.471l.114.77a7.789,7.789,0,0,1,1.822-.911Z" transform="translate(323.485 602.12)"></path><path id="Path_166" data-name="Path 166" d="M77.473,32.981H76.047l-.128-.456a3.815,3.815,0,0,1-2.068.615c-1.271,0-1.822-.87-1.822-2.068,0-1.412.615-1.947,2.019-1.947H75.72V28.4c0-.77-.214-1.043-1.326-1.043a9.714,9.714,0,0,0-1.927.214l-.214-1.326a9.072,9.072,0,0,1,2.382-.328c2.187,0,2.829.77,2.829,2.515Zm-1.74-2.628H74.449c-.577,0-.721.155-.721.683s.155.7.7.7a2.733,2.733,0,0,0,1.312-.356Zm7.1-5.914a5.157,5.157,0,0,0-1-.114c-.683,0-.783.3-.783.829v.87h1.767l-.1,1.367H81.042v5.566H79.3v-5.54H78.187V26.05H79.3v-.988c0-1.444.669-2.155,2.214-2.155a5.517,5.517,0,0,1,1.5.2Zm3.4,8.68c-2.382,0-3.025-1.313-3.025-2.741V28.635c0-1.426.649-2.741,3.025-2.741s3.029,1.313,3.029,2.741v1.758c0,1.416-.647,2.741-3.029,2.741Zm0-5.753c-.911,0-1.284.415-1.284,1.2v1.872c0,.783.356,1.2,1.284,1.2s1.284-.415,1.284-1.2V28.571c0-.788-.361-1.2-1.284-1.2Zm7.5.114A13.435,13.435,0,0,0,91.906,28.5v4.482h-1.76V26.023h1.471l.114.77a7.789,7.789,0,0,1,1.822-.911Zm4.789,5.5V28.129c0-.369-.155-.555-.555-.555a4.8,4.8,0,0,0-1.822.588v4.832H94.408V26.038h1.326l.173.588a6.952,6.952,0,0,1,2.784-.728A1.32,1.32,0,0,1,100,26.64a6.841,6.841,0,0,1,2.8-.743c1.157,0,1.572.815,1.572,2.055v5.038h-1.74V28.139c0-.369-.155-.555-.555-.555a4.608,4.608,0,0,0-1.822.588V33Z" transform="translate(316.054 603.273)"></path></g><g id="Group_43" data-name="Group 43" transform="translate(329.045 637.236)"><path id="Path_167" data-name="Path 167" d="M19.511-8.484v-.073L9.86-14.13V-2.988l9.651,5.573Zm0-12.442V-9.779L9.86-15.352V-26.5Z" transform="translate(-2.196 -1.276)" fill="#5c4ee5" fill-rule="evenodd"></path><path id="Path_168" data-name="Path 168" d="M22.765-9.779l9.655-5.573V-26.5l-9.655,5.573Z" transform="translate(-4.392 -1.276)" fill="#4040b2" fill-rule="evenodd"></path><g id="Group_42" data-name="Group 42" transform="translate(-3.045 -33.996)"><path id="Path_169" data-name="Path 169" d="M-3.045-22.849l9.651,5.573V-28.422L-3.045-34Z" transform="translate(3.045 33.996)" fill="#5c4ee5" fill-rule="evenodd"></path><path id="Path_170" data-name="Path 170" d="M29.482-.265" transform="translate(-2.491 28.255)" fill="#5c4ee5" fill-rule="evenodd"></path><path id="Path_171" data-name="Path 171" d="M9.86-11.593" transform="translate(0.849 30.183)" fill="#5c4ee5" fill-rule="evenodd"></path></g></g></g></g></svg> 