<?xml version="1.0" encoding="UTF-8"?> <!-- Generator: Adobe Illustrator 25.2.3, SVG Export Plug-In . SVG Version: 6.00 Build 0) --> <svg xmlns="http://www.w3.org/2000/svg" xmlns:xlink="http://www.w3.org/1999/xlink" version="1.1" id="Layer_1" x="0px" y="0px" viewBox="0 0 80 80" style="enable-background:new 0 0 80 80;" xml:space="preserve"> <style type="text/css"> .st0{fill:#1B54F8;} </style> <desc>Created with Sketch.</desc> <g id="Technical_Component_Definition"> <g id="Group" transform="translate(11.000000, 8.000000)"> <path id="Shape" class="st0" d="M8.9,12.9H1.3c-0.5,0-1-0.3-1.2-0.8S0,11,0.4,10.6L10.6,0.4C11,0,11.5-0.1,12,0.1 c0.5,0.2,0.8,0.7,0.8,1.2v7.5C12.9,11.1,11.1,12.9,8.9,12.9z M4.6,10.2h4.3c0.7,0,1.3-0.6,1.3-1.3V4.6L4.6,10.2z"></path> <path id="Shape_1_" class="st0" d="M49,50.7h-7.4c-0.7,0-1.3-0.6-1.3-1.3v-3.3c-0.5-0.2-0.9-0.3-1.3-0.5l-2.3,2.3 c-0.5,0.5-1.4,0.5-1.9,0l-5.3-5.3c-0.5-0.5-0.5-1.4,0-1.9l2.3-2.3c-0.2-0.4-0.4-0.9-0.5-1.3H28c-0.7,0-1.3-0.6-1.3-1.3v-7.4 c0-0.7,0.6-1.3,1.3-1.3h3.3c0.2-0.5,0.3-0.9,0.5-1.3l-2.3-2.3c-0.5-0.5-0.5-1.4,0-1.9l5.3-5.3c0.5-0.5,1.4-0.5,1.9,0l2.3,2.3 c0.4-0.2,0.9-0.4,1.3-0.5v-3.3c0-0.7,0.6-1.3,1.3-1.3H49c0.7,0,1.3,0.6,1.3,1.3v3.3c0.5,0.2,0.9,0.3,1.3,0.5l2.3-2.3 c0.5-0.5,1.4-0.5,1.9,0l5.3,5.3c0.5,0.5,0.5,1.4,0,1.9l-2.3,2.3c0.2,0.4,0.4,0.9,0.5,1.3h3.3c0.7,0,1.3,0.6,1.3,1.3v7.4 c0,0.7-0.6,1.3-1.3,1.3h-3.3c-0.2,0.5-0.3,0.9-0.5,1.3l2.3,2.3c0.2,0.2,0.4,0.6,0.4,0.9s-0.1,0.7-0.4,0.9l-5.3,5.3 c-0.5,0.5-1.4,0.5-1.9,0l-2.3-2.3c-0.4,0.2-0.9,0.4-1.3,0.5v3.3C50.4,50.1,49.8,50.7,49,50.7z M43,48h4.8v-2.9 c0-0.6,0.4-1.1,1-1.3c0.9-0.3,1.8-0.6,2.6-1.1c0.5-0.3,1.2-0.2,1.6,0.2L55,45l3.4-3.4l-2.1-2.1c-0.4-0.4-0.5-1.1-0.2-1.6 c0.5-0.8,0.8-1.7,1.1-2.6c0.2-0.6,0.7-1,1.3-1h2.9v-4.8h-2.9c-0.6,0-1.1-0.4-1.3-1c-0.3-0.9-0.6-1.8-1.1-2.6 c-0.3-0.5-0.2-1.2,0.2-1.6l2.1-2.1L55,19l-2.1,2.1c-0.4,0.4-1.1,0.5-1.6,0.2c-0.8-0.5-1.7-0.8-2.6-1.1c-0.6-0.2-1-0.7-1-1.3V16H43 v2.9c0,0.6-0.4,1.1-1,1.3c-0.9,0.3-1.8,0.6-2.6,1.1c-0.5,0.3-1.2,0.2-1.6-0.2L35.7,19l-3.4,3.4l2.1,2.1c0.4,0.4,0.5,1.1,0.2,1.6 c-0.5,0.8-0.8,1.7-1.1,2.6c-0.2,0.6-0.7,1-1.3,1h-2.9v4.8h2.9c0.6,0,1.1,0.4,1.3,1c0.3,0.9,0.6,1.8,1.1,2.6 c0.3,0.5,0.2,1.2-0.2,1.6l-2.1,2.1l3.4,3.4l2.1-2.1c0.4-0.4,1.1-0.5,1.6-0.2c0.8,0.5,1.7,0.8,2.6,1.1c0.6,0.2,1,0.7,1,1.3V48 L43,48z"></path> <path id="Shape_2_" class="st0" d="M42.7,64H4c-2.2,0-4-1.8-4-4V11L11,0h31.7c2.2,0,4,1.8,4,4v12H43v3.9l-1,0.3 c-0.9,0.3-1.8,0.6-2.6,1.1l-0.9,0.5L35.7,19l-3.4,3.4l2.8,2.8L34.6,26c-0.5,0.8-0.8,1.7-1.1,2.6l-0.3,1h-3.9v4.8h3.9l0.3,1 c0.3,0.9,0.6,1.8,1.1,2.6l0.5,0.9l-2.8,2.8l3.4,3.4l2.8-2.8l0.9,0.5c0.8,0.5,1.7,0.8,2.6,1.1l1,0.3V48h3.7v12 C46.7,62.2,44.9,64,42.7,64z M2.7,12.1V60c0,0.7,0.6,1.3,1.3,1.3h38.7c0.7,0,1.3-0.6,1.3-1.3v-9.3h-3.7v-4.6 c-0.5-0.2-0.9-0.3-1.3-0.5l-3.3,3.2l-7.1-7.1l3.3-3.3c-0.2-0.4-0.4-0.9-0.5-1.3h-4.6V27h4.6c0.2-0.5,0.3-0.9,0.5-1.3l-3.3-3.3 l7.1-7.1l3.3,3.3c0.4-0.2,0.9-0.4,1.3-0.5v-4.6H44V4c0-0.7-0.6-1.3-1.3-1.3H12.1L2.7,12.1z"></path> <path id="Shape_3_" class="st0" d="M45.3,40.9c-4.9,0-8.9-4-8.9-8.9s4-8.9,8.9-8.9s8.9,4,8.9,8.9S50.2,40.9,45.3,40.9z M45.3,25.8 c-3.4,0-6.2,2.8-6.2,6.2s2.8,6.2,6.2,6.2c3.4,0,6.2-2.8,6.2-6.2S48.8,25.8,45.3,25.8z"></path> <path id="Path" class="st0" d="M21.3,33.3H8c-0.7,0-1.3-0.6-1.3-1.3c0-0.7,0.6-1.3,1.3-1.3h13.3c0.7,0,1.3,0.6,1.3,1.3 C22.7,32.7,22.1,33.3,21.3,33.3z"></path> <path id="Path_1_" class="st0" d="M21.3,26.7H8c-0.7,0-1.3-0.6-1.3-1.3C6.7,24.6,7.3,24,8,24h13.3c0.7,0,1.3,0.6,1.3,1.3 C22.7,26.1,22.1,26.7,21.3,26.7z"></path> <path id="Path_2_" class="st0" d="M21.3,20H8c-0.7,0-1.3-0.6-1.3-1.3c0-0.7,0.6-1.3,1.3-1.3h13.3c0.7,0,1.3,0.6,1.3,1.3 C22.7,19.4,22.1,20,21.3,20z"></path> <path id="Path_3_" class="st0" d="M21.3,40H8c-0.7,0-1.3-0.6-1.3-1.3c0-0.7,0.6-1.3,1.3-1.3h13.3c0.7,0,1.3,0.6,1.3,1.3 C22.7,39.4,22.1,40,21.3,40z"></path> <path id="Path_4_" class="st0" d="M21.3,46.7H8c-0.7,0-1.3-0.6-1.3-1.3S7.3,44,8,44h13.3c0.7,0,1.3,0.6,1.3,1.3 S22.1,46.7,21.3,46.7z"></path> <path id="Path_5_" class="st0" d="M29.3,53.3H8c-0.7,0-1.3-0.6-1.3-1.3c0-0.7,0.6-1.3,1.3-1.3h21.3c0.7,0,1.3,0.6,1.3,1.3 C30.7,52.7,30.1,53.3,29.3,53.3z"></path> </g> </g> </svg> 