<svg width="100" height="78" viewBox="0 0 100 78" fill="none" xmlns="http://www.w3.org/2000/svg">
<path fill-rule="evenodd" clip-rule="evenodd" d="M37.1197 73.3201C54.6368 81.8639 89.2849 76.3539 97.8287 58.8368C106.373 41.3197 81.0292 21.5323 63.512 12.9884C45.9949 4.44454 22.3277 -8.31934 13.7838 9.19779C5.23991 26.7149 19.6124 64.7752 37.1197 73.3201Z" fill="#F74F78" fill-opacity="0.1"/>
<path opacity="0.2" d="M51.9605 59.8487L51.9438 59.7958H49.8853C46.1574 59.8026 43.1382 62.3876 43.1382 65.5734V70.5786H46.1113V65.5734C46.1123 62.6846 48.6109 60.2408 51.9605 59.8487ZM51.6987 51.4636C51.6997 49.5296 52.9976 47.821 54.9012 47.2485C53.0358 46.6918 51.0126 47.3534 49.8725 48.8914C49.3178 49.6348 49.0181 50.5375 49.0181 51.4651C49.0181 52.3926 49.3178 53.2954 49.8725 54.0387C51.0116 55.5777 53.0348 56.2375 54.9012 55.6817C52.9976 55.1082 51.6997 53.3996 51.6987 51.4666V51.4636ZM8.5676 27.9376C8.56858 26.0035 9.86644 24.2939 11.7701 23.7205C9.90467 23.1637 7.88142 23.8254 6.74139 25.3634C6.18666 26.1068 5.88696 27.0095 5.88696 27.9371C5.88696 28.8646 6.18666 29.7673 6.74139 30.5107C7.88044 32.0497 9.90369 32.7094 11.7701 32.1536C9.86644 31.5802 8.56858 29.8706 8.5676 27.9376ZM9.80958 36.3226L9.79292 36.2697H7.73439C4.00648 36.2766 0.987305 38.8615 0.987305 42.0473V47.0525H3.96041V42.0473C3.96237 39.1585 6.46006 36.7147 9.80958 36.3226Z" fill="#F74F78"/>
<path d="M51.3428 36.4026V36.0688C51.3428 32.222 48.2244 29.1035 44.3775 29.1035H44.0437M51.3428 59.451V59.5767C51.3428 63.4235 48.2244 66.542 44.3775 66.542H44.0437M20.9954 66.542H20.8696C17.0228 66.542 13.9043 63.4236 13.9043 59.5767V59.451M13.9043 36.4026V36.0688C13.9043 32.222 17.0228 29.1035 20.8696 29.1035H20.9954" stroke="#FF2457" stroke-width="1.21271" stroke-linecap="round" stroke-linejoin="round"/>
<path d="M24.7881 53.4807L30.0516 42.2545C30.0781 42.1982 30.1348 42.1621 30.1971 42.1621C30.261 42.1621 30.3188 42.2 30.3443 42.2585L35.236 53.4807M26.9647 50.4334H32.1887M40.0247 53.4807V42.1621" stroke="#FF2457" stroke-width="1.21271" stroke-linecap="round"/>
</svg>
