<svg width="108" height="79" viewBox="0 0 108 79" fill="none" xmlns="http://www.w3.org/2000/svg">
<path opacity="0.24" fill-rule="evenodd" clip-rule="evenodd" d="M43.6272 74.8068C61.4972 83.5228 96.8432 77.9018 105.559 60.0318C114.275 42.1618 88.4212 21.9748 70.5512 13.2588C52.6812 4.54276 28.5372 -8.47824 19.8212 9.39176C11.1052 27.2618 25.7572 66.0908 43.6272 74.8068Z" fill="#A2FF29"/>
<mask id="path-2-inside-1_152_6" fill="white">
<path d="M49.1707 39.3655C49.4036 39.3655 49.6269 39.273 49.7916 39.1083C49.9562 38.9437 50.0487 38.7203 50.0487 38.4875V33.0962C50.8764 32.8825 51.5978 32.3743 52.0776 31.6668C52.5573 30.9593 52.7626 30.1011 52.6549 29.253C52.5472 28.405 52.1339 27.6254 51.4925 27.0603C50.851 26.4952 50.0255 26.1834 49.1707 26.1834C48.3158 26.1834 47.4903 26.4952 46.8489 27.0603C46.2075 27.6254 45.7942 28.405 45.6865 29.253C45.5788 30.1011 45.7841 30.9593 46.2638 31.6668C46.7436 32.3743 47.4649 32.8825 48.2926 33.0962V37.6094H33.3658V34.9753H30.7317V20.0485H35.2449C35.4586 20.8762 35.9668 21.5975 36.6743 22.0773C37.3818 22.557 38.24 22.7623 39.0881 22.6546C39.9361 22.5469 40.7157 22.1336 41.2808 21.4922C41.8459 20.8507 42.1577 20.0252 42.1577 19.1704C42.1577 18.3156 41.8459 17.4901 41.2808 16.8486C40.7157 16.2072 39.9361 15.7939 39.0881 15.6862C38.24 15.5785 37.3818 15.7838 36.6743 16.2635C35.9668 16.7433 35.4586 17.4647 35.2449 18.2924H29.8536C29.6208 18.2924 29.3974 18.3849 29.2328 18.5495C29.0681 18.7142 28.9756 18.9375 28.9756 19.1704V34.9753H27.2195V26.1948H25.4634V34.9753H23.7073V19.1704C23.7073 18.9375 23.6148 18.7142 23.4501 18.5495C23.2855 18.3849 23.0621 18.2924 22.8293 18.2924H17.438C17.2243 17.4647 16.7161 16.7433 16.0086 16.2635C15.3011 15.7838 14.4429 15.5785 13.5948 15.6862C12.7468 15.7939 11.9672 16.2072 11.4021 16.8486C10.837 17.4901 10.5252 18.3156 10.5252 19.1704C10.5252 20.0252 10.837 20.8507 11.4021 21.4922C11.9672 22.1336 12.7468 22.5469 13.5948 22.6546C14.4429 22.7623 15.3011 22.557 16.0086 22.0773C16.7161 21.5975 17.2243 20.8762 17.438 20.0485H21.9512V34.9753H19.3171V37.6094H4.39025V33.0962C5.21795 32.8825 5.93929 32.3743 6.41907 31.6668C6.89884 30.9593 7.10411 30.1011 6.9964 29.253C6.88868 28.405 6.47538 27.6254 5.83396 27.0603C5.19254 26.4952 4.36704 26.1834 3.5122 26.1834C2.65736 26.1834 1.83186 26.4952 1.19044 27.0603C0.549018 27.6254 0.135716 28.405 0.0280018 29.253C-0.0797123 30.1011 0.125557 30.9593 0.605333 31.6668C1.08511 32.3743 1.80645 32.8825 2.63415 33.0962V38.4875C2.63415 38.7203 2.72666 38.9437 2.89133 39.1083C3.05599 39.273 3.27933 39.3655 3.5122 39.3655H19.3171V41.1216H10.5366V42.8777H19.3171V44.6338H3.5122C3.27933 44.6338 3.05599 44.7263 2.89133 44.891C2.72666 45.0556 2.63415 45.279 2.63415 45.5118V50.9031C1.80645 51.1168 1.08511 51.625 0.605333 52.3325C0.125557 53.04 -0.0797123 53.8982 0.0280018 54.7463C0.135716 55.5943 0.549018 56.3739 1.19044 56.939C1.83186 57.5041 2.65736 57.8159 3.5122 57.8159C4.36704 57.8159 5.19254 57.5041 5.83396 56.939C6.47538 56.3739 6.88868 55.5943 6.9964 54.7463C7.10411 53.8982 6.89884 53.04 6.41907 52.3325C5.93929 51.625 5.21795 51.1168 4.39025 50.9031V46.3899H19.3171V49.024H21.9512V63.9509H17.438C17.2243 63.1231 16.7161 62.4018 16.0086 61.922C15.3011 61.4423 14.4429 61.237 13.5948 61.3447C12.7468 61.4524 11.9672 61.8657 11.4021 62.5071C10.837 63.1486 10.5252 63.9741 10.5252 64.8289C10.5252 65.6837 10.837 66.5092 11.4021 67.1507C11.9672 67.7921 12.7468 68.2054 13.5948 68.3131C14.4429 68.4208 15.3011 68.2155 16.0086 67.7358C16.7161 67.256 17.2243 66.5346 17.438 65.7069H22.8293C23.0621 65.7069 23.2855 65.6144 23.4501 65.4498C23.6148 65.2851 23.7073 65.0618 23.7073 64.8289V49.024H25.4634V57.8045H27.2195V49.024H28.9756V64.8289C28.9756 65.0618 29.0681 65.2851 29.2328 65.4498C29.3974 65.6144 29.6208 65.7069 29.8536 65.7069H35.2449C35.4586 66.5346 35.9668 67.256 36.6743 67.7358C37.3818 68.2155 38.24 68.4208 39.0881 68.3131C39.9361 68.2054 40.7157 67.7921 41.2808 67.1507C41.8459 66.5092 42.1577 65.6837 42.1577 64.8289C42.1577 63.9741 41.8459 63.1486 41.2808 62.5071C40.7157 61.8657 39.9361 61.4524 39.0881 61.3447C38.24 61.237 37.3818 61.4423 36.6743 61.922C35.9668 62.4018 35.4586 63.1231 35.2449 63.9509H30.7317V49.024H33.3658V46.3899H48.2926V50.9031C47.4649 51.1168 46.7436 51.625 46.2638 52.3325C45.7841 53.04 45.5788 53.8982 45.6865 54.7463C45.7942 55.5943 46.2075 56.3739 46.8489 56.939C47.4903 57.5041 48.3158 57.8159 49.1707 57.8159C50.0255 57.8159 50.851 57.5041 51.4925 56.939C52.1339 56.3739 52.5472 55.5943 52.6549 54.7463C52.7626 53.8982 52.5573 53.04 52.0776 52.3325C51.5978 51.625 50.8764 51.1168 50.0487 50.9031V45.5118C50.0487 45.279 49.9562 45.0556 49.7916 44.891C49.6269 44.7263 49.4036 44.6338 49.1707 44.6338H33.3658V42.8777H42.1463V41.1216H33.3658V39.3655H49.1707ZM27.2195 46.3899H21.9512V44.6338H27.2195V46.3899ZM24.5854 42.8777C24.0644 42.8777 23.5551 42.7232 23.1219 42.4338C22.6887 42.1443 22.3511 41.7329 22.1517 41.2516C21.9523 40.7703 21.9002 40.2406 22.0018 39.7297C22.1035 39.2187 22.3543 38.7493 22.7227 38.3809C23.0911 38.0125 23.5605 37.7617 24.0715 37.66C24.5824 37.5584 25.1121 37.6105 25.5934 37.8099C26.0747 38.0093 26.4861 38.3469 26.7756 38.7801C27.065 39.2133 27.2195 39.7226 27.2195 40.2436C27.2195 40.9422 26.942 41.6122 26.448 42.1062C25.954 42.6002 25.284 42.8777 24.5854 42.8777ZM30.7317 42.8777H28.9756V37.6094H30.7317V42.8777Z"/>
</mask>
<path d="M49.1707 39.3655C49.4036 39.3655 49.6269 39.273 49.7916 39.1083C49.9562 38.9437 50.0487 38.7203 50.0487 38.4875V33.0962C50.8764 32.8825 51.5978 32.3743 52.0776 31.6668C52.5573 30.9593 52.7626 30.1011 52.6549 29.253C52.5472 28.405 52.1339 27.6254 51.4925 27.0603C50.851 26.4952 50.0255 26.1834 49.1707 26.1834C48.3158 26.1834 47.4903 26.4952 46.8489 27.0603C46.2075 27.6254 45.7942 28.405 45.6865 29.253C45.5788 30.1011 45.7841 30.9593 46.2638 31.6668C46.7436 32.3743 47.4649 32.8825 48.2926 33.0962V37.6094H33.3658V34.9753H30.7317V20.0485H35.2449C35.4586 20.8762 35.9668 21.5975 36.6743 22.0773C37.3818 22.557 38.24 22.7623 39.0881 22.6546C39.9361 22.5469 40.7157 22.1336 41.2808 21.4922C41.8459 20.8507 42.1577 20.0252 42.1577 19.1704C42.1577 18.3156 41.8459 17.4901 41.2808 16.8486C40.7157 16.2072 39.9361 15.7939 39.0881 15.6862C38.24 15.5785 37.3818 15.7838 36.6743 16.2635C35.9668 16.7433 35.4586 17.4647 35.2449 18.2924H29.8536C29.6208 18.2924 29.3974 18.3849 29.2328 18.5495C29.0681 18.7142 28.9756 18.9375 28.9756 19.1704V34.9753H27.2195V26.1948H25.4634V34.9753H23.7073V19.1704C23.7073 18.9375 23.6148 18.7142 23.4501 18.5495C23.2855 18.3849 23.0621 18.2924 22.8293 18.2924H17.438C17.2243 17.4647 16.7161 16.7433 16.0086 16.2635C15.3011 15.7838 14.4429 15.5785 13.5948 15.6862C12.7468 15.7939 11.9672 16.2072 11.4021 16.8486C10.837 17.4901 10.5252 18.3156 10.5252 19.1704C10.5252 20.0252 10.837 20.8507 11.4021 21.4922C11.9672 22.1336 12.7468 22.5469 13.5948 22.6546C14.4429 22.7623 15.3011 22.557 16.0086 22.0773C16.7161 21.5975 17.2243 20.8762 17.438 20.0485H21.9512V34.9753H19.3171V37.6094H4.39025V33.0962C5.21795 32.8825 5.93929 32.3743 6.41907 31.6668C6.89884 30.9593 7.10411 30.1011 6.9964 29.253C6.88868 28.405 6.47538 27.6254 5.83396 27.0603C5.19254 26.4952 4.36704 26.1834 3.5122 26.1834C2.65736 26.1834 1.83186 26.4952 1.19044 27.0603C0.549018 27.6254 0.135716 28.405 0.0280018 29.253C-0.0797123 30.1011 0.125557 30.9593 0.605333 31.6668C1.08511 32.3743 1.80645 32.8825 2.63415 33.0962V38.4875C2.63415 38.7203 2.72666 38.9437 2.89133 39.1083C3.05599 39.273 3.27933 39.3655 3.5122 39.3655H19.3171V41.1216H10.5366V42.8777H19.3171V44.6338H3.5122C3.27933 44.6338 3.05599 44.7263 2.89133 44.891C2.72666 45.0556 2.63415 45.279 2.63415 45.5118V50.9031C1.80645 51.1168 1.08511 51.625 0.605333 52.3325C0.125557 53.04 -0.0797123 53.8982 0.0280018 54.7463C0.135716 55.5943 0.549018 56.3739 1.19044 56.939C1.83186 57.5041 2.65736 57.8159 3.5122 57.8159C4.36704 57.8159 5.19254 57.5041 5.83396 56.939C6.47538 56.3739 6.88868 55.5943 6.9964 54.7463C7.10411 53.8982 6.89884 53.04 6.41907 52.3325C5.93929 51.625 5.21795 51.1168 4.39025 50.9031V46.3899H19.3171V49.024H21.9512V63.9509H17.438C17.2243 63.1231 16.7161 62.4018 16.0086 61.922C15.3011 61.4423 14.4429 61.237 13.5948 61.3447C12.7468 61.4524 11.9672 61.8657 11.4021 62.5071C10.837 63.1486 10.5252 63.9741 10.5252 64.8289C10.5252 65.6837 10.837 66.5092 11.4021 67.1507C11.9672 67.7921 12.7468 68.2054 13.5948 68.3131C14.4429 68.4208 15.3011 68.2155 16.0086 67.7358C16.7161 67.256 17.2243 66.5346 17.438 65.7069H22.8293C23.0621 65.7069 23.2855 65.6144 23.4501 65.4498C23.6148 65.2851 23.7073 65.0618 23.7073 64.8289V49.024H25.4634V57.8045H27.2195V49.024H28.9756V64.8289C28.9756 65.0618 29.0681 65.2851 29.2328 65.4498C29.3974 65.6144 29.6208 65.7069 29.8536 65.7069H35.2449C35.4586 66.5346 35.9668 67.256 36.6743 67.7358C37.3818 68.2155 38.24 68.4208 39.0881 68.3131C39.9361 68.2054 40.7157 67.7921 41.2808 67.1507C41.8459 66.5092 42.1577 65.6837 42.1577 64.8289C42.1577 63.9741 41.8459 63.1486 41.2808 62.5071C40.7157 61.8657 39.9361 61.4524 39.0881 61.3447C38.24 61.237 37.3818 61.4423 36.6743 61.922C35.9668 62.4018 35.4586 63.1231 35.2449 63.9509H30.7317V49.024H33.3658V46.3899H48.2926V50.9031C47.4649 51.1168 46.7436 51.625 46.2638 52.3325C45.7841 53.04 45.5788 53.8982 45.6865 54.7463C45.7942 55.5943 46.2075 56.3739 46.8489 56.939C47.4903 57.5041 48.3158 57.8159 49.1707 57.8159C50.0255 57.8159 50.851 57.5041 51.4925 56.939C52.1339 56.3739 52.5472 55.5943 52.6549 54.7463C52.7626 53.8982 52.5573 53.04 52.0776 52.3325C51.5978 51.625 50.8764 51.1168 50.0487 50.9031V45.5118C50.0487 45.279 49.9562 45.0556 49.7916 44.891C49.6269 44.7263 49.4036 44.6338 49.1707 44.6338H33.3658V42.8777H42.1463V41.1216H33.3658V39.3655H49.1707ZM27.2195 46.3899H21.9512V44.6338H27.2195V46.3899ZM24.5854 42.8777C24.0644 42.8777 23.5551 42.7232 23.1219 42.4338C22.6887 42.1443 22.3511 41.7329 22.1517 41.2516C21.9523 40.7703 21.9002 40.2406 22.0018 39.7297C22.1035 39.2187 22.3543 38.7493 22.7227 38.3809C23.0911 38.0125 23.5605 37.7617 24.0715 37.66C24.5824 37.5584 25.1121 37.6105 25.5934 37.8099C26.0747 38.0093 26.4861 38.3469 26.7756 38.7801C27.065 39.2133 27.2195 39.7226 27.2195 40.2436C27.2195 40.9422 26.942 41.6122 26.448 42.1062C25.954 42.6002 25.284 42.8777 24.5854 42.8777ZM30.7317 42.8777H28.9756V37.6094H30.7317V42.8777Z" stroke="#A2FF29" stroke-width="2.40141" mask="url(#path-2-inside-1_152_6)"/>
<path opacity="0.2" d="M8.03308 33.2233C4.88862 32.34 2.97871 30.9092 2.97871 29.582V28.534C2.34154 28.2645 1.73779 27.9081 1.17871 27.4865L8.03308 33.2233ZM1.17871 28.1038C1.5909 28.3905 2.02539 28.6445 2.47871 28.8581V29.582C2.47871 30.2686 2.84895 30.9041 3.4063 31.4489C3.71651 31.7521 4.09852 32.0415 4.5424 32.3131C4.4167 32.2658 4.29401 32.2175 4.17441 32.1683C3.16388 31.753 2.39481 31.2849 1.88714 30.8163C1.37335 30.3421 1.17871 29.918 1.17871 29.582V28.1038ZM8.03309 38.2233C4.88863 37.34 2.97871 35.9092 2.97871 34.582V33.535C2.34154 33.2647 1.73779 32.9081 1.17871 32.4865L8.03309 38.2233ZM1.17871 33.1039C1.59094 33.3906 2.02544 33.6448 2.47871 33.8588V34.582C2.47871 35.2686 2.84895 35.9041 3.4063 36.4489C3.71651 36.7521 4.09852 37.0415 4.5424 37.3131C4.4167 37.2658 4.29401 37.2175 4.17441 37.1683C3.16388 36.753 2.39481 36.2849 1.88714 35.8163C1.37335 35.3421 1.17871 34.918 1.17871 34.582V33.1039ZM8.03309 43.2233C4.88863 42.34 2.97871 40.9092 2.97871 39.582V38.534C2.33938 38.2555 1.73539 37.9036 1.17871 37.4859L8.03309 43.2233ZM1.17871 38.102C1.5911 38.3869 2.02577 38.6389 2.47871 38.8553V39.582C2.47871 40.2686 2.84895 40.9041 3.4063 41.4489C3.71651 41.7521 4.09852 42.0415 4.5424 42.3131C4.4167 42.2658 4.29401 42.2175 4.17441 42.1683C3.16388 41.753 2.39481 41.2849 1.88714 40.8163C1.37335 40.3421 1.17871 39.918 1.17871 39.582V38.102ZM8.03722 48.2231C4.89198 47.3398 2.98071 45.9096 2.98071 44.582V43.534C2.34343 43.2644 1.73842 42.908 1.17871 42.4863L8.03722 48.2231ZM1.17871 43.1034C1.59167 43.3903 2.02702 43.6445 2.48071 43.8581V44.582C2.48071 45.2687 2.85108 45.9041 3.40848 46.4487C3.71888 46.7519 4.10114 47.0414 4.5453 47.313C4.41955 47.2657 4.29681 47.2174 4.17716 47.1683C3.16579 46.7529 2.39598 46.2848 1.8878 45.8162C1.37346 45.3419 1.17871 44.9178 1.17871 44.582V43.1034ZM4.10019 22.8629C3.84937 23.0226 3.62441 23.1883 3.42784 23.3592C2.87302 23.8417 2.47871 24.4261 2.47871 25.082C2.47871 25.7379 2.87332 26.3222 3.42819 26.8045C3.6254 26.9759 3.85117 27.1421 4.10295 27.3021C3.11534 26.9366 2.3632 26.5269 1.86536 26.1186C1.34647 25.6931 1.17871 25.3342 1.17871 25.082C1.17871 24.8299 1.34647 24.471 1.86536 24.0455C2.36274 23.6375 3.11394 23.2282 4.10019 22.8629ZM1.17871 48.102C1.5911 48.3869 2.02577 48.6389 2.47871 48.8553V49.582C2.47871 50.2702 2.84924 50.9066 3.40739 51.4518C3.71286 51.7502 4.08783 52.0351 4.52276 52.3027C4.40588 52.2584 4.29161 52.2133 4.18001 52.1675C3.16814 51.752 2.39753 51.2838 1.88868 50.8151C1.37353 50.3407 1.17871 49.9169 1.17871 49.582V48.102ZM1.17871 53.102C1.5911 53.3869 2.02577 53.6389 2.47871 53.8553V54.582C2.47871 55.2702 2.84924 55.9066 3.40739 56.4518C3.71356 56.7509 4.08955 57.0364 4.52575 57.3045C4.40781 57.2599 4.29253 57.2144 4.17997 57.1682C3.1681 56.7529 2.39753 56.2847 1.88871 55.816C1.37365 55.3415 1.17871 54.9175 1.17871 54.582V53.102Z" fill="#F8FFEF" stroke="#A2FF29"/>
<path opacity="0.2" d="M18.1787 62.1021C18.5924 62.389 19.0273 62.6431 19.4787 62.8615V63.582V63.583C19.4787 64.2713 19.8484 64.9079 20.4062 65.4534C20.7112 65.7517 21.0856 66.0365 21.52 66.304C21.4021 66.2593 21.2869 66.2138 21.1745 66.1676C20.1639 65.7521 19.3948 65.284 18.8871 64.8155C18.3732 64.3412 18.1787 63.9174 18.1787 63.582V62.1021Z" fill="#F8FFEF" stroke="#A2FF29"/>
<path opacity="0.2" d="M18.1787 57.1021C18.5924 57.389 19.0273 57.6431 19.4787 57.8615V58.582V58.583C19.4787 59.2713 19.8484 59.9079 20.4062 60.4534C20.7112 60.7517 21.0856 61.0365 21.52 61.304C21.4021 61.2593 21.2869 61.2138 21.1745 61.1676C20.1639 60.7521 19.3948 60.284 18.8871 59.8155C18.3732 59.3412 18.1787 58.9174 18.1787 58.582V57.1021Z" fill="#F8FFEF" stroke="#A2FF29"/>
<path opacity="0.2" d="M18.1787 52.1021C18.5924 52.389 19.0273 52.6431 19.4787 52.8615V53.582V53.583C19.4787 54.2713 19.8484 54.9079 20.4062 55.4534C20.7112 55.7517 21.0856 56.0365 21.52 56.304C21.4021 56.2593 21.2869 56.2138 21.1745 56.1676C20.1639 55.7521 19.3948 55.284 18.8871 54.8155C18.3732 54.3412 18.1787 53.9174 18.1787 53.582V52.1021Z" fill="#F8FFEF" stroke="#A2FF29"/>
<path opacity="0.2" d="M43.9908 35.3288C44.5037 35.218 45.008 35.0708 45.5001 34.8885C45.0004 34.9538 44.4962 34.9865 43.9907 34.986M43.9908 35.3288L36.2692 17.3805C33.4369 20.0165 32.3228 23.9501 33.4907 27.64C34.8707 32 39.1427 34.987 43.9907 34.986M43.9908 35.3288L43.9907 34.986M43.9908 35.3288L43.9907 34.986M21.1002 46.8629C20.8494 47.0226 20.6244 47.1883 20.4278 47.3592C19.873 47.8417 19.4787 48.4261 19.4787 49.082C19.4787 49.7379 19.8733 50.3222 20.4282 50.8044C20.6256 50.976 20.8517 51.1423 21.1038 51.3024C20.1158 50.9368 19.3633 50.527 18.8654 50.1186C18.3465 49.6931 18.1787 49.3342 18.1787 49.082C18.1787 48.8299 18.3465 48.471 18.8654 48.0455C19.3627 47.6375 20.1139 47.2283 21.1002 46.8629ZM33.014 27.7909C34.3932 32.1484 38.5065 35.175 43.2448 35.4634C42.7821 35.5307 42.3142 35.5688 41.8437 35.577C39.875 35.6113 37.9328 35.1204 36.2169 34.1548C32.7591 32.1852 30.8366 28.5386 31.2428 24.794C31.5032 22.3936 32.6881 20.2119 34.5121 18.6184C32.6179 21.2457 32.0045 24.6014 33.014 27.7909ZM41.8524 36.077C43.144 36.0545 44.4172 35.8161 45.6208 35.3769L35.9726 16.9739C33.06 18.627 31.0987 21.4855 30.7457 24.74C30.3167 28.695 32.3497 32.528 35.9707 34.59C37.7643 35.5996 39.7945 36.1128 41.8524 36.077Z" fill="#F8FFEF" stroke="#A2FF29"/>
</svg>
