<svg width="97" height="80" viewBox="0 0 97 80" fill="none" xmlns="http://www.w3.org/2000/svg">
<path d="M1.7036 41.9272L9.06117 45.9404C9.08765 45.9548 9.11498 45.9676 9.14302 45.9787C9.14859 45.9809 9.15437 45.9828 9.16005 45.9849C9.18142 45.9928 9.2032 45.9998 9.22537 46.0058C9.23294 46.0079 9.2404 46.0099 9.24797 46.0118C9.26918 46.0167 9.29079 46.0207 9.3126 46.0237C9.31987 46.0249 9.32703 46.0263 9.3343 46.0271C9.39144 46.0342 9.44923 46.0342 9.50637 46.0271C9.51364 46.0263 9.52081 46.0249 9.52808 46.0238C9.55749 46.0196 9.58662 46.0136 9.61531 46.0059C9.63748 45.9999 9.65922 45.9929 9.68053 45.985C9.68621 45.9828 9.69198 45.981 9.69766 45.9787C9.72569 45.9676 9.75303 45.9548 9.77951 45.9404L17.1371 41.9272C17.2549 41.8629 17.3532 41.7681 17.4217 41.6528C17.4902 41.5374 17.5263 41.4057 17.5263 41.2715V32.5744C17.5263 32.5714 17.5257 32.5684 17.5256 32.5654C17.525 32.5041 17.5167 32.4431 17.501 32.3839C17.4991 32.3768 17.497 32.3698 17.495 32.3628C17.4882 32.3401 17.4803 32.3176 17.4714 32.2954C17.4685 32.2884 17.4659 32.2814 17.4629 32.2745C17.451 32.247 17.4375 32.2202 17.4225 32.1944L17.4219 32.1936L17.4199 32.1906C17.4048 32.1657 17.3884 32.1417 17.3706 32.1187C17.3658 32.1126 17.3608 32.1068 17.3558 32.1008C17.3406 32.0821 17.3245 32.0644 17.3078 32.0475C17.3028 32.0425 17.2981 32.0376 17.2931 32.0329C17.2486 31.9906 17.1989 31.9541 17.1453 31.924C17.1425 31.9224 17.14 31.9203 17.1371 31.9188L9.77792 27.9047C9.66821 27.8448 9.54525 27.8135 9.42029 27.8135C9.29533 27.8135 9.17237 27.8448 9.06266 27.9047L1.7037 31.9188C1.70071 31.9204 1.69822 31.9225 1.69533 31.924C1.64184 31.9541 1.59227 31.9906 1.54776 32.0328C1.54268 32.0376 1.5378 32.0427 1.53282 32.0477C1.51616 32.0644 1.50023 32.0821 1.48503 32.1006C1.48005 32.1067 1.47487 32.1126 1.47009 32.1189C1.45228 32.1418 1.43583 32.1658 1.4208 32.1906L1.41881 32.1936L1.41831 32.1944C1.40322 32.2202 1.38969 32.247 1.37778 32.2745C1.3748 32.2814 1.37221 32.2884 1.36942 32.2954C1.36039 32.3177 1.35252 32.3401 1.34582 32.3628C1.34373 32.3697 1.34154 32.3767 1.33975 32.3839C1.32404 32.4431 1.31575 32.5041 1.31505 32.5654C1.31505 32.5684 1.31445 32.5714 1.31445 32.5744V41.2715C1.31446 41.4057 1.35061 41.5374 1.41911 41.6528C1.4876 41.7681 1.58591 41.8629 1.7037 41.9272H1.7036ZM16.0326 40.8282L10.1672 44.0276V37.349L16.0327 33.8831L16.0326 40.8282ZM9.42044 29.4109L15.2675 32.6004L9.42044 36.0555L3.57333 32.6003L9.42044 29.4109ZM2.80799 33.8831L8.67352 37.349V44.0276L2.80799 40.8282V33.8831ZM31.1194 75.5209L31.0883 75.526C30.893 75.5614 30.7197 75.6724 30.6058 75.8349C30.4919 75.9974 30.4467 76.1982 30.4801 76.3938C30.5134 76.5894 30.6226 76.7639 30.7839 76.8795C30.9452 76.9951 31.1455 77.0424 31.3415 77.0111C31.5374 76.9798 31.7131 76.8724 31.8303 76.7123C31.9476 76.5523 31.997 76.3524 31.9677 76.1562C31.9385 75.9599 31.833 75.7831 31.6742 75.6642C31.5153 75.5453 31.316 75.4938 31.1194 75.521V75.5209ZM31.2458 76.3685L31.2297 76.2596L31.2473 76.3772L31.2458 76.3685ZM52.2967 32.5654C52.296 32.5041 52.2877 32.4431 52.272 32.3839C52.2702 32.3768 52.268 32.3698 52.266 32.3628C52.2592 32.3401 52.2513 32.3176 52.2423 32.2954C52.2395 32.2884 52.2369 32.2814 52.2339 32.2745C52.222 32.247 52.2085 32.2202 52.1934 32.1944L52.1928 32.1936L52.1909 32.1906C52.1759 32.1658 52.1594 32.1418 52.1416 32.1189C52.1368 32.1126 52.1317 32.1068 52.1267 32.1007C52.1115 32.0821 52.0956 32.0644 52.0789 32.0476L52.064 32.0327C52.0195 31.9906 51.9699 31.9541 51.9165 31.9241C51.9135 31.9225 51.911 31.9204 51.908 31.9187L44.549 27.9047C44.4393 27.8448 44.3163 27.8135 44.1913 27.8135C44.0664 27.8135 43.9434 27.8448 43.8337 27.9047L36.4745 31.9188C36.4716 31.9204 36.469 31.9225 36.4661 31.9241C36.4127 31.9541 36.3632 31.9906 36.3187 32.0327C36.3135 32.0377 36.3086 32.0428 36.3036 32.0479C36.287 32.0645 36.2711 32.082 36.256 32.1005C36.251 32.1067 36.2458 32.1126 36.2409 32.1189C36.2232 32.1418 36.2067 32.1658 36.1917 32.1906L36.1898 32.1936L36.1892 32.1944C36.1741 32.2202 36.1606 32.247 36.1487 32.2745C36.1457 32.2814 36.1431 32.2884 36.1403 32.2954C36.1313 32.3177 36.1234 32.3401 36.1167 32.3628C36.1147 32.3697 36.1125 32.3767 36.1106 32.3839C36.0949 32.4431 36.0867 32.5041 36.086 32.5654C36.086 32.5684 36.0853 32.5714 36.0853 32.5744V41.2715C36.0853 41.4057 36.1215 41.5374 36.19 41.6528C36.2585 41.7681 36.3568 41.8629 36.4746 41.9272L43.8321 45.9404C43.8586 45.9548 43.8859 45.9676 43.914 45.9787C43.9196 45.9809 43.9254 45.9828 43.9311 45.9849C43.9524 45.9928 43.9741 45.9998 43.9963 46.0058L44.019 46.0118C44.0402 46.0167 44.0617 46.0207 44.0835 46.0237C44.0908 46.0249 44.098 46.0263 44.1052 46.0271C44.1624 46.0342 44.2202 46.0342 44.2773 46.0271C44.2846 46.0263 44.2918 46.0249 44.299 46.0238C44.3284 46.0196 44.3576 46.0136 44.3862 46.0059C44.4085 45.9999 44.4303 45.9929 44.4516 45.985C44.4572 45.9828 44.463 45.981 44.4686 45.9787C44.4966 45.9676 44.524 45.9548 44.5504 45.9404L51.9081 41.9272C52.0259 41.8629 52.1242 41.7681 52.1927 41.6527C52.2611 41.5374 52.2973 41.4057 52.2973 41.2715V32.5744C52.2973 32.5714 52.2967 32.5684 52.2967 32.5654ZM43.4445 44.0276L37.5789 40.8282V33.8831L43.4445 37.349V44.0276ZM44.1913 36.0555L38.3442 32.6003L44.1913 29.4109L50.0384 32.6004L44.1913 36.0555ZM50.8036 40.8282L44.9381 44.0276V37.349L50.8036 33.8831V40.8282ZM3.60261 57.0895C3.61735 57.0895 3.63218 57.0891 3.64712 57.0882C3.74503 57.0824 3.84085 57.0575 3.92911 57.0147C4.01736 56.9719 4.09633 56.9121 4.16149 56.8388C4.22665 56.7655 4.27673 56.6801 4.30888 56.5874C4.34102 56.4948 4.3546 56.3967 4.34883 56.2988L4.34744 56.2779C4.33126 56.082 4.23844 55.9003 4.08914 55.7724C3.93984 55.6444 3.74611 55.5805 3.54997 55.5945C3.35384 55.6085 3.17115 55.6993 3.04154 55.8471C2.91193 55.995 2.84586 56.188 2.85768 56.3843L3.60331 56.3427L2.85778 56.3865C2.86895 56.5765 2.95226 56.7551 3.0907 56.8858C3.22914 57.0164 3.41225 57.0893 3.60261 57.0895ZM3.83014 51.1418C3.92638 51.1609 4.02543 51.1607 4.12162 51.1415C4.21781 51.1222 4.30926 51.0841 4.39072 51.0295C4.47219 50.9748 4.54207 50.9046 4.59638 50.8229C4.65069 50.7412 4.68835 50.6496 4.70721 50.5533L4.70989 50.5396C4.74571 50.3456 4.70333 50.1453 4.592 49.9825C4.48067 49.8197 4.30944 49.7075 4.11569 49.6704C3.92194 49.6334 3.72141 49.6745 3.55788 49.7848C3.39434 49.8951 3.28109 50.0657 3.24284 50.2592L3.97443 50.4091L3.24175 50.2647C3.22279 50.361 3.22298 50.46 3.2423 50.5562C3.26162 50.6523 3.29969 50.7437 3.35434 50.8252C3.40898 50.9066 3.47914 50.9765 3.5608 51.0308C3.64245 51.0852 3.73401 51.1229 3.83024 51.1418H3.83014ZM2.85609 53.2993L2.85479 53.3202C2.84315 53.518 2.91051 53.7123 3.04208 53.8604C3.17365 54.0085 3.35865 54.0983 3.55641 54.1101C3.57134 54.1109 3.58628 54.1113 3.60102 54.1113C3.74733 54.1121 3.89072 54.0703 4.0136 53.9909C4.13648 53.9114 4.23351 53.7979 4.2928 53.6641C4.35208 53.5303 4.37105 53.3822 4.34736 53.2378C4.32367 53.0934 4.25837 52.9591 4.15945 52.8512C4.06053 52.7434 3.9323 52.6668 3.79048 52.6308C3.64866 52.5948 3.49942 52.601 3.36105 52.6485C3.22268 52.6961 3.1012 52.783 3.01151 52.8986C2.92181 53.0142 2.8678 53.1535 2.85609 53.2993ZM22.4367 31.3859C22.5418 31.3871 22.6459 31.366 22.7424 31.3242C22.8388 31.2824 22.9253 31.2207 22.9962 31.1432C23.0672 31.0657 23.1211 30.9741 23.1542 30.8744C23.1874 30.7747 23.1992 30.6691 23.1888 30.5645C23.1785 30.4599 23.1462 30.3587 23.0941 30.2674C23.0419 30.1762 22.9712 30.0969 22.8863 30.0349C22.8015 29.9728 22.7046 29.9293 22.6019 29.9072C22.4991 29.8852 22.3929 29.885 22.29 29.9067C22.2831 29.9081 22.2664 29.912 22.2595 29.9137C22.0821 29.9571 21.9269 30.064 21.8229 30.2141C21.719 30.3642 21.6737 30.5471 21.6955 30.7284C21.7174 30.9096 21.8048 31.0766 21.9414 31.1978C22.0779 31.3189 22.2542 31.3859 22.4367 31.3859ZM33.9175 74.8832C33.7283 74.9383 33.5685 75.0659 33.473 75.2383C33.3774 75.4107 33.3539 75.6138 33.4075 75.8034C33.4611 75.9931 33.5875 76.1539 33.7591 76.2507C33.9308 76.3476 34.1337 76.3727 34.3238 76.3205C34.3306 76.3186 34.3469 76.3138 34.3537 76.3117C34.542 76.253 34.6995 76.1221 34.7917 75.9477C34.8839 75.7732 34.9033 75.5694 34.8456 75.3807C34.788 75.192 34.6581 75.0338 34.4842 74.9405C34.3103 74.8473 34.1066 74.8267 33.9175 74.8832ZM34.0039 31.7118C34.0116 31.7143 34.0288 31.7194 34.0366 31.7214C34.2281 31.7726 34.432 31.7462 34.6041 31.648C34.7762 31.5498 34.9027 31.3877 34.9561 31.1968C35.0094 31.006 34.9853 30.8018 34.8891 30.6285C34.7928 30.4553 34.6322 30.327 34.4419 30.2715C34.2517 30.216 34.0472 30.2377 33.8729 30.332C33.6986 30.4263 33.5685 30.5855 33.5108 30.7751C33.4532 30.9647 33.4726 31.1694 33.5649 31.3448C33.6572 31.5201 33.8149 31.652 34.0039 31.7118ZM28.3405 30.8113L28.3629 30.8116C28.5592 30.8117 28.7476 30.7345 28.8874 30.5968C29.0272 30.459 29.1072 30.2718 29.11 30.0755C29.1128 29.8793 29.0383 29.6898 28.9025 29.5481C28.7667 29.4064 28.5806 29.3238 28.3844 29.3182L28.3744 29.3179C28.2767 29.3153 28.1794 29.3319 28.088 29.3669C27.9967 29.4019 27.9132 29.4546 27.8423 29.5219C27.7714 29.5893 27.7145 29.6699 27.6748 29.7593C27.6351 29.8487 27.6134 29.945 27.611 30.0428C27.6063 30.2413 27.6804 30.4336 27.8171 30.5776C27.9538 30.7216 28.142 30.8056 28.3405 30.8113ZM31.2051 31.0808C31.3992 31.1121 31.5978 31.0656 31.7578 30.9514C31.9178 30.8372 32.0264 30.6644 32.0598 30.4707C32.0933 30.277 32.049 30.0778 31.9366 29.9165C31.8242 29.7552 31.6527 29.6448 31.4594 29.6091C31.4522 29.6077 31.4355 29.6051 31.4282 29.6039C31.2324 29.5743 31.0328 29.6238 30.8734 29.7413C30.714 29.8589 30.6078 30.035 30.5782 30.2308C30.5486 30.4267 30.598 30.6262 30.7156 30.7857C30.8332 30.9451 31.0092 31.0512 31.2051 31.0808ZM25.3748 30.91C25.3968 30.91 25.419 30.909 25.4413 30.907C25.4489 30.9064 25.4664 30.9046 25.4741 30.9037C25.6668 30.8786 25.8422 30.7796 25.9633 30.6275C26.0843 30.4755 26.1415 30.2824 26.1228 30.0889C26.1042 29.8955 26.011 29.7169 25.8631 29.5908C25.7152 29.4648 25.524 29.4012 25.3301 29.4134C25.1361 29.4257 24.9545 29.5129 24.8236 29.6565C24.6928 29.8002 24.6228 29.9891 24.6286 30.1833C24.6344 30.3776 24.7155 30.562 24.8547 30.6976C24.994 30.8332 25.1805 30.9093 25.3748 30.91ZM19.5755 32.2391C19.6849 32.2409 19.7934 32.2188 19.8933 32.1742C19.9933 32.1297 20.0822 32.0638 20.154 31.9812C20.2257 31.8985 20.2785 31.8012 20.3086 31.696C20.3387 31.5908 20.3454 31.4803 20.3283 31.3722C20.3111 31.2641 20.2705 31.1611 20.2092 31.0705C20.148 30.9798 20.0676 30.9036 19.9738 30.8473C19.88 30.7909 19.775 30.7559 19.6662 30.7445C19.5573 30.7331 19.4473 30.7456 19.3439 30.7813L19.3186 30.7906C19.1544 30.8515 19.0169 30.9681 18.9299 31.12C18.8429 31.272 18.812 31.4496 18.8425 31.622C18.8731 31.7945 18.9632 31.9507 19.0972 32.0634C19.2311 32.1762 19.4004 32.2384 19.5755 32.2391ZM3.25091 59.4411C3.28414 59.6099 3.37506 59.7618 3.50806 59.8709C3.64107 59.98 3.80788 60.0394 3.9799 60.039C4.08417 60.0391 4.1873 60.0173 4.28269 59.9752C4.37808 59.9331 4.46364 59.8716 4.53388 59.7945C4.60412 59.7175 4.6575 59.6266 4.6906 59.5277C4.72371 59.4288 4.73581 59.3241 4.72614 59.2203C4.71647 59.1165 4.68523 59.0158 4.63443 58.9248C4.58362 58.8337 4.51437 58.7543 4.4311 58.6915C4.34784 58.6288 4.25238 58.5841 4.15086 58.5603C4.04933 58.5366 3.94396 58.5343 3.84149 58.5536C3.74516 58.572 3.65339 58.6091 3.57143 58.663C3.48947 58.7169 3.41892 58.7863 3.36381 58.8675C3.3087 58.9486 3.27011 59.0398 3.25024 59.1358C3.23037 59.2319 3.22962 59.3309 3.24802 59.4272C3.24842 59.4286 3.25061 59.4397 3.25091 59.4411ZM28.2427 75.7971L28.2325 75.7974C28.0363 75.803 27.8501 75.8856 27.7143 76.0273C27.5785 76.1691 27.504 76.3586 27.5069 76.5549C27.5098 76.7512 27.5898 76.9385 27.7297 77.0762C27.8696 77.2139 28.0581 77.291 28.2544 77.2908L28.277 77.2905L28.2647 76.5437L28.2866 77.2902C28.4846 77.2844 28.6722 77.2001 28.8081 77.056C28.9439 76.9119 29.017 76.7197 29.0112 76.5217C29.0054 76.3238 28.9212 76.1362 28.7771 76.0003C28.633 75.8644 28.4408 75.7913 28.2428 75.7971H28.2427ZM49.1035 46.6367C49.0085 46.6612 48.9193 46.7041 48.8409 46.763C48.7625 46.822 48.6965 46.8958 48.6466 46.9803C48.5968 47.0647 48.564 47.1582 48.5503 47.2553C48.5366 47.3524 48.5421 47.4513 48.5665 47.5462L48.5733 47.5716C48.6176 47.729 48.7121 47.8677 48.8423 47.9667C48.9725 48.0657 49.1314 48.1195 49.2949 48.1201C49.4098 48.1199 49.5231 48.0933 49.626 48.0422C49.7289 47.9911 49.8186 47.9169 49.8881 47.8255C49.9576 47.734 50.0051 47.6277 50.0268 47.5149C50.0485 47.4021 50.0439 47.2858 50.0133 47.1751L49.2898 47.3599L50.013 47.1736C49.9885 47.0786 49.9456 46.9894 49.8867 46.911C49.8277 46.8326 49.7539 46.7666 49.6695 46.7167C49.585 46.6668 49.4915 46.6341 49.3944 46.6204C49.2973 46.6067 49.1984 46.6122 49.1035 46.6367ZM50.8036 53.2551C50.8035 53.1573 50.7841 53.0605 50.7465 52.9702C50.7089 52.8799 50.6538 52.7979 50.5844 52.729C50.515 52.6601 50.4327 52.6055 50.3421 52.5685C50.2516 52.5315 50.1546 52.5127 50.0568 52.5133C49.8582 52.5144 49.6681 52.5941 49.5282 52.735C49.3882 52.8759 49.3098 53.0665 49.31 53.2651C49.31 53.2736 49.3101 53.2821 49.3104 53.2906C49.3101 53.2987 49.31 53.3068 49.31 53.3149C49.31 53.5129 49.3887 53.7029 49.5287 53.8429C49.6688 53.983 49.8587 54.0617 50.0568 54.0617C50.2549 54.0617 50.4448 53.983 50.5849 53.8429C50.7249 53.7029 50.8036 53.5129 50.8036 53.3149V53.3049C50.8036 53.2979 50.8035 53.291 50.8033 53.2841C50.8035 53.2778 50.8036 53.2714 50.8036 53.2651V53.2551ZM22.5224 75.2552C22.5115 75.2527 22.5006 75.2502 22.4896 75.2478C22.2953 75.2082 22.0931 75.2468 21.9271 75.3552C21.7611 75.4637 21.6445 75.6333 21.6027 75.8272C21.5609 76.021 21.5973 76.2236 21.7039 76.3908C21.8105 76.558 21.9788 76.6765 22.1722 76.7204C22.3656 76.7644 22.5685 76.7303 22.7369 76.6256C22.9053 76.5208 23.0256 76.3539 23.0718 76.161C23.1179 75.9681 23.0861 75.7648 22.9832 75.5953C22.8804 75.4257 22.7148 75.3035 22.5224 75.2552ZM22.3239 76.0746L22.3251 76.0689L22.3465 75.9811L22.3239 76.0746ZM25.357 75.7076C25.1601 75.6854 24.9626 75.7423 24.8077 75.8657C24.6528 75.9892 24.5533 76.1691 24.531 76.366C24.5088 76.5628 24.5657 76.7604 24.6892 76.9153C24.8126 77.0702 24.9926 77.1697 25.1894 77.1919C25.197 77.1928 25.2145 77.1945 25.2222 77.1952C25.2445 77.1972 25.2667 77.1982 25.2886 77.1982C25.4808 77.1983 25.6657 77.1244 25.8048 76.9916C25.9439 76.8589 26.0265 76.6777 26.0353 76.4856C26.0441 76.2936 25.9785 76.1055 25.8522 75.9606C25.7259 75.8157 25.5485 75.7251 25.3571 75.7076H25.357ZM28.9158 47.9106V47.0814C28.9158 46.8833 28.8371 46.6934 28.6971 46.5533C28.557 46.4133 28.3671 46.3346 28.169 46.3346C27.9709 46.3346 27.781 46.4133 27.6409 46.5533C27.5009 46.6934 27.4222 46.8833 27.4222 47.0814V47.749H26.5789V47.0814C26.5789 46.8833 26.5002 46.6934 26.3601 46.5533C26.2201 46.4133 26.0301 46.3346 25.8321 46.3346C25.634 46.3346 25.444 46.4133 25.304 46.5533C25.1639 46.6934 25.0852 46.8833 25.0852 47.0814V47.749H23.6306C23.4326 47.749 23.2426 47.8276 23.1025 47.9677C22.9625 48.1078 22.8838 48.2977 22.8838 48.4958C22.8838 48.6939 22.9625 48.8838 23.1025 49.0239C23.2426 49.1639 23.4326 49.2426 23.6306 49.2426H23.9194V57.3672H23.6306C23.4326 57.3672 23.2426 57.4459 23.1025 57.5859C22.9625 57.726 22.8838 57.916 22.8838 58.114C22.8838 58.3121 22.9625 58.5021 23.1025 58.6421C23.2426 58.7822 23.4326 58.8608 23.6306 58.8608H25.0852V59.5284C25.0852 59.7265 25.1639 59.9164 25.304 60.0565C25.444 60.1965 25.634 60.2752 25.8321 60.2752C26.0301 60.2752 26.2201 60.1965 26.3601 60.0565C26.5002 59.9164 26.5789 59.7265 26.5789 59.5284V58.8608H27.4223V59.5284C27.4223 59.7265 27.501 59.9164 27.641 60.0565C27.7811 60.1965 27.971 60.2752 28.1691 60.2752C28.3672 60.2752 28.5571 60.1965 28.6972 60.0565C28.8372 59.9164 28.9159 59.7265 28.9159 59.5284V58.6992C29.4461 58.5079 29.9044 58.1579 30.2286 57.6969C30.5528 57.2358 30.7271 56.6861 30.7278 56.1225V55.2964C30.7279 54.9232 30.6515 54.5539 30.5032 54.2114C30.355 53.8688 30.1381 53.5603 29.866 53.3049C30.1381 53.0495 30.355 52.741 30.5032 52.3984C30.6515 52.0559 30.7279 51.6866 30.7278 51.3134V50.4873C30.7271 49.9237 30.5528 49.3739 30.2286 48.9129C29.9044 48.4518 29.446 48.1019 28.9158 47.9106ZM29.2342 56.1225C29.2338 56.4525 29.1025 56.7689 28.8692 57.0022C28.6358 57.2356 28.3195 57.3668 27.9895 57.3672H25.4131V54.0517H27.9895C28.3195 54.0521 28.6358 54.1833 28.8692 54.4167C29.1025 54.65 29.2338 54.9664 29.2342 55.2964V56.1225ZM29.2342 51.3134C29.2338 51.6434 29.1025 51.9598 28.8692 52.1931C28.6358 52.4265 28.3195 52.5577 27.9895 52.5581H25.4131V49.2426H27.9895C28.3195 49.243 28.6358 49.3742 28.8692 49.6076C29.1025 49.8409 29.2338 50.1573 29.2342 50.4873V51.3134ZM52.2721 65.1478L52.2659 65.1267C52.2592 65.104 52.2513 65.0815 52.2423 65.0593C52.2395 65.0523 52.2369 65.0453 52.2339 65.0383C52.222 65.0109 52.2085 64.9841 52.1934 64.9583L52.1928 64.9575L52.1909 64.9545C52.1759 64.9296 52.1594 64.9057 52.1415 64.8827C52.1368 64.8765 52.1318 64.8708 52.1268 64.8647C52.1115 64.8461 52.0955 64.8284 52.0788 64.8115C52.0738 64.8065 52.0691 64.8015 52.0641 64.7968C52.0195 64.7545 51.9699 64.7179 51.9163 64.6878C51.9134 64.6862 51.9109 64.6842 51.908 64.6827L44.549 60.6685C44.4393 60.6087 44.3163 60.5774 44.1913 60.5774C44.0664 60.5774 43.9434 60.6087 43.8337 60.6685L36.4745 64.6827C36.4716 64.6842 36.469 64.6863 36.4661 64.688C36.4127 64.718 36.3632 64.7545 36.3188 64.7966C36.3135 64.8016 36.3086 64.8067 36.3036 64.8118C36.287 64.8285 36.2711 64.846 36.256 64.8645C36.251 64.8706 36.2458 64.8765 36.241 64.8828C36.2232 64.9057 36.2067 64.9297 36.1916 64.9545L36.1898 64.9575L36.1892 64.9583C36.1741 64.9841 36.1606 65.0109 36.1487 65.0383C36.1457 65.0453 36.1431 65.0523 36.1403 65.0593C36.1313 65.0816 36.1234 65.104 36.1167 65.1267C36.1147 65.1336 36.1125 65.1406 36.1106 65.1478C36.0949 65.207 36.0867 65.268 36.086 65.3293C36.086 65.3323 36.0853 65.3353 36.0853 65.3383V74.0355C36.0853 74.1697 36.1215 74.3014 36.19 74.4168C36.2585 74.5321 36.3568 74.6269 36.4746 74.6911L43.8321 78.7043C43.8586 78.7187 43.8859 78.7315 43.914 78.7426C43.9196 78.7448 43.9254 78.7467 43.9311 78.7488C43.9524 78.7567 43.9741 78.7637 43.9963 78.7697L44.019 78.7756C44.0402 78.7806 44.0617 78.7846 44.0835 78.7877C44.0908 78.7887 44.098 78.7902 44.1052 78.7911C44.1624 78.7982 44.2202 78.7982 44.2773 78.7911C44.2846 78.7902 44.2918 78.7888 44.299 78.7877C44.3284 78.7835 44.3576 78.7775 44.3862 78.7698C44.4085 78.7638 44.4303 78.7568 44.4516 78.7489C44.4572 78.7467 44.463 78.7449 44.4686 78.7426C44.4966 78.7315 44.524 78.7187 44.5504 78.7043L51.9081 74.691C52.0259 74.6268 52.1242 74.532 52.1927 74.4166C52.2611 74.3013 52.2973 74.1696 52.2973 74.0354V65.3383C52.2973 65.3353 52.2967 65.3323 52.2967 65.3293C52.296 65.268 52.2877 65.207 52.272 65.1478H52.2721ZM43.4445 76.7915L37.5789 73.5921V66.6471L43.4445 70.1131V76.7915ZM44.1913 68.8194L38.3442 65.3642L44.1913 62.1748L50.0385 65.3643L44.1913 68.8194ZM50.8036 73.5921L44.9381 76.7915V70.113L50.8036 66.6471V73.5921ZM50.6026 50.185C50.5766 49.9899 50.4741 49.8131 50.3178 49.6934C50.1615 49.5738 49.9641 49.5211 49.7689 49.547C49.622 49.5651 49.4838 49.6264 49.3716 49.723C49.2595 49.8196 49.1785 49.9473 49.1388 50.0899C49.0991 50.2325 49.1026 50.3836 49.1487 50.5243C49.1949 50.6649 49.2817 50.7888 49.3981 50.8801C49.5146 50.9715 49.6555 51.0264 49.8031 51.0378C49.9506 51.0492 50.0983 51.0166 50.2274 50.9441C50.3565 50.8717 50.4612 50.7627 50.5284 50.6308C50.5956 50.4989 50.6222 50.35 50.6049 50.203L50.6026 50.185ZM17.501 65.1478C17.4991 65.1407 17.497 65.1337 17.495 65.1267C17.4882 65.104 17.4803 65.0815 17.4714 65.0593C17.4685 65.0523 17.4659 65.0453 17.4629 65.0383C17.451 65.0109 17.4375 64.9841 17.4225 64.9583L17.4219 64.9575L17.4199 64.9545C17.4048 64.9296 17.3884 64.9057 17.3706 64.8827C17.3658 64.8765 17.3608 64.8708 17.3559 64.8648C17.3405 64.846 17.3244 64.8282 17.3077 64.8113C17.3028 64.8064 17.2981 64.8015 17.2931 64.7969C17.2485 64.7545 17.1988 64.7178 17.1451 64.6877C17.1424 64.6862 17.1399 64.6841 17.1371 64.6827L9.77792 60.6685C9.66821 60.6087 9.54525 60.5774 9.42029 60.5774C9.29533 60.5774 9.17237 60.6087 9.06266 60.6685L1.7037 64.6827C1.70071 64.6842 1.69812 64.6864 1.69513 64.688C1.64183 64.718 1.59243 64.7544 1.54806 64.7965C1.54268 64.8015 1.5377 64.8067 1.53252 64.812C1.51599 64.8286 1.50023 64.846 1.48523 64.8643C1.48015 64.8705 1.47487 64.8765 1.46999 64.8829C1.45222 64.9058 1.4358 64.9298 1.4208 64.9546L1.41881 64.9575L1.41831 64.9583C1.40322 64.9841 1.38969 65.0109 1.37778 65.0383C1.3748 65.0453 1.37221 65.0523 1.36942 65.0593C1.36039 65.0816 1.35252 65.104 1.34582 65.1267C1.34373 65.1336 1.34154 65.1406 1.33975 65.1478C1.32404 65.207 1.31575 65.268 1.31505 65.3293C1.31505 65.3323 1.31445 65.3353 1.31445 65.3383V74.0354C1.31446 74.1696 1.35061 74.3013 1.41911 74.4167C1.4876 74.532 1.58591 74.6268 1.7037 74.691L9.06127 78.7043C9.08775 78.7187 9.11508 78.7315 9.14312 78.7426C9.14869 78.7448 9.15447 78.7467 9.16015 78.7488C9.18152 78.7567 9.20329 78.7637 9.22547 78.7697C9.23303 78.7718 9.2405 78.7738 9.24807 78.7756C9.26928 78.7806 9.29089 78.7846 9.3127 78.7877C9.31996 78.7887 9.32713 78.7902 9.3344 78.7911C9.39154 78.7982 9.44933 78.7982 9.50647 78.7911C9.51374 78.7902 9.52091 78.7888 9.52818 78.7877C9.55759 78.7835 9.58672 78.7775 9.61541 78.7698C9.63758 78.7638 9.65932 78.7568 9.68063 78.7489C9.6863 78.7467 9.69208 78.7449 9.69776 78.7426C9.72579 78.7315 9.75313 78.7187 9.77961 78.7043L17.1372 74.691C17.255 74.6268 17.3533 74.532 17.4218 74.4167C17.4903 74.3013 17.5264 74.1696 17.5264 74.0354V65.3383C17.5264 65.3353 17.5258 65.3323 17.5257 65.3293C17.5251 65.268 17.5168 65.207 17.5011 65.1478H17.501ZM8.67352 76.7915L2.80799 73.5921V66.6471L8.67352 70.1131V76.7915ZM9.42034 68.8194L3.57314 65.3642L9.42024 62.1748L15.2675 65.3643L9.42034 68.8194ZM16.0327 73.5921L10.1672 76.7915V70.113L16.0327 66.647V73.5921ZM5.4365 47.7533C5.49854 47.5656 5.4836 47.3609 5.39494 47.1842C5.30629 47.0074 5.15117 46.8731 4.96359 46.8105C4.77601 46.748 4.57129 46.7624 4.39432 46.8506C4.21734 46.9388 4.08256 47.0935 4.01953 47.281L4.01535 47.2938C3.97939 47.4056 3.97031 47.5243 3.98886 47.6402C4.00741 47.7561 4.05306 47.8661 4.1221 47.961C4.19113 48.056 4.28161 48.1333 4.38617 48.1868C4.49073 48.2402 4.60642 48.2682 4.72384 48.2685C4.88158 48.2679 5.03518 48.2179 5.16302 48.1255C5.29086 48.0331 5.38651 47.903 5.4365 47.7533ZM38.1348 53.3049C38.1348 51.0642 37.4703 48.8739 36.2255 47.0109C34.9807 45.1478 33.2113 43.6958 31.1412 42.8383C29.0711 41.9808 26.7932 41.7565 24.5956 42.1936C22.398 42.6308 20.3794 43.7097 18.795 45.2941C17.2106 46.8785 16.1317 48.8971 15.6945 51.0947C15.2574 53.2923 15.4818 55.5702 16.3392 57.6403C17.1967 59.7104 18.6487 61.4797 20.5118 62.7246C22.3748 63.9694 24.5652 64.6339 26.8058 64.6339C29.8094 64.6305 32.689 63.4358 34.8128 61.3119C36.9367 59.1881 38.1314 56.3085 38.1348 53.3049ZM26.8058 63.1402C24.8606 63.1402 22.959 62.5634 21.3416 61.4827C19.7242 60.402 18.4636 58.8659 17.7192 57.0687C16.9747 55.2715 16.78 53.294 17.1595 51.3861C17.539 49.4783 18.4757 47.7258 19.8512 46.3503C21.2267 44.9748 22.9792 44.0381 24.887 43.6586C26.7949 43.2791 28.7725 43.4738 30.5696 44.2183C32.3668 44.9627 33.9029 46.2233 34.9836 47.8407C36.0643 49.4581 36.6411 51.3597 36.6411 53.3049C36.6382 55.9125 35.601 58.4124 33.7571 60.2562C31.9133 62.1001 29.4134 63.1372 26.8058 63.1402ZM49.4888 58.4781C49.3453 58.4399 49.1937 58.4451 49.0531 58.4929C48.9125 58.5407 48.7892 58.629 48.6986 58.7467C48.6081 58.8644 48.5544 59.0063 48.5443 59.1545C48.5343 59.3026 48.5682 59.4505 48.642 59.5794C48.7157 59.7083 48.8259 59.8125 48.9587 59.8789C49.0915 59.9453 49.241 59.971 49.3884 59.9526C49.5358 59.9343 49.6744 59.8728 49.7869 59.7758C49.8994 59.6788 49.9807 59.5508 50.0206 59.4077L50.0256 59.3878C50.0751 59.196 50.0463 58.9924 49.9456 58.8218C49.845 58.6512 49.6807 58.5276 49.4889 58.4781H49.4888ZM49.9666 55.5369C49.7702 55.511 49.5716 55.5641 49.4144 55.6845C49.2572 55.805 49.1542 55.9829 49.1282 56.1793C49.1279 56.1821 49.1262 56.1946 49.126 56.1972C49.103 56.3933 49.1585 56.5905 49.2806 56.7457C49.4026 56.901 49.5811 57.0016 49.7771 57.0255C49.9731 57.0495 50.1706 56.9948 50.3264 56.8736C50.4822 56.7523 50.5836 56.5743 50.6086 56.3784L49.8686 56.2773L50.609 56.3753C50.6218 56.2781 50.6154 56.1793 50.5901 56.0845C50.5648 55.9898 50.5211 55.9009 50.4614 55.8231C50.4018 55.7452 50.3274 55.6799 50.2425 55.6308C50.1576 55.5817 50.0638 55.5498 49.9666 55.5369ZM19.7503 74.4367C19.7407 74.4331 19.7312 74.4297 19.7216 74.4263C19.5337 74.3623 19.3282 74.3751 19.1497 74.4618C18.9712 74.5485 18.8342 74.7021 18.7683 74.8893C18.7025 75.0765 18.7131 75.2821 18.798 75.4614C18.8829 75.6408 19.0351 75.7794 19.2216 75.8472C19.4081 75.9149 19.6138 75.9064 19.794 75.8233C19.9743 75.7403 20.1144 75.5895 20.1841 75.4036C20.2537 75.2178 20.2472 75.0121 20.166 74.831C20.0848 74.65 19.9354 74.5083 19.7504 74.4367H19.7503ZM19.4398 75.2648L19.4437 75.2538L19.4881 75.1359L19.4398 75.2648Z" stroke="#558646" stroke-width="0.663754"/>
<path fill-rule="evenodd" clip-rule="evenodd" d="M34.023 73.7663C51.5401 82.3102 86.1882 76.8002 94.7321 59.2831C103.276 41.766 77.9325 21.9786 60.4154 13.4347C42.8982 4.89083 19.231 -7.87305 10.6871 9.64407C2.14323 27.1612 16.5157 65.2215 34.023 73.7663Z" fill="#4D6A42" fill-opacity="0.1"/>
</svg>
