<svg width="101" height="80" viewBox="0 0 101 80" fill="none" xmlns="http://www.w3.org/2000/svg">
<path opacity="0.1" fill-rule="evenodd" clip-rule="evenodd" d="M36.4915 74.6778C54.3615 83.3938 89.7075 77.7729 98.4235 59.9029C107.139 42.0329 81.2855 21.8459 63.4155 13.1299C45.5455 4.41385 21.4015 -8.60715 12.6855 9.26285C3.96948 27.1329 18.6215 65.9619 36.4915 74.6778Z" fill="#FF5C5C"/>
<g clip-path="url(#clip0_152_7)">
<path d="M23.2114 33.2461C10.3978 33.2461 0 43.6438 0 56.4575C0 69.2712 10.3978 79.6689 23.2114 79.6689C36.0251 79.6689 46.4229 69.2712 46.4229 56.4575C46.4229 43.6438 36.0251 33.2461 23.2114 33.2461ZM23.2114 34.2132C35.5019 34.2132 45.4557 44.1661 45.4557 56.4575C45.4557 68.7489 35.5019 78.7018 23.2114 78.7018C10.921 78.7018 0.967143 68.7489 0.967143 56.4575C0.967143 44.1661 10.921 34.2132 23.2114 34.2132ZM28.0471 44.3682C27.2512 44.3682 26.5964 45.024 26.5964 45.8189C26.5964 46.6139 27.2512 47.2697 28.0471 47.2697C28.8431 47.2697 29.4979 46.6139 29.4979 45.8189C29.4979 45.024 28.8431 44.3682 28.0471 44.3682ZM19.3429 45.3354C18.5469 45.3354 17.8921 45.9911 17.8921 46.7861C17.8921 47.5811 18.5469 48.2368 19.3429 48.2368C20.1388 48.2368 20.7936 47.5811 20.7936 46.7861C20.7936 45.9911 20.1388 45.3354 19.3429 45.3354ZM28.0471 45.3354C28.3199 45.3354 28.5307 45.5462 28.5307 45.8189C28.5307 46.0917 28.3199 46.3025 28.0471 46.3025C27.9834 46.3034 27.9201 46.2915 27.861 46.2676C27.8019 46.2436 27.7483 46.208 27.7032 46.1629C27.6581 46.1178 27.6225 46.0642 27.5985 46.0051C27.5745 45.946 27.5627 45.8827 27.5636 45.8189C27.5636 45.5462 27.7744 45.3354 28.0471 45.3354ZM19.3429 46.3025C19.6156 46.3025 19.8264 46.5134 19.8264 46.7861C19.8264 47.0588 19.6156 47.2697 19.3429 47.2697C19.2791 47.2706 19.2158 47.2587 19.1567 47.2347C19.0976 47.2107 19.044 47.1751 18.9989 47.1301C18.9538 47.085 18.9182 47.0313 18.8942 46.9722C18.8703 46.9131 18.8584 46.8498 18.8593 46.7861C18.8593 46.5134 19.0701 46.3025 19.3429 46.3025ZM24.1786 46.3025C23.3826 46.3025 22.7279 46.9582 22.7279 47.7532C22.7279 48.5482 23.3826 49.2039 24.1786 49.2039C24.9745 49.2039 25.6293 48.5482 25.6293 47.7532C25.6293 46.9582 24.9745 46.3025 24.1786 46.3025ZM24.1786 47.2697C24.4513 47.2697 24.6621 47.4805 24.6621 47.7532C24.6621 48.026 24.4513 48.2368 24.1786 48.2368C24.1148 48.2377 24.0515 48.2258 23.9924 48.2019C23.9334 48.1779 23.8797 48.1423 23.8346 48.0972C23.7895 48.0521 23.7539 47.9984 23.7299 47.9394C23.706 47.8803 23.6941 47.817 23.695 47.7532C23.695 47.4805 23.9058 47.2697 24.1786 47.2697ZM15.9579 50.6547C15.8634 50.6542 15.7708 50.6815 15.6916 50.7331C15.6124 50.7847 15.5501 50.8584 15.5124 50.945C15.4746 51.0316 15.4631 51.1274 15.4792 51.2206C15.4952 51.3137 15.5383 51.4001 15.6029 51.469L21.6911 58.0214V64.0206C21.691 64.0927 21.707 64.1638 21.7379 64.2289C21.7689 64.294 21.814 64.3514 21.87 64.3968L23.8691 66.0216C23.9395 66.079 24.0247 66.1155 24.1148 66.1267C24.205 66.138 24.2965 66.1236 24.3789 66.0853C24.4613 66.0469 24.5312 65.9861 24.5806 65.9098C24.63 65.8336 24.6569 65.7449 24.6583 65.6541L24.8004 58.0233L30.8219 51.4661C30.8857 51.3969 30.9279 51.3106 30.9434 51.2178C30.9589 51.125 30.947 51.0297 30.9091 50.9436C30.8712 50.8574 30.809 50.7842 30.7301 50.7329C30.6512 50.6816 30.5591 50.6544 30.465 50.6547H15.9579ZM17.0662 51.6218H29.3634L23.9648 57.504C23.8843 57.591 23.8385 57.7046 23.8362 57.8231L23.7105 64.6463L22.6582 63.7923V57.8328C22.6588 57.7102 22.6128 57.592 22.5296 57.502L17.0662 51.6218ZM23.2114 67.0961C22.4155 67.0961 21.7607 67.7518 21.7607 68.5468C21.7607 69.3418 22.4155 69.9975 23.2114 69.9975C24.0074 69.9975 24.6621 69.3418 24.6621 68.5468C24.6621 67.7518 24.0074 67.0961 23.2114 67.0961ZM23.2114 68.0632C23.4842 68.0632 23.695 68.2741 23.695 68.5468C23.695 68.8195 23.4842 69.0304 23.2114 69.0304C23.1477 69.0313 23.0844 69.0194 23.0253 68.9954C22.9662 68.9714 22.9125 68.9359 22.8675 68.8908C22.8224 68.8457 22.7868 68.792 22.7628 68.7329C22.7388 68.6739 22.7269 68.6106 22.7279 68.5468C22.7279 68.2741 22.9387 68.0632 23.2114 68.0632Z" fill="#D85B53"/>
</g>
<defs>
<clipPath id="clip0_152_7">
<rect width="54.915" height="54.915" fill="white" transform="translate(0 24.7539)"/>
</clipPath>
</defs>
</svg>
