<svg width="92" height="81" viewBox="0 0 92 81" fill="none" xmlns="http://www.w3.org/2000/svg">
<path opacity="0.1" fill-rule="evenodd" clip-rule="evenodd" d="M27.0128 76.4567C45.247 85.3503 81.3133 79.6148 90.2069 61.3806C99.1006 43.1464 72.7197 22.548 54.4855 13.6544C36.2513 4.76075 11.6153 -8.52562 2.72162 9.70857C-6.17201 27.9428 8.77859 67.5631 27.0128 76.4567Z" fill="#16C995"/>
<mask id="path-2-inside-1_152_20" fill="white">
<path d="M5.06682 57.948H22.6532L17.242 55.9188V52.5368H27.388V33.5977H0.332031V52.5368H10.478V55.9188L5.06682 57.948ZM9.5554 51.9903L7.64254 50.0774C7.51574 49.9506 7.4445 49.7786 7.4445 49.5992C7.4445 49.4199 7.51574 49.2478 7.64254 49.121L8.87832 47.8852L8.84383 47.802H7.09601C6.91662 47.802 6.74458 47.7308 6.61773 47.6039C6.49088 47.4771 6.41961 47.305 6.41961 47.1256V46.4492H3.71402L4.79626 47.2609L3.98458 48.3431L1.27899 46.3139C1.19498 46.2509 1.1268 46.1692 1.07984 46.0753C1.03288 45.9814 1.00843 45.8778 1.00843 45.7728C1.00843 45.6678 1.03288 45.5643 1.07984 45.4703C1.1268 45.3764 1.19498 45.2947 1.27899 45.2317L3.98458 43.2025L4.79626 44.2847L3.71402 45.0964H6.41961V44.42C6.41961 44.2406 6.49088 44.0686 6.61773 43.9417C6.74458 43.8149 6.91662 43.7436 7.09601 43.7436H8.84383L8.87832 43.6604L7.64254 42.4247C7.51574 42.2978 7.4445 42.1258 7.4445 41.9464C7.4445 41.7671 7.51574 41.5951 7.64254 41.4682L9.5554 39.5554C9.68224 39.4286 9.85425 39.3573 10.0336 39.3573C10.213 39.3573 10.385 39.4286 10.5118 39.5554L11.7476 40.7912L11.8308 40.7567V39.0088C11.8308 38.8295 11.9021 38.6574 12.0289 38.5306C12.1558 38.4037 12.3278 38.3324 12.5072 38.3324H13.1836V36.2146L12.2062 36.866L11.4554 35.7405L13.4846 34.3877C13.5957 34.3135 13.7264 34.274 13.86 34.274C13.9936 34.274 14.1242 34.3135 14.2354 34.3877L16.2646 35.7405L15.5138 36.866L14.5364 36.2146V38.3324H15.2128C15.3922 38.3324 15.5642 38.4037 15.6911 38.5306C15.8179 38.6574 15.8892 38.8295 15.8892 39.0088V40.7567L15.9724 40.7912L17.2082 39.5554C17.335 39.4286 17.507 39.3573 17.6864 39.3573C17.8657 39.3573 18.0377 39.4286 18.1646 39.5554L20.0774 41.4682C20.2043 41.5951 20.2755 41.7671 20.2755 41.9464C20.2755 42.1258 20.2043 42.2978 20.0774 42.4247L18.8417 43.6604L18.8762 43.7436H20.624C20.8034 43.7436 20.9754 43.8149 21.1023 43.9417C21.2291 44.0686 21.3004 44.2406 21.3004 44.42V45.0964H24.006L22.9237 44.2847L23.7354 43.2025L26.441 45.2317C26.525 45.2947 26.5932 45.3764 26.6402 45.4703C26.6871 45.5643 26.7116 45.6678 26.7116 45.7728C26.7116 45.8778 26.6871 45.9814 26.6402 46.0753C26.5932 46.1692 26.525 46.2509 26.441 46.3139L23.7354 48.3431L22.9237 47.2609L24.006 46.4492H21.3004V47.1256C21.3004 47.305 21.2291 47.4771 21.1023 47.6039C20.9754 47.7308 20.8034 47.802 20.624 47.802H18.8762L18.8417 47.8852L20.0774 49.121C20.2043 49.2478 20.2755 49.4199 20.2755 49.5992C20.2755 49.7786 20.2043 49.9506 20.0774 50.0774L18.1646 51.9903C18.0377 52.1171 17.8657 52.1883 17.6864 52.1883C17.507 52.1883 17.335 52.1171 17.2082 51.9903L15.9724 50.7545L15.8892 50.789V52.5368H11.8308V50.789L11.7476 50.7545L10.5118 51.9903C10.385 52.1171 10.213 52.1883 10.0336 52.1883C9.85425 52.1883 9.68224 52.1171 9.5554 51.9903Z"/>
</mask>
<path d="M5.06682 57.948H22.6532L17.242 55.9188V52.5368H27.388V33.5977H0.332031V52.5368H10.478V55.9188L5.06682 57.948ZM9.5554 51.9903L7.64254 50.0774C7.51574 49.9506 7.4445 49.7786 7.4445 49.5992C7.4445 49.4199 7.51574 49.2478 7.64254 49.121L8.87832 47.8852L8.84383 47.802H7.09601C6.91662 47.802 6.74458 47.7308 6.61773 47.6039C6.49088 47.4771 6.41961 47.305 6.41961 47.1256V46.4492H3.71402L4.79626 47.2609L3.98458 48.3431L1.27899 46.3139C1.19498 46.2509 1.1268 46.1692 1.07984 46.0753C1.03288 45.9814 1.00843 45.8778 1.00843 45.7728C1.00843 45.6678 1.03288 45.5643 1.07984 45.4703C1.1268 45.3764 1.19498 45.2947 1.27899 45.2317L3.98458 43.2025L4.79626 44.2847L3.71402 45.0964H6.41961V44.42C6.41961 44.2406 6.49088 44.0686 6.61773 43.9417C6.74458 43.8149 6.91662 43.7436 7.09601 43.7436H8.84383L8.87832 43.6604L7.64254 42.4247C7.51574 42.2978 7.4445 42.1258 7.4445 41.9464C7.4445 41.7671 7.51574 41.5951 7.64254 41.4682L9.5554 39.5554C9.68224 39.4286 9.85425 39.3573 10.0336 39.3573C10.213 39.3573 10.385 39.4286 10.5118 39.5554L11.7476 40.7912L11.8308 40.7567V39.0088C11.8308 38.8295 11.9021 38.6574 12.0289 38.5306C12.1558 38.4037 12.3278 38.3324 12.5072 38.3324H13.1836V36.2146L12.2062 36.866L11.4554 35.7405L13.4846 34.3877C13.5957 34.3135 13.7264 34.274 13.86 34.274C13.9936 34.274 14.1242 34.3135 14.2354 34.3877L16.2646 35.7405L15.5138 36.866L14.5364 36.2146V38.3324H15.2128C15.3922 38.3324 15.5642 38.4037 15.6911 38.5306C15.8179 38.6574 15.8892 38.8295 15.8892 39.0088V40.7567L15.9724 40.7912L17.2082 39.5554C17.335 39.4286 17.507 39.3573 17.6864 39.3573C17.8657 39.3573 18.0377 39.4286 18.1646 39.5554L20.0774 41.4682C20.2043 41.5951 20.2755 41.7671 20.2755 41.9464C20.2755 42.1258 20.2043 42.2978 20.0774 42.4247L18.8417 43.6604L18.8762 43.7436H20.624C20.8034 43.7436 20.9754 43.8149 21.1023 43.9417C21.2291 44.0686 21.3004 44.2406 21.3004 44.42V45.0964H24.006L22.9237 44.2847L23.7354 43.2025L26.441 45.2317C26.525 45.2947 26.5932 45.3764 26.6402 45.4703C26.6871 45.5643 26.7116 45.6678 26.7116 45.7728C26.7116 45.8778 26.6871 45.9814 26.6402 46.0753C26.5932 46.1692 26.525 46.2509 26.441 46.3139L23.7354 48.3431L22.9237 47.2609L24.006 46.4492H21.3004V47.1256C21.3004 47.305 21.2291 47.4771 21.1023 47.6039C20.9754 47.7308 20.8034 47.802 20.624 47.802H18.8762L18.8417 47.8852L20.0774 49.121C20.2043 49.2478 20.2755 49.4199 20.2755 49.5992C20.2755 49.7786 20.2043 49.9506 20.0774 50.0774L18.1646 51.9903C18.0377 52.1171 17.8657 52.1883 17.6864 52.1883C17.507 52.1883 17.335 52.1171 17.2082 51.9903L15.9724 50.7545L15.8892 50.789V52.5368H11.8308V50.789L11.7476 50.7545L10.5118 51.9903C10.385 52.1171 10.213 52.1883 10.0336 52.1883C9.85425 52.1883 9.68224 52.1171 9.5554 51.9903Z" stroke="#00FFAA" stroke-width="2.41365" mask="url(#path-2-inside-1_152_20)"/>
<mask id="path-3-inside-2_152_20" fill="white">
<path d="M39.5634 33.5977H32.7994C32.4407 33.5977 32.0966 33.7402 31.8429 33.9939C31.5892 34.2476 31.4467 34.5917 31.4467 34.9505V51.184C31.4467 51.5428 31.5892 51.8869 31.8429 52.1406C32.0966 52.3943 32.4407 52.5368 32.7994 52.5368H34.8286V57.2716C34.8286 57.451 34.7574 57.623 34.6305 57.7499C34.5037 57.8767 34.3316 57.948 34.1522 57.948H28.7411C28.2029 57.948 27.6868 58.1618 27.3062 58.5423C26.9257 58.9229 26.7119 59.439 26.7119 59.9772V60.6536C26.7119 60.833 26.6406 61.005 26.5138 61.1319C26.3869 61.2587 26.2149 61.33 26.0355 61.33H21.9771C21.4389 61.33 20.9228 61.5438 20.5422 61.9243C20.1617 62.3049 19.9479 62.821 19.9479 63.3592V67.4176H6.41992V74.1815H17.2423V71.476C17.2423 71.2966 17.3136 71.1245 17.4404 70.9977C17.5673 70.8708 17.7393 70.7996 17.9187 70.7996H23.3299C23.5093 70.7996 23.6813 70.8708 23.8082 70.9977C23.935 71.1245 24.0063 71.2966 24.0063 71.476V74.1815H34.8286V67.4176H21.3007V63.3592C21.3007 63.1798 21.3719 63.0077 21.4988 62.8809C21.6256 62.754 21.7977 62.6828 21.9771 62.6828H26.0355C26.5736 62.6828 27.0898 62.469 27.4703 62.0884C27.8509 61.7079 28.0647 61.1918 28.0647 60.6536V59.9772C28.0647 59.7978 28.1359 59.6257 28.2628 59.4989C28.3896 59.372 28.5617 59.3008 28.7411 59.3008H34.1522C34.6904 59.3008 35.2066 59.087 35.5871 58.7064C35.9676 58.3259 36.1814 57.8098 36.1814 57.2716V52.5368H39.5634C39.9222 52.5368 40.2663 52.3943 40.52 52.1406C40.7737 51.8869 40.9162 51.5428 40.9162 51.184V34.9505C40.9162 34.5917 40.7737 34.2476 40.52 33.9939C40.2663 33.7402 39.9222 33.5977 39.5634 33.5977ZM9.80191 70.7996H8.44912V69.4468H9.80191V70.7996ZM12.5075 70.7996H11.1547V69.4468H12.5075V70.7996ZM15.2131 70.7996H13.8603V69.4468H15.2131V70.7996ZM31.4467 69.4468H32.7994V70.7996H31.4467V69.4468ZM28.7411 69.4468H30.0939V70.7996H28.7411V69.4468ZM26.0355 69.4468H27.3883V70.7996H26.0355V69.4468ZM36.8578 50.5076H35.505V49.1548H36.8578V50.5076ZM36.8578 47.802H35.505V46.4492H36.8578V47.802ZM36.1814 45.0964C35.7801 45.0964 35.3878 44.9774 35.0541 44.7544C34.7204 44.5315 34.4603 44.2146 34.3067 43.8438C34.1531 43.473 34.1129 43.065 34.1912 42.6714C34.2695 42.2777 34.4628 41.9162 34.7466 41.6324C35.0304 41.3486 35.3919 41.1553 35.7856 41.077C36.1792 40.9987 36.5872 41.0389 36.958 41.1925C37.3288 41.3461 37.6457 41.6062 37.8687 41.9399C38.0916 42.2736 38.2106 42.6659 38.2106 43.0672C38.2106 43.6054 37.9968 44.1215 37.6163 44.5021C37.2357 44.8826 36.7196 45.0964 36.1814 45.0964ZM36.1814 39.6852C35.7801 39.6852 35.3878 39.5662 35.0541 39.3433C34.7204 39.1203 34.4603 38.8034 34.3067 38.4326C34.1531 38.0618 34.1129 37.6538 34.1912 37.2602C34.2695 36.8665 34.4628 36.505 34.7466 36.2212C35.0304 35.9374 35.3919 35.7441 35.7856 35.6658C36.1792 35.5875 36.5872 35.6277 36.958 35.7813C37.3288 35.9349 37.6457 36.195 37.8687 36.5287C38.0916 36.8624 38.2106 37.2547 38.2106 37.656C38.2106 38.1942 37.9968 38.7104 37.6163 39.0909C37.2357 39.4715 36.7196 39.6852 36.1814 39.6852ZM11.9305 49.3435C12.1757 49.4756 12.4339 49.5819 12.701 49.6608C12.8405 49.7024 12.9628 49.788 13.0498 49.9047C13.1369 50.0214 13.1839 50.1631 13.1839 50.3087V51.8604H14.5367V50.3087C14.5367 50.1631 14.5837 50.0214 14.6708 49.9047C14.7578 49.788 14.8801 49.7024 15.0196 49.6608C15.2867 49.5819 15.5449 49.4756 15.7901 49.3435C15.9183 49.274 16.0655 49.2478 16.2098 49.2687C16.3541 49.2897 16.4878 49.3567 16.5909 49.4599L17.6867 50.5556L18.6431 49.5992L17.5473 48.5034C17.4442 48.4003 17.3772 48.2667 17.3562 48.1223C17.3352 47.978 17.3615 47.8308 17.431 47.7026C17.563 47.4574 17.6694 47.1992 17.7482 46.9322C17.7899 46.7926 17.8754 46.6703 17.9922 46.5833C18.1089 46.4963 18.2506 46.4493 18.3962 46.4492H19.9479V45.0964H18.3962C18.2506 45.0964 18.1089 45.0494 17.9922 44.9624C17.8754 44.8754 17.7899 44.753 17.7482 44.6135C17.6694 44.3464 17.563 44.0882 17.431 43.8431C17.3615 43.7149 17.3352 43.5676 17.3562 43.4233C17.3772 43.279 17.4442 43.1453 17.5473 43.0422L18.6431 41.9464L17.6867 40.99L16.5909 42.0858C16.4878 42.1889 16.3541 42.256 16.2098 42.2769C16.0655 42.2979 15.9183 42.2717 15.7901 42.2021C15.5449 42.0701 15.2867 41.9638 15.0196 41.8849C14.8801 41.8432 14.7578 41.7577 14.6708 41.6409C14.5837 41.5242 14.5367 41.3825 14.5367 41.2369V39.6852H13.1839V41.2369C13.1839 41.3825 13.1369 41.5242 13.0498 41.6409C12.9628 41.7577 12.8405 41.8432 12.701 41.8849C12.4339 41.9638 12.1757 42.0701 11.9305 42.2021C11.8023 42.2717 11.6551 42.2979 11.5108 42.2769C11.3665 42.256 11.2328 42.1889 11.1297 42.0858L10.0339 40.99L9.07749 41.9464L10.1733 43.0422C10.2764 43.1453 10.3434 43.279 10.3644 43.4233C10.3854 43.5676 10.3591 43.7149 10.2896 43.8431C10.1576 44.0882 10.0512 44.3464 9.97237 44.6135C9.93072 44.753 9.84517 44.8754 9.72843 44.9624C9.61168 45.0494 9.46998 45.0964 9.32438 45.0964H7.77272V46.4492H9.32438C9.46998 46.4493 9.61168 46.4963 9.72843 46.5833C9.84517 46.6703 9.93072 46.7926 9.97237 46.9322C10.0512 47.1992 10.1576 47.4574 10.2896 47.7026C10.3591 47.8308 10.3854 47.978 10.3644 48.1223C10.3434 48.2667 10.2764 48.4003 10.1733 48.5034L9.07749 49.5992L10.0339 50.5556L11.1297 49.4599C11.2328 49.3567 11.3665 49.2897 11.5108 49.2687C11.6551 49.2478 11.8023 49.274 11.9305 49.3435ZM13.8603 43.0672C14.3954 43.0672 14.9185 43.2259 15.3634 43.5232C15.8084 43.8205 16.1552 44.2431 16.3599 44.7374C16.5647 45.2318 16.6183 45.7758 16.5139 46.3007C16.4095 46.8255 16.1518 47.3076 15.7734 47.686C15.3951 48.0643 14.913 48.322 14.3881 48.4264C13.8633 48.5308 13.3193 48.4772 12.8249 48.2725C12.3305 48.0677 11.908 47.7209 11.6107 47.276C11.3134 46.831 11.1547 46.3079 11.1547 45.7728C11.1547 45.0553 11.4398 44.3671 11.9472 43.8597C12.4546 43.3523 13.1427 43.0672 13.8603 43.0672Z"/>
</mask>
<path d="M39.5634 33.5977H32.7994C32.4407 33.5977 32.0966 33.7402 31.8429 33.9939C31.5892 34.2476 31.4467 34.5917 31.4467 34.9505V51.184C31.4467 51.5428 31.5892 51.8869 31.8429 52.1406C32.0966 52.3943 32.4407 52.5368 32.7994 52.5368H34.8286V57.2716C34.8286 57.451 34.7574 57.623 34.6305 57.7499C34.5037 57.8767 34.3316 57.948 34.1522 57.948H28.7411C28.2029 57.948 27.6868 58.1618 27.3062 58.5423C26.9257 58.9229 26.7119 59.439 26.7119 59.9772V60.6536C26.7119 60.833 26.6406 61.005 26.5138 61.1319C26.3869 61.2587 26.2149 61.33 26.0355 61.33H21.9771C21.4389 61.33 20.9228 61.5438 20.5422 61.9243C20.1617 62.3049 19.9479 62.821 19.9479 63.3592V67.4176H6.41992V74.1815H17.2423V71.476C17.2423 71.2966 17.3136 71.1245 17.4404 70.9977C17.5673 70.8708 17.7393 70.7996 17.9187 70.7996H23.3299C23.5093 70.7996 23.6813 70.8708 23.8082 70.9977C23.935 71.1245 24.0063 71.2966 24.0063 71.476V74.1815H34.8286V67.4176H21.3007V63.3592C21.3007 63.1798 21.3719 63.0077 21.4988 62.8809C21.6256 62.754 21.7977 62.6828 21.9771 62.6828H26.0355C26.5736 62.6828 27.0898 62.469 27.4703 62.0884C27.8509 61.7079 28.0647 61.1918 28.0647 60.6536V59.9772C28.0647 59.7978 28.1359 59.6257 28.2628 59.4989C28.3896 59.372 28.5617 59.3008 28.7411 59.3008H34.1522C34.6904 59.3008 35.2066 59.087 35.5871 58.7064C35.9676 58.3259 36.1814 57.8098 36.1814 57.2716V52.5368H39.5634C39.9222 52.5368 40.2663 52.3943 40.52 52.1406C40.7737 51.8869 40.9162 51.5428 40.9162 51.184V34.9505C40.9162 34.5917 40.7737 34.2476 40.52 33.9939C40.2663 33.7402 39.9222 33.5977 39.5634 33.5977ZM9.80191 70.7996H8.44912V69.4468H9.80191V70.7996ZM12.5075 70.7996H11.1547V69.4468H12.5075V70.7996ZM15.2131 70.7996H13.8603V69.4468H15.2131V70.7996ZM31.4467 69.4468H32.7994V70.7996H31.4467V69.4468ZM28.7411 69.4468H30.0939V70.7996H28.7411V69.4468ZM26.0355 69.4468H27.3883V70.7996H26.0355V69.4468ZM36.8578 50.5076H35.505V49.1548H36.8578V50.5076ZM36.8578 47.802H35.505V46.4492H36.8578V47.802ZM36.1814 45.0964C35.7801 45.0964 35.3878 44.9774 35.0541 44.7544C34.7204 44.5315 34.4603 44.2146 34.3067 43.8438C34.1531 43.473 34.1129 43.065 34.1912 42.6714C34.2695 42.2777 34.4628 41.9162 34.7466 41.6324C35.0304 41.3486 35.3919 41.1553 35.7856 41.077C36.1792 40.9987 36.5872 41.0389 36.958 41.1925C37.3288 41.3461 37.6457 41.6062 37.8687 41.9399C38.0916 42.2736 38.2106 42.6659 38.2106 43.0672C38.2106 43.6054 37.9968 44.1215 37.6163 44.5021C37.2357 44.8826 36.7196 45.0964 36.1814 45.0964ZM36.1814 39.6852C35.7801 39.6852 35.3878 39.5662 35.0541 39.3433C34.7204 39.1203 34.4603 38.8034 34.3067 38.4326C34.1531 38.0618 34.1129 37.6538 34.1912 37.2602C34.2695 36.8665 34.4628 36.505 34.7466 36.2212C35.0304 35.9374 35.3919 35.7441 35.7856 35.6658C36.1792 35.5875 36.5872 35.6277 36.958 35.7813C37.3288 35.9349 37.6457 36.195 37.8687 36.5287C38.0916 36.8624 38.2106 37.2547 38.2106 37.656C38.2106 38.1942 37.9968 38.7104 37.6163 39.0909C37.2357 39.4715 36.7196 39.6852 36.1814 39.6852ZM11.9305 49.3435C12.1757 49.4756 12.4339 49.5819 12.701 49.6608C12.8405 49.7024 12.9628 49.788 13.0498 49.9047C13.1369 50.0214 13.1839 50.1631 13.1839 50.3087V51.8604H14.5367V50.3087C14.5367 50.1631 14.5837 50.0214 14.6708 49.9047C14.7578 49.788 14.8801 49.7024 15.0196 49.6608C15.2867 49.5819 15.5449 49.4756 15.7901 49.3435C15.9183 49.274 16.0655 49.2478 16.2098 49.2687C16.3541 49.2897 16.4878 49.3567 16.5909 49.4599L17.6867 50.5556L18.6431 49.5992L17.5473 48.5034C17.4442 48.4003 17.3772 48.2667 17.3562 48.1223C17.3352 47.978 17.3615 47.8308 17.431 47.7026C17.563 47.4574 17.6694 47.1992 17.7482 46.9322C17.7899 46.7926 17.8754 46.6703 17.9922 46.5833C18.1089 46.4963 18.2506 46.4493 18.3962 46.4492H19.9479V45.0964H18.3962C18.2506 45.0964 18.1089 45.0494 17.9922 44.9624C17.8754 44.8754 17.7899 44.753 17.7482 44.6135C17.6694 44.3464 17.563 44.0882 17.431 43.8431C17.3615 43.7149 17.3352 43.5676 17.3562 43.4233C17.3772 43.279 17.4442 43.1453 17.5473 43.0422L18.6431 41.9464L17.6867 40.99L16.5909 42.0858C16.4878 42.1889 16.3541 42.256 16.2098 42.2769C16.0655 42.2979 15.9183 42.2717 15.7901 42.2021C15.5449 42.0701 15.2867 41.9638 15.0196 41.8849C14.8801 41.8432 14.7578 41.7577 14.6708 41.6409C14.5837 41.5242 14.5367 41.3825 14.5367 41.2369V39.6852H13.1839V41.2369C13.1839 41.3825 13.1369 41.5242 13.0498 41.6409C12.9628 41.7577 12.8405 41.8432 12.701 41.8849C12.4339 41.9638 12.1757 42.0701 11.9305 42.2021C11.8023 42.2717 11.6551 42.2979 11.5108 42.2769C11.3665 42.256 11.2328 42.1889 11.1297 42.0858L10.0339 40.99L9.07749 41.9464L10.1733 43.0422C10.2764 43.1453 10.3434 43.279 10.3644 43.4233C10.3854 43.5676 10.3591 43.7149 10.2896 43.8431C10.1576 44.0882 10.0512 44.3464 9.97237 44.6135C9.93072 44.753 9.84517 44.8754 9.72843 44.9624C9.61168 45.0494 9.46998 45.0964 9.32438 45.0964H7.77272V46.4492H9.32438C9.46998 46.4493 9.61168 46.4963 9.72843 46.5833C9.84517 46.6703 9.93072 46.7926 9.97237 46.9322C10.0512 47.1992 10.1576 47.4574 10.2896 47.7026C10.3591 47.8308 10.3854 47.978 10.3644 48.1223C10.3434 48.2667 10.2764 48.4003 10.1733 48.5034L9.07749 49.5992L10.0339 50.5556L11.1297 49.4599C11.2328 49.3567 11.3665 49.2897 11.5108 49.2687C11.6551 49.2478 11.8023 49.274 11.9305 49.3435ZM13.8603 43.0672C14.3954 43.0672 14.9185 43.2259 15.3634 43.5232C15.8084 43.8205 16.1552 44.2431 16.3599 44.7374C16.5647 45.2318 16.6183 45.7758 16.5139 46.3007C16.4095 46.8255 16.1518 47.3076 15.7734 47.686C15.3951 48.0643 14.913 48.322 14.3881 48.4264C13.8633 48.5308 13.3193 48.4772 12.8249 48.2725C12.3305 48.0677 11.908 47.7209 11.6107 47.276C11.3134 46.831 11.1547 46.3079 11.1547 45.7728C11.1547 45.0553 11.4398 44.3671 11.9472 43.8597C12.4546 43.3523 13.1427 43.0672 13.8603 43.0672Z" stroke="#00FFAA" stroke-width="2.41365" mask="url(#path-3-inside-2_152_20)"/>
</svg>
