<svg width="100" height="80" viewBox="0 0 100 80" fill="none" xmlns="http://www.w3.org/2000/svg">
<path opacity="0.1" fill-rule="evenodd" clip-rule="evenodd" d="M35.3655 74.5665C53.2355 83.2825 88.5815 77.6615 97.2975 59.7915C106.014 41.9215 80.1595 21.7345 62.2895 13.0185C44.4195 4.30252 20.2755 -8.71848 11.5595 9.15152C2.84351 27.0215 17.4955 65.8505 35.3655 74.5665Z" fill="#5CFFCE"/>
<path d="M0.539469 35.9481C0.376293 36.0014 0.235184 36.1069 0.137876 36.2484C0.0405684 36.3898 -0.00754018 36.5593 0.000960542 36.7308V78.9974C0.000960542 79.205 0.0834251 79.4041 0.230213 79.5508C0.377 79.6976 0.576087 79.7801 0.783676 79.7801H43.0503C43.2579 79.7801 43.457 79.6976 43.6038 79.5508C43.7505 79.4041 43.833 79.205 43.833 78.9974V36.7308C43.833 36.5232 43.7505 36.3241 43.6038 36.1773C43.457 36.0305 43.2579 35.9481 43.0503 35.9481H0.783676C0.702775 35.9353 0.62037 35.9353 0.539469 35.9481ZM1.56639 37.5135H42.2676V42.2098H1.56639V37.5135ZM3.91454 39.0789C3.70695 39.0789 3.50786 39.1614 3.36107 39.3082C3.21429 39.455 3.13182 39.654 3.13182 39.8616C3.13182 40.0692 3.21429 40.2683 3.36107 40.4151C3.50786 40.5619 3.70695 40.6443 3.91454 40.6443C4.12213 40.6443 4.32121 40.5619 4.468 40.4151C4.61479 40.2683 4.69725 40.0692 4.69725 39.8616C4.69725 39.654 4.61479 39.455 4.468 39.3082C4.32121 39.1614 4.12213 39.0789 3.91454 39.0789ZM7.0454 39.0789C6.83781 39.0789 6.63872 39.1614 6.49193 39.3082C6.34515 39.455 6.26268 39.654 6.26268 39.8616C6.26268 40.0692 6.34515 40.2683 6.49193 40.4151C6.63872 40.5619 6.83781 40.6443 7.0454 40.6443C7.25299 40.6443 7.45207 40.5619 7.59886 40.4151C7.74565 40.2683 7.82811 40.0692 7.82811 39.8616C7.82811 39.654 7.74565 39.455 7.59886 39.3082C7.45207 39.1614 7.25299 39.0789 7.0454 39.0789ZM10.1763 39.0789C9.96867 39.0789 9.76958 39.1614 9.62279 39.3082C9.47601 39.455 9.39354 39.654 9.39354 39.8616C9.39354 40.0692 9.47601 40.2683 9.62279 40.4151C9.76958 40.5619 9.96867 40.6443 10.1763 40.6443C10.3838 40.6443 10.5829 40.5619 10.7297 40.4151C10.8765 40.2683 10.959 40.0692 10.959 39.8616C10.959 39.654 10.8765 39.455 10.7297 39.3082C10.5829 39.1614 10.3838 39.0789 10.1763 39.0789ZM1.56639 43.7752H42.2676V78.2147H1.56639V43.7752ZM21.917 50.0369C15.8744 50.0369 10.959 54.9524 10.959 60.9949C10.959 67.0375 15.8744 71.953 21.917 71.953C27.9595 71.953 32.875 67.0375 32.875 60.9949C32.875 54.9524 27.9595 50.0369 21.917 50.0369ZM21.1343 51.7495V55.1246H18.0034C18.2742 54.1775 18.6014 53.2085 18.9818 52.2379C19.6722 52.0094 20.375 51.8153 21.1343 51.7495ZM22.6997 51.7495C23.4214 51.8121 24.0945 51.9781 24.7551 52.1894C25.1418 53.1756 25.4596 54.1618 25.7335 55.1246H22.6997V51.7495ZM17.025 53.1193C16.7965 53.7924 16.5663 54.4546 16.3895 55.1246H14.7254C15.3729 54.3308 16.1505 53.6528 17.025 53.1193ZM26.7604 53.1193C27.6527 53.664 28.4401 54.3059 29.1086 55.1246H27.396C27.2175 54.4546 26.989 53.7924 26.7604 53.1193ZM13.6985 56.69H16.0466C15.8131 57.8516 15.666 59.0289 15.6067 60.2122H12.6716C12.774 58.9811 13.1233 57.7833 13.6985 56.69ZM17.6121 56.69H21.1343V60.2122H17.1221C17.191 59.0444 17.3538 57.8656 17.6121 56.69ZM22.6997 56.69H26.1249C26.3832 57.8656 26.546 59.0444 26.6133 60.2122H22.6997V56.69ZM27.7388 56.69H30.1355C30.7107 57.7833 31.0599 58.9811 31.1624 60.2122H28.1787C28.1194 59.0289 27.9724 57.8516 27.7388 56.69ZM12.6716 61.7777H15.5582C15.577 62.9361 15.6913 64.1258 15.8995 65.2999H13.6985C13.1196 64.2081 12.7701 63.0095 12.6716 61.7777ZM17.0735 61.7777H21.1343V65.2999H17.4649C17.231 64.1396 17.1001 62.961 17.0735 61.7777ZM22.6997 61.7777H26.6618C26.6399 62.9486 26.5053 64.1086 26.2704 65.2999H22.6997V61.7777ZM28.2272 61.7777H31.1624C31.0639 63.0095 30.7144 64.2081 30.1355 65.2999H27.8844C28.0926 64.1258 28.2069 62.9361 28.2272 61.7777ZM14.7755 66.8653H16.2423C16.3973 67.4852 16.5695 68.0957 16.7808 68.725C16.0278 68.2031 15.3526 67.577 14.7755 66.8653ZM17.8563 66.8653H21.1343V70.2404C20.3498 70.178 19.5768 70.0139 18.8347 69.752C18.4486 68.8111 18.1219 67.847 17.8563 66.8653ZM22.6997 66.8653H25.8791C25.6156 67.8635 25.2888 68.8438 24.9007 69.8005C24.188 70.0374 23.4487 70.1852 22.6997 70.2404V66.8653ZM27.5431 66.8653H29.0585C28.4746 67.5697 27.8077 68.2131 27.0547 68.725C27.2629 68.102 27.3882 67.4805 27.5431 66.8653Z" fill="#4EFAC4"/>
</svg>
