<?xml version="1.0" encoding="UTF-8"?> <svg xmlns="http://www.w3.org/2000/svg" xmlns:xlink="http://www.w3.org/1999/xlink" width="356" height="244" viewBox="0 0 356 244"><defs><clipPath id="clip-path"><rect id="Rectangle_82" data-name="Rectangle 82" width="356" height="244" fill="#fff"></rect></clipPath><clipPath id="clip-path-3"><rect id="Rectangle_80" data-name="Rectangle 80" width="58" height="58" transform="translate(0.435 0.059)" fill="#02102b" stroke="#02102b" stroke-width="3"></rect></clipPath><clipPath id="clip-path-4"><rect id="Rectangle_81" data-name="Rectangle 81" width="58" height="58" transform="translate(0.093 0.059)" fill="#02102b"></rect></clipPath></defs><g id="Mask_Group_11" data-name="Mask Group 11" clip-path="url(#clip-path)"><g id="Mask_Group_8" data-name="Mask Group 8" clip-path="url(#clip-path)"><g id="Group_34" data-name="Group 34" transform="translate(-79.003 -49.776)"><rect id="Rectangle_43" data-name="Rectangle 43" width="447" height="251" transform="translate(0.003 48.776)" fill="#02102b"></rect><g id="Group_28" data-name="Group 28" transform="translate(386.236 257.664)" opacity="0.444"><rect id="Rectangle_50" data-name="Rectangle 50" width="30" height="21" rx="4" transform="translate(34.767 46.112)" fill="#033aa5"></rect><rect id="Rectangle_51" data-name="Rectangle 51" width="30" height="22" rx="4" transform="translate(25.767 34.112)" fill="#023393"></rect><rect id="Rectangle_52" data-name="Rectangle 52" width="30" height="23" rx="4" transform="translate(16.767 22.112)" fill="#032a77"></rect><rect id="Rectangle_53" data-name="Rectangle 53" width="32" height="23" rx="4" transform="translate(7.767 11.112)" fill="#02215f"></rect><rect id="Rectangle_54" data-name="Rectangle 54" width="30" height="22" rx="4" transform="translate(-0.233 0.112)" fill="#011845"></rect></g><g id="Group_29" data-name="Group 29" transform="translate(403.792 0)" opacity="0.224"><rect id="Rectangle_55" data-name="Rectangle 55" width="31" height="23" rx="4" transform="translate(0.211 44.776)" fill="#033aa5"></rect><rect id="Rectangle_56" data-name="Rectangle 56" width="29" height="23" rx="4" transform="translate(9.211 33.776)" fill="#023393"></rect><rect id="Rectangle_57" data-name="Rectangle 57" width="30" height="22" rx="4" transform="translate(17.211 22.776)" fill="#032a77"></rect><rect id="Rectangle_58" data-name="Rectangle 58" width="30" height="23" rx="4" transform="translate(26.211 10.776)" fill="#02215f"></rect><rect id="Rectangle_59" data-name="Rectangle 59" width="31" height="23" rx="4" transform="translate(34.211 -0.224)" fill="#011845"></rect></g></g></g><text id="Action_Transformer_Model" data-name="Action Transformer Model" transform="translate(223 163)" fill="#fff" font-size="11" font-family="OpenSans-Bold, Open Sans" font-weight="700"><tspan x="-53" y="0">Action Transformer</tspan><tspan x="-16" y="15">Model</tspan></text><g id="Group_42" data-name="Group 42" transform="translate(3 5)"><g id="Rectangle_69" data-name="Rectangle 69" transform="translate(4 27)" fill="none" stroke="#fff" stroke-width="2" stroke-dasharray="6 6"><rect width="148" height="180" rx="8" stroke="none"></rect><rect x="1" y="1" width="146" height="178" rx="7" fill="none"></rect></g><g id="Group_41" data-name="Group 41" transform="translate(1 1)"><rect id="Rectangle_64" data-name="Rectangle 64" width="59" height="43" rx="4" transform="translate(14 139)" fill="#033aa5"></rect><rect id="Rectangle_65" data-name="Rectangle 65" width="59" height="44" rx="4" transform="translate(31 116)" fill="#023393"></rect><rect id="Rectangle_66" data-name="Rectangle 66" width="60" height="44" rx="4" transform="translate(47 95)" fill="#032a77"></rect><rect id="Rectangle_67" data-name="Rectangle 67" width="58" height="42" rx="4" transform="translate(65 74)" fill="#02215f"></rect><rect id="Rectangle_68" data-name="Rectangle 68" width="59" height="44" rx="4" transform="translate(82 48)" fill="#011845"></rect><text id="Deep_learning" data-name="Deep learning" transform="translate(61 155)" fill="#fff" font-size="8" font-family="OpenSans-Semibold, Open Sans" font-weight="600"><tspan x="-26" y="0">Deep learning</tspan></text><text id="NLP" transform="translate(60 133)" fill="#fff" font-size="8" font-family="OpenSans-Semibold, Open Sans" font-weight="600"><tspan x="-7" y="0">NLP</tspan></text><text id="Intent_Recognition" data-name="Intent Recognition" transform="translate(70 101)" fill="#fff" font-size="8" font-family="OpenSans-Semibold, Open Sans" font-weight="600"><tspan x="0" y="0">Intent</tspan><tspan x="0" y="11">Recognition</tspan></text><text id="Data_Engineering" data-name="Data Engineering" transform="translate(88 73)" fill="#fff" font-size="8" font-family="OpenSans-Semibold, Open Sans" font-weight="600"><tspan x="0" y="0">Data</tspan><tspan x="0" y="11">Engineering</tspan></text></g></g><text id="Users" transform="translate(323 163)" fill="#fff" font-size="11" font-family="OpenSans-Bold, Open Sans" font-weight="700"><tspan x="-15" y="0">Users</tspan></text><text id="ML" transform="translate(28 183)" fill="#fff" font-size="8" font-family="OpenSans-Semibold, Open Sans" font-weight="600"><tspan x="-5" y="0">ML</tspan></text><g id="Group_43" data-name="Group 43" transform="translate(0 5)"><g id="Group_39" data-name="Group 39" transform="translate(158 108)"><g id="Group_38" data-name="Group 38" transform="translate(0 0)"><path id="Path_19" data-name="Path 19" d="M246.078,132.8a1.424,1.424,0,0,1-.541.109h-28.29a1.415,1.415,0,0,1,0-2.829h24.875l-5.128-5.13a1.415,1.415,0,1,1,2-2l7.544,7.544a1.415,1.415,0,0,1-.458,2.3Z" transform="translate(-215.832 -122.498)" fill="#fff" stroke="#02102b" stroke-width="1"></path><path id="Path_20" data-name="Path 20" d="M120.379,319.129a1.412,1.412,0,0,0,2,0l7.544-7.544a1.416,1.416,0,0,0-1-2.414h-28.29a1.415,1.415,0,0,0,0,2.829h24.875l-5.128,5.13a1.412,1.412,0,0,0,0,2Z" transform="translate(-99.218 -301.734)" fill="#fff" stroke="#02102b" stroke-width="1"></path></g><path id="Path_21" data-name="Path 21" d="M1084.25,352.675l1.811,2.009,2.386.136-2.237-2.145Z" transform="translate(-1058.164 -346.34)" fill="#fff"></path></g><g id="Mask_Group_9" data-name="Mask Group 9" transform="translate(193.565 87.941)" clip-path="url(#clip-path-3)"><g id="Group_40" data-name="Group 40" transform="translate(6.112 4.95)"><path id="Path_22" data-name="Path 22" d="M264.743,176.8V161.359a3.942,3.942,0,1,0-4.056-6.348l-12.117-5.384a3.942,3.942,0,1,0-7.563,0l-3.361,1.494h0a1.05,1.05,0,1,0,.851,1.919l3.651-1.619a3.931,3.931,0,0,0,5.3,0l12.334,5.5a4.554,4.554,0,0,0,0,.643,5.575,5.575,0,0,0,0,.581l-11.867,5.291a3.932,3.932,0,0,0-6.089.083l-12.522-5.581v-.809l9.2-4.044h0a1.05,1.05,0,1,0-.85-1.92l-9.13,3.971a3.942,3.942,0,1,0-3.693,6.286v15.271a3.942,3.942,0,1,0,3.693,6.286l12.366,5.5h0a3.537,3.537,0,0,0,0,.58,3.942,3.942,0,1,0,7.884,0,5.171,5.171,0,0,0,0-.58l4.149-1.826h0a1.1,1.1,0,0,0-.975-1.96l-4.149,1.826h0a3.92,3.92,0,0,0-1.96-1.3V173.807l13.942,6.225a5.771,5.771,0,0,0,0,.591,4.553,4.553,0,0,0,0,.643l-8.123,3.653a1.052,1.052,0,0,0,.861,1.919l8.165-3.695a3.942,3.942,0,1,0,4.056-6.349Zm-19.949-26.442a1.847,1.847,0,1,1,1.836-1.847,1.847,1.847,0,0,1-1.836,1.847Zm18.9,5.363h0a1.847,1.847,0,1,1-1.836,1.847,1.849,1.849,0,0,1,1.836-1.847Zm-40.158,1.846a1.847,1.847,0,1,1,1.847,1.837,1.849,1.849,0,0,1-1.847-1.837Zm1.847,24.9h0a1.829,1.829,0,1,0,0-.021Zm1.546-5.467v-15.81a3.967,3.967,0,0,0,1.629-1.286l12.449,5.519a4.8,4.8,0,0,0,0,.539,3.942,3.942,0,0,0,2.78,3.766v1.795l-15.229,6.743a3.969,3.969,0,0,0-1.629-1.287Zm14.814,9.585L229.3,181.07v-.8l14.441-6.464V185.22a3.9,3.9,0,0,0-2,1.338Zm4.886,2.5h0a1.834,1.834,0,1,1,0-.021ZM244.907,167.8a1.847,1.847,0,1,1,1.836-1.847,1.846,1.846,0,0,1-1.836,1.847Zm15.748,10.3-14.814-6.588v-1.732a3.94,3.94,0,0,0,3.008-3.828,4.3,4.3,0,0,0-.051-.632l11.857-5.259h0a3.978,3.978,0,0,0,1.991,1.3V176.8a3.939,3.939,0,0,0-1.991,1.308Zm3.039,4.336a1.846,1.846,0,1,1,1.847-1.837,1.846,1.846,0,0,1-1.847,1.837Z" transform="translate(-221.445 -144.569)" fill="#fff" stroke="#02102b" stroke-width="1"></path></g></g><g id="Group_37" data-name="Group 37" transform="translate(257 105)"><path id="Path_17" data-name="Path 17" d="M246.078,132.8a1.424,1.424,0,0,1-.541.109h-28.29a1.415,1.415,0,0,1,0-2.829h24.875l-5.128-5.13a1.415,1.415,0,1,1,2-2l7.544,7.544a1.415,1.415,0,0,1-.458,2.3Z" transform="translate(-215.832 -122.498)" fill="#fff" stroke="#02102b" stroke-width="1"></path><path id="Path_18" data-name="Path 18" d="M109.172,319.129a1.412,1.412,0,0,1-2,0l-7.544-7.544a1.416,1.416,0,0,1,1-2.414h28.29a1.415,1.415,0,0,1,0,2.829H104.044l5.128,5.13a1.412,1.412,0,0,1,0,2Z" transform="translate(-99.218 -295.699)" fill="#fff" stroke="#02102b" stroke-width="1"></path></g><g id="Mask_Group_10" data-name="Mask Group 10" transform="translate(293.907 87.941)" clip-path="url(#clip-path-4)"><path id="noun-profile-4849295" d="M94.213,0A24.216,24.216,0,0,0,70,24.215C70.132,40.049,82.173,48.43,94.213,48.43s24.094-8.394,24.215-24.215A24.216,24.216,0,0,0,94.213,0ZM81.972,41.892a12.686,12.686,0,0,1,24.484,0,21.4,21.4,0,0,1-24.483,0ZM86.68,22.318a7.533,7.533,0,1,1,2.206,5.327A7.534,7.534,0,0,1,86.68,22.318ZM108.7,40.09a15.473,15.473,0,0,0-8.946-9.148,10.224,10.224,0,1,0-11.085,0,15.473,15.473,0,0,0-8.946,9.148,21.525,21.525,0,1,1,28.978,0Z" transform="translate(-64.98 5.127)" fill="#fff" stroke="#02102b" stroke-width="1"></path></g></g></g></svg> 