<?xml version="1.0" encoding="UTF-8"?> <svg xmlns="http://www.w3.org/2000/svg" xmlns:xlink="http://www.w3.org/1999/xlink" version="1.1" id="Layer_1" x="0px" y="0px" viewBox="0 0 169 177" style="enable-background:new 0 0 169 177;" xml:space="preserve"> <style type="text/css"> .st0{fill:#FFFFFF;} .st1{fill:none;stroke:#707070;stroke-width:0.5;} .st2{fill:#FEFEFE;} .st3{fill:#383838;} .st4{fill:#707070;} </style> <g id="Group_145" transform="translate(-137 -117)"> <g id="Rectangle_943" transform="translate(137 117)"> <rect class="st0" width="169" height="177"></rect> <rect x="0.3" y="0.3" class="st1" width="168.5" height="176.5"></rect> </g> <path id="Path_131" class="st2" d="M268.9,175"></path> <path id="Path_131_-_Outline" class="st2" d="M212.5,140.4"></path> <path id="Path_132" class="st3" d="M250.4,179.2c-0.1-2.4-0.9-4.8-2.4-6.7c-0.5-0.6-0.7-1.4-0.4-2.1c0.4-1.9,0.5-3.8,0.2-5.7 c-1.4-7.9-8.7-13.4-16.6-12.5c-0.6,0.1-1.3-0.1-1.8-0.5c-0.9-0.7-1.8-1.4-2.8-2.1c-1.6-1.1-3.5-1.2-5.4-1.5h-4.4 c-0.1,0.1-0.3,0.1-0.5,0.1c-1.7,0-3.3,0.5-4.8,1.3c-2.8,1.6-5,4-6.3,6.9c-0.3,0.8-1,1.5-1.9,1.7c-2.5,0.8-4.8,2.3-6.5,4.3 c-1.8,1.8-2.9,4.2-3.2,6.7c-0.1,1.4-0.1,2.9-0.1,4.3c-0.2,2.8,0.7,5.6,2.4,7.8c0.5,0.7,0.7,1.5,0.5,2.3c-0.6,2.8-0.4,5.7,0.6,8.3 c2.1,6,8.6,10.4,15,9.9c1.4-0.2,2.8,0.3,3.8,1.3c1.3,1.2,3,2.1,4.7,2.5c2.2,0.4,4.4,0.5,6.6,0.3c1.5,0,2.9-0.3,4.3-0.9 c3.3-1.5,6-4.2,7.5-7.5c0.3-0.8,1-1.4,1.8-1.6c1-0.3,1.9-0.7,2.7-1.2c3.8-2.3,6.5-5.4,7-10c0-0.4-0.1-0.8,0.1-1.1L250.4,179.2z M227.8,157.7c3.4-2,7.7-1.8,10.9,0.5c3.3,2.1,5.2,5.9,4.8,9.9c0,1-0.5,0.5-0.9,0.3c-3.5-2-6.9-4-10.4-6c-0.9-0.7-2.2-0.7-3.1,0 c-3.9,2.3-7.8,4.6-11.8,6.8c-0.5,0.3-0.9,0.5-1.5,0.9c0-1.8,0-3.4,0-5c0-0.4,0.2-0.7,0.5-0.8C220.2,162.1,224,159.8,227.8,157.7 M228.1,177.2c-0.1,1,0.4,2.3-0.2,3.3c-0.6,0.9-1.9,1.2-2.9,1.8c-1,0.6-2.1,1.6-3.1,1.6c-1,0-2.1-1-3.1-1.6c-0.9-0.5-1.7-1-2.6-1.5 c-0.4-0.2-0.6-0.5-0.5-0.9c0-2,0-4,0-5.9c0-0.4,0.2-0.7,0.5-0.9c1.7-1,3.4-1.9,5.1-2.9c0.4-0.3,0.9-0.2,1.2,0c1.6,1,3.3,1.9,5,2.9 c0.4,0.2,0.6,0.6,0.6,1C228.1,175,228.1,176,228.1,177.2 M208.4,161.2c0.4-3.8,2.9-7.1,6.5-8.4c3.5-1.5,7.5-1,10.5,1.4 c0.1,0.1,0.1,0.2,0.2,0.3l-8.4,4.8c-0.9,0.5-1.9,1.1-2.8,1.6c-1,0.4-1.5,1.4-1.4,2.5c0,4.8,0,9.5,0,14.3v1.2 c-1.6-0.9-3.1-1.8-4.6-2.6c-0.2-0.1-0.2-0.4-0.2-0.6C208.3,170.8,207.9,166,208.4,161.2 M197.4,171.9c0.1-3.9,2.3-7.4,5.8-9.1 c1.1-0.6,1.1-0.5,1.1,0.6c0,4,0,8,0,12c-0.1,1,0.5,2,1.4,2.4c4.2,2.4,8.5,4.9,12.7,7.3c0.2,0.1,0.4,0.3,0.8,0.5 c-1.5,0.9-2.9,1.6-4.2,2.5c-0.3,0.2-0.7,0.2-1,0c-3.8-2.2-7.7-4.4-11.5-6.7C199,179.5,197.1,175.8,197.4,171.9 M200.5,188 c-0.1-0.7-0.1-1.3,0-2c0-1,0-1,0.9-0.5c3,1.7,6,3.5,9,5.2c3.1,1.8,2.6,1.8,5.7,0c3.8-2.2,7.5-4.3,11.3-6.5c0.2-0.2,0.5-0.3,0.7-0.2 c0,1.6,0,3.2,0,4.8c0,0.4-0.2,0.7-0.5,0.8c-3.8,2.2-7.5,4.4-11.4,6.5c-5.2,2.8-11.7,0.9-14.5-4.2 C201.1,190.6,200.7,189.3,200.5,188 M235.7,191.5c0,3.9-2.2,7.5-5.7,9.2c-3.4,1.9-7.6,1.7-10.8-0.5c-0.2-0.1-0.4-0.2-0.5-0.4 c-0.1-0.1-0.2-0.2-0.2-0.3c2.3-1.3,4.6-2.6,6.8-3.9c1.4-0.8,2.9-1.7,4.3-2.5c1-0.5,1.6-1.5,1.5-2.6c0-4.7,0-9.5,0-14.2 c-0.1-0.4,0-0.8,0.1-1.1c1.4,0.8,2.9,1.6,4.3,2.5c0.3,0.2,0.3,0.5,0.3,0.8C235.7,182.7,235.8,187.1,235.7,191.5 M246.5,182 c-0.1,3.9-2.4,7.3-5.9,9c-0.7,0.4-0.9,0.3-0.9-0.6c0-3.9,0-7.9,0-11.8c0.1-1.2-0.5-2.3-1.6-2.8c-4.2-2.4-8.4-4.8-12.5-7.2 c-0.2-0.1-0.4-0.3-0.7-0.5c1.5-0.9,2.9-1.6,4.3-2.5c0.3-0.2,0.7-0.2,1,0c3.9,2.3,7.8,4.4,11.6,6.8C245,174.4,246.9,178.2,246.5,182 "></path> <path id="Path_132_-_Outline" class="st4" d="M224.5,206.1L224.5,206.1c-1.4,0-2.8-0.1-4.2-0.4c-1.8-0.4-3.4-1.3-4.8-2.5 c-0.8-0.8-2-1.3-3.2-1.3c-0.2,0-0.3,0-0.5,0c-0.4,0-0.7,0-1.1,0c-3.1,0-6.1-1.1-8.5-2.9c-2.5-1.8-4.4-4.3-5.5-7.2 c-1-2.7-1.2-5.6-0.6-8.4c0.2-0.8,0-1.6-0.5-2.2c-1.7-2.3-2.6-5.1-2.4-7.9c0-0.5,0-1,0-1.5c0-0.9,0-1.9,0.1-2.8 c0.3-2.6,1.5-4.9,3.3-6.8c1.7-2,4-3.5,6.6-4.3c0.8-0.2,1.5-0.8,1.8-1.6c1.4-2.9,3.6-5.4,6.4-7c1.5-0.8,3.2-1.3,4.9-1.3h0.1h0.1 c0.1,0,0.2,0,0.2-0.1l0,0h4.5l0.5,0.1c1.7,0.1,3.4,0.6,4.9,1.4c0.9,0.6,1.7,1.2,2.5,1.8l0.3,0.2c0.4,0.3,0.9,0.5,1.3,0.5 c0.1,0,0.2,0,0.3,0c0.6-0.1,1.1-0.1,1.7-0.1c7.4,0.1,13.8,5.4,15.1,12.7c0.3,1.9,0.3,3.9-0.2,5.8c-0.2,0.7-0.1,1.5,0.4,2 c1.5,2,2.4,4.3,2.4,6.8v4.3l0,0c-0.1,0.2-0.1,0.4-0.1,0.7c0,0.1,0,0.3,0,0.4c-0.2,2.2-1,4.2-2.3,6c-1.3,1.7-2.9,3.1-4.8,4.2 c-0.9,0.5-1.8,1-2.7,1.3c-0.8,0.2-1.4,0.8-1.7,1.5c-1.5,3.4-4.2,6.1-7.6,7.6c-1.4,0.6-2.8,0.9-4.3,0.9 C226,206,225.2,206.1,224.5,206.1z M212.4,201.6c1.3,0,2.5,0.5,3.4,1.4c1.3,1.2,2.9,2,4.7,2.4c1.3,0.3,2.7,0.4,4.1,0.4l0,0 c0.7,0,1.5,0,2.5-0.1c1.5,0,2.9-0.3,4.2-0.9c3.3-1.5,5.9-4.2,7.4-7.5c0.3-0.8,1-1.4,1.9-1.7c0.9-0.3,1.8-0.7,2.7-1.2 c4.2-2.5,6.5-5.8,7-9.9c0-0.1,0-0.2,0-0.4c0-0.3,0-0.5,0.1-0.8v-4.2c-0.1-2.4-0.9-4.7-2.3-6.6c-0.5-0.6-0.7-1.5-0.5-2.3 c0.4-1.9,0.5-3.8,0.2-5.7c-1.3-7.2-7.5-12.5-14.8-12.5c-0.6,0-1.1,0-1.7,0.1c-0.7,0.1-1.4-0.1-1.9-0.5l-0.3-0.2 c-0.8-0.6-1.6-1.3-2.5-1.8c-1.5-0.8-3.1-1.3-4.8-1.4l-0.5-0.1h-4.4c-0.1,0.1-0.2,0.1-0.4,0.1h-0.1c-1.7,0-3.3,0.4-4.7,1.3 c-2.7,1.6-4.9,4-6.3,6.8c-0.4,0.9-1.1,1.5-2,1.8c-2.5,0.8-4.7,2.2-6.4,4.2c-1.7,1.8-2.9,4.1-3.2,6.6c-0.1,0.9-0.1,1.9-0.1,2.8 c0,0.5,0,1,0,1.5c-0.2,2.8,0.7,5.5,2.4,7.7c0.6,0.7,0.8,1.6,0.5,2.5c-0.6,2.7-0.4,5.6,0.6,8.2c2.2,5.8,7.6,9.7,13.7,9.8 c0.4,0,0.7,0,1.1,0C212.1,201.6,212.2,201.6,212.4,201.6z M225,202.1c-2.1,0-4.2-0.7-6-1.8c-0.2-0.1-0.4-0.3-0.6-0.4 c-0.1-0.1-0.1-0.1-0.2-0.2c0,0-0.1-0.1-0.1-0.1l-0.1-0.1l0.2-0.1l3.3-1.9c1.2-0.7,2.4-1.4,3.5-2c0.4-0.3,0.9-0.5,1.3-0.8 c1-0.6,2-1.2,3-1.7c1-0.5,1.5-1.5,1.4-2.5c0-3.9,0-7.9,0-11.7c0-0.8,0-1.7,0-2.5c0-0.1,0-0.1,0-0.2c-0.1-0.3,0-0.7,0.2-1l0.1-0.1 l0.1,0.1l1.4,0.8c1,0.5,1.9,1.1,2.9,1.7c0.3,0.2,0.4,0.6,0.4,0.9c0,0,0,0,0,0.1c0,1.3,0,2.7,0,4c0,3,0,6.1,0,9.1 C235.6,197.3,230.8,202,225,202.1L225,202.1z M218.5,199.5L218.5,199.5c0,0,0.1,0.1,0.1,0.1c0.2,0.1,0.3,0.3,0.5,0.4 c1.7,1.1,3.8,1.8,5.8,1.8c1.7,0,3.4-0.5,4.9-1.3c3.5-1.7,5.7-5.2,5.7-9.1c0.1-3,0.1-6.1,0-9.1c0-1.3,0-2.7,0-4c0,0,0-0.1,0-0.1 c0-0.3,0-0.5-0.2-0.6c-1-0.6-2-1.1-2.9-1.7l-1.3-0.7c-0.1,0.2-0.1,0.4-0.1,0.6c0,0.1,0,0.2,0,0.2c0,0.8,0,1.7,0,2.5 c0,3.8,0,7.8,0,11.7c0.1,1.2-0.5,2.3-1.6,2.8c-1,0.5-2,1.1-3,1.7c-0.4,0.3-0.9,0.5-1.3,0.8c-1.2,0.7-2.4,1.4-3.5,2L218.5,199.5z M211.1,197.5c-2.6,0-5.1-0.9-7-2.6c-2-1.8-3.4-4.2-3.7-6.9c-0.1-0.5-0.1-1,0-1.6c0-0.2,0-0.3,0-0.5c0-0.6,0-1,0.4-1 c0.3,0.1,0.5,0.2,0.8,0.3c3.5,2,6.4,3.7,9,5.2c0.2,0.1,0.4,0.2,0.6,0.4c0.6,0.5,1.4,0.8,2.2,1c0.8-0.2,1.6-0.5,2.3-1l0.5-0.3 c3.1-1.8,6.2-3.6,9.2-5.3l2.1-1.2c0,0,0.1,0,0.1-0.1c0.2-0.1,0.3-0.2,0.5-0.2c0.1,0,0.1,0,0.2,0l0.1,0v0.1c0,0.5,0,0.9,0,1.3 c0,1.1,0,2.3,0,3.5c0,0.4-0.2,0.8-0.6,1c-1.3,0.7-2.6,1.5-3.8,2.2c-2.5,1.4-5,2.9-7.5,4.3C214.7,197.1,212.9,197.5,211.1,197.5z M200.7,185.2c0,0.2-0.1,0.5-0.1,0.7c0,0.2,0,0.3,0,0.5c0,0.5,0,1,0,1.5c0.7,5.8,5.9,9.9,11.7,9.2c1.4-0.2,2.7-0.6,3.9-1.2 c2.5-1.4,5.1-2.9,7.5-4.3c1.3-0.7,2.6-1.5,3.9-2.2c0.3-0.1,0.5-0.4,0.4-0.7c0-1.2,0-2.3,0-3.5c0-0.4,0-0.8,0-1.2 c-0.1,0-0.3,0.1-0.4,0.1c0,0-0.1,0.1-0.1,0.1l-2.1,1.2c-3,1.7-6.1,3.5-9.2,5.3l-0.5,0.3c-0.7,0.6-1.6,0.9-2.5,1.1 c-0.8-0.1-1.6-0.5-2.3-1c-0.2-0.1-0.4-0.2-0.6-0.4c-2.7-1.5-5.5-3.2-9-5.2C201.1,185.4,200.9,185.3,200.7,185.2z M240,191.4 c-0.1,0-0.2,0-0.3-0.1c-0.1-0.1-0.2-0.4-0.2-0.8c0-1.8,0-3.6,0-5.4c0-2.1,0-4.3,0-6.4c0.1-1.1-0.5-2.2-1.5-2.7 c-3.2-1.8-6.4-3.6-9.4-5.4c-1-0.6-2.1-1.2-3.1-1.8c-0.1-0.1-0.3-0.2-0.4-0.3c-0.1-0.1-0.2-0.1-0.3-0.2l-0.2-0.1l0.2-0.1 c0.5-0.3,0.9-0.5,1.3-0.8c1-0.6,2-1.1,2.9-1.7c0.2-0.1,0.4-0.2,0.6-0.2c0.2,0,0.4,0.1,0.5,0.2c1.3,0.7,2.6,1.5,3.9,2.2 c2.6,1.5,5.2,3,7.7,4.5c3.4,2,5.3,5.8,5,9.7c-0.1,1.9-0.7,3.8-1.7,5.4c-1.1,1.6-2.6,2.9-4.3,3.7C240.4,191.3,240.2,191.4,240,191.4 L240,191.4z M225.1,168.2l0.1,0.1c0.2,0.1,0.3,0.2,0.4,0.3c1,0.6,2.1,1.2,3.1,1.8c3.1,1.8,6.3,3.6,9.4,5.4c1.1,0.5,1.8,1.7,1.7,2.9 c0,2.1,0,4.3,0,6.4c0,1.8,0,3.6,0,5.4c0,0.2,0,0.4,0.1,0.6c0,0,0,0,0.1,0c0.2,0,0.4-0.1,0.5-0.2c3.5-1.6,5.7-5.1,5.9-8.9 c0.4-3.8-1.5-7.5-4.8-9.5c-2.5-1.6-5.2-3.1-7.7-4.5c-1.3-0.7-2.6-1.5-3.9-2.2c-0.1-0.1-0.3-0.1-0.4-0.1c-0.1,0-0.3,0.1-0.4,0.1 c-1,0.6-1.9,1.1-2.9,1.7L225.1,168.2z M214.4,188.4c-0.2,0-0.4-0.1-0.6-0.2c-1.3-0.8-2.6-1.5-3.9-2.2c-2.5-1.4-5.1-2.9-7.6-4.5 c-3.4-2-5.3-5.7-5-9.6c0.1-1.9,0.6-3.8,1.6-5.4c1.1-1.6,2.5-2.9,4.2-3.8c0.3-0.2,0.6-0.3,0.9-0.4c0.4,0,0.4,0.4,0.4,1.1 c0,1,0,2,0,3.1c0,2.9,0,6,0,8.9c-0.1,1,0.5,1.9,1.3,2.3c3.3,1.9,6.5,3.8,9.7,5.6l3,1.7c0.1,0.1,0.3,0.2,0.5,0.3l0.3,0.2l0.2,0.1 l-0.2,0.1c-0.4,0.2-0.8,0.5-1.3,0.7c-1,0.6-2,1.1-3,1.7C214.8,188.4,214.6,188.4,214.4,188.4z M204.1,162.7 c-0.3,0.1-0.5,0.2-0.8,0.3c-3.4,1.7-5.7,5.1-5.7,8.9c-0.3,3.8,1.6,7.4,4.9,9.3c2.5,1.6,5.1,3,7.6,4.5c1.3,0.7,2.6,1.5,3.9,2.2 c0.1,0.1,0.3,0.1,0.4,0.1c0.2,0,0.3-0.1,0.4-0.1c1-0.6,2-1.1,3-1.7l1-0.6l-0.1-0.1c-0.2-0.1-0.3-0.2-0.5-0.3l-3-1.7 c-3.2-1.8-6.5-3.7-9.7-5.6c-1-0.5-1.5-1.5-1.5-2.5c0-3,0-6,0-8.9c0-1,0-2,0-3.1C204.2,163.2,204.2,162.9,204.1,162.7L204.1,162.7z M222,184c-0.8-0.1-1.6-0.5-2.3-1c-0.3-0.2-0.6-0.4-0.9-0.6c-0.3-0.2-0.7-0.4-1-0.6c-0.5-0.3-1-0.6-1.6-0.9c-0.4-0.2-0.6-0.6-0.6-1 c0-2,0-4,0-5.9c0-0.4,0.2-0.8,0.6-1c1.5-0.8,3.3-1.8,5-2.9c0.2-0.1,0.4-0.2,0.6-0.2c0.3,0,0.5,0.1,0.7,0.2c1.8,1.1,3.4,2,5,2.9 c0.4,0.2,0.7,0.6,0.6,1.1c0,0.7,0,1.4,0,2.2c0,0.3,0,0.7,0,1v0c0,0.3,0,0.7,0.1,1c0.2,0.8,0.1,1.6-0.3,2.3c-0.5,0.6-1.2,1.1-2,1.4 c-0.3,0.1-0.6,0.3-0.9,0.5s-0.6,0.4-0.9,0.6C223.6,183.5,222.8,183.9,222,184L222,184z M222,170.1c-0.2,0-0.3,0.1-0.5,0.2 c-1.8,1.1-3.6,2.1-5.1,2.9c-0.3,0.1-0.5,0.4-0.4,0.8c0,1.9,0,4,0,6c0,0.3,0.1,0.6,0.4,0.8c0.5,0.3,1.1,0.6,1.6,0.9 c0.3,0.2,0.7,0.4,1,0.6c0.3,0.2,0.6,0.4,0.9,0.6c0.6,0.5,1.3,0.8,2.1,1c0.8-0.1,1.5-0.5,2.1-1c0.3-0.2,0.6-0.4,0.9-0.6 c0.3-0.2,0.6-0.3,0.9-0.5c0.7-0.3,1.4-0.7,1.9-1.3c0.3-0.7,0.4-1.4,0.2-2.1c0-0.4-0.1-0.7-0.1-1.1c0-0.4,0-0.7,0-1 c0-0.8,0-1.5,0-2.2c0-0.4-0.2-0.7-0.5-0.8c-1.6-0.9-3.2-1.8-5-2.9C222.4,170.2,222.2,170.1,222,170.1z M213.1,179.1l-0.2-0.1 l-1.1-0.6c-1.2-0.7-2.3-1.4-3.5-2c-0.2-0.2-0.3-0.5-0.3-0.7c0-1.6,0-3.3,0-4.9c-0.1-3.2-0.1-6.4,0.2-9.5c0.2-1.9,0.9-3.7,2.1-5.2 c3.7-4.7,10.5-5.6,15.2-1.9c0.1,0.1,0.1,0.1,0.2,0.2c0,0,0,0.1,0.1,0.1l0.1,0.1l-0.1,0.1l-4.9,2.8l-3.5,2c-0.3,0.2-0.6,0.4-0.9,0.5 c-0.6,0.4-1.3,0.8-1.9,1.1c-0.9,0.4-1.4,1.4-1.3,2.4c0,3.5,0,7.1,0,10.6c0,1.2,0,2.5,0,3.7L213.1,179.1z M219,152.1 c-1.4,0-2.8,0.3-4.1,0.8c-3.6,1.3-6.1,4.5-6.4,8.3c-0.3,3.2-0.3,6.3-0.2,9.5c0,1.6,0.1,3.3,0,4.9c0,0.2,0,0.4,0.1,0.5 c1.1,0.7,2.3,1.3,3.5,2l0.9,0.5v-0.9c0-1.2,0-2.5,0-3.7c0-3.5,0-7.1,0-10.6c-0.1-1.1,0.5-2.1,1.5-2.6c0.7-0.3,1.3-0.7,1.9-1.1 c0.3-0.2,0.6-0.4,0.9-0.5l3.5-2l4.7-2.7c0,0,0-0.1-0.1-0.1C223.5,152.9,221.3,152.1,219,152.1L219,152.1z M215.7,170.4v-0.3 c0-0.5,0-1,0-1.5c0-1.2,0-2.4,0-3.5c0-0.4,0.2-0.8,0.6-0.9c1.2-0.7,2.4-1.4,3.6-2.1c2.6-1.5,5.2-3,7.9-4.5c1.6-0.9,3.3-1.3,5.1-1.4 c6.1,0.2,11,5.3,10.8,11.4c0,0.2,0,0.3,0,0.5c0,0.2,0,0.7-0.4,0.7c-0.2,0-0.4-0.1-0.5-0.2c-0.1,0-0.1-0.1-0.1-0.1l-2.3-1.3 c-2.6-1.5-5.4-3.1-8-4.7c-0.9-0.6-2.1-0.6-3,0c-2.9,1.7-5.9,3.4-8.8,5.1c-1,0.6-2,1.2-3,1.7c-0.3,0.2-0.6,0.3-0.9,0.5l-0.7,0.4 L215.7,170.4z M232.9,156.6c-1.7,0-3.5,0.5-5,1.3c-2.7,1.4-5.3,3-7.9,4.5c-1.2,0.7-2.4,1.4-3.6,2.1c-0.3,0.1-0.5,0.4-0.4,0.7 c0,1.2,0,2.3,0,3.5c0,0.4,0,0.8,0,1.2l0.4-0.2c0.3-0.2,0.6-0.3,0.9-0.5c1-0.6,2-1.2,3-1.7c2.9-1.7,5.9-3.4,8.8-5.1 c1-0.7,2.3-0.7,3.3,0c2.7,1.6,5.4,3.1,8,4.7l2.3,1.3c0.1,0,0.1,0.1,0.2,0.1c0.1,0.1,0.2,0.1,0.4,0.2c0.1,0,0.1-0.2,0.1-0.5 c0.4-6-4.1-11.1-10-11.6C233.2,156.6,233,156.6,232.9,156.6z"></path> <path id="Path_165" d="M196.4,249h4.7v6.5c-0.7,0.2-1.5,0.4-2.2,0.5c-0.8,0.1-1.5,0.2-2.3,0.2c-1.7,0.1-3.3-0.5-4.5-1.7 c-1.1-1.4-1.7-3.1-1.6-4.9c-0.1-1.8,0.5-3.6,1.8-4.9c1.3-1.2,3.1-1.9,4.9-1.8c1.3,0,2.6,0.3,3.8,0.8l-0.7,1.7c-1-0.5-2-0.7-3.1-0.7 c-1.2-0.1-2.4,0.4-3.3,1.3c-0.8,1-1.3,2.2-1.2,3.5c-0.1,1.3,0.3,2.6,1.1,3.6c0.8,0.9,1.9,1.3,3.1,1.2c0.7,0,1.5-0.1,2.2-0.3v-3.3 h-2.7V249z M212.7,247c0.1,1.2-0.4,2.3-1.3,3.1c-1.1,0.8-2.4,1.2-3.8,1.1h-1.3v4.8h-2.1v-12.9h3.7c1.3-0.1,2.6,0.3,3.6,1 C212.3,244.9,212.8,245.9,212.7,247L212.7,247z M206.3,249.4h1.1c0.8,0.1,1.7-0.1,2.4-0.6c0.5-0.4,0.8-1.1,0.8-1.8 c0-0.6-0.2-1.2-0.7-1.7c-0.6-0.4-1.4-0.6-2.1-0.5h-1.5V249.4z M219.7,256h-2.1v-11h-3.8v-1.8h9.7v1.8h-3.8V256z M223.7,252.1v-1.8 h4.5v1.8L223.7,252.1z M238.8,253.2h-1.7v2.8h-2v-2.8h-5.9v-1.6l5.9-8.5h2v8.4h1.7V253.2z M235,251.5v-3.2c0-1.1,0-2.1,0.1-2.8 h-0.1c-0.2,0.5-0.5,1-0.8,1.4l-3.2,4.6L235,251.5z"></path> <path id="Path_165_-_Outline" class="st4" d="M197.2,242.8c1.3,0,2.6,0.3,3.9,0.8l0.1,0.1l-0.9,2l-0.1-0.1c-1-0.5-2-0.7-3.1-0.7 c-1.2-0.1-2.3,0.4-3.1,1.2c-0.8,1-1.2,2.2-1.2,3.4c-0.1,1.2,0.3,2.5,1,3.5c0.8,0.8,1.9,1.2,3,1.2c0.7,0,1.4-0.1,2-0.2v-3h-2.7v-2.1 h5v6.7l-0.1,0c-0.7,0.2-1.5,0.4-2.3,0.5c-0.8,0.1-1.5,0.2-2.3,0.2c-1.7,0.1-3.4-0.5-4.6-1.8c-1.2-1.4-1.7-3.2-1.6-5 c-0.1-1.8,0.6-3.6,1.8-5C193.5,243.4,195.3,242.7,197.2,242.8z M200.8,243.8c-1.1-0.5-2.4-0.7-3.6-0.7c-1.8-0.1-3.5,0.5-4.8,1.7 c-1.2,1.3-1.8,3-1.7,4.7c-0.1,1.7,0.4,3.4,1.5,4.8c1.2,1.2,2.8,1.8,4.4,1.7c0.8,0,1.5,0,2.3-0.2c0.7-0.1,1.4-0.3,2.1-0.5v-6.2h-4.4 v1.5h2.7v3.6l-0.1,0c-0.7,0.2-1.5,0.3-2.2,0.3c-1.2,0.1-2.4-0.4-3.2-1.3c-0.8-1.1-1.2-2.4-1.1-3.7c-0.1-1.3,0.4-2.6,1.2-3.6 c0.9-0.9,2.1-1.4,3.4-1.3c1.1,0,2.1,0.2,3.1,0.7L200.8,243.8z M235,243h2.2v8.4h1.7v2h-1.7v2.8h-2.3v-2.8H229v-1.8L235,243z M236.9,243.3h-1.8l-5.8,8.4v1.4h5.9v2.8h1.7V253h1.7v-1.4h-1.7V243.3z M204,243h3.9c1.3-0.1,2.6,0.3,3.7,1c0.9,0.8,1.3,1.9,1.3,3 c0.1,1.2-0.4,2.4-1.4,3.2c-1.1,0.8-2.5,1.2-3.8,1.1h-1.2v4.8H204V243z M207.6,251c1.3,0.1,2.6-0.3,3.7-1c0.9-0.7,1.3-1.8,1.3-3 c0.1-1.1-0.4-2.1-1.1-2.8c-1-0.7-2.3-1-3.5-0.9h-3.6v12.6h1.8V251H207.6z M213.7,243h10v2.1h-3.8v11h-2.4v-11h-3.8V243z M223.3,243.3H214v1.5h3.8v11.1h1.8v-11.1h3.8L223.3,243.3z M206.1,244.8h1.6c0.8-0.1,1.6,0.1,2.2,0.6c0.5,0.4,0.8,1.1,0.7,1.8 c0.1,0.7-0.3,1.4-0.8,1.9c-0.7,0.4-1.6,0.7-2.5,0.6h-1.3V244.8z M207.4,249.3c0.8,0.1,1.6-0.1,2.3-0.5c0.5-0.4,0.8-1,0.7-1.6 c0-0.6-0.2-1.2-0.6-1.5c-0.6-0.4-1.3-0.6-2-0.5h-1.3v4.2H207.4z M235,245.3h0.3l0,0.2c-0.1,0.7-0.1,1.7-0.1,2.8v3.4h-4.4l3.4-4.9 C234.5,246.3,234.7,245.9,235,245.3L235,245.3z M234.9,251.3v-3.1c0-0.9,0-1.6,0-2.2c-0.1,0.3-0.3,0.6-0.5,0.9l0,0l-3,4.4 L234.9,251.3z M223.5,250.1h4.8v2.1h-4.8V250.1z M228,250.4h-4.2v1.5h4.2V250.4z"></path> <g> <path d="M250.8,251.1c0,1.8-0.5,3.2-1.4,4.2c-0.9,1-2.2,1.5-3.8,1.5c-1,0-1.9-0.2-2.7-0.7c-0.8-0.5-1.4-1.1-1.8-2 c-0.4-0.9-0.6-1.9-0.6-3c0-1.8,0.5-3.2,1.4-4.2s2.2-1.5,3.9-1.5c1.6,0,2.8,0.5,3.8,1.5C250.3,248,250.8,249.4,250.8,251.1z M242.8,251.1c0,2.5,0.9,3.8,2.8,3.8c1.9,0,2.8-1.3,2.8-3.8c0-2.5-0.9-3.8-2.8-3.8c-1,0-1.7,0.3-2.1,1S242.8,249.9,242.8,251.1z"></path> </g> </g> </svg> 