<?xml version="1.0" encoding="UTF-8"?> <svg xmlns="http://www.w3.org/2000/svg" xmlns:xlink="http://www.w3.org/1999/xlink" width="169" height="177" viewBox="0 0 169 177"><defs><clipPath id="clip-path"><rect id="Rectangle_792" data-name="Rectangle 792" width="92.399" height="37.024" fill="#383838"></rect></clipPath></defs><g id="Group_146" data-name="Group 146" transform="translate(-970 -336)"><g id="Rectangle_950" data-name="Rectangle 950" transform="translate(970 336)" fill="#fff" stroke="rgba(112,112,112,0.83)" stroke-linecap="round" stroke-linejoin="round" stroke-width="0.3"><rect width="169" height="177" stroke="none"></rect><rect x="0.15" y="0.15" width="168.7" height="176.7" fill="none"></rect></g><path id="Path_172" data-name="Path 172" d="M7.251,0,3.524-10.731h-.07Q3.6-8.341,3.6-6.249V0H1.7V-12.85H4.658L8.227-2.628h.053L11.953-12.85h2.971V0H12.9V-6.354q0-.958.048-2.5t.083-1.863h-.07L9.105,0Zm12.9,0H18.088V-9.721h2.065ZM17.965-12.3a1.144,1.144,0,0,1,.3-.853,1.182,1.182,0,0,1,.866-.3,1.156,1.156,0,0,1,.848.3,1.144,1.144,0,0,1,.3.853,1.122,1.122,0,0,1-.3.831,1.147,1.147,0,0,1-.848.3,1.171,1.171,0,0,1-.866-.3A1.122,1.122,0,0,1,17.965-12.3ZM29.637-2.769A2.543,2.543,0,0,1,28.6-.584a4.966,4.966,0,0,1-2.971.76,7.017,7.017,0,0,1-3.12-.589V-2.2a7.66,7.66,0,0,0,3.19.791q1.907,0,1.907-1.151a.912.912,0,0,0-.211-.615,2.5,2.5,0,0,0-.694-.51,11.949,11.949,0,0,0-1.345-.6,6.22,6.22,0,0,1-2.272-1.3,2.407,2.407,0,0,1-.593-1.687A2.216,2.216,0,0,1,23.5-9.207a4.776,4.776,0,0,1,2.738-.69,7.754,7.754,0,0,1,3.243.694l-.668,1.556a7.213,7.213,0,0,0-2.646-.65q-1.635,0-1.635.932a.937.937,0,0,0,.426.773,9.374,9.374,0,0,0,1.859.87,8.5,8.5,0,0,1,1.749.853,2.548,2.548,0,0,1,.809.892A2.582,2.582,0,0,1,29.637-2.769ZM35.49-1.494A5.023,5.023,0,0,0,37-1.731V-.176a4.169,4.169,0,0,1-.883.25A6.086,6.086,0,0,1,35,.176q-2.936,0-2.936-3.094V-8.156H30.735V-9.07l1.424-.756.7-2.057h1.274v2.162h2.769v1.564H34.137v5.2a1.46,1.46,0,0,0,.374,1.1A1.362,1.362,0,0,0,35.49-1.494Zm8.385-8.4a4.972,4.972,0,0,1,1.028.088l-.2,1.925a3.9,3.9,0,0,0-.914-.105,2.645,2.645,0,0,0-2.008.809,2.923,2.923,0,0,0-.769,2.1V0H38.944V-9.721h1.617l.272,1.714h.105A3.851,3.851,0,0,1,42.2-9.387,3,3,0,0,1,43.875-9.9ZM52.427,0l-.413-1.354h-.07A3.982,3.982,0,0,1,50.528-.145,4.475,4.475,0,0,1,48.7.176,3.094,3.094,0,0,1,46.463-.6a2.894,2.894,0,0,1-.8-2.188,2.57,2.57,0,0,1,1.116-2.268,6.436,6.436,0,0,1,3.4-.835l1.679-.053V-6.46a1.965,1.965,0,0,0-.435-1.393,1.774,1.774,0,0,0-1.349-.461,4.665,4.665,0,0,0-1.433.22,10.811,10.811,0,0,0-1.318.519l-.668-1.477a7.189,7.189,0,0,1,1.731-.628A7.968,7.968,0,0,1,50.159-9.9a4.2,4.2,0,0,1,2.8.809,3.166,3.166,0,0,1,.945,2.54V0ZM49.351-1.406a2.558,2.558,0,0,0,1.806-.628A2.278,2.278,0,0,0,51.838-3.8v-.844l-1.248.053a4.27,4.27,0,0,0-2.123.488A1.482,1.482,0,0,0,47.8-2.769a1.3,1.3,0,0,0,.387,1.006A1.661,1.661,0,0,0,49.351-1.406ZM58.852,0H56.786V-13.676h2.065Z" transform="translate(1024.304 473)"></path><g id="Group_144" data-name="Group 144" transform="translate(-6.612)"><rect id="Rectangle_911" data-name="Rectangle 911" width="5.699" height="5.695" transform="translate(1022.21 399.412)" fill="#1c1c1c"></rect><rect id="Rectangle_912" data-name="Rectangle 912" width="5.699" height="5.695" transform="translate(1027.905 405.108)" fill="#1c1c1c"></rect><rect id="Rectangle_913" data-name="Rectangle 913" width="5.699" height="5.695" transform="translate(1027.908 399.412)" fill="#1c1c1c"></rect><rect id="Rectangle_914" data-name="Rectangle 914" width="5.699" height="5.695" transform="translate(1033.607 399.412)" fill="#1c1c1c"></rect><rect id="Rectangle_915" data-name="Rectangle 915" width="5.699" height="5.695" transform="translate(1022.213 393.717)" fill="#1c1c1c"></rect><rect id="Rectangle_916" data-name="Rectangle 916" width="5.699" height="5.695" transform="translate(1033.61 393.717)" fill="#1c1c1c"></rect><rect id="Rectangle_917" data-name="Rectangle 917" width="5.699" height="5.695" transform="translate(1016.511 399.412)" fill="#1c1c1c"></rect><rect id="Rectangle_918" data-name="Rectangle 918" width="5.699" height="5.695" transform="translate(1016.514 393.717)" fill="#1c1c1c"></rect><rect id="Rectangle_919" data-name="Rectangle 919" width="5.699" height="5.695" transform="translate(1016.517 388.021)" fill="#1c1c1c"></rect><rect id="Rectangle_920" data-name="Rectangle 920" width="5.699" height="5.695" transform="translate(1039.311 388.021)" fill="#1c1c1c"></rect><rect id="Rectangle_921" data-name="Rectangle 921" width="5.699" height="5.695" transform="translate(1016.508 405.108)" fill="#1c1c1c"></rect><rect id="Rectangle_922" data-name="Rectangle 922" width="5.699" height="5.695" transform="translate(1016.506 410.804)" fill="#1c1c1c"></rect><rect id="Rectangle_923" data-name="Rectangle 923" width="5.699" height="5.695" transform="translate(1039.305 399.412)" fill="#1c1c1c"></rect><rect id="Rectangle_924" data-name="Rectangle 924" width="5.699" height="5.695" transform="translate(1039.308 393.717)" fill="#1c1c1c"></rect><rect id="Rectangle_925" data-name="Rectangle 925" width="5.699" height="5.695" transform="translate(1039.302 405.108)" fill="#1c1c1c"></rect><rect id="Rectangle_926" data-name="Rectangle 926" width="5.699" height="5.695" transform="translate(1039.3 410.804)" fill="#1c1c1c"></rect><rect id="Rectangle_927" data-name="Rectangle 927" width="5.698" height="5.695" transform="translate(1024.58 399.412)" fill="#8f8f8f"></rect><rect id="Rectangle_928" data-name="Rectangle 928" width="5.699" height="5.695" transform="translate(1030.275 405.108)" fill="#787878"></rect><rect id="Rectangle_929" data-name="Rectangle 929" width="5.699" height="5.695" transform="translate(1030.278 399.412)" fill="#8f8f8f"></rect><rect id="Rectangle_930" data-name="Rectangle 930" width="5.699" height="5.695" transform="translate(1035.977 399.412)" fill="#8f8f8f"></rect><rect id="Rectangle_931" data-name="Rectangle 931" width="5.698" height="5.695" transform="translate(1024.583 393.716)" fill="#adadad"></rect><rect id="Rectangle_932" data-name="Rectangle 932" width="5.699" height="5.695" transform="translate(1035.98 393.716)" fill="#adadad"></rect><rect id="Rectangle_933" data-name="Rectangle 933" width="5.698" height="5.695" transform="translate(1018.882 399.412)" fill="#8f8f8f"></rect><rect id="Rectangle_934" data-name="Rectangle 934" width="5.698" height="5.695" transform="translate(1018.885 393.716)" fill="#adadad"></rect><rect id="Rectangle_935" data-name="Rectangle 935" width="5.698" height="5.695" transform="translate(1018.887 388.02)" fill="#c6c6c6"></rect><rect id="Rectangle_936" data-name="Rectangle 936" width="5.699" height="5.695" transform="translate(1041.681 388.02)" fill="#c6c6c6"></rect><rect id="Rectangle_937" data-name="Rectangle 937" width="5.698" height="5.695" transform="translate(1018.879 405.108)" fill="#787878"></rect><rect id="Rectangle_938" data-name="Rectangle 938" width="5.698" height="5.695" transform="translate(1018.876 410.803)" fill="#4e4e4e"></rect><rect id="Rectangle_939" data-name="Rectangle 939" width="5.699" height="5.695" transform="translate(1041.675 399.412)" fill="#8f8f8f"></rect><rect id="Rectangle_940" data-name="Rectangle 940" width="5.699" height="5.695" transform="translate(1041.678 393.716)" fill="#adadad"></rect><rect id="Rectangle_941" data-name="Rectangle 941" width="5.699" height="5.695" transform="translate(1041.672 405.108)" fill="#787878"></rect><rect id="Rectangle_942" data-name="Rectangle 942" width="5.699" height="5.695" transform="translate(1041.67 410.803)" fill="#4e4e4e"></rect><g id="Group_126" data-name="Group 126" transform="translate(1014.612 383.747)"><g id="Group_64" data-name="Group 64" transform="translate(0 0)" clip-path="url(#clip-path)"><path id="Path_85" data-name="Path 85" d="M473.33,107.165h2.078l.856,3.1.294,1.211h.054l.29-1.211.861-3.1h2.078v8.747h-1.676V113.2c0-.984.173-3.118.265-4.063h-.04l-.672,2.349-.682,2.107h-.96l-.693-2.107-.626-2.349h-.045c.1.945.265,3.079.265,4.063v2.708H473.33Z" transform="translate(-436.343 -98.3)" fill="#383838"></path><path id="Path_86" data-name="Path 86" d="M478.261,114.253H480.3v-5.428h-2.043v-1.66h6.068v1.66h-2.043v5.428h2.043v1.66h-6.068Z" transform="translate(-432.996 -98.301)" fill="#383838"></path><path id="Path_87" data-name="Path 87" d="M482.871,114.876l1.137-1.36a3.739,3.739,0,0,0,2.327.913c.839,0,1.229-.326,1.229-.754,0-.63-.52-.782-1.348-1.128l-1.142-.487a2.55,2.55,0,0,1-1.855-2.384c0-1.449,1.306-2.607,3.209-2.607a4.241,4.241,0,0,1,2.906,1.145l-1,1.249a3.136,3.136,0,0,0-2.018-.683c-.651,0-1.095.27-1.095.781,0,.525.588.719,1.427,1.033l1.069.455a2.441,2.441,0,0,1,1.87,2.377c0,1.454-1.221,2.713-3.386,2.713a5.042,5.042,0,0,1-3.333-1.263" transform="translate(-429.866 -98.365)" fill="#383838"></path><path id="Path_88" data-name="Path 88" d="M490.139,108.825h-2.624v-1.66h7.228v1.66H492.12v7.088h-1.981Z" transform="translate(-426.713 -98.301)" fill="#383838"></path><path id="Path_89" data-name="Path 89" d="M494.608,108.736h.965c1.041,0,1.6.289,1.6,1.153s-.557,1.3-1.6,1.3h-.965Zm4.926,7.176-1.979-3.5a2.575,2.575,0,0,0,1.56-2.523c0-2.082-1.526-2.725-3.38-2.725h-3.111v8.747h1.984v-3.146h1.039l1.67,3.146Z" transform="translate(-423.245 -98.3)" fill="#383838"></path><path id="Path_90" data-name="Path 90" d="M499.893,112.289l.207-.806.68-2.821h.054c.21.923.477,1.948.7,2.821l.2.806Zm2.769,3.623h2.1l-2.727-8.747h-2.374l-2.727,8.747h2.028l.534-2.08h2.634Z" transform="translate(-420.317 -98.3)" fill="#383838"></path><path id="Path_91" data-name="Path 91" d="M502.519,107.165H504.5v7.088h3.9v1.659h-5.873Z" transform="translate(-416.527 -98.3)" fill="#383838"></path><path id="Path_92" data-name="Path 92" d="M475.9,120.648l.208-.806.678-2.821h.054c.212.922.477,1.948.7,2.821l.207.806Zm2.768,3.626h2.1l-2.727-8.751h-2.376l-2.727,8.751h2.028l.534-2.082h2.636Z" transform="translate(-436.611 -92.625)" fill="#383838"></path><path id="Path_93" data-name="Path 93" d="M478.261,122.611H480.3v-5.428h-2.043v-1.66h6.068v1.66h-2.043v5.428h2.043v1.66h-6.068Z" transform="translate(-432.996 -92.626)" fill="#383838"></path><rect id="Rectangle_791" data-name="Rectangle 791" width="6.447" height="1.486" transform="translate(53.134 32.368)" fill="#383838"></rect></g></g></g></g></svg> 