<?xml version="1.0" encoding="UTF-8"?> <svg xmlns="http://www.w3.org/2000/svg" width="169" height="177" viewBox="0 0 169 177"><g id="Group_138" data-name="Group 138" transform="translate(-1181.429 -336)"><g id="Rectangle_949" data-name="Rectangle 949" transform="translate(1181.429 336)" fill="#fff" stroke="rgba(112,112,112,0.83)" stroke-linecap="round" stroke-linejoin="round" stroke-width="0.3"><rect width="169" height="177" stroke="none"></rect><rect x="0.15" y="0.15" width="168.7" height="176.7" fill="none"></rect></g><g id="Group_76" data-name="Group 76" transform="translate(1236.398 371.914)"><path id="Path_133" data-name="Path 133" d="M593.2,138.992h-6.077a16.763,16.763,0,0,0-2.425-.248c-4.992-.447-9.211-2.737-12.967-5.818a28.637,28.637,0,0,1-9.426-13.795,27.6,27.6,0,0,1-.725-5.152c-.024-.217.058-.451-.113-.642v-6.3a16.48,16.48,0,0,0,.24-2.32c.523-5.387,3.031-9.854,6.508-13.836A29.094,29.094,0,0,1,581.7,82.094a27.217,27.217,0,0,1,6.878-.8,48.314,48.314,0,0,1,8.242.341,17.772,17.772,0,0,1,5.326,1.713,29.275,29.275,0,0,1,16.4,18.912,25.584,25.584,0,0,1,.626,6.16,43.081,43.081,0,0,1-.332,8.267,22.308,22.308,0,0,1-3.233,8.328,29.331,29.331,0,0,1-16.387,13.135,24.51,24.51,0,0,1-5.268.732c-.253.025-.527-.08-.756.111" transform="translate(-561.467 -81.241)" fill="#383838"></path><path id="Path_134" data-name="Path 134" d="M577.045,113.2a12.854,12.854,0,0,1-7.8-4.5,1.1,1.1,0,0,1,.09-1.737,12.356,12.356,0,0,1,3.878-2.425c.7-.312.813-.576.345-1.2a10.616,10.616,0,0,1-1.8-3.469c-.358-1.278-.069-1.86,1.185-2.183a11.737,11.737,0,0,1,9.522,1.107,1.337,1.337,0,0,1,1.581.553,17.8,17.8,0,0,1,2.854,4c.767,1.655.692,1.8-.77,2.8a2.254,2.254,0,0,0-.409.446,2.024,2.024,0,0,1-.97.952,13.238,13.238,0,0,1-2.729-.4,31.288,31.288,0,0,0,5.714.579.811.811,0,0,1,.329.129c.329.324.6.661.344,1.159-.326.307-.8.308-1.159.544-.628-.065-1-.019-1.274.791-.285.85-1.31,1.261-2.072,1.776a11.551,11.551,0,0,1-5.6,1.6,1.139,1.139,0,0,1-1.261-.512" transform="translate(-561.085 -80.418)" fill="#a8a8a8"></path><path id="Path_135" data-name="Path 135" d="M603.02,113.05a18.759,18.759,0,0,1,2.537,5.211c.786,3.12.052,4.008-3.145,3.67-.521-.055-1.041-.121-1.56-.192-1.623-.224-1.632-.227-1.7,1.464a8.751,8.751,0,0,1-.69,3.384,1.366,1.366,0,0,1-1.9.84,12.471,12.471,0,0,1-6.047-4.261c.249-2.128,1.289-4.172.787-6.372a7.4,7.4,0,0,1,.075-3.452c.087-.367.106-.7.447-.912.481-.176.69.131.831.5a10.6,10.6,0,0,0,1.053,1.83c-.806-1.29-1.539-2.623-2.341-3.915-.229-.368-.537-.758-.114-1.2.263-.145.573-.166.827-.331a2.147,2.147,0,0,1,1.378-.029,9.321,9.321,0,0,0,2.812.15,6.968,6.968,0,0,1,3.364.84,8.785,8.785,0,0,1,2.715,1.554c.351.334.733.659.672,1.223" transform="translate(-559.966 -79.797)" fill="#a8a8a8"></path><path id="Path_136" data-name="Path 136" d="M596.444,99.378a11.781,11.781,0,0,1,10.056-.849c1.09.353,1.329.891.985,1.983a11.371,11.371,0,0,1-1.976,3.626c-.5.636-.539,1,.314,1.375a9.914,9.914,0,0,1,3.5,2.385,1.216,1.216,0,0,1,.017,1.931,12.151,12.151,0,0,1-5.494,3.529,1.769,1.769,0,0,1-.917-.367c-1.553-1.688-3.738-2.206-5.716-3.115a26.293,26.293,0,0,1-3.112-1.571c-.082-.518.3-.493.633-.555,1.06-.2,2.133-.332,2.9-.467a24.612,24.612,0,0,0-4.858,1.029,2.867,2.867,0,0,1-.759.191.493.493,0,0,1-.547-.3c-.106-.3.149-.391.34-.485.67-.33,1.3-.742,1.837-.955-.852.2-1.567,1.187-2.723,1.09a.657.657,0,0,1-.193-.28,1.225,1.225,0,0,1,.226-1.251,2.58,2.58,0,0,0,.378-1.257,25.627,25.627,0,0,1,3.213-4.711,2.2,2.2,0,0,1,1.9-.975" transform="translate(-559.96 -80.385)" fill="#a8a8a8"></path><path id="Path_137" data-name="Path 137" d="M589.912,120.7c-1.318,3.7-4.144,5.827-7.633,7.22-.765.3-1.178-.346-1.462-.915a10.131,10.131,0,0,1-.853-3.914c-.1-1.393-.091-1.387-1.405-1.1a13.031,13.031,0,0,1-3.328.407c-1.432-.064-1.872-.532-1.793-1.948a11.882,11.882,0,0,1,2.3-6.334,1.443,1.443,0,0,1,.992-.089c2.832.711,5.386-.408,7.989-1.2a2.257,2.257,0,0,0,.686-.382c.922-.07,1.138-1.256,2.067-1.317a1.272,1.272,0,0,1,.751.378c.042,1.259-.668,2.316-.951,3.49-.1.394-.2.793-.289,1.08A28.677,28.677,0,0,1,588,112.768a9.47,9.47,0,0,0,.413-1.838c.04-.387.078-.769.61-.761a.826.826,0,0,1,.584.659,15.327,15.327,0,0,0,.752,2.325,26.024,26.024,0,0,1,.527,5.406,2.7,2.7,0,0,1-.971,2.145" transform="translate(-560.849 -79.746)" fill="#a8a8a8"></path><path id="Path_138" data-name="Path 138" d="M581.615,97.181a12.189,12.189,0,0,1,2.12-7.627,1.343,1.343,0,0,1,2.062-.533,9.258,9.258,0,0,1,2.944,2.714c.758,1.064,1.194.8,1.846-.033a9.961,9.961,0,0,1,2.308-2.111c1.324-.889,2.038-.733,2.824.629a10.537,10.537,0,0,1,1.616,5.177c.3,1.137.216,2.112-1,2.71a2.867,2.867,0,0,0-.949,1.077A35.59,35.59,0,0,1,590.962,104c-.485.158-.733.623-1.139.887-.4-.018-.783.239-1.2.129-.177-.079-.36-.206-.347-.394.1-1.456-.65-2.831-.394-4.254a1.254,1.254,0,0,1-.078.5,1.064,1.064,0,0,1-1.668-.079,6.036,6.036,0,0,1-.725-.7,12.987,12.987,0,0,0-3.8-2.909" transform="translate(-560.427 -80.853)" fill="#a8a8a8"></path><path id="Path_139" data-name="Path 139" d="M587.943,111.685l-.668-.219c-.883.17-1.093,1-1.555,1.585-2.519.9-4.984,2.015-7.763,1.806a4.539,4.539,0,0,1-2.338-.657l1.077-1.589c2.943-.02,5.707-.584,7.993-2.614.166-.147.5-.273.5-.41,0-1.273.933-.977,1.661-1.027.063.525.326.787.879.671a1,1,0,0,1,.974.307c-.136.758-.019,1.607-.764,2.149" transform="translate(-560.736 -79.829)" fill="#999"></path><path id="Path_140" data-name="Path 140" d="M589.114,120.781a13.951,13.951,0,0,0-.236-7.549c.409-.806,0-1.759.471-2.563.146-.25.143-.591.487-.7a.5.5,0,0,1,.324.046c.755.679.318,1.684.645,2.48-.323-.853.089-1.916-.723-2.632a.973.973,0,0,1,.556-1.181.623.623,0,0,1,.757.6,1.478,1.478,0,0,0,.122,1.434c.318.586.883,1.1.707,1.881a4.083,4.083,0,0,0-.392,3.253,13.2,13.2,0,0,1-.573,6.611,1.333,1.333,0,0,1-.658.735,10.09,10.09,0,0,1-1.486-2.411" transform="translate(-560.051 -79.823)" fill="#9c9c9c"></path><path id="Path_141" data-name="Path 141" d="M581.616,96.766a4.022,4.022,0,0,1,3.2,1.467c.843.84,1.4,2.072,2.825,2.165a3.043,3.043,0,0,1,.532,1.89c.089,1.341.6,2.6.68,3.937-.238.666-1.1.533-1.416,1.11A2.357,2.357,0,0,1,585.2,106c1.083-1.219,1.176-1.774.12-3.217-1.042-1.424-1.9-3.034-3.508-3.971a7.456,7.456,0,0,1-.191-2.042" transform="translate(-560.428 -80.439)" fill="#999"></path><path id="Path_142" data-name="Path 142" d="M590.173,103.16c.947-.162,1.186-1.092,1.724-1.669,1-1.079,2.293-1.915,2.9-3.353a1.576,1.576,0,0,1,.849-.85c1.207-.331,1.423-1.156,1.308-2.218a7.175,7.175,0,0,1-.423,4.447,16.273,16.273,0,0,0-4.5,5.907c-.487.238-.676.745-1.015,1.116a1.851,1.851,0,0,1-1.617.761.661.661,0,0,1-.447-.278,6.576,6.576,0,0,1,1.222-3.865" transform="translate(-560.047 -80.526)" fill="#9b9b9b"></path><path id="Path_143" data-name="Path 143" d="M594.153,107.7c1.33.015,2.359.881,3.546,1.3a42.591,42.591,0,0,1,4.545,2.161c.74.365,1.082,1.115,1.591,1.7l-.83.281a10.775,10.775,0,0,0-5.9-2.976,16.589,16.589,0,0,0-4.991-.218c-.561-.456-1.339-.739-1.321-1.657,1.04-.113,1.952.486,2.826.491-.428-.174-1.04-.162-1.619-.315a.407.407,0,0,1-.347-.378c-.01-.268.22-.259.391-.282.7-.093,1.379-.64,2.111-.108" transform="translate(-559.952 -79.886)" fill="#9a9a9a"></path><path id="Path_144" data-name="Path 144" d="M587.1,107.519a.984.984,0,0,1-.747.165c-1.846-.29-3.694-.57-5.536-.88a1.115,1.115,0,0,1-.944-.462c1.518-.165,2.87.542,4.3.5a2.894,2.894,0,0,1,2.93.677" transform="translate(-560.516 -79.945)" fill="#bababa"></path><path id="Path_145" data-name="Path 145" d="M586.893,107.546l-2.931-.677q.331-.538.661-1.076c1.082.023,1.77.9,2.706,1.245.118.252,0,.407-.217.518l-.219-.011" transform="translate(-560.305 -79.972)" fill="#999"></path><path id="Path_146" data-name="Path 146" d="M586.992,109.667a3.96,3.96,0,0,1-1.771-.155l1.138-.93,1.068-.263a.6.6,0,0,1,.816-.137c.407.435.037.642-.271.819a5.361,5.361,0,0,0-.98.665" transform="translate(-560.24 -79.854)" fill="#5b5b5b"></path><path id="Path_147" data-name="Path 147" d="M587.324,107.2a19.862,19.862,0,0,1-2.713-1.379c-.157-.163-.569-.314-.368-.522.279-.286.527.195.818.259a18.719,18.719,0,0,0,2.214,1.152.323.323,0,0,1,.318.233.246.246,0,0,1-.268.257" transform="translate(-560.293 -80.002)" fill="#bababa"></path><path id="Path_148" data-name="Path 148" d="M587.181,107.124l.195-.276a.6.6,0,0,1,.908.216,3.16,3.16,0,0,1,.144,1.155.391.391,0,0,1-.2.24l-.888-.068c-.126-.294-.254-.588-.38-.881q.11-.192.223-.385" transform="translate(-560.15 -79.924)" fill="#7a7a7a"></path><path id="Path_149" data-name="Path 149" d="M592.121,112.555c-.344-.7-.692-1.4-1.03-2.1-.16-.332-.368-.667-.1-1.041a.309.309,0,0,1,.268.388l3.433,6.514-.236.142c-.972-1.175-1.471-2.659-2.339-3.9" transform="translate(-559.948 -79.785)" fill="#b9b9b9"></path><path id="Path_150" data-name="Path 150" d="M591.282,109.856l-.268-.388a.866.866,0,0,0-.435-.681l-.091-.107c-.01-.194-.021-.388.275-.306.358.6,1.223.738,1.365,1.527l-.845-.044" transform="translate(-559.968 -79.84)" fill="#626262"></path><path id="Path_151" data-name="Path 151" d="M586.906,109.767c-.119-1.005.7-1.046,1.323-1.279a1.008,1.008,0,0,0,.078-.083,1.384,1.384,0,0,0-.141-1.182.716.716,0,0,1,.122-.907.922.922,0,0,1,.3-.156.7.7,0,0,1,.338.03.679.679,0,0,1,.253.225l.482.042c.487.292,1.178.093,1.556.646.013.079.026.158.04.238a.651.651,0,0,1-.276.861c-.24.175-.51.364-.207.708l-.01-.011a1.376,1.376,0,0,1-.425,1.149.112.112,0,0,1-.051.181l-.109.008h-.109c-.492-.043-.3.408-.426.617-.3.492-.643.7-1.167.321q-.112-.347-.226-.7c-.226-.172-.023-.461-.175-.654l-1.169-.06" transform="translate(-560.153 -79.954)" fill="#7a7a7a"></path><path id="Path_152" data-name="Path 152" d="M590.6,108.946c-.746-.8.329-1.044.483-1.57,1.463-.44,2.613-1.575,4.12-1.916.048.082.1.165.144.247l-3.508,1.837.038.129,7.436-1.307.057.29c-1.646.717-3.547.408-5.189,1.143a5.207,5.207,0,0,0-2.376.5l3.8.734c-.651.281-.65.28-2.4-.054-.809-.155-1.619-.3-2.428-.456-.2.084-.165.263-.176.424" transform="translate(-559.976 -79.989)" fill="#bbb"></path><path id="Path_153" data-name="Path 153" d="M591.08,107.168c-.53-.188-1.468.608-1.555-.646.885-.443,1.475-1.339,2.476-1.6a7.156,7.156,0,0,0-.92,2.251" transform="translate(-560.017 -80.017)" fill="#5a5a5a"></path><path id="Path_154" data-name="Path 154" d="M588.111,109.669l.326-.461c.185.447-.116.76-.15,1.115q-1.046,3.452-2.091,6.9c-.084-1.982.853-3.707,1.2-5.575q.358-.991.714-1.982" transform="translate(-560.19 -79.796)" fill="#b9b9b9"></path><path id="Path_155" data-name="Path 155" d="M588.4,111.015c1.288-.362,1.381-.636.467-1.741.651.006.832.488,1.125.8-.217.815-.444,1.628-.645,2.448-.07.288-.062.6-.443.676a7.141,7.141,0,0,0-.5-2.186" transform="translate(-560.076 -79.792)" fill="#5e5e5e"></path><path id="Path_156" data-name="Path 156" d="M585.224,112.989c.319-1.286,1.37-2.025,2.3-3.242-.045.883-.627,1.163-.746,1.657-.643.407-.861,1.229-1.556,1.585" transform="translate(-560.24 -79.768)" fill="#bbb"></path><path id="Path_157" data-name="Path 157" d="M588.681,106.784c-.071.017-.143.037-.212.06-.318-.024-.349-.2-.237-.448q-.446-3.046-.892-6.091c.117-.459-.182-.946.241-1.715.33,2.11.615,3.932.9,5.756a2.048,2.048,0,0,1,.2,2.439" transform="translate(-560.13 -80.344)" fill="#bababa"></path><path id="Path_158" data-name="Path 158" d="M588.625,106.525q-.1-1.219-.2-2.439c.139-.769.541-.449.92-.222a3.832,3.832,0,0,1-.434,2.657l-.287,0" transform="translate(-560.074 -80.086)" fill="#989898"></path><path id="Path_159" data-name="Path 159" d="M588.888,106.564l.435-2.657c.4-.294-.09-1.254.852-1.144-.547,1.224-.509,2.617-1.1,3.828a.885.885,0,0,1-.187-.027" transform="translate(-560.05 -80.129)" fill="#bbb"></path><path id="Path_160" data-name="Path 160" d="M590.121,110.039a.915.915,0,0,1,.05-.182c1.136.977.429,2.338.78,3.48-.648-1.014-.516-2.208-.831-3.3" transform="translate(-559.987 -79.762)" fill="#b9b9b9"></path><path id="Path_161" data-name="Path 161" d="M588.26,106.049l.237.448c-.073.283-.146.566-.219.849a.135.135,0,0,1-.21.054l-.683-.477-.244-.215c.054-.485-.463-.842-.311-1.4.628-.017.933.564,1.431.744" transform="translate(-560.158 -79.997)" fill="#5d5d5d"></path><path id="Path_162" data-name="Path 162" d="M588.005,107.3a1.126,1.126,0,0,0,.21-.054c.939.34.758.713.035,1.1-.3-.3-.2-.692-.245-1.05" transform="translate(-560.096 -79.897)" fill="#a0a0a0"></path></g><path id="Path_171" data-name="Path 171" d="M6.442-9.9A3.374,3.374,0,0,1,9.277-8.578a5.944,5.944,0,0,1,1.015,3.7A5.963,5.963,0,0,1,9.264-1.156,3.406,3.406,0,0,1,6.407.176,3.4,3.4,0,0,1,3.542-1.151H3.4L3.023,0H1.477V-13.676H3.542v3.252q0,.36-.035,1.072t-.053.905h.088A3.28,3.28,0,0,1,6.442-9.9ZM5.906-8.209a2.1,2.1,0,0,0-1.8.734,4.269,4.269,0,0,0-.567,2.457v.141A4.547,4.547,0,0,0,4.1-2.307a2.092,2.092,0,0,0,1.837.8,1.862,1.862,0,0,0,1.666-.87A4.615,4.615,0,0,0,8.174-4.9Q8.174-8.209,5.906-8.209ZM14.757,0H12.691V-13.676h2.065ZM26.332-4.878A5.306,5.306,0,0,1,25.11-1.16a4.377,4.377,0,0,1-3.4,1.336A4.66,4.66,0,0,1,19.3-.439a4.062,4.062,0,0,1-1.608-1.767,6.017,6.017,0,0,1-.562-2.672,5.27,5.27,0,0,1,1.213-3.691A4.4,4.4,0,0,1,21.762-9.9,4.282,4.282,0,0,1,25.1-8.539,5.245,5.245,0,0,1,26.332-4.878Zm-7.075,0q0,3.366,2.487,3.366,2.461,0,2.461-3.366,0-3.331-2.479-3.331a2.113,2.113,0,0,0-1.885.861A4.383,4.383,0,0,0,19.257-4.878Zm18.07,0A5.306,5.306,0,0,1,36.105-1.16,4.377,4.377,0,0,1,32.7.176,4.66,4.66,0,0,1,30.3-.439a4.062,4.062,0,0,1-1.608-1.767,6.017,6.017,0,0,1-.562-2.672,5.27,5.27,0,0,1,1.213-3.691A4.4,4.4,0,0,1,32.757-9.9,4.282,4.282,0,0,1,36.1-8.539,5.245,5.245,0,0,1,37.327-4.878Zm-7.075,0q0,3.366,2.487,3.366,2.461,0,2.461-3.366,0-3.331-2.479-3.331a2.113,2.113,0,0,0-1.885.861A4.383,4.383,0,0,0,30.252-4.878ZM47.892,0H45.817V-5.994A2.718,2.718,0,0,0,45.4-7.66a1.557,1.557,0,0,0-1.318-.549,2.011,2.011,0,0,0-1.753.778,4.564,4.564,0,0,0-.558,2.588V0H39.7V-9.721h1.617l.29,1.274h.105a2.693,2.693,0,0,1,1.173-1.072A3.783,3.783,0,0,1,44.578-9.9a2.956,2.956,0,0,1,2.971,1.529h.141A2.963,2.963,0,0,1,48.9-9.492,3.849,3.849,0,0,1,50.7-9.9a3.265,3.265,0,0,1,2.536.879,3.892,3.892,0,0,1,.8,2.681V0H51.961V-5.994a2.7,2.7,0,0,0-.426-1.666,1.569,1.569,0,0,0-1.323-.549,2.05,2.05,0,0,0-1.762.751,3.874,3.874,0,0,0-.558,2.307Zm8.174-3.946V-5.7h4.518v1.758Zm10.31-4.078A4.406,4.406,0,0,1,69.451-7a3.6,3.6,0,0,1,1.134,2.8A4.1,4.1,0,0,1,69.3-.98,5.3,5.3,0,0,1,65.637.176a6.918,6.918,0,0,1-3.384-.694V-2.391a6.2,6.2,0,0,0,1.635.624,7.43,7.43,0,0,0,1.714.22,3.188,3.188,0,0,0,2.127-.624A2.273,2.273,0,0,0,68.458-4q0-2.3-2.936-2.3a7.694,7.694,0,0,0-1.02.083q-.606.083-1.063.189l-.923-.545.492-6.275h6.68v1.837h-4.86l-.29,3.182q.308-.053.751-.123A7.086,7.086,0,0,1,66.375-8.024Zm5.95,2.549q0-7.541,6.144-7.541a7.621,7.621,0,0,1,1.635.149v1.723a5.581,5.581,0,0,0-1.547-.193,4.052,4.052,0,0,0-3.1,1.107A5.378,5.378,0,0,0,74.329-6.68h.105a2.827,2.827,0,0,1,1.16-1.1,3.74,3.74,0,0,1,1.758-.391A3.5,3.5,0,0,1,80.077-7.1a4.159,4.159,0,0,1,.976,2.909A4.414,4.414,0,0,1,79.923-1,4.075,4.075,0,0,1,76.843.176a4.3,4.3,0,0,1-2.4-.664,4.237,4.237,0,0,1-1.569-1.934A7.669,7.669,0,0,1,72.325-5.476Zm4.482,3.946a2.021,2.021,0,0,0,1.639-.686,2.968,2.968,0,0,0,.576-1.96,2.594,2.594,0,0,0-.541-1.74,2.015,2.015,0,0,0-1.622-.633,2.678,2.678,0,0,0-1.23.286,2.26,2.26,0,0,0-.888.782,1.833,1.833,0,0,0-.325,1.015,3.255,3.255,0,0,0,.672,2.087A2.1,2.1,0,0,0,76.808-1.529Zm14.467-4.9A9.14,9.14,0,0,1,90.2-1.45,3.675,3.675,0,0,1,86.906.176,3.648,3.648,0,0,1,83.654-1.5a8.977,8.977,0,0,1-1.107-4.922,9.191,9.191,0,0,1,1.077-5.014,3.676,3.676,0,0,1,3.283-1.613,3.651,3.651,0,0,1,3.261,1.688A9.043,9.043,0,0,1,91.274-6.425Zm-6.636,0a9.362,9.362,0,0,0,.541,3.753,1.8,1.8,0,0,0,1.727,1.125,1.817,1.817,0,0,0,1.736-1.143,9.243,9.243,0,0,0,.549-3.735,9.316,9.316,0,0,0-.549-3.74,1.817,1.817,0,0,0-1.736-1.156,1.8,1.8,0,0,0-1.727,1.134A9.431,9.431,0,0,0,84.639-6.425ZM101.716,0H99.642V-5.994A2.718,2.718,0,0,0,99.22-7.66,1.557,1.557,0,0,0,97.9-8.209a2.011,2.011,0,0,0-1.753.778,4.564,4.564,0,0,0-.558,2.588V0H93.524V-9.721h1.617l.29,1.274h.105A2.693,2.693,0,0,1,96.71-9.519,3.783,3.783,0,0,1,98.4-9.9a2.956,2.956,0,0,1,2.971,1.529h.141a2.963,2.963,0,0,1,1.213-1.125,3.849,3.849,0,0,1,1.793-.4,3.265,3.265,0,0,1,2.536.879,3.892,3.892,0,0,1,.8,2.681V0h-2.065V-5.994a2.7,2.7,0,0,0-.426-1.666,1.569,1.569,0,0,0-1.323-.549,2.05,2.05,0,0,0-1.762.751,3.874,3.874,0,0,0-.558,2.307Z" transform="translate(1212.429 476)"></path></g></svg> 