<?xml version="1.0" encoding="UTF-8"?> <svg xmlns="http://www.w3.org/2000/svg" xmlns:xlink="http://www.w3.org/1999/xlink" width="60" height="60" viewBox="0 0 60 60"><defs><clipPath id="clip-path"><rect id="Rectangle_15" data-name="Rectangle 15" width="60" height="60" transform="translate(835 374)" fill="#fff" stroke="#707070" stroke-width="1"></rect></clipPath></defs><g id="Mask_Group_22" data-name="Mask Group 22" transform="translate(-835 -374)" clip-path="url(#clip-path)"><g id="Group_12" data-name="Group 12" transform="translate(0 -1)"><g id="matplotlib-1" transform="translate(844 379)"><path id="Path_54" data-name="Path 54" d="M22.039,42.7A20.656,20.656,0,1,0,1.383,22.039,20.657,20.657,0,0,0,22.039,42.7Z" transform="translate(-1.157 -1.157)" fill="#fff"></path><path id="Path_55" data-name="Path 55" d="M20.882,0A20.882,20.882,0,1,0,41.764,20.882,20.882,20.882,0,0,0,20.882,0Zm0,.451A20.431,20.431,0,1,1,.451,20.882,20.431,20.431,0,0,1,20.882.451Z" transform="translate(0)" fill="#11557c"></path><path id="Path_56" data-name="Path 56" d="M21.76,42.266a.057.057,0,0,1,.055.045v.1a.057.057,0,0,1-.112.011v-.1a.057.057,0,0,1,.057-.057Zm0-.355a.057.057,0,0,1,.055.045v.182a.057.057,0,0,1-.112.011v-.182a.057.057,0,0,1,.057-.057Zm0-.355a.057.057,0,0,1,.055.045v.181a.057.057,0,0,1-.112.011v-.181a.057.057,0,0,1,.057-.057Zm0-.355a.057.057,0,0,1,.055.045v.181a.057.057,0,0,1-.112.011v-.181a.057.057,0,0,1,.057-.057Zm0-.355a.057.057,0,0,1,.055.045v.181a.057.057,0,0,1-.112.011V40.9a.057.057,0,0,1,.057-.057Zm0-.355a.057.057,0,0,1,.055.045v.181a.057.057,0,0,1-.112.011V40.55a.057.057,0,0,1,.057-.057Zm0-.355a.057.057,0,0,1,.055.045v.182a.057.057,0,0,1-.112.011V40.2a.057.057,0,0,1,.057-.057Zm0-.355a.057.057,0,0,1,.055.045v.181a.057.057,0,0,1-.112.011v-.181a.057.057,0,0,1,.057-.057Zm0-.355a.057.057,0,0,1,.055.045v.182a.057.057,0,0,1-.112.011v-.182a.057.057,0,0,1,.057-.057Zm0-.355a.057.057,0,0,1,.055.045V39.3a.057.057,0,0,1-.112.011v-.181a.057.057,0,0,1,.057-.057Zm0-.355a.057.057,0,0,1,.055.045v.181a.057.057,0,0,1-.112.011v-.181a.057.057,0,0,1,.057-.057Zm0-.355a.057.057,0,0,1,.055.045v.181a.057.057,0,0,1-.112.011v-.181a.057.057,0,0,1,.057-.057Zm0-.355a.057.057,0,0,1,.055.045v.181a.057.057,0,0,1-.112.011v-.181a.057.057,0,0,1,.057-.057Zm0-.355a.057.057,0,0,1,.055.045v.182a.057.057,0,0,1-.112.011v-.182a.057.057,0,0,1,.057-.057Zm0-.355a.057.057,0,0,1,.055.045v.181a.057.057,0,0,1-.112.011v-.181a.057.057,0,0,1,.057-.057Zm0-.355a.057.057,0,0,1,.055.045v.182a.057.057,0,0,1-.112.011V37a.057.057,0,0,1,.057-.057Zm0-.355a.057.057,0,0,1,.055.045v.181a.057.057,0,0,1-.112.011v-.181a.057.057,0,0,1,.057-.057Zm0-.355a.057.057,0,0,1,.055.045v.182a.057.057,0,0,1-.112.011v-.182a.057.057,0,0,1,.057-.057Zm-14.582.021a.057.057,0,0,1,.088.07l-.008.01L7.2,36.4a.057.057,0,0,1-.088-.07l.008-.01Zm29.084,0a.057.057,0,0,1,.07-.008l.01.008.063.063a.057.057,0,0,1-.07.088l-.01-.008-.063-.063a.057.057,0,0,1,0-.08ZM7.429,36.008a.057.057,0,0,1,.088.07l-.008.01-.12.12a.057.057,0,0,1-.088-.07l.008-.01Zm28.582,0a.057.057,0,0,1,.07-.008l.01.008.12.12a.057.057,0,0,1-.07.088l-.01-.008-.12-.12a.057.057,0,0,1,0-.08ZM21.76,35.884a.057.057,0,0,1,.055.045v.181a.057.057,0,0,1-.112.011V35.94a.057.057,0,0,1,.057-.057ZM7.679,35.758a.057.057,0,0,1,.088.07l-.008.01-.12.12a.057.057,0,0,1-.088-.07l.008-.01Zm28.081,0a.057.057,0,0,1,.07-.008l.01.008.12.12a.057.057,0,0,1-.07.088l-.01-.008-.12-.12a.057.057,0,0,1,0-.08Zm-14-.229a.057.057,0,0,1,.055.045v.181a.057.057,0,0,1-.112.011v-.181a.057.057,0,0,1,.057-.057ZM7.93,35.507a.057.057,0,0,1,.088.07l-.008.01-.12.12a.057.057,0,0,1-.088-.07l.008-.01Zm27.579,0a.057.057,0,0,1,.07-.008l.01.008.12.12a.057.057,0,0,1-.07.088l-.01-.008-.12-.12a.057.057,0,0,1,0-.08ZM8.181,35.256a.057.057,0,0,1,.088.07l-.008.01-.12.12a.057.057,0,0,1-.088-.07l.008-.01Zm27.078,0a.057.057,0,0,1,.07-.008l.01.008.12.12a.057.057,0,0,1-.07.088l-.01-.008-.12-.12a.057.057,0,0,1,0-.08Zm-13.5-.082a.057.057,0,0,1,.055.045V35.4a.057.057,0,0,1-.112.011v-.181a.057.057,0,0,1,.057-.057ZM8.431,35.005a.057.057,0,0,1,.088.07l-.008.01-.12.12a.057.057,0,0,1-.088-.07l.008-.01Zm26.577,0a.057.057,0,0,1,.07-.008l.01.008.12.12a.057.057,0,0,1-.07.088l-.01-.008-.12-.12a.057.057,0,0,1,0-.08ZM21.76,34.82a.057.057,0,0,1,.055.045v.181a.057.057,0,0,1-.112.011v-.181a.057.057,0,0,1,.057-.057ZM8.682,34.755a.057.057,0,0,1,.088.07l-.008.01-.12.12a.057.057,0,0,1-.088-.07l.008-.01Zm26.075,0a.057.057,0,0,1,.07-.008l.01.008.12.12a.057.057,0,0,1-.07.088l-.01-.008-.12-.12a.057.057,0,0,1,0-.08Zm-13-.289a.057.057,0,0,1,.055.045v.182a.057.057,0,0,1-.112.011v-.182a.057.057,0,0,1,.057-.057ZM8.933,34.5a.057.057,0,0,1,.088.07l-.008.01-.12.12a.057.057,0,0,1-.088-.07l.008-.01Zm25.574,0a.057.057,0,0,1,.07-.008l.01.008.12.12a.057.057,0,0,1-.07.088l-.01-.008-.12-.12a.057.057,0,0,1,0-.08ZM9.184,34.253a.057.057,0,0,1,.088.07l-.008.01-.12.12a.057.057,0,0,1-.088-.07l.008-.01Zm25.072,0a.057.057,0,0,1,.07-.008l.01.008.12.12a.057.057,0,0,1-.07.088l-.01-.008-.12-.12a.057.057,0,0,1,0-.08Zm-12.5-.143a.057.057,0,0,1,.055.045v.181a.057.057,0,0,1-.112.011v-.181a.057.057,0,0,1,.057-.057ZM9.434,34a.057.057,0,0,1,.088.07l-.008.01-.12.12a.057.057,0,0,1-.088-.07l.008-.01Zm24.571,0a.057.057,0,0,1,.07-.008l.01.008.12.12a.057.057,0,0,1-.07.088l-.01-.008-.12-.12a.057.057,0,0,1,0-.08ZM21.76,33.756a.057.057,0,0,1,.055.045v.182a.057.057,0,0,1-.112.011v-.182a.057.057,0,0,1,.057-.057Zm11.995,0a.057.057,0,0,1,.07-.008l.01.008.12.12a.057.057,0,0,1-.07.088l-.01-.008-.12-.12a.057.057,0,0,1,0-.08Zm-24.069,0a.057.057,0,0,1,.088.07l-.008.01-.12.12a.057.057,0,0,1-.088-.07l.008-.01Zm.251-.251a.057.057,0,0,1,.088.07l-.008.01-.12.12a.057.057,0,0,1-.088-.07l.008-.01Zm23.568,0a.057.057,0,0,1,.07-.008l.01.008.12.12a.057.057,0,0,1-.07.088l-.01-.008-.12-.12a.057.057,0,0,1,0-.08ZM21.76,33.4a.057.057,0,0,1,.055.045v.181a.057.057,0,0,1-.112.011v-.181a.057.057,0,0,1,.057-.057Zm11.493-.151a.057.057,0,0,1,.07-.008l.01.008.12.12a.057.057,0,0,1-.07.088l-.01-.008-.12-.12a.057.057,0,0,1,0-.08Zm-23.067,0a.057.057,0,0,1,.088.07l-.008.01-.12.12a.057.057,0,0,1-.088-.07l.008-.01Zm11.573-.2a.057.057,0,0,1,.055.045v.181a.057.057,0,0,1-.112.011V33.1a.057.057,0,0,1,.057-.057ZM10.437,33a.057.057,0,0,1,.088.07l-.008.01-.12.12a.057.057,0,0,1-.088-.07l.008-.01ZM33,33a.057.057,0,0,1,.07-.008l.01.008.12.12a.057.057,0,0,1-.07.088l-.01-.008L33,33.08A.057.057,0,0,1,33,33ZM21.76,32.692a.057.057,0,0,1,.055.045v.181a.057.057,0,0,1-.112.011v-.181a.057.057,0,0,1,.057-.057Zm10.992.056a.057.057,0,0,1,.07-.008l.01.008.12.12a.057.057,0,0,1-.07.088l-.01-.008-.12-.12a.057.057,0,0,1,0-.08Zm-22.064,0a.057.057,0,0,1,.088.07l-.008.01-.12.12a.057.057,0,0,1-.088-.07l.008-.01ZM32.5,32.5a.057.057,0,0,1,.07-.008l.01.008.12.12a.057.057,0,0,1-.07.088l-.01-.008-.12-.12a.057.057,0,0,1,0-.08Zm-21.562,0a.057.057,0,0,1,.088.07l-.008.01-.12.12a.057.057,0,0,1-.088-.07l.008-.01Zm10.821-.161a.057.057,0,0,1,.055.045v.181a.057.057,0,0,1-.112.011v-.181a.057.057,0,0,1,.057-.057Zm10.49-.09a.057.057,0,0,1,.07-.008l.01.008.12.12a.057.057,0,0,1-.07.088l-.01-.008-.12-.12a.057.057,0,0,1,0-.08Zm-21.061,0a.057.057,0,0,1,.088.07l-.008.01-.12.12a.057.057,0,0,1-.088-.07l.008-.01Zm10.57-.264a.057.057,0,0,1,.055.045v.182a.057.057,0,0,1-.112.011V32.04a.057.057,0,0,1,.057-.057ZM32,32a.057.057,0,0,1,.07-.008l.01.008.12.12a.057.057,0,0,1-.07.088l-.01-.008-.12-.12A.057.057,0,0,1,32,32ZM11.44,32a.057.057,0,0,1,.088.07l-.008.01-.12.12a.057.057,0,0,1-.088-.07l.008-.01Zm20.309-.251a.057.057,0,0,1,.07-.008l.01.008.12.12a.057.057,0,0,1-.07.088l-.01-.008-.12-.12a.057.057,0,0,1,0-.08Zm-20.058,0a.057.057,0,0,1,.088.07l-.008.01-.12.12a.057.057,0,0,1-.088-.07l.008-.01Zm10.069-.117a.057.057,0,0,1,.055.045v.181a.057.057,0,0,1-.112.011v-.181a.057.057,0,0,1,.057-.057ZM31.5,31.5a.057.057,0,0,1,.07-.008l.01.008.12.12a.057.057,0,0,1-.07.088l-.01-.008-.12-.12a.057.057,0,0,1,0-.08Zm-19.556,0a.057.057,0,0,1,.088.07l-.008.01-.12.12a.057.057,0,0,1-.088-.07l.008-.01Zm9.818-.221a.057.057,0,0,1,.055.045V31.5a.057.057,0,0,1-.112.011v-.182a.057.057,0,0,1,.057-.057Zm-9.568-.029a.057.057,0,0,1,.088.07l-.008.01-.12.12a.057.057,0,0,1-.088-.07l.008-.01Zm19.055,0a.057.057,0,0,1,.07-.008l.01.008.12.12a.057.057,0,0,1-.07.088l-.01-.008-.12-.12a.057.057,0,0,1,0-.08Zm-18.8-.251a.057.057,0,0,1,.088.07l-.008.01-.12.12a.057.057,0,0,1-.088-.07l.008-.01Zm18.554,0a.057.057,0,0,1,.07-.008l.01.008.12.12a.057.057,0,0,1-.07.088l-.01-.008-.12-.12a.057.057,0,0,1,0-.08Zm-9.237-.074a.057.057,0,0,1,.055.045v.181a.057.057,0,0,1-.112.011v-.181a.057.057,0,0,1,.057-.057Zm-9.066-.176a.057.057,0,0,1,.088.07l-.008.01-.12.12a.057.057,0,0,1-.088-.07l.008-.01Zm18.052,0a.057.057,0,0,1,.07-.008l.01.008.12.12a.057.057,0,0,1-.07.088l-.01-.008-.12-.12a.057.057,0,0,1,0-.08Zm-8.986-.178a.057.057,0,0,1,.055.045v.182a.057.057,0,0,1-.112.011v-.182a.057.057,0,0,1,.057-.057Zm-8.815-.072a.057.057,0,0,1,.088.07l-.008.01-.12.12a.057.057,0,0,1-.088-.07l.008-.01Zm17.551,0a.057.057,0,0,1,.07-.008l.01.008.12.12a.057.057,0,0,1-.07.088l-.01-.008-.12-.12a.057.057,0,0,1,0-.08ZM21.76,30.21a.057.057,0,0,1,.055.045v.181a.057.057,0,0,1-.112.011v-.181a.057.057,0,0,1,.057-.057Zm-8.565.031a.057.057,0,0,1,.088.07l-.008.01-.12.12a.057.057,0,0,1-.088-.07l.008-.01Zm17.049,0a.057.057,0,0,1,.07-.008l.01.008.12.12a.057.057,0,0,1-.07.088l-.01-.008-.12-.12a.057.057,0,0,1,0-.08Zm-.251-.251a.057.057,0,0,1,.07-.008l.01.008.12.12a.057.057,0,0,1-.07.088l-.01-.008-.12-.12a.057.057,0,0,1,0-.08Zm-16.548,0a.057.057,0,0,1,.088.07l-.008.01-.12.12a.057.057,0,0,1-.088-.07l.008-.01Zm8.314-.135a.057.057,0,0,1,.055.045v.181a.057.057,0,0,1-.112.011v-.181A.057.057,0,0,1,21.76,29.856ZM13.7,29.74a.057.057,0,0,1,.088.07l-.008.01-.12.12a.057.057,0,0,1-.088-.07l.008-.01Zm16.046,0a.057.057,0,0,1,.07-.008l.01.008.12.12a.057.057,0,0,1-.07.088l-.01-.008-.12-.12a.057.057,0,0,1,0-.08ZM21.76,29.5a.057.057,0,0,1,.055.045v.181a.057.057,0,0,1-.112.011v-.181A.057.057,0,0,1,21.76,29.5Zm-7.812-.012a.057.057,0,0,1,.088.07l-.008.01-.12.12a.057.057,0,0,1-.088-.07l.008-.01Zm15.545,0a.057.057,0,0,1,.07-.008l.01.008.12.12a.057.057,0,0,1-.07.088l-.01-.008-.12-.12a.057.057,0,0,1,0-.08ZM14.2,29.239a.057.057,0,0,1,.088.07l-.008.01-.12.12a.057.057,0,0,1-.088-.07l.008-.01Zm15.043,0a.057.057,0,0,1,.07-.008l.01.008.12.12a.057.057,0,0,1-.07.088l-.01-.008-.12-.12a.057.057,0,0,1,0-.08Zm-7.482-.092a.057.057,0,0,1,.055.045v.181a.057.057,0,0,1-.112.011V29.2A.057.057,0,0,1,21.76,29.146Zm7.231-.158a.057.057,0,0,1,.07-.008l.01.008.12.12a.057.057,0,0,1-.07.088l-.01-.008-.12-.12a.057.057,0,0,1,0-.08Zm-14.542,0a.057.057,0,0,1,.088.07l-.008.01-.12.12a.057.057,0,0,1-.088-.07l.008-.01Zm7.311-.2a.057.057,0,0,1,.055.045v.182a.057.057,0,0,1-.112.011v-.182A.057.057,0,0,1,21.76,28.792Zm6.98-.055a.057.057,0,0,1,.07-.008l.01.008.12.12a.057.057,0,0,1-.07.088l-.01-.008-.12-.12a.057.057,0,0,1,0-.08Zm-14.04,0a.057.057,0,0,1,.088.07l-.008.01-.12.12a.057.057,0,0,1-.088-.07l.008-.01Zm7.06-.3a.057.057,0,0,1,.055.045v.181a.057.057,0,0,1-.112.011v-.181a.057.057,0,0,1,.057-.057Zm6.73.049a.057.057,0,0,1,.07-.008l.01.008.12.12a.057.057,0,0,1-.07.088l-.01-.008-.12-.12a.057.057,0,0,1,0-.08Zm-13.539,0a.057.057,0,0,1,.088.07l-.008.01-.12.12a.057.057,0,0,1-.088-.07l.008-.01Zm13.288-.251a.057.057,0,0,1,.07-.008l.01.008.12.12a.057.057,0,0,1-.07.088l-.01-.008-.12-.12a.057.057,0,0,1,0-.08Zm-13.038,0a.057.057,0,0,1,.088.07l-.008.01-.12.12a.057.057,0,0,1-.088-.07l.008-.01Zm6.559-.153a.057.057,0,0,1,.055.045v.182a.057.057,0,0,1-.112.011v-.182a.057.057,0,0,1,.057-.057Zm-6.308-.1a.057.057,0,0,1,.088.07l-.008.01-.12.12a.057.057,0,0,1-.088-.07l.008-.01Zm12.536,0a.057.057,0,0,1,.07-.008l.01.008.12.12a.057.057,0,0,1-.07.088l-.01-.008-.12-.12a.057.057,0,0,1,0-.08Zm-6.228-.257a.057.057,0,0,1,.055.045v.181a.057.057,0,0,1-.112.011v-.181a.057.057,0,0,1,.057-.057Zm-6.057.006a.057.057,0,0,1,.088.07l-.008.01-.12.12a.057.057,0,0,1-.088-.07l.008-.01Zm12.035,0a.057.057,0,0,1,.07-.008l.01.008.12.12a.057.057,0,0,1-.07.088l-.01-.008-.12-.12a.057.057,0,0,1,0-.08Zm-11.784-.251a.057.057,0,0,1,.088.07l-.008.01-.12.12a.057.057,0,0,1-.088-.07l.008-.01Zm11.533,0a.057.057,0,0,1,.07-.008l.01.008.12.12a.057.057,0,0,1-.07.088l-.01-.008-.12-.12a.057.057,0,0,1,0-.08Zm-5.727-.11a.057.057,0,0,1,.055.045V27.6a.057.057,0,0,1-.112.011V27.43a.057.057,0,0,1,.057-.057ZM16.2,27.233a.057.057,0,0,1,.088.07l-.008.01-.12.12a.057.057,0,0,1-.088-.07l.008-.01Zm11.032,0a.057.057,0,0,1,.07-.008l.01.008.12.12a.057.057,0,0,1-.07.088l-.01-.008-.12-.12a.057.057,0,0,1,0-.08Zm-5.476-.214a.057.057,0,0,1,.055.045v.181a.057.057,0,0,1-.112.011v-.181a.057.057,0,0,1,.057-.057Zm-5.305-.037a.057.057,0,0,1,.088.07l-.008.01-.12.12a.057.057,0,0,1-.088-.07l.008-.01Zm10.53,0a.057.057,0,0,1,.07-.008l.01.008.12.12a.057.057,0,0,1-.07.088l-.01-.008-.12-.12a.057.057,0,0,1,0-.08Zm-10.28-.251a.057.057,0,0,1,.088.07l-.008.01-.12.12a.057.057,0,0,1-.088-.07l.008-.01Zm10.029,0a.057.057,0,0,1,.07-.008l.01.008.12.12a.057.057,0,0,1-.07.088l-.01-.008-.12-.12a.057.057,0,0,1,0-.08Zm-4.974-.067a.056.056,0,0,1,.055.045v.181a.057.057,0,0,1-.112.011v-.181a.057.057,0,0,1,.057-.057Zm-4.8-.184a.057.057,0,0,1,.088.07l-.008.01-.12.12a.057.057,0,0,1-.088-.07l.008-.01Zm9.527,0a.057.057,0,0,1,.07-.008l.01.008.12.12a.057.057,0,0,1-.07.088l-.01-.008-.12-.12a.057.057,0,0,1,0-.08ZM21.76,26.31a.057.057,0,0,1,.055.045v.182a.057.057,0,0,1-.112.011v-.182a.057.057,0,0,1,.057-.057Zm-4.553-.08a.057.057,0,0,1,.088.07l-.008.01-.12.12a.057.057,0,0,1-.088-.07l.008-.01Zm9.026,0a.057.057,0,0,1,.07-.008l.01.008.12.12a.057.057,0,0,1-.07.088l-.01-.008-.12-.12a.057.057,0,0,1,0-.08Zm-4.473-.275a.057.057,0,0,1,.055.045v.181a.057.057,0,0,1-.112.011v-.181a.057.057,0,0,1,.057-.057Zm4.222.024a.057.057,0,0,1,.07-.008l.01.008.12.12a.057.057,0,0,1-.07.088l-.01-.008-.12-.12a.057.057,0,0,1,0-.08Zm-8.525,0a.057.057,0,0,1,.088.07l-.008.01-.12.12a.057.057,0,0,1-.088-.07l.008-.01Zm8.274-.251a.057.057,0,0,1,.07-.008l.01.008.12.12a.057.057,0,0,1-.07.088l-.01-.008-.12-.12a.057.057,0,0,1,0-.08Zm-8.023,0a.057.057,0,0,1,.088.07l-.008.01-.12.12a.057.057,0,0,1-.088-.07l.008-.01ZM21.76,25.6a.057.057,0,0,1,.055.045v.182a.057.057,0,0,1-.112.011v-.182A.057.057,0,0,1,21.76,25.6Zm3.721-.123a.057.057,0,0,1,.07-.008l.01.008.12.12a.057.057,0,0,1-.07.088l-.01-.008-.12-.12a.057.057,0,0,1,0-.08Zm-7.522,0a.057.057,0,0,1,.088.07l-.008.01-.12.12a.057.057,0,0,1-.088-.07l.008-.01Zm3.8-.232a.057.057,0,0,1,.055.045v.181a.057.057,0,0,1-.112.011V25.3a.057.057,0,0,1,.057-.057Zm3.47-.019a.057.057,0,0,1,.07-.008l.01.008.12.12a.057.057,0,0,1-.07.088l-.01-.008-.12-.12a.057.057,0,0,1,0-.08Zm-7.02,0a.057.057,0,0,1,.088.07l-.008.01-.12.12a.057.057,0,0,1-.088-.07l.008-.01Zm6.77-.251a.057.057,0,0,1,.07-.008l.01.008.12.12a.057.057,0,0,1-.07.088l-.01-.008-.12-.12a.057.057,0,0,1,0-.08Zm-6.519,0a.057.057,0,0,1,.088.07l-.008.01-.12.12a.057.057,0,0,1-.088-.07l.008-.01Zm3.3-.085a.057.057,0,0,1,.055.045v.182a.057.057,0,0,1-.112.011v-.182a.057.057,0,0,1,.057-.057Zm-3.049-.166a.057.057,0,0,1,.088.07l-.008.01-.12.12a.057.057,0,0,1-.088-.07l.008-.01Zm6.017,0a.057.057,0,0,1,.07-.008l.01.008.12.12a.057.057,0,0,1-.07.088l-.01-.008-.12-.12a.057.057,0,0,1,0-.08Zm-2.969-.189a.057.057,0,0,1,.055.045v.181a.057.057,0,0,1-.112.011v-.181a.057.057,0,0,1,.057-.057Zm-2.8-.062a.057.057,0,0,1,.088.07l-.008.01-.12.12a.057.057,0,0,1-.088-.07l.008-.01Zm5.516,0a.057.057,0,0,1,.07-.008l.01.008.12.12a.057.057,0,0,1-.07.088l-.01-.008-.12-.12a.057.057,0,0,1,0-.08Zm-2.718-.293a.057.057,0,0,1,.055.045v.181a.057.057,0,0,1-.112.011v-.181a.057.057,0,0,1,.057-.057Zm-2.547.042a.057.057,0,0,1,.088.07l-.008.01-.12.12a.057.057,0,0,1-.088-.07l.008-.01Zm5.014,0a.057.057,0,0,1,.07-.008l.01.008.12.12a.057.057,0,0,1-.07.088l-.01-.008-.12-.12a.057.057,0,0,1,0-.08Zm-4.764-.251a.057.057,0,0,1,.088.07l-.008.01-.12.12a.057.057,0,0,1-.088-.07l.008-.01Zm4.513,0a.057.057,0,0,1,.07-.008l.01.008.12.12a.057.057,0,0,1-.07.088l-.01-.008-.12-.12a.057.057,0,0,1,0-.08Zm-2.216-.146a.057.057,0,0,1,.055.045v.181a.057.057,0,0,1-.112.011v-.181a.057.057,0,0,1,.057-.057Zm-2.046-.105a.057.057,0,0,1,.088.07l-.008.01-.12.12a.057.057,0,0,1-.088-.07l.008-.01Zm4.012,0a.057.057,0,0,1,.07-.008l.01.008.12.12a.057.057,0,0,1-.07.088l-.01-.008-.12-.12a.057.057,0,0,1,0-.08Zm-1.966-.25a.057.057,0,0,1,.055.045V23.7a.057.057,0,0,1-.112.011V23.53a.057.057,0,0,1,.057-.057Zm-1.8,0a.057.057,0,0,1,.088.07l-.008.01-.12.12a.057.057,0,0,1-.088-.07l.008-.01Zm3.51,0a.057.057,0,0,1,.07-.008l.01.008.12.12a.057.057,0,0,1-.07.088l-.01-.008-.12-.12a.057.057,0,0,1,0-.08Zm-3.26-.251a.057.057,0,0,1,.088.07l-.008.01-.12.12a.057.057,0,0,1-.088-.07l.008-.01Zm3.009,0a.057.057,0,0,1,.07-.008l.01.008.12.12a.057.057,0,0,1-.07.088l-.01-.008-.12-.12a.057.057,0,0,1,0-.08Zm-1.464-.1a.057.057,0,0,1,.055.045v.182a.057.057,0,0,1-.112.011v-.182a.057.057,0,0,1,.057-.057Zm-1.294-.148a.057.057,0,0,1,.088.07l-.008.01-.12.12a.057.057,0,0,1-.088-.07l.008-.01Zm2.507,0a.057.057,0,0,1,.07-.008l.01.008.12.12a.057.057,0,0,1-.07.088l-.01-.008-.12-.12a.057.057,0,0,1,0-.08Zm-1.214-.207a.057.057,0,0,1,.055.045v.181A.057.057,0,0,1,21.7,23v-.181a.057.057,0,0,1,.057-.057Zm-1.043-.044a.057.057,0,0,1,.088.07l-.008.01-.12.12a.057.057,0,0,1-.088-.07l.008-.01Zm2.006,0a.057.057,0,0,1,.07-.008l.01.008.12.12a.057.057,0,0,1-.07.088l-.01-.008-.12-.12a.057.057,0,0,1,0-.08Zm-.963-.31a.057.057,0,0,1,.055.045v.182a.057.057,0,0,1-.112.011v-.182a.057.057,0,0,1,.057-.057Zm-.792.06a.057.057,0,0,1,.088.07l-.008.01-.12.12a.057.057,0,0,1-.088-.07l.008-.01Zm1.5,0a.057.057,0,0,1,.07-.008l.01.008.12.12a.057.057,0,0,1-.07.088l-.01-.008-.12-.12a.057.057,0,0,1,0-.08Zm-1.254-.251a.057.057,0,0,1,.088.07l-.008.01-.12.12a.057.057,0,0,1-.088-.07l.008-.01Zm1,0a.057.057,0,0,1,.07-.008l.01.008.12.12a.057.057,0,0,1-.07.088l-.01-.008-.12-.12a.057.057,0,0,1,0-.08Zm-.461-.163a.057.057,0,0,1,.055.045v.181a.057.057,0,0,1-.112.011v-.181a.057.057,0,0,1,.057-.057Zm.211-.087a.057.057,0,0,1,.07-.008l.01.008.12.12a.057.057,0,0,1-.07.088l-.01-.008-.12-.12a.057.057,0,0,1,0-.08Zm-.5,0a.057.057,0,0,1,.088.07l-.008.01-.12.12a.057.057,0,0,1-.088-.07l.008-.01Zm.291-.437a.057.057,0,0,1,.055.045v.045l.023-.023a.057.057,0,0,1,.07-.008l.01.008a.057.057,0,0,1,.008.07l-.008.01L21.9,21.7h.033a.057.057,0,0,1,.055.045v.011a.057.057,0,0,1-.045.055H21.9l.024.023a.057.057,0,0,1,.008.07l-.008.01a.057.057,0,0,1-.07.008l-.01-.008-.024-.023v.033a.056.056,0,0,1-.045.055H21.76a.057.057,0,0,1-.055-.045v-.045l-.023.023a.057.057,0,0,1-.07.008l-.01-.008a.057.057,0,0,1-.008-.07l.008-.01.023-.024H21.59a.057.057,0,0,1-.055-.045v-.011a.057.057,0,0,1,.045-.055h.045l-.023-.023a.057.057,0,0,1-.008-.07l.008-.01a.057.057,0,0,1,.07-.008l.01.008.023.023v-.033a.057.057,0,0,1,.045-.055ZM1.549,21.7a.057.057,0,0,1,.011.112H1.379a.057.057,0,0,1-.011-.112h.181Zm30.664,0a.057.057,0,0,1,.011.112h-.181a.057.057,0,0,1-.011-.112h.181Zm-17.544,0a.057.057,0,0,1,.011.112H14.5a.057.057,0,0,1-.011-.112h.182Zm-.355,0a.057.057,0,0,1,.011.112h-.181a.057.057,0,0,1-.011-.112h.181Zm-.355,0a.057.057,0,0,1,.011.112h-.182a.057.057,0,0,1-.011-.112h.182Zm-.355,0a.057.057,0,0,1,.011.112h-.181a.057.057,0,0,1-.011-.112H13.6Zm-.355,0a.057.057,0,0,1,.011.112H13.08a.057.057,0,0,1-.011-.112h.182Zm-.355,0a.057.057,0,0,1,.011.112h-.181a.057.057,0,0,1-.011-.112H12.9Zm-.355,0a.057.057,0,0,1,.011.112h-.181a.057.057,0,0,1-.011-.112h.181Zm2.482,0a.057.057,0,0,1,.011.112h-.181a.057.057,0,0,1-.011-.112h.181Zm-2.837,0a.057.057,0,0,1,.011.112h-.181A.057.057,0,0,1,12,21.7h.181Zm-.355,0a.057.057,0,0,1,.011.112h-.181a.057.057,0,0,1-.011-.112h.181Zm-.355,0a.057.057,0,0,1,.011.112h-.182A.057.057,0,0,1,11.3,21.7h.182Zm-.355,0a.057.057,0,0,1,.011.112h-.181a.057.057,0,0,1-.011-.112h.181Zm-.355,0a.057.057,0,0,1,.011.112H10.6a.057.057,0,0,1-.011-.112h.182Zm9.219,0a.057.057,0,0,1,.011.112h-.182a.057.057,0,0,1-.011-.112h.182Zm-.355,0a.057.057,0,0,1,.011.112h-.182a.057.057,0,0,1-.011-.112h.182Zm-.355,0a.057.057,0,0,1,.011.112h-.181A.057.057,0,0,1,19.1,21.7h.181Zm-.355,0a.057.057,0,0,1,.011.112h-.182a.057.057,0,0,1-.011-.112h.182Zm-.355,0a.057.057,0,0,1,.011.112H18.4a.057.057,0,0,1-.011-.112h.181Zm-.355,0a.057.057,0,0,1,.011.112h-.181a.057.057,0,0,1-.011-.112h.181Zm-.355,0a.057.057,0,0,1,.011.112H17.69a.057.057,0,0,1-.011-.112h.181Zm-.355,0a.057.057,0,0,1,.011.112h-.181a.057.057,0,0,1-.011-.112h.181Zm-.355,0a.057.057,0,0,1,.011.112H16.98a.057.057,0,0,1-.011-.112h.182Zm-.355,0a.057.057,0,0,1,.011.112h-.181a.057.057,0,0,1-.011-.112H16.8Zm-.355,0a.057.057,0,0,1,.011.112h-.182a.057.057,0,0,1-.011-.112h.182Zm-.355,0a.057.057,0,0,1,.011.112h-.181a.057.057,0,0,1-.011-.112h.181Zm-.355,0a.057.057,0,0,1,.011.112h-.182a.057.057,0,0,1-.011-.112h.182Zm-.355,0a.057.057,0,0,1,.011.112h-.181A.057.057,0,0,1,15.2,21.7h.181Zm-4.964,0a.057.057,0,0,1,.011.112h-.181a.057.057,0,0,1-.011-.112h.181Zm9.928,0a.057.057,0,0,1,.011.112h-.182a.057.057,0,0,1-.011-.112h.182Zm.355,0a.057.057,0,0,1,.011.112h-.181a.057.057,0,0,1-.011-.112H20.7Zm-10.637,0a.057.057,0,0,1,.011.112H9.889a.057.057,0,0,1-.011-.112h.181Zm31.018,0a.057.057,0,0,1,.011.112h-.181A.057.057,0,0,1,40.9,21.7h.181Zm.355,0a.057.057,0,0,1,.011.112h-.182a.057.057,0,0,1-.011-.112h.182Zm.355,0a.057.057,0,0,1,.011.112h-.181A.057.057,0,0,1,41.6,21.7h.181Zm.355,0a.057.057,0,0,1,.011.112h-.181a.057.057,0,0,1-.011-.112h.181Zm-39.883,0a.057.057,0,0,1,.011.112H2.088a.057.057,0,0,1-.011-.112h.181Zm.355,0a.057.057,0,0,1,.011.112H2.443a.057.057,0,0,1-.011-.112h.182Zm.355,0a.057.057,0,0,1,.011.112H2.8a.057.057,0,0,1-.011-.112h.181Zm.355,0a.057.057,0,0,1,.011.112H3.152a.057.057,0,0,1-.011-.112h.182Zm.355,0a.057.057,0,0,1,.011.112H3.507A.057.057,0,0,1,3.5,21.7h.181Zm.355,0a.057.057,0,0,1,.011.112H3.861A.057.057,0,0,1,3.85,21.7h.181Zm.355,0a.057.057,0,0,1,.011.112H4.216A.057.057,0,0,1,4.2,21.7h.182Zm.355,0a.057.057,0,0,1,.011.112H4.57a.057.057,0,0,1-.011-.112H4.74Zm.355,0a.057.057,0,0,1,.011.112H4.925a.057.057,0,0,1-.011-.112h.182Zm.355,0a.057.057,0,0,1,.011.112H5.279a.057.057,0,0,1-.011-.112h.181Zm.355,0a.057.057,0,0,1,.011.112H5.634a.057.057,0,0,1-.011-.112H5.8Zm.355,0a.057.057,0,0,1,.011.112H5.989a.057.057,0,0,1-.011-.112h.181Zm.355,0a.057.057,0,0,1,.011.112H6.343a.057.057,0,0,1-.011-.112h.181Zm.355,0a.057.057,0,0,1,.011.112H6.7a.057.057,0,0,1-.011-.112h.181Zm.355,0a.057.057,0,0,1,.011.112H7.052a.057.057,0,0,1-.011-.112h.181Zm.355,0a.057.057,0,0,1,.011.112H7.407A.057.057,0,0,1,7.4,21.7h.182Zm.355,0a.057.057,0,0,1,.011.112H7.761A.057.057,0,0,1,7.75,21.7h.181Zm.355,0a.057.057,0,0,1,.011.112H8.116A.057.057,0,0,1,8.1,21.7h.182Zm.355,0a.057.057,0,0,1,.011.112H8.471a.057.057,0,0,1-.011-.112h.181ZM9,21.7a.057.057,0,0,1,.011.112H8.825a.057.057,0,0,1-.011-.112H9Zm13.289,0a.057.057,0,0,1,.011.112h-.181A.057.057,0,0,1,22.1,21.7h.181ZM9.7,21.7a.057.057,0,0,1,.011.112H9.534a.057.057,0,0,1-.011-.112H9.7Zm13.289,0a.057.057,0,0,1,.011.112h-.181a.057.057,0,0,1-.011-.112h.181Zm.355,0a.057.057,0,0,1,.011.112h-.181a.057.057,0,0,1-.011-.112h.181Zm.355,0a.057.057,0,0,1,.011.112h-.182a.057.057,0,0,1-.011-.112H23.7Zm.355,0a.057.057,0,0,1,.011.112h-.181a.057.057,0,0,1-.011-.112h.181Zm.355,0a.057.057,0,0,1,.011.112h-.182a.057.057,0,0,1-.011-.112h.182Zm.355,0a.057.057,0,0,1,.011.112H24.6a.057.057,0,0,1-.011-.112h.181Zm.355,0a.057.057,0,0,1,.011.112h-.181a.057.057,0,0,1-.011-.112h.181Zm.355,0a.057.057,0,0,1,.011.112h-.181a.057.057,0,0,1-.011-.112h.181Zm.355,0a.057.057,0,0,1,.011.112H25.66a.057.057,0,0,1-.011-.112h.181Zm.355,0a.057.057,0,0,1,.011.112h-.181A.057.057,0,0,1,26,21.7h.181Zm.355,0a.057.057,0,0,1,.011.112H26.37a.057.057,0,0,1-.011-.112h.181Zm.355,0a.057.057,0,0,1,.011.112h-.182a.057.057,0,0,1-.011-.112h.182Zm.355,0a.057.057,0,0,1,.011.112h-.181a.057.057,0,0,1-.011-.112h.181Zm.355,0a.057.057,0,0,1,.011.112h-.182a.057.057,0,0,1-.011-.112H27.6Zm.355,0a.057.057,0,0,1,.011.112h-.181a.057.057,0,0,1-.011-.112h.181Zm.355,0a.057.057,0,0,1,.011.112h-.181a.057.057,0,0,1-.011-.112h.181Zm.355,0a.057.057,0,0,1,.011.112H28.5a.057.057,0,0,1-.011-.112h.181Zm.355,0a.057.057,0,0,1,.011.112h-.181a.057.057,0,0,1-.011-.112h.181Zm.355,0a.057.057,0,0,1,.011.112h-.182a.057.057,0,0,1-.011-.112h.182Zm.355,0a.057.057,0,0,1,.011.112h-.181a.057.057,0,0,1-.011-.112h.181Zm.355,0a.057.057,0,0,1,.011.112h-.182A.057.057,0,0,1,29.9,21.7h.182Zm.355,0a.057.057,0,0,1,.011.112H30.27a.057.057,0,0,1-.011-.112h.181Zm10.283,0a.057.057,0,0,1,.011.112h-.182a.057.057,0,0,1-.011-.112h.182Zm-9.928,0a.057.057,0,0,1,.011.112h-.181a.057.057,0,0,1-.011-.112h.181Zm.355,0a.057.057,0,0,1,.011.112h-.181a.057.057,0,0,1-.011-.112h.181Zm.355,0a.057.057,0,0,1,.011.112h-.181a.057.057,0,0,1-.011-.112H31.5Zm.355,0a.057.057,0,0,1,.011.112h-.181a.057.057,0,0,1-.011-.112h.181Zm10.557,0a.057.057,0,0,1,.011.112h-.1a.057.057,0,0,1-.011-.112h.1Zm-9.848,0a.057.057,0,0,1,.011.112H32.4a.057.057,0,0,1-.011-.112h.182Zm.355,0a.057.057,0,0,1,.011.112h-.181a.057.057,0,0,1-.011-.112h.181Zm.355,0a.057.057,0,0,1,.011.112h-.182a.057.057,0,0,1-.011-.112h.182Zm.355,0a.057.057,0,0,1,.011.112h-.181a.057.057,0,0,1-.011-.112h.181Zm.355,0a.057.057,0,0,1,.011.112h-.181A.057.057,0,0,1,33.8,21.7h.181Zm.355,0a.057.057,0,0,1,.011.112H34.17a.057.057,0,0,1-.011-.112h.181Zm.355,0a.057.057,0,0,1,.011.112h-.181a.057.057,0,0,1-.011-.112h.181Zm.355,0a.057.057,0,0,1,.011.112h-.182a.057.057,0,0,1-.011-.112h.182Zm.355,0a.057.057,0,0,1,.011.112h-.181a.057.057,0,0,1-.011-.112H35.4Zm.355,0a.057.057,0,0,1,.011.112h-.182a.057.057,0,0,1-.011-.112h.182Zm.355,0a.057.057,0,0,1,.011.112h-.181a.057.057,0,0,1-.011-.112h.181Zm.355,0a.057.057,0,0,1,.011.112H36.3a.057.057,0,0,1-.011-.112h.181Zm.355,0a.057.057,0,0,1,.011.112h-.181a.057.057,0,0,1-.011-.112h.181Zm.355,0a.057.057,0,0,1,.011.112h-.181A.057.057,0,0,1,37,21.7h.181Zm.355,0a.057.057,0,0,1,.011.112h-.181a.057.057,0,0,1-.011-.112h.181Zm-14.892,0a.057.057,0,0,1,.011.112h-.181a.057.057,0,0,1-.011-.112h.181Zm15.247,0a.057.057,0,0,1,.011.112h-.181A.057.057,0,0,1,37.7,21.7h.181Zm.355,0a.057.057,0,0,1,.011.112H38.07a.057.057,0,0,1-.011-.112h.182Zm.355,0a.057.057,0,0,1,.011.112h-.181a.057.057,0,0,1-.011-.112H38.6Zm.355,0a.057.057,0,0,1,.011.112H38.78a.057.057,0,0,1-.011-.112h.182Zm.355,0a.057.057,0,0,1,.011.112h-.181a.057.057,0,0,1-.011-.112H39.3Zm.355,0a.057.057,0,0,1,.011.112h-.181a.057.057,0,0,1-.011-.112h.181Zm.355,0a.057.057,0,0,1,.011.112h-.181a.057.057,0,0,1-.011-.112h.181Zm.355,0a.057.057,0,0,1,.011.112H40.2a.057.057,0,0,1-.011-.112h.181Zm-39.173,0a.057.057,0,0,1,.011.112H1.1a.057.057,0,0,1-.011-.112h.1Zm20.211,0a.057.057,0,0,1,.011.112h-.181a.057.057,0,0,1-.011-.112h.181Zm-.355,0a.057.057,0,0,1,.011.112h-.181a.057.057,0,0,1-.011-.112h.181ZM1.9,21.7a.057.057,0,0,1,.011.112H1.734a.057.057,0,0,1-.011-.112H1.9Zm7.446,0a.057.057,0,0,1,.011.112H9.18a.057.057,0,0,1-.011-.112H9.35Zm12.741-.354a.057.057,0,0,1,.088.07l-.008.01-.12.12a.057.057,0,0,1-.088-.07l.008-.01Zm-.742,0a.057.057,0,0,1,.07-.008l.01.008.12.12a.057.057,0,0,1-.07.088l-.01-.008-.12-.12a.057.057,0,0,1,0-.08Zm.411-.17a.057.057,0,0,1,.055.045V21.4a.057.057,0,0,1-.112.011v-.181a.057.057,0,0,1,.057-.057Zm.581-.08a.057.057,0,0,1,.088.07l-.008.01-.12.12a.057.057,0,0,1-.088-.07l.008-.01Zm-1.243,0a.057.057,0,0,1,.07-.008l.01.008.12.12a.057.057,0,0,1-.07.088l-.01-.008-.12-.12a.057.057,0,0,1,0-.08Zm.662-.274a.057.057,0,0,1,.055.045v.182a.057.057,0,0,1-.112.011v-.182a.057.057,0,0,1,.057-.057Zm-.912.023a.057.057,0,0,1,.07-.008l.01.008.12.12a.057.057,0,0,1-.07.088l-.01-.008-.12-.12a.057.057,0,0,1,0-.08Zm1.745,0a.057.057,0,0,1,.088.07l-.008.01-.12.12a.057.057,0,0,1-.088-.07l.008-.01Zm.251-.251a.057.057,0,0,1,.088.07l-.008.01-.12.12a.057.057,0,0,1-.088-.07l.008-.01Zm-2.246,0a.057.057,0,0,1,.07-.008l.01.008.12.12a.057.057,0,0,1-.07.088l-.01-.008-.12-.12a.057.057,0,0,1,0-.08Zm1.163-.127a.057.057,0,0,1,.055.045v.181a.057.057,0,0,1-.112.011v-.181a.057.057,0,0,1,.057-.057Zm-1.414-.123a.057.057,0,0,1,.07-.008l.01.008.12.12a.057.057,0,0,1-.07.088l-.01-.008-.12-.12a.057.057,0,0,1,0-.08Zm2.748,0a.057.057,0,0,1,.088.07l-.008.01-.12.12a.057.057,0,0,1-.088-.07l.008-.01Zm-1.334-.231a.057.057,0,0,1,.055.045v.182a.057.057,0,0,1-.112.011v-.181A.057.057,0,0,1,21.76,20.112Zm1.585-.02a.057.057,0,0,1,.088.07l-.008.01-.12.12a.057.057,0,0,1-.088-.07l.008-.01Zm-3.249,0a.057.057,0,0,1,.07-.008l.01.008.12.12a.057.057,0,0,1-.07.088l-.01-.008-.12-.12a.057.057,0,0,1,0-.08Zm3.5-.251a.057.057,0,0,1,.088.07l-.008.01-.12.12a.057.057,0,0,1-.088-.07l.008-.01Zm-3.751,0a.057.057,0,0,1,.07-.008l.01.008.12.12a.057.057,0,0,1-.07.088l-.01-.008-.12-.12a.057.057,0,0,1,0-.08Zm1.915-.084a.057.057,0,0,1,.055.045v.181A.057.057,0,0,1,21.7,20v-.181A.057.057,0,0,1,21.76,19.758Zm-2.166-.167a.057.057,0,0,1,.07-.008l.01.008.12.12a.057.057,0,0,1-.07.088l-.01-.008-.12-.12a.057.057,0,0,1,0-.08Zm4.252,0a.057.057,0,0,1,.088.07l-.008.01-.12.12a.057.057,0,0,1-.088-.07l.008-.01ZM21.76,19.4a.057.057,0,0,1,.055.045v.181a.057.057,0,0,1-.112.011V19.46A.057.057,0,0,1,21.76,19.4Zm-2.417-.063a.057.057,0,0,1,.07-.008l.01.008.12.12a.057.057,0,0,1-.07.088l-.01-.008-.12-.12a.057.057,0,0,1,0-.08Zm4.753,0a.057.057,0,0,1,.088.07l-.008.01-.12.12a.057.057,0,0,1-.088-.07l.008-.01Zm-2.337-.292a.057.057,0,0,1,.055.045v.181a.057.057,0,0,1-.112.011v-.181a.057.057,0,0,1,.057-.057Zm-2.667.041a.057.057,0,0,1,.07-.008l.01.008.12.12a.057.057,0,0,1-.07.088l-.01-.008-.12-.12a.057.057,0,0,1,0-.08Zm5.255,0a.057.057,0,0,1,.088.07l-.008.01-.12.12a.057.057,0,0,1-.088-.07l.008-.01Zm.251-.251a.057.057,0,0,1,.088.07l-.008.01-.12.12a.057.057,0,0,1-.088-.07l.008-.01Zm-5.756,0a.057.057,0,0,1,.07-.008l.01.008.12.12a.057.057,0,0,1-.07.088l-.01-.008-.12-.12a.057.057,0,0,1,0-.08Zm2.918-.145a.057.057,0,0,1,.055.045v.181a.057.057,0,0,1-.112.011v-.181A.057.057,0,0,1,21.76,18.694Zm-3.169-.106a.057.057,0,0,1,.07-.008l.01.008.12.12a.057.057,0,0,1-.07.088l-.01-.008-.12-.12a.057.057,0,0,1,0-.08Zm6.258,0a.057.057,0,0,1,.088.07l-.008.01-.12.12a.057.057,0,0,1-.088-.07l.008-.01Zm-3.089-.249a.057.057,0,0,1,.055.045v.182a.057.057,0,0,1-.112.011V18.4a.057.057,0,0,1,.057-.057Zm-3.42,0a.057.057,0,0,1,.07-.008l.01.008.12.12a.057.057,0,0,1-.07.088l-.01-.008-.12-.12a.057.057,0,0,1,0-.08Zm6.759,0a.057.057,0,0,1,.088.07l-.008.01-.12.12a.057.057,0,0,1-.088-.07l.008-.01Zm-7.01-.251a.057.057,0,0,1,.07-.008l.01.008.12.12a.057.057,0,0,1-.07.088l-.01-.008-.12-.12a.057.057,0,0,1,0-.08Zm7.261,0a.057.057,0,0,1,.088.07l-.008.01-.12.12a.057.057,0,0,1-.088-.07l.008-.01Zm-3.59-.1a.057.057,0,0,1,.055.045v.181a.057.057,0,0,1-.112.011v-.181a.057.057,0,0,1,.057-.057Zm-3.921-.148a.057.057,0,0,1,.07-.008l.01.008.12.12a.057.057,0,0,1-.07.088l-.01-.008-.12-.12a.057.057,0,0,1,0-.08Zm7.762,0a.057.057,0,0,1,.088.07l-.008.01-.12.12a.057.057,0,0,1-.088-.07l.008-.01ZM21.76,17.63a.057.057,0,0,1,.055.045v.182a.057.057,0,0,1-.112.011v-.182a.057.057,0,0,1,.057-.057Zm4.092-.045a.057.057,0,0,1,.088.07l-.008.01-.12.12a.057.057,0,0,1-.088-.07l.008-.01Zm-8.264,0a.057.057,0,0,1,.07-.008l.01.008.12.12a.057.057,0,0,1-.07.088l-.01-.008-.12-.12a.057.057,0,0,1,0-.08Zm4.172-.31a.057.057,0,0,1,.055.045V17.5a.057.057,0,0,1-.112.011v-.181a.057.057,0,0,1,.057-.057Zm-4.423.059a.057.057,0,0,1,.07-.008l.01.008.12.12a.057.057,0,0,1-.07.088l-.01-.008-.12-.12a.057.057,0,0,1,0-.08Zm8.765,0a.057.057,0,0,1,.088.07l-.008.01-.12.12a.057.057,0,0,1-.088-.07l.008-.01Zm-9.016-.251a.057.057,0,0,1,.07-.008l.01.008.12.12a.057.057,0,0,1-.07.088l-.01-.008-.12-.12a.057.057,0,0,1,0-.08Zm9.266,0a.057.057,0,0,1,.088.07l-.008.01-.12.12a.057.057,0,0,1-.088-.07l.008-.01Zm-4.593-.163a.057.057,0,0,1,.055.045v.181a.057.057,0,0,1-.112.011v-.181a.057.057,0,0,1,.057-.057Zm4.844-.088a.057.057,0,0,1,.088.07l-.008.01-.12.12a.057.057,0,0,1-.088-.07l.008-.01Zm-9.768,0a.057.057,0,0,1,.07-.008l.01.008.12.12a.057.057,0,0,1-.07.088l-.01-.008-.12-.12a.057.057,0,0,1,0-.08Zm4.924-.267a.057.057,0,0,1,.055.045v.181a.057.057,0,0,1-.112.011v-.181a.057.057,0,0,1,.057-.057Zm5.095.016a.057.057,0,0,1,.088.07l-.008.01-.12.12a.057.057,0,0,1-.088-.07l.008-.01Zm-10.269,0a.057.057,0,0,1,.07-.008l.01.008.12.12a.057.057,0,0,1-.07.088l-.01-.008-.12-.12a.057.057,0,0,1,0-.08Zm10.52-.251a.057.057,0,0,1,.088.07l-.008.01-.12.12a.057.057,0,0,1-.088-.07l.008-.01Zm-10.771,0a.057.057,0,0,1,.07-.008l.01.008.12.12a.057.057,0,0,1-.07.088l-.01-.008-.12-.12a.057.057,0,0,1,0-.08Zm5.425-.12a.057.057,0,0,1,.055.045v.181a.057.057,0,0,1-.112.011v-.181a.057.057,0,0,1,.057-.057Zm5.6-.131a.057.057,0,0,1,.088.07l-.008.01-.12.12a.057.057,0,0,1-.088-.07l.008-.01Zm-11.272,0a.057.057,0,0,1,.07-.008l.01.008.12.12a.057.057,0,0,1-.07.088l-.01-.008-.12-.12a.057.057,0,0,1,0-.08Zm5.676-.224a.057.057,0,0,1,.055.045v.182a.057.057,0,0,1-.112.011v-.182a.057.057,0,0,1,.057-.057Zm5.847-.027a.057.057,0,0,1,.088.07l-.008.01-.12.12a.057.057,0,0,1-.088-.07l.008-.01Zm-11.774,0a.057.057,0,0,1,.07-.008l.01.008.12.12a.057.057,0,0,1-.07.088l-.01-.008-.12-.12a.057.057,0,0,1,0-.08Zm12.024-.251a.057.057,0,0,1,.088.07l-.008.01-.12.12a.057.057,0,0,1-.088-.07l.008-.01Zm-12.275,0a.057.057,0,0,1,.07-.008l.01.008.12.12a.057.057,0,0,1-.07.088l-.01-.008-.12-.12a.057.057,0,0,1,0-.08ZM21.76,15.5a.056.056,0,0,1,.055.045v.181a.057.057,0,0,1-.112.011v-.181a.057.057,0,0,1,.057-.057Zm6.348-.174a.057.057,0,0,1,.088.07l-.008.01-.12.12a.057.057,0,0,1-.088-.07l.008-.01Zm-12.777,0a.057.057,0,0,1,.07-.008l.01.008.12.12a.057.057,0,0,1-.07.088l-.01-.008-.12-.12a.057.057,0,0,1,0-.08Zm6.428-.181a.057.057,0,0,1,.055.045v.182a.057.057,0,0,1-.112.011V15.2a.057.057,0,0,1,.057-.057Zm-6.679-.07a.057.057,0,0,1,.07-.008l.01.008.12.12a.057.057,0,0,1-.07.088l-.01-.008-.12-.12a.057.057,0,0,1,0-.08Zm13.278,0a.057.057,0,0,1,.088.07l-.008.01-.12.12a.057.057,0,0,1-.088-.07l.008-.01Zm-6.6-.284a.057.057,0,0,1,.055.045v.181a.057.057,0,0,1-.112.011V14.85a.057.057,0,0,1,.057-.057Zm6.85.034a.057.057,0,0,1,.088.07l-.008.01-.12.12a.057.057,0,0,1-.088-.07l.008-.01Zm-13.78,0a.057.057,0,0,1,.07-.008l.01.008.12.12a.057.057,0,0,1-.07.088l-.01-.008-.12-.12a.057.057,0,0,1,0-.08Zm-.251-.251a.057.057,0,0,1,.07-.008l.01.008.12.12a.057.057,0,0,1-.07.088l-.01-.008-.12-.12a.057.057,0,0,1,0-.08Zm14.281,0a.057.057,0,0,1,.088.07l-.008.01-.12.12a.057.057,0,0,1-.088-.07l.008-.01Zm-7.1-.138a.057.057,0,0,1,.055.045v.182a.057.057,0,0,1-.112.011V14.5a.057.057,0,0,1,.057-.057Zm7.351-.113a.057.057,0,0,1,.088.07l-.008.01-.12.12a.057.057,0,0,1-.088-.07l.008-.01Zm-14.782,0a.057.057,0,0,1,.07-.008l.01.008.12.12a.057.057,0,0,1-.07.088l-.01-.008-.12-.12a.057.057,0,0,1,0-.08Zm7.431-.241a.057.057,0,0,1,.055.045v.181a.057.057,0,0,1-.112.011v-.181a.057.057,0,0,1,.057-.057Zm-7.682-.009a.057.057,0,0,1,.07-.008l.01.008.12.12a.057.057,0,0,1-.07.088l-.01-.008-.12-.12a.057.057,0,0,1,0-.08Zm15.284,0a.057.057,0,0,1,.088.07l-.008.01-.12.12a.057.057,0,0,1-.088-.07l.008-.01Zm-15.535-.251a.057.057,0,0,1,.07-.008l.01.008.12.12a.057.057,0,0,1-.07.088l-.01-.008-.12-.12a.057.057,0,0,1,0-.08Zm15.785,0a.057.057,0,0,1,.088.07l-.008.01-.12.12a.057.057,0,0,1-.088-.07l.008-.01ZM21.76,13.73a.057.057,0,0,1,.055.045v.181a.057.057,0,0,1-.112.011v-.181a.057.057,0,0,1,.057-.057Zm8.1-.156a.057.057,0,0,1,.088.07l-.008.01-.12.12a.057.057,0,0,1-.088-.07l.008-.01Zm-16.287,0a.057.057,0,0,1,.07-.008l.01.008.12.12a.057.057,0,0,1-.07.088l-.01-.008-.12-.12a.057.057,0,0,1,0-.08Zm8.183-.2a.057.057,0,0,1,.055.045V13.6a.057.057,0,0,1-.112.011v-.181a.057.057,0,0,1,.057-.057Zm-8.434-.052a.057.057,0,0,1,.07-.008l.01.008.12.12a.057.057,0,0,1-.07.088l-.01-.008-.12-.12a.057.057,0,0,1,0-.08Zm16.788,0a.057.057,0,0,1,.088.07l-.008.01-.12.12a.057.057,0,0,1-.088-.07l.008-.01Zm-8.354-.3a.057.057,0,0,1,.055.045v.181a.057.057,0,0,1-.112.011v-.181a.057.057,0,0,1,.057-.057Zm8.6.052a.057.057,0,0,1,.088.07l-.008.01-.12.12a.057.057,0,0,1-.088-.07l.008-.01Zm-17.29,0a.057.057,0,0,1,.07-.008l.01.008.12.12a.057.057,0,0,1-.07.088l-.01-.008-.12-.12a.057.057,0,0,1,0-.08Zm-.251-.251a.057.057,0,0,1,.07-.008l.01.008.12.12a.057.057,0,0,1-.07.088l-.01-.008-.12-.12a.057.057,0,0,1,0-.08Zm17.791,0a.057.057,0,0,1,.088.07l-.008.01-.12.12a.057.057,0,0,1-.088-.07l.008-.01Zm-8.855-.155a.057.057,0,0,1,.055.045v.182a.057.057,0,0,1-.112.011v-.182a.057.057,0,0,1,.057-.057Zm9.106-.1a.057.057,0,0,1,.088.07l-.008.01-.12.12a.057.057,0,0,1-.088-.07l.008-.01Zm-18.293,0a.057.057,0,0,1,.07-.008l.01.008.12.12a.057.057,0,0,1-.07.088l-.01-.008-.12-.12a.057.057,0,0,1,0-.08Zm9.186-.259a.057.057,0,0,1,.055.045v.181a.057.057,0,0,1-.112.011v-.181a.057.057,0,0,1,.057-.057Zm9.357.009a.057.057,0,0,1,.088.07l-.008.01-.12.12a.057.057,0,0,1-.088-.07L31,12.44Zm-18.794,0a.057.057,0,0,1,.07-.008l.01.008.12.12a.057.057,0,0,1-.07.088l-.01-.008-.12-.12a.057.057,0,0,1,0-.08Zm19.045-.251a.057.057,0,0,1,.088.07l-.008.01-.12.12a.057.057,0,0,1-.088-.07l.008-.01Zm-19.3,0a.057.057,0,0,1,.07-.008l.01.008.12.12a.057.057,0,0,1-.07.088l-.01-.008-.12-.12a.057.057,0,0,1,0-.08Zm9.688-.112a.057.057,0,0,1,.055.045v.182a.057.057,0,0,1-.112.011v-.182a.057.057,0,0,1,.057-.057Zm9.858-.138a.057.057,0,0,1,.088.07l-.008.01-.12.12a.057.057,0,0,1-.088-.07l.008-.01Zm-19.8,0a.057.057,0,0,1,.07-.008l.01.008.12.12a.057.057,0,0,1-.07.088l-.01-.008-.12-.12a.057.057,0,0,1,0-.08ZM21.76,11.6a.057.057,0,0,1,.055.045v.181a.057.057,0,0,1-.112.011v-.181a.057.057,0,0,1,.057-.057Zm-10.189-.034a.057.057,0,0,1,.07-.008l.01.008.12.12a.057.057,0,0,1-.07.088l-.01-.008-.12-.12a.057.057,0,0,1,0-.08Zm20.3,0a.057.057,0,0,1,.088.07l-.008.01-.12.12a.057.057,0,0,1-.088-.07l.008-.01Zm.251-.251a.057.057,0,0,1,.088.07l-.008.01-.12.12a.057.057,0,0,1-.088-.07l.008-.01Zm-20.8,0a.057.057,0,0,1,.07-.008l.01.008.12.12a.057.057,0,0,1-.07.088l-.01-.008-.12-.12a.057.057,0,0,1,0-.08Zm10.44-.069a.057.057,0,0,1,.055.045v.181a.057.057,0,0,1-.112.011V11.3a.057.057,0,0,1,.057-.057Zm10.611-.181a.057.057,0,0,1,.088.07l-.008.01-.12.12a.057.057,0,0,1-.088-.07l.008-.01Zm-21.3,0a.057.057,0,0,1,.07-.008l.01.008.12.12a.057.057,0,0,1-.07.088l-.01-.008-.12-.12a.057.057,0,0,1,0-.08Zm10.691-.173a.057.057,0,0,1,.055.045v.182a.057.057,0,0,1-.112.011V10.95a.057.057,0,0,1,.057-.057Zm10.861-.077a.057.057,0,0,1,.088.07l-.008.01-.12.12a.057.057,0,0,1-.088-.07l.008-.01Zm-21.8,0a.057.057,0,0,1,.07-.008l.01.008.12.12a.057.057,0,0,1-.07.088l-.01-.008-.12-.12a.057.057,0,0,1,0-.08Zm10.941-.277a.057.057,0,0,1,.055.045v.181a.057.057,0,0,1-.112.011V10.6a.057.057,0,0,1,.057-.057Zm-11.192.026a.057.057,0,0,1,.07-.008l.01.008.12.12a.057.057,0,0,1-.07.088l-.01-.008-.12-.12a.057.057,0,0,1,0-.08Zm22.3,0a.057.057,0,0,1,.088.07l-.008.01-.12.12a.057.057,0,0,1-.088-.07l.008-.01Zm-22.555-.25a.057.057,0,0,1,.07-.008l.01.008.12.12a.057.057,0,0,1-.07.088l-.01-.008-.12-.12a.057.057,0,0,1,0-.08Zm22.806,0a.057.057,0,0,1,.088.07l-.008.01-.12.12a.057.057,0,0,1-.088-.07l.008-.01ZM21.76,10.184a.057.057,0,0,1,.055.045v.182a.057.057,0,0,1-.112.011V10.24a.057.057,0,0,1,.057-.057Zm-11.694-.12a.057.057,0,0,1,.07-.008l.01.008.12.12a.057.057,0,0,1-.07.088l-.01-.008-.12-.12a.057.057,0,0,1,0-.08Zm23.307,0a.057.057,0,0,1,.088.07l-.008.01-.12.12a.057.057,0,0,1-.088-.07l.008-.01ZM21.76,9.829a.057.057,0,0,1,.055.045v.181a.057.057,0,0,1-.112.011V9.886a.057.057,0,0,1,.057-.057ZM9.816,9.813a.057.057,0,0,1,.07-.008l.01.008.12.12a.057.057,0,0,1-.07.088l-.01-.008-.12-.12a.057.057,0,0,1,0-.08Zm23.808,0a.057.057,0,0,1,.088.07l-.008.01-.12.12a.057.057,0,0,1-.088-.07l.008-.01ZM9.565,9.562a.057.057,0,0,1,.07-.008l.01.008.12.12a.057.057,0,0,1-.07.088l-.01-.008-.12-.12a.057.057,0,0,1,0-.08Zm24.31,0a.057.057,0,0,1,.088.07l-.008.01-.12.12a.057.057,0,0,1-.088-.07l.008-.01ZM21.76,9.475a.057.057,0,0,1,.055.045V9.7a.057.057,0,0,1-.112.011V9.531a.057.057,0,0,1,.057-.057ZM9.314,9.311a.057.057,0,0,1,.07-.008l.01.008.12.12a.057.057,0,0,1-.07.088l-.01-.008-.12-.12a.057.057,0,0,1,0-.08Zm24.811,0a.057.057,0,0,1,.088.07l-.008.01-.12.12A.057.057,0,0,1,34,9.442l.008-.01ZM21.76,9.12a.057.057,0,0,1,.055.045v.181a.057.057,0,0,1-.112.011V9.177a.057.057,0,0,1,.057-.057Zm-12.7-.06a.057.057,0,0,1,.07-.008l.01.008.12.12a.057.057,0,0,1-.07.088l-.01-.008-.12-.12a.057.057,0,0,1,0-.08Zm25.313,0a.057.057,0,0,1,.088.07l-.008.01-.12.12a.057.057,0,0,1-.088-.07l.008-.01ZM21.76,8.766a.057.057,0,0,1,.055.045v.182A.057.057,0,0,1,21.7,9V8.822a.057.057,0,0,1,.057-.057ZM8.813,8.81a.057.057,0,0,1,.07-.008l.01.008.12.12a.057.057,0,0,1-.07.088l-.01-.008-.12-.12a.057.057,0,0,1,0-.08Zm25.814,0a.057.057,0,0,1,.088.07l-.008.01-.12.12a.057.057,0,0,1-.088-.07l.008-.01Zm.251-.251a.057.057,0,0,1,.088.07l-.008.01-.12.12a.057.057,0,0,1-.088-.07l.008-.01Zm-26.316,0a.057.057,0,0,1,.07-.008l.01.008.12.12a.057.057,0,0,1-.07.088l-.01-.008-.12-.12a.057.057,0,0,1,0-.08Zm13.2-.148a.057.057,0,0,1,.055.045v.181a.057.057,0,0,1-.112.011V8.468a.057.057,0,0,1,.057-.057Zm-13.449-.1a.057.057,0,0,1,.07-.008l.01.008.12.12a.057.057,0,0,1-.07.088l-.01-.008-.12-.12a.057.057,0,0,1,0-.08Zm26.817,0a.057.057,0,0,1,.088.07l-.008.01-.12.12A.057.057,0,0,1,35,8.439l.008-.01ZM21.76,8.056a.057.057,0,0,1,.055.045v.181a.057.057,0,0,1-.112.011V8.113a.057.057,0,0,1,.057-.057Zm-13.7,0a.057.057,0,0,1,.07-.008l.01.008.12.12a.057.057,0,0,1-.07.088l-.01-.008-.12-.12a.057.057,0,0,1,0-.08Zm27.319,0a.057.057,0,0,1,.088.07l-.008.01-.12.12a.057.057,0,0,1-.088-.07l.008-.01Zm.251-.251a.057.057,0,0,1,.088.07l-.008.01-.12.12a.057.057,0,0,1-.088-.07l.008-.01Zm-27.82,0A.057.057,0,0,1,7.88,7.8l.01.008.12.12a.057.057,0,0,1-.07.088l-.01-.008-.12-.12a.057.057,0,0,1,0-.08ZM21.76,7.7a.057.057,0,0,1,.055.045v.181a.057.057,0,0,1-.112.011V7.759A.057.057,0,0,1,21.76,7.7Zm-14.2-.146a.057.057,0,0,1,.07-.008l.01.008.12.12a.057.057,0,0,1-.07.088l-.01-.008-.12-.12a.057.057,0,0,1,0-.08Zm28.321,0a.057.057,0,0,1,.088.07l-.008.01-.12.12a.057.057,0,0,1-.088-.07l.008-.01ZM21.76,7.347a.056.056,0,0,1,.055.045v.181a.057.057,0,0,1-.112.011V7.4a.057.057,0,0,1,.057-.057ZM7.308,7.306a.057.057,0,0,1,.07-.008l.01.008.12.12a.057.057,0,0,1-.07.088l-.01-.008-.12-.12a.057.057,0,0,1,0-.08Zm28.823,0a.057.057,0,0,1,.088.07l-.008.01-.12.12A.057.057,0,0,1,36,7.436l.008-.01ZM21.76,6.993a.057.057,0,0,1,.055.045V7.22a.057.057,0,0,1-.112.011V7.049A.057.057,0,0,1,21.76,6.993ZM7.115,7.112a.057.057,0,0,1,.07-.008l.01.008.063.063a.057.057,0,0,1-.07.088l-.01-.008-.063-.063a.057.057,0,0,1,0-.08Zm29.21,0a.057.057,0,0,1,.088.07l-.008.01-.063.063a.057.057,0,0,1-.088-.07l.008-.01ZM21.76,6.638a.057.057,0,0,1,.055.045v.181a.057.057,0,0,1-.112.011V6.695A.057.057,0,0,1,21.76,6.638Zm0-.355a.057.057,0,0,1,.055.045V6.51a.057.057,0,0,1-.112.011V6.34A.057.057,0,0,1,21.76,6.284Zm0-.355a.057.057,0,0,1,.055.045v.181a.057.057,0,0,1-.112.011V5.986A.057.057,0,0,1,21.76,5.929Zm0-.355a.057.057,0,0,1,.055.045V5.8a.057.057,0,0,1-.112.011V5.631A.057.057,0,0,1,21.76,5.574Zm0-.355a.057.057,0,0,1,.055.045v.181a.057.057,0,0,1-.112.011V5.277A.057.057,0,0,1,21.76,5.22Zm0-.355a.057.057,0,0,1,.055.045v.181A.057.057,0,0,1,21.7,5.1V4.922a.057.057,0,0,1,.057-.057Zm0-.355a.057.057,0,0,1,.055.045v.182a.057.057,0,0,1-.112.011V4.567A.057.057,0,0,1,21.76,4.511Zm0-.355a.057.057,0,0,1,.055.045v.181a.057.057,0,0,1-.112.011V4.213A.057.057,0,0,1,21.76,4.156Zm0-.355a.057.057,0,0,1,.055.045v.182a.057.057,0,0,1-.112.011V3.858A.057.057,0,0,1,21.76,3.8Zm0-.355a.057.057,0,0,1,.055.045v.181a.057.057,0,0,1-.112.011V3.5A.057.057,0,0,1,21.76,3.447Zm0-.355a.057.057,0,0,1,.055.045v.182a.057.057,0,0,1-.112.011V3.149A.057.057,0,0,1,21.76,3.092Zm0-.355a.057.057,0,0,1,.055.045v.181a.057.057,0,0,1-.112.011V2.795a.057.057,0,0,1,.057-.057Zm0-.355a.057.057,0,0,1,.055.045V2.61a.057.057,0,0,1-.112.011V2.44a.057.057,0,0,1,.057-.057Zm0-.355a.057.057,0,0,1,.055.045v.181a.057.057,0,0,1-.112.011V2.085a.057.057,0,0,1,.057-.057Zm0-.355a.057.057,0,0,1,.055.045V1.9a.057.057,0,0,1-.112.011V1.731a.057.057,0,0,1,.057-.057Zm0-.355a.057.057,0,0,1,.055.045v.182a.057.057,0,0,1-.112.011V1.376a.057.057,0,0,1,.057-.057Zm0-.275a.057.057,0,0,1,.055.045v.1A.057.057,0,0,1,21.7,1.2V1.1A.057.057,0,0,1,21.76,1.045Z" transform="translate(-0.876 -0.875)" fill="#858585"></path><path id="Path_57" data-name="Path 57" d="M45.181,61.327l.2.01.081,0,.006.113-.086,0-.2-.01Zm.631-.012.006.113-.283.015-.006-.113Zm-.985-.006.283.015-.006.113-.283-.015Zm1.339-.012.006.113-.283.015-.006-.113Zm-1.694-.006.283.015-.006.113-.283-.015Zm2.048-.012.006.113-.283.015-.006-.113Zm-2.4-.006.283.015L44.4,61.4l-.283-.015Zm2.756-.012.006.113-.283.014-.006-.113Zm-3.11-.006.283.015-.006.113-.283-.015Zm3.456-.029.018.112-.174.027-.113.006-.006-.113.107-.005Zm-3.8-.019.28.045-.018.112-.28-.045Zm4.151-.037.018.112-.28.045-.018-.112Zm-4.5-.019.28.045-.018.112-.28-.045Zm4.852-.037.018.112-.28.045-.018-.112Zm-5.2-.019.28.045-.018.112-.28-.045Zm5.552-.037.018.112-.28.045-.018-.112Zm-5.9-.019.28.045-.018.112-.28-.045ZM48.622,61l.018.112-.28.045-.018-.112Zm-6.6-.019.28.045-.018.112L42,61.1Zm6.942-.061.029.109-.274.072-.029-.11Zm-7.278-.031.274.072-.029.11L41.653,61Zm7.621-.059.029.11-.274.072-.029-.11ZM41.34,60.8l.274.072-.029.11-.274-.072Zm8.307-.06.029.11-.274.072-.029-.11ZM41,60.71l.274.072-.029.11-.274-.072Zm8.992-.06.029.11-.274.072-.029-.11Zm-9.335-.031.274.072L40.9,60.8l-.274-.072Zm9.678-.059.029.11-.274.072-.029-.11Zm-10.011-.042.11.042.154.041-.029.109-.16-.043-.115-.044Zm10.336-.083.04.106-.265.1-.041-.106ZM39.99,60.391l.265.1-.041.106-.265-.1Zm11-.083.04.106-.265.1-.041-.106Zm-11.33-.044.265.1-.04.106-.265-.1Zm11.661-.083.041.106-.265.1-.04-.106Zm-11.992-.044.265.1-.04.106-.265-.1Zm12.323-.083.041.106-.265.1-.04-.106ZM39,60.011l.265.1-.04.106-.265-.1Zm12.976-.09.051.1-.088.044-.179.069-.04-.106.173-.066ZM38.68,59.866l.186.095.065.025-.041.106-.053-.02-.017-.007-.191-.1Zm13.609-.105.051.1-.253.128-.051-.1ZM38.364,59.7l.253.128-.051.1-.253-.128ZM52.6,59.6l.051.1-.253.128-.051-.1Zm-14.557-.055.253.129-.051.1L38,59.645Zm14.873-.105.051.1-.253.128-.051-.1Zm-15.189-.055.253.128-.052.1-.253-.128Zm15.505-.105.051.1-.253.128-.051-.1Zm-15.821-.055.253.128-.051.1-.253-.128ZM53.538,59.1l.062.095-.161.1-.087.044-.051-.1.082-.041Zm-16.417-.067.237.155-.062.095-.237-.155Zm16.714-.127L53.9,59l-.238.155-.062-.095Zm-17.011-.067.238.155L37,59.093l-.237-.155Zm17.308-.127.062.095-.237.155-.062-.1Zm-17.6-.067.237.155L36.7,58.9l-.237-.155Zm17.9-.127.062.095-.237.155-.062-.095Zm-18.2-.067.237.155-.062.095-.237-.155Zm18.5-.127.062.095-.237.155-.062-.095Zm-18.793-.067.237.155-.062.095-.237-.155ZM55,58.116l.071.088-.221.178-.071-.088Zm-19.337-.077.22.178-.071.088-.221-.178Zm19.613-.146.071.088-.221.178-.071-.088Zm-19.889-.077.22.178-.071.088-.221-.178Zm20.165-.146.071.088-.221.178-.071-.088Zm-20.441-.077.22.178-.071.088-.221-.178Zm20.717-.146.071.088-.221.178-.071-.088Zm-20.992-.077.22.178-.071.088-.221-.178Zm21.268-.146.071.088-.221.178-.071-.088Zm-21.53-.083.09.091.116.094-.071.088-.121-.1-.095-.095Zm21.776-.164.08.08-.2.2-.08-.08Zm-22.026-.086.2.2-.08.08-.2-.2ZM56.6,56.727l.08.08-.2.2-.08-.08ZM34.074,56.64l.2.2-.08.08-.2-.2Zm11.072.1.22.012.057,0,.006.113-.057,0h-.007l-.226-.011Zm.631-.009.006.113-.283.015-.006-.113Zm-.985-.009.283.015-.006.113-.283-.015Zm1.339-.009.006.113-.283.015-.006-.113Zm-1.694-.009.283.015-.006.113-.283-.015Zm2.048-.01.006.113-.283.015-.006-.113Zm-2.4-.017.085.014.191.01-.006.113-.2-.01-.091-.014Zm2.74-.028.017.112-.28.044-.017-.112Zm-3.091-.026.28.044L44,56.78l-.28-.044Zm13.113-.148.08.08-.2.2-.08-.08Zm-9.671.12.017.112-.28.044-.017-.112Zm-3.792-.026.28.044-.017.112-.28-.044Zm4.142-.028.017.112-.28.043-.017-.112Zm-4.492-.026.28.044-.017.112-.28-.044Zm-9.216-.126.2.2-.08.08-.2-.2Zm14.05.084.029.11-.144.038-.139.022L47.6,56.53l.134-.02ZM42.7,56.431l.274.072-.029.11-.274-.072Zm5.515-.047.029.11-.274.072-.029-.11Zm-5.858-.043.274.072-.029.11-.274-.072ZM57.1,56.225l.08.08-.2.2-.08-.08Zm-8.544.068.029.11-.274.072-.029-.11Zm-6.544-.043.274.072-.029.11-.274-.072Zm-8.443-.111.2.2-.08.08-.2-.2ZM48.9,56.2l.029.11-.274.072-.029-.11Zm-7.218-.059.153.059.11.029-.029.11-.116-.031-.159-.061Zm7.543-.066.04.106-.265.1-.04-.106Zm8.115-.106.088.071-.067.083-.129.129-.08-.08.125-.125Zm-15.989.046.265.1-.04.106-.265-.1Zm-8.009-.141.136.169.043.043-.08.08-.04-.04-.007-.007-.14-.174Zm16.215.075.04.106-.265.1-.04-.106Zm-8.537-.06.265.1-.04.106L40.98,56Zm8.868-.066.04.106-.265.1-.04-.106Zm7.675-.129.088.071-.178.221-.088-.071Zm-16.874.069.265.1-.04.106-.265-.1Zm9.515-.086.052.1-.2.1L50,55.905l-.04-.106.053-.02h0ZM33.12,55.6l.178.221-.088.071-.178-.221Zm7.262,0,.252.13-.052.1-.252-.13Zm10.138-.085.052.1-.252.13-.052-.1Zm7.267-.1.088.071-.178.221-.088-.071Zm-17.72.018.252.13-.052.1-.252-.13Zm-7.17-.113.178.22-.088.071-.178-.221Zm17.937.027.052.1-.252.13-.052-.1Zm-11.082-.078.252.13-.052.1-.252-.13Zm18.257-.131.088.071-.178.221-.088-.071Zm-6.868.042.061.1-.07.045-.182.094-.052-.1.178-.092Zm-11.686-.092.237.155-.062.095-.237-.155Zm-6.78-.044.178.22-.088.071-.178-.221Zm18.764-.055.061.1-.238.154-.061-.1Zm6.793-.126.088.071-.178.221-.088-.071ZM39.158,54.9l.237.155-.062.095-.237-.155Zm-6.706-.126.178.22-.088.071-.178-.221Zm19.285.028.061.1-.238.154-.062-.1Zm-12.876-.1.237.155-.062.095L38.8,54.8Zm19.574-.121.095.062-.114.174-.051.063-.088-.071.047-.059Zm-6.4.025.062.1-.238.154-.062-.1Zm-19.777-.126.155.237-.095.062-.155-.238Zm6.317.023.08.065.146.1-.062.095-.151-.1-.085-.069ZM52.31,54.4l.071.088-.22.178-.071-.088Zm6.318-.109.095.062-.155.237-.095-.062Zm-20.329,0,.22.178-.071.088-.22-.178Zm-6.235-.1.155.237-.095.062-.155-.237Zm20.521-.013.071.088-.22.178-.071-.088Zm-14.562-.113.22.178-.071.088-.22-.178Zm20.8-.07.095.062-.155.237-.095-.062Zm-5.961-.04.071.088-.22.178-.071-.088ZM31.871,53.89l.155.237-.1.062-.155-.238Zm5.877-.052.22.178L37.9,54.1l-.22-.178Zm15.374-.118.08.08-.109.109-.105.085-.071-.088.1-.081Zm5.894-.026.095.062-.155.237-.095-.062Zm-27.339-.1.155.237-.095.062-.155-.237Zm5.823,0,.2.2-.08.08-.2-.2Zm15.873-.124.08.08-.2.2-.08-.08ZM59.21,53.4l.095.062-.155.237-.095-.062Zm-21.96-.054.2.2-.08.08-.2-.2ZM31.484,53.3l.155.237-.095.062-.155-.238Zm22.14-.077.08.08-.2.2-.08-.08Zm5.749-.129.1.051-.129.253-.1-.051ZM37,53.092l.2.2-.08.08-.2-.2Zm-5.668-.11.128.253-.1.051-.128-.253Zm22.544-.014.08.08-.2.2-.08-.08Zm-17.107-.136.118.146.063.063-.08.08-.067-.068-.122-.151Zm22.767-.058.1.051-.128.253-.1-.051ZM54.092,52.7l.088.071-.178.22-.088-.071ZM31.17,52.666l.128.253-.1.051-.128-.253Zm5.374-.11.178.22-.088.071-.178-.22Zm23.151-.1.1.051-.128.253-.1-.051Zm-5.379-.038.088.071-.178.22-.088-.071Zm-23.306-.07.128.253-.1.051-.128-.253Zm5.311-.069.178.22-.088.071-.178-.22Zm23.534-.139.1.051-.129.253-.1-.051Zm-5.317,0,.088.071-.178.22-.088-.071Zm-23.69-.11.128.253-.1.051-.128-.253Zm5.257-.028.031.047.139.172-.088.071-.146-.181-.031-.047Zm9.669.146.011.113-.18.018-.11,0,0-.113.057,0,.046,0Zm-.629,0,.283.009,0,.113-.283-.009Zm-.355-.011.283.009,0,.113-.283-.009Zm1.336-.027.011.113-.282.029-.011-.113Zm-1.68-.014.2.037.067,0,0,.113-.057,0h-.019l-.213-.037Zm2.032-.023.011.113-.282.029-.012-.113ZM44.1,52.041l.279.049-.02.112-.279-.049Zm2.72-.035.028.11-.275.069-.028-.11Zm7.921-.147.095.062-.155.237-.095-.062Zm-10.99.121.279.049-.02.112-.279-.049Zm16.267-.155.1.051-.128.253-.1-.051Zm-12.854.1.028.11-.275.069-.027-.11Zm-3.744-.042.27.086-.035.108-.27-.086ZM30.7,51.717l.048.128.064.126-.1.051-.066-.131-.051-.133Zm16.8.117.027.11-.275.069-.028-.11Zm-11.594-.126.155.238-.095.062-.155-.237Zm7.168.062.27.086-.035.108-.27-.086Zm4.745-.072.043.1-.262.108-.043-.1Zm7.108-.136.095.062-.155.237-.095-.062Zm-12.178.094.051.025.208.067-.035.108-.218-.071-.056-.028ZM60.137,51.5l.106.04-.1.265-.106-.041Zm-11.985.065.043.1-.262.108-.043-.1ZM42.437,51.5l.254.127-.051.1-.254-.127Zm-6.718-.086.155.237-.1.062-.155-.238Zm-5.141-.026.1.265-.106.04-.1-.265Zm17.889.03.056.1-.049.028-.064.036-.148.061-.043-.1.141-.058Zm-6.347-.077.254.127-.051.1-.254-.127Zm13.007-.074.095.062-.155.237-.095-.062Zm-6.353-.025.056.1-.246.141-.056-.1Zm11.49-.073.106.041-.1.265-.106-.04Zm-24.739-.052.155.237-.095.062-.155-.237Zm6.3.051.047.032.084.058.1.052-.051.1-.051-.025-.061-.031-.138-.093Zm-11.369-.111.1.265-.106.04-.1-.265Zm18.631.009.056.1-.246.141-.056-.1Zm6.228-.1.1.052-.046.089-.1.158-.1-.062.1-.153Zm-13.783,0,.235.159-.064.094-.235-.159Zm18.864-.131.106.041-.1.265-.106-.04Zm-11.026.029.07.089-.184.143-.051.029-.056-.1L49.19,51Zm-14.007-.056.13.252-.1.052-.13-.252Zm-5.034-.085.1.265-.106.04-.1-.265Zm10.909.045.235.159-.064.094-.235-.159Zm14.239-.115.1.052-.13.252-.1-.052Zm-5.828-.007.07.089-.224.174-.07-.089Zm-8.676-.1.21.19-.076.084-.21-.19Zm19.549-.04.106.04-.1.265-.106-.04Zm-25.323-.01.13.252-.1.052-.13-.252Zm-5-.1.1.265-.106.041-.1-.265Zm19.727.036.07.089-.224.174L49.7,50.6Zm5.711-.09.1.052-.13.252-.1-.052Zm-14.929-.031.21.19-.076.084-.21-.19Zm-5.674-.128.13.252-.1.052-.13-.252Zm25.6,0,.109.029-.032.122-.059.153-.106-.041.057-.147Zm-10.463.007.081.079-.2.2-.081-.079ZM30.1,50.059l.072.274-.109.029-.072-.274Zm10.347.01.21.19-.076.084-.21-.19ZM55.8,50.023l.1.052-.13.252-.1-.052Zm-5.383-.1.081.079-.2.2-.081-.079Zm-15.529-.064.046.121.068.131-.1.052-.07-.137L34.78,49.9Zm25.835-.031.109.029-.072.274-.11-.029Zm-20.5-.032.181.218-.087.073-.181-.218Zm-10.218-.084.072.274-.109.029-.072-.274ZM55.926,49.7l.106.04-.1.265-.106-.04Zm-5.278-.027.092.067-.033.046-.015.019-.147.151-.081-.079.142-.145Zm-15.89-.141.1.265-.106.04-.1-.265Zm5.237,0,.181.218-.087.072-.181-.218Zm20.815-.039.11.029-.072.274-.11-.029Zm-9.955-.1.092.067-.166.229-.092-.066Zm-20.941-.013.072.274-.11.029-.072-.274Zm26.138,0,.106.041-.1.265-.106-.04Zm-16.266-.116.03.048.029.048.1.125-.087.073-.109-.131-.064-.1ZM34.632,49.2l.1.265-.106.04-.1-.265Zm26.27-.055.11.029-.072.274-.11-.029ZM51.065,49.1l.092.066-.166.23-.092-.066Zm5.115-.062.106.041-.1.265-.106-.04Zm-26.355-.007.072.274-.11.029-.072-.274Zm9.775-.079.15.24-.1.06-.15-.24Zm-5.094-.082.1.265-.106.04-.1-.265Zm16.742-.064.1.053-.085.161-.064.089-.092-.066L51.14,49l.027-.036Zm9.745,0,.11.029-.072.274-.11-.029Zm-4.706-.1.11.029-.046.173-.04.1-.106-.04.038-.1Zm-26.553-.019.072.274-.11.029-.072-.274Zm9.678-.037.15.24-.1.06-.15-.24Zm-4.995-.118.072.274-.11.029-.072-.274Zm17-.041.1.053-.133.25-.1-.053Zm9.648-.03.112.018-.034.214-.019.07-.11-.029.017-.065Zm-4.684-.1.11.029-.072.274-.11-.029Zm-17.123-.021.087.2.032.052-.1.06-.03-.048-.006-.011-.091-.2Zm-9.578,0,.045.28-.112.018-.045-.28Zm4.65-.154.072.274-.11.029-.072-.274Zm17.253-.011.1.053-.132.25-.1-.053Zm9.538-.067.112.018-.045.28-.112-.018Zm-22.008-.093.116.259-.1.046-.116-.259Zm17.358,0,.11.029-.072.274-.11-.029Zm-26.847-.027.045.28-.112.018-.045-.28Zm22.087-.137.107.039-.1.266-.106-.039Zm-17.471-.01.072.274-.11.029-.072-.274Zm26.936-.085.112.018-.045.28-.112-.018ZM38.965,47.7l.116.259-.1.046-.116-.259Zm17.593-.017.11.029-.072.274-.11-.029Zm-26.993-.034.045.28-.112.018-.045-.28Zm22.265-.119.106.039-.1.266-.106-.039Zm-17.662-.018.031.2.019.071-.11.029-.015-.055-.005-.022-.032-.208Zm27.06-.094.112.018-.045.28-.112-.018Zm-15.775.154.006.113-.283.016-.006-.113Zm.354-.02.006.113-.283.016-.006-.113Zm-.971-.04.278.053-.021.111-.278-.053Zm-5.971-.143.078.272-.109.031-.078-.272Zm17.742-.031.112.017-.044.28-.112-.017Zm-10.477.1.034.108-.271.084-.034-.108ZM44.518,47.4l.051.024.1.053.093.018-.021.111-.055-.01-.052-.012-.17-.082Zm-15.009-.106.045.28-.112.018-.045-.28Zm16.929,0,.058.1-.048.029-.13.076-.086.027-.034-.108.054-.017.019,0Zm5.514-.1.107.039-.1.266-.106-.039Zm-7.754.054.255.123-.049.1-.255-.123Zm-10.084-.09.044.28-.112.017L34,47.173Zm27.17-.094.112.018-.045.28-.112-.018Zm-14.543.046.059.1-.243.146-.058-.1Zm-7.974-.085.078.272-.109.031-.078-.272Zm5.164.01.22.179-.072.088-.22-.179Zm12.73-.05.112.017-.044.28-.112-.017Zm-27.2-.033,0,.057v0l.034.216-.112.018-.035-.222,0-.065Zm22.56-.1.111.024-.06.277-.111-.024Zm-5.038.017.08.08-.2.2-.08-.08ZM34.06,46.8l.044.28-.112.017-.043-.28Zm9.63-.009.034.045.036.051.117.1-.072.088-.044-.036-.082-.069-.08-.106Zm17.618-.082.113.006L61.406,47,61.293,47Zm-22.625-.027.008.056v.012l.057.2-.109.031-.059-.207L38.57,46.7Zm18.034-.055.112.017-.044.28-.112-.017ZM47.2,46.607l.1.059-.029.048-.053.085-.1.1-.08-.08.04-.04.051-.048Zm-17.755-.012.015.283-.113.006-.015-.283Zm14.033-.081.17.226-.091.068-.17-.226ZM52.1,46.5l.111.024-.06.277-.111-.024ZM34.014,46.46l0,.056v.013l.032.206-.112.017L33.9,46.54l0-.075Zm27.312-.1.113.006-.015.283-.113-.006Zm-22.693-.024.04.281-.112.016-.04-.281Zm8.749-.033.1.059-.146.243-.1-.059Zm9.364-.018.113.006-.015.283-.113-.006Zm-27.32-.044.014.283-.113.006-.014-.283Zm13.9-.033.112.261-.1.045-.112-.26Zm8.823-.044.113.007,0,.057-.006.083-.032.149-.111-.024.012-.055.019-.085ZM34,46.106l.015.283-.113.006-.015-.283Zm27.348-.1.113.006-.015.283-.113-.006Zm-13.849-.023.108.034-.084.271-.108-.034Zm-8.911,0,.04.281-.112.016L38.47,46Zm18.18-.054.113.006-.015.283-.113-.006ZM43.21,45.89l.009.056v0l.082.192-.1.045-.022-.052-.064-.153-.011-.074Zm-13.8,0,.014.283-.113.006-.014-.283Zm22.766-.076.113.007-.018.283-.113-.007Zm-18.2-.059.015.283-.113.006-.015-.283Zm13.6-.1.113.011-.005.056-.005.044-.058.185-.108-.034.017-.054.038-.12Zm13.783,0,.113.006-.015.283-.113-.006Zm-22.8-.011v.171l.015.1-.112.016-.008-.056-.007-.055V45.64Zm18.223-.064.113.006-.015.283-.113-.006ZM43.156,45.54l.044.28-.112.017-.044-.28Zm-13.767-.008.014.283-.113.006-.014-.283ZM52.2,45.456l.113.007-.018.283-.113-.007ZM33.959,45.4l.015.283-.113.006-.015-.283ZM47.7,45.1l.023.206h0l.008.075-.016,0-.019.205-.113-.01.025-.271-.022-.194Zm13.784,0,.014.283h-.011l-.01.2-.113-.006.015-.283h0l-.009-.186Zm-22.927.18v.283h-.113v-.283Zm18.337-.18.009.181h.005l0,.051,0,.051H56.9l-.006.122-.113-.006.008-.167-.011-.227Zm-13.852.086.113.01-.005.056-.015.154.009.058-.112.017-.009-.056v-.015Zm-13.77-.013.113.006-.008.148.007.129-.113.006-.007-.135Zm18.338.121v.011l.01.087.1-.011.007-.077h0ZM52.3,45.1l.018.283-.113.007-.018-.283Zm4.494.177,0,.057,0,.056.108-.005,0-.051,0-.051Zm4.585.016,0,.1.1-.005,0-.086Zm-27.524-.255.113.006-.015.283-.113-.006Zm4.7-.112v.283h-.113v-.283Zm4.516-.093.113.01-.025.282-.113-.01Zm-13.784-.015.113.006-.015.283-.113-.006Zm18.371-.073.031.282-.113.013-.031-.282Zm4.617,0,.018.283-.113.007-.018-.283Zm4.6,0,.015.283-.113.006-.015-.283Zm4.59,0,.015.283-.113.006-.015-.283Zm-27.591-.062.113.006-.015.283-.113-.006Zm4.609-.118.112.016-.04.281-.112-.016Zm4.715-.08.107.037-.093.268-.107-.038ZM29.309,44.47l.113.006-.015.283-.113-.006Zm18.215-.062.1.264-.106.041-.1-.264Zm4.733-.01.018.283-.113.007-.018-.283Zm4.6,0,.015.283-.113.006-.015-.283Zm4.59,0,.015.283-.113.006-.015-.283Zm-27.555-.062.113.006-.015.283-.113-.006Zm4.641-.115.112.016-.04.281-.112-.016Zm4.827-.057.095.062-.031.047-.059.087-.036.1-.107-.038.019-.053.023-.061Zm-14.035-.047.113.006-.015.283-.113-.006Zm18.025-.031.032.046.074.109.039.1-.106.041-.021-.053-.012-.036-.1-.144Zm4.831-.043.06.277-.111.024-.06-.277Zm4.646,0,.015.1.01.191-.113.006-.009-.185-.014-.091Zm4.6,0,.014.283-.113.006-.015-.283Zm-27.5-.067.112.017-.024.153-.006.122-.113-.006.007-.128Zm9.627-.11.095.062-.156.237L43.4,44.1Zm-4.972,0,.112.016-.04.281-.112-.016Zm8.566-.076.162.233-.093.065-.162-.233Zm-17.805-.032.113.006-.015.283-.113-.006ZM52.109,43.7l.06.277L52.058,44,52,43.719Zm4.667-.007.044.28-.112.017-.044-.28Zm4.637,0,.015.283-.113.006-.015-.283Zm-27.429-.062.112.017-.044.28-.112-.017Zm9.837-.015.077.083-.208.193-.077-.083Zm-5.133-.09.109.031-.078.272-.109-.031Zm8.19.025.215.184-.074.086-.215-.184ZM29.39,43.4l.112.018-.045.28-.112-.018Zm22.632-.06.02.053.01.029.043.2-.111.024-.041-.191-.027-.075Zm-7.912.042.054.1-.05.027-.045.023-.119.111-.077-.083.042-.039.089-.08Zm12.612-.048.043.28-.112.017-.044-.28Zm4.639-.005.045.28-.112.018-.045-.28Zm-14.779,0,.051.025.062.033.129.111-.074.086-.043-.037-.075-.066-.1-.051Zm-12.543-.055.112.017-.044.28-.112-.017Zm4.747-.1.109.031-.078.272-.109-.031Zm5.634.035.055.1-.248.137-.055-.1Zm1.844-.043.253.127-.051.1-.254-.127Zm-16.819-.119.112.018-.045.28-.112-.018ZM51.9,43.011l.1.266-.107.039-.1-.266Zm4.768-.024.044.28-.112.017L56.555,43Zm-11.9.111.03.109-.273.075-.03-.109ZM61.3,42.982l.045.28-.112.018L61.193,43Zm-15.393.09.277.061-.024.111-.277-.062Zm-11.819-.147.112.017-.044.28-.112-.017Zm11.032.093,0,.113h-.057l-.205.056-.03-.109.055-.015.17-.045Zm.482-.011h.019l.216.048-.025.111-.055-.012-.147-.034h-.062l0-.113Zm-6.7-.169.1.046-.023.052L38.955,43l-.041.143-.109-.031.044-.151Zm6.576.172,0,.113-.283.006,0-.113ZM29.5,42.7l.112.018-.045.28-.112-.018Zm22.276-.025.1.266-.106.039-.1-.266Zm4.8-.041.072.274-.11.029-.072-.274Zm4.669-.006.045.28-.112.018-.045-.28Zm-27.062-.054.11.029-.072.274-.11-.029Zm4.862-.062.1.046-.116.259-.1-.046Zm-9.492-.162.112.018-.045.28-.112-.018Zm22.072,0,.089.168.035.095-.107.039-.02-.053-.012-.034-.085-.162Zm4.86-.054.072.274-.11.029-.072-.274Zm4.7-.013.045.28-.112.018-.045-.28Zm-26.916-.047.11.029-.072.274-.11-.029Zm4.916-.043.1.046-.116.259-.1-.046Zm12.27-.156.133.251-.1.053-.132-.251ZM29.613,42l.112.018-.045.28-.112-.018ZM56.4,41.952l.072.274-.11.029-.072-.274Zm4.738-.02.045.28-.112.018-.045-.28Zm-26.77-.04.109.029-.072.274-.11-.029Zm5-.015.1.06-.15.24-.1-.06ZM51.3,41.722l.132.251-.1.053-.133-.25ZM29.7,41.655l.11.029-.072.274-.11-.029Zm26.587-.046.063.165.029.109-.11.029-.027-.1-.061-.159Zm4.75-.024.072.274-.11.029-.072-.274Zm-21.482-.009.1.06-.15.24-.1-.06Zm-5.074-.024.106.04-.1.265-.106-.04Zm16.609-.128.166.23-.092.067L51,41.489Zm-21.3-.111.109.029-.072.274-.109-.029Zm26.369-.034.1.265-.106.04-.1-.265Zm-16.417,0,.1.06-.15.24-.1-.06Zm21.2-.033.072.274-.11.029-.072-.274ZM34.61,41.22l.106.04-.1.265-.106-.04Zm16.275-.084.166.23-.092.067-.166-.23Zm-10.91-.141.087.073-.181.218-.087-.073Zm-10.092-.026.11.029-.072.274-.109-.029Zm26.152-.023.1.265-.106.04-.1-.265Zm4.822-.047.072.274-.109.029-.072-.274Zm-26.122-.01.106.04-.1.265-.106-.041Zm15.94-.04.166.23-.092.067-.166-.23ZM40.2,40.722l.087.073-.181.218-.087-.072Zm-10.228-.1.11.029-.072.274L29.9,40.9Zm25.935-.011.1.265-.106.04-.1-.265Zm-5.489-.024.2.2-.081.079-.2-.2Zm-15.544-.035.1.052-.026.05-.017.033-.066.171-.106-.04.068-.177Zm25.892,0,.072.274-.109.029-.072-.274Zm-20.324-.1.076.084-.042.038-.018.016-.124.149-.087-.073.13-.155Zm9.729-.115.2.2-.081.079-.2-.2Zm5.568-.042.13.252-.1.052-.13-.252ZM30.075,40.28l.106.041-.025.064-.053.2-.11-.029.055-.207Zm4.965-.039.1.052-.13.252-.1-.052Zm25.621-.029.055.144.035.131-.11.029-.033-.126-.053-.138Zm-19.954,0,.076.084-.21.19L40.5,40.4Zm9.2-.123.109.086.106.109-.081.079-.1-.1-.1-.081Zm5.669-.11.13.252-.1.052-.13-.252ZM30.2,39.949l.106.04-.1.265-.106-.04Zm10.768.028.076.084-.21.19-.076-.084ZM35.2,39.926l.1.052-.13.252-.1-.052Zm25.332-.045.1.265-.106.041-.1-.265Zm-10.905-.008.224.174-.07.089-.224-.175Zm-8.373-.118.064.094-.153.1-.067.061-.076-.084.042-.038.032-.028Zm14.159-.089.13.252-.1.052-.13-.252Zm-25.087-.048.106.04-.1.265-.106-.04Zm19.021.037.224.174-.07.089-.224-.175Zm-13.984-.044.1.052-.13.252-.1-.052Zm25.042-.061.1.265-.106.041-.1-.265Zm-18.858.007.064.094-.235.159-.064-.094Zm7.5-.1.246.141-.056.1-.246-.141Zm6.184-.1.155.237-.095.062-.155-.237Zm-13.385,0,.064.094-.235.159-.064-.094Zm-6.284-.05.095.062-.155.237-.095-.062Zm-5.1-.021.106.04-.1.265-.106-.041Zm29.825-.068.1.265-.106.04-.1-.265Zm-11.544.065.246.141-.056.1-.246-.141Zm-6.574-.1.051.1-.254.127-.051-.1Zm12.872-.127.155.237-.1.062-.155-.237Zm-6.6.046.246.141-.056.1-.246-.141Zm-12.677-.1.095.062-.155.237-.095-.062Zm-5.171-.055.106.041-.1.265-.106-.041Zm11.9.074.051.1-.254.127-.051-.1Zm17.674-.142.1.265-.106.04-.1-.265ZM48.1,38.967l.262.108-.043.1-.262-.108Zm-5.3-.1.051.1-.254.127-.051-.1Zm12.044-.106L55,39l-.095.062-.155-.237Zm-7.072.067.262.108-.043.1-.262-.108Zm-11.822-.118.095.062-.155.237-.095-.062Zm7.2.052.034.108-.27.086-.035-.108Zm-12.418-.14.1.051-.073.142-.042.11-.106-.04.045-.116Zm16.7.079.055.014.036.01.183.076-.043.1-.175-.073-.083-.021ZM60,38.561l.128.253-.1.051-.128-.253Zm-16.519.1.034.108-.27.086-.035-.108Zm3.6-.039.275.069-.027.11-.275-.069Zm7.549-.15.072.09.095.146-.095.062-.091-.141-.069-.085Zm-10.8.1.02.112-.056.01-.073.012-.138.044-.035-.108.145-.046Zm-7.674-.144.088.071-.109.134-.057.088-.095-.062.061-.093Zm10.583.111.275.069-.028.11-.275-.069ZM44.181,38.5l.02.112-.279.049-.02-.112Zm2.2-.033.194.021.093.023-.027.11-.055-.014-.03-.008-.186-.019Zm-15.5-.162.1.051-.128.253-.1-.052Zm13.643.134.02.112-.279.049-.02-.112Zm1.5-.008.282.029-.012.113-.282-.029Zm13.81-.191.128.253-.1.051L59.74,38.3ZM45.679,38.4l.282.029-.012.113-.282-.029Zm-.787.016,0,.113-.283.009,0-.113Zm.354-.011,0,.113-.283.009,0-.113Zm.355-.011,0,.113-.283.009,0-.113Zm8.811-.2.178.22-.088.071-.178-.22Zm-18.03-.047.088.071-.178.22-.088-.071Zm-5.333-.153.1.051-.129.253-.1-.051Zm28.633-.065.128.253-.1.051-.128-.253Zm-5.492-.011.178.22-.088.071-.178-.22ZM36.6,37.872l.088.071-.178.22-.088-.071Zm-5.4-.194.1.051-.129.253-.1-.051Zm22.756-.035.178.22-.088.071-.178-.22Zm5.555-.03.128.253-.1.051-.128-.253ZM36.827,37.6l.088.071-.178.22-.088-.071Zm16.885-.21.2.2-.08.08-.2-.2Zm-22.343-.024.1.051-.128.253-.1-.051Zm5.716-.018.08.08-.2.2-.08-.08ZM59.359,37.3l.128.253-.1.051-.128-.253Zm-5.9-.162.2.2-.08.08-.2-.2Zm-16.126-.042.08.08-.2.2-.08-.08Zm-5.779-.039.095.062-.155.237-.095-.062Zm27.608-.061.155.237-.095.062-.155-.238Zm-5.954-.109.2.2-.08.08-.2-.2Zm-15.624-.042.08.08-.2.2-.08-.08Zm-5.836-.085.095.062-.155.237-.095-.062Zm27.22-.061.155.237L59.031,37l-.155-.237Zm-6.028-.052.155.127.063.063-.08.08-.059-.059-.151-.123Zm-15.085-.039.072.088-.219.18-.072-.088Zm-5.913-.145.095.062-.155.237-.095-.062ZM58.777,36.4l.155.237-.1.062-.155-.238Zm-6.109.021.22.179-.072.088-.22-.179Zm-14.536-.04.072.088-.219.18-.072-.088ZM52.393,36.2l.22.179-.072.088-.22-.179Zm-20.255-.033.095.062-.155.237-.095-.062Zm6.268-.007.072.088-.219.18-.072-.088ZM58.583,36.1l.155.237-.095.062-.155-.237Zm-6.465-.131.22.179-.072.088-.22-.179Zm-13.425-.034.061.1-.048.031-.047.03-.127.1-.072-.088L38.594,36Zm-6.362-.072.095.062-.155.237-.095-.062ZM58.381,35.8l.036.044.008.011.119.183-.095.062-.116-.178-.041-.051Zm-6.568-.025.237.155-.062.095-.237-.155Zm-12.822-.033.061.1L38.815,36l-.061-.1Zm-6.434-.161.088.071-.178.22-.088-.071Zm18.959,0,.237.155-.062.095-.237-.155Zm6.642-.057.178.22-.088.071L58.07,35.6Zm-18.869.025.062.1-.238.154-.062-.1Zm11.93-.162.237.155-.062.095-.237-.155Zm-11.632-.03.062.1-.238.154-.062-.1Zm-6.807-.053.088.071-.178.22L32.6,35.53Zm25.156-.056.178.22-.088.071-.178-.221ZM50.9,35.219l.252.13-.052.1-.252-.13Zm-11-.025.052.1-.252.13-.052-.1Zm-6.9-.16.088.071-.178.22-.088-.071Zm17.586.023.252.13-.052.1-.252-.13Zm7.124-.079.178.22-.088.071-.178-.221Zm-17.492.054.052.1-.252.13-.052-.1Zm10.053-.138.252.13-.052.1-.252-.13Zm-9.738-.025.052.1-.252.13-.052-.1Zm-7.31-.11.088.071-.178.22-.088-.071ZM57.49,34.7l.178.22-.088.071-.178-.22Zm-7.543.04.13.05.134.069-.052.1-.128-.067-.124-.047Zm-9.082-.02.04.106-.169.064-.086.044-.052-.1.092-.047Zm8.751-.107.265.1-.041.106-.265-.1ZM41.2,34.6l.04.106-.265.1-.04-.106Zm-7.737-.112.08.08-.04.04-.016.016-.125.154L33.27,34.7l.129-.159Zm23.792-.051.116.116.079.1-.088.071-.075-.093-.111-.111Zm-7.966.056.265.1-.041.106-.265-.1Zm-7.757-.02.04.106-.265.1-.04-.106Zm7.426-.107.265.1-.041.106-.265-.1Zm-7.1-.019.04.106-.265.1-.04-.106Zm-8.149-.109.08.08-.2.2-.08-.08ZM57,34.181l.2.2-.08.08-.2-.2Zm-8.4.087.274.072-.029.11-.274-.072Zm-6.4-.014.029.11-.274.072-.029-.11Zm6.053-.077.274.072-.029.11-.274-.072Zm-5.71-.014.029.11-.274.072-.029-.11Zm5.368-.077.274.072-.029.11L47.89,34.2ZM33.96,33.982l.08.08-.2.2-.08-.08Zm8.934.092.029.11-.274.072-.029-.11Zm13.855-.144.2.2-.08.08-.2-.2Zm-9.183.087.21.033.074.02-.029.109-.069-.018-.2-.032Zm-4.318-.008.017.112-.28.044-.017-.112Zm3.967-.046.28.044-.017.112-.28-.044ZM43.6,33.955l.017.112-.28.044L43.319,34Zm3.266-.046.28.044-.017.112-.28-.043ZM43.949,33.9l.017.112-.28.043-.017-.112Zm-9.738-.169.08.08-.2.2-.08-.08Zm12.3.13.077,0,.209.032-.017.112-.2-.032-.072,0Zm-2.2,0,.006.113-.12.006L44.037,34l-.017-.112.162-.025Zm1.848-.015.283.015-.006.113-.283-.015Zm-1.493,0,.006.113-.283.015-.006-.113ZM56.5,33.68l.2.2-.08.08-.2-.2Zm-10.7.145.283.015-.006.113-.283-.015Zm-.785,0,.006.113-.283.015-.006-.113Zm.431-.015.283.015-.006.113-.283-.015Zm-.077,0,.006.113-.283.015-.006-.113Zm-10.907-.323.08.08-.2.2-.08-.08Zm21.786-.051.2.2-.08.08-.2-.2Zm-21.518-.19.071.088-.131.106-.077.077-.08-.08.082-.081Zm21.246-.046.22.178-.071.088-.22-.178Zm-20.97-.177.071.088-.221.178-.071-.088ZM55.7,32.971l.221.178-.071.088-.22-.178Zm-20.418-.177.071.088-.221.178-.071-.088Zm20.142-.046.221.178-.071.088-.22-.178Zm-19.866-.177.071.088-.221.178-.071-.088Zm19.59-.046.221.178-.071.088-.22-.178Zm-19.315-.177.071.088-.221.178-.071-.088ZM54.872,32.3l.221.178-.071.088-.22-.178ZM36.13,32.144l.062.095-.237.155-.062-.095Zm18.441-.04.238.155-.062.095-.237-.155ZM36.426,31.95l.062.095-.237.155-.062-.1Zm17.848-.04.237.155-.062.095-.237-.155Zm-17.551-.154.062.095-.237.155-.062-.095Zm17.254-.04.237.155-.062.095-.237-.155Zm-16.957-.154.062.095-.238.155-.062-.095Zm16.659-.04.237.155-.062.095-.237-.155Zm-16.363-.154.062.1-.237.155-.062-.095Zm16.056-.036.051.026.02.01.176.115-.062.095-.171-.112-.065-.033Zm-15.735-.128.051.1-.253.128-.051-.1Zm15.419-.033.253.128-.051.1-.253-.129Zm-15.1-.128.051.1-.253.128-.051-.1Zm14.787-.033.253.128-.051.1-.253-.129Zm-14.471-.128.051.1-.253.128-.051-.1Zm14.155-.033.253.128-.051.1-.253-.128Zm-13.838-.128.051.1-.253.128-.051-.1Zm13.522-.033.253.128-.051.1-.253-.129Zm-13.2-.121.041.106-.082.031-.169.086-.051-.1.174-.088Zm12.868-.026.161.062.1.053-.051.1-.1-.051-.155-.06Zm-12.537-.1.04.106-.265.1-.04-.106Zm12.206-.026.265.1-.04.106-.265-.1Zm-11.875-.1.04.106-.265.1-.041-.106Zm11.544-.026.265.1-.041.106-.265-.1Zm-11.213-.1.041.106-.265.1-.041-.106Zm10.882-.026.265.1-.041.106-.265-.1Zm-10.55-.1.041.106-.265.1-.04-.106Zm10.219-.026.265.1-.04.106-.265-.1Zm-9.876-.084.029.11-.173.045-.092.035-.04-.106L40.4,30Zm9.531-.019.274.072-.029.11-.274-.072Zm-9.188-.072.029.11-.274.072-.029-.11Zm8.845-.019.274.072-.029.11-.274-.072Zm-8.5-.072.029.11-.274.072-.029-.11Zm8.159-.019.274.072-.029.109-.274-.072Zm-7.817-.072.029.109-.274.072-.029-.11Zm7.474-.019.274.072-.029.109-.274-.072Zm-7.131-.072.029.109-.274.072-.029-.11Zm6.788-.019.274.072-.029.109-.274-.072Zm-6.434-.046.018.112-.28.045-.018-.112Zm6.079-.011.28.045-.018.112-.28-.045Zm-5.728-.044.018.112-.28.045-.018-.112Zm5.378-.011.28.045-.018.112-.28-.045Zm-5.028-.044.018.112-.28.045-.018-.112Zm4.678-.011.28.045-.018.112-.28-.045Zm-4.328-.044.018.112-.28.045-.018-.112Zm3.977-.011.28.045L47.6,29.5l-.28-.045ZM43.706,29.3l.018.112-.28.045-.018-.112Zm3.27,0,.095.005.192.031-.018.112-.186-.03-.089,0Zm-2.91-.015.006.113-.283.015-.006-.113Zm2.556,0,.283.014-.006.113-.283-.014Zm-2.2-.015.006.113-.283.015-.006-.113Zm1.848,0,.283.014-.006.113-.283-.014Zm-1.493-.014.006.113-.283.014-.006-.113Zm1.139,0,.283.014-.006.113-.283-.014Zm-.785-.014.006.113-.283.014-.006-.113Zm.431,0,.283.015-.006.113-.283-.015Zm-.176-.009.105.005-.006.113-.1-.005-.178.009-.006-.113Z" transform="translate(-24.491 -24.452)" fill="#818181"></path><g id="Group_4" data-name="Group 4" transform="translate(4.819 2.982)"><path id="Path_58" data-name="Path 58" d="M128.011,120.858l4.375-1.393.006.012.018.061.006.031.018.062.006.031.018.061.024.1.018.086.018.1.012.074.006.031.006.061v.031l.012.074v.031l.006.061.006.031.006.062.006.043v.043l.006.061v.282h-4.541Z" transform="translate(-111.946 -102.958)" fill="rgba(0,76,255,0.56)"></path><path id="Path_59" data-name="Path 59" d="M128.011,62.025l4.921-12.862.246.092.245.1.037.018.2.086.037.018.233.11.27.135.184.1.074.043.153.08.074.043.184.1.037.024.221.135.221.135.037.024.184.123.037.024.215.147.215.147.037.024.172.123.061.049.135.1.061.061.062.061-8.5,10.659Z" transform="translate(-111.946 -44.125)" fill="rgba(206,255,41,0.56)"></path><path id="Path_60" data-name="Path 60" d="M67.668,36.181,55.9,22.086l.27-.221.338-.27.209-.153.061-.049.209-.153.141-.1.141-.1.141-.1.141-.1.215-.141.074-.049.221-.135.074-.043.307-.184.307-.172.38-.209.233-.123.08-.037.307-.153.307-.147.4-.172.246-.1.08-.031.319-.123.325-.123.411-.141.246-.08.08-.024.331-.1.331-.092.417-.11.246-.061.086-.018L67.625,36Z" transform="translate(-51.602 -18.281)" fill="rgba(255,104,0,0.56)"></path><path id="Path_61" data-name="Path 61" d="M45.6,92.307,29.794,95.173l-.018-.1-.031-.2-.031-.2-.012-.1-.024-.2-.012-.1-.024-.2-.012-.1-.031-.307-.024-.307-.018-.307-.006-.1-.006-.2v-.1l-.006-.2v-.6l.006-.2.006-.1.012-.2.012-.2v-.1l.018-.2.012-.1.018-.2.024-.2.012-.1.024-.2.012-.1.031-.2.018-.1.061-.307.061-.295.061-.294.024-.1.049-.2.024-.1.049-.2.025-.1.062-.2.061-.2.031-.1.061-.184.031-.1.061-.184.061-.184.037-.092.061-.184.037-.092.074-.184.037-.092.123-.282.123-.276.123-.276.043-.092,14.329,6.9Z" transform="translate(-29.536 -74.407)" fill="rgba(255,196,0,0.56)"></path><path id="Path_62" data-name="Path 62" d="M85.58,128,78,133.171l-.031-.049-.074-.111-.031-.049-.061-.1-.037-.061-.061-.1-.037-.061-.049-.086-.043-.074-.049-.086-.043-.074-.043-.074-.049-.092-.037-.08-.043-.092,8.186-3.946Z" transform="translate(-69.514 -110.104)" fill="rgba(41,255,206,0.56)"></path><path id="Path_63" data-name="Path 63" d="M114.7,128l1.921,11.316-.221.037h-.043l-.184.024-.043.006-.184.018H115.9l-.184.018-.043.006-.184.012h-.043l-.184.012h-.092l-.135.006h-.675l-.184-.006h-.043l-.184-.012H113.9l-.184-.012-.092-.006-.092-.006H113.4l-.135-.018-.092-.012-.135-.018h-.092l-.135-.018-.086-.012-.135-.024-.086-.018-.135-.024-.086-.019-.184-.037,2.528-11.076Z" transform="translate(-98.63 -110.104)" fill="rgba(125,255,122,0.56)"></path><path id="Path_64" data-name="Path 64" d="M128.011,128l14.458,11.322-.215.27-.245.307-.227.264-.258.288-.246.245-.27.276-.245.246-.282.27-.258.233-.295.258-.264.221-.2.166-11.328-14.224Z" transform="translate(-111.946 -110.104)" fill="rgba(255,104,0,0.56)"></path></g><path id="Path_65" data-name="Path 65" d="M131.4,118.784l-.046-.092-4.641,1.478.211.176H131.6v-.386l-.007-.072v-.033l-.007-.058-.006-.057-.008-.041,0-.051v-.038l-.011-.065v-.023l-.007-.072-.008-.041-.012-.07-.019-.1-.019-.089-.025-.1-.02-.066,0-.021-.021-.071,0-.021-.021-.071Zm-.169.165.019.065,0,.021.021.071.023.093.018.083.018.1.012.071.007.034,0,.051v.038l.011.065v.022l.007.072.008.041,0,.051.007.047v.028l.007.072v.168h-3.9Z" transform="translate(-106.038 -99.328)"></path><path id="Path_66" data-name="Path 66" d="M132.719,48.473l-.344-.129L127.416,61.3l.189.086.044-.083L136.2,50.581l-.188-.189-.145-.113-.06-.048-.176-.126-.04-.026-.428-.294-.259-.173-.445-.272-.033-.022-.191-.108-.073-.042L134,49.085l-.069-.041-.188-.1-.272-.136-.235-.111-.035-.017-.2-.088-.032-.016Zm-.224.138.149.056.243.1.029.015.2.088.032.016.235.111.268.134.182.1.07.041.158.082.069.04.185.1.03.021.445.272.254.17.428.294.038.025.169.121.057.046.136.106.047.048-8.05,10.1Z" transform="translate(-106.629 -40.457)"></path><path id="Path_67" data-name="Path 67" d="M66.971,35.347,62.9,17.526l-.186.04-.249.062-.419.111-.333.092-.333.1-.081.025-.247.08-.413.142-.328.124-.4.154-.247.1-.4.173-.311.149-.308.154-.077.035-.238.125-.382.209-.308.172-.309.186-.073.042-.223.136-.077.051-.214.141-.567.394-.211.155-.065.052-.205.151-.341.272L55,21.44,67.118,35.958Zm-4.23-17.574,3.97,17.373L55.3,21.468l.189-.154.337-.269.205-.151.065-.052.205-.151.562-.391.213-.139.074-.049.217-.133.072-.042.308-.185.3-.17.38-.208.232-.122.075-.034.31-.155.305-.146.395-.17.243-.1.4-.153.325-.122.408-.14.244-.079.078-.024.33-.1.33-.092.416-.11Z" transform="translate(-46.029 -14.667)"></path><path id="Path_68" data-name="Path 68" d="M44.96,91.435,30.542,84.494l-.088.188-.246.554-.123.283-.148.371-.063.19-.035.086-.125.374-.031.1-.061.182-.154.493-.173.693-.124.593-.062.308-.019.1-.031.206-.074.6-.019.206-.012.095-.019.206v.108l-.031.5-.006.206v.6l.006.206v.1l.006.206.025.408.025.309.031.309.086.7.031.205.031.2.038.2,16.256-2.947ZM30.641,84.773,44.719,91.55,29.343,94.337l-.03-.19-.031-.2-.073-.6-.012-.1-.03-.3-.024-.3-.024-.4-.006-.2v-.1l-.006-.206v-.6l.006-.2.031-.5v-.1l.018-.193.012-.095.019-.206.037-.3.024-.2.012-.1.03-.2.018-.095.061-.306.123-.588.171-.683.152-.485.061-.182.031-.1.122-.366.035-.086.063-.19.145-.362.122-.279Z" transform="translate(-24.184 -70.71)"></path><path id="Path_69" data-name="Path 69" d="M84.832,127.418l-.086.037-8.283,3.992.123.264.052.1.088.151.049.085.043.074.049.085.038.063.062.1.036.06.093.149.075.113.086.138,7.674-5.228Zm-1.147.779-6.367,4.337-.047-.071-.09-.145-.036-.06-.062-.1-.036-.06L77,132.015l-.043-.074-.049-.085-.086-.148-.047-.089-.034-.074Z" transform="translate(-63.989 -106.631)"></path><path id="Path_70" data-name="Path 70" d="M116.095,137.706,114.1,125.974l-.21.42-.008.023L111.333,137.6l.289.058.085.018.138.025.083.018.138.025.09.013.136.018h.106l.121.017.227.031h.149l.361.024h.05l.177.012h.05l.181.006h.679l.14-.006h.087l.191-.013h.036l.191-.013.051-.007.18-.018h.033l.194-.019.047-.007.183-.024h.046Zm-2.071-10.96,1.831,10.789-.11.018h-.034l-.2.026-.044.006-.18.018h-.033l-.194.019-.047.007-.176.011H114.8l-.191.012h-.085l-.14.006h-.67l-.181-.006h-.046l-.177-.012h-.05l-.361-.024h-.142l-.121-.017-.227-.031h-.106l-.206-.03-.131-.024-.083-.018-.138-.025-.083-.018-.081-.016Z" transform="translate(-93.17 -105.422)"></path><path id="Path_71" data-name="Path 71" d="M127.673,127.5l-.143.15.123.141,11.391,14.3.284-.232.265-.222.3-.259.259-.234.284-.272.247-.247.271-.277.245-.245.262-.293.228-.265.248-.31.28-.352Zm.6.731,13.651,10.69-.15.188-.245.307-.225.261-.256.287-.241.241-.271.277-.245.245-.281.268-.256.231-.293.256-.262.219-.12.1Z" transform="translate(-106.725 -106.701)"></path></g><text id="Matplotlib" transform="translate(845 430)" font-size="8" font-family="OpenSans-Semibold, Open Sans" font-weight="600"><tspan x="0" y="0">Matplotlib</tspan></text></g></g></svg> 