<?xml version="1.0" encoding="UTF-8"?> <svg xmlns="http://www.w3.org/2000/svg" width="169" height="177" viewBox="0 0 169 177"><g id="Group_175" data-name="Group 175" transform="translate(-346 -116)"><g id="Group_170" data-name="Group 170" transform="translate(142.071 -265)"><rect id="Rectangle_947" data-name="Rectangle 947" width="169" height="177" transform="translate(203.929 381)" fill="#fff"></rect><path id="Rectangle_947_-_Outline" data-name="Rectangle 947 - Outline" d="M.3.3V176.7H168.7V.3H.3M0,0H169V177H0Z" transform="translate(203.929 381)" fill="rgba(112,112,112,0.83)"></path></g><path id="Path_125" data-name="Path 125" d="M186.078,33.8a51.483,51.483,0,0,0-3.563-14.6,21.355,21.355,0,0,0-6.539-9.1C171.131,6.284,165.9,5.667,160.36,8.441c-3.574,1.789-6.228,4.638-8.616,7.763-.213-.085-.3-.292-.431-.458a25.409,25.409,0,0,0-7.681-6.995,13.868,13.868,0,0,0-11.019-1.4,16.781,16.781,0,0,0-8.467,6.087A27.638,27.638,0,0,0,119.6,22.5a29.058,29.058,0,0,0-.849,3.1,16.2,16.2,0,0,0-.58,2.4,31.353,31.353,0,0,0-.871,10.145,15.067,15.067,0,0,0,3.163,8.084c3.648,4.479,9.921,6.092,15.247,2.151a24.336,24.336,0,0,0,5.229-5.683c3.613-5.085,7.253-10.153,10.728-15.333.161.22.329.435.483.66,3.568,5.27,7.252,10.459,10.98,15.615a17.475,17.475,0,0,0,5.325,5.176,10.556,10.556,0,0,0,6.087,1.67,5.116,5.116,0,0,0,1.276-.119,11.431,11.431,0,0,0,8.187-5.922A17.546,17.546,0,0,0,186.078,33.8m-67.325-8.2c.043-.02.082-.048.124-.071a.252.252,0,0,1-.124.071M147.5,22.043c-2.561,3.845-5.178,7.652-7.887,11.393a104.95,104.95,0,0,1-6.236,8.449,7.747,7.747,0,0,1-2.244,1.794,4.008,4.008,0,0,1-4.106-.195,6.115,6.115,0,0,1-2.692-3.691,16.085,16.085,0,0,1-.356-6.9,58.221,58.221,0,0,1,1.556-7.589c.045-.169.145-.346.011-.523a23.867,23.867,0,0,1,2.617-6.093,12.154,12.154,0,0,1,4.1-4.128,7.871,7.871,0,0,1,8.046-.091,18.083,18.083,0,0,1,5.428,4.527,19.013,19.013,0,0,1,2.134,2.747c-.2,0-.28.169-.37.3m32.153,14.6a9.41,9.41,0,0,1-2.048,5.819,4.534,4.534,0,0,1-5.173,1.332c-.158-.079-.319-.2-.518-.113a.17.17,0,0,0-.04,0l.008-.028a19.093,19.093,0,0,1-4.664-5.13c-3.862-5.453-7.765-10.875-11.458-16.444-.091-.139-.165-.289-.247-.435.155-.017.234-.135.319-.241.886-1.134,1.8-2.242,2.777-3.3A16.406,16.406,0,0,1,163.1,14.59a8.443,8.443,0,0,1,4.366-1.064,8.911,8.911,0,0,1,6.017,3.09,15.989,15.989,0,0,1,3.2,5.263,49.249,49.249,0,0,1,2,6.868,28.784,28.784,0,0,1,.965,7.9" transform="translate(278.255 150.738)" fill="#383838"></path><g id="l" transform="translate(-19.1 -201.5)"><path id="Path_179" data-name="Path 179" d="M417.1,457.2V444.3h2.1v11.1h5.5v1.8Z"></path><path id="Path_180" data-name="Path 180" d="M428.8,457.2h-2.1V443.5h2.1Z"></path><path id="Path_181" data-name="Path 181" d="M435.6,447.3a4.446,4.446,0,0,1,2.8.8,3.273,3.273,0,0,1,.9,2.6v6.6h-1.5l-.4-1.4h-.1a7.636,7.636,0,0,1-.9.9,3.128,3.128,0,0,1-1,.5,5.9,5.9,0,0,1-1.4.2,4.146,4.146,0,0,1-1.6-.3,2.132,2.132,0,0,1-1.1-1,2.861,2.861,0,0,1-.4-1.7,2.712,2.712,0,0,1,1.1-2.3,6.077,6.077,0,0,1,3.4-.8l1.7-.1v-.5a1.668,1.668,0,0,0-.5-1.4,1.844,1.844,0,0,0-1.3-.4,5.9,5.9,0,0,0-1.4.2,5.023,5.023,0,0,0-1.3.5l-.7-1.5a4.419,4.419,0,0,1,1.6-.6A8.175,8.175,0,0,1,435.6,447.3Zm1.7,5.3H436a3.954,3.954,0,0,0-2.2.5,1.612,1.612,0,0,0-.6,1.3,1.366,1.366,0,0,0,.4,1.1,2.016,2.016,0,0,0,1.1.3,2.792,2.792,0,0,0,1.8-.6,2.139,2.139,0,0,0,.7-1.8v-.8Z"></path><path id="Path_182" data-name="Path 182" d="M453.3,447.3a3.742,3.742,0,0,1,2.5.8,3.646,3.646,0,0,1,.8,2.7v6.4h-2.1v-6a2.861,2.861,0,0,0-.4-1.7,1.486,1.486,0,0,0-1.3-.6,2.2,2.2,0,0,0-1.8.8,3.75,3.75,0,0,0-.5,2.3v5.2h-2.1v-6a3.73,3.73,0,0,0-.2-1.2,1.057,1.057,0,0,0-.6-.7,1.689,1.689,0,0,0-1-.3,1.944,1.944,0,0,0-2.1,1.5,8.969,8.969,0,0,0-.2,1.8v4.9h-2.1v-9.8h1.6l.3,1.3h.1a2.7,2.7,0,0,1,.7-.8,3.128,3.128,0,0,1,1-.5,4.253,4.253,0,0,1,1.1-.2,3.425,3.425,0,0,1,1.8.4,2.163,2.163,0,0,1,1.1,1.2h.2a3.039,3.039,0,0,1,1.3-1.2A6.8,6.8,0,0,1,453.3,447.3Z"></path><path id="Path_183" data-name="Path 183" d="M463.3,447.3a4.446,4.446,0,0,1,2.8.8,3.273,3.273,0,0,1,.9,2.6v6.6h-1.5l-.4-1.4H465a7.636,7.636,0,0,1-.9.9,3.128,3.128,0,0,1-1,.5,5.9,5.9,0,0,1-1.4.2,4.146,4.146,0,0,1-1.6-.3,2.132,2.132,0,0,1-1.1-1,3.064,3.064,0,0,1-.4-1.7,2.712,2.712,0,0,1,1.1-2.3,6.077,6.077,0,0,1,3.4-.8l1.7-.1v-.5a1.668,1.668,0,0,0-.5-1.4,1.844,1.844,0,0,0-1.3-.4,5.9,5.9,0,0,0-1.4.2,6.943,6.943,0,0,0-1.3.5l-.7-1.5a4.419,4.419,0,0,1,1.6-.6A8.175,8.175,0,0,1,463.3,447.3Zm1.7,5.3h-1.3a3.954,3.954,0,0,0-2.2.5,1.612,1.612,0,0,0-.6,1.3,1.366,1.366,0,0,0,.4,1.1,2.016,2.016,0,0,0,1.1.3,2.792,2.792,0,0,0,1.8-.6,2.139,2.139,0,0,0,.7-1.8v-.8Z"></path><path id="Path_184" data-name="Path 184" d="M469.1,453.3v-1.8h4.5v1.8Z"></path><path id="Path_185" data-name="Path 185" d="M483.3,447.3a2.41,2.41,0,0,1-.4,1.5,3.46,3.46,0,0,1-1,1.1,3.506,3.506,0,0,1-1.4.6v.1a3.781,3.781,0,0,1,2.3,1,2.865,2.865,0,0,1,.8,2.1,4.552,4.552,0,0,1-.5,2,4.389,4.389,0,0,1-1.6,1.4,6.046,6.046,0,0,1-2.9.5,11.075,11.075,0,0,1-1.9-.2,8.446,8.446,0,0,1-1.7-.5v-1.8a4.924,4.924,0,0,0,1.7.6,11.019,11.019,0,0,0,1.8.2,3.523,3.523,0,0,0,2.3-.6,2.06,2.06,0,0,0,.7-1.7,1.366,1.366,0,0,0-.4-1.1,2.326,2.326,0,0,0-1.1-.7,9.2,9.2,0,0,0-1.9-.2H477v-1.7h1.1a4.845,4.845,0,0,0,1.8-.3,1.978,1.978,0,0,0,1-.7,2.016,2.016,0,0,0,.3-1.1,1.727,1.727,0,0,0-.5-1.3,2.545,2.545,0,0,0-1.6-.5,4.869,4.869,0,0,0-1.2.1,3,3,0,0,0-1,.4c-.3.2-.6.3-.9.5l-1-1.4a5.559,5.559,0,0,1,1.7-.9,6.051,6.051,0,0,1,2.4-.4,4.964,4.964,0,0,1,3.1.9A2.356,2.356,0,0,1,483.3,447.3Z"></path></g></g></svg> 