<?xml version="1.0" encoding="UTF-8"?> <svg xmlns="http://www.w3.org/2000/svg" xmlns:xlink="http://www.w3.org/1999/xlink" width="169" height="177" viewBox="0 0 169 177"><defs><clipPath id="clip-path"><rect id="Rectangle_744" data-name="Rectangle 744" width="69.69" height="69.692" fill="none"></rect></clipPath></defs><g id="Group_129" data-name="Group 129" transform="translate(-555.365 -116.913)"><g id="Rectangle_944" data-name="Rectangle 944" transform="translate(555.365 116.913)" fill="#fff" stroke="rgba(112,112,112,0.83)" stroke-linecap="round" stroke-linejoin="round" stroke-width="0.3"><rect width="169" height="177" stroke="none"></rect><rect x="0.15" y="0.15" width="168.7" height="176.7" fill="none"></rect></g><g id="Group_28" data-name="Group 28" transform="translate(604.084 141.154)" clip-path="url(#clip-path)"><path id="Path_27" data-name="Path 27" d="M266.364,27.611a15.087,15.087,0,0,1,7.642,17.817,1.461,1.461,0,0,1-2.572.645q-6.944-6.943-13.885-13.889a2.224,2.224,0,0,1-.206-.275l-.086.049v.3q0,11.023,0,22.045a4.35,4.35,0,0,1-8.651.7,5.969,5.969,0,0,1-.051-.809q0-10.95,0-21.9c0-.118.056-.251-.053-.355-.014-.138.1-.2.173-.282q1.981-1.987,3.967-3.969a.663.663,0,0,1,.276-.205.468.468,0,0,1,.1-.015c.136-.011.271-.016.406-.016q6.16,0,12.323,0c.214,0,.452-.06.619.151" transform="translate(-218.088 7.263)" fill="#434343"></path><path id="Path_28" data-name="Path 28" d="M258.518,29.973l-.062,0a.958.958,0,0,1-.562.092q-6.1,0-12.206,0a1.382,1.382,0,0,1-.627-.033c-.1-.115-.234-.056-.35-.056q-7.786-.006-15.572-.005a1.645,1.645,0,0,1-1.72-1.679,1.7,1.7,0,0,1,.225-.77,16.773,16.773,0,0,1,10.166-8.456,16.012,16.012,0,0,1,6.53-.6,18.178,18.178,0,0,1,3.059.612c.075.022.158.1.225-.015a13.086,13.086,0,0,1,1.858.715,17.153,17.153,0,0,1,8.976,9.759,1.23,1.23,0,0,0,.115.265.2.2,0,0,1,.024.08c-.006.048-.051.061-.081.087" transform="translate(-223.701 4.843)" fill="#434343"></path><path id="Path_29" data-name="Path 29" d="M251.978,29.971l.06-.058a.908.908,0,0,1,.225-.3l10.262-10.261c.073-.073.137-.166.249-.189a20.819,20.819,0,0,1,2.873-.638A17.927,17.927,0,0,1,269,18.407a16.076,16.076,0,0,1,4.925,1.076,16.752,16.752,0,0,1,8.973,8.145,1.61,1.61,0,0,1-1.508,2.341q-7.8,0-15.6,0c-.117,0-.251-.056-.352.057a1.377,1.377,0,0,0-.455-.06q-6.5,0-13,0" transform="translate(-217.161 4.846)" fill="#838383"></path><path id="Path_30" data-name="Path 30" d="M256.513,32.539c-.108,0-.11-.092-.134-.162A17.03,17.03,0,0,0,251.286,25,17.393,17.393,0,0,0,247.5,22.58a13.188,13.188,0,0,0-1.552-.629,1.151,1.151,0,0,1-.38-.2l-5.95-5.94q-1.968-1.966-3.934-3.937a1.624,1.624,0,0,1-.337-1.989,1.531,1.531,0,0,1,.91-.76,16.749,16.749,0,0,1,20.156,8.208.71.71,0,0,1,.242.28A17.124,17.124,0,0,1,256.77,32.2a.9.9,0,0,1-.257.344" transform="translate(-221.644 2.159)" fill="#535353"></path><path id="Path_31" data-name="Path 31" d="M252.04,32.54a16.814,16.814,0,0,0,1.422-4.229,17.234,17.234,0,0,0,.282-4.427,17.008,17.008,0,0,0-1.608-6.167c-.061-.129-.13-.256-.2-.384.134.006.139-.115.181-.192a16.775,16.775,0,0,1,3.419-4.422,16.483,16.483,0,0,1,6.775-3.794,16.891,16.891,0,0,1,5.227-.628,16.355,16.355,0,0,1,4.673.838,1.606,1.606,0,0,1,.605,2.667q-4.891,4.906-9.795,9.8c-.082.081-.161.167-.241.251-.054.066-.105.137-.166.2q-5.2,5.2-10.4,10.4c-.054.054-.116.1-.175.151l-.008-.06" transform="translate(-217.171 2.158)" fill="#a3a3a3"></path><path id="Path_32" data-name="Path 32" d="M243.094,27.592a1.767,1.767,0,0,1,.367-.062q6.513.006,13.029.005c-.076.086-.148.176-.229.257l-4.118,4.132c-.039.044-.075.089-.117.129q-7,7.005-14.007,14.011a1.539,1.539,0,0,1-1.065.517,1.42,1.42,0,0,1-1.47-1.068,15.084,15.084,0,0,1,2.255-13.405,14.681,14.681,0,0,1,5.354-4.516" transform="translate(-221.734 7.284)" fill="#222"></path></g><path id="Path_167" data-name="Path 167" d="M10.2-8.965A3.747,3.747,0,0,1,8.886-5.88,5.808,5.808,0,0,1,5.133-4.808H3.8V0H1.7V-12.85H5.4A5.6,5.6,0,0,1,9-11.865,3.534,3.534,0,0,1,10.2-8.965ZM3.8-6.574H4.913a4,4,0,0,0,2.373-.562,2.047,2.047,0,0,0,.756-1.758,2,2,0,0,0-.677-1.652,3.343,3.343,0,0,0-2.109-.545H3.8ZM18.633,0,18.22-1.354h-.07A3.982,3.982,0,0,1,16.734-.145a4.475,4.475,0,0,1-1.828.321A3.094,3.094,0,0,1,12.669-.6a2.894,2.894,0,0,1-.8-2.188,2.57,2.57,0,0,1,1.116-2.268,6.436,6.436,0,0,1,3.4-.835l1.679-.053V-6.46a1.965,1.965,0,0,0-.435-1.393,1.774,1.774,0,0,0-1.349-.461,4.665,4.665,0,0,0-1.433.22,10.811,10.811,0,0,0-1.318.519l-.668-1.477a7.189,7.189,0,0,1,1.731-.628A7.968,7.968,0,0,1,16.365-9.9a4.2,4.2,0,0,1,2.8.809,3.166,3.166,0,0,1,.945,2.54V0ZM15.557-1.406a2.558,2.558,0,0,0,1.806-.628A2.278,2.278,0,0,0,18.044-3.8v-.844L16.8-4.588a4.27,4.27,0,0,0-2.123.488,1.482,1.482,0,0,0-.664,1.332A1.3,1.3,0,0,0,14.4-1.762,1.661,1.661,0,0,0,15.557-1.406ZM23.212,0V-12.85h2.1V-1.8h5.44V0ZM38.522,0,34.8-10.731h-.07q.149,2.391.149,4.482V0H32.968V-12.85H35.93L39.5-2.628h.053L43.225-12.85H46.2V0H44.174V-6.354q0-.958.048-2.5t.083-1.863h-.07L40.377,0Zm9.993-3.946V-5.7h4.518v1.758ZM63.176,0h-8.71V-1.564L57.779-4.9a28.184,28.184,0,0,0,1.947-2.131,5.089,5.089,0,0,0,.7-1.182,3.187,3.187,0,0,0,.22-1.187,1.809,1.809,0,0,0-.523-1.371,2,2,0,0,0-1.446-.5A3.855,3.855,0,0,0,57.248-11a6.685,6.685,0,0,0-1.6.984l-1.116-1.362a7.2,7.2,0,0,1,2.083-1.283,6.1,6.1,0,0,1,2.153-.378,4.237,4.237,0,0,1,2.874.936A3.162,3.162,0,0,1,62.728-9.58a4.418,4.418,0,0,1-.312,1.652,6.715,6.715,0,0,1-.958,1.613,21.893,21.893,0,0,1-2.149,2.246L57.076-1.907v.088h6.1Z" transform="translate(607.429 256)"></path></g></svg> 