<?xml version="1.0" encoding="UTF-8"?> <svg xmlns="http://www.w3.org/2000/svg" xmlns:xlink="http://www.w3.org/1999/xlink" width="169" height="177" viewBox="0 0 169 177"><defs><clipPath id="clip-path"><rect id="Rectangle_809" data-name="Rectangle 809" width="82.085" height="18.257" transform="translate(0 0)" fill="#404040"></rect></clipPath></defs><g id="Group_143" data-name="Group 143" transform="translate(-346 -336.402)"><g id="Rectangle_815" data-name="Rectangle 815" transform="translate(346 336.402)" fill="#fff" stroke="rgba(112,112,112,0.83)" stroke-linecap="round" stroke-linejoin="round" stroke-width="0.3"><rect width="169" height="177" stroke="none"></rect><rect x="0.15" y="0.15" width="168.7" height="176.7" fill="none"></rect></g><path id="Path_175" data-name="Path 175" d="M10.2-8.965A3.747,3.747,0,0,1,8.886-5.88,5.808,5.808,0,0,1,5.133-4.808H3.8V0H1.7V-12.85H5.4A5.6,5.6,0,0,1,9-11.865,3.534,3.534,0,0,1,10.2-8.965ZM3.8-6.574H4.913a4,4,0,0,0,2.373-.562,2.047,2.047,0,0,0,.756-1.758,2,2,0,0,0-.677-1.652,3.343,3.343,0,0,0-2.109-.545H3.8ZM21.1,0H19.028V-5.977a2.616,2.616,0,0,0-.453-1.679,1.75,1.75,0,0,0-1.437-.554,2.281,2.281,0,0,0-1.912.778,4.286,4.286,0,0,0-.611,2.606V0H12.551V-13.676h2.065V-10.2a16.2,16.2,0,0,1-.105,1.784h.132a2.868,2.868,0,0,1,1.173-1.09A3.782,3.782,0,0,1,17.569-9.9q3.533,0,3.533,3.56Zm4.939,0H23.977V-9.721h2.065ZM23.854-12.3a1.144,1.144,0,0,1,.3-.853,1.182,1.182,0,0,1,.866-.3,1.156,1.156,0,0,1,.848.3,1.144,1.144,0,0,1,.3.853,1.122,1.122,0,0,1-.3.831,1.147,1.147,0,0,1-.848.3,1.171,1.171,0,0,1-.866-.3A1.122,1.122,0,0,1,23.854-12.3Zm4.3,8.35V-5.7h4.518v1.758ZM42.812,0H34.1V-1.564L37.415-4.9a28.184,28.184,0,0,0,1.947-2.131,5.089,5.089,0,0,0,.7-1.182A3.187,3.187,0,0,0,40.28-9.4a1.809,1.809,0,0,0-.523-1.371,2,2,0,0,0-1.446-.5A3.855,3.855,0,0,0,36.883-11a6.685,6.685,0,0,0-1.6.984l-1.116-1.362a7.2,7.2,0,0,1,2.083-1.283,6.1,6.1,0,0,1,2.153-.378,4.237,4.237,0,0,1,2.874.936A3.162,3.162,0,0,1,42.363-9.58a4.418,4.418,0,0,1-.312,1.652,6.715,6.715,0,0,1-.958,1.613,21.893,21.893,0,0,1-2.149,2.246L36.712-1.907v.088h6.1Z" transform="translate(408.304 474)"></path><path id="Path_177" data-name="Path 177" d="M2.49-10.791v3.32h4.15V-8.3h.83v-1.66h-.83v-.83Zm0,4.98V-.83H.83V-12.451H7.471v.83H8.3v.83h.83v3.32H8.3v.83h-.83v.83Zm9.961,0V-.83h-1.66V-12.451h1.66V-8.3h.83v-.83h.83v-.83H16.6v.83h.83v.83h.83v.83h.83V-.83h-1.66V-6.641H16.6v-.83h-.83V-8.3h-.83v.83h-.83v.83h-.83v.83Zm13.281-5.811v1.66h-1.66v-1.66Zm.83,9.131h.83V-.83h-1.66v-.83H24.9v-.83h-.83v-4.15h-1.66V-8.3h3.32v4.98h.83Zm11.621-4.98v1.66H31.543v-1.66Zm4.15,4.98h6.641V-.83h-8.3v-4.98h.83v-.83h.83v-.83h4.15V-8.3h.83v-1.66h-.83v-.83h-3.32v.83h-.83v.83h-1.66v-1.66h.83v-.83h.83v-.83h4.98v.83h.83v.83h.83v3.32h-.83v.83h-.83v.83h-4.15v.83h-.83Z" transform="translate(406.17 421.068)" fill="#404040"></path><g id="Group_67" data-name="Group 67" transform="translate(390 383.115)" clip-path="url(#clip-path)"><path id="Path_104" data-name="Path 104" d="M4.414.008C5.708.008,7,.019,8.3,0c.369-.005.514.078.512.483q-.026,3.878,0,7.757c0,.42-.14.516-.535.514q-3.857-.023-7.714,0c-.391,0-.542-.089-.539-.512Q.047,4.364.02.485c0-.4.139-.491.511-.485C1.825.019,3.119.008,4.414.008" transform="translate(-0.016 0)" fill="#404040"></path><path id="Path_105" data-name="Path 105" d="M.008,48.54c0-1.292.012-2.583-.008-3.875-.005-.371.085-.511.487-.508q3.9.025,7.81,0c.386,0,.5.109.5.5q-.023,3.875,0,7.75c0,.371-.084.511-.486.508q-3.9-.025-7.81,0c-.386,0-.506-.108-.5-.5.022-1.291.008-2.583.008-3.875" transform="translate(0 -34.654)" fill="#404040"></path><path id="Path_106" data-name="Path 106" d="M48.3,8.764c-1.278,0-2.555-.014-3.833.007-.394.006-.545-.1-.543-.516q.024-3.855,0-7.709c0-.424.151-.516.541-.514q3.859.021,7.717,0c.373,0,.517.1.515.492q-.022,3.88,0,7.761c0,.4-.142.492-.513.487-1.295-.019-2.59-.007-3.885-.008" transform="translate(-34.469 -0.025)" fill="#404040"></path><path id="Path_107" data-name="Path 107" d="M48.309,44.145c1.259,0,2.518.013,3.777-.007.406-.007.578.083.575.536-.02,2.55-.016,5.1,0,7.649,0,.412-.108.575-.551.572q-3.829-.026-7.657,0c-.406,0-.582-.091-.579-.542q.028-3.825,0-7.649c0-.42.119-.575.556-.566,1.293.024,2.587.009,3.88.009" transform="translate(-34.43 -34.638)" fill="#404040"></path><path id="Path_108" data-name="Path 108" d="M101.161,24.581q.732-1.817,1.465-3.634c.5-1.231,1.01-2.455,1.486-3.694a.563.563,0,0,1,.652-.423c.482.027.966.016,1.449,0,.264-.007.367.087.367.358q-.009,4.707,0,9.414c0,.3-.112.373-.395.383-1.283.046-1.283.055-1.283-1.245V18.91c-.266.658-.538,1.325-.8,1.995-.741,1.857-1.486,3.713-2.215,5.575-.133.339-.275.543-.7.517s-.71-.024-.9-.521c-.923-2.4-1.9-4.772-2.859-7.155a.353.353,0,0,0-.2-.207v.479c0,2.293-.008,4.586.012,6.879,0,.413-.117.527-.524.52-1.041-.019-1.041,0-1.041-1.026,0-2.862.008-5.724-.009-8.586,0-.422.1-.588.543-.552a10.123,10.123,0,0,0,1.4,0,.535.535,0,0,1,.608.41c.912,2.364,1.841,4.721,2.763,7.082.037.094.043.2.182.26" transform="translate(-75.08 -13.203)" fill="#404040"></path><path id="Path_109" data-name="Path 109" d="M338.528,21.389c0,.845-.015,1.691.007,2.535.009.346-.115.434-.446.438-1.175.012-1.175.023-1.175-1.152,0-1.414-.023-2.829.012-4.242.012-.5-.159-.653-.618-.588-.1.014-.208-.007-.31,0-.263.025-.388-.078-.366-.352a2.431,2.431,0,0,0,0-.465c-.042-.373.131-.5.482-.459.136.015.277-.008.414,0,.3.025.4-.111.39-.4s0-.552,0-.828a2.323,2.323,0,0,1,2.269-2.4c.121-.009.242-.008.362-.009.912,0,1.167.353.931,1.254-.06.227-.175.14-.308.115-1.114-.208-1.627.216-1.65,1.361,0,.017,0,.035,0,.052,0,.977-.083.841.862.853a.691.691,0,0,1,.1,0c.23.038.548-.127.675.107a1.756,1.756,0,0,1,.044,1.015c-.018.186-.2.147-.336.149-.311,0-.622.018-.932,0s-.418.118-.413.425c.014.862,0,1.725,0,2.587" transform="translate(-263.4 -10.574)" fill="#404040"></path><path id="Path_110" data-name="Path 110" d="M268.941,35.233a3.529,3.529,0,0,0,2.611.6c.406-.079.782-.21.859-.688a.854.854,0,0,0-.626-.952c-.551-.244-1.118-.453-1.662-.71a1.865,1.865,0,0,1-1.179-1.884,1.9,1.9,0,0,1,1.27-1.727,4.522,4.522,0,0,1,3.135-.16.412.412,0,0,1,.361.477,6.415,6.415,0,0,0,0,.671c.008.267-.081.346-.337.215a3.1,3.1,0,0,0-1.549-.335,1.872,1.872,0,0,0-.7.155.8.8,0,0,0-.551.688.759.759,0,0,0,.47.741,9.278,9.278,0,0,0,.859.353,5.885,5.885,0,0,1,1.3.626,1.894,1.894,0,0,1,.017,3.211,4.63,4.63,0,0,1-4.036.3.322.322,0,0,1-.241-.351c0-.377,0-.753,0-1.238" transform="translate(-211.064 -23.161)" fill="#404040"></path><path id="Path_111" data-name="Path 111" d="M361.222,26.478c0-.621-.027-1.243.009-1.861.026-.447-.146-.593-.563-.534-.1.014-.207-.006-.31,0-.271.023-.38-.1-.356-.364a1.3,1.3,0,0,0,0-.31c-.07-.464.1-.689.587-.6.553.1.662-.162.645-.664-.035-1.005-.01-1.006.96-1.292.685-.2.685-.2.685.495,0,.017,0,.034,0,.052.027.444-.179,1,.088,1.3s.815.088,1.24.1c.3.006.407.117.38.4a1.264,1.264,0,0,0,0,.31c.07.448-.1.594-.563.582-1.145-.03-1.147-.006-1.146,1.161,0,.862-.008,1.724.006,2.586s.482,1.24,1.314,1c.376-.107.389.023.392.321.009.924.018.924-.908,1.036-1.6.194-2.446-.539-2.459-2.124,0-.535,0-1.069,0-1.6" transform="translate(-282.517 -16.277)" fill="#404040"></path><path id="Path_112" data-name="Path 112" d="M178.032,31.342a3.107,3.107,0,0,0-1.81-.512,2.221,2.221,0,0,0-1.706.943,2.906,2.906,0,0,0,.063,3.254,2.375,2.375,0,0,0,3.068.385c.287-.15.373-.145.385.207.035,1.031-.037,1.147-1,1.373a3.563,3.563,0,0,1-4.38-2.016,3.946,3.946,0,0,1,.734-4.3,4.02,4.02,0,0,1,4.26-.967.445.445,0,0,1,.394.51c-.022.342,0,.686,0,1.122" transform="translate(-135.24 -23.15)" fill="#404040"></path><path id="Path_113" data-name="Path 113" d="M208.116,31.169a2.035,2.035,0,0,1,1.929-1.365c.38.013.6.125.542.544a1.163,1.163,0,0,0,0,.155c0,.782,0,.782-.742.762a1.828,1.828,0,0,0-1.77,1.961c-.05,1.1-.054,2.2-.014,3.305.019.542-.158.67-.671.65-.987-.039-.988-.011-.988-.979,0-1.929.009-3.858-.008-5.787,0-.38.1-.552.494-.493.366.055.819-.17,1.085.117.232.251,0,.692.144,1.129" transform="translate(-161.978 -23.389)" fill="#404040"></path><path id="Path_114" data-name="Path 114" d="M158.672,34c0,1.051-.008,2.1,0,3.154,0,.3-.077.419-.4.427-1.247.03-1.247.042-1.247-1.195,0-1.844.009-3.689-.007-5.533,0-.4.1-.543.522-.537,1.132.015,1.132,0,1.132,1.15q0,1.267,0,2.534" transform="translate(-123.228 -23.79)" fill="#404040"></path><path id="Path_115" data-name="Path 115" d="M157.441,16.452a.921.921,0,0,1-1-.935.943.943,0,0,1,.964-.929.954.954,0,0,1,1,.894.937.937,0,0,1-.968.969" transform="translate(-122.779 -11.448)" fill="#404040"></path><path id="Path_116" data-name="Path 116" d="M236,32.373a3.2,3.2,0,0,0-1.775-2.734,3.812,3.812,0,0,0-5.643,3.485,3.393,3.393,0,0,0,1.713,3.252,3.958,3.958,0,0,0,4.1-.082A3.707,3.707,0,0,0,236,32.373M234.22,34.1a1.794,1.794,0,0,1-1.781,1.443,1.93,1.93,0,0,1-2.012-1.377,3.463,3.463,0,0,1-.07-1.934,1.959,1.959,0,0,1,2.215-1.644,1.914,1.914,0,0,1,1.737,1.923c.017.188,0,.378,0,.567a3.159,3.159,0,0,1-.09,1.022" transform="translate(-179.394 -22.908)" fill="#404040"></path><path id="Path_117" data-name="Path 117" d="M301.729,29.532a3.577,3.577,0,0,0-3.833,3.857,3.471,3.471,0,0,0,3.689,3.75,3.574,3.574,0,0,0,3.768-3.824c0-2.371-1.343-3.778-3.623-3.783m1.819,4.751a1.8,1.8,0,0,1-1.864,1.534,1.95,1.95,0,0,1-1.994-1.481,3.593,3.593,0,0,1-.026-1.839,1.95,1.95,0,0,1,2.171-1.638,1.9,1.9,0,0,1,1.778,1.883c.022.205.023.413.039.725a6.481,6.481,0,0,1-.1.816" transform="translate(-233.789 -23.177)" fill="#404040"></path></g></g></svg> 