<?xml version="1.0" encoding="UTF-8"?> <svg xmlns="http://www.w3.org/2000/svg" xmlns:xlink="http://www.w3.org/1999/xlink" width="90" height="90" viewBox="0 0 90 90"><defs><clipPath id="clip-path"><rect id="Rectangle_17" data-name="Rectangle 17" width="90" height="90" transform="translate(788 268)" fill="#fff" stroke="#707070" stroke-width="1"></rect></clipPath></defs><g id="Mask_Group_25" data-name="Mask Group 25" transform="translate(-788 -268)" clip-path="url(#clip-path)"><g id="Group_22" data-name="Group 22" transform="translate(-110.304 13.143)"><path id="Path_87" data-name="Path 87" d="M132.671,74.188l-2.238-.531a2.024,2.024,0,0,1-1.5-2.448,1.844,1.844,0,0,1,.242-.58l1.208-1.981a1.268,1.268,0,0,0-.193-1.578L127.325,64.2a1.292,1.292,0,0,0-1.578-.193l-1.981,1.208a2.033,2.033,0,0,1-3.027-1.256l-.531-2.238a1.292,1.292,0,0,0-1.256-.982h-2.077a7.788,7.788,0,0,0,1.337-4.364V24.83a7.732,7.732,0,0,0-7.73-7.73,7.246,7.246,0,0,0-1.562.161L77.628,23.7a7.772,7.772,0,0,0-6.152,7.021l-.918,12.931L64.214,57.617a1.3,1.3,0,0,0,.644,1.707,1.214,1.214,0,0,0,.531.113h5.153V74.961a3.856,3.856,0,0,0,3.865,3.865,3.911,3.911,0,0,0,1.433-.274L86,74.494V94.221h2.577V73.447l9.5-3.8-.95-2.4L74.875,76.153a1.3,1.3,0,0,1-1.675-.725,1.232,1.232,0,0,1-.1-.483v-16.8a1.292,1.292,0,0,0-1.288-1.288H67.37l5.62-12.352a1.446,1.446,0,0,0,.113-.435L74.037,30.9a5.186,5.186,0,0,1,4.106-4.686l31.29-6.442a5.156,5.156,0,0,1,6.087,4.01,5.629,5.629,0,0,1,.113,1.047V56.361a5.124,5.124,0,0,1-3.237,4.783l.87,2.158-.161.644a2.024,2.024,0,0,1-2.448,1.5,1.843,1.843,0,0,1-.58-.242L108.1,63.994a1.268,1.268,0,0,0-1.578.193l-2.866,2.866a1.292,1.292,0,0,0-.193,1.578l1.208,1.981a2.033,2.033,0,0,1-1.256,3.028l-2.238.531a1.292,1.292,0,0,0-.982,1.256v4.058a1.292,1.292,0,0,0,.982,1.256l2.238.531a2.024,2.024,0,0,1,1.5,2.448,1.843,1.843,0,0,1-.242.58l-1.208,1.981a1.268,1.268,0,0,0,.193,1.578l2.866,2.866a1.292,1.292,0,0,0,1.578.193l1.981-1.208a2.033,2.033,0,0,1,3.028,1.256l.531,2.238a1.292,1.292,0,0,0,1.256.982h4.058a1.292,1.292,0,0,0,1.256-.982l.531-2.238a2.024,2.024,0,0,1,2.448-1.5,1.843,1.843,0,0,1,.58.242l1.981,1.208a1.268,1.268,0,0,0,1.578-.193l2.866-2.866a1.292,1.292,0,0,0,.193-1.578L129.177,84.3a2.033,2.033,0,0,1,1.256-3.028l2.238-.531a1.292,1.292,0,0,0,.982-1.256V75.428A1.287,1.287,0,0,0,132.671,74.188Zm-1.594,4.3-1.256.306a4.6,4.6,0,0,0-3.4,5.556,5.082,5.082,0,0,0,.548,1.337l.676,1.111-1.433,1.433-1.111-.676a4.585,4.585,0,0,0-6.876,2.85l-.306,1.256h-2.029l-.306-1.256a4.6,4.6,0,0,0-5.556-3.4,5.083,5.083,0,0,0-1.337.548l-1.111.676L106.148,86.8l.676-1.111a4.585,4.585,0,0,0-2.85-6.876l-1.256-.306V76.475l1.256-.306a4.6,4.6,0,0,0,3.4-5.556,5.082,5.082,0,0,0-.548-1.337l-.676-1.111,1.433-1.433,1.111.676a4.585,4.585,0,0,0,6.876-2.85l.306-1.256H117.9l.306,1.256a4.6,4.6,0,0,0,5.556,3.4,5.083,5.083,0,0,0,1.337-.548l1.111-.676,1.433,1.433-.676,1.111a4.585,4.585,0,0,0,2.85,6.876l1.256.306Z" transform="translate(843.96 243.705)" fill="#1c54f7"></path><path id="Path_88" data-name="Path 88" d="M148.59,156.984a3.865,3.865,0,1,0,5.153-3.639V136.371a1.3,1.3,0,0,0-.37-.918L148.22,130.3l-1.82,1.82,4.783,4.783v16.442A3.847,3.847,0,0,0,148.59,156.984Zm3.865,1.288a1.288,1.288,0,1,1,1.288-1.288A1.292,1.292,0,0,1,152.455,158.272Z" transform="translate(774.914 148.734)" fill="#1c54f7"></path><path id="Path_89" data-name="Path 89" d="M254.525,99.425a3.865,3.865,0,1,0,3.865-3.865,4.028,4.028,0,0,0-1.675.37l-6.055-6.055V72.9l4.783-4.783-1.82-1.82-5.153,5.153a1.277,1.277,0,0,0-.37.918V90.407a1.3,1.3,0,0,0,.37.918l6.442,6.442A3.69,3.69,0,0,0,254.525,99.425Zm5.153,0a1.288,1.288,0,1,1-1.288-1.288A1.292,1.292,0,0,1,259.679,99.425Z" transform="translate(689.592 202.428)" fill="#1c54f7"></path><path id="Path_90" data-name="Path 90" d="M299.329,60.22l-1.82-1.82-6.442,6.442a1.277,1.277,0,0,0-.37.918V78.868a3.861,3.861,0,1,0,2.577,0V66.291Zm-7.359,23.56a1.288,1.288,0,1,1,1.288-1.288A1.292,1.292,0,0,1,291.969,83.78Z" transform="translate(656.013 209.056)" fill="#1c54f7"></path><path id="Path_91" data-name="Path 91" d="M188.236,123.425a3.865,3.865,0,0,0,0-7.73,4.028,4.028,0,0,0-1.675.37l-.918-.918V96.371a1.3,1.3,0,0,0-.37-.918L180.12,90.3l-1.82,1.82,4.783,4.783V115.7a1.3,1.3,0,0,0,.37.918l1.288,1.288a3.858,3.858,0,0,0,1.82,5.153A4.028,4.028,0,0,0,188.236,123.425Zm1.288-3.865a1.288,1.288,0,1,1-1.288-1.288A1.292,1.292,0,0,1,189.524,119.561Z" transform="translate(748.151 182.293)" fill="#1c54f7"></path><path id="Path_92" data-name="Path 92" d="M358.442,352a6.441,6.441,0,1,0,6.441,6.442A6.44,6.44,0,0,0,358.442,352Zm0,10.306a3.865,3.865,0,1,1,3.865-3.865A3.856,3.856,0,0,1,358.442,362.306Z" transform="translate(602.424 -37.264)" fill="#1c54f7"></path><path id="Path_93" data-name="Path 93" d="M477.183,286.548l1.965-1.675a23.27,23.27,0,0,0-2.673-2.673l-1.675,1.965A20.817,20.817,0,0,1,477.183,286.548Z" transform="translate(499.399 21.296)" fill="#1c54f7"></path><path id="Path_94" data-name="Path 94" d="M423.232,253.356a23.063,23.063,0,0,0-8.181-3.156l-.451,2.544a20.486,20.486,0,0,1,7.279,2.8Z" transform="translate(549.905 48.143)" fill="#1c54f7"></path><path id="Path_95" data-name="Path 95" d="M251.066,367.051l-2.544-.451a22.376,22.376,0,0,0-.322,2.722l2.577.145A20.578,20.578,0,0,1,251.066,367.051Z" transform="translate(689.508 -49.512)" fill="#1c54f7"></path><path id="Path_96" data-name="Path 96" d="M250.777,399.5l-2.577.145a23.293,23.293,0,0,0,8.213,16.378l1.659-1.965A20.692,20.692,0,0,1,250.777,399.5Z" transform="translate(689.508 -77.114)" fill="#1c54f7"></path></g></g></svg> 