<?xml version="1.0" encoding="UTF-8"?> <svg xmlns="http://www.w3.org/2000/svg" xmlns:xlink="http://www.w3.org/1999/xlink" width="90" height="90" viewBox="0 0 90 90"><defs><clipPath id="clip-path"><rect id="Rectangle_82" data-name="Rectangle 82" width="90" height="90" transform="translate(1445 727)" fill="#fff" stroke="#707070" stroke-width="1"></rect></clipPath></defs><g id="Mask_Group_27" data-name="Mask Group 27" transform="translate(-1445 -727)" clip-path="url(#clip-path)"><g id="Group_318" data-name="Group 318" transform="translate(-146.984 26.926)"><path id="Path_222" data-name="Path 222" d="M112.183,62.047h2.222a1.283,1.283,0,1,0-.013-2.566h-2.209a1.283,1.283,0,1,0,0,2.566Z" transform="translate(1488.464 651.441)" fill="#1b54f8" stroke="#fff" stroke-width="0.6"></path><path id="Path_223" data-name="Path 223" d="M151.123,62.043h2.222a1.283,1.283,0,0,0,0-2.566h-2.222a1.283,1.283,0,0,0,0,2.566Z" transform="translate(1455.596 651.444)" fill="#1b54f8" stroke="#fff" stroke-width="0.6"></path><path id="Path_224" data-name="Path 224" d="M190.073,62.043H192.3a1.283,1.283,0,0,0,0-2.566h-2.222a1.283,1.283,0,1,0,0,2.566Z" transform="translate(1422.719 651.444)" fill="#1b54f8" stroke="#fff" stroke-width="0.6"></path><path id="Path_225" data-name="Path 225" d="M326.673,62.043h24.884a1.283,1.283,0,1,0,0-2.566H326.673a1.283,1.283,0,1,0,0,2.566Z" transform="translate(1307.416 651.444)" fill="#1b54f8" stroke="#fff" stroke-width="0.6"></path><path id="Path_226" data-name="Path 226" d="M128.211,136.193a1.276,1.276,0,0,0-1.283-1.283h-14.75a1.283,1.283,0,1,0,0,2.566h14.764A1.273,1.273,0,0,0,128.211,136.193Z" transform="translate(1488.469 587.772)" fill="#1b54f8" stroke="#fff" stroke-width="0.6"></path><path id="Path_227" data-name="Path 227" d="M112.183,163.865h5.755a1.283,1.283,0,1,0,0-2.566h-5.755a1.283,1.283,0,1,0,0,2.566Z" transform="translate(1488.464 565.497)" fill="#1b54f8" stroke="#fff" stroke-width="0.6"></path><path id="Path_228" data-name="Path 228" d="M175.053,161.3a1.283,1.283,0,0,0,0,2.566h1.693a1.283,1.283,0,1,0,0-2.566Z" transform="translate(1435.397 565.496)" fill="#1b54f8" stroke="#fff" stroke-width="0.6"></path><path id="Path_229" data-name="Path 229" d="M164.529,308.832h6.032a1.276,1.276,0,0,0,1.283-1.283V293.327a1.276,1.276,0,0,0-1.283-1.283h-6.032a1.276,1.276,0,0,0-1.283,1.283v14.234A1.274,1.274,0,0,0,164.529,308.832Zm1.283-14.234h3.466v11.668h-3.466Z" transform="translate(1444.28 455.137)" fill="#1b54f8" stroke="#fff" stroke-width="0.6"></path><path id="Path_230" data-name="Path 230" d="M241.833,224.51a1.276,1.276,0,0,0-1.283,1.283v24.765a1.276,1.276,0,0,0,1.283,1.283h6.032a1.276,1.276,0,0,0,1.283-1.283V225.793a1.276,1.276,0,0,0-1.283-1.283Zm4.736,24.751H243.1V227.076h3.466Z" transform="translate(1379.029 512.142)" fill="#1b54f8" stroke="#fff" stroke-width="0.6"></path><path id="Path_231" data-name="Path 231" d="M319.123,292.05a1.276,1.276,0,0,0-1.283,1.283v14.234a1.276,1.276,0,0,0,1.283,1.283h6.032a1.276,1.276,0,0,0,1.283-1.283V293.333a1.276,1.276,0,0,0-1.283-1.283Zm4.736,14.222h-3.466V294.6h3.466Z" transform="translate(1313.789 455.132)" fill="#1b54f8" stroke="#fff" stroke-width="0.6"></path><path id="Path_232" data-name="Path 232" d="M222.829,153.822a1.276,1.276,0,0,0,1.283-1.283v-5.582a1.531,1.531,0,0,0-.093-.49,1.255,1.255,0,0,0-.688-.688,1.235,1.235,0,0,0-.49-.093H217.26a1.283,1.283,0,0,0,0,2.566h2.487L208.04,159.947,196.888,148.8a1.328,1.328,0,0,0-1.812,0L182.931,160.94a1.286,1.286,0,0,0,1.826,1.812L196,151.507l11.125,11.152a1.278,1.278,0,0,0,1.813,0l12.607-12.607v2.487a1.293,1.293,0,0,0,1.283,1.283Z" transform="translate(1427.982 578.676)" fill="#1b54f8" stroke="#fff" stroke-width="0.6"></path><path id="Path_233" data-name="Path 233" d="M429.76,210.687a17.31,17.31,0,1,0-22.582,16.483v14.658a5.272,5.272,0,0,0,10.544,0V227.17a17.349,17.349,0,0,0,12.038-16.483Zm-14.591,31.141a2.705,2.705,0,0,1-5.411,0V227.766c.146.026.278.053.423.079a16.38,16.38,0,0,0,2.3.159,16.142,16.142,0,0,0,2.275-.159c.146-.013.278-.053.423-.079v14.062Zm-.781-16.522a14.749,14.749,0,1,1,12.792-14.618A14.743,14.743,0,0,1,414.388,225.306Z" transform="translate(1248.541 538.427)" fill="#1b54f8" stroke="#fff" stroke-width="0.6"></path><path id="Path_234" data-name="Path 234" d="M440.249,226.29a12.2,12.2,0,0,0-12.184,12.184,1.283,1.283,0,0,0,2.566,0,9.626,9.626,0,0,1,9.617-9.617,1.283,1.283,0,0,0,0-2.566Z" transform="translate(1220.749 510.639)" fill="#1b54f8" stroke="#fff" stroke-width="0.6"></path><path id="Path_235" data-name="Path 235" d="M139.694,85.055H88.286a2.922,2.922,0,0,1-2.911-2.923V36.226h64.7V45.01a1.283,1.283,0,0,0,2.566,0V27.468a5.49,5.49,0,0,0-5.477-5.49H88.286a5.491,5.491,0,0,0-5.477,5.49V82.129a5.49,5.49,0,0,0,5.477,5.49h51.408a1.283,1.283,0,1,0,0-2.565ZM88.286,24.545h58.868a2.922,2.922,0,0,1,2.911,2.923V33.66H85.375V27.468a2.93,2.93,0,0,1,2.91-2.923Z" transform="translate(1512.175 683.096)" fill="#1b54f8" stroke="#fff" stroke-width="0.6"></path></g></g></svg> 