<?xml version="1.0" encoding="UTF-8"?> <svg xmlns="http://www.w3.org/2000/svg" xmlns:xlink="http://www.w3.org/1999/xlink" width="60" height="60" viewBox="0 0 60 60"><defs><clipPath id="clip-path"><rect id="Rectangle_701" data-name="Rectangle 701" width="60" height="60" transform="translate(1515 141)" fill="#fff" stroke="#707070" stroke-width="1"></rect></clipPath><clipPath id="clip-path-2"><rect y="21" width="55.363" height="9.517" fill="none"></rect></clipPath><clipPath id="clip-path-3"><rect x="31" y="-2" width="39.433" height="38.678" fill="none"></rect></clipPath></defs><g id="Mask_Group_39" data-name="Mask Group 39" transform="translate(-1515 -141)" clip-path="url(#clip-path)"><g id="Group_57" data-name="Group 57" transform="translate(0)"><g id="Scroll_Group_15" data-name="Scroll Group 15" transform="translate(1517 167)" clip-path="url(#clip-path-2)" style="isolation: isolate"><g id="Anaconda_Logo_Stacked_RGB" transform="translate(-115.964 -96.1)"><path id="Path_3" data-name="Path 3" d="M119.385,387.708c-.039-.054-.069-.108-.162-.108h-.093a.159.159,0,0,0-.162.108l-2.986,6.5a.162.162,0,0,0,.162.239h.841a.274.274,0,0,0,.278-.2l.478-1.042h2.886l.478,1.042a.28.28,0,0,0,.278.2h.841a.162.162,0,0,0,.162-.239Zm-1.2,4.429.949-2.107h.039l.972,2.107Z" transform="translate(0 -269.005)" fill="#16222f"></path><path id="Path_4" data-name="Path 4" d="M213.4,387.708h-.88a.179.179,0,0,0-.178.177v3.974h-.015l-4.013-4.26h-.239a.175.175,0,0,0-.177.177v6.482a.191.191,0,0,0,.177.177h.88a.179.179,0,0,0,.177-.177v-4.136h.015l4.028,4.414h.232a.175.175,0,0,0,.177-.178v-6.482A.186.186,0,0,0,213.4,387.708Z" transform="translate(-84.842 -269.005)" fill="#16222f"></path><path id="Path_5" data-name="Path 5" d="M294.377,387.708c-.039-.054-.069-.108-.162-.108h-.085a.159.159,0,0,0-.162.108l-2.986,6.5a.162.162,0,0,0,.162.239h.841a.274.274,0,0,0,.278-.2l.478-1.042h2.886l.478,1.042a.28.28,0,0,0,.278.2h.841c.147,0,.231-.123.162-.239Zm-1.2,4.429.949-2.107h.039l.972,2.107Z" transform="translate(-161.496 -269.005)" fill="#16222f"></path><path id="Path_6" data-name="Path 6" d="M379.247,392.816a.177.177,0,0,0-.239,0,2.284,2.284,0,0,1-1.482.548,2.236,2.236,0,0,1-.015-4.468,2.294,2.294,0,0,1,1.482.563.163.163,0,0,0,.239,0l.586-.6a.178.178,0,0,0-.015-.262,3.26,3.26,0,0,0-2.323-.9,3.465,3.465,0,1,0,0,6.93,3.287,3.287,0,0,0,2.346-.934.185.185,0,0,0,.015-.262Z" transform="translate(-238.124 -269.098)" fill="#16222f"></path><path id="Path_7" data-name="Path 7" d="M459.849,387.6a3.465,3.465,0,1,0,3.465,3.48A3.45,3.45,0,0,0,459.849,387.6Zm0,5.687a2.207,2.207,0,0,1,0-4.414,2.207,2.207,0,1,1,0,4.414Z" transform="translate(-314.165 -269.005)" fill="#16222f"></path><path id="Path_8" data-name="Path 8" d="M565.3,387.708h-.88a.179.179,0,0,0-.177.177v3.974h-.015l-4.013-4.26h-.239a.175.175,0,0,0-.178.177v6.482a.191.191,0,0,0,.178.177h.88a.179.179,0,0,0,.177-.177v-4.136h.016l4.028,4.414h.231a.175.175,0,0,0,.177-.178v-6.482A.2.2,0,0,0,565.3,387.708Z" transform="translate(-409.586 -269.005)" fill="#16222f"></path><path id="Path_9" data-name="Path 9" d="M651.569,389h-2.292a.191.191,0,0,0-.177.177v6.374a.174.174,0,0,0,.177.177h2.292a3.365,3.365,0,1,0,0-6.729Zm-.108,5.564H650.35v-4.4h1.1a2.2,2.2,0,0,1,.015,4.4Z" transform="translate(-491.995 -270.297)" fill="#16222f"></path><path id="Path_10" data-name="Path 10" d="M731.856,394.59l-2.971-6.482c-.039-.054-.069-.108-.162-.108h-.093a.159.159,0,0,0-.162.108l-2.986,6.482a.162.162,0,0,0,.162.239h.841a.274.274,0,0,0,.278-.2l.478-1.042h2.886l.478,1.042a.28.28,0,0,0,.278.2h.841A.161.161,0,0,0,731.856,394.59Zm-4.152-2.084.949-2.107h.039l.965,2.107Z" transform="translate(-562.466 -269.375)" fill="#16222f"></path><path id="Path_11" data-name="Path 11" d="M823.523,467.894h.054a.041.041,0,0,0,.039-.039v-.177h.108l.069.2c0,.015.015.015.039.015h.069a.041.041,0,0,0,.039-.039c-.039-.054-.054-.123-.093-.177a.175.175,0,0,0,.123-.177.2.2,0,0,0-.2-.2h-.232a.041.041,0,0,0-.039.039v.509C823.515,467.894,823.515,467.894,823.523,467.894Zm.093-.471h.147a.064.064,0,0,1,.069.069.075.075,0,0,1-.069.069h-.147Z" transform="translate(-652.937 -342.555)" fill="#16222f"></path><path id="Path_12" data-name="Path 12" d="M819.363,465.127a.552.552,0,0,0,.563-.563.563.563,0,1,0-.563.563Zm0-1.042a.455.455,0,1,1-.455.455A.472.472,0,0,1,819.363,464.085Z" transform="translate(-648.6 -339.51)" fill="#16222f"></path><path id="Path_13" data-name="Path 13" d="M360.668,246.623v-.054a9.366,9.366,0,0,1,.139-1.559v-.054l-.054-.031c-.478-.193-.934-.455-1.389-.695l-.054-.031-.031.054a13.761,13.761,0,0,0-.749,1.875l-.031.054.054.031a10.078,10.078,0,0,0,2.037.37Z" transform="translate(-223.82 -136.671)" fill="#3dae2b"></path><path id="Path_14" data-name="Path 14" d="M390.473,156.492h0c-.4,0-.772.031-1.173.054a8.926,8.926,0,0,0,.216,1.173A5.522,5.522,0,0,1,390.473,156.492Z" transform="translate(-252.243 -55.716)" fill="#3dae2b"></path><path id="Path_15" data-name="Path 15" d="M363.252,277.278v-.054H363.2a14.316,14.316,0,0,1-1.736-.293l-.162-.031.085.139a9.314,9.314,0,0,0,1.9,2.084l.108.108v-.193A11.88,11.88,0,0,1,363.252,277.278Z" transform="translate(-226.404 -166.848)" fill="#3dae2b"></path><path id="Path_16" data-name="Path 16" d="M399.183,102.3a9.067,9.067,0,0,0-1.983.965c.455.085.911.193,1.366.316C398.759,103.157,398.944,102.724,399.183,102.3Z" transform="translate(-259.534 -5.722)" fill="#3dae2b"></path><path id="Path_17" data-name="Path 17" d="M397.947,96.1c-.347,0-.695.031-1.019.054a10.18,10.18,0,0,1,1.366,1.1l.347.316-.347.347a8.773,8.773,0,0,0-.857.911v.031a1.993,1.993,0,0,0-.139.162,4.506,4.506,0,0,1,.648-.031,6.15,6.15,0,1,1,0,12.3,5.945,5.945,0,0,1-3.21-.911,11.981,11.981,0,0,1-1.389.085,4.612,4.612,0,0,1-.648-.031c.031.695.085,1.42.193,2.168a8.923,8.923,0,0,0,5.055,1.559,9.033,9.033,0,1,0,0-18.065Z" transform="translate(-255.381)" fill="#3dae2b"></path><path id="Path_18" data-name="Path 18" d="M427.02,104.605c.193-.216.37-.424.563-.617a14.883,14.883,0,0,0-1.335-.988,10.423,10.423,0,0,0-.749,1.5c.4.162.8.316,1.2.509A2.727,2.727,0,0,1,427.02,104.605Z" transform="translate(-285.65 -6.368)" fill="#3dae2b"></path><path id="Path_19" data-name="Path 19" d="M354.9,160.523l.031.054.054-.031a11.677,11.677,0,0,1,1.312-.826l.054-.031v-.054a9.855,9.855,0,0,1-.293-1.582V158h-.054a11.563,11.563,0,0,0-1.952.54l-.054.031.031.054A8.354,8.354,0,0,0,354.9,160.523Z" transform="translate(-219.667 -57.123)" fill="#3dae2b"></path><path id="Path_20" data-name="Path 20" d="M346.674,201.8l-.054.054a12.836,12.836,0,0,0-1.366,1.312l-.054.054.054.054a16.857,16.857,0,0,0,1.5,1.127l.054.031.031-.054a12.4,12.4,0,0,1,.8-1.227l.031-.054-.031-.031a12.989,12.989,0,0,1-.934-1.173Z" transform="translate(-211.547 -97.543)" fill="#3dae2b"></path><path id="Path_21" data-name="Path 21" d="M393.42,257.082h.162l-.139-.108a5.536,5.536,0,0,1-1.227-1.389v-.031l-.108-.054v.085A12.022,12.022,0,0,0,392,257v.054h.054c.216,0,.424.031.648.031C392.949,257.082,393.181,257.082,393.42,257.082Z" transform="translate(-254.735 -147.099)" fill="#3dae2b"></path><path id="Path_22" data-name="Path 22" d="M389.721,126.182a12.192,12.192,0,0,1,.37-1.312,11.979,11.979,0,0,0-1.736-.37,13.588,13.588,0,0,0-.031,1.767A10.446,10.446,0,0,1,389.721,126.182Z" transform="translate(-251.329 -26.208)" fill="#3dae2b"></path><path id="Path_23" data-name="Path 23" d="M417.7,133.719a7.914,7.914,0,0,1,1.258-.617,7.3,7.3,0,0,0-.965-.4C417.893,133.032,417.785,133.371,417.7,133.719Z" transform="translate(-278.452 -33.776)" fill="#3dae2b"></path><path id="Path_24" data-name="Path 24" d="M345.028,228.073h-.054a14.633,14.633,0,0,1-1.335-.965L343.5,227l.031.162a8.476,8.476,0,0,0,.718,2.508l.054.139.054-.139a14.365,14.365,0,0,1,.648-1.5Z" transform="translate(-209.978 -120.799)" fill="#3dae2b"></path><path id="Path_25" data-name="Path 25" d="M361.589,130a8.785,8.785,0,0,0-1.389,1.79c.455-.139.934-.239,1.42-.347C361.589,130.965,361.589,130.486,361.589,130Z" transform="translate(-225.389 -31.284)" fill="#3dae2b"></path><path id="Path_26" data-name="Path 26" d="M370.526,189.129v-.162a6.71,6.71,0,0,1,.262-1.605l.054-.162-.139.085c-.347.216-.695.424-1.049.671l-.054.031.085.054c.239.316.478.671.749.965Z" transform="translate(-234.064 -84.07)" fill="#3dae2b"></path><path id="Path_27" data-name="Path 27" d="M372.641,222.362l-.031-.162-.085.139c-.239.347-.478.718-.695,1.1l-.031.054.054.031c.37.216.772.4,1.173.594l.139.054-.054-.139A7.025,7.025,0,0,1,372.641,222.362Z" transform="translate(-236.094 -116.369)" fill="#3dae2b"></path><path id="Path_28" data-name="Path 28" d="M344.481,176.644l.054-.031-.031-.054a12.629,12.629,0,0,1-.772-1.42l-.054-.139-.054.162a9.067,9.067,0,0,0-.424,2.539v.162l.108-.108A6.638,6.638,0,0,1,344.481,176.644Z" transform="translate(-209.701 -72.811)" fill="#3dae2b"></path></g></g><g id="Scroll_Group_16" data-name="Scroll Group 16" transform="translate(1494 147)" clip-path="url(#clip-path-3)" style="isolation: isolate"><g id="Anaconda_Logo_Stacked_RGB-2" data-name="Anaconda_Logo_Stacked_RGB" transform="translate(-115.964 -96.1)"><path id="Path_3-2" data-name="Path 3" d="M122.417,387.8c-.073-.1-.131-.2-.306-.2h-.175a.3.3,0,0,0-.306.2L116,400.06a.306.306,0,0,0,.306.451h1.587a.516.516,0,0,0,.524-.379l.9-1.965h5.444l.9,1.965a.529.529,0,0,0,.524.379h1.587a.3.3,0,0,0,.306-.451Zm-2.271,8.355,1.79-3.974h.073l1.834,3.974Z" transform="translate(0 -249.068)" fill="#16222f"></path><path id="Path_4-2" data-name="Path 4" d="M218.279,387.8h-1.659a.338.338,0,0,0-.335.335v7.5h-.029l-7.569-8.035h-.451a.329.329,0,0,0-.335.335v12.227a.36.36,0,0,0,.335.335h1.659a.338.338,0,0,0,.335-.335v-7.8h.029l7.6,8.326h.437a.329.329,0,0,0,.335-.335V388.124A.35.35,0,0,0,218.279,387.8Z" transform="translate(-78.554 -249.068)" fill="#16222f"></path><path id="Path_5-2" data-name="Path 5" d="M297.4,387.8c-.073-.1-.131-.2-.306-.2h-.16a.3.3,0,0,0-.306.2L291,400.06a.306.306,0,0,0,.306.451h1.587a.516.516,0,0,0,.524-.379l.9-1.965h5.444l.9,1.965a.529.529,0,0,0,.524.379h1.587c.277,0,.437-.233.306-.451Zm-2.256,8.355,1.79-3.974h.073l1.834,3.974Z" transform="translate(-149.526 -249.068)" fill="#16222f"></path><path id="Path_6-2" data-name="Path 6" d="M383.9,397.351a.334.334,0,0,0-.451,0,4.309,4.309,0,0,1-2.795,1.034,4.217,4.217,0,0,1-.029-8.428,4.327,4.327,0,0,1,2.795,1.063.308.308,0,0,0,.451,0l1.106-1.135a.336.336,0,0,0-.029-.495,6.149,6.149,0,0,0-4.382-1.688,6.536,6.536,0,1,0,0,13.072,6.2,6.2,0,0,0,4.425-1.761.349.349,0,0,0,.029-.495Z" transform="translate(-220.476 -249.153)" fill="#16222f"></path><path id="Path_7-2" data-name="Path 7" d="M462.907,387.6a6.536,6.536,0,1,0,6.536,6.565A6.508,6.508,0,0,0,462.907,387.6Zm0,10.728a4.163,4.163,0,0,1,0-8.326,4.163,4.163,0,1,1,0,8.326Z" transform="translate(-290.881 -249.068)" fill="#16222f"></path><path id="Path_8-2" data-name="Path 8" d="M570.179,387.8h-1.66a.338.338,0,0,0-.335.335v7.5h-.029l-7.569-8.035h-.451a.329.329,0,0,0-.335.335v12.227a.36.36,0,0,0,.335.335h1.659a.338.338,0,0,0,.335-.335v-7.8h.029l7.6,8.326h.437a.329.329,0,0,0,.335-.335V388.124A.386.386,0,0,0,570.179,387.8Z" transform="translate(-379.23 -249.068)" fill="#16222f"></path><path id="Path_9-2" data-name="Path 9" d="M653.758,389h-4.323a.36.36,0,0,0-.335.335v12.023a.329.329,0,0,0,.335.335h4.323a6.347,6.347,0,1,0,0-12.693Zm-.2,10.5h-2.1v-8.3h2.067a4.15,4.15,0,0,1,.029,8.3Z" transform="translate(-455.531 -250.264)" fill="#16222f"></path><path id="Path_10-2" data-name="Path 10" d="M737.522,400.431l-5.6-12.227c-.073-.1-.131-.2-.306-.2h-.175a.3.3,0,0,0-.306.2L725.5,400.431a.306.306,0,0,0,.306.451h1.587a.516.516,0,0,0,.524-.378l.9-1.965h5.444l.9,1.965a.529.529,0,0,0,.524.378h1.587A.3.3,0,0,0,737.522,400.431Zm-7.831-3.93,1.791-3.974h.073l1.82,3.974Z" transform="translate(-520.779 -249.41)" fill="#16222f"></path><path id="Path_11-2" data-name="Path 11" d="M823.544,468.421h.1a.078.078,0,0,0,.073-.073v-.335h.2l.131.379c0,.029.029.029.073.029h.131a.078.078,0,0,0,.073-.073c-.073-.1-.1-.233-.175-.335a.331.331,0,0,0,.233-.335.367.367,0,0,0-.378-.378h-.437a.078.078,0,0,0-.073.073v.961C823.529,468.421,823.529,468.421,823.544,468.421Zm.175-.888H824a.121.121,0,0,1,.131.131.141.141,0,0,1-.131.131h-.277Z" transform="translate(-604.545 -317.167)" fill="#16222f"></path><path id="Path_12-2" data-name="Path 12" d="M819.863,466.125a1.041,1.041,0,0,0,1.063-1.063,1.063,1.063,0,1,0-1.062,1.063Zm0-1.965a.859.859,0,1,1-.859.859A.89.89,0,0,1,819.863,464.16Z" transform="translate(-600.529 -314.347)" fill="#16222f"></path><path id="Path_13-2" data-name="Path 13" d="M362.59,248.771v-.1a17.667,17.667,0,0,1,.262-2.94v-.1l-.1-.058c-.9-.364-1.761-.859-2.62-1.31l-.1-.058-.058.1a25.958,25.958,0,0,0-1.412,3.537l-.058.1.1.058a19.011,19.011,0,0,0,3.843.7Z" transform="translate(-207.232 -126.542)" fill="#3dae2b"></path><path id="Path_14-2" data-name="Path 14" d="M391.513,156.508h0c-.757,0-1.456.058-2.213.1a16.84,16.84,0,0,0,.408,2.213A10.417,10.417,0,0,1,391.513,156.508Z" transform="translate(-233.548 -51.587)" fill="#3dae2b"></path><path id="Path_15-2" data-name="Path 15" d="M364.983,277.613v-.1h-.1a27.02,27.02,0,0,1-3.275-.553l-.306-.058.16.262a17.572,17.572,0,0,0,3.581,3.93l.2.2v-.364A22.414,22.414,0,0,1,364.983,277.613Z" transform="translate(-209.624 -154.482)" fill="#3dae2b"></path><path id="Path_16-2" data-name="Path 16" d="M400.941,102.3a17.1,17.1,0,0,0-3.741,1.82c.859.16,1.718.364,2.577.6C400.14,103.916,400.49,103.1,400.941,102.3Z" transform="translate(-240.298 -5.297)" fill="#3dae2b"></path><path id="Path_17-2" data-name="Path 17" d="M402.6,96.1c-.655,0-1.31.058-1.922.1a19.2,19.2,0,0,1,2.577,2.082l.655.6-.655.655a16.545,16.545,0,0,0-1.616,1.718v.058a3.754,3.754,0,0,0-.262.306,8.5,8.5,0,0,1,1.223-.058,11.6,11.6,0,0,1,0,23.2,11.215,11.215,0,0,1-6.055-1.718,22.6,22.6,0,0,1-2.62.16,8.7,8.7,0,0,1-1.223-.058c.058,1.31.16,2.678.364,4.09a16.831,16.831,0,0,0,9.534,2.94,17.038,17.038,0,1,0,0-34.077Z" transform="translate(-236.454)" fill="#3dae2b"></path><path id="Path_18-2" data-name="Path 18" d="M428.368,106.028c.364-.408.7-.8,1.063-1.165A28.077,28.077,0,0,0,426.912,103a19.66,19.66,0,0,0-1.412,2.824c.757.306,1.514.6,2.271.961A5.142,5.142,0,0,1,428.368,106.028Z" transform="translate(-264.479 -5.896)" fill="#3dae2b"></path><path id="Path_19-2" data-name="Path 19" d="M355.7,162.76l.058.1.1-.058a22.034,22.034,0,0,1,2.475-1.558l.1-.058v-.1a18.6,18.6,0,0,1-.553-2.984V158h-.1a21.808,21.808,0,0,0-3.683,1.019l-.1.058.058.1A15.756,15.756,0,0,0,355.7,162.76Z" transform="translate(-203.387 -52.89)" fill="#3dae2b"></path><path id="Path_20-2" data-name="Path 20" d="M347.98,201.8l-.1.1a24.214,24.214,0,0,0-2.576,2.475l-.1.1.1.1a31.8,31.8,0,0,0,2.824,2.125l.1.058.058-.1a23.376,23.376,0,0,1,1.514-2.314l.058-.1-.058-.058a24.5,24.5,0,0,1-1.761-2.213Z" transform="translate(-195.868 -90.314)" fill="#3dae2b"></path><path id="Path_21-2" data-name="Path 21" d="M394.678,258.484h.306l-.262-.2a10.443,10.443,0,0,1-2.314-2.62V255.6l-.2-.1v.16a22.681,22.681,0,0,0-.2,2.678v.1h.1c.407,0,.8.058,1.223.058C393.79,258.484,394.227,258.484,394.678,258.484Z" transform="translate(-235.855 -136.197)" fill="#3dae2b"></path><path id="Path_22-2" data-name="Path 22" d="M390.972,127.673a23.009,23.009,0,0,1,.7-2.475,22.6,22.6,0,0,0-3.275-.7,25.636,25.636,0,0,0-.058,3.333A19.7,19.7,0,0,1,390.972,127.673Z" transform="translate(-232.702 -24.266)" fill="#3dae2b"></path><path id="Path_23-2" data-name="Path 23" d="M417.7,134.621a14.929,14.929,0,0,1,2.373-1.165,13.773,13.773,0,0,0-1.82-.757C418.064,133.326,417.86,133.966,417.7,134.621Z" transform="translate(-257.814 -31.272)" fill="#3dae2b"></path><path id="Path_24-2" data-name="Path 24" d="M346.382,229.023h-.1a27.607,27.607,0,0,1-2.518-1.82l-.262-.2.058.306a15.987,15.987,0,0,0,1.354,4.731l.1.262.1-.262a27.086,27.086,0,0,1,1.223-2.824Z" transform="translate(-194.415 -111.846)" fill="#3dae2b"></path><path id="Path_25-2" data-name="Path 25" d="M362.82,130a16.571,16.571,0,0,0-2.62,3.377c.859-.262,1.761-.451,2.678-.655C362.82,131.82,362.82,130.917,362.82,130Z" transform="translate(-208.684 -28.965)" fill="#3dae2b"></path><path id="Path_26-2" data-name="Path 26" d="M371.347,190.839v-.306a12.66,12.66,0,0,1,.495-3.028l.1-.306-.262.16c-.655.408-1.31.8-1.98,1.266l-.1.058.16.1c.451.6.9,1.266,1.412,1.82Z" transform="translate(-216.716 -77.839)" fill="#3dae2b"></path><path id="Path_27-2" data-name="Path 27" d="M373.387,222.506l-.058-.306-.16.262c-.451.655-.9,1.354-1.31,2.082l-.058.1.1.058c.7.408,1.456.757,2.212,1.121l.262.1-.1-.262A13.253,13.253,0,0,1,373.387,222.506Z" transform="translate(-218.596 -107.744)" fill="#3dae2b"></path><path id="Path_28-2" data-name="Path 28" d="M345.616,178.1l.1-.058-.058-.1a23.821,23.821,0,0,1-1.456-2.678l-.1-.262-.1.306a17.1,17.1,0,0,0-.8,4.789v.306l.2-.2A12.523,12.523,0,0,1,345.616,178.1Z" transform="translate(-194.159 -67.415)" fill="#3dae2b"></path></g></g></g></g></svg> 