<?xml version="1.0" encoding="UTF-8"?> <svg xmlns="http://www.w3.org/2000/svg" id="Group_25" data-name="Group 25" width="365" height="250" viewBox="0 0 365 250"><rect id="Rectangle_7" data-name="Rectangle 7" width="365" height="250" fill="#121c2e"></rect><g id="Group_24" data-name="Group 24" transform="translate(-2 -3)"><circle id="Ellipse_4" data-name="Ellipse 4" cx="29" cy="29" r="29" transform="translate(58 49)" fill="#1f73d1"></circle><ellipse id="Ellipse_5" data-name="Ellipse 5" cx="29.5" cy="29" rx="29.5" ry="29" transform="translate(157 49)" fill="#1f73d1"></ellipse><path id="Polygon_1" data-name="Polygon 1" d="M13.018,0,26.036,13.321H0Z" transform="translate(143.781 64.857) rotate(90)" fill="#fff"></path><text id="Data_Collection" data-name="Data Collection" transform="translate(87 27)" fill="#fff" font-size="9" font-family="OpenSans-Semibold, Open Sans" font-weight="600"><tspan x="-10" y="0">Data</tspan><tspan x="-21" y="13">Collection</tspan></text><text id="Data_Preprocessing" data-name="Data Preprocessing" transform="translate(186 27)" fill="#fff" font-size="9" font-family="OpenSans-Semibold, Open Sans" font-weight="600"><tspan x="-10" y="0">Data</tspan><tspan x="-30" y="13">Preprocessing</tspan></text><g id="Group_12" data-name="Group 12" transform="translate(70.413 60.793)"><path id="Path_4" data-name="Path 4" d="M140,432.9l13.319,3.884v-3.426L140,429.476Z" transform="translate(-136.526 -402.212)" fill="#fff"></path><path id="Path_5" data-name="Path 5" d="M372.069,429.48l-13.319,3.885v3.426l13.319-3.884Z" transform="translate(-340.799 -402.215)" fill="#fff"></path><path id="Path_6" data-name="Path 6" d="M183.75,28.566h2.316L183.75,26.25Z" transform="translate(-177.38 -25.671)" fill="#fff"></path><path id="Path_7" data-name="Path 7" d="M568.75,28.566h2.316L568.75,26.25Z" transform="translate(-536.901 -25.671)" fill="#fff"></path><path id="Path_8" data-name="Path 8" d="M410.624,21.553H406.57V17.5h-5.212V30.24h3.474V31.4a1.739,1.739,0,0,1-1.737,1.737h-1.737a2.9,2.9,0,0,0-2.9,2.9v.918l-1.328-1.328-.819.819,2.726,2.726,2.726-2.726-.819-.819-1.328,1.328V36.03a1.739,1.739,0,0,1,1.737-1.737H403.1a2.9,2.9,0,0,0,2.9-2.9V30.24h4.633ZM403.1,20.4h2.316v1.158H403.1Zm5.791,8.107H403.1V27.344h5.791Zm0-2.316H403.1V25.028h5.791Zm0-2.316H403.1V22.712h5.791Z" transform="translate(-375.88 -17.5)" fill="#fff"></path><path id="Path_9" data-name="Path 9" d="M155.8,354.29l.819.819-2.726,2.726-2.726-2.726.819-.819,1.328,1.328v-3.066L140,356.436l13.9,4.053,13.9-4.053-13.319-3.884v3.066Z" transform="translate(-136.522 -330.378)" fill="#fff"></path><path id="Path_10" data-name="Path 10" d="M284.633,39.509l.579.169V30.244h4.053V21.558h-4.053V17.5H280v12.74h4.053v9.434Zm.579-11h-1.158V27.349h1.158Zm2.316,0H286.37V27.349h1.158ZM281.737,20.4h2.316v1.158h-2.316Zm0,2.316h5.791v1.158h-5.791Zm0,2.316h5.791V26.19h-5.791Zm1.158,3.474h-1.158V27.349H282.9Z" transform="translate(-267.261 -17.504)" fill="#fff"></path><path id="Path_11" data-name="Path 11" d="M92.134,31.4a2.9,2.9,0,0,0,2.9,2.9h1.737A1.739,1.739,0,0,1,98.5,36.03v.918l-1.328-1.328-.819.819,2.726,2.726,2.726-2.726-.819-.819-1.328,1.328V36.03a2.9,2.9,0,0,0-2.9-2.9H95.03A1.739,1.739,0,0,1,93.293,31.4V30.24h3.474V21.553H92.714V17.5H87.5V30.24h4.633Zm-2.9-11h2.316v1.158H89.239Zm0,2.316H95.03V23.87H89.239Zm0,2.316H95.03v1.158H89.239Zm0,2.316H95.03V28.5H89.239Z" transform="translate(-87.502 -17.5)" fill="#fff"></path><path id="Path_12" data-name="Path 12" d="M376.25,28.566h2.316L376.25,26.25Z" transform="translate(-357.141 -25.671)" fill="#fff"></path></g><g id="Group_13" data-name="Group 13" transform="translate(169.287 60.793)"><path id="Path_16" data-name="Path 16" d="M137.331,178.981l1.729-3a.576.576,0,0,0-.211-.787l-.877-.507a6.174,6.174,0,0,0,0-1.91l.877-.507a.576.576,0,0,0,.211-.787l-1.729-3a.576.576,0,0,0-.787-.211l-.881.508h0a6.261,6.261,0,0,0-1.651-.957v-1.009a.576.576,0,0,0-.576-.576h-3.458a.576.576,0,0,0-.576.576v1.009a6.257,6.257,0,0,0-1.651.961l-.881-.508h0a.576.576,0,0,0-.787.211l-1.729,3a.576.576,0,0,0,.211.787l.877.507c-.02.126-.032.252-.044.379h-6.945a.576.576,0,0,0-.576.576v7.25l-.745-.745-.815.815,1.729,1.729a.577.577,0,0,0,.815,0l1.729-1.729-.815-.815-.745.745v-6.677H125.4c.012.126.024.252.044.379l-.877.507a.576.576,0,0,0-.211.787l1.729,3a.576.576,0,0,0,.787.211l.881-.508h0a6.264,6.264,0,0,0,1.651.958v1.009a.576.576,0,0,0,.576.576h3.458a.576.576,0,0,0,.576-.576v-1.009a6.262,6.262,0,0,0,1.651-.96l.881.508h0a.576.576,0,0,0,.787-.21Zm-5.624-3.515a1.729,1.729,0,1,1,1.222-.506A1.729,1.729,0,0,1,131.708,175.466Z" transform="translate(-114.42 -156.45)" fill="#fff"></path><path id="Path_17" data-name="Path 17" d="M106.35,438.818l-.815.815.745.745h-6.1v-2.305a.576.576,0,0,0-.576-.576H88.078a.576.576,0,0,0-.576.576v5.763a.576.576,0,0,0,.576.576H99.6a.576.576,0,0,0,.576-.576v-2.305h6.1l-.745.745.815.815,1.729-1.729h0a.577.577,0,0,0,0-.815Zm-9.628,3.865H89.807v-1.152h6.915Zm1.153-2.3H90.959v-1.153h6.915Z" transform="translate(-87.502 -409.837)" fill="#fff"></path><path id="Path_18" data-name="Path 18" d="M88.076,24.414H99.6a.576.576,0,0,0,.576-.576V21.533h6.1l-.745.745.815.815,1.729-1.729h0a.577.577,0,0,0,0-.815l-1.729-1.729-.815.815.745.745h-6.1V18.075A.576.576,0,0,0,99.6,17.5H88.076a.576.576,0,0,0-.576.576v5.763a.576.576,0,0,0,.576.576Zm2.881-5.186h6.915V20.38H90.958Zm-1.153,2.305H96.72v1.153H89.805Z" transform="translate(-87.5 -17.499)" fill="#fff"></path><path id="Path_19" data-name="Path 19" d="M432.1,437.5H420.576a.576.576,0,0,0-.576.576v5.763a.576.576,0,0,0,.576.576H432.1a.576.576,0,0,0,.576-.576v-5.763a.576.576,0,0,0-.576-.576Zm-2.881,5.186h-6.915v-1.152h6.915Zm1.153-2.3h-6.915v-1.152h6.915Z" transform="translate(-398.102 -409.84)" fill="#fff"></path><path id="Path_20" data-name="Path 20" d="M432.1,17.5H420.576a.576.576,0,0,0-.576.576v5.763a.576.576,0,0,0,.576.576h7.491v9.8h-2.643l.745-.745-.815-.815-1.729,1.729h0a.577.577,0,0,0,0,.815l1.729,1.729.815-.815-.745-.745h3.219a.576.576,0,0,0,.576-.576V24.415H432.1a.576.576,0,0,0,.576-.576V18.076a.576.576,0,0,0-.576-.576Zm-2.881,5.186h-6.915V21.534h6.915Zm1.153-2.305h-6.915V19.229h6.915Z" transform="translate(-398.102 -17.5)" fill="#fff"></path></g><circle id="Ellipse_8" data-name="Ellipse 8" cx="29.5" cy="29.5" r="29.5" transform="translate(256 148)" fill="#1f73d1"></circle><circle id="Ellipse_9" data-name="Ellipse 9" cx="29.5" cy="29.5" r="29.5" transform="translate(157 148)" fill="#1f73d1"></circle><path id="Polygon_2" data-name="Polygon 2" d="M13.018,0,26.036,13.321H0Z" transform="translate(242.654 64.857) rotate(90)" fill="#fff"></path><path id="Polygon_4" data-name="Polygon 4" d="M13.018,0,26.036,13.321H0Z" transform="translate(229.333 190.036) rotate(-90)" fill="#fff"></path><path id="Polygon_3" data-name="Polygon 3" d="M13.018,0,26.036,13.321H0Z" transform="translate(298.26 134.158) rotate(180)" fill="#fff"></path><path id="Polygon_5" data-name="Polygon 5" d="M13.018,0,26.036,13.321H0Z" transform="translate(130.46 190.036) rotate(-90)" fill="#fff"></path><text id="Model_Training" data-name="Model Training" transform="translate(286 27)" fill="#fff" font-size="9" font-family="OpenSans-Semibold, Open Sans" font-weight="600"><tspan x="-13" y="0">Model</tspan><tspan x="-17" y="13">Training</tspan></text><text id="Model_Optimization" data-name="Model Optimization" transform="translate(287 220)" fill="#fff" font-size="9" font-family="OpenSans-Semibold, Open Sans" font-weight="600"><tspan x="-13" y="0">Model</tspan><tspan x="-28" y="13">Optimization</tspan></text><text id="Content_Generation" data-name="Content Generation" transform="translate(186 223)" fill="#fff" font-size="9" font-family="OpenSans-Semibold, Open Sans" font-weight="600"><tspan x="-17" y="0">Content</tspan><tspan x="-24" y="13">Generation</tspan></text><text id="Evaluation" transform="translate(64 223)" fill="#fff" font-size="9" font-family="OpenSans-Semibold, Open Sans" font-weight="600" opacity="0.9"><tspan x="0" y="0">Evaluation</tspan></text><g id="Group_15" data-name="Group 15" transform="translate(256.347 48.592)"><ellipse id="Ellipse_6" data-name="Ellipse 6" cx="29.5" cy="29" rx="29.5" ry="29" transform="translate(-0.347 0.408)" fill="#1f73d1"></ellipse><g id="Group_14" data-name="Group 14" transform="translate(11.814 12.201)"><path id="Path_21" data-name="Path 21" d="M116.036,32.871a17.319,17.319,0,0,0-16.5,12.066l-1.023-.157h0a.431.431,0,0,0-.466.584l1.6,4.1a.431.431,0,0,0,.736.114l2.742-3.432a.431.431,0,0,0-.262-.686l-.952-.145h0a14.973,14.973,0,1,1,3.4,15.224,1.175,1.175,0,0,0-1.81.133,1.215,1.215,0,0,0,.141,1.544,17.287,17.287,0,1,0,12.39-29.341Z" transform="translate(-98.017 -32.871)" fill="#fff"></path><path id="Path_22" data-name="Path 22" d="M260.469,128.689a7,7,0,1,0-7.576-.02,1.837,1.837,0,0,1,.819,1.567,1.175,1.175,0,0,0,1.175,1.175h3.667a1.124,1.124,0,0,0,1.12-1.132,1.818,1.818,0,0,1,.8-1.59Z" transform="translate(-239.085 -109.991)" fill="#fff"></path><path id="Path_23" data-name="Path 23" d="M307.69,391.16h4.783a.627.627,0,0,1,.584.584v.446a.584.584,0,0,1-.584.584H307.69a.627.627,0,0,1-.584-.584v-.446A.584.584,0,0,1,307.69,391.16Z" transform="translate(-292.48 -366.097)" fill="#fff"></path><path id="Path_24" data-name="Path 24" d="M307.69,353.59h4.783a.627.627,0,0,1,.584.584v.446a.584.584,0,0,1-.584.584H307.69a.627.627,0,0,1-.584-.584v-.446A.584.584,0,0,1,307.69,353.59Z" transform="translate(-292.48 -331.155)" fill="#fff"></path><path id="Path_25" data-name="Path 25" d="M326.361,429.815a2.006,2.006,0,0,0,1.685-1.077H324.52a2,2,0,0,0,1.841,1.077Z" transform="translate(-308.675 -401.046)" fill="#fff"></path></g></g><g id="Group_16" data-name="Group 16" transform="translate(267.258 159.215)"><path id="Path_26" data-name="Path 26" d="M202.32,136.324a.257.257,0,0,1-.194.155l-2.593.271a.8.8,0,0,0-.735.813v2.245a.8.8,0,0,0,.735.813l2.593.271a.258.258,0,0,1,.194.155c.116.31.232.58.348.851a.239.239,0,0,1-.039.271l-1.664,2.013a.93.93,0,0,0,.077,1.122l1.587,1.587a.784.784,0,0,0,1.084.039l2.051-1.626a.229.229,0,0,1,.271-.039,3.285,3.285,0,0,0,.851.348.257.257,0,0,1,.155.194l.271,2.593a.8.8,0,0,0,.813.735h2.245a.8.8,0,0,0,.813-.735l.271-2.593a.258.258,0,0,1,.155-.194c.31-.116.58-.232.851-.348a.239.239,0,0,1,.271.039l2.013,1.664a.824.824,0,0,0,1.084-.039l1.587-1.587a.784.784,0,0,0,.039-1.084l-1.626-2.09a.229.229,0,0,1-.039-.271,3.283,3.283,0,0,0,.348-.851.257.257,0,0,1,.194-.155l2.593-.271a.8.8,0,0,0,.735-.813v-2.245a.8.8,0,0,0-.735-.813l-2.593-.271a.258.258,0,0,1-.194-.155c-.116-.31-.232-.58-.348-.851a.239.239,0,0,1,.039-.271l1.664-2.013a.824.824,0,0,0-.039-1.084l-1.587-1.587a.784.784,0,0,0-1.084-.039l-2.051,1.626a.229.229,0,0,1-.271.039,3.283,3.283,0,0,0-.851-.348.257.257,0,0,1-.155-.194l-.271-2.632a.8.8,0,0,0-.813-.735h-2.245a.8.8,0,0,0-.813.735l-.271,2.593a.258.258,0,0,1-.155.194c-.31.116-.58.232-.851.348a.239.239,0,0,1-.271-.039l-2.013-1.664a.824.824,0,0,0-1.084.039l-1.587,1.587a.784.784,0,0,0-.039,1.084l1.664,2.013a.229.229,0,0,1,.039.271,6.457,6.457,0,0,0-.425.929Zm6.928-1.742a4.1,4.1,0,1,1-4.1,4.1A4.1,4.1,0,0,1,209.248,134.582Z" transform="translate(-190.863 -121.164)" fill="#fff"></path><path id="Path_27" data-name="Path 27" d="M115.646,260.428a15.479,15.479,0,0,1-7.934,5.922,15.324,15.324,0,0,1-9.676,0,15.1,15.1,0,0,1-7.586-5.689,14.671,14.671,0,0,1-2.632-8.9V251.6a1.917,1.917,0,1,0-3.832.116,18.441,18.441,0,0,0,3.948,10.8,17.718,17.718,0,0,0,20.474,5.535,16.719,16.719,0,0,0,8.283-6.928.61.61,0,0,0-.194-.813.579.579,0,0,0-.851.116Z" transform="translate(-83.986 -234.276)" fill="#fff"></path><path id="Path_28" data-name="Path 28" d="M171.745,32.692a17.591,17.591,0,0,0-20.436-5.5,17.392,17.392,0,0,0-8.244,7.005.543.543,0,0,0,.155.7.5.5,0,0,0,.7-.116,16.024,16.024,0,0,1,7.973-5.96,15.443,15.443,0,0,1,9.715,0,15.009,15.009,0,0,1,10.218,14.63v.155a1.917,1.917,0,0,0,3.832-.116,17.96,17.96,0,0,0-3.909-10.8Z" transform="translate(-138.924 -25.93)" fill="#fff"></path></g><g id="Group_17" data-name="Group 17" transform="translate(169.287 161)"><path id="Path_29" data-name="Path 29" d="M106.977,161.013a3.306,3.306,0,0,0,3.306,3.3h5.565v-.756a1.866,1.866,0,0,1,1.563-1.848l.359-.06-.194-.269a1.871,1.871,0,0,1,.187-2.424l1.07-1.07a1.844,1.844,0,0,1,1.317-.546,1.879,1.879,0,0,1,1.085.337l.292.224.052-.337a1.878,1.878,0,0,1,1.855-1.586h1.5a1.866,1.866,0,0,1,1.848,1.563l.06.351.262-.194a1.9,1.9,0,0,1,1.114-.359,1.844,1.844,0,0,1,1.317.546l1.07,1.07a1.873,1.873,0,0,1,.209,2.4l-.217.292.329.052a1.878,1.878,0,0,1,1.586,1.855v.755h5.565a3.311,3.311,0,0,0,3.306-3.3V144.96H106.977Zm30.823.465h-4.229a.748.748,0,1,1,0-1.5H137.8a.748.748,0,1,1,0,1.5Zm0-3.42h-6.723a.748.748,0,0,1,0-1.5H137.8a.748.748,0,1,1,0,1.5ZM124.779,146.3H137.8a.748.748,0,1,1,0,1.5H124.779a.748.748,0,1,1,0-1.5Zm0,3.42H137.8a.748.748,0,0,1,0,1.5H124.779a.748.748,0,1,1,0-1.5Zm0,3.42H137.8a.748.748,0,0,1,0,1.5H124.779a.748.748,0,1,1,0-1.5Zm-14.211,1.341v-7.436h9.515v7.428l.007.015h-.007v-.015l-2.94-4.623-2.416,3.815-1.788-2.476-2.371,3.291v.007h-.007Zm-.006,2.669h6.251a.748.748,0,0,1,0,1.5h-6.251a.748.748,0,0,1,0-1.5Zm0,2.83H114.8a.748.748,0,1,1,0,1.5h-4.236a.748.748,0,1,1,0-1.5Z" transform="translate(-106.977 -137.892)" fill="#fff"></path><path id="Path_30" data-name="Path 30" d="M138.123,45.116H110.33a3.307,3.307,0,0,0-3.307,3.306v2.267h34.406V48.423a3.306,3.306,0,0,0-3.306-3.307Zm-26.242,3.535a.748.748,0,0,1-.008-1.5h.008a.748.748,0,1,1,0,1.5Zm3.315,0a.748.748,0,1,1-.007-1.5h.008a.748.748,0,1,1,0,1.5Zm3.315,0a.748.748,0,1,1-.007-1.5h.008a.748.748,0,1,1,0,1.5Zm18.07,0H124.364a.748.748,0,0,1,0-1.5H136.58a.748.748,0,0,1,0,1.5Z" transform="translate(-107.02 -45.116)" fill="#fff"></path><path id="Path_31" data-name="Path 31" d="M266.788,327.447l-1.421-.217a5.318,5.318,0,0,0-.546-1.309l.853-1.16a.384.384,0,0,0-.037-.486l-1.07-1.07a.384.384,0,0,0-.486-.037l-1.16.853a5.05,5.05,0,0,0-1.309-.546l-.217-1.421a.378.378,0,0,0-.374-.314h-1.5a.378.378,0,0,0-.374.314l-.217,1.421a5.093,5.093,0,0,0-1.316.546l-1.152-.853a.384.384,0,0,0-.486.037l-1.07,1.07a.384.384,0,0,0-.037.486l.853,1.16a5.047,5.047,0,0,0-.546,1.309l-1.429.217a.378.378,0,0,0-.314.374v1.511a.378.378,0,0,0,.314.374l1.436.217a4.792,4.792,0,0,0,.538,1.309l-.853,1.16a.384.384,0,0,0,.037.486l1.07,1.07a.374.374,0,0,0,.486.03l1.145-.845a5.148,5.148,0,0,0,1.324.546l.217,1.421a.378.378,0,0,0,.374.314h1.5a.378.378,0,0,0,.374-.314l.217-1.421a4.992,4.992,0,0,0,1.317-.546l1.152.853a.384.384,0,0,0,.486-.037l1.07-1.07a.374.374,0,0,0,.03-.486l-.853-1.16a4.8,4.8,0,0,0,.546-1.309l1.429-.217a.378.378,0,0,0,.314-.374v-1.511a.379.379,0,0,0-.314-.374Zm-6.523,3.777a2.648,2.648,0,1,1,2.648-2.648A2.648,2.648,0,0,1,260.265,331.224Z" transform="translate(-243.061 -302.156)" fill="#fff"></path></g><g id="Group_19" data-name="Group 19" transform="translate(57.77 147.88)"><ellipse id="Ellipse_10" data-name="Ellipse 10" cx="29" cy="29.5" rx="29" ry="29.5" transform="translate(0.23 0.12)" fill="#1f73d1"></ellipse><g id="Group_18" data-name="Group 18" transform="translate(12.192 11.335)"><path id="Path_32" data-name="Path 32" d="M157.648,290.7l1.3-1.955h-2.608Z" transform="translate(-152.143 -270.398)" fill="#fff"></path><path id="Path_33" data-name="Path 33" d="M132.038,431.631l.865-.865.791.791,2.805-2.805h-5.252v4.893h6.116v-4.028l-3.67,3.67Z" transform="translate(-128.801 -400.617)" fill="#fff"></path><path id="Path_34" data-name="Path 34" d="M131.25,311.143h6.116V306.25h-1.1l-1.958,2.938-1.958-2.938h-1.1Z" transform="translate(-128.804 -286.678)" fill="#fff"></path><path id="Path_35" data-name="Path 35" d="M148.75,131.25h1.223v9.786H148.75Z" transform="translate(-145.08 -123.91)" fill="#fff"></path><path id="Path_36" data-name="Path 36" d="M183.75,131.25h1.223v9.786H183.75Z" transform="translate(-177.634 -123.91)" fill="#fff"></path><path id="Path_37" data-name="Path 37" d="M152.42,26.862a.612.612,0,0,0-.612-.612h-2.447a.612.612,0,0,0-.612.612V29.92h3.67Z" transform="translate(-145.08 -26.25)" fill="#fff"></path><path id="Path_38" data-name="Path 38" d="M148.75,96.25h3.67v1.223h-3.67Z" transform="translate(-145.08 -91.357)" fill="#fff"></path><path id="Path_39" data-name="Path 39" d="M325,34.763l-.093-.344a8.5,8.5,0,0,0-.841-2.037l-.179-.309,1.076-1.815-1.924-1.924-1.816,1.076-.309-.179a8.507,8.507,0,0,0-2.037-.842l-.345-.093-.523-2.046h-2.72l-.524,2.046-.344.093a8.5,8.5,0,0,0-2.037.842l-.31.179-1.815-1.076-1.924,1.924,1.076,1.815-.179.309a8.509,8.509,0,0,0-.842,2.037l-.093.344-2.046.524v2.72l2.046.523.093.344a8.5,8.5,0,0,0,.841,2.037l.179.309-1.076,1.815,1.924,1.924,1.815-1.076.309.179a8.508,8.508,0,0,0,2.037.842l.344.093.524,2.047h2.72L318.531,45l.344-.093a8.5,8.5,0,0,0,2.037-.842l.309-.179,1.815,1.076,1.924-1.924-1.076-1.815.179-.309a8.509,8.509,0,0,0,.841-2.037l.093-.344,2.047-.524v-2.72Zm-8.352,9.223a7.34,7.34,0,1,1,7.339-7.34A7.348,7.348,0,0,1,316.648,43.986Z" transform="translate(-291.571 -26.249)" fill="#fff"></path><path id="Path_40" data-name="Path 40" d="M373.616,87.5a6.116,6.116,0,1,0,6.116,6.116A6.123,6.123,0,0,0,373.616,87.5Zm0,11.009a4.893,4.893,0,1,1,4.893-4.893A4.9,4.9,0,0,1,373.616,98.509Z" transform="translate(-348.54 -83.219)" fill="#fff"></path><path id="Path_41" data-name="Path 41" d="M409.84,126.17a3.67,3.67,0,1,1-3.67-3.67,3.67,3.67,0,0,1,3.67,3.67" transform="translate(-381.093 -115.772)" fill="#fff"></path><path id="Path_42" data-name="Path 42" d="M118.434,78.54a9.776,9.776,0,0,1-1.666-.689l-2.024,1.2-3.267-3.267,1.2-2.024a9.74,9.74,0,0,1-.689-1.666l-2.281-.584v-4.62l2.281-.584a9.775,9.775,0,0,1,.689-1.666l-1.2-2.024,1.368-1.366h-8.031V76.724l-.285.426h1.508v7.34H97.474v-7.34h1.508l-.285-.426V61.249H96.25V94.276h25.688V80.821h-2.921Zm-11.174-.166h4.893V79.6H107.26Zm0,2.447h11.009v1.223H107.26Zm0,2.447h11.009V84.49H107.26Zm-1.223,3.311v6.475H97.474v-7.34h7.7l1.044-1.044.865.865Zm12.233,6.475H107.26V91.83h11.009Zm2.447,0h-1.223V91.83h1.223Zm0-2.447H107.26V89.383h13.456Zm0-2.447H107.26V86.937h13.456Z" transform="translate(-96.25 -58.802)" fill="#fff"></path></g></g></g></svg> 