<?xml version="1.0" encoding="UTF-8"?> <svg xmlns="http://www.w3.org/2000/svg" xmlns:xlink="http://www.w3.org/1999/xlink" width="60" height="60" viewBox="0 0 60 60"><defs><clipPath id="clip-path"><rect id="Rectangle_23" data-name="Rectangle 23" width="60" height="60" transform="translate(225 681)" fill="#fff" stroke="#707070" stroke-width="1"></rect></clipPath></defs><g id="Mask_Group_18" data-name="Mask Group 18" transform="translate(-225 -681)" clip-path="url(#clip-path)"><g id="Group_34" data-name="Group 34" transform="translate(16.77 -143)"><path id="Path_86" data-name="Path 86" d="M32.213,23.9a1.293,1.293,0,0,1-.888-.561,1.293,1.293,0,0,1,.23-1.027,1.207,1.207,0,0,0-.163-1.516l-.84-.84a1.207,1.207,0,0,0-1.516-.163,1.293,1.293,0,0,1-1.027.23,1.293,1.293,0,0,1-.561-.888,1.207,1.207,0,0,0-1.185-.955h-1.19a1.2,1.2,0,0,0-1.185.955,1.293,1.293,0,0,1-.561.888,1.293,1.293,0,0,1-1.027-.23,1.207,1.207,0,0,0-1.516.163l-.84.84a1.207,1.207,0,0,0-.163,1.516,1.293,1.293,0,0,1,.23,1.027,1.293,1.293,0,0,1-.888.561,1.207,1.207,0,0,0-.955,1.185v1.19a1.212,1.212,0,0,0,.955,1.19,1.293,1.293,0,0,1,.888.561,1.293,1.293,0,0,1-.23,1.027,1.207,1.207,0,0,0,.163,1.516l.84.84a1.207,1.207,0,0,0,1.516.163,1.293,1.293,0,0,1,1.027-.23,1.293,1.293,0,0,1,.561.888,1.207,1.207,0,0,0,1.185.955h1.19a1.2,1.2,0,0,0,1.185-.955,1.293,1.293,0,0,1,.561-.888,1.293,1.293,0,0,1,1.027.23,1.207,1.207,0,0,0,1.516-.163l.84-.84a1.207,1.207,0,0,0,.163-1.516,1.293,1.293,0,0,1-.23-1.027,1.293,1.293,0,0,1,.888-.561,1.207,1.207,0,0,0,.955-1.185v-1.19A1.2,1.2,0,0,0,32.213,23.9ZM31.9,26.231a2.44,2.44,0,0,0-1.746,1.31,2.454,2.454,0,0,0,.312,2.159l-.777.777a2.454,2.454,0,0,0-2.159-.312,2.452,2.452,0,0,0-1.31,1.746h-1.1a2.44,2.44,0,0,0-1.31-1.746,2.454,2.454,0,0,0-2.159.312l-.777-.777a2.454,2.454,0,0,0,.312-2.159,2.44,2.44,0,0,0-1.746-1.31v-1.1a2.44,2.44,0,0,0,1.746-1.31,2.454,2.454,0,0,0-.312-2.159l.777-.777a2.454,2.454,0,0,0,2.159.312,2.44,2.44,0,0,0,1.31-1.746h1.1a2.44,2.44,0,0,0,1.31,1.746,2.439,2.439,0,0,0,2.159-.312l.777.777a2.454,2.454,0,0,0-.312,2.159,2.44,2.44,0,0,0,1.746,1.31ZM25.669,22.1a3.574,3.574,0,1,0,3.574,3.574A3.577,3.577,0,0,0,25.669,22.1Zm0,5.877a2.3,2.3,0,1,1,2.3-2.3A2.307,2.307,0,0,1,25.669,27.982Zm19.978-4.755a2.44,2.44,0,0,0-2.356,1.818H36.6V21.356h5.124a.637.637,0,0,0,.638-.633V18.286a2.452,2.452,0,1,0-1.267,0v1.8H36.612V18.339a3.6,3.6,0,0,0-3.593-3.593H30.73V9.669H43.3a2.452,2.452,0,1,0,0-1.267H30.083a.637.637,0,0,0-.638.633V14.75H26.3V8.057a2.452,2.452,0,1,0-1.267,0v6.688H21.893V9.079a.633.633,0,0,0-.633-.633H18.823a2.452,2.452,0,1,0,0,1.267h1.8v5.033H18.328a3.6,3.6,0,0,0-3.593,3.593v.926H10.2V8.057a2.452,2.452,0,1,0-1.267,0V19.9a.634.634,0,0,0,.638.633H14.74v4.505H8.047a2.452,2.452,0,1,0,0,1.267h6.688V30H9.611a.638.638,0,0,0-.638.638v2.437a2.452,2.452,0,1,0,1.267,0v-1.8h4.486V33.02a3.6,3.6,0,0,0,3.593,3.593h2.288v5.076H8.037a2.452,2.452,0,1,0,0,1.267H21.255a.637.637,0,0,0,.638-.633V36.613h3.142V43.3a2.452,2.452,0,1,0,1.267,0V36.613h3.142v5.666a.637.637,0,0,0,.633.638h2.437a2.452,2.452,0,1,0,0-1.267h-1.8V36.613H33A3.6,3.6,0,0,0,36.6,33.02v-.926h4.534V43.3a2.452,2.452,0,1,0,1.267,0V31.456a.634.634,0,0,0-.638-.633H36.6V26.317h6.688a2.447,2.447,0,1,0,2.356-3.09Zm-5.1-7.3a1.18,1.18,0,1,1,1.18,1.18A1.179,1.179,0,0,1,40.542,15.926Zm5.1-8.075a1.18,1.18,0,1,1-1.18,1.18A1.179,1.179,0,0,1,45.646,7.851ZM24.489,5.7a1.18,1.18,0,1,1,1.18,1.18A1.179,1.179,0,0,1,24.489,5.7Zm-8.027,4.558a1.18,1.18,0,1,1,1.18-1.18A1.179,1.179,0,0,1,16.462,10.259ZM8.388,5.7a1.18,1.18,0,1,1,1.18,1.18A1.179,1.179,0,0,1,8.388,5.7Zm-2.7,21.158a1.18,1.18,0,1,1,1.18-1.18A1.179,1.179,0,0,1,5.691,26.859Zm5.1,8.573a1.18,1.18,0,1,1-1.18-1.18A1.179,1.179,0,0,1,10.8,35.433Zm-5.1,8.075a1.18,1.18,0,1,1,1.18-1.18A1.179,1.179,0,0,1,5.691,43.507Zm21.158,2.149a1.18,1.18,0,1,1-1.18-1.18A1.179,1.179,0,0,1,26.849,45.657ZM34.876,41.1a1.18,1.18,0,1,1-1.18,1.18A1.179,1.179,0,0,1,34.876,41.1Zm.456-8.079a2.324,2.324,0,0,1-2.322,2.322H18.328a2.324,2.324,0,0,1-2.322-2.322V18.339a2.324,2.324,0,0,1,2.322-2.322H33.009a2.324,2.324,0,0,1,2.322,2.322ZM42.95,45.657a1.18,1.18,0,1,1-1.18-1.18A1.179,1.179,0,0,1,42.95,45.657Zm2.7-18.8a1.18,1.18,0,1,1,1.18-1.18A1.179,1.179,0,0,1,45.646,26.859Z" transform="translate(213 828.75)" fill="#1c54f7"></path></g></g></svg> 