<?xml version="1.0" encoding="UTF-8"?> <svg xmlns="http://www.w3.org/2000/svg" xmlns:xlink="http://www.w3.org/1999/xlink" width="60" height="60" viewBox="0 0 60 60"><defs><clipPath id="clip-path"><rect id="Rectangle_40" data-name="Rectangle 40" width="60" height="60" transform="translate(353 503)" fill="#fff" stroke="#707070" stroke-width="1"></rect></clipPath></defs><g id="Mask_Group_30" data-name="Mask Group 30" transform="translate(-353 -503)" clip-path="url(#clip-path)"><g id="Group_77" data-name="Group 77" transform="translate(52 11)"><path id="Path_129" data-name="Path 129" d="M42.938,1H3.063A2.062,2.062,0,0,0,1,3.063v27.5a2.063,2.063,0,0,0,2.062,2.063H16.441a6.875,6.875,0,0,0,9.955,8.03l3.719,3.726a2.066,2.066,0,1,0,2.922-2.922l-3.85-3.829a6.813,6.813,0,0,0,.371-5H42.938A2.063,2.063,0,0,0,45,30.563V3.063A2.062,2.062,0,0,0,42.938,1ZM3.063,2.375H42.938a.687.687,0,0,1,.688.688V6.5H2.375V3.063A.688.688,0,0,1,3.063,2.375ZM17.5,34.688a5.5,5.5,0,1,1,5.5,5.5A5.5,5.5,0,0,1,17.5,34.688Zm14.561,7.748a.685.685,0,0,1-.969.969l-3.561-3.561a6.8,6.8,0,0,0,.969-1.031ZM42.938,31.25H28.947a6.875,6.875,0,0,0-11.894,0H3.063a.687.687,0,0,1-.687-.687V7.875h41.25V30.563A.687.687,0,0,1,42.938,31.25Z" transform="translate(308 499)" fill="#1c54f8" stroke="#fff" stroke-width="0.2"></path><path id="Path_130" data-name="Path 130" d="M23.688,6.375H36.063a.688.688,0,0,0,0-1.375H23.688a.688.688,0,0,0,0,1.375Z" transform="translate(301.125 497.75)" fill="#1c54f8" stroke="#fff" stroke-width="0.2"></path><circle id="Ellipse_1" data-name="Ellipse 1" cx="0.5" cy="0.5" r="0.5" transform="translate(319 503.006)" fill="#1c54f8" stroke="#fff" stroke-width="0.2"></circle><circle id="Ellipse_2" data-name="Ellipse 2" cx="0.5" cy="0.5" r="0.5" transform="translate(316 503.006)" fill="#1c54f8" stroke="#fff" stroke-width="0.2"></circle><ellipse id="Ellipse_3" data-name="Ellipse 3" cx="1" cy="0.5" rx="1" ry="0.5" transform="translate(313 503.006)" fill="#1c54f8" stroke="#fff" stroke-width="0.2"></ellipse><path id="Path_131" data-name="Path 131" d="M53.438,30.938H52.063V27.5a.688.688,0,0,0-1.375,0v3.438H49.313V30.25a.688.688,0,0,0-1.375,0v.688H46.563V29.563a.688.688,0,0,0-1.375,0v1.375H43.813V30.25a.688.688,0,0,0-1.375,0v.688H40.375V29.769l4.813-4.084,2.3,2.3a.688.688,0,0,0,.976,0l3.6-3.644v.406a.688.688,0,0,0,1.375,0V22.688A.687.687,0,0,0,52.75,22H50.688a.688.688,0,0,0,0,1.375h.406l-3.156,3.156-2.262-2.269a.688.688,0,0,0-.935-.034l-4.366,3.733V22.688a.688.688,0,0,0-1.375,0v8.938a.687.687,0,0,0,.688.688h13.75a.688.688,0,0,0,0-1.375Z" transform="translate(296.125 492.438)" fill="#1c54f8" stroke="#fff" stroke-width="0.2"></path><path id="Path_132" data-name="Path 132" d="M22.124,24.487v-.261a1.065,1.065,0,0,0,0-.144q0-.052,0-.1a.661.661,0,0,0-.048-.138,1.057,1.057,0,0,0-.055-.131.55.55,0,0,0-.055-.11.289.289,0,0,0,0-.069h0l-.048-.062-.062-.1a.688.688,0,0,0-.089-.11.791.791,0,0,0-.1-.117l-.076-.076-.11-.1-.117-.089-.1-.069a.323.323,0,0,1-.062-.041h-.069a.55.55,0,0,0-.11-.055l-.131-.055h-.034V17.688a.688.688,0,0,0-1.375,0v4.936h-.034l-.131.055a.55.55,0,0,0-.11.055h-.069a.323.323,0,0,1-.062.041l-.1.069-.11.089-.11.1a.784.784,0,0,0-.076.076l-.1.11-.089.117-.069.1a.323.323,0,0,1-.041.062.289.289,0,0,0,0,.069.55.55,0,0,0-.055.11c0,.041-.034.082-.055.131a1.091,1.091,0,0,0-.048.138.258.258,0,0,0,0,.1,1.065,1.065,0,0,0,0,.144v.261c0,.041-.234.117-.234.117V24.9a1.065,1.065,0,0,0,0,.144v.1a.883.883,0,0,0,.048.144l.055.124a.55.55,0,0,0,.055.11.289.289,0,0,0,0,.069l.041.048a.592.592,0,0,0,.069.11,1.671,1.671,0,0,0,.138.172l.083.1.048.041.151.124.165.124a.323.323,0,0,1,.062.041h0a.42.42,0,0,0,.083,0,2.241,2.241,0,0,0,.33.137l.131.041a1.9,1.9,0,0,0,.962,0l.131-.041a1.753,1.753,0,0,0,.33-.137h.076a.323.323,0,0,1,.062-.041l.165-.124.158-.124.034-.034.089-.1a1.671,1.671,0,0,0,.137-.172l.076-.11a.124.124,0,0,1,.034-.048.289.289,0,0,0,0-.069.55.55,0,0,0,.055-.11c0-.041.034-.082.055-.131a1.091,1.091,0,0,0,.048-.137.258.258,0,0,0,0-.1,1.065,1.065,0,0,0,0-.144v-.261c0-.041.254-.076.254-.076Zm-1.65.612-.069.048h-.069l-.1.034H19.9l-.1-.034h-.069l-.069-.048-.076-.062-.055-.062-.048-.076-.041-.076v-.083a.468.468,0,0,1,0-.1.5.5,0,0,1,0-.165.351.351,0,0,1,0-.089c0-.034,0-.062,0-.089l.041-.076a.591.591,0,0,1,.069-.11l.11-.089a.688.688,0,0,1,.11-.082h.055a.605.605,0,0,1,.234-.069h0a.6.6,0,0,1,.227.048h.055a.687.687,0,0,1,.11.083l.11.089a.591.591,0,0,1,.069.11l.041.076v.089a.351.351,0,0,1,0,.089.5.5,0,0,1,0,.165.351.351,0,0,1,0,.089V24.8l-.041.076a.247.247,0,0,1-.048.069.268.268,0,0,1-.055.069.6.6,0,0,1-.062.083Z" transform="translate(302.689 494)" fill="#1c54f8" stroke="#fff" stroke-width="0.2"></path><path id="Path_133" data-name="Path 133" d="M16.284,18.683a.69.69,0,1,0-1.2.688l.688,1.189a.69.69,0,1,0,1.2-.687Z" transform="translate(303.626 493.582)" fill="#1c54f8" stroke="#fff" stroke-width="0.2"></path><path id="Path_134" data-name="Path 134" d="M13.559,22.776l-1.189-.687a.69.69,0,1,0-.687,1.2l1.189.688a.69.69,0,1,0,.688-1.2Z" transform="translate(304.77 492.439)" fill="#1c54f8" stroke="#fff" stroke-width="0.2"></path><path id="Path_135" data-name="Path 135" d="M12.063,27H10.688a.688.688,0,0,0,0,1.375h1.375a.688.688,0,0,0,0-1.375Z" transform="translate(305.188 490.875)" fill="#1c54f8" stroke="#fff" stroke-width="0.2"></path><path id="Path_136" data-name="Path 136" d="M28,27.688a.687.687,0,0,0,.688.688h1.375a.688.688,0,0,0,0-1.375H28.688A.687.687,0,0,0,28,27.688Z" transform="translate(299.563 490.875)" fill="#1c54f8" stroke="#fff" stroke-width="0.2"></path><path id="Path_137" data-name="Path 137" d="M28.462,22.088l-1.189.688a.69.69,0,1,0,.688,1.2l1.189-.687a.69.69,0,0,0-.688-1.2Z" transform="translate(299.898 492.439)" fill="#1c54f8" stroke="#fff" stroke-width="0.2"></path><path id="Path_138" data-name="Path 138" d="M25.718,18.428a.687.687,0,0,0-.942.254l-.687,1.189a.69.69,0,0,0,1.2.688l.687-1.189a.687.687,0,0,0-.254-.942Z" transform="translate(300.814 493.583)" fill="#1c54f8" stroke="#fff" stroke-width="0.2"></path><path id="Path_139" data-name="Path 139" d="M16.312,13A10.313,10.313,0,0,0,6,23.313,10.189,10.189,0,0,0,7.856,29.2a.688.688,0,0,0,.564.3H24.232a.688.688,0,0,0,.564-.3,10.189,10.189,0,0,0,1.829-5.892A10.312,10.312,0,0,0,16.312,13Zm7.563,15.125H8.784a8.938,8.938,0,1,1,15.091,0Z" transform="translate(306.438 495.25)" fill="#1c54f8" stroke="#fff" stroke-width="0.2"></path><path id="Path_140" data-name="Path 140" d="M31.438,45a3.438,3.438,0,1,0,3.438,3.438A3.438,3.438,0,0,0,31.438,45Zm0,5.5A2.062,2.062,0,1,1,33.5,48.438,2.062,2.062,0,0,1,31.438,50.5Z" transform="translate(299.563 485.25)" fill="#1c54f8" stroke="#fff" stroke-width="0.2"></path></g></g></svg> 