<?xml version="1.0" encoding="UTF-8"?> <svg xmlns="http://www.w3.org/2000/svg" xmlns:xlink="http://www.w3.org/1999/xlink" width="60" height="60" viewBox="0 0 60 60"><defs><clipPath id="clip-path"><rect id="Rectangle_6" data-name="Rectangle 6" width="60" height="60" transform="translate(66 89)" fill="#fff" stroke="#707070" stroke-width="1"></rect></clipPath></defs><g id="Mask_Group_1" data-name="Mask Group 1" transform="translate(-66 -89)" clip-path="url(#clip-path)"><g id="Group_1" data-name="Group 1" transform="translate(-300.076 327.543)"><path id="Path_1" data-name="Path 1" d="M213.267,378.464h-6.073a.869.869,0,0,1-.614-.255l-3.4-3.4a.87.87,0,1,1,1.228-1.231l3.146,3.149h5.713a.869.869,0,1,1,0,1.737Z" transform="translate(176.609 -588.518)" fill="#1c54f8" stroke="#fff" stroke-width="0.6"></path><path id="Path_2" data-name="Path 2" d="M597.521,378.454h-6.073a.869.869,0,1,1,0-1.737h5.713l3.146-3.149a.869.869,0,0,1,1.229,1.229l-3.4,3.4A.869.869,0,0,1,597.521,378.454Z" transform="translate(-190 -588.508)" fill="#1c54f8" stroke="#fff" stroke-width="0.6"></path><path id="Path_3" data-name="Path 3" d="M148.153,336.063a2.32,2.32,0,0,1-2.31-1.357l-.109-.267c-.17-.427-.332-.83-.511-1.23l-1.942-4.339H139.59c-.355,0-.718,0-1.068.005l-.51,0a3.716,3.716,0,0,1-1.648-.374,3.3,3.3,0,0,1-1.686-2.08,4.392,4.392,0,0,1-.179-1.259v-8.7a7.112,7.112,0,0,1,1.24-4.049c1.374-2,3.245-2.45,5.133-1.24a5.537,5.537,0,0,1,.923.75l.83.83a4.886,4.886,0,0,0,3.332,1.434l1.114.03a3.014,3.014,0,0,1,1.861.7,2.5,2.5,0,0,1,.861,2.407l4.551.023,4.551-.023a2.506,2.506,0,0,1,.861-2.406,3.012,3.012,0,0,1,1.863-.7l1.114-.03a4.883,4.883,0,0,0,3.331-1.434l.83-.83a5.517,5.517,0,0,1,.923-.751c1.888-1.21,3.759-.76,5.133,1.24a7.108,7.108,0,0,1,1.241,4.049v8.7a4.392,4.392,0,0,1-.179,1.259,3.3,3.3,0,0,1-1.686,2.08,3.714,3.714,0,0,1-1.648.374l-.509,0c-.351,0-.714-.005-1.069-.005h-3.692l-1.943,4.339c-.177.4-.337.8-.507,1.219q-.054.14-.112.279a2.4,2.4,0,0,1-2.574,1.346l-.2-.01h-.054a3.244,3.244,0,0,1-2.837-1.4c-.931-1.525-.058-3.571.067-3.847l.383-.887c.648-1.5,1.265-3.052,1.862-4.552.224-.562.455-1.144.685-1.716a2.79,2.79,0,0,1,2.5-1.58h1.856a1.384,1.384,0,0,0,1.377-1.387.869.869,0,1,1,1.737,0,3.122,3.122,0,0,1-3.121,3.121h-1.805c-.085.007-.767.073-.935.492-.229.568-.46,1.148-.682,1.709-.6,1.512-1.223,3.074-1.881,4.6l-.387.9-.008.018a2.953,2.953,0,0,0-.166,2.229,1.672,1.672,0,0,0,1.43.571h.054c.081,0,.163.007.244.012.25.017.747-.016.845-.261l.109-.275c.168-.42.343-.855.534-1.283l2.172-4.853a.869.869,0,0,1,.793-.514H169.1c.362,0,.728,0,1.082.005l.507,0a1.594,1.594,0,0,0,1.66-1.216,2.632,2.632,0,0,0,.106-.76v-8.7a5.375,5.375,0,0,0-.935-3.064c-1.065-1.549-1.995-1.254-2.764-.76a3.808,3.808,0,0,0-.634.516l-.83.831a6.61,6.61,0,0,1-4.512,1.941l-1.114.03a1.271,1.271,0,0,0-.786.289c-.169.143-.565.479.011,1.52a.869.869,0,0,1-.754,1.292l-5.787.029h-.009l-5.787-.029a.869.869,0,0,1-.756-1.289c.577-1.043.181-1.38.011-1.523a1.272,1.272,0,0,0-.785-.288l-1.114-.03a6.611,6.611,0,0,1-4.513-1.942l-.829-.83a3.788,3.788,0,0,0-.634-.516c-.77-.494-1.7-.788-2.765.76a5.379,5.379,0,0,0-.934,3.064v8.7a2.652,2.652,0,0,0,.105.76,1.591,1.591,0,0,0,1.646,1.216H138l.508,0c.354,0,.72-.005,1.082-.005h4.258a.869.869,0,0,1,.793.513l2.172,4.853c.193.434.369.869.539,1.294l.106.264c.1.245.6.278.845.261.083-.005.163-.009.245-.012h.054a1.673,1.673,0,0,0,1.43-.571,2.962,2.962,0,0,0-.167-2.231l-.008-.016-.386-.895c-.66-1.526-1.282-3.09-1.883-4.6-.223-.559-.453-1.14-.681-1.7-.168-.419-.85-.485-.935-.492h-1.811a3.122,3.122,0,0,1-3.119-3.123.869.869,0,0,1,1.737,0,1.383,1.383,0,0,0,1.383,1.383h1.856a2.787,2.787,0,0,1,2.5,1.58c.229.57.46,1.15.683,1.711.6,1.5,1.215,3.054,1.864,4.557l.382.887c.125.277,1,2.323.067,3.847a3.251,3.251,0,0,1-2.837,1.4h-.054c-.068,0-.136.006-.2.01C148.326,336.061,148.238,336.063,148.153,336.063Z" transform="translate(241.319 -529.118)" fill="#1c54f8" stroke="#fff" stroke-width="0.6"></path><path id="Path_4" data-name="Path 4" d="M155.3,171.613a3.657,3.657,0,1,1,3.656-3.656A3.657,3.657,0,0,1,155.3,171.613Zm0-5.575a1.919,1.919,0,1,0,1.919,1.919,1.919,1.919,0,0,0-1.919-1.919Z" transform="translate(225.108 -390.843)" fill="#1c54f8" stroke="#fff" stroke-width="0.6"></path><path id="Path_5" data-name="Path 5" d="M717.347,171.613A3.657,3.657,0,1,1,721,167.957,3.657,3.657,0,0,1,717.347,171.613Zm0-5.575a1.919,1.919,0,1,0,1.919,1.919,1.919,1.919,0,0,0-1.919-1.919Z" transform="translate(-306.426 -390.843)" fill="#1c54f8" stroke="#fff" stroke-width="0.6"></path><path id="Path_6" data-name="Path 6" d="M462.164,455.061H459.4a.869.869,0,0,1-.869-.869V437.249a.869.869,0,0,1,1.737,0v16.075H461.3V437.249a.869.869,0,0,1,1.737,0v16.943A.869.869,0,0,1,462.164,455.061Z" transform="translate(-65.12 -648.151)" fill="#1c54f8" stroke="#fff" stroke-width="0.6"></path><path id="Path_7" data-name="Path 7" d="M255.829,440.184a.848.848,0,0,1-.2-.023.869.869,0,0,1-.652-1.042l.577-2.48a.869.869,0,0,1,1.692.393l-.577,2.48A.869.869,0,0,1,255.829,440.184Z" transform="translate(127.4 -647.76)" fill="#1c54f8" stroke="#fff" stroke-width="0.6"></path><path id="Path_8" data-name="Path 8" d="M703.846,440.179a.869.869,0,0,1-.845-.672l-.576-2.48a.869.869,0,1,1,1.693-.393l.577,2.478a.869.869,0,0,1-.651,1.042A.854.854,0,0,1,703.846,440.179Z" transform="translate(-295.751 -647.755)" fill="#1c54f8" stroke="#fff" stroke-width="0.6"></path><path id="Path_9" data-name="Path 9" d="M97.214,305.023h-6.65a6,6,0,0,1-5.417-3.011,6.5,6.5,0,0,1-.791-2.816L84,283.515a.869.869,0,0,1,1.737-.04l.359,15.684v.015a4.8,4.8,0,0,0,.6,2.051,4.37,4.37,0,0,0,3.917,2.063h6.6a.869.869,0,0,1,0,1.737Z" transform="translate(289.08 -502.744)" fill="#1c54f8" stroke="#fff" stroke-width="0.6"></path><path id="Path_10" data-name="Path 10" d="M198.589,668.927a.869.869,0,0,1-.869-.869v-4.03a.869.869,0,1,1,1.737,0v4.03A.869.869,0,0,1,198.589,668.927Z" transform="translate(181.53 -862.618)" fill="#1c54f8" stroke="#fff" stroke-width="0.6"></path><path id="Path_11" data-name="Path 11" d="M129.175,742.729h-8.456a.869.869,0,0,1-.869-.869,4.475,4.475,0,0,1,4.47-4.47h1.253a4.475,4.475,0,0,1,4.47,4.47A.869.869,0,0,1,129.175,742.729Zm-7.446-1.737h6.436a2.738,2.738,0,0,0-2.591-1.864H124.32A2.738,2.738,0,0,0,121.729,740.991Z" transform="translate(255.172 -932.818)" fill="#1c54f8" stroke="#fff" stroke-width="0.6"></path><path id="Path_12" data-name="Path 12" d="M664.035,305.033h-6.617a.869.869,0,1,1,0-1.737h6.6a4.35,4.35,0,0,0,3.947-2.117,4.761,4.761,0,0,0,.574-2v-.015l.359-15.682a.869.869,0,1,1,1.737.04l-.36,15.68a6.5,6.5,0,0,1-.791,2.816,6,6,0,0,1-5.417,3.011Z" transform="translate(-252.389 -502.754)" fill="#1c54f8" stroke="#fff" stroke-width="0.6"></path><path id="Path_13" data-name="Path 13" d="M771.149,668.927a.869.869,0,0,1-.869-.869v-4.03a.869.869,0,1,1,1.737,0v4.03A.869.869,0,0,1,771.149,668.927Z" transform="translate(-359.944 -862.618)" fill="#1c54f8" stroke="#fff" stroke-width="0.6"></path><path id="Path_14" data-name="Path 14" d="M693.269,742.729a.869.869,0,0,1-.869-.869,4.476,4.476,0,0,1,4.471-4.47h1.253a4.475,4.475,0,0,1,4.47,4.47.869.869,0,0,1-.869.869Zm1.01-1.737h6.435a2.738,2.738,0,0,0-2.591-1.864h-1.253a2.738,2.738,0,0,0-2.592,1.864Z" transform="translate(-286.292 -932.818)" fill="#1c54f8" stroke="#fff" stroke-width="0.6"></path></g></g></svg> 