<?xml version="1.0" encoding="UTF-8"?> <svg xmlns="http://www.w3.org/2000/svg" xmlns:xlink="http://www.w3.org/1999/xlink" width="60" height="60" viewBox="0 0 60 60"><defs><clipPath id="clip-path"><rect id="Rectangle_8" data-name="Rectangle 8" width="60" height="60" transform="translate(438 89)" fill="#fff" stroke="#707070" stroke-width="1"></rect></clipPath></defs><g id="Mask_Group_3" data-name="Mask Group 3" transform="translate(-438 -89)" clip-path="url(#clip-path)"><g id="Group_14" data-name="Group 14" transform="translate(48.331 394.116)"><g id="Group_13" data-name="Group 13" transform="translate(398.4 -297.009)"><g id="Group_4" data-name="Group 4" transform="translate(4.857 6.407)"><path id="Path_17" data-name="Path 17" d="M78.974,102.613H74.139a.493.493,0,0,1-.5-.5V99.38A13.115,13.115,0,0,1,69.4,97.619l-1.93,1.93a.493.493,0,0,1-.706,0l-3.413-3.4a.507.507,0,0,1-.149-.348.467.467,0,0,1,.149-.348l1.93-1.93a13.115,13.115,0,0,1-1.761-4.238H60.8a.493.493,0,0,1-.5-.5V83.949a.493.493,0,0,1,.5-.5h2.736a13.115,13.115,0,0,1,1.761-4.238l-1.94-1.94a.507.507,0,0,1-.149-.348.467.467,0,0,1,.149-.348l3.413-3.413a.493.493,0,0,1,.706,0l1.93,1.93a13.115,13.115,0,0,1,4.238-1.761V70.6a.493.493,0,0,1,.5-.5h4.835a.493.493,0,0,1,.5.5v2.736a13.115,13.115,0,0,1,4.238,1.761l1.93-1.93a.493.493,0,0,1,.706,0l3.413,3.413a.493.493,0,0,1,0,.706l-1.93,1.93a13.115,13.115,0,0,1,1.761,4.238h2.736a.493.493,0,0,1,.5.5v4.835a.493.493,0,0,1-.5.5H89.59a13.115,13.115,0,0,1-1.761,4.238l1.93,1.93a.493.493,0,0,1,0,.706l-3.413,3.413a.507.507,0,0,1-.348.149.467.467,0,0,1-.348-.149l-1.93-1.93A13.115,13.115,0,0,1,79.482,99.4v2.736A.5.5,0,0,1,78.974,102.613Zm-4.328-.995h3.84V98.982a.492.492,0,0,1,.408-.488,12.235,12.235,0,0,0,4.616-1.91.485.485,0,0,1,.627.06l1.87,1.87L88.724,95.8l-1.87-1.87a.5.5,0,0,1-.06-.627,12.077,12.077,0,0,0,1.91-4.616.492.492,0,0,1,.487-.408h2.636v-3.84H89.192a.492.492,0,0,1-.487-.408,12.235,12.235,0,0,0-1.91-4.616.485.485,0,0,1,.06-.627l1.87-1.87L86.008,74.2l-1.87,1.87a.5.5,0,0,1-.627.06,12.077,12.077,0,0,0-4.616-1.91.492.492,0,0,1-.408-.488V71.095h-3.84v2.636a.492.492,0,0,1-.408.488,12.235,12.235,0,0,0-4.616,1.91.485.485,0,0,1-.627-.06l-1.87-1.87-2.716,2.716,1.87,1.87a.5.5,0,0,1,.06.627,12.077,12.077,0,0,0-1.91,4.616.492.492,0,0,1-.487.408H61.295v3.84h2.636a.492.492,0,0,1,.487.408,12.235,12.235,0,0,0,1.91,4.616.485.485,0,0,1-.06.627L64.4,95.8l2.716,2.716,1.87-1.87a.5.5,0,0,1,.627-.06,12.077,12.077,0,0,0,4.616,1.91.492.492,0,0,1,.408.488l.01,2.636Z" transform="translate(-60.3 -70.1)" fill="#1c54f8" stroke="#1c54f7" stroke-width="0.4"></path></g><g id="Group_5" data-name="Group 5" transform="translate(11.692 13.232)"><path id="Path_18" data-name="Path 18" d="M138.432,157.563a9.432,9.432,0,1,1,9.432-9.432A9.445,9.445,0,0,1,138.432,157.563Zm0-17.858a8.437,8.437,0,1,0,8.437,8.437A8.447,8.447,0,0,0,138.432,139.7Z" transform="translate(-129 -138.7)" fill="#1c54f8" stroke="#1c54f7" stroke-width="0.4"></path></g><g id="Group_6" data-name="Group 6" transform="translate(16.258 18.254)"><path id="Path_19" data-name="Path 19" d="M180.879,197.992a.518.518,0,0,1-.289-.09l-5.482-3.91a.5.5,0,0,1-.209-.408.519.519,0,0,1,.209-.408l5.492-3.91a.508.508,0,0,1,.517-.04.5.5,0,0,1,.269.438v1.254h7.044a.5.5,0,1,1,0,.995h-7.551a.493.493,0,0,1-.5-.5v-.786l-4.139,2.945,4.139,2.945v-.786a.493.493,0,0,1,.5-.5h7.541a.5.5,0,0,1,0,.995h-7.044v1.254a.474.474,0,0,1-.269.438A.387.387,0,0,1,180.879,197.992Z" transform="translate(-174.9 -189.175)" fill="#1c54f8" stroke="#1c54f7" stroke-width="0.4"></path></g><g id="Group_7" data-name="Group 7" transform="translate(22.177 1.61)"><path id="Path_20" data-name="Path 20" d="M253.947,43.437a.493.493,0,0,1-.5-.5,20.181,20.181,0,0,0-18.6-20.057.5.5,0,1,1,.08-.995,21.114,21.114,0,0,1,19.53,21.052A.514.514,0,0,1,253.947,43.437Z" transform="translate(-234.386 -21.886)" fill="#1c54f8" stroke="#1c54f7" stroke-width="0.4"></path></g><g id="Group_8" data-name="Group 8" transform="translate(19.074)"><path id="Path_21" data-name="Path 21" d="M205.249,9.8A2.049,2.049,0,1,1,207.3,7.749,2.047,2.047,0,0,1,205.249,9.8Zm0-3.1A1.055,1.055,0,1,0,206.3,7.749,1.062,1.062,0,0,0,205.249,6.695Z" transform="translate(-203.2 -5.7)" fill="#1c54f8" stroke="#1c54f7" stroke-width="0.4"></path></g><g id="Group_9" data-name="Group 9" transform="translate(0 5.273)"><path id="Path_22" data-name="Path 22" d="M14.866,87.091a.5.5,0,0,1-.428-.239,21.1,21.1,0,0,1,6.069-28.066.5.5,0,0,1,.577.816,20.179,20.179,0,0,0-5.79,26.743.511.511,0,0,1-.169.686A.613.613,0,0,1,14.866,87.091Z" transform="translate(-11.482 -58.696)" fill="#1c54f8" stroke="#1c54f7" stroke-width="0.4"></path></g><g id="Group_10" data-name="Group 10" transform="translate(2.176 32.424)"><path id="Path_23" data-name="Path 23" d="M35.411,335.7a2.054,2.054,0,0,1-1.681-.876,2,2,0,0,1-.338-1.532,2.051,2.051,0,0,1,3.7-.816,2,2,0,0,1,.338,1.532,2.049,2.049,0,0,1-2.02,1.691Zm-.01-3.094a1.06,1.06,0,0,0-1.045.866,1.007,1.007,0,0,0,.179.786h0a1.054,1.054,0,0,0,1.472.259,1.071,1.071,0,0,0,.438-.677,1.007,1.007,0,0,0-.179-.786A1.023,1.023,0,0,0,35.4,332.607Z" transform="translate(-33.357 -331.603)" fill="#1c54f8" stroke="#1c54f7" stroke-width="0.4"></path></g><g id="Group_11" data-name="Group 11" transform="translate(13.544 30.68)"><path id="Path_24" data-name="Path 24" d="M155.2,327.18a21.008,21.008,0,0,1-7.253-1.293.5.5,0,1,1,.338-.935,20.194,20.194,0,0,0,25.231-10.586.5.5,0,0,1,.905.408A21.2,21.2,0,0,1,155.2,327.18Z" transform="translate(-147.616 -314.074)" fill="#1c54f8" stroke="#1c54f7" stroke-width="0.4"></path></g><g id="Group_12" data-name="Group 12" transform="translate(38.43 27.683)"><path id="Path_25" data-name="Path 25" d="M399.807,288.066a1.93,1.93,0,0,1-.706-.129,2.025,2.025,0,0,1-1.154-1.065,2.051,2.051,0,0,1-.07-1.572,2.025,2.025,0,0,1,1.065-1.154,2.051,2.051,0,0,1,1.572-.07,2.025,2.025,0,0,1,1.154,1.065,2.051,2.051,0,0,1,.07,1.572h0a2.088,2.088,0,0,1-1.93,1.353Zm0-3.114a1.06,1.06,0,0,0-.995.7,1.031,1.031,0,0,0,.03.806,1.043,1.043,0,0,0,.6.547,1.031,1.031,0,0,0,.806-.03,1.043,1.043,0,0,0,.547-.6h0a1.031,1.031,0,0,0-.03-.806,1.043,1.043,0,0,0-.6-.547A1.143,1.143,0,0,0,399.807,284.952Z" transform="translate(-397.753 -283.953)" fill="#1c54f8" stroke="#1c54f7" stroke-width="0.4"></path></g></g></g></g></svg> 