<?xml version="1.0" encoding="UTF-8"?> <svg xmlns="http://www.w3.org/2000/svg" width="91" height="91" viewBox="0 0 91 91" fill="none"><path d="M90.08 74.2C90.26 73.54 90.16 72.83 89.8 72.24L87.93 69.15C87.18 67.95 85.63 67.54 84.39 68.22L83.85 68.52C83.15 68.02 82.39 67.59 81.59 67.26V66.76C81.57 65.33 80.4 64.18 78.97 64.19H75.23C73.8 64.18 72.63 65.33 72.62 66.76V67.26C71.82 67.59 71.07 68.02 70.36 68.52L69.82 68.22C68.58 67.54 67.03 67.95 66.28 69.15L64.4 72.25C64.04 72.84 63.94 73.55 64.12 74.21C64.3 74.89 64.75 75.46 65.37 75.8L65.85 76.06C65.76 76.86 65.76 77.66 65.85 78.46L65.37 78.72C64.76 79.06 64.31 79.63 64.12 80.31C63.94 80.97 64.04 81.68 64.4 82.27L66.27 85.36C67.02 86.56 68.57 86.97 69.81 86.29L70.35 85.99C71.05 86.49 71.81 86.92 72.61 87.25V87.75C72.63 89.18 73.8 90.33 75.23 90.32H78.97C80.4 90.33 81.57 89.18 81.58 87.75V87.25C82.38 86.92 83.13 86.49 83.84 85.99L84.38 86.29C85.62 86.97 87.17 86.56 87.92 85.36L89.79 82.26C90.15 81.67 90.25 80.96 90.07 80.3C89.89 79.62 89.44 79.05 88.82 78.71L88.34 78.45C88.43 77.65 88.43 76.85 88.34 76.05L88.82 75.79C89.45 75.44 89.9 74.87 90.08 74.2ZM85.52 77.24C85.52 77.6 85.49 77.96 85.44 78.31C85.31 79.35 85.82 80.37 86.75 80.87L87.11 81.07L85.58 83.61L85.11 83.35C84.19 82.86 83.06 82.94 82.22 83.56C81.64 83.98 81.02 84.33 80.36 84.6C79.36 84.98 78.7 85.93 78.69 86.99V87.4H75.52V86.99C75.51 85.93 74.84 84.98 73.85 84.6C73.19 84.33 72.56 83.99 71.98 83.56C71.14 82.94 70.01 82.86 69.09 83.35L68.62 83.61L67.09 81.07L67.46 80.87C68.38 80.37 68.9 79.35 68.77 78.31C68.67 77.6 68.67 76.88 68.77 76.17C68.9 75.13 68.39 74.11 67.46 73.61L67.1 73.41L68.63 70.87L69.1 71.13C70.02 71.63 71.15 71.54 71.99 70.92C72.57 70.5 73.19 70.15 73.85 69.88C74.85 69.5 75.51 68.55 75.52 67.49V67.08H78.69V67.49C78.7 68.55 79.37 69.5 80.36 69.88C81.02 70.15 81.65 70.49 82.23 70.92C83.07 71.54 84.2 71.62 85.12 71.13L85.59 70.87L87.12 73.41L86.75 73.61C85.83 74.11 85.31 75.13 85.44 76.17C85.5 76.53 85.52 76.89 85.52 77.24Z" fill="#1A53F6" stroke="white" stroke-width="0.3313" stroke-miterlimit="10"></path><path d="M77.1 71.44C73.89 71.44 71.29 74.04 71.29 77.25C71.29 80.46 73.89 83.06 77.1 83.06C80.31 83.06 82.91 80.46 82.91 77.25C82.91 74.04 80.31 71.44 77.1 71.44ZM77.1 80.15C75.5 80.15 74.2 78.85 74.2 77.25C74.2 75.65 75.5 74.35 77.1 74.35C78.7 74.35 80 75.65 80 77.25C80 78.85 78.71 80.15 77.1 80.15Z" fill="#1A53F6" stroke="white" stroke-width="0.3313" stroke-miterlimit="10"></path><path d="M88.72 0.309998H33.56C32.76 0.309998 32.11 0.959979 32.11 1.75998V22.08H17.59C16.79 22.08 16.14 22.73 16.14 23.53V39.5H1.62C0.819995 39.5 0.169983 40.15 0.169983 40.95V69.98C0.169983 70.78 0.819995 71.43 1.62 71.43H42.26C43.06 71.43 43.71 70.78 43.71 69.98V56.92H64.03C64.83 56.92 65.48 56.27 65.48 55.47V40.95H88.71C89.51 40.95 90.16 40.3 90.16 39.5V1.75998C90.17 0.959979 89.52 0.309998 88.72 0.309998ZM40.81 68.54H3.07001V42.41H40.81V68.54ZM62.59 54.02H43.72V40.96C43.72 40.16 43.07 39.51 42.27 39.51H19.04V24.99H62.59V54.02ZM87.27 38.05H65.5V23.53C65.5 22.73 64.85 22.08 64.05 22.08H35.02V3.20999H87.28V38.05H87.27Z" fill="#1A53F6" stroke="white" stroke-width="0.3313" stroke-miterlimit="10"></path><path d="M24.85 75.79H21.95V84.5C21.95 85.3 22.6 85.95 23.4 85.95H59.69V83.05H24.85V75.79Z" fill="#1A53F6" stroke="white" stroke-width="0.3313" stroke-miterlimit="10"></path><path d="M53.88 61.28H50.98V72.89C50.98 73.69 51.63 74.34 52.43 74.34H59.69V71.44H53.88V61.28Z" fill="#1A53F6" stroke="white" stroke-width="0.3313" stroke-miterlimit="10"></path><path d="M80 45.31H77.1V59.83H80V45.31Z" fill="#1A53F6" stroke="white" stroke-width="0.3313" stroke-miterlimit="10"></path><path d="M84.36 6.12H81.46V9.01999H84.36V6.12Z" fill="#1A53F6" stroke="white" stroke-width="0.3313" stroke-miterlimit="10"></path><path d="M78.55 6.12H75.65V9.01999H78.55V6.12Z" fill="#1A53F6" stroke="white" stroke-width="0.3313" stroke-miterlimit="10"></path><path d="M59.68 27.89H56.78V30.79H59.68V27.89Z" fill="#1A53F6" stroke="white" stroke-width="0.3313" stroke-miterlimit="10"></path><path d="M53.88 27.89H50.98V30.79H53.88V27.89Z" fill="#1A53F6" stroke="white" stroke-width="0.3313" stroke-miterlimit="10"></path><path d="M37.91 45.31H35.01V48.21H37.91V45.31Z" fill="#1A53F6" stroke="white" stroke-width="0.3313" stroke-miterlimit="10"></path><path d="M32.1 45.31H29.2V48.21H32.1V45.31Z" fill="#1A53F6" stroke="white" stroke-width="0.3313" stroke-miterlimit="10"></path></svg> 