<?xml version="1.0" encoding="UTF-8"?> <svg xmlns="http://www.w3.org/2000/svg" width="90" height="90" viewBox="0 0 90 90" fill="none"><mask id="mask0_2_203" style="mask-type:luminance" maskUnits="userSpaceOnUse" x="-1" y="0" width="91" height="90"><path d="M89.99 0H-0.0100098V90H89.99V0Z" fill="white"></path></mask><g mask="url(#mask0_2_203)"><path d="M19.79 51.78H70.21C79.36 51.78 86.8 44.33 86.8 35.19C86.8 26.9 80.58 19.86 72.46 18.75C72.15 14.67 70.38 10.88 67.43 7.98999C64.25 4.85999 60.04 3.13998 55.59 3.13998C51.55 3.13998 47.71 4.54998 44.66 7.13998C41.88 2.96998 37.19 0.439972 32.12 0.439972C23.82 0.439972 17.05 7.19998 17.05 15.51C17.05 16.61 17.16 17.7 17.4 18.76C9.33002 19.93 3.19 26.9 3.19 35.18C3.19 44.34 10.64 51.78 19.79 51.78ZM34.39 49.16C34.39 43.31 39.15 38.55 45 38.55C50.85 38.55 55.61 43.31 55.61 49.16C55.61 49.3 55.61 49.44 55.6 49.58H34.4C34.4 49.43 34.39 49.3 34.39 49.16ZM57.8 49.58C57.8 49.44 57.81 49.3 57.81 49.16C57.81 42.1 52.06 36.36 45.01 36.36C37.96 36.36 32.21 42.11 32.21 49.16C32.21 49.3 32.21 49.44 32.22 49.58H19.8C19.46 49.58 19.12 49.56 18.78 49.54V46.02C18.78 45.6 19.12 45.25 19.55 45.25H24.08C25.38 45.25 26.5 44.45 26.9 43.2C27.19 42.3 27.57 41.4 27.99 40.56C28.58 39.39 28.36 38.05 27.44 37.12L24.23 33.91C24.09 33.77 24.01 33.58 24.01 33.37C24.01 33.16 24.09 32.97 24.23 32.83L28.67 28.39C28.81 28.25 29 28.17 29.21 28.17C29.42 28.17 29.61 28.25 29.75 28.39L32.96 31.6C33.88 32.52 35.23 32.74 36.4 32.15C37.26 31.72 38.14 31.35 39.04 31.06C40.28 30.65 41.09 29.55 41.09 28.24V23.7C41.09 23.28 41.43 22.93 41.86 22.93H48.15C48.57 22.93 48.92 23.27 48.92 23.7V28.23C48.92 29.53 49.72 30.65 50.97 31.05C51.87 31.34 52.77 31.72 53.61 32.14C54.78 32.73 56.12 32.51 57.05 31.59L60.26 28.38C60.55 28.09 61.05 28.09 61.34 28.38L65.78 32.82C65.92 32.96 66 33.15 66 33.36C66 33.57 65.92 33.76 65.78 33.9L62.57 37.11C61.65 38.03 61.43 39.38 62.02 40.55C62.45 41.41 62.82 42.29 63.11 43.19C63.52 44.43 64.62 45.24 65.93 45.24H70.46C70.88 45.24 71.23 45.58 71.23 46.01V49.53C70.9 49.55 70.55 49.57 70.21 49.57L57.8 49.58ZM18.87 20.82C19.2 20.8 19.52 20.62 19.71 20.34C19.9 20.06 19.96 19.71 19.85 19.39C19.45 18.13 19.25 16.83 19.25 15.51C19.25 8.40998 25.02 2.63998 32.12 2.63998C36.85 2.63998 41.19 5.22997 43.44 9.37997C43.6 9.67997 43.91 9.88997 44.25 9.93997C44.59 9.98997 44.94 9.86997 45.18 9.62997C47.97 6.86997 51.66 5.34998 55.59 5.34998C63.54 5.34998 70.15 11.82 70.33 19.76C70.34 20.32 70.78 20.79 71.35 20.83C78.79 21.41 84.62 27.72 84.62 35.18C84.62 42.01 79.83 47.74 73.45 49.2V46C73.45 44.36 72.12 43.03 70.48 43.03H65.93C65.58 43.03 65.31 42.83 65.2 42.51C64.87 41.5 64.46 40.51 63.97 39.56C63.81 39.25 63.87 38.91 64.11 38.68L67.32 35.47C67.88 34.91 68.19 34.17 68.19 33.37C68.19 32.58 67.89 31.83 67.32 31.27L62.89 26.83C61.73 25.67 59.85 25.67 58.69 26.83L55.48 30.04C55.24 30.28 54.9 30.33 54.6 30.18C53.65 29.69 52.66 29.29 51.65 28.95C51.32 28.85 51.13 28.57 51.13 28.22V23.69C51.13 22.05 49.8 20.72 48.16 20.72H41.86C40.22 20.72 38.89 22.05 38.89 23.69V28.22C38.89 28.57 38.69 28.84 38.37 28.95C37.36 29.28 36.37 29.69 35.42 30.18C35.12 30.33 34.77 30.28 34.54 30.04L31.33 26.83C30.77 26.27 30.03 25.96 29.23 25.96C28.43 25.96 27.69 26.26 27.13 26.83L22.69 31.27C22.13 31.83 21.82 32.57 21.82 33.37C21.82 34.16 22.12 34.91 22.69 35.47L25.9 38.68C26.15 38.93 26.19 39.26 26.04 39.56C25.55 40.51 25.15 41.5 24.81 42.51C24.71 42.84 24.43 43.03 24.08 43.03H19.55C17.91 43.03 16.58 44.36 16.58 46V49.2C10.19 47.74 5.40002 42.01 5.40002 35.18C5.40002 27.61 11.31 21.3 18.87 20.82ZM34.4 63.86C34.6 63.65 34.7 63.37 34.7 63.08L34.55 53.86C34.54 53.25 34.04 52.77 33.43 52.78C32.82 52.79 32.34 53.29 32.35 53.9L32.5 62.66L26.65 68.8C25.73 68.2 24.61 67.85 23.43 67.85C20.17 67.85 17.5 70.5 17.5 73.78C17.5 77.05 20.15 79.71 23.43 79.71C26.69 79.71 29.36 77.06 29.36 73.78C29.36 72.5 28.94 71.3 28.25 70.33L34.4 63.86ZM23.42 77.5C21.37 77.5 19.7 75.83 19.7 73.78C19.7 71.73 21.37 70.06 23.42 70.06C25.47 70.06 27.14 71.73 27.14 73.78C27.15 75.82 25.48 77.5 23.42 77.5ZM18.46 58.05C18.66 57.84 18.77 57.57 18.77 57.28V53.87C18.77 53.26 18.28 52.77 17.67 52.77C17.06 52.77 16.57 53.26 16.57 53.87V56.84L13.76 59.73C12.83 59.11 11.71 58.75 10.5 58.75C7.24 58.75 4.57001 61.4 4.57001 64.68C4.57001 67.95 7.22 70.61 10.5 70.61C13.77 70.61 16.43 67.96 16.43 64.68C16.43 63.41 16.03 62.24 15.35 61.27L18.46 58.05ZM10.5 68.4C8.45 68.4 6.78003 66.73 6.78003 64.68C6.78003 62.63 8.45 60.96 10.5 60.96C12.55 60.96 14.22 62.63 14.22 64.68C14.22 66.73 12.55 68.4 10.5 68.4ZM79.49 58.75C78.28 58.75 77.16 59.11 76.23 59.74L73.43 56.85V53.88C73.43 53.27 72.94 52.78 72.33 52.78C71.72 52.78 71.23 53.27 71.23 53.88V57.29C71.23 57.58 71.34 57.85 71.54 58.06L74.65 61.28C73.97 62.24 73.57 63.42 73.57 64.69C73.57 67.95 76.22 70.62 79.5 70.62C82.76 70.62 85.43 67.97 85.43 64.69C85.43 61.41 82.77 58.75 79.49 58.75ZM79.49 68.4C77.44 68.4 75.77 66.73 75.77 64.68C75.77 62.63 77.44 60.96 79.49 60.96C81.54 60.96 83.21 62.63 83.21 64.68C83.22 66.73 81.55 68.4 79.49 68.4ZM66.57 67.85C65.38 67.85 64.28 68.2 63.35 68.81L57.51 62.67L57.66 53.91C57.67 53.3 57.18 52.8 56.58 52.79C56.57 52.79 56.57 52.79 56.56 52.79C55.96 52.79 55.47 53.28 55.46 53.87L55.31 63.09C55.3 63.38 55.41 63.66 55.61 63.87L61.76 70.34C61.07 71.31 60.65 72.5 60.65 73.78C60.65 77.04 63.3 79.71 66.58 79.71C69.84 79.71 72.51 77.06 72.51 73.78C72.51 70.5 69.84 67.85 66.57 67.85ZM66.57 77.5C64.52 77.5 62.85 75.83 62.85 73.78C62.85 71.73 64.52 70.06 66.57 70.06C68.62 70.06 70.29 71.73 70.29 73.78C70.29 75.82 68.62 77.5 66.57 77.5ZM57.04 72.77C57.04 72.76 57.04 72.75 57.04 72.74C57.04 72.71 57.03 72.68 57.02 72.64C57.02 72.63 57.01 72.61 57.01 72.6C57 72.57 56.99 72.54 56.98 72.5C56.98 72.49 56.97 72.48 56.97 72.47C56.95 72.43 56.94 72.39 56.92 72.36C56.92 72.35 56.91 72.35 56.91 72.34C56.89 72.31 56.87 72.28 56.85 72.25C56.84 72.24 56.84 72.23 56.83 72.22C56.81 72.19 56.79 72.17 56.77 72.14C56.76 72.13 56.75 72.12 56.75 72.11C56.72 72.08 56.69 72.05 56.66 72.03C56.66 72.03 56.66 72.03 56.65 72.02C56.62 71.99 56.58 71.96 56.55 71.94C56.55 71.94 56.55 71.94 56.54 71.94C56.53 71.94 56.53 71.93 56.52 71.93C56.49 71.91 56.46 71.9 56.43 71.88C56.42 71.87 56.4 71.87 56.39 71.86C56.38 71.85 56.36 71.85 56.35 71.84L46.07 67.48V53.84C46.07 53.23 45.58 52.74 44.97 52.74C44.36 52.74 43.87 53.23 43.87 53.84V67.48L33.59 71.84C33.58 71.85 33.56 71.85 33.55 71.86C33.54 71.87 33.52 71.87 33.51 71.88C33.48 71.9 33.45 71.91 33.42 71.93C33.41 71.93 33.41 71.94 33.4 71.94C33.4 71.94 33.4 71.94 33.39 71.94C33.35 71.97 33.32 71.99 33.29 72.02C33.29 72.02 33.29 72.02 33.28 72.03C33.25 72.06 33.22 72.09 33.19 72.11C33.18 72.12 33.17 72.13 33.17 72.14C33.15 72.16 33.13 72.19 33.11 72.22C33.1 72.23 33.09 72.24 33.09 72.25C33.07 72.28 33.05 72.31 33.03 72.34C33.03 72.35 33.02 72.35 33.02 72.36C33 72.4 32.98 72.44 32.97 72.47C32.97 72.48 32.96 72.49 32.96 72.5C32.95 72.53 32.94 72.56 32.93 72.6C32.93 72.61 32.92 72.63 32.92 72.64C32.91 72.67 32.91 72.7 32.9 72.74C32.9 72.75 32.9 72.76 32.9 72.77C32.89 72.82 32.89 72.86 32.89 72.9V84.96C32.89 85.4 33.16 85.8 33.57 85.98L44.53 90.61C44.57 90.63 44.61 90.64 44.64 90.65C44.65 90.65 44.65 90.65 44.66 90.65C44.7 90.66 44.75 90.67 44.78 90.68C44.79 90.68 44.81 90.68 44.82 90.69C44.87 90.7 44.92 90.7 44.96 90.7C45.01 90.7 45.06 90.7 45.1 90.69C45.11 90.69 45.13 90.69 45.14 90.68C45.18 90.67 45.23 90.66 45.26 90.65C45.27 90.65 45.27 90.65 45.28 90.65C45.32 90.64 45.36 90.62 45.39 90.61L56.35 85.98C56.76 85.81 57.03 85.41 57.03 84.96V72.9C57.05 72.86 57.05 72.81 57.04 72.77ZM45 76.34L36.87 72.9L45 69.46L53.13 72.9L45 76.34ZM35.14 74.56L43.89 78.26V87.93L35.14 84.23V74.56ZM54.85 84.23L46.1 87.93V78.26L54.85 74.56V84.23Z" fill="#1B54F8" stroke="#1B54F8" stroke-width="0.25" stroke-miterlimit="10"></path></g></svg> 