<?xml version="1.0" encoding="UTF-8"?> <svg xmlns="http://www.w3.org/2000/svg" width="91" height="91" viewBox="0 0 91 91" fill="none"><mask id="mask0_2_166" style="mask-type:luminance" maskUnits="userSpaceOnUse" x="0" y="0" width="91" height="91"><path d="M90.8 0.270004H0.800018V90.27H90.8V0.270004Z" fill="white"></path></mask><g mask="url(#mask0_2_166)"><path d="M45.8 56.24C51.85 56.24 56.77 51.32 56.77 45.27C56.77 39.22 51.85 34.3 45.8 34.3C39.75 34.3 34.83 39.22 34.83 45.27C34.83 51.32 39.75 56.24 45.8 56.24ZM45.8 36.8C50.47 36.8 54.27 40.6 54.27 45.27C54.27 49.94 50.47 53.74 45.8 53.74C41.13 53.74 37.33 49.94 37.33 45.27C37.33 40.6 41.13 36.8 45.8 36.8ZM29.45 58.81L32.26 61.62C32.74 62.1 33.38 62.37 34.07 62.37C34.75 62.37 35.39 62.1 35.88 61.62C36.98 60.52 38.37 60.55 39.31 60.94C40.25 61.33 41.26 62.3 41.26 63.85C41.26 65.26 42.41 66.41 43.82 66.41H47.8C49.21 66.41 50.36 65.26 50.36 63.85C50.36 62.3 51.37 61.33 52.31 60.94C53.25 60.55 54.65 60.52 55.74 61.62C56.74 62.62 58.36 62.62 59.35 61.62L62.16 58.81C63.16 57.81 63.16 56.19 62.16 55.2C61.06 54.1 61.09 52.71 61.48 51.77C61.87 50.83 62.84 49.82 64.39 49.82C65.8 49.82 66.95 48.67 66.95 47.26V43.28C66.95 41.87 65.8 40.72 64.39 40.72C62.84 40.72 61.87 39.71 61.48 38.77C61.09 37.83 61.06 36.43 62.16 35.34C62.64 34.86 62.91 34.22 62.91 33.53C62.91 32.85 62.64 32.21 62.16 31.72L59.35 28.91C58.35 27.91 56.73 27.91 55.74 28.91C54.64 30.01 53.25 29.98 52.31 29.59C51.37 29.2 50.36 28.23 50.36 26.68C50.36 25.27 49.21 24.12 47.8 24.12H43.82C42.41 24.12 41.26 25.27 41.26 26.68C41.26 28.23 40.25 29.2 39.31 29.59C38.37 29.98 36.97 30.01 35.88 28.91C35.4 28.43 34.76 28.16 34.07 28.16C33.39 28.16 32.75 28.43 32.26 28.91L29.45 31.72C28.97 32.2 28.7 32.84 28.7 33.53C28.7 34.21 28.97 34.85 29.45 35.34C30.55 36.44 30.52 37.83 30.13 38.77C29.74 39.71 28.77 40.72 27.22 40.72C25.81 40.72 24.66 41.87 24.66 43.28V47.26C24.66 48.67 25.81 49.82 27.22 49.82C28.77 49.82 29.74 50.83 30.13 51.77C30.52 52.71 30.55 54.11 29.45 55.2C28.45 56.19 28.45 57.81 29.45 58.81ZM27.22 47.32C27.19 47.32 27.16 47.29 27.16 47.26V43.28C27.16 43.25 27.19 43.22 27.22 43.22C29.55 43.22 31.55 41.88 32.44 39.73C33.33 37.58 32.86 35.22 31.22 33.57C31.22 33.57 31.2 33.55 31.2 33.53C31.2 33.51 31.21 33.5 31.22 33.49L34.03 30.68C34.03 30.68 34.05 30.66 34.07 30.66C34.09 30.66 34.11 30.67 34.11 30.68C35.76 32.32 38.11 32.79 40.27 31.9C42.43 31.01 43.76 29.01 43.76 26.68C43.76 26.65 43.79 26.62 43.82 26.62H47.8C47.83 26.62 47.86 26.65 47.86 26.68C47.86 29.01 49.2 31 51.35 31.9C53.5 32.79 55.86 32.32 57.51 30.68C57.53 30.66 57.57 30.66 57.59 30.68L60.4 33.49C60.4 33.49 60.42 33.51 60.42 33.53C60.42 33.55 60.41 33.57 60.4 33.57C58.75 35.22 58.29 37.57 59.18 39.73C60.07 41.88 62.07 43.22 64.4 43.22C64.43 43.22 64.46 43.25 64.46 43.28V47.26C64.46 47.29 64.43 47.32 64.4 47.32C62.07 47.32 60.08 48.66 59.18 50.81C58.29 52.96 58.76 55.32 60.4 56.97C60.42 56.99 60.42 57.03 60.4 57.05L57.59 59.86C57.57 59.88 57.53 59.88 57.51 59.86C55.86 58.21 53.51 57.75 51.35 58.64C49.2 59.53 47.86 61.53 47.86 63.86C47.86 63.89 47.83 63.92 47.8 63.92H43.82C43.79 63.92 43.76 63.89 43.76 63.86C43.76 61.53 42.42 59.53 40.27 58.64C39.55 58.34 38.8 58.2 38.07 58.2C36.62 58.2 35.21 58.77 34.11 59.87C34.11 59.87 34.09 59.89 34.07 59.89C34.05 59.89 34.04 59.88 34.03 59.87L31.22 57.06C31.2 57.04 31.2 57 31.22 56.98C32.87 55.33 33.33 52.98 32.44 50.82C31.55 48.65 29.55 47.32 27.22 47.32ZM64.61 11.18C68.08 13.1 71.23 15.53 73.97 18.4C74.21 18.65 74.53 18.79 74.87 18.79H79.48V22.63C79.48 23.15 79.8 23.61 80.28 23.8C80.43 23.86 80.58 23.88 80.73 23.88C81.08 23.88 81.42 23.73 81.66 23.46L89.56 14.65C89.99 14.18 89.99 13.46 89.56 12.98L81.66 4.16999C81.31 3.77999 80.77 3.64999 80.28 3.83999C79.8 4.01999 79.48 4.48999 79.48 5.00999V8.85H65.21C64.64 8.85 64.14 9.23999 64 9.78999C63.87 10.32 64.11 10.9 64.61 11.18ZM80.74 11.33C81.43 11.33 81.99 10.77 81.99 10.08V8.25999L86.96 13.81L81.99 19.36V17.54C81.99 16.85 81.43 16.29 80.74 16.29H75.41C73.62 14.46 71.66 12.8 69.57 11.33H80.74ZM81.67 67.08C81.32 66.69 80.78 66.56 80.29 66.75C79.81 66.93 79.49 67.4 79.49 67.92V71.76H45.8C31.2 71.76 19.32 59.88 19.32 45.28C19.32 36.65 23.55 28.53 30.64 23.57C31.09 23.26 31.28 22.69 31.12 22.17C30.96 21.65 30.47 21.3 29.93 21.3H18.96C18.59 21.3 18.24 21.46 18.01 21.74C12.45 28.31 9.37996 36.67 9.37996 45.28C9.37996 65.37 25.72 81.72 45.82 81.72H79.51V85.55C79.51 86.07 79.83 86.53 80.31 86.72C80.46 86.78 80.61 86.8 80.76 86.8C81.11 86.8 81.45 86.65 81.69 86.38L89.59 77.57C90.02 77.1 90.02 76.38 89.59 75.9L81.67 67.08ZM81.99 82.28V80.46C81.99 79.77 81.43 79.21 80.74 79.21H45.8C27.09 79.21 11.86 63.99 11.86 45.27C11.86 37.44 14.58 29.83 19.53 23.79H26.35C20.33 29.25 16.82 37.05 16.82 45.27C16.82 61.25 29.82 74.25 45.8 74.25H80.74C81.43 74.25 81.99 73.69 81.99 73V71.18L86.96 76.73L81.99 82.28ZM9.93001 23.46C10.28 23.85 10.82 23.98 11.31 23.79C11.79 23.61 12.11 23.14 12.11 22.62V18.78H45.8C60.4 18.78 72.28 30.66 72.28 45.26C72.28 53.9 68.05 62.01 60.96 66.97C60.51 67.28 60.32 67.85 60.48 68.37C60.64 68.89 61.13 69.24 61.67 69.24H72.64C73.01 69.24 73.36 69.08 73.59 68.8C79.16 62.23 82.22 53.87 82.22 45.26C82.22 25.17 65.88 8.81999 45.78 8.81999H12.09V4.97999C12.09 4.45999 11.77 3.99999 11.29 3.80999C10.81 3.62999 10.26 3.75999 9.90999 4.13999L2.00997 12.95C1.57997 13.42 1.57997 14.14 2.00997 14.62L9.93001 23.46ZM9.61001 8.25999V10.08C9.61001 10.77 10.17 11.33 10.86 11.33H45.8C64.51 11.33 79.74 26.55 79.74 45.27C79.74 53.1 77.02 60.71 72.07 66.75H65.25C71.27 61.29 74.78 53.49 74.78 45.27C74.78 29.29 61.78 16.29 45.8 16.29H10.86C10.17 16.29 9.61001 16.85 9.61001 17.54V19.36L4.63997 13.81L9.61001 8.25999ZM26.99 79.37C23.52 77.45 20.37 75.02 17.63 72.15C17.39 71.9 17.07 71.76 16.73 71.76H12.12V67.92C12.12 67.4 11.8 66.94 11.32 66.75C10.84 66.57 10.29 66.7 9.93996 67.08L2.04 75.89C1.61 76.36 1.61 77.08 2.04 77.56L9.93996 86.37C10.18 86.64 10.52 86.79 10.87 86.79C11.02 86.79 11.17 86.76 11.32 86.71C11.8 86.53 12.12 86.06 12.12 85.54V81.7H26.39C26.96 81.7 27.46 81.31 27.6 80.76C27.73 80.22 27.49 79.64 26.99 79.37ZM10.86 79.21C10.17 79.21 9.61001 79.77 9.61001 80.46V82.28L4.63997 76.73L9.61001 71.18V73C9.61001 73.69 10.17 74.25 10.86 74.25H16.19C17.98 76.08 19.94 77.74 22.03 79.21H10.86Z" fill="#1B54F8"></path></g></svg> 