<?xml version="1.0" encoding="UTF-8"?> <svg xmlns="http://www.w3.org/2000/svg" xmlns:xlink="http://www.w3.org/1999/xlink" width="1920" height="574" viewBox="0 0 1920 574"><defs><clipPath id="clip-path"><rect id="Rectangle_52" data-name="Rectangle 52" width="1920" height="574" fill="#fff"></rect></clipPath><clipPath id="clip-path-2"><rect id="Rectangle_21" data-name="Rectangle 21" width="126" height="126" transform="translate(100 469.743)" fill="#fff" stroke="#707070" stroke-width="1"></rect></clipPath><clipPath id="clip-path-3"><rect id="Rectangle_22" data-name="Rectangle 22" width="126" height="126" transform="translate(339 470.091)" fill="#fff" stroke="#707070" stroke-width="1"></rect></clipPath><clipPath id="clip-path-4"><rect id="Rectangle_24" data-name="Rectangle 24" width="126" height="126" transform="translate(291 443.837)" fill="#fff" stroke="#707070" stroke-width="1"></rect></clipPath><clipPath id="clip-path-5"><rect id="Rectangle_25" data-name="Rectangle 25" width="126" height="126" transform="translate(990 432.117)" fill="#fff" stroke="#707070" stroke-width="1"></rect></clipPath><clipPath id="clip-path-6"><rect id="Rectangle_23" data-name="Rectangle 23" width="126" height="126" transform="translate(788 45)" fill="#fff" stroke="#707070" stroke-width="1"></rect></clipPath><clipPath id="clip-path-7"><rect id="Rectangle_20" data-name="Rectangle 20" width="126" height="126" transform="translate(1020 45)" fill="#fff" stroke="#707070" stroke-width="1"></rect></clipPath></defs><g id="Mask_Group_14" data-name="Mask Group 14" clip-path="url(#clip-path)"><g id="Group_18" data-name="Group 18" transform="translate(-8 -3)"><path id="Path_1" data-name="Path 1" d="M309.992,222.671l-29.468-24.425,29.468,63.471,29.469-63.471Z" transform="translate(202.476 147.431)" fill="#1b54f8"></path><path id="Path_2" data-name="Path 2" d="M532.56,222.671l-29.469-24.425,29.469,63.471,29.469-63.471Z" transform="translate(287.44 147.431)" fill="#1b54f8"></path><path id="Path_3" data-name="Path 3" d="M756.907,222.671l-29.468-24.425,29.468,63.471,29.47-63.471Z" transform="translate(372.561 147.431)" fill="#1b54f8"></path><path id="Path_13" data-name="Path 13" d="M756.907,222.671l-29.468-24.425,29.468,63.471,29.47-63.471Z" transform="translate(680.561 147.431)" fill="#1b54f8"></path><path id="Path_4" data-name="Path 4" d="M86.719,222.671,57.25,198.246l29.469,63.471,29.469-63.471Z" transform="translate(116.75 147.431)" fill="#1b54f8"></path><path id="Path_5" data-name="Path 5" d="M985.869,222.671,956.4,198.246l29.469,63.471,29.469-63.471Z" transform="translate(760.6 147.431)" fill="#1b54f8"></path><path id="Path_6" data-name="Path 6" d="M1160.425,34.991c-28.312-28.966-81.29-42.446-124.049-27.761-34.511,11.856-54.638,30.656-101.368,81.67-3.981,4.345-51.318,53.19-55.131,57.36-44.677,48.88-82.741,80.617-125.607,73.662-39.093-6.342-50.751-26.528-58.34-29.941a16.182,16.182,0,0,0-21.494,21.1c4.014,9.387,38.845,37.618,77.449,41.133,64.73,5.884,103.929-34.228,149.4-81.561.333-.347,55.073-57.292,55.4-57.648,44.756-48.922,58.267-60.95,81.007-71.647,32.311-15.189,75.449-7.253,101.046,17.613a16.18,16.18,0,1,0,21.692-23.985c-.413-.422,3.522,2.97,0,0" transform="translate(363.737 73.466)" fill="#e9f0ff"></path><path id="Path_12" data-name="Path 12" d="M1160.425,34.991c-28.312-28.966-81.29-42.446-124.049-27.761-34.511,11.856-54.638,30.656-101.368,81.67-3.981,4.345-51.318,53.19-55.131,57.36-44.677,48.88-82.741,80.617-125.607,73.662-39.093-6.342-50.751-26.528-58.34-29.941a16.182,16.182,0,0,0-21.494,21.1c4.014,9.387,38.845,37.618,77.449,41.133,64.73,5.884,103.929-34.228,149.4-81.561.333-.347,55.073-57.292,55.4-57.648,44.756-48.922,58.267-60.95,81.007-71.647,32.311-15.189,75.449-7.253,101.046,17.613a16.18,16.18,0,1,0,21.692-23.985c-.413-.422,3.522,2.97,0,0" transform="translate(672.404 73.466)" fill="#e9f0ff"></path><path id="Path_7" data-name="Path 7" d="M1072.464,140.584a16.475,16.475,0,0,0-18.71,3.572c-13.746,13.217-36.773,24.337-60.9,24.933-26.256.651-46.713-9.144-66.6-24.849-10.775-9.215-21.132-4.472-25.471,1.913a16.308,16.308,0,0,0,.254,18.526c1.815,2.516,4.441,4.414,6.869,6.3,28.239,23.629,56.827,30.331,86.3,30.331,27.922,0,62.159-13.746,82.53-34.363a16.173,16.173,0,0,0-4.269-26.367" transform="translate(756.212 125.216)" fill="#e9f0ff"></path><path id="Path_8" data-name="Path 8" d="M9.3,60.729a16.473,16.473,0,0,0,18.712-3.572C41.76,43.941,64.786,32.82,88.916,32.224c26.256-.649,46.713,9.144,66.6,24.85,10.775,9.215,21.132,4.472,25.471-1.915a16.308,16.308,0,0,0-.254-18.526c-1.816-2.516-4.441-4.414-6.869-6.3C145.623,6.7,117.035,0,87.564,0,59.642,0,25.4,13.746,5.034,34.361A16.173,16.173,0,0,0,9.3,60.729" transform="translate(111 73)" fill="#e9f0ff"></path><path id="Path_9" data-name="Path 9" d="M936.338,35.238C908.026,6.272,855.046-7.209,812.286,7.477,777.778,19.333,757.651,38.133,710.92,89.144c-3.98,4.346-51.318,53.19-55.131,57.36-44.677,48.883-82.741,80.619-125.607,73.665-39.092-6.342-50.75-26.528-58.34-29.939a16.181,16.181,0,0,0-21.493,21.1c4.012,9.389,38.845,37.62,77.447,41.133,64.73,5.884,103.93-34.228,149.4-81.561.333-.347,55.074-57.292,55.4-57.646,44.751-48.921,58.264-60.949,81-71.646,32.312-15.189,75.45-7.253,101.047,17.613a16.18,16.18,0,1,0,21.692-23.985c-.414-.422,3.521,2.97,0,0" transform="translate(279.604 73.558)" fill="#e9f0ff"></path><path id="Path_10" data-name="Path 10" d="M714.648,35.238C686.337,6.272,633.358-7.209,590.6,7.477c-34.509,11.856-54.635,30.656-101.366,81.667-3.982,4.346-51.319,53.19-55.132,57.36-44.676,48.883-82.741,80.619-125.606,73.665-39.093-6.342-50.751-26.528-58.34-29.939a16.18,16.18,0,0,0-21.493,21.1c4.012,9.389,38.845,37.62,77.447,41.133,64.727,5.887,103.927-34.225,149.39-81.563.333-.347,55.074-57.292,55.4-57.646,44.754-48.923,58.268-60.952,81.007-71.648,32.311-15.189,75.45-7.253,101.046,17.613a16.18,16.18,0,1,0,21.692-23.985c-.414-.422,3.522,2.97,0,0" transform="translate(196.371 73.558)" fill="#e9f0ff"></path><path id="Path_11" data-name="Path 11" d="M490.011,35.238C461.7,6.272,408.719-7.209,365.961,7.477c-34.51,11.856-54.637,30.656-101.368,81.667-3.981,4.346-51.318,53.19-55.131,57.36-44.677,48.883-82.741,80.619-125.606,73.665-39.093-6.342-50.751-26.528-58.34-29.939a16.182,16.182,0,0,0-21.494,21.1c4.014,9.389,38.845,37.62,77.449,41.133C146.2,258.35,185.4,218.238,230.866,170.9c.333-.347,55.074-57.292,55.4-57.646,44.756-48.923,58.268-60.952,81.007-71.648,32.312-15.189,75.45-7.253,101.047,17.613a16.18,16.18,0,1,0,21.692-23.985c-.414-.422,3.522,2.97,0,0" transform="translate(112.032 73.558)" fill="#e9f0ff"></path><g id="Ellipse_1" data-name="Ellipse 1" transform="translate(124 121)" fill="#fff" stroke="#051c2c" stroke-width="2"><circle cx="79" cy="79" r="79" stroke="none"></circle><circle cx="79" cy="79" r="78" fill="none"></circle></g><g id="Ellipse_2" data-name="Ellipse 2" transform="translate(433 121)" fill="#fff" stroke="#051c2c" stroke-width="2"><circle cx="79" cy="79" r="79" stroke="none"></circle><circle cx="79" cy="79" r="78" fill="none"></circle></g><g id="Ellipse_3" data-name="Ellipse 3" transform="translate(741 121)" fill="#fff" stroke="#051c2c" stroke-width="2"><circle cx="79" cy="79" r="79" stroke="none"></circle><circle cx="79" cy="79" r="78" fill="none"></circle></g><g id="Ellipse_4" data-name="Ellipse 4" transform="translate(1050 121)" fill="#fff" stroke="#051c2c" stroke-width="2"><circle cx="79" cy="79" r="79" stroke="none"></circle><circle cx="79" cy="79" r="78" fill="none"></circle></g><g id="Ellipse_5" data-name="Ellipse 5" transform="translate(1358 121)" fill="#fff" stroke="#051c2c" stroke-width="2"><circle cx="79" cy="79" r="79" stroke="none"></circle><circle cx="79" cy="79" r="78" fill="none"></circle></g><g id="Ellipse_6" data-name="Ellipse 6" transform="translate(1667 121)" fill="#fff" stroke="#051c2c" stroke-width="2"><circle cx="79" cy="79" r="79" stroke="none"></circle><circle cx="79" cy="79" r="78" fill="none"></circle></g><text id="_1" data-name="1" transform="translate(97 266)" fill="#020202" font-size="24" font-family="Open Sans" font-weight="700"><tspan x="0" y="0">1</tspan></text><text id="_2" data-name="2" transform="translate(414 266)" fill="#020202" font-size="24" font-family="Open Sans" font-weight="700"><tspan x="0" y="0">2</tspan></text><text id="_3" data-name="3" transform="translate(714 266)" fill="#020202" font-size="24" font-family="Open Sans" font-weight="700"><tspan x="0" y="0">3</tspan></text><text id="_4" data-name="4" transform="translate(1023 266)" fill="#020202" font-size="24" font-family="Open Sans" font-weight="700"><tspan x="0" y="0">4</tspan></text><text id="_5" data-name="5" transform="translate(1332 266)" fill="#020202" font-size="24" font-family="Open Sans" font-weight="700"><tspan x="0" y="0">5</tspan></text><text id="_6" data-name="6" transform="translate(1641 266)" fill="#020202" font-size="24" font-family="Open Sans" font-weight="700"><tspan x="0" y="0">6</tspan></text><text id="Requirement_Assessment" data-name="Requirement Assessment" transform="translate(203 467)" fill="#051b2c" font-size="24" font-family="OpenSans-Semibold, Open Sans" font-weight="600"><tspan x="-75" y="0">Requirement</tspan><tspan x="-68" y="33">Assessment</tspan></text><text id="Strategy_Building" data-name="Strategy Building" transform="translate(507 467)" fill="#051b2c" font-size="24" font-family="OpenSans-Semibold, Open Sans" font-weight="600"><tspan x="-48" y="0">Strategy</tspan><tspan x="-47" y="33">Building</tspan></text><text id="Design_and_Development" data-name="Design and Development" transform="translate(813 467)" fill="#051b2c" font-size="24" font-family="OpenSans-Semibold, Open Sans" font-weight="600"><tspan x="-64" y="0">Design and</tspan><tspan x="-77" y="33">Development</tspan></text><text id="Testing" transform="translate(1131 467)" fill="#051b2c" font-size="24" font-family="OpenSans-Semibold, Open Sans" font-weight="600"><tspan x="-41" y="0">Testing</tspan></text><text id="Deployment_and_Optimization" data-name="Deployment and Optimization" transform="translate(1437 467)" fill="#051b2c" font-size="24" font-family="OpenSans-Semibold, Open Sans" font-weight="600"><tspan x="-96" y="0">Deployment and</tspan><tspan x="-75" y="33">Optimization</tspan></text><text id="Integration_and_Support" data-name="Integration and Support" transform="translate(1746 467)" fill="#051b2c" font-size="24" font-family="OpenSans-Semibold, Open Sans" font-weight="600"><tspan x="-89" y="0">Integration and</tspan><tspan x="-46" y="33">Support</tspan></text><g id="Mask_Group_9" data-name="Mask Group 9" transform="translate(40 -332.743)" clip-path="url(#clip-path-2)"><g id="Group_11" data-name="Group 11" transform="translate(109.78 489.56)"><path id="Path_39" data-name="Path 39" d="M92.244,127.671c-.428.743-.45.878-1.193,1.26v7.74a7.423,7.423,0,0,1-7.4,7.4H36.058a1.809,1.809,0,0,1-1.26-.518l-19.981-20a1.732,1.732,0,0,1-.518-1.26V64.8a7.423,7.423,0,0,1,7.4-7.4H83.648a7.423,7.423,0,0,1,7.4,7.4V87.731l10.44-18.091a5.057,5.057,0,0,1,7-1.8l9.338,5.4h0a5.054,5.054,0,0,1,1.845,6.908h0L92.311,127.581a.311.311,0,0,1-.067.09Zm-4.68,3.15-6.435,3.443a5.051,5.051,0,0,1-7.448-4.41l-.022-1.418H64.7a1.757,1.757,0,0,1-1.755-1.755V114.238a1.757,1.757,0,0,1,1.755-1.755H76.718L87.541,93.739V64.8a3.918,3.918,0,0,0-3.915-3.915H21.7A3.933,3.933,0,0,0,17.788,64.8v55.78h12.6a7.423,7.423,0,0,1,7.4,7.4v12.623H83.648a3.933,3.933,0,0,0,3.915-3.915Zm-13.951-5.873-.067-6.413a3.279,3.279,0,0,1,.63-1.6l.54-.923H66.457v8.933Zm3.42-4.838.112,9.72a1.577,1.577,0,0,0,2.318,1.373l8.078-4.32v-.9a27.7,27.7,0,0,0-4.568-3.285h0a27.318,27.318,0,0,0-5.94-2.588Zm39.062-43.877-9.428-5.445a1.6,1.6,0,0,0-2.16.585L78.248,116.848a31.825,31.825,0,0,1,6.48,2.835h0a30.075,30.075,0,0,1,5.67,4.185h0l26.259-45.475h0a1.563,1.563,0,0,0-.563-2.16Zm-62.8,3.623a1.755,1.755,0,0,1,0,3.51H30.456a1.755,1.755,0,1,1,0-3.51Zm0,40.749a1.755,1.755,0,1,1,0,3.51H43.146a1.755,1.755,0,1,1,0-3.51Zm0-20.386a1.755,1.755,0,1,1,0,3.51H30.456a1.755,1.755,0,1,1,0-3.51Zm22.1-5.355H66.457V103.8H75.39ZM64.725,91.377H77.145A1.757,1.757,0,0,1,78.9,93.132v12.443a1.757,1.757,0,0,1-1.755,1.755H64.725a1.757,1.757,0,0,1-1.755-1.755V93.132a1.743,1.743,0,0,1,1.755-1.755ZM75.39,73.691H66.457v8.933H75.39ZM64.725,70.2H77.145A1.757,1.757,0,0,1,78.9,71.958V84.4a1.757,1.757,0,0,1-1.755,1.755H64.725A1.757,1.757,0,0,1,62.97,84.4V71.958A1.757,1.757,0,0,1,64.725,70.2ZM34.3,138.134V127.986a3.932,3.932,0,0,0-3.915-3.915H20.263Z" transform="translate(-14.3 -57.4)" fill="#1c54f8"></path></g></g><g id="Mask_Group_10" data-name="Mask Group 10" transform="translate(110 -333.091)" clip-path="url(#clip-path-3)"><g id="Group_12" data-name="Group 12" transform="translate(354.447 478.416)"><path id="Path_40" data-name="Path 40" d="M52.4,27.189h.046a8.625,8.625,0,0,0,8.635-8.55A8.614,8.614,0,0,0,52.492,10a8.664,8.664,0,0,0-6.117,2.481A8.6,8.6,0,0,0,52.4,27.189ZM48.278,14.416a5.9,5.9,0,0,1,4.165-1.7h.034a5.9,5.9,0,0,1,4.181,1.747,5.821,5.821,0,0,1,1.71,4.166,5.909,5.909,0,0,1-5.922,5.85h-.032a5.9,5.9,0,0,1-4.181-1.747,5.855,5.855,0,0,1,.044-8.314Z" transform="translate(-3.936 -10.001)" fill="#1c54f8" stroke="#1c54f8" stroke-width="1"></path><path id="Path_41" data-name="Path 41" d="M46.179,20.148l-17.2,9.931a1.357,1.357,0,0,0,1.356,2.35l17.2-9.931a1.357,1.357,0,1,0-1.356-2.35Z" transform="translate(-9.463 -6.451)" fill="#1c54f8" stroke="#1c54f8" stroke-width="1"></path><path id="Path_42" data-name="Path 42" d="M18.839,42.735a8.516,8.516,0,0,0,4.307,1.174,8.593,8.593,0,1,0-4.307-1.174Zm-.721-10.423a5.932,5.932,0,0,1,5.124-2.943,5.815,5.815,0,0,1,2.942.8A5.931,5.931,0,0,1,24.67,40.994a5.819,5.819,0,0,1-4.462-.6A5.909,5.909,0,0,1,18.118,32.312Z" transform="translate(-14.346 -4.067)" fill="#1c54f8" stroke="#1c54f8" stroke-width="1"></path><path id="Path_43" data-name="Path 43" d="M15.553,73.2a8.594,8.594,0,1,0,9.724-12.57,8.564,8.564,0,0,0-10.563,6.024A8.6,8.6,0,0,0,15.553,73.2Zm1.779-5.837a5.859,5.859,0,0,1,5.642-4.335,5.949,5.949,0,0,1,5.73,7.5,5.854,5.854,0,0,1-7.221,4.118,5.951,5.951,0,0,1-4.152-7.28Z" transform="translate(-14.411 7.926)" fill="#1c54f8" stroke="#1c54f8" stroke-width="1"></path><path id="Path_44" data-name="Path 44" d="M28.046,71.139a1.357,1.357,0,0,0,.5,1.853l17.2,9.93a1.357,1.357,0,1,0,1.356-2.35l-17.2-9.93A1.357,1.357,0,0,0,28.046,71.139Z" transform="translate(-9.618 11.541)" fill="#1c54f8" stroke="#1c54f8" stroke-width="1"></path><path id="Path_45" data-name="Path 45" d="M52.136,77.326H52.09a8.625,8.625,0,0,0-8.635,8.55,8.614,8.614,0,0,0,8.589,8.638h.05a8.594,8.594,0,1,0,.042-17.188ZM56.259,90.1a5.954,5.954,0,0,1-8.381-.045,5.821,5.821,0,0,1-1.71-4.166,5.909,5.909,0,0,1,5.922-5.85h.032A5.9,5.9,0,0,1,56.3,81.786a5.855,5.855,0,0,1-.044,8.314Z" transform="translate(-4.063 13.987)" fill="#1c54f8" stroke="#1c54f8" stroke-width="1"></path><path id="Path_46" data-name="Path 46" d="M74.9,70.894,57.7,80.825a1.357,1.357,0,0,0,1.356,2.35l17.2-9.931a1.357,1.357,0,0,0-1.356-2.35Z" transform="translate(0.769 11.63)" fill="#1c54f8" stroke="#1c54f8" stroke-width="1"></path><path id="Path_47" data-name="Path 47" d="M85.681,61.8A8.614,8.614,0,0,0,73.9,64.915a8.626,8.626,0,0,0,3.062,11.792,8.509,8.509,0,0,0,4.307,1.168A8.641,8.641,0,0,0,85.681,61.8ZM86.4,72.22a5.882,5.882,0,1,1-6.552-8.682,5.83,5.83,0,0,1,4.462.6A5.909,5.909,0,0,1,86.4,72.22Z" transform="translate(6.365 8.036)" fill="#1c54f8" stroke="#1c54f8" stroke-width="1"></path><path id="Path_48" data-name="Path 48" d="M88.969,31.333a8.615,8.615,0,1,0,.839,6.546A8.6,8.6,0,0,0,88.969,31.333ZM87.19,37.17a5.853,5.853,0,0,1-7.221,4.119,5.951,5.951,0,0,1-4.152-7.281,5.86,5.86,0,0,1,5.642-4.334,5.949,5.949,0,0,1,5.73,7.5Z" transform="translate(6.427 -3.958)" fill="#1c54f8" stroke="#1c54f8" stroke-width="1"></path><path id="Path_49" data-name="Path 49" d="M77.185,32.182a1.357,1.357,0,0,0-.5-1.853l-17.2-9.93a1.357,1.357,0,0,0-1.356,2.35l17.2,9.93a1.357,1.357,0,0,0,1.853-.5Z" transform="translate(0.925 -6.361)" fill="#1c54f8" stroke="#1c54f8" stroke-width="1"></path><path id="Path_50" data-name="Path 50" d="M38.179,38.865a3.749,3.749,0,0,0-4.732,1.568l-3.058,5.3A3.754,3.754,0,0,0,31.4,50.614L36.9,54.72a19.579,19.579,0,0,0,0,5.878l-5.508,4.107a3.753,3.753,0,0,0-1.005,4.882l3.058,5.3a3.757,3.757,0,0,0,4.732,1.571l6.315-2.718a20.329,20.329,0,0,0,5.085,2.934l.8,6.831a3.753,3.753,0,0,0,3.726,3.313h6.115A3.753,3.753,0,0,0,63.95,83.5l.8-6.831a20.329,20.329,0,0,0,5.085-2.934l6.314,2.717a3.753,3.753,0,0,0,4.732-1.57l3.058-5.3A3.754,3.754,0,0,0,82.937,64.7L77.43,60.6a19.579,19.579,0,0,0,0-5.878l5.508-4.107a3.753,3.753,0,0,0,1.005-4.882l-3.058-5.3a3.754,3.754,0,0,0-4.732-1.57l-6.315,2.718a20.33,20.33,0,0,0-5.085-2.934l-.8-6.831A3.753,3.753,0,0,0,60.224,28.5H54.109a3.753,3.753,0,0,0-3.726,3.313l-.8,6.831a20.33,20.33,0,0,0-5.085,2.934ZM45.6,44.183a17.7,17.7,0,0,1,5.68-3.277,1.357,1.357,0,0,0,.9-1.121l.9-7.65a1.04,1.04,0,0,1,1.032-.918h6.115a1.04,1.04,0,0,1,1.032.918l.9,7.65a1.357,1.357,0,0,0,.9,1.121,17.7,17.7,0,0,1,5.68,3.277,1.36,1.36,0,0,0,1.419.217l7.074-3.045a1.039,1.039,0,0,1,1.31.434l3.058,5.3a1.04,1.04,0,0,1-.278,1.352l-6.17,4.6a1.355,1.355,0,0,0-.523,1.336,17.187,17.187,0,0,1,0,6.567,1.355,1.355,0,0,0,.523,1.336l6.169,4.6a1.041,1.041,0,0,1,.279,1.354l-3.058,5.3a1.034,1.034,0,0,1-1.311.434l-7.074-3.044a1.357,1.357,0,0,0-1.419.217,17.7,17.7,0,0,1-5.68,3.277,1.357,1.357,0,0,0-.9,1.121l-.9,7.65a1.04,1.04,0,0,1-1.032.918H54.109a1.04,1.04,0,0,1-1.032-.918l-.9-7.65a1.357,1.357,0,0,0-.9-1.121,17.7,17.7,0,0,1-5.68-3.277,1.358,1.358,0,0,0-1.419-.217l-7.074,3.045a1.038,1.038,0,0,1-1.31-.436l-3.058-5.3a1.04,1.04,0,0,1,.278-1.352l6.17-4.6a1.355,1.355,0,0,0,.523-1.336,17.188,17.188,0,0,1,0-6.567,1.355,1.355,0,0,0-.523-1.336l-6.169-4.6a1.041,1.041,0,0,1-.279-1.354l3.058-5.3a1.033,1.033,0,0,1,1.311-.433L44.181,44.4A1.36,1.36,0,0,0,45.6,44.183Z" transform="translate(-8.897 -3.408)" fill="#1c54f8" stroke="#1c54f8" stroke-width="1"></path><path id="Path_51" data-name="Path 51" d="M52.916,64.019a11.1,11.1,0,1,0-11.1-11.1A11.114,11.114,0,0,0,52.916,64.019Zm0-19.492a8.389,8.389,0,1,1-8.389,8.389A8.4,8.4,0,0,1,52.916,44.527Z" transform="translate(-4.647 1.334)" fill="#1c54f8" stroke="#1c54f8" stroke-width="1"></path></g></g><g id="Mask_Group_12" data-name="Mask Group 12" transform="translate(466 -306.837)" clip-path="url(#clip-path-4)"><g id="Group_14" data-name="Group 14" transform="translate(303.584 456.584)"><path id="Path_55" data-name="Path 55" d="M63.416,76.839a36.611,36.611,0,0,1-5.362-.43A1.546,1.546,0,0,1,56.745,75.1l-1-7.033a1.547,1.547,0,0,1,3.063-.438l.838,5.875a28.679,28.679,0,0,0,7.55,0l.838-5.875a1.551,1.551,0,0,1,1.2-1.293,26.926,26.926,0,0,0,8.875-3.687,1.546,1.546,0,0,1,1.764.065l4.757,3.567a29.169,29.169,0,0,0,5.335-5.335L86.4,56.187a1.547,1.547,0,0,1-.065-1.764,26.96,26.96,0,0,0,3.687-8.875,1.547,1.547,0,0,1,1.293-1.2l5.875-.838a29.27,29.27,0,0,0,0-7.548l-5.875-.838a1.551,1.551,0,0,1-1.293-1.2,26.926,26.926,0,0,0-3.687-8.875,1.547,1.547,0,0,1,.065-1.764l3.564-4.753a34.085,34.085,0,0,0-5.337-5.337L79.87,16.756a1.551,1.551,0,0,1-1.764.065,26.96,26.96,0,0,0-8.875-3.687,1.547,1.547,0,0,1-1.2-1.293l-.838-5.875a28.68,28.68,0,0,0-7.55,0L58.8,11.841a1.551,1.551,0,0,1-1.2,1.293,26.955,26.955,0,0,0-8.875,3.687,1.551,1.551,0,0,1-1.764-.065l-4.753-3.564a34.086,34.086,0,0,0-5.337,5.337l3.564,4.753a1.547,1.547,0,0,1,.065,1.764,26.931,26.931,0,0,0-3.687,8.875,1.547,1.547,0,0,1-1.293,1.2l-5.875.838a29.27,29.27,0,0,0,0,7.548l5.875.838a1.547,1.547,0,0,1-.438,3.063l-7.035-1a1.548,1.548,0,0,1-1.311-1.311,36.961,36.961,0,0,1-.428-5.36,36.96,36.96,0,0,1,.428-5.36,1.548,1.548,0,0,1,1.311-1.311l5.991-.855a30.072,30.072,0,0,1,3.29-7.916L33.694,19.44a1.542,1.542,0,0,1,0-1.851,37.235,37.235,0,0,1,7.582-7.582,1.542,1.542,0,0,1,1.851,0l4.852,3.638a30.061,30.061,0,0,1,7.916-3.29l.855-5.99a1.548,1.548,0,0,1,1.309-1.311,32.776,32.776,0,0,1,10.724,0,1.546,1.546,0,0,1,1.309,1.311l.855,5.99a30.052,30.052,0,0,1,7.916,3.29l4.852-3.638a1.542,1.542,0,0,1,1.851,0,37.235,37.235,0,0,1,7.582,7.582,1.542,1.542,0,0,1,0,1.851L89.5,24.291a30.088,30.088,0,0,1,3.29,7.916l5.99.855a1.548,1.548,0,0,1,1.311,1.309,36.616,36.616,0,0,1,.43,5.362,36.61,36.61,0,0,1-.43,5.362A1.546,1.546,0,0,1,98.784,46.4l-5.99.855a30.052,30.052,0,0,1-3.29,7.916l3.638,4.852a1.542,1.542,0,0,1,0,1.851,33.827,33.827,0,0,1-7.582,7.582,1.542,1.542,0,0,1-1.851,0l-4.852-3.638a30.088,30.088,0,0,1-7.916,3.29l-.855,5.99a1.548,1.548,0,0,1-1.309,1.311,36.615,36.615,0,0,1-5.362.43Z" transform="translate(-1.571 -2.615)" fill="#1c54f8" stroke="#1c54f9" stroke-width="0.5"></path><path id="Path_56" data-name="Path 56" d="M63.877,59.051a1.547,1.547,0,0,1-.1-3.091A17,17,0,1,0,45.746,37.925,1.579,1.579,0,0,1,44.1,39.371a1.546,1.546,0,0,1-1.445-1.642A20.088,20.088,0,1,1,63.976,59.045l-.1,0Z" transform="translate(-0.848 -1.894)" fill="#1c54f8" stroke="#1c54f9" stroke-width="0.5"></path><path id="Path_57" data-name="Path 57" d="M72.116,30.968a10.818,10.818,0,0,0-15.3,0L9.655,78.125a1.546,1.546,0,0,0-.373.6L2.7,98.428a1.545,1.545,0,0,0,1.956,1.956l19.7-6.583a1.576,1.576,0,0,0,.6-.373L72.115,46.271a10.818,10.818,0,0,0,0-15.3ZM69.93,44.085l-46.9,46.9L6.612,96.469l2.412-7.216a10.821,10.821,0,0,1,3.575,2.9,1.546,1.546,0,0,0,2.412-1.935A13.894,13.894,0,0,0,10,86.321L12.1,80.051,53.266,38.885l4,4L18.523,82.373a1.546,1.546,0,1,0,2.207,2.165L59.448,45.067l2.375,2.375a1.546,1.546,0,1,0,2.187-2.186L55.452,36.7,59,33.153a7.729,7.729,0,1,1,10.93,10.93Z" transform="translate(-2.619 -1.501)" fill="#1c54f8" stroke="#1c54f9" stroke-width="0.5"></path></g></g><g id="Mask_Group_13" data-name="Mask Group 13" transform="translate(78 -295.117)" clip-path="url(#clip-path-5)"><g id="Group_15" data-name="Group 15" transform="translate(999.8 448.92)"><path id="Path_58" data-name="Path 58" d="M87.754,53.111V80.069a1.4,1.4,0,0,1-1.4,1.4H55.275l1.432,5.718H69.272a1.4,1.4,0,0,1,1.357,1.046l3.008,8.543a1.4,1.4,0,0,1-1.322,1.861H15.434a1.4,1.4,0,0,1-1.283-1.976l3.006-8.543a1.4,1.4,0,0,1,1.322-.939H31.042l1.433-5.718H1.4a1.4,1.4,0,0,1-1.4-1.4V20.26a1.4,1.4,0,0,1,1.4-1.4H60.591l.853-2.06a1.4,1.4,0,0,1,1.826-.763l4.865,2.011a18.151,18.151,0,0,1,1.812-1.813L67.93,11.371a1.4,1.4,0,0,1,.763-1.826l7.95-3.293a1.4,1.4,0,0,1,1.826.763l2.01,4.852a17.919,17.919,0,0,1,2.563,0l2.011-4.852a1.4,1.4,0,0,1,1.826-.763l7.948,3.293a1.4,1.4,0,0,1,.763,1.826l-2.013,4.865a18.037,18.037,0,0,1,1.813,1.812l4.86-2.013a1.4,1.4,0,0,1,1.826.763l3.293,7.948a1.4,1.4,0,0,1-.763,1.826l-4.852,2.011a18.069,18.069,0,0,1,0,2.563l4.852,2.01a1.4,1.4,0,0,1,.763,1.826l-3.293,7.95a1.4,1.4,0,0,1-1.826.763l-4.86-2.013a18.149,18.149,0,0,1-1.813,1.812l2.013,4.861a1.4,1.4,0,0,1-.763,1.826ZM31.747,67.681H71.311a1.4,1.4,0,1,0,0-2.808H31.747a1.4,1.4,0,0,0,0,2.808Zm0-5.577H69.236a1.4,1.4,0,1,0,0-2.807H31.747a1.4,1.4,0,0,0,0,2.807Zm0-5.576H63.011a1.4,1.4,0,1,0,0-2.808H31.747a1.4,1.4,0,0,0,0,2.808Zm0-9.914H58.989a1.4,1.4,0,1,0,0-2.808H31.747a1.4,1.4,0,0,0,0,2.808Zm0-5.577h23.48a1.4,1.4,0,0,0,0-2.808H31.747a1.4,1.4,0,0,0,0,2.808Zm0-5.577H53.413a1.4,1.4,0,0,0,0-2.807H31.747a1.4,1.4,0,0,0,0,2.807ZM15.821,41.033l2,2a1.4,1.4,0,0,0,1.985,0l4.816-4.816a1.4,1.4,0,1,0-1.985-1.985l-3.823,3.825-1-1a1.406,1.406,0,0,0-1.992,1.984ZM21.636,57.3,20.22,58.716,18.8,57.3a1.4,1.4,0,0,0-1.985,1.984L18.235,60.7,16.82,62.116A1.4,1.4,0,1,0,18.8,64.1l1.415-1.417L21.636,64.1a1.405,1.405,0,1,0,1.99-1.985L22.207,60.7l1.419-1.417A1.4,1.4,0,0,0,21.641,57.3ZM13.6,52.674a1.4,1.4,0,0,0-1.4,1.4V67.322a1.4,1.4,0,0,0,1.4,1.4H26.844a1.4,1.4,0,0,0,1.4-1.4V54.078a1.4,1.4,0,0,0-1.4-1.4Zm11.841,2.808H15V65.924H25.441ZM13.6,31.6a1.4,1.4,0,0,0-1.4,1.4V46.252a1.4,1.4,0,0,0,1.4,1.4H26.844a1.4,1.4,0,0,0,1.4-1.4V33.008a1.4,1.4,0,0,0-1.4-1.4Zm11.841,2.808H15V44.854H25.441Zm52.325-14.2a10.442,10.442,0,1,0,7.986,0A10.442,10.442,0,0,0,77.766,20.214ZM84.695,22.8a7.646,7.646,0,1,0,4.132,9.991A7.646,7.646,0,0,0,84.695,22.8ZM61.28,24.521l4.506,1.866a1.4,1.4,0,0,1,.874,1.483,15.083,15.083,0,0,0-.012,3.963,1.4,1.4,0,0,1-.851,1.5l-4.524,1.871,2.221,5.364,4.466-1.85a1.4,1.4,0,0,1,1.71.422,15.057,15.057,0,0,0,2.815,2.814h0A1.4,1.4,0,0,1,72.93,43.6l-1.877,4.535,5.364,2.222,1.867-4.506a1.4,1.4,0,0,1,1.482-.873,15.179,15.179,0,0,0,3.961,0,1.4,1.4,0,0,1,1.5.851L87.1,50.355l5.364-2.222-1.85-4.466a1.4,1.4,0,0,1,.422-1.71,15.026,15.026,0,0,0,2.813-2.814h0A1.4,1.4,0,0,1,95.5,38.7l4.535,1.877,2.213-5.368L97.74,33.341a1.4,1.4,0,0,1-.873-1.482,15.133,15.133,0,0,0,0-3.961,1.4,1.4,0,0,1,.851-1.5l4.524-1.873-2.221-5.364-4.462,1.85a1.4,1.4,0,0,1-1.71-.422,15.121,15.121,0,0,0-2.814-2.813h0a1.4,1.4,0,0,1-.444-1.644l1.876-4.535L87.1,9.379l-1.866,4.506a1.4,1.4,0,0,1-1.483.873,15.132,15.132,0,0,0-3.961,0,1.4,1.4,0,0,1-1.5-.851L76.416,9.379,71.052,11.6l1.85,4.467a1.4,1.4,0,0,1-.422,1.709,15.12,15.12,0,0,0-2.813,2.814h0a1.4,1.4,0,0,1-1.643.445l-4.535-1.877-2.222,5.364Zm-1.845-2.857H2.808v57H84.943V52.445l-1.9-4.59q-.527.038-1.055.044V74.208a1.4,1.4,0,0,1-1.408,1.4H7.165a1.4,1.4,0,0,1-1.4-1.4V26.123a1.4,1.4,0,0,1,1.4-1.4h51l1.266-3.059ZM79.187,50.986l-.715,1.724a1.4,1.4,0,0,1-1.826.763l-7.954-3.288a1.4,1.4,0,0,1-.763-1.826L69.943,43.5a18.14,18.14,0,0,1-1.808-1.817l-4.861,2.013a1.4,1.4,0,0,1-1.826-.763l-3.293-7.95a1.4,1.4,0,0,1,.763-1.826l4.852-2.01a18.234,18.234,0,0,1,0-2.563l-2.552-1.055H8.569V72.8H79.181V50.987ZM55.615,90H19.468l-2.057,5.843H70.339L68.282,90Zm-3.23-8.525H35.365L33.932,87.19H53.818Z" transform="translate(0 -6.147)" fill="#1c54f8" fill-rule="evenodd"></path></g></g><g id="Mask_Group_11" data-name="Mask Group 11" transform="translate(586 92)" clip-path="url(#clip-path-6)"><g id="Group_13" data-name="Group 13" transform="translate(797.8 54.8)"><path id="Path_52" data-name="Path 52" d="M103.1,42.674l-4.813-.849a44.862,44.862,0,0,0-4.23-10.142l2.814-4.03a4.855,4.855,0,0,0-.55-6.228l-9.476-9.459a4.851,4.851,0,0,0-6.212-.55L76.623,14.23a45,45,0,0,0-10.142-4.213L65.615,5.2a4.872,4.872,0,0,0-4.78-4.013H47.48a4.857,4.857,0,0,0-4.78,4l-.866,4.829A44.374,44.374,0,0,0,31.692,14.23l-4.013-2.8a4.851,4.851,0,0,0-6.212.55L11.359,22.073a3.724,3.724,0,0,0-.433,4.829l3.347,4.8a44.547,44.547,0,0,0-4.23,10.142l-5.729,1a3.75,3.75,0,0,0-3.114,3.7V60.859a4.848,4.848,0,0,0,4.047,4.8l4.813.833a44.117,44.117,0,0,0,4.23,10.159l-3.347,4.763a3.723,3.723,0,0,0,.416,4.813L21.484,96.347a4.872,4.872,0,0,0,6.228.55l4.013-2.814A45.914,45.914,0,0,0,41.868,98.3l1.066,6a3.477,3.477,0,0,0,3.414,2.831H61.818a3.727,3.727,0,0,0,3.7-3.1L66.531,98.3a44.56,44.56,0,0,0,10.125-4.213L80.67,96.9a4.851,4.851,0,0,0,6.212-.55L97.007,86.222a3.783,3.783,0,0,0,.416-4.8l-3.331-4.8a45.915,45.915,0,0,0,4.213-10.142l5.729-1a3.756,3.756,0,0,0,3.1-3.714V47.453A4.887,4.887,0,0,0,103.1,42.674Zm1.166,19.1a.93.93,0,0,1-.749.916L97.59,63.723a2.56,2.56,0,0,0-2,1.815,42.238,42.238,0,0,1-4.1,9.859,2.516,2.516,0,0,0,.117,2.681l3.464,4.963a.956.956,0,0,1-.1,1.182L84.85,94.349a2.022,2.022,0,0,1-2.581.233l-4.2-2.931a2.516,2.516,0,0,0-2.681-.117,42.84,42.84,0,0,1-9.842,4.1,2.515,2.515,0,0,0-1.815,1.982l-1.066,5.962a.9.9,0,0,1-.9.733H46.3a.644.644,0,0,1-.616-.5l-1.1-6.178a2.515,2.515,0,0,0-1.815-1.982,41.943,41.943,0,0,1-9.859-4.1,2.55,2.55,0,0,0-1.249-.333,2.474,2.474,0,0,0-1.432.45L26.03,94.6a2,2,0,0,1-2.581-.233L13.357,84.207a.89.89,0,0,1-.1-1.166L16.738,78.1a2.545,2.545,0,0,0,.117-2.7,41.536,41.536,0,0,1-4.1-9.859,2.514,2.514,0,0,0-2-1.815l-5.013-.866a2.036,2.036,0,0,1-1.682-2V46.537a.924.924,0,0,1,.766-.9l5.929-1.049a2.515,2.515,0,0,0,1.982-1.815,41.94,41.94,0,0,1,4.1-9.842,2.511,2.511,0,0,0-.117-2.7l-3.464-4.963a.932.932,0,0,1,.1-1.182L23.482,13.98a2.043,2.043,0,0,1,2.581-.233l4.2,2.931a2.518,2.518,0,0,0,2.681.117A42.358,42.358,0,0,1,42.8,12.7a2.515,2.515,0,0,0,1.815-1.982L45.5,5.7A2,2,0,0,1,47.48,4.038H60.836A2,2,0,0,1,62.817,5.7l.9,5.029a2.539,2.539,0,0,0,1.815,1.982,42.117,42.117,0,0,1,9.859,4.1,2.516,2.516,0,0,0,2.681-.117l4.2-2.931A2,2,0,0,1,84.85,14l9.476,9.459a2.022,2.022,0,0,1,.233,2.581L91.611,30.25a2.545,2.545,0,0,0-.117,2.7,42.536,42.536,0,0,1,4.1,9.842,2.515,2.515,0,0,0,1.982,1.815l5.029.883a2,2,0,0,1,1.665,1.982V61.775Z" transform="translate(-1.2 -1.19)" fill="#1c54f7" stroke="#1c54f7" stroke-width="0.4"></path><path id="Path_53" data-name="Path 53" d="M46.1,12.87A33.523,33.523,0,1,0,79.626,46.393,33.561,33.561,0,0,0,46.1,12.87Zm0,64.215A30.692,30.692,0,1,1,76.8,46.393,30.732,30.732,0,0,1,46.1,77.085Z" transform="translate(6.372 6.581)" fill="#1c54f7" stroke="#1c54f7" stroke-width="0.4"></path><path id="Path_54" data-name="Path 54" d="M40.039,18.2A17.609,17.609,0,0,0,26.767,47.393c.133.133.266.283.4.433a22.3,22.3,0,0,1,3.514,6.012,2.632,2.632,0,0,0-1.615,2.431v4.8A2.637,2.637,0,0,0,31.7,63.7h1.232A6.248,6.248,0,0,0,38.99,68.51h2.132A6.248,6.248,0,0,0,47.184,63.7h1.232a2.637,2.637,0,0,0,2.631-2.631v-4.8a2.632,2.632,0,0,0-1.615-2.431A21.369,21.369,0,0,1,52.9,47.876c.167-.183.333-.366.483-.533A17.615,17.615,0,0,0,40.039,18.2Zm1.066,47.462H38.973A3.379,3.379,0,0,1,35.893,63.7h8.293A3.407,3.407,0,0,1,41.105,65.662ZM48.2,60.849H31.879V56.486H48.2v4.363Zm3.014-15.371c-.133.15-.266.3-.433.483a26.179,26.179,0,0,0-4.33,7.661H41.471V39.35l3.214-3.214a1.425,1.425,0,0,0-2.015-2.015l-2.631,2.648-2.631-2.631a1.425,1.425,0,0,0-2.015,2.015l3.214,3.214V53.638H33.628a25.97,25.97,0,0,0-4.33-7.661c-.15-.183-.316-.366-.45-.5a14.763,14.763,0,1,1,22.365,0Z" transform="translate(12.918 10.127)" fill="#1c54f7" stroke="#1c54f7" stroke-width="0.4"></path></g></g><g id="Mask_Group_8" data-name="Mask Group 8" transform="translate(663 92)" clip-path="url(#clip-path-7)"><g id="Group_10" data-name="Group 10" transform="translate(1027.024 52.024)"><path id="Path_38" data-name="Path 38" d="M56.546,46.6a25.608,25.608,0,0,0,2.3-5.548L63.7,40.9a1.855,1.855,0,0,0,1.806-1.853V29A1.839,1.839,0,0,0,63.7,27.15L58.848,27a25.608,25.608,0,0,0-2.3-5.548l3.329-3.542a1.849,1.849,0,0,0-.035-2.585L52.733,8.215a1.838,1.838,0,0,0-2.585-.035l-3.542,3.329a25.609,25.609,0,0,0-5.548-2.3L40.9,4.354A1.852,1.852,0,0,0,39.051,2.56H29.005a1.837,1.837,0,0,0-1.853,1.794L27,9.206a25.7,25.7,0,0,0-5.56,2.3l-3.53-3.329a1.849,1.849,0,0,0-2.585.035L8.216,15.321a1.839,1.839,0,0,0-.035,2.585l3.329,3.53A25.7,25.7,0,0,0,9.208,27l-4.852.142A1.855,1.855,0,0,0,2.55,28.991V39.038a1.839,1.839,0,0,0,1.806,1.853l4.852.142a25.7,25.7,0,0,0,2.3,5.56l-3.329,3.53a1.849,1.849,0,0,0,.035,2.585L15.323,59.8a1.839,1.839,0,0,0,2.585.035l3.53-3.329a25.7,25.7,0,0,0,5.56,2.3l.142,4.852a1.855,1.855,0,0,0,1.853,1.806H39.039a1.839,1.839,0,0,0,1.853-1.806l.142-4.852a25.7,25.7,0,0,0,5.56-2.3l3.542,3.329a1.849,1.849,0,0,0,2.585-.035L59.828,52.7a1.85,1.85,0,0,0,.035-2.585ZM51.4,57.3,48,54.113a1.837,1.837,0,0,0-2.219-.248,22.95,22.95,0,0,1-6.044,2.5,1.829,1.829,0,0,0-1.393,1.747L38.2,62.766H29.855l-.142-4.651a1.853,1.853,0,0,0-1.393-1.747,22.787,22.787,0,0,1-6.044-2.5,1.835,1.835,0,0,0-2.219.248L16.669,57.3l-5.9-5.9,3.187-3.388A1.837,1.837,0,0,0,14.2,45.79a22.72,22.72,0,0,1-2.5-6.044,1.829,1.829,0,0,0-1.747-1.393L5.3,38.211V29.865l4.651-.142A1.853,1.853,0,0,0,11.7,28.33a22.787,22.787,0,0,1,2.5-6.044,1.835,1.835,0,0,0-.248-2.219l-3.2-3.412,5.9-5.9,3.388,3.187a1.837,1.837,0,0,0,2.219.248,22.95,22.95,0,0,1,6.044-2.5A1.839,1.839,0,0,0,29.7,9.938l.142-4.651h8.346l.142,4.651a1.853,1.853,0,0,0,1.393,1.747,22.95,22.95,0,0,1,6.044,2.5,1.837,1.837,0,0,0,2.219-.248l3.4-3.187,5.9,5.9-3.187,3.4a1.837,1.837,0,0,0-.248,2.219,22.95,22.95,0,0,1,2.5,6.044A1.829,1.829,0,0,0,58.1,29.712l4.651.142V38.2l-4.651.142a1.853,1.853,0,0,0-1.747,1.393,22.95,22.95,0,0,1-2.5,6.044A1.835,1.835,0,0,0,54.1,48l3.187,3.4ZM38.248,18.284a16.3,16.3,0,1,0,9.893,7.591A16.321,16.321,0,0,0,38.248,18.284Zm8.889,19.254A13.555,13.555,0,1,1,45.78,27.256,13.491,13.491,0,0,1,47.138,37.538Zm65.719,45.048-3.813-.118a21.86,21.86,0,0,0-1.771-4.285l2.609-2.774a1.772,1.772,0,0,0-.035-2.467l-5.832-5.832a1.76,1.76,0,0,0-2.467-.035l-2.774,2.609a20.887,20.887,0,0,0-4.285-1.771L94.37,64.1A1.764,1.764,0,0,0,92.6,62.388H84.347A1.772,1.772,0,0,0,82.576,64.1l-.118,3.813a21.566,21.566,0,0,0-4.285,1.771L75.4,67.075a1.76,1.76,0,0,0-2.467.035L67.1,72.942a1.76,1.76,0,0,0-.035,2.467l2.609,2.774a21.608,21.608,0,0,0-1.783,4.285l-3.8.118a1.749,1.749,0,0,0-1.712,1.771v8.252A1.764,1.764,0,0,0,64.09,94.38l3.8.118a20.927,20.927,0,0,0,1.783,4.285l-2.609,2.774a1.76,1.76,0,0,0,.035,2.467l5.832,5.832a1.76,1.76,0,0,0,2.467.035l2.774-2.609a21.608,21.608,0,0,0,4.285,1.783l.118,3.8a1.749,1.749,0,0,0,1.771,1.712H92.6a1.764,1.764,0,0,0,1.771-1.712h0l.118-3.8a21.567,21.567,0,0,0,4.285-1.771l2.774,2.609a1.772,1.772,0,0,0,2.467-.035l5.832-5.832a1.76,1.76,0,0,0,.035-2.467l-2.609-2.774a20.887,20.887,0,0,0,1.771-4.285l3.813-.118a1.764,1.764,0,0,0,1.712-1.771V84.369A1.759,1.759,0,0,0,112.856,82.586Zm-1.015,9.078-3.589.106a1.762,1.762,0,0,0-1.665,1.334,18.53,18.53,0,0,1-2.03,4.9,1.747,1.747,0,0,0,.236,2.113l2.455,2.621-4.51,4.51-2.621-2.455a1.764,1.764,0,0,0-2.113-.236,18.53,18.53,0,0,1-4.9,2.03,1.764,1.764,0,0,0-1.334,1.665l-.106,3.589H85.292l-.106-3.589a1.762,1.762,0,0,0-1.334-1.665,18.368,18.368,0,0,1-4.9-2.03,1.73,1.73,0,0,0-2.113.236l-2.609,2.455-4.51-4.51,2.455-2.609a1.764,1.764,0,0,0,.236-2.113,18.605,18.605,0,0,1-2.03-4.911,1.764,1.764,0,0,0-1.665-1.334l-3.589-.106V85.29l3.589-.106a1.762,1.762,0,0,0,1.665-1.334,18.368,18.368,0,0,1,2.03-4.9,1.747,1.747,0,0,0-.236-2.113l-2.455-2.609,4.51-4.51,2.609,2.455a1.764,1.764,0,0,0,2.113.236,18.53,18.53,0,0,1,4.9-2.03,1.764,1.764,0,0,0,1.334-1.665l.106-3.589h6.387l.106,3.589a1.762,1.762,0,0,0,1.334,1.665,18.53,18.53,0,0,1,4.9,2.03,1.764,1.764,0,0,0,2.113-.236l2.621-2.455,4.51,4.51-2.455,2.621a1.764,1.764,0,0,0-.236,2.113,18.53,18.53,0,0,1,2.03,4.9,1.764,1.764,0,0,0,1.665,1.334l3.589.106v6.363Zm-23.362-15.8a12.608,12.608,0,1,0,12.608,12.608A12.621,12.621,0,0,0,88.479,75.869Zm0,22.489a9.881,9.881,0,1,1,9.881-9.881A9.892,9.892,0,0,1,88.479,98.358ZM70.9,34.41,84.914,44.657a1.362,1.362,0,0,0,2.172-1.1V39.8c10.176.177,13.8,4.793,16.019,11.628a1.368,1.368,0,0,0,1.3.944h.035a1.386,1.386,0,0,0,1.287-1.027c1.936-7.414,1.358-13.269-1.688-17.4-3.1-4.214-8.807-6.634-16.952-7.2V23.054a1.362,1.362,0,0,0-2.172-1.1L70.9,32.2a1.375,1.375,0,0,0,0,2.208Zm13.458-8.653v2.29a1.375,1.375,0,0,0,1.31,1.369c7.98.354,13.422,2.432,16.185,6.162,1.936,2.621,2.633,6.2,2.1,10.66A16.4,16.4,0,0,0,99.8,40.962c-3.211-2.621-7.579-3.9-13.34-3.9-.248,0-.5,0-.756.012a1.373,1.373,0,0,0-1.346,1.369v2.432L74.03,33.324ZM56.877,87.379,42.864,77.132a1.384,1.384,0,0,0-1.428-.118,1.367,1.367,0,0,0-.744,1.216v3.754c-10.176-.177-13.8-4.793-16.019-11.628a1.356,1.356,0,0,0-1.334-.944,1.389,1.389,0,0,0-1.287,1.015c-1.936,7.414-1.358,13.269,1.688,17.4,3.1,4.214,8.807,6.634,16.952,7.2v3.695a1.354,1.354,0,0,0,.744,1.216,1.43,1.43,0,0,0,.614.153,1.413,1.413,0,0,0,.8-.26L56.865,89.587a1.384,1.384,0,0,0,.012-2.208ZM43.419,96.032v-2.29a1.375,1.375,0,0,0-1.31-1.369c-7.98-.354-13.422-2.432-16.185-6.162-1.936-2.621-2.633-6.2-2.1-10.66a16.4,16.4,0,0,0,4.155,5.277c3.353,2.739,7.968,4.014,14.1,3.9a1.373,1.373,0,0,0,1.346-1.369V80.922l10.329,7.555ZM36.891,27.587l-4.946,4.946-.767-.767a3.744,3.744,0,0,0-5.289,0,3.734,3.734,0,0,0,0,5.289L29.3,40.466a3.705,3.705,0,0,0,2.644,1.1h0a3.705,3.705,0,0,0,2.644-1.1l7.591-7.591a3.74,3.74,0,1,0-5.289-5.289Zm3.353,3.364-7.591,7.591a1,1,0,0,1-1.417,0L27.825,35.13a1,1,0,0,1,.708-1.712.963.963,0,0,1,.708.3l1.735,1.735a1.368,1.368,0,0,0,1.936,0l5.914-5.914a1,1,0,1,1,1.417,1.417Z" transform="translate(-2.55 -2.56)" fill="#1c54f8" stroke="#1c54f7" stroke-width="0.4"></path></g></g></g></g></svg> 