<?xml version="1.0" encoding="UTF-8"?> <svg xmlns="http://www.w3.org/2000/svg" xmlns:xlink="http://www.w3.org/1999/xlink" width="60" height="60" viewBox="0 0 60 60"><defs><clipPath id="clip-path"><rect id="Rectangle_819" data-name="Rectangle 819" width="60" height="60" transform="translate(884 258)" fill="#fff" stroke="#707070" stroke-width="1"></rect></clipPath></defs><g id="Mask_Group_58" data-name="Mask Group 58" transform="translate(-884 -258)" clip-path="url(#clip-path)"><g id="Group_32" data-name="Group 32" transform="translate(-505 -125)"><path id="Path_79" data-name="Path 79" d="M182.348,108.072a1.95,1.95,0,0,1-1.434-.528,1.992,1.992,0,0,1-.513-1.465,2.237,2.237,0,0,1,.483-1.51,1.654,1.654,0,0,1,1.314-.544,1.6,1.6,0,0,1,1.223.468,1.789,1.789,0,0,1,.453,1.3v.453h-2.612a1.385,1.385,0,0,0,.3.876,1.028,1.028,0,0,0,.815.3,2.965,2.965,0,0,0,.649-.06,5.334,5.334,0,0,0,.649-.211v.679a3,3,0,0,1-.619.211A3.567,3.567,0,0,1,182.348,108.072Zm-.166-3.412a.818.818,0,0,0-.634.257,1.235,1.235,0,0,0-.287.74h1.782a1.084,1.084,0,0,0-.227-.74A.818.818,0,0,0,182.182,104.659Zm3.458,3.352h-.83V102.5h.83Zm3.639,0-.166-.544h-.03a1.385,1.385,0,0,1-.574.483,2.022,2.022,0,0,1-.74.136,1.274,1.274,0,0,1-.906-.317,1.12,1.12,0,0,1-.317-.876,1,1,0,0,1,.453-.906,2.654,2.654,0,0,1,1.374-.332l.679-.015v-.211a.753.753,0,0,0-.181-.559.738.738,0,0,0-.544-.181,1.825,1.825,0,0,0-.574.091,5.51,5.51,0,0,0-.528.211l-.272-.589a3.148,3.148,0,0,1,.695-.257,3.047,3.047,0,0,1,.71-.091,1.663,1.663,0,0,1,1.132.332,1.281,1.281,0,0,1,.377,1.027v2.6Zm-1.238-.574a1.035,1.035,0,0,0,.725-.257.922.922,0,0,0,.272-.71v-.332l-.5.015a1.719,1.719,0,0,0-.861.2.61.61,0,0,0-.272.544.5.5,0,0,0,.151.408A.738.738,0,0,0,188.04,107.437Zm5.617-.544a1,1,0,0,1-.423.876,2.077,2.077,0,0,1-1.193.3,2.684,2.684,0,0,1-1.253-.242v-.725a3.079,3.079,0,0,0,1.283.317c.513,0,.77-.151.77-.468a.319.319,0,0,0-.091-.242,1.276,1.276,0,0,0-.287-.211,5.068,5.068,0,0,0-.544-.242,2.58,2.58,0,0,1-.921-.528.962.962,0,0,1-.242-.679.916.916,0,0,1,.408-.785,1.837,1.837,0,0,1,1.1-.272,2.964,2.964,0,0,1,1.3.287l-.272.619a2.731,2.731,0,0,0-1.072-.257c-.438,0-.664.121-.664.377a.416.416,0,0,0,.166.317,3.319,3.319,0,0,0,.755.347,3.436,3.436,0,0,1,.71.347,1.071,1.071,0,0,1,.332.362.8.8,0,0,1,.136.5Zm2.355.513a2.093,2.093,0,0,0,.6-.091v.619a1.5,1.5,0,0,1-.362.106,2.3,2.3,0,0,1-.453.045c-.785,0-1.178-.423-1.178-1.238v-2.114h-.528v-.362l.574-.3.287-.83h.513v.876h1.117v.634h-1.117v2.1a.552.552,0,0,0,.151.438A.581.581,0,0,0,196.013,107.407Zm1.344-4.349a.51.51,0,0,1,.121-.347.426.426,0,0,1,.347-.121.509.509,0,0,1,.347.121.426.426,0,0,1,.121.347.47.47,0,0,1-.121.332.56.56,0,0,1-.695,0A.47.47,0,0,1,197.356,103.059Zm.891,4.953h-.83V104.1h.83Zm2.763.06a1.688,1.688,0,0,1-1.344-.513,2.635,2.635,0,0,1,.015-3.02,1.746,1.746,0,0,1,1.389-.528,2.687,2.687,0,0,1,1.117.226l-.257.664a2.51,2.51,0,0,0-.876-.211c-.679,0-1.012.453-1.012,1.344a1.67,1.67,0,0,0,.257,1,.866.866,0,0,0,.74.332,2.161,2.161,0,0,0,1.057-.272v.725a1.334,1.334,0,0,1-.483.181A3.29,3.29,0,0,1,201.01,108.072Zm4.635-1.178a1,1,0,0,1-.423.876,2.077,2.077,0,0,1-1.193.3,2.684,2.684,0,0,1-1.253-.242v-.725a3.079,3.079,0,0,0,1.283.317c.513,0,.77-.151.77-.468a.319.319,0,0,0-.091-.242,1.275,1.275,0,0,0-.287-.211,5.068,5.068,0,0,0-.544-.242,2.58,2.58,0,0,1-.921-.528.962.962,0,0,1-.242-.679.916.916,0,0,1,.408-.785,1.837,1.837,0,0,1,1.1-.272,2.964,2.964,0,0,1,1.3.287l-.272.619a2.731,2.731,0,0,0-1.072-.257c-.438,0-.664.121-.664.377a.416.416,0,0,0,.166.317,3.319,3.319,0,0,0,.755.347,3.435,3.435,0,0,1,.71.347,1.071,1.071,0,0,1,.332.362A.8.8,0,0,1,205.646,106.894Zm2.612,1.178a1.95,1.95,0,0,1-1.434-.528,1.992,1.992,0,0,1-.513-1.465,2.237,2.237,0,0,1,.483-1.51,1.654,1.654,0,0,1,1.314-.544,1.6,1.6,0,0,1,1.223.468,1.789,1.789,0,0,1,.453,1.3v.453h-2.612a1.385,1.385,0,0,0,.3.876,1.028,1.028,0,0,0,.815.3,2.965,2.965,0,0,0,.649-.06,5.336,5.336,0,0,0,.649-.211v.679a3,3,0,0,1-.619.211A3.512,3.512,0,0,1,208.258,108.072Zm-.151-3.412a.818.818,0,0,0-.634.257,1.235,1.235,0,0,0-.287.74h1.782a1.084,1.084,0,0,0-.226-.74A.841.841,0,0,0,208.107,104.659Zm5.058,3.352-.166-.544h-.03a1.385,1.385,0,0,1-.574.483,2.022,2.022,0,0,1-.74.136,1.274,1.274,0,0,1-.906-.317,1.12,1.12,0,0,1-.317-.876,1,1,0,0,1,.453-.906,2.654,2.654,0,0,1,1.374-.332l.679-.015v-.211a.753.753,0,0,0-.181-.559.738.738,0,0,0-.544-.181,1.825,1.825,0,0,0-.574.091,5.505,5.505,0,0,0-.529.211l-.272-.589a3.149,3.149,0,0,1,.695-.257,3.047,3.047,0,0,1,.71-.091,1.663,1.663,0,0,1,1.132.332,1.281,1.281,0,0,1,.378,1.027v2.6Zm-1.238-.574a1.035,1.035,0,0,0,.725-.257.922.922,0,0,0,.272-.71v-.332l-.5.015a1.719,1.719,0,0,0-.861.2.61.61,0,0,0-.272.544.5.5,0,0,0,.151.408A.766.766,0,0,0,211.927,107.437Zm4.983-3.412a2.824,2.824,0,0,1,.408.03l-.076.77a1.489,1.489,0,0,0-.362-.045,1.059,1.059,0,0,0-.815.332,1.175,1.175,0,0,0-.317.846v2.053h-.83V104.1h.649l.106.695h.045a1.663,1.663,0,0,1,.513-.559A1.242,1.242,0,0,1,216.91,104.025Zm2.718,4.047a1.688,1.688,0,0,1-1.344-.513,2.635,2.635,0,0,1,.015-3.02,1.746,1.746,0,0,1,1.389-.528,2.687,2.687,0,0,1,1.117.226l-.257.664a2.51,2.51,0,0,0-.876-.211c-.679,0-1.012.453-1.012,1.344a1.67,1.67,0,0,0,.257,1,.866.866,0,0,0,.74.332,2.161,2.161,0,0,0,1.057-.272v.725a1.334,1.334,0,0,1-.483.181A3.29,3.29,0,0,1,219.628,108.072Zm5.451-.06h-.83V105.6a1.073,1.073,0,0,0-.181-.679.7.7,0,0,0-.574-.226.919.919,0,0,0-.77.317,1.709,1.709,0,0,0-.242,1.042v1.963h-.83V102.5h.83v1.4a6.217,6.217,0,0,1-.045.725h.06a1.3,1.3,0,0,1,.468-.438,1.492,1.492,0,0,1,.71-.151,1.261,1.261,0,0,1,1.419,1.434v2.537Z" transform="translate(1216.6 329.709)"></path><g id="Group_31" data-name="Group 31" transform="translate(1402.04 389)"><path id="Path_80" data-name="Path 80" d="M130.776,115.5H120.9c.047.236.142.473.189.662a17.368,17.368,0,0,1,.614,3.544c.047.473.047.992.047,1.465s0,.992-.047,1.465a17.366,17.366,0,0,1-.614,3.544c-.047.236-.142.473-.189.662h9.876a5.67,5.67,0,0,0,0-11.34Z" transform="translate(-104.787 -102.27)" fill="#00a9e5"></path><path id="Path_81" data-name="Path 81" d="M103.716,122.635c.047-.473.047-.992.047-1.465s0-.992-.047-1.465a17.367,17.367,0,0,0-.614-3.544c-.047-.236-.142-.473-.189-.662H87.651a19.326,19.326,0,0,0,0,11.34h15.262c.047-.236.142-.473.189-.662A17.367,17.367,0,0,0,103.716,122.635Z" transform="translate(-86.8 -102.27)" fill="#353535"></path><path id="Path_82" data-name="Path 82" d="M123.931,143.5H111.646a19.423,19.423,0,0,1-1.276,2.41,18.342,18.342,0,0,1-2.5,3.213c-.331.331-.662.614-.992.945a18.8,18.8,0,0,1-2.174,1.654,18.7,18.7,0,0,0,10.4,3.119,18.941,18.941,0,0,0,15.735-8.411A9.637,9.637,0,0,0,123.931,143.5Z" transform="translate(-96.242 -117.039)" fill="#00bfb3"></path><path id="Path_83" data-name="Path 83" d="M102.669,145.91a19.423,19.423,0,0,0,1.276-2.41H90.1a18.683,18.683,0,0,0,6.946,8.222,23.968,23.968,0,0,0,2.174-1.654c.331-.283.662-.614.992-.945a18.624,18.624,0,0,0,2.457-3.213Z" transform="translate(-88.541 -117.039)" fill="#019b8f"></path><path id="Path_84" data-name="Path 84" d="M100.112,96.7c-.331-.331-.662-.614-.992-.945A18.8,18.8,0,0,0,96.946,94.1,19.317,19.317,0,0,0,90,102.322h13.845a19.425,19.425,0,0,0-1.276-2.41A14.86,14.86,0,0,0,100.112,96.7Z" transform="translate(-88.488 -90.981)" fill="#f9b110"></path><path id="Path_85" data-name="Path 85" d="M115.1,87.5a18.7,18.7,0,0,0-10.4,3.119,23.969,23.969,0,0,1,2.174,1.654c.331.284.662.614.992.945a18.342,18.342,0,0,1,2.5,3.213,19.422,19.422,0,0,1,1.276,2.41h12.285a9.637,9.637,0,0,0,6.9-2.93A18.941,18.941,0,0,0,115.1,87.5Z" transform="translate(-96.242 -87.5)" fill="#fed10a"></path></g></g></g></svg> 