<?xml version="1.0" encoding="UTF-8"?> <svg xmlns="http://www.w3.org/2000/svg" width="90" height="90" viewBox="0 0 90 90" fill="none"><path d="M24.1812 16H24.181L24.1814 16.0087C24.3014 18.7682 22.1441 20.925 19.5062 20.925H10.0062C9.45619 20.925 8.90909 20.5937 8.69192 20.0507C8.46993 19.4957 8.5824 18.8317 9.02265 18.3914L21.7726 5.64142C22.2172 5.19685 22.7577 5.09101 23.3069 5.3107C23.8499 5.52787 24.1812 6.07497 24.1812 6.625V16ZM13.9898 17.6086L13.6484 17.95H14.1312H19.5062C20.4917 17.95 21.3312 17.1105 21.3312 16.125V10.75V10.2672L20.9898 10.6086L13.9898 17.6086Z" fill="#1B54F8" stroke="white" stroke-width="0.4"></path><path d="M58.9562 62.625V62.4896L58.8305 62.4393C58.5794 62.3389 58.3469 62.2578 58.1311 62.1826C58.0741 62.1627 58.0182 62.1432 57.9634 62.1239C57.6994 62.0307 57.4591 61.9403 57.2207 61.8211L57.0917 61.7567L56.9898 61.8586L54.1148 64.7336C53.5679 65.2805 52.5695 65.2805 52.0226 64.7336L45.3976 58.1086C44.8508 57.5617 44.8508 56.5633 45.3976 56.0164L48.2726 53.1414L48.3746 53.0395L48.3101 52.9106C48.0645 52.4193 47.8207 51.8083 47.7003 51.3265L47.6624 51.175H47.5062H43.3812C42.6167 51.175 41.9562 50.5145 41.9562 49.75V40.5C41.9562 39.7355 42.6167 39.075 43.3812 39.075H47.5062H47.6416L47.6919 38.9493C47.7924 38.6981 47.8734 38.4657 47.9486 38.2499C47.9685 38.1928 47.988 38.1369 48.0073 38.0822C48.1005 37.8182 48.1909 37.5779 48.3101 37.3394L48.3746 37.2105L48.2726 37.1086L45.3976 34.2336C44.8508 33.6867 44.8508 32.6883 45.3976 32.1414L52.0226 25.5164C52.5695 24.9695 53.5679 24.9695 54.1148 25.5164L56.9898 28.3914L57.0917 28.4934L57.2207 28.4289C57.7119 28.1833 58.3229 27.9395 58.8047 27.819L58.9562 27.7812V27.625V23.5C58.9562 22.7355 59.6167 22.075 60.3812 22.075H69.6312C70.3958 22.075 71.0562 22.7355 71.0562 23.5V27.625V27.7604L71.1819 27.8107C71.4331 27.9112 71.6656 27.9922 71.8813 28.0674C71.9384 28.0873 71.9943 28.1068 72.049 28.1261C72.313 28.2193 72.5534 28.3097 72.7918 28.4289L72.9207 28.4934L73.0226 28.3914L75.8977 25.5164C76.4445 24.9695 77.4429 24.9695 77.9898 25.5164L84.6148 32.1414C85.1617 32.6883 85.1617 33.6867 84.6148 34.2336L81.7398 37.1086L81.6379 37.2105L81.7023 37.3394C81.948 37.8307 82.1917 38.4417 82.3122 38.9235L82.3501 39.075H82.5062H86.6312C87.3958 39.075 88.0562 39.7355 88.0562 40.5V49.75C88.0562 50.5145 87.3958 51.175 86.6312 51.175H82.5062H82.3708L82.3205 51.3007C82.2201 51.5519 82.139 51.7843 82.0638 52.0001C82.0439 52.0572 82.0245 52.1131 82.0051 52.1678C81.912 52.4318 81.8216 52.6721 81.7023 52.9106L81.6379 53.0395L81.7398 53.1414L84.6148 56.0164C84.7194 56.121 84.832 56.2873 84.9184 56.4744C85.0053 56.6627 85.0562 56.8518 85.0562 57C85.0562 57.35 84.9371 57.7641 84.6453 57.9586L84.6288 57.9696L84.6148 57.9836L77.9898 64.6086C77.4429 65.1555 76.4445 65.1555 75.8977 64.6086L73.0226 61.7336L72.9207 61.6317L72.7918 61.6961C72.3006 61.9417 71.6896 62.1855 71.2077 62.306L71.0562 62.3438V62.5V66.625V66.6375L71.0578 66.6498C71.1661 67.5161 70.5259 68.175 69.6312 68.175H60.3812C59.6167 68.175 58.9562 67.5145 58.9562 66.75V62.625ZM61.9312 65V65.2H62.1312H68.1312H68.3312V65V61.375C68.3312 60.7228 68.7645 60.1664 69.4445 59.9397L69.4556 59.936C70.5725 59.5637 71.7159 59.1826 72.7357 58.5456C73.2792 58.2206 74.0514 58.3297 74.4881 58.7648L76.9864 61.3879L77.1277 61.5363L77.2727 61.3914L81.5227 57.1414L81.6641 57L81.5227 56.8586L78.8976 54.2336C78.4612 53.7972 78.3514 53.0236 78.6768 52.4795C79.3138 51.4597 79.695 50.3163 80.0673 49.1993L80.071 49.1882C80.2976 48.5082 80.854 48.075 81.5062 48.075H85.1312H85.3312V47.875V41.875V41.675H85.1312H81.5062C80.854 41.675 80.2976 41.2418 80.071 40.5618L80.0673 40.5507C79.695 39.4337 79.3138 38.2903 78.6768 37.2705C78.3514 36.7264 78.4612 35.9528 78.8976 35.5164L81.5227 32.8914L81.6684 32.7457L81.5183 32.6044L77.2683 28.6044L77.127 28.4714L76.9898 28.6086L74.3648 31.2336C73.9284 31.67 73.1547 31.7798 72.6106 31.4544C71.5908 30.8174 70.4474 30.4363 69.3306 30.064L69.3195 30.0603C68.6395 29.8336 68.2062 29.2772 68.2062 28.625V25V24.8H68.0062H62.1312H61.9312V25V28.625C61.9312 29.2772 61.498 29.8336 60.818 30.0603L60.8069 30.064C59.69 30.4363 58.5466 30.8174 57.5268 31.4544C56.9827 31.7798 56.2091 31.67 55.7726 31.2336L53.1476 28.6086L53.0062 28.4672L52.8648 28.6086L48.6148 32.8586L48.4734 33L48.6148 33.1414L51.2398 35.7664C51.6762 36.2029 51.7861 36.9765 51.4606 37.5206C50.8236 38.5404 50.4425 39.6838 50.0702 40.8006L50.0665 40.8118C49.8398 41.4918 49.2834 41.925 48.6312 41.925H45.0062H44.8062V42.125V48.125V48.325H45.0062H48.6312C49.2834 48.325 49.8398 48.7582 50.0665 49.4382L50.0702 49.4493C50.4425 50.5662 50.8236 51.7096 51.4606 52.7294C51.7861 53.2735 51.6763 54.0471 51.2398 54.4836L48.6148 57.1086L48.4734 57.25L48.6148 57.3914L52.8648 61.6414L53.0062 61.7828L53.1476 61.6414L55.7726 59.0164C56.2091 58.58 56.9826 58.4702 57.5267 58.7955C58.5465 59.4326 59.6899 59.8137 60.8069 60.186L60.818 60.1897C61.498 60.4164 61.9312 60.9728 61.9312 61.625V65Z" fill="#1B54F8" stroke="white" stroke-width="0.4"></path><path d="M62.1312 65.2H66.5562V80C66.5562 82.6395 64.3958 84.8 61.7562 84.8H13.3812C10.7417 84.8 8.58123 82.6395 8.58123 80V18.8328L22.2141 5.2H61.7562C64.3958 5.2 66.5562 7.36046 66.5562 10V24.8H62.1312H61.9312V25V29.7262L60.8238 30.0584L60.8237 30.0583L60.818 30.0603L60.8068 30.064C59.691 30.4359 58.5487 30.8167 57.5296 31.4526L56.541 32.0019L53.1477 28.6086L53.0062 28.4672L52.8648 28.6086L48.6148 32.8586L48.4734 33L48.6148 33.1414L52.0023 36.5289L51.4616 37.394C50.824 38.4142 50.4427 39.5582 50.0702 40.6756L50.0665 40.6868L50.0664 40.6867L50.0647 40.6925L49.7324 41.8H45.0062H44.8062V42V48V48.2H45.0062H49.7324L50.0647 49.3075L50.0646 49.3075L50.0665 49.3132L50.0702 49.3244C50.4422 50.4402 50.8229 51.5825 51.4589 52.6016L52.0081 53.5903L48.6148 56.9836L48.4734 57.125L48.6148 57.2664L52.8648 61.5164L53.0062 61.6578L53.1477 61.5164L56.541 58.1231L57.5296 58.6723C58.5487 59.3083 59.691 59.6891 60.8069 60.061L60.818 60.0647L60.818 60.0648L60.8238 60.0666L61.9312 60.3988V65V65.2H62.1312ZM11.6148 19.9836L11.5562 20.0422V20.125V80C11.5562 80.9855 12.3958 81.825 13.3812 81.825H61.7562C62.7417 81.825 63.5812 80.9855 63.5812 80V68.375V68.175H63.3812H58.9562V62.625V62.4896L58.8305 62.4393C58.5794 62.3388 58.3469 62.2578 58.1311 62.1826C58.0741 62.1627 58.0182 62.1432 57.9634 62.1239C57.6994 62.0307 57.4591 61.9403 57.2207 61.8211L57.0938 61.7577L56.992 61.8564L53.0084 65.7193L44.4141 57.125L48.3977 53.1414L48.4996 53.0395L48.4351 52.9106C48.1895 52.4193 47.9457 51.8083 47.8253 51.3265L47.7874 51.175H47.6312H42.0812V38.95H47.6312H47.7666L47.8169 38.8243C47.9174 38.5731 47.9984 38.3407 48.0736 38.1249C48.0935 38.0678 48.113 38.0119 48.1323 37.9572C48.2255 37.6932 48.3159 37.4529 48.4351 37.2144L48.4996 37.0855L48.3977 36.9836L44.4141 33L53.0062 24.4078L56.9898 28.3914L57.0917 28.4934L57.2207 28.4289C57.7119 28.1833 58.3229 27.9395 58.8047 27.819L58.9562 27.7812V27.625V22.075H63.3812H63.5812V21.875V10C63.5812 9.01454 62.7417 8.175 61.7562 8.175H23.5062H23.4234L23.3648 8.23358L11.6148 19.9836Z" fill="#1B54F8" stroke="white" stroke-width="0.4"></path><path d="M65.0062 55.925C58.9917 55.925 54.0812 51.0145 54.0812 45C54.0812 38.9855 58.9917 34.075 65.0062 34.075C71.0208 34.075 75.9312 38.9855 75.9312 45C75.9312 51.0145 71.0208 55.925 65.0062 55.925ZM65.0062 37.05C60.6458 37.05 57.0562 40.6395 57.0562 45C57.0562 49.3605 60.6458 52.95 65.0062 52.95C69.3667 52.95 72.9562 49.3605 72.9562 45C72.9562 40.6417 69.4938 37.05 65.0062 37.05Z" fill="#1B54F8" stroke="white" stroke-width="0.4"></path><path d="M36.4312 45V45.0142L36.4332 45.0283C36.5371 45.7551 35.9143 46.425 35.0062 46.425H18.3812C17.6167 46.425 16.9562 45.7645 16.9562 45C16.9562 44.2355 17.6167 43.575 18.3812 43.575H35.0062C35.7708 43.575 36.4312 44.2355 36.4312 45Z" fill="#1B54F8" stroke="white" stroke-width="0.4"></path><path d="M36.4312 36.625V36.6375L36.4328 36.6498C36.5411 37.5161 35.9009 38.175 35.0062 38.175H18.3812C17.6167 38.175 16.9562 37.5145 16.9562 36.75C16.9562 35.8507 17.6262 35.2 18.3812 35.2H35.0062C35.7708 35.2 36.4312 35.8605 36.4312 36.625Z" fill="#1B54F8" stroke="white" stroke-width="0.4"></path><path d="M36.4312 28.375V28.3892L36.4332 28.4033C36.5371 29.1301 35.9143 29.8 35.0062 29.8H18.3812C17.6167 29.8 16.9562 29.1395 16.9562 28.375C16.9562 27.6105 17.6167 26.95 18.3812 26.95H35.0062C35.7708 26.95 36.4312 27.6105 36.4312 28.375Z" fill="#1B54F8" stroke="white" stroke-width="0.4"></path><path d="M36.4312 53.375V53.3892L36.4332 53.4033C36.5371 54.1301 35.9143 54.8 35.0062 54.8H18.3812C17.6167 54.8 16.9562 54.1395 16.9562 53.375C16.9562 52.6105 17.6167 51.95 18.3812 51.95H35.0062C35.7708 51.95 36.4312 52.6105 36.4312 53.375Z" fill="#1B54F8" stroke="white" stroke-width="0.4"></path><path d="M35.0062 63.175H18.3812C17.6167 63.175 16.9562 62.5145 16.9562 61.75C16.9562 61.3679 17.1212 60.977 17.3889 60.6811C17.6565 60.3853 18.0119 60.2 18.3812 60.2H35.0062C35.7708 60.2 36.4312 60.8605 36.4312 61.625C36.4312 62.4196 35.868 63.175 35.0062 63.175Z" fill="#1B54F8" stroke="white" stroke-width="0.4"></path><path d="M46.4312 70V70.0142L46.4332 70.0283C46.5371 70.7551 45.9143 71.425 45.0062 71.425H18.3812C17.6167 71.425 16.9562 70.7645 16.9562 70C16.9562 69.2355 17.6167 68.575 18.3812 68.575H45.0062C45.7708 68.575 46.4312 69.2355 46.4312 70Z" fill="#1B54F8" stroke="white" stroke-width="0.4"></path></svg> 