<?xml version="1.0" encoding="UTF-8"?> <svg xmlns="http://www.w3.org/2000/svg" width="90" height="90" viewBox="0 0 90 90" fill="none"><path d="M16.8759 42.5027C18.6933 42.5015 20.4391 41.7943 21.7449 40.5303L28.6414 43.9786C28.62 44.2678 28.62 44.5583 28.6414 44.8475C28.6367 45.9063 28.871 46.9525 29.3269 47.9081C29.7828 48.8637 30.4485 49.7041 31.2744 50.3665C32.1003 51.029 33.0652 51.4965 34.0969 51.7342C35.1287 51.9718 36.2008 51.9735 37.2333 51.7391C38.2658 51.5046 39.2321 51.0402 40.0601 50.3803C40.8881 49.7204 41.5564 48.8821 42.0153 47.928C42.4742 46.9738 42.7118 45.9283 42.7103 44.8695C42.7089 43.8108 42.4684 42.766 42.007 41.813L51.3863 32.4337C52.621 33.0208 54.0002 33.2354 55.3549 33.0511C56.7097 32.8668 57.9814 32.2917 59.0145 31.3962C60.0477 30.5006 60.7974 29.3234 61.1721 28.0085C61.5467 26.6936 61.5301 25.298 61.1242 23.9924L69.2759 17.882C70.5801 18.7455 72.1353 19.1488 73.6948 19.0278C75.2542 18.9068 76.7286 18.2686 77.884 17.2143C79.0394 16.16 79.8097 14.75 80.0726 13.2081C80.3355 11.6662 80.0759 10.0807 79.3352 8.70311C78.5944 7.32551 77.4148 6.23474 75.9835 5.60386C74.5522 4.97298 72.9513 4.83812 71.4346 5.22068C69.918 5.60324 68.5726 6.4813 67.6118 7.71557C66.651 8.94983 66.1298 10.4696 66.1311 12.0337C66.1277 12.7459 66.2395 13.4538 66.4621 14.1303L58.3104 20.2406C57.0302 19.3814 55.5028 18.9675 53.9639 19.0628C52.4251 19.1581 50.9604 19.7573 49.796 20.7679C48.6316 21.7785 47.8323 23.1443 47.5214 24.6544C47.2105 26.1646 47.4054 27.735 48.0759 29.1234L38.6966 38.5027C37.4059 37.8836 35.9566 37.6746 34.5436 37.904C33.1306 38.1333 31.8218 38.7899 30.7932 39.7855L23.8966 36.3372C23.8966 36.0475 23.8966 35.7579 23.8966 35.4682C23.8966 34.0769 23.484 32.7169 22.7111 31.5601C21.9381 30.4033 20.8395 29.5016 19.5541 28.9692C18.2687 28.4368 16.8543 28.2975 15.4898 28.5689C14.1252 28.8403 12.8718 29.5103 11.888 30.4941C10.9042 31.4779 10.2342 32.7313 9.96281 34.0959C9.69138 35.4604 9.83068 36.8748 10.3631 38.1602C10.8955 39.4456 11.7972 40.5442 12.954 41.3172C14.1108 42.0901 15.4708 42.5027 16.8621 42.5027H16.8759ZM73.1242 9.68891C73.588 9.68891 74.0413 9.82643 74.4269 10.0841C74.8125 10.3417 75.1131 10.7079 75.2905 11.1364C75.468 11.5649 75.5144 12.0363 75.424 12.4912C75.3335 12.946 75.1102 13.3638 74.7822 13.6918C74.4543 14.0197 74.0365 14.243 73.5816 14.3335C73.1268 14.424 72.6553 14.3775 72.2269 14.2001C71.7984 14.0226 71.4322 13.7221 71.1745 13.3365C70.9169 12.9508 70.7794 12.4975 70.7794 12.0337C70.7794 11.4118 71.0264 10.8154 71.4661 10.3757C71.9059 9.93595 72.5023 9.68891 73.1242 9.68891ZM54.3794 23.7441C54.8431 23.7441 55.2965 23.8816 55.6821 24.1393C56.0677 24.3969 56.3682 24.7631 56.5457 25.1916C56.7232 25.62 56.7696 26.0915 56.6791 26.5464C56.5887 27.0012 56.3653 27.419 56.0374 27.7469C55.7095 28.0749 55.2917 28.2982 54.8368 28.3887C54.382 28.4792 53.9105 28.4327 53.482 28.2552C53.0536 28.0778 52.6874 27.7772 52.4297 27.3916C52.1721 27.006 52.0345 26.5527 52.0345 26.0889C52.0382 25.4681 52.2864 24.8738 52.7253 24.4349C53.1643 23.9959 53.7586 23.7477 54.3794 23.7441ZM35.6207 42.5027C36.0845 42.5027 36.5379 42.6402 36.9235 42.8979C37.3091 43.1555 37.6096 43.5217 37.7871 43.9502C37.9646 44.3787 38.011 44.8501 37.9205 45.305C37.83 45.7598 37.6067 46.1776 37.2788 46.5056C36.9509 46.8335 36.533 47.0568 36.0782 47.1473C35.6233 47.2378 35.1519 47.1913 34.7234 47.0139C34.295 46.8364 33.9287 46.5358 33.6711 46.1502C33.4134 45.7646 33.2759 45.3113 33.2759 44.8475C33.2759 44.2256 33.523 43.6292 33.9627 43.1895C34.4024 42.7497 34.9989 42.5027 35.6207 42.5027ZM16.8759 33.1234C17.3397 33.1234 17.793 33.2609 18.1786 33.5186C18.5642 33.7762 18.8648 34.1424 19.0423 34.5709C19.2197 34.9994 19.2662 35.4708 19.1757 35.9257C19.0852 36.3805 18.8619 36.7983 18.534 37.1263C18.206 37.4542 17.7882 37.6775 17.3334 37.768C16.8785 37.8585 16.4071 37.812 15.9786 37.6346C15.5501 37.4571 15.1839 37.1565 14.9263 36.7709C14.6686 36.3853 14.5311 35.932 14.5311 35.4682C14.5311 34.8463 14.7781 34.2499 15.2179 33.8102C15.6576 33.3704 16.254 33.1234 16.8759 33.1234Z" fill="#1B54F8" stroke="white" stroke-width="2" stroke-miterlimit="10"></path><path d="M82.6552 80.3096H80.1586V30.7786C80.1586 30.1567 79.9116 29.5603 79.4718 29.1205C79.0321 28.6808 78.4357 28.4337 77.8138 28.4337H68.4483C67.8264 28.4337 67.23 28.6808 66.7902 29.1205C66.3505 29.5603 66.1034 30.1567 66.1034 30.7786V80.3096H61.4138V44.8475C61.4138 44.228 61.1687 43.6337 60.7319 43.1943C60.2951 42.755 59.7023 42.5063 59.0828 42.5027H49.6897C49.0678 42.5027 48.4714 42.7497 48.0316 43.1895C47.5919 43.6292 47.3448 44.2256 47.3448 44.8475V80.3096H42.6552V63.5924C42.6552 62.9705 42.4081 62.3741 41.9684 61.9343C41.5286 61.4946 40.9322 61.2475 40.3103 61.2475H30.931C30.3115 61.2512 29.7187 61.4998 29.2819 61.9392C28.8451 62.3785 28.6 62.9728 28.6 63.5924V80.3096H23.9103V54.213C23.9031 53.5936 23.6509 53.0021 23.209 52.5679C22.7671 52.1338 22.1712 51.8921 21.5517 51.8958H12.1724C11.5505 51.8958 10.9541 52.1428 10.5144 52.5826C10.0746 53.0223 9.82759 53.6187 9.82759 54.2406V80.3096H7.34483C6.72294 80.3096 6.12652 80.5566 5.68678 80.9964C5.24704 81.4361 5 82.0325 5 82.6544C5 83.2763 5.24704 83.8727 5.68678 84.3125C6.12652 84.7522 6.72294 84.9993 7.34483 84.9993H82.6552C83.2771 84.9993 83.8735 84.7522 84.3132 84.3125C84.753 83.8727 85 83.2763 85 82.6544C85 82.0325 84.753 81.4361 84.3132 80.9964C83.8735 80.5566 83.2771 80.3096 82.6552 80.3096ZM70.7793 33.1234H75.469V80.3096H70.7793V33.1234ZM52.0345 47.1924H56.7241V80.2958H52.0345V47.1924ZM33.2759 65.9372H37.9655V80.3096H33.2759V65.9372ZM14.531 56.5579H19.2207V80.3096H14.531V56.5579Z" fill="#1B54F8" stroke="white" stroke-width="2" stroke-miterlimit="10"></path></svg> 