<?xml version="1.0" encoding="UTF-8"?> <svg xmlns="http://www.w3.org/2000/svg" xmlns:xlink="http://www.w3.org/1999/xlink" width="80" height="80" viewBox="0 0 80 80"><defs><clipPath id="clip-path"><rect id="Rectangle_1" data-name="Rectangle 1" width="80" height="80" transform="translate(179 132)" fill="#fff" stroke="#707070" stroke-width="1"></rect></clipPath></defs><g id="Mask_Group_1" data-name="Mask Group 1" transform="translate(-179 -132)" clip-path="url(#clip-path)"><g id="Group_1" data-name="Group 1" transform="translate(185.364 138.244)"><path id="Path_3" data-name="Path 3" d="M14.046,78.578a1.042,1.042,0,0,0,1.038,1.038h4.777a5.7,5.7,0,0,0,11.216,0h18.89a5.7,5.7,0,0,0,11.216,0H67a1.042,1.042,0,0,0,1.038-1.038V73.541a8.07,8.07,0,0,0-6.293-7.9l-9.565-2.212-4.112-4.112a10.417,10.417,0,0,0-7.4-3.064H31.949a10.436,10.436,0,0,0-7.4,3.064l-4.1,4.1-3.7.737a3.421,3.421,0,0,0-2.731,3.334V78.578ZM25.47,82.212A3.635,3.635,0,1,1,29.1,78.578,3.639,3.639,0,0,1,25.47,82.212Zm30.116,0a3.635,3.635,0,1,1,3.635-3.635A3.639,3.639,0,0,1,55.586,82.212ZM16.123,67.487a1.313,1.313,0,0,1,1.07-1.3l4-.8a1.053,1.053,0,0,0,.53-.28l4.32-4.32a8.336,8.336,0,0,1,5.93-2.461h8.713a8.3,8.3,0,0,1,5.93,2.461l4.32,4.32a1.04,1.04,0,0,0,.5.28l9.855,2.274a6.006,6.006,0,0,1,4.673,5.888v4H61.183a5.7,5.7,0,0,0-11.216,0H31.077a5.7,5.7,0,0,0-11.216,0H16.123Z" transform="translate(-4.176 -18.34)" fill="#1c54f8"></path><path id="Path_4" data-name="Path 4" d="M29.175,71.851H53.061a1.044,1.044,0,0,0,.945-.6,1.059,1.059,0,0,0-.156-1.111l-4.362-5.089a7.266,7.266,0,0,0-5.514-2.534H38.283a7.25,7.25,0,0,0-5.514,2.534l-4.362,5.089a1.056,1.056,0,0,0-.156,1.111,1.044,1.044,0,0,0,.945.6Zm12.981-7.27h1.807A5.2,5.2,0,0,1,47.91,66.4l2.9,3.375H42.156ZM34.326,66.4a5.182,5.182,0,0,1,3.946-1.817h1.807v5.192H31.429Z" transform="translate(-8.92 -20.441)" fill="#1c54f8"></path><path id="Path_5" data-name="Path 5" d="M38.031,1.563H29.723A1.042,1.042,0,0,0,28.685,2.6V6.2a27.035,27.035,0,0,0-6.8,2.222L19.764,5.509a1.061,1.061,0,0,0-.675-.415,1.014,1.014,0,0,0-.768.187L11.6,10.161a1.033,1.033,0,0,0-.228,1.454l2.108,2.929a27.913,27.913,0,0,0-4.2,5.774L5.849,19.207a1.044,1.044,0,0,0-1.309.665L1.975,27.764a1.044,1.044,0,0,0,.665,1.309l3.427,1.122a27.978,27.978,0,0,0-.228,3.572,27.623,27.623,0,0,0,.228,3.572L2.64,38.46a1.044,1.044,0,0,0-.665,1.309l1.2,3.7,1.973-.644-.883-2.71,2.44-.8a2.069,2.069,0,0,0,1.412-2.254,26.43,26.43,0,0,1-.208-3.292,27.02,27.02,0,0,1,.332-4.133,1.046,1.046,0,0,0-.706-1.153L4.27,27.411l1.921-5.919,2.451.789a2.118,2.118,0,0,0,2.472-.987,25.664,25.664,0,0,1,3.874-5.338,2.064,2.064,0,0,0,.177-2.648l-1.506-2.077L18.7,7.576l1.516,2.087a2.089,2.089,0,0,0,2.575.644,25.558,25.558,0,0,1,6.262-2.046,2.088,2.088,0,0,0,1.713-2.035V3.66h6.231V6.225a2.078,2.078,0,0,0,1.713,2.035,25.584,25.584,0,0,1,6.283,2.056,2.094,2.094,0,0,0,2.565-.654L49.06,7.586,54.1,11.241l-1.506,2.067a2.052,2.052,0,0,0,.177,2.659,25.675,25.675,0,0,1,3.884,5.359,2.114,2.114,0,0,0,2.461.976l2.451-.789,1.921,5.919-2.44.8a2.069,2.069,0,0,0-1.412,2.254,26.43,26.43,0,0,1,.208,3.292,26.725,26.725,0,0,1-.208,3.3,2.064,2.064,0,0,0,1.412,2.243l2.44.8-.883,2.71,1.973.644,1.2-3.7a1.044,1.044,0,0,0-.665-1.309l-3.427-1.132a26.886,26.886,0,0,0,.228-3.562,27.159,27.159,0,0,0-.228-3.572l3.427-1.122a1.04,1.04,0,0,0,.665-1.309l-2.565-7.893a1.04,1.04,0,0,0-1.309-.665l-3.437,1.1a27.437,27.437,0,0,0-4.2-5.774l2.119-2.918a1.044,1.044,0,0,0-.228-1.454L49.445,5.291a1.014,1.014,0,0,0-.768-.187A1.036,1.036,0,0,0,48,5.519L45.873,8.437a27.222,27.222,0,0,0-6.792-2.212v-3.6a1.042,1.042,0,0,0-1.038-1.038Z" transform="translate(-0.121)" fill="#1c54f8"></path><path id="Path_6" data-name="Path 6" d="M15.625,39.468a22.772,22.772,0,0,0,1.713,8.7l1.921-.789a20.783,20.783,0,0,1,7.446-25.017l-.779,2.129,1.952.717,1.786-4.871a1.035,1.035,0,0,0-.9-1.392l-5.182-.353-.135,2.077,1.9.125a22.821,22.821,0,0,0-9.71,18.682Z" transform="translate(-4.716 -5.712)" fill="#1c54f8"></path><path id="Path_7" data-name="Path 7" d="M47.254,15.625a22.815,22.815,0,0,0-5.442.654l.488,2.015A20.712,20.712,0,0,1,67.38,43.477l-.665-1.952-1.963.675,1.682,4.912a1.042,1.042,0,0,0,.665.654,1.158,1.158,0,0,0,.322.052,1.082,1.082,0,0,0,.6-.187l4.247-2.991-1.194-1.7-1.7,1.2A22.769,22.769,0,0,0,47.265,15.625Z" transform="translate(-13.498 -4.716)" fill="#1c54f8"></path><path id="Path_8" data-name="Path 8" d="M52.315,30.554V29.93a4.149,4.149,0,0,0-3.635-4.1v-1.61H46.6v1.61a4.144,4.144,0,0,0,.519,8.256h1.038a2.077,2.077,0,1,1,0,4.154H47.122a2.083,2.083,0,0,1-2.077-2.077v-.623H42.968v.623a4.149,4.149,0,0,0,3.635,4.1v1.61H48.68v-1.61a4.144,4.144,0,0,0-.519-8.256H47.122a2.077,2.077,0,1,1,0-4.154h1.038a2.083,2.083,0,0,1,2.077,2.077v.623Z" transform="translate(-13.886 -7.598)" fill="#1c54f8"></path><path id="Path_9" data-name="Path 9" d="M6.25,78.125H9.365V80.2H6.25Z" transform="translate(-1.572 -25.676)" fill="#1c54f8"></path><path id="Path_10" data-name="Path 10" d="M1.563,84.375H7.793v2.077H1.563Z" transform="translate(0 -27.772)" fill="#1c54f8"></path></g></g></svg> 