<?xml version="1.0" encoding="UTF-8"?> <svg xmlns="http://www.w3.org/2000/svg" xmlns:xlink="http://www.w3.org/1999/xlink" version="1.1" id="Layer_1" x="0px" y="0px" viewBox="0 0 300 186" style="enable-background:new 0 0 300 186;" xml:space="preserve"> <style type="text/css"> .st0{fill:#0A1C2B;} .st1{fill:#F9F7F7;} </style> <rect class="st0" width="300" height="186"></rect> <path class="st1" d="M193.4,89.9c-2.1,0-3.9,1.5-4.4,3.4h-14.4c-0.1-2.6-0.6-5.1-1.5-7.4h7.2c0.3,0,0.6-0.1,0.8-0.3l3.8-3.8 c0.7,0.4,1.4,0.6,2.3,0.6c2.5,0,4.6-2.1,4.6-4.6s-2.1-4.6-4.6-4.6s-4.6,2.1-4.6,4.6c0,0.8,0.2,1.6,0.6,2.3l-3.4,3.4H172 c-2.4-4.8-6.3-8.7-11.1-11.1v-7.7l3.4-3.4c0.7,0.4,1.5,0.6,2.3,0.6c2.5,0,4.6-2.1,4.6-4.6c0-2.5-2.1-4.6-4.6-4.6s-4.6,2.1-4.6,4.6 c0,0.8,0.2,1.6,0.6,2.3l-3.8,3.8c-0.2,0.2-0.3,0.5-0.3,0.8v7.2c-2.3-0.9-4.8-1.4-7.4-1.5V55.5c2-0.5,3.4-2.3,3.4-4.4 c0-2.5-2.1-4.6-4.6-4.6s-4.6,2.1-4.6,4.6c0,2.1,1.5,3.9,3.4,4.4v14.4c-2.6,0.1-5.1,0.6-7.4,1.5v-7.2c0-0.3-0.1-0.6-0.3-0.8l-3.8-3.8 c0.4-0.7,0.6-1.5,0.6-2.3c0-2.5-2.1-4.6-4.6-4.6s-4.6,2.1-4.6,4.6c0,2.5,2.1,4.6,4.6,4.6c0.8,0,1.6-0.2,2.3-0.6l3.4,3.4v7.7 c-4.8,2.4-8.7,6.3-11.1,11.1h-7.7l-3.4-3.4c0.4-0.7,0.6-1.5,0.6-2.3c0-2.5-2.1-4.6-4.6-4.6c-2.5,0-4.6,2.1-4.6,4.6 c0,2.5,2.1,4.6,4.6,4.6c0.8,0,1.6-0.2,2.3-0.6l3.8,3.8c0.2,0.2,0.5,0.3,0.8,0.3h7.2c-0.9,2.3-1.4,4.8-1.5,7.4H111 c-0.5-2-2.3-3.4-4.4-3.4c-2.5,0-4.6,2.1-4.6,4.6s2.1,4.6,4.6,4.6c2.1,0,3.9-1.5,4.4-3.4h14.4c0.1,2.6,0.6,5.1,1.5,7.4h-7.2 c-0.3,0-0.6,0.1-0.8,0.3l-3.8,3.8c-0.7-0.4-1.4-0.6-2.3-0.6c-2.5,0-4.6,2.1-4.6,4.6s2.1,4.6,4.6,4.6s4.6-2.1,4.6-4.6 c0-0.8-0.2-1.6-0.6-2.3l3.4-3.4h7.7c2.4,4.8,6.3,8.7,11.1,11.1v7.7l-3.4,3.4c-0.7-0.4-1.5-0.6-2.3-0.6c-2.5,0-4.6,2.1-4.6,4.6 s2.1,4.6,4.6,4.6s4.6-2.1,4.6-4.6c0-0.8-0.2-1.6-0.6-2.3l3.8-3.8c0.2-0.2,0.3-0.5,0.3-0.8v-7.2c2.3,0.9,4.8,1.4,7.4,1.5v14.4 c-2,0.5-3.4,2.3-3.4,4.4c0,2.5,2.1,4.6,4.6,4.6s4.6-2.1,4.6-4.6c0-2.1-1.5-3.9-3.4-4.4v-14.4c2.6-0.1,5.1-0.7,7.4-1.5v7.2 c0,0.3,0.1,0.6,0.3,0.8l3.8,3.8c-0.4,0.7-0.6,1.4-0.6,2.3c0,2.5,2.1,4.6,4.6,4.6s4.6-2.1,4.6-4.6s-2.1-4.6-4.6-4.6 c-0.8,0-1.6,0.2-2.3,0.6l-3.4-3.4v-7.7c4.8-2.4,8.7-6.3,11.1-11.1h7.7l3.4,3.4c-0.4,0.7-0.6,1.4-0.6,2.3c0,2.5,2.1,4.6,4.6,4.6 s4.6-2.1,4.6-4.6s-2.1-4.6-4.6-4.6c-0.8,0-1.6,0.2-2.3,0.6l-3.8-3.8c-0.2-0.2-0.5-0.3-0.8-0.3h-7.2c0.9-2.3,1.4-4.8,1.5-7.4H189 c0.5,2,2.3,3.4,4.4,3.4c2.5,0,4.6-2.1,4.6-4.6S195.9,89.9,193.4,89.9z M187.1,75.6c1.2,0,2.2,1,2.2,2.2c0,1.2-1,2.2-2.2,2.2 c-1.2,0-2.2-1-2.2-2.2S185.8,75.6,187.1,75.6z M166.6,55.2c1.2,0,2.2,1,2.2,2.2c0,1.2-1,2.2-2.2,2.2c-1.2,0-2.2-1-2.2-2.2 C164.4,56.2,165.4,55.2,166.6,55.2z M133.4,59.7c-1.2,0-2.2-1-2.2-2.2c0-1.2,1-2.2,2.2-2.2c1.2,0,2.2,1,2.2,2.2 S134.6,59.7,133.4,59.7z M112.9,80.1c-1.2,0-2.2-1-2.2-2.2s1-2.2,2.2-2.2c1.2,0,2.2,1,2.2,2.2C115.2,79.1,114.2,80.1,112.9,80.1z M106.6,96.7c-1.2,0-2.2-1-2.2-2.2s1-2.2,2.2-2.2c1.2,0,2.2,1,2.2,2.2C108.8,95.7,107.8,96.7,106.6,96.7z M112.9,113.4 c-1.2,0-2.2-1-2.2-2.2c0-1.2,1-2.2,2.2-2.2c1.2,0,2.2,1,2.2,2.2C115.2,112.4,114.2,113.4,112.9,113.4z M133.4,133.8 c-1.2,0-2.2-1-2.2-2.2s1-2.2,2.2-2.2c1.2,0,2.2,1,2.2,2.2S134.6,133.8,133.4,133.8z M166.6,129.3c1.2,0,2.2,1,2.2,2.2 s-1,2.2-2.2,2.2c-1.2,0-2.2-1-2.2-2.2S165.4,129.3,166.6,129.3z M187.1,108.9c1.2,0,2.2,1,2.2,2.2c0,1.2-1,2.2-2.2,2.2 c-1.2,0-2.2-1-2.2-2.2S185.8,108.9,187.1,108.9z M147.8,51.1c0-1.2,1-2.2,2.2-2.2s2.2,1,2.2,2.2c0,1.2-1,2.2-2.2,2.2 S147.8,52.3,147.8,51.1z M152.2,137.9c0,1.2-1,2.2-2.2,2.2s-2.2-1-2.2-2.2s1-2.2,2.2-2.2S152.2,136.7,152.2,137.9z M150,116.7 c-12.3,0-22.2-10-22.2-22.2c0-12.3,10-22.2,22.2-22.2s22.2,10,22.2,22.2S162.3,116.7,150,116.7z M193.4,96.7c-1.2,0-2.2-1-2.2-2.2 s1-2.2,2.2-2.2s2.2,1,2.2,2.2S194.6,96.7,193.4,96.7z M150,76.9c-9.7,0-17.6,7.9-17.6,17.6s7.9,17.6,17.6,17.6s17.6-7.9,17.6-17.6 S159.7,76.9,150,76.9z M150,109.8c-8.4,0-15.3-6.8-15.3-15.3s6.9-15.3,15.3-15.3s15.3,6.9,15.3,15.3S158.4,109.8,150,109.8z M147,91.3c0,1.2,0.9,2.1,2.1,2.1h1.9c2.4,0,4.4,2,4.4,4.4c0,2.4-1.9,4.3-4.2,4.4v2.1c0,0.7-0.5,1.2-1.2,1.2c-0.7,0-1.2-0.5-1.2-1.2 v-2.1h-3c-0.7,0-1.2-0.5-1.2-1.2s0.5-1.2,1.2-1.2h5.2c1.1,0,2.1-0.9,2.1-2.1s-0.9-2.1-2.1-2.1h-1.9c-2.4,0-4.4-2-4.4-4.4 c0-2.4,1.9-4.3,4.2-4.4v-2.1c0-0.7,0.5-1.2,1.2-1.2c0.6,0,1.2,0.5,1.2,1.2v2.1h3c0.6,0,1.2,0.5,1.2,1.2c0,0.7-0.5,1.2-1.2,1.2H149 C147.9,89.2,147,90.1,147,91.3z"></path> </svg> 