<?xml version="1.0" encoding="UTF-8"?> <svg xmlns="http://www.w3.org/2000/svg" id="Group_94" data-name="Group 94" width="365" height="250" viewBox="0 0 365 250"><rect id="Rectangle_70" data-name="Rectangle 70" width="365" height="250" fill="#01081c"></rect><g id="Group_93" data-name="Group 93" transform="translate(-0.193 0.212)"><g id="Rectangle_71" data-name="Rectangle 71" transform="translate(31.193 116.615)" fill="#00071c" stroke="#0377ff" stroke-width="1"><rect width="58.443" height="59.45" rx="6" stroke="none"></rect><rect x="0.5" y="0.5" width="57.443" height="58.45" rx="5.5" fill="none"></rect></g><g id="Rectangle_72" data-name="Rectangle 72" transform="translate(114.826 164.981)" fill="#00071c" stroke="#0377ff" stroke-width="1"><rect width="59.45" height="58.443" rx="6" stroke="none"></rect><rect x="0.5" y="0.5" width="58.45" height="57.443" rx="5.5" fill="none"></rect></g><g id="Rectangle_73" data-name="Rectangle 73" transform="translate(194.429 164.981)" fill="#00071c" stroke="#0377ff" stroke-width="1"><rect width="60.458" height="58.443" rx="6" stroke="none"></rect><rect x="0.5" y="0.5" width="59.458" height="57.443" rx="5.5" fill="none"></rect></g><g id="Rectangle_74" data-name="Rectangle 74" transform="translate(275.039 116.615)" fill="#00071c" stroke="#0377ff" stroke-width="1"><rect width="58.443" height="59.45" rx="6" stroke="none"></rect><rect x="0.5" y="0.5" width="57.443" height="58.45" rx="5.5" fill="none"></rect></g><g id="Group_87" data-name="Group 87" transform="translate(60.623 61.31)"><path id="Path_80" data-name="Path 80" d="M1343.329,55.988h-79.6v56.205" transform="translate(-1263.732 -55.988)" fill="none" stroke="#6e6e6e" stroke-width="1"></path><path id="Path_81" data-name="Path 81" d="M1263.732,55.988h79.6v56.205" transform="translate(-1099.478 -55.988)" fill="none" stroke="#6e6e6e" stroke-width="1"></path><path id="Path_82" data-name="Path 82" d="M1353.695,105.04v56.435" transform="translate(-1273.163 -57.808)" fill="none" stroke="#6e6e6e" stroke-width="1"></path><path id="Path_83" data-name="Path 83" d="M1353.695,105.04v56.435" transform="translate(-1192.814 -57.808)" fill="none" stroke="#6e6e6e" stroke-width="1"></path></g><path id="Path_84" data-name="Path 84" d="M455.944,104.112l32.51-18.946,39.625,23.189v46.852l-39.625,23.334-39.859-22.6V108.355Z" transform="translate(-306.207 -48.156)" fill="none" stroke="#fff" stroke-width="1"></path><g id="Group_88" data-name="Group 88" transform="translate(149.358 48.527)"><path id="Path_85" data-name="Path 85" d="M457.572,169l10.964-7.043" transform="translate(-457.572 -113.855)" fill="none" stroke="#fff" stroke-width="1"></path><path id="Path_86" data-name="Path 86" d="M457.572,120.631l10.319,5.86" transform="translate(-457.572 -104.613)" fill="none" stroke="#fff" stroke-width="1"></path><path id="Path_87" data-name="Path 87" d="M500,100v10.09" transform="translate(-467.06 -100)" fill="none" stroke="#fff" stroke-width="1"></path><path id="Path_88" data-name="Path 88" d="M526.646,127.263l11.025-6.03" transform="translate(-473.018 -104.748)" fill="none" stroke="#fff" stroke-width="1"></path><path id="Path_89" data-name="Path 89" d="M527.71,161.959l9.956,6.291" transform="translate(-473.256 -113.855)" fill="none" stroke="#fff" stroke-width="1"></path><path id="Path_90" data-name="Path 90" d="M499.5,190.032V178.469" transform="translate(-466.948 -117.547)" fill="none" stroke="#fff" stroke-width="1"></path></g><g id="Group_89" data-name="Group 89" transform="translate(130.948 26.788)"><g id="Ellipse_5" data-name="Ellipse 5" transform="translate(0 70.682)" fill="#03bdf3" stroke="#003379" stroke-width="3"><circle cx="10.58" cy="10.58" r="10.58" stroke="none"></circle><circle cx="10.58" cy="10.58" r="9.08" fill="none"></circle></g><g id="Ellipse_6" data-name="Ellipse 6" transform="translate(0 23.323)" fill="#03bdf3" stroke="#003379" stroke-width="3"><circle cx="10.58" cy="10.58" r="10.58" stroke="none"></circle><circle cx="10.58" cy="10.58" r="9.08" fill="none"></circle></g><g id="Path_91" data-name="Path 91" transform="translate(80.077 70.651)" fill="#03bdf3"><path d="M 10.48119163513184 19.46238136291504 C 5.528951644897461 19.46238136291504 1.500001668930054 15.43343162536621 1.500001668930054 10.48119163513184 C 1.500001668930054 5.528951644897461 5.528951644897461 1.500001668930054 10.48119163513184 1.500001668930054 C 15.43343162536621 1.500001668930054 19.46238136291504 5.528951644897461 19.46238136291504 10.48119163513184 C 19.46238136291504 15.43343162536621 15.43343162536621 19.46238136291504 10.48119163513184 19.46238136291504 Z" stroke="none"></path><path d="M 10.48119163513184 3.000001907348633 C 6.356051445007324 3.000001907348633 3.000001907348633 6.356051445007324 3.000001907348633 10.48119163513184 C 3.000001907348633 14.60633182525635 6.356051445007324 17.96238136291504 10.48119163513184 17.96238136291504 C 14.60633182525635 17.96238136291504 17.96238136291504 14.60633182525635 17.96238136291504 10.48119163513184 C 17.96238136291504 6.356051445007324 14.60633182525635 3.000001907348633 10.48119163513184 3.000001907348633 M 10.48119163513184 1.9073486328125e-06 C 16.26979064941406 1.9073486328125e-06 20.96238136291504 4.692590713500977 20.96238136291504 10.48119163513184 C 20.96238136291504 16.26979064941406 16.26979064941406 20.96238136291504 10.48119163513184 20.96238136291504 C 4.692590713500977 20.96238136291504 1.9073486328125e-06 16.26979064941406 1.9073486328125e-06 10.48119163513184 C 1.9073486328125e-06 4.692590713500977 4.692590713500977 1.9073486328125e-06 10.48119163513184 1.9073486328125e-06 Z" stroke="none" fill="#003379"></path></g><g id="Path_92" data-name="Path 92" transform="translate(80.077 23.292)" fill="#03bdf3"><path d="M 10.48119163513184 19.46238136291504 C 5.528951644897461 19.46238136291504 1.500001668930054 15.43343162536621 1.500001668930054 10.48119163513184 C 1.500001668930054 5.528951644897461 5.528951644897461 1.500001668930054 10.48119163513184 1.500001668930054 C 15.43343162536621 1.500001668930054 19.46238136291504 5.528951644897461 19.46238136291504 10.48119163513184 C 19.46238136291504 15.43343162536621 15.43343162536621 19.46238136291504 10.48119163513184 19.46238136291504 Z" stroke="none"></path><path d="M 10.48119163513184 3.000001907348633 C 6.356051445007324 3.000001907348633 3.000001907348633 6.356051445007324 3.000001907348633 10.48119163513184 C 3.000001907348633 14.60633182525635 6.356051445007324 17.96238136291504 10.48119163513184 17.96238136291504 C 14.60633182525635 17.96238136291504 17.96238136291504 14.60633182525635 17.96238136291504 10.48119163513184 C 17.96238136291504 6.356051445007324 14.60633182525635 3.000001907348633 10.48119163513184 3.000001907348633 M 10.48119163513184 1.9073486328125e-06 C 16.26979064941406 1.9073486328125e-06 20.96238136291504 4.692590713500977 20.96238136291504 10.48119163513184 C 20.96238136291504 16.26979064941406 16.26979064941406 20.96238136291504 10.48119163513184 20.96238136291504 C 4.692590713500977 20.96238136291504 1.9073486328125e-06 16.26979064941406 1.9073486328125e-06 10.48119163513184 C 1.9073486328125e-06 4.692590713500977 4.692590713500977 1.9073486328125e-06 10.48119163513184 1.9073486328125e-06 Z" stroke="none" fill="#003379"></path></g><g id="Path_93" data-name="Path 93" transform="translate(40.481)" fill="#fff"><path d="M 10.48119163513184 19.46238136291504 C 5.528951644897461 19.46238136291504 1.500001668930054 15.43343162536621 1.500001668930054 10.48119163513184 C 1.500001668930054 5.528951644897461 5.528951644897461 1.500001668930054 10.48119163513184 1.500001668930054 C 15.43343162536621 1.500001668930054 19.46238136291504 5.528951644897461 19.46238136291504 10.48119163513184 C 19.46238136291504 15.43343162536621 15.43343162536621 19.46238136291504 10.48119163513184 19.46238136291504 Z" stroke="none"></path><path d="M 10.48119163513184 3.000001907348633 C 6.356051445007324 3.000001907348633 3.000001907348633 6.356051445007324 3.000001907348633 10.48119163513184 C 3.000001907348633 14.60633182525635 6.356051445007324 17.96238136291504 10.48119163513184 17.96238136291504 C 14.60633182525635 17.96238136291504 17.96238136291504 14.60633182525635 17.96238136291504 10.48119163513184 C 17.96238136291504 6.356051445007324 14.60633182525635 3.000001907348633 10.48119163513184 3.000001907348633 M 10.48119163513184 1.9073486328125e-06 C 16.26979064941406 1.9073486328125e-06 20.96238136291504 4.692590713500977 20.96238136291504 10.48119163513184 C 20.96238136291504 16.26979064941406 16.26979064941406 20.96238136291504 10.48119163513184 20.96238136291504 C 4.692590713500977 20.96238136291504 1.9073486328125e-06 16.26979064941406 1.9073486328125e-06 10.48119163513184 C 1.9073486328125e-06 4.692590713500977 4.692590713500977 1.9073486328125e-06 10.48119163513184 1.9073486328125e-06 Z" stroke="none" fill="#003379"></path></g><g id="Path_94" data-name="Path 94" transform="translate(40.481 93.166)" fill="#fff"><path d="M 10.48119163513184 19.46238136291504 C 5.528951644897461 19.46238136291504 1.500001668930054 15.43343162536621 1.500001668930054 10.48119163513184 C 1.500001668930054 5.528951644897461 5.528951644897461 1.500001668930054 10.48119163513184 1.500001668930054 C 15.43343162536621 1.500001668930054 19.46238136291504 5.528951644897461 19.46238136291504 10.48119163513184 C 19.46238136291504 15.43343162536621 15.43343162536621 19.46238136291504 10.48119163513184 19.46238136291504 Z" stroke="none"></path><path d="M 10.48119163513184 3.000001907348633 C 6.356051445007324 3.000001907348633 3.000001907348633 6.356051445007324 3.000001907348633 10.48119163513184 C 3.000001907348633 14.60633182525635 6.356051445007324 17.96238136291504 10.48119163513184 17.96238136291504 C 14.60633182525635 17.96238136291504 17.96238136291504 14.60633182525635 17.96238136291504 10.48119163513184 C 17.96238136291504 6.356051445007324 14.60633182525635 3.000001907348633 10.48119163513184 3.000001907348633 M 10.48119163513184 1.9073486328125e-06 C 16.26979064941406 1.9073486328125e-06 20.96238136291504 4.692590713500977 20.96238136291504 10.48119163513184 C 20.96238136291504 16.26979064941406 16.26979064941406 20.96238136291504 10.48119163513184 20.96238136291504 C 4.692590713500977 20.96238136291504 1.9073486328125e-06 16.26979064941406 1.9073486328125e-06 10.48119163513184 C 1.9073486328125e-06 4.692590713500977 4.692590713500977 1.9073486328125e-06 10.48119163513184 1.9073486328125e-06 Z" stroke="none" fill="#003379"></path></g></g><g id="Ellipse_7" data-name="Ellipse 7" transform="translate(155.131 58.172)" fill="#00baf1" stroke="#013379" stroke-width="3"><ellipse cx="26.702" cy="26.198" rx="26.702" ry="26.198" stroke="none"></ellipse><ellipse cx="26.702" cy="26.198" rx="25.202" ry="24.698" fill="none"></ellipse></g><g id="Group_90" data-name="Group 90" transform="translate(40.963 127.191)"><path id="Path_95" data-name="Path 95" d="M47.373,13.525l-8.742-1.26A2.645,2.645,0,0,0,36.021,10H10.765a.493.493,0,0,0-.493.493V46.836a.493.493,0,0,0,.493.493H27.584a.465.465,0,0,0,.081.029L42.2,49.452a2.632,2.632,0,0,0,.371.027,2.593,2.593,0,0,0,2.56-2.219l4.438-30.8A2.591,2.591,0,0,0,47.373,13.525Zm-9.69-.875V44.679a1.665,1.665,0,0,1-1.662,1.663H14.889V10.988h12.06V23.615a.493.493,0,0,0,.745.424l2.038-1.208,2.038,1.208a.493.493,0,0,0,.745-.424V10.988h3.506A1.665,1.665,0,0,1,37.683,12.651Zm-9.748-1.663h3.592V22.749l-1.545-.915a.494.494,0,0,0-.5,0l-1.545.915V10.988Zm-16.677,0H13.9V46.342H11.259Zm37.33,5.328-4.439,30.8a1.6,1.6,0,0,1-1.814,1.357l-7.95-1.145h1.635a2.652,2.652,0,0,0,2.649-2.65V13.268L47.232,14.5A1.6,1.6,0,0,1,48.589,16.316Z" transform="translate(-10.272 -10.001)" fill="#fff" stroke="#fff" stroke-width="0.3"></path><path id="Path_96" data-name="Path 96" d="M40.9,48.1H31.14a.493.493,0,1,0,0,.987H40.9a.493.493,0,1,0,0-.987Z" transform="translate(-20.596 -29.306)" fill="#fff" stroke="#fff" stroke-width="0.3"></path><path id="Path_97" data-name="Path 97" d="M40.9,54.389H31.14a.493.493,0,1,0,0,.987H40.9a.493.493,0,0,0,0-.987Z" transform="translate(-20.596 -32.491)" fill="#fff" stroke="#fff" stroke-width="0.3"></path><path id="Path_98" data-name="Path 98" d="M40.9,60.676H31.14a.493.493,0,1,0,0,.987H40.9a.493.493,0,0,0,0-.987Z" transform="translate(-20.596 -35.677)" fill="#fff" stroke="#fff" stroke-width="0.3"></path></g><g id="Group_91" data-name="Group 91" transform="translate(123.13 175.775)"><path id="Path_99" data-name="Path 99" d="M44.513,6.4a.692.692,0,0,0-.578-.138l-26,5.571a.688.688,0,0,0-.543.672V29.121a8.115,8.115,0,1,0,5.088,7.529V18.644l17.195-3.439v10.2a8.157,8.157,0,0,0-11.141,7.529c.442,10.76,15.785,10.769,16.23,0v-26a.694.694,0,0,0-.254-.535ZM43.391,32.937A6.74,6.74,0,1,1,40.014,27.1h0a.693.693,0,0,0,1.037-.593V14.366a.692.692,0,0,0-.824-.674L21.658,17.406h0a.69.69,0,0,0-.554.674V36.651a6.741,6.741,0,0,1-13.481,0h0a6.745,6.745,0,0,1,6.74-6.74,6.619,6.619,0,0,1,3.365.908.693.693,0,0,0,1.037-.593V13.067L43.391,7.79Z" transform="translate(-6.25 -6.251)" fill="#fff"></path></g><g id="Group_92" data-name="Group 92" transform="translate(202.774 177.921)"><path id="Path_100" data-name="Path 100" d="M53.49,16.91H12.163A1.146,1.146,0,0,0,11,18.056V47.908a1.146,1.146,0,0,0,1.152,1.146H53.49a1.146,1.146,0,0,0,1.146-1.146V18.056A1.146,1.146,0,0,0,53.49,16.91ZM52.343,46.756H13.309V19.208H52.343Z" transform="translate(-11 -16.91)" fill="#fff" stroke="#00071c" stroke-width="1"></path><path id="Path_101" data-name="Path 101" d="M42.269,48.375a10.752,10.752,0,1,0-7.7-3.073A10.747,10.747,0,0,0,42.269,48.375Zm0-19.185a8.449,8.449,0,1,1-8.636,8.422,8.572,8.572,0,0,1,8.636-8.449Z" transform="translate(-20.443 -21.54)" fill="#fff" stroke="#00071c" stroke-width="1"></path><path id="Path_102" data-name="Path 102" d="M45.143,47.426a1.067,1.067,0,0,0,1.109.011l7.661-4.259a1.147,1.147,0,0,0,.45-1.559,1.211,1.211,0,0,0-.45-.461l-7.624-4.286a1.147,1.147,0,0,0-1.709,1v8.567A1.141,1.141,0,0,0,45.143,47.426Zm1.72-7.543,4.125,2.3-4.125,2.3Z" transform="translate(-26.59 -26.109)" fill="#fff" stroke="#00071c" stroke-width="1"></path><rect id="Rectangle_75" data-name="Rectangle 75" width="4.35" height="2.298" transform="translate(4.42 25.587)" fill="#fff" stroke="#00071c" stroke-width="1"></rect><rect id="Rectangle_76" data-name="Rectangle 76" width="4.35" height="2.298" transform="translate(4.42 21.328)" fill="#fff" stroke="#00071c" stroke-width="1"></rect><rect id="Rectangle_77" data-name="Rectangle 77" width="4.35" height="2.298" transform="translate(4.42 17.058)" fill="#fff" stroke="#00071c" stroke-width="1"></rect><rect id="Rectangle_78" data-name="Rectangle 78" width="4.35" height="2.298" transform="translate(4.42 12.799)" fill="#fff" stroke="#00071c" stroke-width="1"></rect><rect id="Rectangle_79" data-name="Rectangle 79" width="4.35" height="2.298" transform="translate(4.42 8.529)" fill="#fff" stroke="#00071c" stroke-width="1"></rect><rect id="Rectangle_80" data-name="Rectangle 80" width="4.35" height="2.298" transform="translate(4.42 4.27)" fill="#fff" stroke="#00071c" stroke-width="1"></rect><rect id="Rectangle_81" data-name="Rectangle 81" width="4.35" height="2.298" transform="translate(34.877 25.587)" fill="#fff" stroke="#00071c" stroke-width="1"></rect><rect id="Rectangle_82" data-name="Rectangle 82" width="4.35" height="2.298" transform="translate(34.877 21.328)" fill="#fff" stroke="#00071c" stroke-width="1"></rect><rect id="Rectangle_83" data-name="Rectangle 83" width="4.35" height="2.298" transform="translate(34.877 17.058)" fill="#fff" stroke="#00071c" stroke-width="1"></rect><rect id="Rectangle_84" data-name="Rectangle 84" width="4.35" height="2.298" transform="translate(34.877 12.799)" fill="#fff" stroke="#00071c" stroke-width="1"></rect><rect id="Rectangle_85" data-name="Rectangle 85" width="4.35" height="2.298" transform="translate(34.877 8.529)" fill="#fff" stroke="#00071c" stroke-width="1"></rect><rect id="Rectangle_86" data-name="Rectangle 86" width="4.35" height="2.298" transform="translate(34.877 4.27)" fill="#fff" stroke="#00071c" stroke-width="1"></rect></g><path id="Path_103" data-name="Path 103" d="M17.422,30.849h-1.23a.9.9,0,0,1,0-1.791h1.23a3.588,3.588,0,0,0-2.573-2.573v1.23a.9.9,0,0,1-1.791,0v-1.23a3.588,3.588,0,0,0-2.573,2.573h1.23a.9.9,0,1,1,0,1.791h-1.23a3.588,3.588,0,0,0,2.573,2.573v-1.23a.9.9,0,0,1,1.791,0v1.23A3.588,3.588,0,0,0,17.422,30.849ZM36.338,21a9.03,9.03,0,0,1,8.954,8.058V40.416a8.246,8.246,0,0,1-4.7,7.445,4.108,4.108,0,0,1-5.784-2.854l-1.4-6.591a8.931,8.931,0,0,1-2.44-1.3H19.327a8.931,8.931,0,0,1-2.44,1.3l-1.4,6.591A4.108,4.108,0,0,1,9.7,47.861,8.246,8.246,0,0,1,5,40.416l.044-11.358a8.956,8.956,0,0,1,13.629-6.715H31.619A8.912,8.912,0,0,1,36.338,21ZM6.791,40.416a6.455,6.455,0,0,0,3.68,5.828,2.317,2.317,0,0,0,3.263-1.61l1.613-7.58.955-.331a7.14,7.14,0,0,0,1.95-1.039l.478-.359H31.563l.478.359a7.14,7.14,0,0,0,1.95,1.039l.955.331,1.613,7.58a2.317,2.317,0,0,0,3.263,1.61,6.455,6.455,0,0,0,3.68-5.828V29.161a7.239,7.239,0,0,0-7.163-6.37,7.12,7.12,0,0,0-3.774,1.073l-.434.27H18.162l-.434-.27A7.166,7.166,0,0,0,6.835,29.155Zm29.547-5.09a5.372,5.372,0,1,1,5.372-5.372A5.372,5.372,0,0,1,36.338,35.326Zm0-1.791a3.581,3.581,0,1,0-3.581-3.581A3.581,3.581,0,0,0,36.338,33.535ZM13.954,35.326a5.372,5.372,0,1,1,5.372-5.372A5.372,5.372,0,0,1,13.954,35.326Zm10.3-2.686a.9.9,0,0,1-.9.9H21.564a.9.9,0,1,1,0-1.791h1.791A.9.9,0,0,1,24.251,32.64Zm5.372,0a.9.9,0,0,1-.9.9H26.937a.9.9,0,0,1,0-1.791h1.791A.9.9,0,0,1,29.623,32.64Z" transform="translate(279.329 111.714)" fill="#fff" stroke="#00071c" stroke-width="0.6"></path><text id="LLMs" transform="translate(166.215 89.302)" fill="#fff" font-size="13" font-family="OpenSans-Semibold, Open Sans" font-weight="600"><tspan x="0" y="0">LLMs</tspan></text></g></svg> 