<svg width="56" height="42" viewBox="0 0 56 42" fill="none" xmlns="http://www.w3.org/2000/svg">
<path d="M55.7351 36.336L54.88 31.093C54.8507 28.5257 53.1689 26.3382 50.7568 25.7403L49.0369 25.0719C49.0257 25.0667 49.0141 25.0623 49.0022 25.0589L46.6986 24.1724L46.5554 24.1171C46.2489 23.9995 45.9841 23.7937 45.7946 23.5256C45.6051 23.2575 45.4994 22.9392 45.4909 22.611V22.5524L45.4985 22.547C46.3871 21.7878 47.1021 20.8463 47.5949 19.7866C48.2589 19.6075 48.8156 19.1453 49.1964 18.4454C49.484 17.8967 49.6596 17.2962 49.7129 16.6789C49.7286 16.4118 49.6809 16.1447 49.5735 15.8995C49.4662 15.6544 49.3024 15.4381 49.0955 15.2683C48.9035 10.7327 45.7318 7.11404 41.8625 7.11404C40.0927 7.11404 38.4445 7.88878 37.1684 9.18435C36.0172 4.44152 32.341 0.963867 27.9953 0.963867C23.7234 0.963867 19.9951 4.40679 18.8145 9.2028C17.545 7.90072 15.8913 7.11404 14.0858 7.11404C10.4866 7.11404 7.39631 10.3193 6.89826 14.5706C6.86571 14.8517 6.84401 15.136 6.83424 15.4202C6.56081 15.7219 6.24939 16.1798 6.29171 16.6768C6.3937 18.0201 7.07513 19.397 8.37721 19.7432C8.89045 20.8558 9.65352 21.835 10.607 22.6045L10.6222 22.6164C10.6174 22.9342 10.5131 23.2425 10.3239 23.4979C10.1347 23.7533 9.87016 23.9429 9.56753 24.04L9.53281 24.052L7.23789 24.8018L7.16627 24.8245L5.15673 25.481C2.79344 26.1147 1.14305 28.2989 1.1181 30.8228L0.259806 36.3426C0.241614 36.4586 0.248794 36.5772 0.280852 36.6902C0.31291 36.8032 0.369084 36.908 0.445505 36.9972C0.521926 37.0864 0.616777 37.158 0.723524 37.207C0.830271 37.256 0.946376 37.2813 1.06384 37.2811H9.98746L9.50026 40.4278C9.48244 40.5438 9.48989 40.6623 9.5221 40.7752C9.5543 40.888 9.6105 40.9926 9.68684 41.0817C9.76319 41.1708 9.85789 41.2424 9.96445 41.2915C10.071 41.3407 10.1869 41.3662 10.3043 41.3664H45.7514C45.8693 41.3664 45.9859 41.3407 46.0929 41.2912C46.2 41.2417 46.295 41.1694 46.3713 41.0795C46.4477 40.9896 46.5036 40.8842 46.5352 40.7706C46.5668 40.6569 46.5733 40.5378 46.5543 40.4213L46.04 37.2811H54.9375C55.0555 37.2809 55.1719 37.2551 55.2789 37.2055C55.3858 37.1559 55.4808 37.0837 55.5571 36.9939C55.6334 36.904 55.6894 36.7987 55.721 36.6851C55.7527 36.5715 55.7593 36.4524 55.7405 36.336H55.7351ZM45.8479 26.7571L46.6346 25.8966L47.3431 26.1689L44.3614 29.5207C44.093 29.0649 43.775 28.6402 43.413 28.2544C44.3486 27.9925 45.192 27.4738 45.8479 26.7571ZM41.9417 26.8232C41.77 26.8203 41.5989 26.8047 41.4295 26.7766C41.0096 26.5683 40.5697 26.4029 40.1166 26.2829C39.8036 26.0876 39.5225 25.8453 39.2832 25.5646L38.8492 25.0524C39.3421 24.6566 39.7043 24.1216 39.8887 23.517C40.5223 23.7962 41.2059 23.9439 41.8983 23.9511C42.6223 23.9477 43.3377 23.7936 43.999 23.4986C44.1896 24.1542 44.5804 24.7339 45.1166 25.1566L44.6522 25.6644C44.3089 26.0397 43.8894 26.3372 43.4217 26.5371C42.954 26.7369 42.449 26.8345 41.9406 26.8232H41.9417ZM41.8614 8.74707C44.255 8.74707 46.3036 10.6145 47.1099 13.236C45.7351 11.9166 44.3082 11.1049 41.9688 11.2601C40.5712 11.1733 39.3277 11.8026 38.6235 12.4244C38.4851 12.5463 38.3567 12.6791 38.2394 12.8215C38.088 12.4574 37.845 12.1385 37.5341 11.8959C37.5276 11.7104 37.5178 11.527 37.5048 11.3436C38.553 9.75401 40.1296 8.74707 41.8603 8.74707H41.8614ZM37.7012 15.9302C37.7631 15.8163 37.8184 15.7024 37.8694 15.5895L38.5335 15.2998C38.7619 15.1995 38.9577 15.0373 39.0989 14.8316C39.24 14.6258 39.3208 14.3848 39.3321 14.1355C39.369 13.7992 40.5191 12.7803 41.9048 12.8866C41.9456 12.8893 41.9866 12.8893 42.0274 12.8866C44.5382 12.7032 45.6135 13.9109 47.5612 16.1038L47.6101 16.1581C47.699 16.2905 47.8246 16.3942 47.9714 16.4565C48.0159 16.4851 48.0546 16.5219 48.0853 16.565C48.0465 16.9489 47.9361 17.3221 47.7598 17.6653C47.4885 18.1622 47.188 18.2306 46.9862 18.2393C46.8299 18.2456 46.6789 18.2969 46.5511 18.387C46.4233 18.4771 46.3242 18.6021 46.2657 18.7471C45.8733 19.7303 45.2499 20.6046 44.4482 21.2959C44.3907 21.3447 44.3299 21.3925 44.2681 21.438C44.2078 21.4705 44.1523 21.511 44.1031 21.5585C43.46 22.0322 42.686 22.2952 41.8874 22.3115C41.18 22.3115 40.4313 22.0565 39.7173 21.5726C39.6853 21.5458 39.6508 21.5222 39.6142 21.5021C39.5361 21.4467 39.459 21.3936 39.3852 21.3306C38.5314 20.6382 37.8719 19.736 37.4712 18.7124C37.4134 18.5654 37.3141 18.4384 37.1854 18.3469C37.0567 18.2554 36.9042 18.2033 36.7464 18.1969C36.3438 18.1807 36.0953 17.8768 35.9326 17.535C36.6606 17.2811 37.2607 16.7364 37.7001 15.9302H37.7012ZM21.0139 26.9914L20.6884 26.6019L20.3434 26.182L21.7539 25.7197L21.9015 25.6709L23.0148 26.973C23.9831 28.1112 25.3003 28.8977 26.7615 29.2104C27.1896 29.3027 27.6258 29.3528 28.0636 29.3601H28.1852C28.4953 29.3623 28.8053 29.3435 29.1129 29.3037C30.6821 29.0872 32.1264 28.3292 33.196 27.1607L33.2665 27.0837C33.2991 27.0728 33.3316 27.0641 33.3642 27.0554L33.4109 27.0413L34.9375 26.5422L35.6298 26.3165L36.2212 26.1234L35.9423 26.437L35.3759 27.075L30.2229 32.8692L28.2286 35.1121L27.953 35.4224L27.775 35.2054L25.7199 32.7097L21.0139 26.9914ZM23.579 21.6833C23.5824 22.1856 23.4257 22.676 23.1317 23.0833C22.8377 23.4907 22.4217 23.7938 21.9438 23.9489L21.9048 23.9619L19.9918 24.5869L18.9263 24.1768L18.783 24.1214C18.4767 24.0037 18.2122 23.7978 18.0229 23.5297C17.8336 23.2616 17.7281 22.9434 17.7197 22.6153V22.5578L17.7273 22.5513C18.6152 21.7917 19.3297 20.8504 19.8225 19.7909C20.3472 19.6425 20.8081 19.3247 21.1333 18.887C21.75 19.8792 22.5304 20.7597 23.4412 21.4912C23.4846 21.5259 23.5291 21.5607 23.5747 21.5997L23.579 21.6833ZM25.1155 22.5448C26.0271 22.9951 27.0285 23.2343 28.0452 23.2447C29.106 23.2375 30.1508 22.9846 31.0975 22.5058C31.3149 23.5775 31.9456 24.5204 32.8531 25.1305L32.3529 25.6731L32.0035 26.0561C31.8356 26.2403 31.6542 26.4119 31.461 26.5693L31.3829 26.6323C31.2993 26.6985 31.2136 26.7614 31.1268 26.82C31.0834 26.8504 31.04 26.8797 30.9955 26.9079C30.8086 27.0296 30.6135 27.1384 30.4117 27.2334L30.3108 27.2801L30.2088 27.3245C30.173 27.3408 30.1361 27.356 30.1003 27.3701C29.0995 27.7673 27.9994 27.8408 26.9546 27.5804C25.9099 27.32 24.973 26.7387 24.2757 25.9183L23.4705 24.9906C24.3106 24.4157 24.8979 23.5402 25.1112 22.5448H25.1155ZM35.6786 24.5891L34.2681 24.0465C33.7975 23.8666 33.391 23.551 33.1001 23.1397C32.8092 22.7284 32.6469 22.24 32.6339 21.7364L32.6274 21.5194L32.7468 21.4207C33.5888 20.7073 34.3125 19.865 34.8909 18.925C35.2108 19.328 35.651 19.6185 36.1474 19.754C36.6614 20.8662 37.4243 21.8452 38.3772 22.6153L38.3935 22.6284C38.3877 22.9458 38.2829 23.2535 38.0939 23.5085C37.9048 23.7635 37.6408 23.9531 37.3388 24.0509L37.3041 24.0628L35.6786 24.5891ZM20.1339 11.0322V10.9997C20.709 6.20692 24.0803 2.5969 27.9888 2.5969C31.6856 2.5969 34.7987 5.73166 35.6667 9.95584C33.5921 7.77485 31.6281 6.35883 28.1342 6.59212C26.3167 6.4706 24.6988 7.28765 23.7841 8.09928C23.0951 8.71018 22.6904 9.40137 22.6394 10.0524L20.2001 11.1158L20.1155 11.1527C20.1242 11.1169 20.1285 11.0745 20.1339 11.0322ZM19.3983 13.4617C19.4178 13.4324 19.4417 13.402 19.4666 13.3706C19.5339 13.2903 19.612 13.2035 19.6912 13.1264L20.8414 12.624L23.3544 11.5281C23.6151 11.4134 23.8385 11.2282 23.9995 10.9934C24.1606 10.7585 24.2528 10.4834 24.2659 10.1989C24.2659 10.0676 24.4037 9.73665 24.8681 9.32433C25.5126 8.7525 26.7377 8.12099 28.0745 8.22624C28.1153 8.22895 28.1563 8.22895 28.1971 8.22624C31.4729 7.98644 32.9974 9.39269 35.3358 11.9979L35.9564 12.6946L36.04 12.7879C36.1336 12.9327 36.2707 13.044 36.4317 13.1058C36.4943 13.1483 36.5528 13.1966 36.6064 13.2501C36.6465 13.2839 36.6792 13.3256 36.7024 13.3727C36.7255 13.4198 36.7387 13.4711 36.7409 13.5235C36.7153 13.812 36.6615 14.0973 36.5803 14.3753C36.5041 14.6447 36.3994 14.9051 36.2678 15.1522L36.2494 15.1848C35.7633 16.0528 35.1708 16.0767 34.9734 16.0854C34.8771 16.0897 34.7823 16.111 34.6934 16.1483C34.594 16.1894 34.5038 16.2499 34.4282 16.3263C34.3525 16.4027 34.2929 16.4934 34.2529 16.5932C34.2022 16.7191 34.148 16.8439 34.0901 16.9676C33.5399 18.1977 32.7248 19.2911 31.703 20.1696C31.6151 20.2423 31.5239 20.315 31.4306 20.3866C31.3544 20.4249 31.2852 20.4755 31.2255 20.5364C30.2218 21.2449 29.1216 21.6214 28.0376 21.6214C27.0155 21.6214 25.9391 21.2558 24.918 20.5613C24.8755 20.5248 24.8293 20.4929 24.7802 20.4658H24.7737C24.6652 20.3888 24.5567 20.3085 24.4558 20.2271C23.3556 19.3369 22.4837 18.1972 21.9124 16.9025C21.8603 16.7853 21.8115 16.667 21.7648 16.5487C21.7201 16.434 21.6498 16.331 21.5591 16.2477C21.4684 16.1643 21.3599 16.1029 21.2418 16.068C21.1767 16.0476 21.1092 16.036 21.0411 16.0333C20.3347 16.004 19.9137 15.4908 19.6641 14.9331C19.4833 14.5067 19.367 14.0558 19.3191 13.5952C19.3413 13.5483 19.3678 13.5036 19.3983 13.4617ZM14.0814 8.75033C15.8533 8.75033 17.4365 9.77246 18.4651 11.3675C18.4456 11.6051 18.4336 11.8449 18.4271 12.0837C18.3609 12.1531 18.2904 12.2301 18.222 12.3148C17.1446 11.5552 15.9152 11.1483 14.1888 11.2633C12.7913 11.1765 11.5478 11.8059 10.8447 12.4276C10.3401 12.8747 10.0265 13.3836 9.94622 13.8805L8.55082 14.486C9.04562 11.1961 11.3861 8.74707 14.0836 8.74707L14.0814 8.75033ZM9.69883 18.7178C9.64105 18.5708 9.54175 18.4438 9.41305 18.3523C9.28435 18.2608 9.1318 18.2087 8.974 18.2024C8.18515 18.1698 7.96923 17.0305 7.9204 16.6681C7.97366 16.594 8.0328 16.5243 8.09726 16.4597L10.7557 15.2998C10.9841 15.1995 11.18 15.0373 11.3211 14.8316C11.4622 14.6258 11.543 14.3848 11.5543 14.1355C11.5912 13.7992 12.7424 12.7803 14.127 12.8866C14.1678 12.8893 14.2088 12.8893 14.2496 12.8866C15.76 12.7781 16.7453 13.1687 17.7218 13.9782C17.8922 15.2184 18.54 16.9415 20.0764 17.483C20.0482 17.547 20.0189 17.6099 19.9853 17.6707C19.714 18.1676 19.4145 18.236 19.2116 18.2447C19.0555 18.2512 18.9045 18.3025 18.7767 18.3926C18.6489 18.4827 18.5498 18.6076 18.4911 18.7525C18.0988 19.7357 17.4754 20.61 16.6737 21.3013C16.6161 21.3491 16.5576 21.3957 16.4968 21.4413C16.4349 21.4745 16.378 21.5161 16.3275 21.565C15.6848 22.0385 14.9111 22.3012 14.1129 22.3169C13.4065 22.3169 12.6567 22.062 11.9428 21.578C11.9086 21.5499 11.8723 21.5245 11.8342 21.5021C11.7583 21.45 11.6834 21.3936 11.6107 21.336C10.7577 20.6433 10.099 19.7412 9.69883 18.7178ZM17.3345 25.1512L16.9395 25.5852L15.9391 25.9107C15.2228 26.0993 14.5416 26.4023 13.9219 26.8081C12.9819 26.7278 12.1116 26.2797 11.5 25.5613L11.066 25.0492C11.5594 24.6538 11.9217 24.1187 12.1055 23.5138C12.7391 23.7931 13.4227 23.9407 14.1151 23.9478C14.8391 23.9445 15.5545 23.7904 16.2158 23.4953C16.4074 24.1502 16.7984 24.729 17.3345 25.1512ZM9.53715 25.7653L10.2631 26.6182C10.844 27.3007 11.5916 27.8214 12.4332 28.1297C12.1108 28.5088 11.8276 28.9196 11.5879 29.3558L8.82209 25.9997L9.53715 25.7653ZM10.9011 31.0876C10.7501 31.6803 10.6714 32.2891 10.6667 32.9007L10.2403 35.6535H7.06862V31.7538C7.06862 31.538 6.98288 31.331 6.83026 31.1784C6.67764 31.0257 6.47065 30.94 6.25482 30.94C6.03898 30.94 5.83199 31.0257 5.67937 31.1784C5.52675 31.331 5.44101 31.538 5.44101 31.7538V35.6535H2.01328L2.73268 31.0105C2.73921 30.9693 2.74247 30.9275 2.74245 30.8857C2.74245 29.0683 3.91215 27.4916 5.58641 27.0544L5.63307 27.0403L7.15976 26.5411L10.9011 31.0865V31.0876ZM39.5133 39.7334V34.5175C39.5133 34.3016 39.4275 34.0946 39.2749 33.942C39.1223 33.7894 38.9153 33.7037 38.6995 33.7037C38.4837 33.7037 38.2767 33.7894 38.124 33.942C37.9714 34.0946 37.8857 34.3016 37.8857 34.5175V39.7334H18.17V34.1442C18.17 33.9284 18.0842 33.7214 17.9316 33.5688C17.779 33.4161 17.572 33.3304 17.3562 33.3304C17.1403 33.3304 16.9333 33.4161 16.7807 33.5688C16.6281 33.7214 16.5424 33.9284 16.5424 34.1442V39.7334H11.2548L11.6346 37.2811L11.8874 35.6535L12.2845 33.0895C12.2907 33.0486 12.2936 33.0072 12.2932 32.9658V32.7824C12.3152 32.082 12.4622 31.3912 12.7273 30.7425C13.0896 29.8419 13.6796 29.0507 14.4395 28.4465C15.0111 27.9932 15.6707 27.6636 16.3763 27.4786C16.3926 27.4786 16.4078 27.4699 16.4241 27.4656L17.8347 27.0055L18.6897 26.7256L18.8763 26.9524L19.9191 28.2186L26.0345 35.6492L27.2987 37.1857C27.306 37.1952 27.314 37.2043 27.3225 37.2128C27.3345 37.2258 27.3464 37.2388 27.3594 37.2508C27.3676 37.2599 27.3767 37.2683 27.3865 37.2757C27.4061 37.2931 27.4256 37.3094 27.4462 37.3245L27.5059 37.3647L27.5146 37.3701L27.5743 37.4016C27.605 37.4167 27.637 37.4294 27.6697 37.4396C27.6864 37.4461 27.7034 37.4516 27.7207 37.4558L27.7663 37.4656H27.7913L27.8499 37.4732H27.9953C28.0088 37.4725 28.0222 37.4706 28.0354 37.4678L28.0723 37.4624L28.1059 37.4548C28.1262 37.4504 28.1468 37.445 28.1678 37.4385C28.1884 37.432 28.2079 37.4244 28.2286 37.4157H28.2383C28.2499 37.4112 28.2612 37.4057 28.272 37.3994C28.2915 37.3912 28.3104 37.3814 28.3284 37.3701C28.346 37.3603 28.363 37.3494 28.3794 37.3376L28.4076 37.317C28.4169 37.3118 28.4257 37.3056 28.4336 37.2985L28.4608 37.2746C28.4803 37.2562 28.4998 37.2367 28.5183 37.216C28.5187 37.2143 28.5187 37.2124 28.5183 37.2106L28.54 37.1857L29.905 35.6514L33.2004 31.9459L34.0934 30.9422L36.4046 28.338L37.4994 27.1075L37.5471 27.0533L39.4471 27.7846L39.4623 27.79C39.904 28.0351 40.3793 28.2142 40.8729 28.3217C41.8924 28.8858 42.7057 29.7599 43.1949 30.8174C43.5596 31.6065 43.7488 32.4654 43.7494 33.3347C43.7497 33.3784 43.7534 33.4219 43.7602 33.465L44.1161 35.6492L44.382 37.2768L44.7813 39.7291L39.5133 39.7334ZM50.555 35.6535V32.0294C50.555 31.8136 50.4692 31.6066 50.3166 31.454C50.164 31.3013 49.957 31.2156 49.7411 31.2156C49.5253 31.2156 49.3183 31.3013 49.1657 31.454C49.0131 31.6066 48.9273 31.8136 48.9273 32.0294V35.6535H45.7806L45.3922 33.2664C45.3866 32.5546 45.2814 31.8472 45.0797 31.1646L48.9697 26.7939L50.2283 27.2779C50.2638 27.291 50.3 27.3019 50.3369 27.3104C52.0567 27.7184 53.2589 29.3015 53.2589 31.1614C53.259 31.2049 53.2622 31.2485 53.2687 31.2916L53.9805 35.6535H50.555Z" fill="#4A4B65"/>
</svg>
