<svg width="91" height="77" viewBox="0 0 91 77" fill="none" xmlns="http://www.w3.org/2000/svg">
<path opacity="0.1" fill-rule="evenodd" clip-rule="evenodd" d="M22.3897 72.9536C36.9483 80.0545 65.7445 75.4751 72.8454 60.9165C79.9463 46.3579 58.8831 29.9116 44.3245 22.8107C29.7659 15.7098 10.0959 5.10169 2.99501 19.6603C-4.10588 34.2189 7.83104 65.8527 22.3897 72.9536Z" fill="#00245B"/>
<path d="M64.9093 27.6277C64.613 27.6277 64.3288 27.51 64.1193 27.3004C63.9098 27.0909 63.7921 26.8067 63.7921 26.5104V24.82C63.7921 24.5237 63.9098 24.2395 64.1193 24.03C64.3288 23.8205 64.613 23.7028 64.9093 23.7028H65.6132C66.0515 23.7022 66.4718 23.5278 66.7817 23.2178C67.0917 22.9079 67.2661 22.4876 67.2667 22.0493V21.0437C67.2667 20.4185 67.0183 19.8189 66.5762 19.3768C66.1341 18.9347 65.5345 18.6863 64.9093 18.6863C64.2841 18.6863 63.6845 18.9347 63.2424 19.3768C62.8003 19.8189 62.5519 20.4185 62.5519 21.0437V21.1923C62.5519 21.4886 62.4342 21.7728 62.2247 21.9823C62.0152 22.1919 61.731 22.3096 61.4347 22.3096C61.1384 22.3096 60.8542 22.1919 60.6447 21.9823C60.4351 21.7728 60.3174 21.4886 60.3174 21.1923V21.0437C60.3174 19.8259 60.8012 18.6579 61.6624 17.7968C62.5235 16.9356 63.6915 16.4518 64.9093 16.4518C66.1272 16.4518 67.2951 16.9356 68.1563 17.7968C69.0174 18.6579 69.5012 19.8259 69.5012 21.0437V22.0493C69.5001 23.0085 69.1449 23.9336 68.5036 24.647C67.8624 25.3604 66.9803 25.812 66.0266 25.9149V26.5115C66.0263 26.8077 65.9084 27.0915 65.6989 27.3008C65.4894 27.5101 65.2054 27.6277 64.9093 27.6277ZM64.9093 32.5156C64.613 32.5156 64.3288 32.3979 64.1193 32.1884C63.9098 31.9789 63.7921 31.6947 63.7921 31.3984V30.2387C63.7921 29.9424 63.9098 29.6582 64.1193 29.4487C64.3288 29.2391 64.613 29.1214 64.9093 29.1214C65.2056 29.1214 65.4898 29.2391 65.6993 29.4487C65.9088 29.6582 66.0266 29.9424 66.0266 30.2387V31.3984C66.0266 31.6947 65.9088 31.9789 65.6993 32.1884C65.4898 32.3979 65.2056 32.5156 64.9093 32.5156ZM53.2899 14.8765C53.0723 14.8767 52.8594 14.8133 52.6774 14.6941C52.4953 14.575 52.352 14.4053 52.265 14.2058C52.178 14.0064 52.1512 13.7859 52.1878 13.5714C52.2244 13.3569 52.3228 13.1578 52.471 12.9984C52.789 12.6565 53.1179 12.3299 53.4575 12.0186C53.565 11.9158 53.692 11.8355 53.831 11.7825C53.97 11.7294 54.1181 11.7046 54.2668 11.7096C54.4155 11.7146 54.5617 11.7492 54.6968 11.8114C54.8319 11.8736 54.9532 11.9622 55.0537 12.0719C55.1541 12.1816 55.2316 12.3103 55.2816 12.4504C55.3317 12.5905 55.3532 12.7392 55.3451 12.8877C55.3369 13.0362 55.2991 13.1816 55.234 13.3154C55.1689 13.4491 55.0777 13.5685 54.9658 13.6665C54.6679 13.9369 54.3811 14.2218 54.1055 14.5212C54.0012 14.6331 53.8749 14.7224 53.7346 14.7836C53.5943 14.8447 53.443 14.8763 53.2899 14.8765Z" fill="#B9B9B9"/>
<path d="M78.0394 36.4094C75.7902 38.9189 72.8557 40.7152 69.5978 41.5768C66.3399 42.4384 62.9011 42.3277 59.7054 41.2583L48.2424 44.2414C48.1488 44.2725 48.0506 44.2876 47.9519 44.286C47.7856 44.2829 47.622 44.243 47.4729 44.1693C47.3237 44.0956 47.1927 43.9899 47.0891 43.8597C46.9856 43.7294 46.9121 43.578 46.8739 43.416C46.8357 43.2541 46.8338 43.0858 46.8682 42.923L49.3485 31.9069C49.2926 31.7952 49.2479 31.6723 49.2032 31.5606C48.1793 29.1488 47.7167 26.536 47.8502 23.9193C47.9837 21.3025 48.71 18.7504 49.9741 16.4554C50.039 16.3172 50.1314 16.1937 50.2458 16.0927C50.3602 15.9916 50.4941 15.915 50.6393 15.8677C50.7844 15.8204 50.9377 15.8033 51.0897 15.8175C51.2417 15.8317 51.3891 15.8769 51.523 15.9504C51.6568 16.0238 51.7742 16.1238 51.8678 16.2444C51.9615 16.3649 52.0295 16.5034 52.0675 16.6512C52.1056 16.799 52.113 16.9531 52.0892 17.1039C52.0655 17.2547 52.011 17.399 51.9293 17.5279C50.8464 19.5021 50.2181 21.6933 50.0906 23.9413C49.963 26.1894 50.3393 28.4375 51.1919 30.5215C51.2143 30.5774 51.4489 31.1025 51.5383 31.3036C52.2752 32.886 53.2892 34.3239 54.5325 35.5492C54.6367 35.6526 54.7195 35.7755 54.7761 35.911C54.8328 36.0464 54.8622 36.1917 54.8627 36.3385C54.8632 36.4853 54.8348 36.6307 54.7791 36.7665C54.7234 36.9024 54.6415 37.0259 54.5381 37.1301C54.4347 37.2342 54.3117 37.317 54.1763 37.3737C54.0409 37.4303 53.8956 37.4598 53.7488 37.4603C53.602 37.4608 53.4565 37.4324 53.3207 37.3767C53.1849 37.321 53.0614 37.2391 52.9572 37.1357C52.2329 36.414 51.5748 35.6287 50.9908 34.7894L49.449 41.627L59.4708 39.0126C59.6888 38.9564 59.9188 38.9681 60.1299 39.0461C62.4805 39.878 65.0004 40.115 67.4649 39.7359C69.9293 39.3567 72.2615 38.3733 74.2533 36.8733C76.2451 35.3733 77.8345 33.4035 78.8796 31.1397C79.9248 28.8759 80.3931 26.3886 80.2429 23.8997C80.0927 21.4108 79.3285 18.9978 78.0186 16.8762C76.7088 14.7545 74.894 12.9902 72.7362 11.7408C70.5785 10.4913 68.1449 9.79549 65.6528 9.71554C63.1606 9.63558 60.6875 10.1739 58.4541 11.2825L58.1524 11.4278C57.8886 11.549 57.5879 11.5627 57.3141 11.466C57.0403 11.3693 56.8149 11.1699 56.6856 10.9099C56.5564 10.6499 56.5334 10.3498 56.6216 10.0732C56.7098 9.79655 56.9022 9.56511 57.1581 9.42789L57.4597 9.28265C61.0727 7.49178 65.197 7.01667 69.1225 7.93912C73.0481 8.86157 76.5291 11.1238 78.9664 14.3364C81.4036 17.549 82.6444 21.5108 82.4752 25.5397C82.306 29.5687 80.7374 33.4125 78.0394 36.4094Z" fill="#B9B9B9"/>
<path d="M67.4235 56.1281C67.3877 55.7972 67.2777 55.4787 67.1017 55.1962C66.9256 54.9138 66.6881 54.6747 66.4068 54.4969L56.8097 48.3744C56.3843 48.0984 55.8772 47.9767 55.3729 48.0296C54.8686 48.0825 54.3978 48.3067 54.0389 48.6649L52.0725 50.6312C51.6529 51.0572 51.0896 51.3115 50.4926 51.3445C49.8956 51.3776 49.3077 51.187 48.8437 50.81C48.4526 50.4972 48.0728 50.1843 47.6929 49.8715L47.637 49.8156C45.4057 47.9284 43.3284 45.8661 41.4251 43.6484C41.2911 43.5144 40.4196 42.453 40.252 42.2519C39.8802 41.7856 39.693 41.1988 39.726 40.6034C39.7589 40.0079 40.0098 39.4454 40.4308 39.023L42.4083 37.0455C42.7651 36.6862 42.9893 36.2163 43.0441 35.7129C43.0989 35.2095 42.9811 34.7024 42.71 34.2747L36.5875 24.6664C36.4066 24.3871 36.1657 24.1517 35.8822 23.9775C35.5988 23.8032 35.28 23.6945 34.9492 23.6591C34.6184 23.6238 34.2838 23.6628 33.97 23.7733C33.6561 23.8837 33.3709 24.0629 33.1352 24.2977L31.2135 26.2193C28.0873 29.3403 26.2648 33.5331 26.1154 37.948C25.9661 42.3628 27.501 46.6693 30.4091 49.9944C33.7424 53.7746 37.3097 57.3419 41.09 60.6753C44.2449 63.4597 48.3115 64.9902 52.5194 64.9767C57.1485 64.9772 61.5886 63.1409 64.865 59.8709L66.7867 57.9492C67.0234 57.7134 67.2037 57.4271 67.314 57.1117C67.4243 56.7963 67.4617 56.46 67.4235 56.1281ZM63.2897 58.2844C60.5693 61.0084 56.9158 62.5975 53.0683 62.7303C49.2207 62.863 45.4664 61.5295 42.5647 58.9994C38.8624 55.7217 35.3627 52.2219 32.0849 48.5196C29.5498 45.6203 28.213 41.8649 28.3458 38.0158C28.4786 34.1667 30.0711 30.5124 32.8 27.7947L34.6993 25.873L40.833 35.4702L38.8555 37.4477C38.4285 37.8742 38.0871 38.3786 37.8499 38.9336C37.054 37.6808 36.409 36.3382 35.9283 34.9339C35.8379 34.6509 35.6388 34.4154 35.3748 34.2792C35.1108 34.143 34.8035 34.1173 34.5205 34.2077C34.2376 34.298 34.0021 34.4971 33.8659 34.7611C33.7297 35.0251 33.704 35.3324 33.7943 35.6154C34.9548 38.7364 36.6778 41.6182 38.8778 44.1177C38.9895 44.2406 43.5144 49.2347 46.0617 51.4021C46.0617 51.4021 50.6648 55.7259 55.469 57.2789C55.576 57.319 55.6898 57.338 55.8041 57.3347C56.0696 57.3341 56.3262 57.239 56.5279 57.0664C56.7297 56.8938 56.8633 56.6551 56.905 56.3929C56.9467 56.1307 56.8937 55.8622 56.7554 55.6356C56.6171 55.409 56.4027 55.239 56.1505 55.1561C54.7413 54.6738 53.3948 54.0249 52.1396 53.2232C52.7092 52.995 53.2262 52.6528 53.659 52.2177L55.603 50.2514L65.2114 56.3627L63.2897 58.2844Z" fill="#B9B9B9"/>
</svg>
