<svg width="38" height="50" viewBox="0 0 38 50" fill="none" xmlns="http://www.w3.org/2000/svg">
<path d="M34.6638 5.90922H27.4793V3.99076C27.4793 3.78758 27.3985 3.59272 27.2549 3.44906C27.1112 3.30539 26.9164 3.22468 26.7132 3.22468H22.7337C22.0934 1.61753 20.5376 0.540039 18.7626 0.540039C16.9876 0.540039 15.4318 1.61753 14.7915 3.22468H10.8119C10.6087 3.22468 10.4139 3.30539 10.2702 3.44906C10.1265 3.59272 10.0458 3.78758 10.0458 3.99076V5.90931H2.86142C1.30024 5.90931 0.0302734 7.17938 0.0302734 8.74046V46.7382C0.0302734 48.2993 1.30034 49.5693 2.86142 49.5693H34.6638C36.2249 49.5693 37.4949 48.2993 37.4949 46.7382V8.74037C37.4949 7.17928 36.2248 5.90922 34.6638 5.90922ZM11.5781 4.75684H15.35C15.5219 4.75684 15.6889 4.699 15.8239 4.59263C15.959 4.48626 16.0544 4.33754 16.0947 4.1704C16.3926 2.935 17.4897 2.0722 18.7626 2.0722C20.0354 2.0722 21.1326 2.935 21.4305 4.1704C21.4708 4.33754 21.5662 4.48626 21.7012 4.59263C21.8363 4.699 22.0033 4.75684 22.1752 4.75684H25.947V8.59385H11.5781V4.75684ZM35.9627 46.7381C35.9627 47.4544 35.38 48.0371 34.6638 48.0371H2.86142C2.14514 48.0371 1.56244 47.4544 1.56244 46.7381V8.74037C1.56244 8.02408 2.14514 7.44138 2.86142 7.44138H10.0458V9.35993C10.0458 9.56311 10.1265 9.75797 10.2702 9.90163C10.4139 10.0453 10.6087 10.126 10.8119 10.126H26.7131C26.9163 10.126 27.1111 10.0453 27.2548 9.90163C27.3984 9.75797 27.4792 9.56311 27.4792 9.35993V7.44138H34.6637C35.3799 7.44138 35.9626 8.02408 35.9626 8.74037V46.7381H35.9627ZM23.1543 24.9991C23.7234 24.6053 24.097 23.9484 24.097 23.2057C24.097 22.2293 23.452 21.4009 22.5655 21.1241L23.6714 20.0181C24.5366 19.1529 24.5366 17.745 23.6714 16.8796C22.9465 16.1549 21.7986 16.0248 20.925 16.5673C20.694 15.5684 19.7889 14.8462 18.7623 14.8462C17.7376 14.8464 16.8338 15.5662 16.5998 16.5674C15.7303 16.0244 14.5796 16.1537 13.8535 16.8797C12.9883 17.745 12.9883 19.1528 13.8535 20.0181L14.9595 21.1241C14.0731 21.4008 13.428 22.2293 13.428 23.2056C13.428 23.9484 13.8016 24.6053 14.3706 24.9991C12.1864 27.4107 10.6866 29.3738 9.69314 31.1182C8.0116 34.0706 7.97827 37.3348 9.6015 40.0739C11.411 43.1274 14.9206 44.9876 18.7624 44.9247C18.8235 44.9256 18.8835 44.9261 18.9443 44.9261C22.7148 44.9259 26.1425 43.0788 27.9233 40.0739C29.5465 37.3348 29.5132 34.0706 27.8317 31.1182C26.8385 29.374 25.3388 27.4109 23.1543 24.9991ZM15.6083 23.8536C15.4365 23.8534 15.2718 23.7851 15.1504 23.6636C15.0289 23.5421 14.9605 23.3774 14.9603 23.2056C14.9605 23.0338 15.0289 22.8691 15.1504 22.7477C15.2718 22.6262 15.4366 22.5579 15.6083 22.5577H21.9169C22.0887 22.5579 22.2534 22.6262 22.3749 22.7477C22.4964 22.8692 22.5647 23.0339 22.5649 23.2057C22.5647 23.3775 22.4964 23.5422 22.3749 23.6637C22.2534 23.7851 22.0887 23.8534 21.9169 23.8536H15.6083ZM14.9372 17.963C15.1638 17.7363 15.5247 17.6978 15.7953 17.8713C16.2182 18.1428 16.7273 18.1883 17.1919 17.9959C17.6562 17.8034 17.984 17.4114 18.0912 16.9204C18.1597 16.6064 18.4422 16.3784 18.7627 16.3784C19.0833 16.3784 19.3657 16.6064 19.4343 16.9205C19.5415 17.4114 19.8693 17.8034 20.3337 17.996C20.7982 18.1883 21.3072 18.1428 21.7302 17.8713C22.0008 17.6978 22.3617 17.7364 22.5882 17.963C22.8561 18.2309 22.8561 18.6669 22.5882 18.9347L20.4975 21.0254H17.0282L14.9374 18.9347C14.6692 18.6668 14.6692 18.2309 14.9372 17.963ZM26.6053 39.2928C25.074 41.8772 22.0747 43.4507 18.7754 43.3925C18.7668 43.3924 18.7582 43.3924 18.7496 43.3925C15.455 43.4501 12.4512 41.8772 10.9196 39.2928C9.56511 37.0072 9.60236 34.3733 11.0245 31.8764C12.0471 30.081 13.6635 28.012 16.0942 25.3858H21.4307C23.8616 28.0123 25.478 30.0813 26.5004 31.8764C27.9226 34.3733 27.9599 37.0072 26.6053 39.2928ZM22.9482 36.8297C23.052 37.6842 22.8225 38.4645 22.2848 39.0862C21.6693 39.7979 20.6562 40.2794 19.5018 40.4261V41.236C19.5018 41.4392 19.4211 41.634 19.2774 41.7777C19.1337 41.9214 18.9389 42.0021 18.7357 42.0021C18.5325 42.0021 18.3376 41.9214 18.194 41.7777C18.0503 41.634 17.9696 41.4392 17.9696 41.236V40.4146C16.247 40.1553 14.9119 39.0519 14.5212 37.4849C14.472 37.2878 14.5032 37.0792 14.6079 36.905C14.7125 36.7309 14.882 36.6054 15.0792 36.5563C15.1768 36.5319 15.2783 36.527 15.3778 36.5418C15.4773 36.5567 15.5729 36.591 15.6592 36.6428C15.7454 36.6946 15.8206 36.763 15.8804 36.8438C15.9403 36.9247 15.9836 37.0166 16.0079 37.1143C16.3541 38.5037 17.7595 38.9658 18.8586 38.9398C19.806 38.9172 20.6959 38.5812 21.126 38.0839C21.3804 37.7898 21.4789 37.44 21.4273 37.0143C21.3033 35.9928 20.4379 35.4043 18.6214 35.1061C15.6182 34.613 14.9185 33.0802 14.8604 31.8812C14.7796 30.2204 15.9394 28.8292 17.7461 28.4195C17.8196 28.4028 17.8943 28.3879 17.9697 28.3748V27.5422C17.9697 27.339 18.0504 27.1442 18.1941 27.0005C18.3377 26.8568 18.5326 26.7761 18.7358 26.7761C18.939 26.7761 19.1338 26.8568 19.2775 27.0005C19.4211 27.1442 19.5019 27.339 19.5019 27.5422V28.3683C20.7661 28.5738 22.0036 29.3196 22.6276 30.8056C22.7045 30.9926 22.7044 31.2025 22.6273 31.3894C22.5501 31.5764 22.4022 31.7252 22.2157 31.8035C22.0292 31.8818 21.8194 31.8832 21.6319 31.8074C21.4444 31.7315 21.2945 31.5847 21.2149 31.3988C20.6336 30.0142 19.2241 29.6554 18.085 29.9136C17.2308 30.1073 16.3373 30.7064 16.3907 31.8069C16.4197 32.4041 16.7082 33.2393 18.8697 33.5942C19.7998 33.747 22.6304 34.2117 22.9482 36.8297Z" fill="#4A4B65"/>
</svg>
