<svg width="70" height="70" viewBox="0 0 70 70" fill="none" xmlns="http://www.w3.org/2000/svg">
<path d="M17.1007 55.7529H13.8711V56.7622H17.1007V55.7529Z" fill="#888888"/>
<path d="M54.7781 55.7529H52.625V56.7622H54.7781V55.7529Z" fill="#888888"/>
<path d="M19.2543 55.7529H18.1777V56.7622H19.2543V55.7529Z" fill="#888888"/>
<path d="M37.3109 57.8389H33.4933C32.7915 57.8389 32.1994 57.337 32.0843 56.6453L31.7977 54.9289C31.7715 54.7708 31.6551 54.6402 31.5017 54.5958C30.5207 54.3105 29.5713 53.9176 28.6798 53.4264C28.5385 53.3491 28.3636 53.3585 28.2337 53.4513L26.8167 54.464C26.2468 54.871 25.4724 54.8071 24.9765 54.3126L22.2764 51.6131C22.1122 51.4476 21.9898 51.2444 21.9218 51.0244C21.7913 50.6019 21.8666 50.1336 22.1237 49.7729L23.1356 48.3559C23.2291 48.2254 23.2392 48.0505 23.1612 47.9099C22.6693 47.0177 22.2764 46.0683 21.9918 45.088C21.9474 44.9339 21.8162 44.8175 21.6587 44.7913L19.9417 44.5053C19.25 44.3903 18.748 43.7982 18.748 43.0964V39.2787C18.748 38.5776 19.25 37.9849 19.9417 37.8698L21.6581 37.5832C21.8162 37.5569 21.9467 37.4405 21.9911 37.2871C22.2764 36.3061 22.6693 35.3567 23.1605 34.4652C23.2379 34.3246 23.2285 34.149 23.1349 34.0192L22.1223 32.6022C21.7153 32.0323 21.7792 31.2585 22.2737 30.762L24.9738 28.0619C25.4704 27.5667 26.2441 27.5027 26.814 27.9098L28.231 28.9224C28.3609 29.0153 28.5358 29.0254 28.6771 28.9473C29.5686 28.4561 30.518 28.0625 31.499 27.7779C31.653 27.7335 31.7694 27.603 31.795 27.4455L32.0816 25.7278C32.1967 25.0368 32.7888 24.5342 33.4906 24.5342H37.3082C38.0093 24.5342 38.6021 25.0361 38.7172 25.7278L39.0031 27.4449C39.0294 27.6023 39.1458 27.7335 39.2998 27.7779C40.2802 28.0625 41.2295 28.4561 42.1217 28.9473C42.2623 29.0247 42.4373 29.0146 42.5671 28.9217L43.9848 27.9091C44.5547 27.5021 45.3284 27.566 45.825 28.0605L48.5251 30.7606C49.0203 31.2572 49.0842 32.0309 48.6772 32.6008L47.6645 34.0178C47.5717 34.1477 47.5616 34.3233 47.6396 34.4639C48.1308 35.3554 48.5244 36.3048 48.809 37.2858C48.8534 37.4399 48.984 37.5563 49.1414 37.5818L50.8592 37.8684C51.5502 37.9835 52.0521 38.5756 52.0521 39.2774V43.095C52.0521 43.7961 51.5502 44.3889 50.8585 44.504L49.1414 44.7899C48.984 44.8162 48.8528 44.9326 48.8084 45.0866C48.5237 46.0663 48.1301 47.0157 47.639 47.9085C47.5616 48.0491 47.5717 48.2241 47.6645 48.3546L48.6772 49.7723C48.9348 50.1329 49.0102 50.6012 48.879 51.0244C48.8117 51.2438 48.6893 51.447 48.5264 51.6111L45.8257 54.3119C45.3291 54.8071 44.5554 54.871 43.9855 54.464L42.5685 53.452C42.4379 53.3585 42.263 53.3484 42.1224 53.4264C41.2302 53.9183 40.2808 54.3112 39.3005 54.5958C39.1464 54.6402 39.03 54.7714 39.0038 54.9296L38.7178 56.646C38.6048 57.337 38.012 57.8389 37.3109 57.8389ZM28.4773 52.3654C28.7141 52.3654 28.9523 52.4239 29.1662 52.5417C29.9932 52.9972 30.8732 53.3619 31.7822 53.6263C32.307 53.7783 32.704 54.2251 32.7928 54.7634L33.0795 56.4798C33.1131 56.683 33.2867 56.8303 33.4926 56.8303H37.3103C37.5161 56.8303 37.6897 56.683 37.7234 56.4804L38.0093 54.7634C38.0995 54.2251 38.4965 53.779 39.0206 53.6269C39.9289 53.3632 40.809 52.9985 41.6366 52.5423C42.1163 52.2786 42.7131 52.3136 43.1572 52.6311L44.5735 53.6424C44.7411 53.7622 44.9685 53.7434 45.1138 53.5973L47.8126 50.8986C47.8603 50.8502 47.896 50.7923 47.9155 50.727C47.9539 50.6019 47.9323 50.4639 47.8563 50.3583L46.8443 48.9413C46.5268 48.4979 46.4918 47.9011 46.7555 47.4214C47.211 46.5938 47.5764 45.7137 47.8401 44.8054C47.9922 44.2812 48.4383 43.8843 48.9766 43.7941L50.6936 43.5082C50.8968 43.4745 51.0435 43.3009 51.0435 43.095V39.2774C51.0435 39.0715 50.8962 38.8979 50.6936 38.8642L48.9759 38.5776C48.4383 38.4888 47.9915 38.0918 47.8395 37.567C47.575 36.658 47.2104 35.7779 46.7549 34.951C46.4911 34.472 46.5254 33.8758 46.843 33.4311L47.8556 32.0141C47.9754 31.8466 47.9565 31.6191 47.8105 31.4738L45.1118 28.7751C44.9665 28.6297 44.739 28.6109 44.5715 28.7307L43.1545 29.7426C42.7111 30.0602 42.1143 30.0952 41.6346 29.8314C40.807 29.3759 39.9269 29.0106 39.0186 28.7468C38.4944 28.5947 38.0975 28.1487 38.0073 27.6111L37.7214 25.8933C37.6877 25.6901 37.5141 25.5434 37.3082 25.5434H33.4906C33.2847 25.5434 33.1111 25.6908 33.0774 25.8933L32.7908 27.6111C32.702 28.1487 32.3057 28.5954 31.7802 28.7475C30.8712 29.0119 29.9905 29.3766 29.1642 29.8321C28.6852 30.0958 28.0884 30.0615 27.6443 29.744L26.2273 28.7313C26.0598 28.6116 25.833 28.6311 25.687 28.7764L22.9883 31.4752C22.8429 31.6205 22.8241 31.8479 22.9439 32.0154L23.9565 33.4324C24.2741 33.8772 24.3084 34.4733 24.0446 34.9524C23.5891 35.7793 23.2244 36.6594 22.96 37.5684C22.8079 38.0932 22.3612 38.4901 21.8229 38.579L20.1065 38.8656C19.9033 38.8992 19.756 39.0728 19.756 39.2787V43.0964C19.756 43.3023 19.9033 43.4759 20.1058 43.5095L21.8229 43.7955C22.3612 43.8856 22.8073 44.2826 22.9593 44.8067C23.2231 45.7151 23.5878 46.5951 24.0439 47.4227C24.3077 47.9025 24.2734 48.4986 23.9551 48.9433L22.9439 50.3597C22.8685 50.4653 22.8463 50.6032 22.8846 50.7277C22.9048 50.7936 22.9398 50.8515 22.9896 50.9013L25.6877 53.5994C25.833 53.7447 26.0604 53.7635 26.228 53.6438L27.645 52.6311C27.8926 52.4542 28.1846 52.3654 28.4773 52.3654Z" fill="#888888"/>
<path d="M30.7408 44.7727L27.5111 41.5431C27.314 41.346 27.314 41.0264 27.5111 40.8292L30.7408 37.5996L31.4546 38.3135L28.5816 41.1865L31.4546 44.0595L30.7408 44.7727ZM40.0663 44.7727L39.3531 44.0595L42.2261 41.1865L39.3531 38.3135L40.0669 37.5996L43.2965 40.8292C43.4937 41.0264 43.4937 41.346 43.2965 41.5431L40.0663 44.7727Z" fill="#888888"/>
<path d="M37.0874 35.6161L32.7812 46.3818L33.7183 46.7567L38.0245 35.991L37.0874 35.6161Z" fill="#888888"/>
<path d="M60.1476 51.3795H48.4012C48.2411 51.3795 48.0904 51.3035 47.9948 51.1743C47.9 51.0451 47.8717 50.8789 47.9188 50.7255C47.9571 50.601 47.9349 50.4631 47.8596 50.3575L46.8476 48.9405C46.5301 48.4971 46.4951 47.9002 46.7588 47.4205C47.2143 46.5929 47.5797 45.7129 47.8434 44.8045C47.9955 44.2804 48.4416 43.8834 48.9799 43.7933L50.6969 43.5073C50.9001 43.4737 51.0468 43.3001 51.0468 43.0942V39.2765C51.0468 39.0706 50.8995 38.897 50.6969 38.8634L48.9792 38.5768C48.4416 38.4879 47.9948 38.091 47.8428 37.5662C47.5783 36.6572 47.2137 35.7771 46.7582 34.9502C46.4944 34.4711 46.5287 33.875 46.8463 33.4302L47.8589 32.0132C47.9787 31.8457 47.9598 31.6183 47.8138 31.473L45.1151 28.7742C44.9698 28.6289 44.7423 28.61 44.5748 28.7298L43.1578 29.7417C42.7144 30.0593 42.1176 30.0943 41.6379 29.8306C40.8103 29.3751 39.9302 29.0097 39.0219 28.7459C38.4977 28.5939 38.1008 28.1478 38.0106 27.6102L37.7247 25.8925C37.691 25.6893 37.5174 25.5426 37.3115 25.5426H33.4939C33.288 25.5426 33.1144 25.6899 33.0807 25.8925L32.7941 27.6102C32.7053 28.1478 32.309 28.5946 31.7835 28.7466C30.8745 29.011 29.9938 29.3757 29.1675 29.8312C28.6885 30.095 28.0917 30.0607 27.6476 29.7431L26.2306 28.7305C26.0631 28.6107 25.8363 28.6302 25.6903 28.7756L22.9916 31.4743C22.8462 31.6196 22.8274 31.8471 22.9471 32.0146L23.9598 33.4316C24.2767 33.8763 24.3117 34.4725 24.0479 34.9515C23.5924 35.7784 23.2277 36.6585 22.9633 37.5675C22.8112 38.0923 22.3645 38.4893 21.8262 38.5781L20.1098 38.8647C19.9066 38.8984 19.7593 39.072 19.7593 39.2779V43.0955C19.7593 43.3014 19.9066 43.475 20.1091 43.5087L21.8262 43.7946C22.3645 43.8848 22.8106 44.2817 22.9626 44.8059C23.2264 45.7142 23.5911 46.5943 24.0472 47.4219C24.311 47.9016 24.2767 48.4977 23.9584 48.9425L22.9471 50.3588C22.8718 50.4644 22.8496 50.6024 22.8879 50.7268C22.935 50.8802 22.9068 51.0464 22.8119 51.1756C22.717 51.3048 22.5663 51.3808 22.4055 51.3808H10.6605C9.77907 51.3808 9.0625 50.6643 9.0625 49.7829V13.2142C9.0625 12.3328 9.77907 11.6162 10.6605 11.6162H60.1476C61.029 11.6162 61.7456 12.3328 61.7456 13.2142V49.7829C61.7456 50.6629 61.029 51.3795 60.1476 51.3795ZM48.9274 50.3702H60.1476C60.4719 50.3702 60.7363 50.1065 60.7363 49.7815V13.2129C60.7363 12.8885 60.4719 12.6241 60.1476 12.6241H10.6605C10.3362 12.6241 10.0718 12.8885 10.0718 13.2129V49.7815C10.0718 50.1065 10.3362 50.3702 10.6605 50.3702H21.8807C21.9157 50.1569 21.9985 49.9511 22.1263 49.7721L23.1382 48.3551C23.2318 48.2246 23.2419 48.0496 23.1638 47.909C22.672 47.0168 22.279 46.0674 21.9944 45.0871C21.95 44.933 21.8188 44.8166 21.6614 44.7904L19.9443 44.5044C19.2526 44.3894 18.7507 43.7973 18.7507 43.0955V39.2779C18.7507 38.5768 19.2526 37.984 19.9443 37.8689L21.6607 37.5823C21.8188 37.5561 21.9493 37.4397 21.9937 37.2863C22.279 36.3053 22.672 35.3559 23.1631 34.4644C23.2405 34.3238 23.2311 34.1482 23.1376 34.0183L22.1249 32.6013C21.7179 32.0314 21.7818 31.2576 22.2763 30.7611L24.9764 28.061C25.473 27.5658 26.2467 27.5019 26.8166 27.9089L28.2336 28.9216C28.3635 29.0144 28.5384 29.0245 28.6797 28.9465C29.5712 28.4553 30.5206 28.0617 31.5016 27.7771C31.6557 27.7327 31.7721 27.6021 31.7976 27.4447L32.0843 25.7269C32.1993 25.0359 32.7914 24.5333 33.4932 24.5333H37.3109C38.012 24.5333 38.6047 25.0353 38.7198 25.7269L39.0057 27.444C39.032 27.6015 39.1484 27.7327 39.3025 27.7771C40.2828 28.0617 41.2322 28.4553 42.1243 28.9465C42.265 29.0238 42.4399 29.0137 42.5697 28.9209L43.9874 27.9083C44.5573 27.5012 45.3311 27.5651 45.8276 28.0597L48.5277 30.7598C49.0229 31.2563 49.0868 32.0301 48.6798 32.6L47.6672 34.0169C47.5743 34.1468 47.5642 34.3224 47.6423 34.463C48.1334 35.3545 48.527 36.3039 48.8117 37.2849C48.8561 37.439 48.9866 37.5554 49.144 37.581L50.8618 37.8676C51.5528 37.9826 52.0547 38.5747 52.0547 39.2765V43.0942C52.0547 43.7953 51.5528 44.388 50.8611 44.5031L49.144 44.7891C48.9866 44.8153 48.8554 44.9317 48.811 45.0858C48.5264 46.0654 48.1328 47.0148 47.6416 47.9077C47.5642 48.0483 47.5743 48.2232 47.6672 48.3537L48.6798 49.7714C48.809 49.9511 48.8924 50.1569 48.9274 50.3702Z" fill="#888888"/>
<path d="M61.2402 15.9219H9.56641V16.9311H61.2402V15.9219Z" fill="#888888"/>
<path d="M12.7953 13.7676H11.7188V14.7768H12.7953V13.7676Z" fill="#888888"/>
<path d="M14.9476 13.7676H13.8711V14.7768H14.9476V13.7676Z" fill="#888888"/>
<path d="M17.1019 13.7676H16.0254V14.7768H17.1019V13.7676Z" fill="#888888"/>
<path d="M23.5599 21.3037H13.8711V22.313H23.5599V21.3037Z" fill="#888888"/>
<path d="M21.4069 25.6104H13.8711V26.6196H21.4069V25.6104Z" fill="#888888"/>
<path d="M18.1772 29.916H13.8711V30.9253H18.1772V29.916Z" fill="#888888"/>
<path d="M28.9445 21.3037H25.7148V22.313H28.9445V21.3037Z" fill="#888888"/>
<path d="M56.933 21.3037H47.2441V22.313H56.933V21.3037Z" fill="#888888"/>
<path d="M56.9323 25.6104H49.3965V26.6196H56.9323V25.6104Z" fill="#888888"/>
<path d="M56.9312 29.916H52.625V30.9253H56.9312V29.916Z" fill="#888888"/>
<path d="M45.0909 21.3037H41.8613V22.313H45.0909V21.3037Z" fill="#888888"/>
</svg>
