<svg width="100" height="69" viewBox="0 0 100 69" fill="none" xmlns="http://www.w3.org/2000/svg">
<path opacity="0.1" fill-rule="evenodd" clip-rule="evenodd" d="M22.5468 65.0356C37.2124 72.1365 66.2204 67.5571 73.3735 52.9985C80.5266 38.4399 59.3086 21.9936 44.6429 14.8928C29.9773 7.79188 10.1626 -2.81628 3.00954 11.7423C-4.14356 26.3009 7.88113 57.9348 22.5468 65.0356Z" fill="#766DF4"/>
<g clip-path="url(#clip0_188_512)">
<path d="M93.8708 62.5382H42.1292C39.2757 62.5382 36.9551 60.2176 36.9551 57.3641V18.5579C36.9551 15.7044 39.2757 13.3838 42.1292 13.3838H68C68.3431 13.3838 68.6721 13.5201 68.9147 13.7627C69.1573 14.0052 69.2935 14.3343 69.2935 14.6773C69.2935 15.0204 69.1573 15.3494 68.9147 15.592C68.6721 15.8346 68.3431 15.9709 68 15.9709H42.1292C40.7025 15.9709 39.5422 17.1312 39.5422 18.5579V57.3641C39.5422 58.7909 40.7025 59.9512 42.1292 59.9512H93.8708C95.2975 59.9512 96.4578 58.7909 96.4578 57.3641V18.5579C96.4578 17.1312 95.2975 15.9709 93.8708 15.9709C93.5277 15.9709 93.1987 15.8346 92.9561 15.592C92.7135 15.3494 92.5772 15.0204 92.5772 14.6773C92.5772 14.3343 92.7135 14.0052 92.9561 13.7627C93.1987 13.5201 93.5277 13.3838 93.8708 13.3838C96.7243 13.3838 99.0449 15.7044 99.0449 18.5579V57.3641C99.0449 60.2176 96.7243 62.5382 93.8708 62.5382Z" fill="#B9B9B9"/>
<path d="M93.8708 57.3647H49.8905V18.5586H62.8258C63.1689 18.5586 63.4979 18.6949 63.7405 18.9375C63.9831 19.18 64.1194 19.5091 64.1194 19.8521C64.1194 20.1952 63.9831 20.5242 63.7405 20.7668C63.4979 21.0094 63.1689 21.1457 62.8258 21.1457H52.4775V54.7777H91.2837V21.1457H88.6966C88.3535 21.1457 88.0245 21.0094 87.7819 20.7668C87.5394 20.5242 87.4031 20.1952 87.4031 19.8521C87.4031 19.5091 87.5394 19.18 87.7819 18.9375C88.0245 18.6949 88.3535 18.5586 88.6966 18.5586H93.8708V57.3647ZM47.3034 54.7777H36.9551V21.1457H47.3034V54.7777ZM39.5422 52.1906H44.7163V23.7327H39.5422V52.1906Z" fill="#B9B9B9"/>
<path d="M59.5148 36.0984L62.9284 25.3659L86.2018 2.09383C88.1563 0.137996 91.5648 0.137996 93.5193 2.09383C94.4884 3.06463 95.0326 4.38027 95.0326 5.75195C95.0326 7.12364 94.4884 8.43928 93.5193 9.41008L70.2473 32.6834L59.5148 36.0984ZM65.2038 26.75L63.4963 32.1156L68.8619 30.4081L91.6903 7.58231C92.6992 6.57335 92.6992 4.93314 91.6903 3.92418C90.7123 2.94627 89.0088 2.94627 88.0308 3.92418L65.2038 26.75ZM38.249 31.4934H46.0103V34.0804H38.249V31.4934ZM38.249 41.8417H46.0103V44.4287H38.249V41.8417Z" fill="#B9B9B9"/>
<path d="M90.7733 11.6193C90.6034 11.6195 90.4352 11.5861 90.2782 11.5211C90.1213 11.456 89.9787 11.3606 89.8588 11.2403L84.3703 5.75182C84.2502 5.63172 84.1549 5.48915 84.0899 5.33223C84.0249 5.17531 83.9915 5.00713 83.9915 4.83729C83.9915 4.66744 84.0249 4.49926 84.0899 4.34235C84.1549 4.18543 84.2502 4.04285 84.3703 3.92276C84.4904 3.80266 84.633 3.70739 84.7899 3.6424C84.9468 3.5774 85.115 3.54395 85.2848 3.54395C85.4547 3.54395 85.6229 3.5774 85.7798 3.6424C85.9367 3.70739 86.0793 3.80266 86.1994 3.92276L91.6879 9.41124C91.8693 9.5919 91.993 9.82241 92.0433 10.0735C92.0935 10.3246 92.0681 10.585 91.9701 10.8216C91.8721 11.0581 91.706 11.2603 91.4929 11.4023C91.2799 11.5443 91.0294 11.6199 90.7733 11.6193ZM83.4571 18.9369C83.2872 18.937 83.1189 18.9036 82.962 18.8386C82.805 18.7736 82.6625 18.6781 82.5425 18.5579L77.0541 13.0694C76.934 12.9493 76.8387 12.8067 76.7737 12.6498C76.7087 12.4929 76.6752 12.3247 76.6752 12.1548C76.6752 11.985 76.7087 11.8168 76.7737 11.6599C76.8387 11.503 76.934 11.3604 77.0541 11.2403C77.1741 11.1202 77.3167 11.0249 77.4736 10.9599C77.6306 10.8949 77.7987 10.8615 77.9686 10.8615C78.1384 10.8615 78.3066 10.8949 78.4635 10.9599C78.6204 11.0249 78.763 11.1202 78.8831 11.2403L84.3716 16.7288C84.5531 16.9094 84.6768 17.14 84.727 17.3911C84.7773 17.6421 84.7518 17.9025 84.6538 18.1391C84.5558 18.3757 84.3898 18.5778 84.1767 18.7199C83.9636 18.8619 83.7131 18.9374 83.4571 18.9369ZM69.5541 32.8398C69.3842 32.84 69.216 32.8066 69.059 32.7416C68.9021 32.6765 68.7595 32.5811 68.6396 32.4608L63.1511 26.9723C62.9086 26.7298 62.7723 26.4008 62.7723 26.0578C62.7723 25.7148 62.9086 25.3858 63.1511 25.1433C63.3937 24.9007 63.7226 24.7644 64.0656 24.7644C64.4086 24.7644 64.7376 24.9007 64.9802 25.1433L70.4686 30.6317C70.6501 30.8124 70.7738 31.0429 70.8241 31.294C70.8743 31.5451 70.8489 31.8055 70.7509 32.0421C70.6529 32.2786 70.4868 32.4808 70.2737 32.6228C70.0607 32.7648 69.8102 32.8404 69.5541 32.8398ZM58.9445 37.9609C58.6884 37.9615 58.438 37.886 58.2249 37.7439C58.0118 37.6019 57.8458 37.3998 57.7478 37.1632C57.6498 36.9266 57.6243 36.6662 57.6745 36.4151C57.7248 36.164 57.8485 35.9335 58.03 35.7529L60.5899 33.1929C60.8324 32.9504 61.1614 32.8141 61.5044 32.8141C61.8474 32.8141 62.1764 32.9504 62.419 33.1929C62.6615 33.4355 62.7978 33.7645 62.7978 34.1075C62.7978 34.4505 62.6615 34.7795 62.419 35.022L59.859 37.5819C59.7391 37.7022 59.5965 37.7976 59.4396 37.8627C59.2826 37.9277 59.1144 37.9611 58.9445 37.9609Z" fill="#B9B9B9"/>
</g>
<defs>
<clipPath id="clip0_188_512">
<rect width="62.0898" height="62.0898" fill="white" transform="translate(36.9551 0.449219)"/>
</clipPath>
</defs>
</svg>
