<svg width="43" height="53" viewBox="0 0 43 53" fill="none" xmlns="http://www.w3.org/2000/svg">
<path d="M21.5948 39.0556C18.0192 39.0556 15.0938 36.1301 15.0938 32.5545V28.4913C15.0938 28.0038 15.4188 27.6787 15.9064 27.6787C16.394 27.6787 16.719 28.0038 16.719 28.4913V32.5545C16.719 35.3174 18.8319 37.4303 21.5948 37.4303C24.3577 37.4303 26.4706 35.3174 26.4706 32.5545V28.4913C26.4706 28.0038 26.7956 27.6787 27.2832 27.6787C27.7708 27.6787 28.0959 28.0038 28.0959 28.4913V32.5545C28.0959 36.1301 25.1704 39.0556 21.5948 39.0556Z" fill="#4A4B65"/>
<path d="M21.5942 30.9294C15.2557 30.9294 10.2174 25.8911 10.2174 19.5525V15.4894C10.2174 15.0018 10.5425 14.6768 11.03 14.6768C11.5176 14.6768 11.8427 15.0018 11.8427 15.4894V19.5525C11.8427 24.9159 16.2309 29.3041 21.5942 29.3041C26.9576 29.3041 31.3458 24.9159 31.3458 19.5525V15.4894C31.3458 15.0018 31.6709 14.6768 32.1584 14.6768C32.646 14.6768 32.9711 15.0018 32.9711 15.4894V19.5525C32.9711 25.8911 27.9328 30.9294 21.5942 30.9294ZM41.91 52.0578H1.27845C0.790873 52.0578 0.46582 51.7327 0.46582 51.2452V44.094C0.46582 40.1934 2.90372 36.7803 6.64182 35.6426L15.7433 32.5546H16.3934C16.5559 32.7172 16.7185 32.8797 16.7185 33.2048C17.0435 35.6426 19.1563 37.2679 21.5942 37.2679C24.0321 37.2679 25.9824 35.4801 26.47 33.2048C26.47 33.0422 26.6326 32.7172 26.7951 32.5546C26.9576 32.3921 27.2827 32.3921 27.4452 32.5546L36.5467 35.6426C40.2848 36.7803 42.7227 40.1934 42.7227 44.094V51.2452C42.7227 51.7327 42.3976 52.0578 41.91 52.0578ZM2.09108 50.4325H41.0974V44.094C41.0974 41.006 39.1471 38.0805 36.0591 37.1054L27.7702 34.3424C26.9576 37.1054 24.5197 38.8932 21.5942 38.8932C18.6688 38.8932 16.2309 36.9429 15.4182 34.3424L7.1294 37.1054C4.0414 38.0805 2.09108 41.006 2.09108 44.094V50.4325Z" fill="#4A4B65"/>
<path d="M41.91 52.0569H32.1584C31.6709 52.0569 31.3458 51.7319 31.3458 51.2443V49.619C31.3458 44.2556 35.409 39.7049 40.6098 39.2173C40.9349 39.2173 41.2599 39.3799 41.4224 39.5424C42.2351 41.0051 42.7227 42.4679 42.7227 44.0931V51.2443C42.7227 51.7319 42.3976 52.0569 41.91 52.0569ZM32.9711 50.4316H41.0974V44.0931C41.0974 42.9554 40.7723 41.8177 40.2848 40.8426C36.0591 41.6552 32.9711 45.2308 32.9711 49.619V50.4316ZM11.03 52.0569H1.27845C0.790873 52.0569 0.46582 51.7319 0.46582 51.2443V44.0931C0.46582 42.4679 0.953399 40.8426 1.76603 39.5424C1.92856 39.2173 2.25361 39.0548 2.57866 39.0548C7.94203 39.7049 11.8427 44.2556 11.8427 49.4565V51.0817C11.8427 51.7319 11.5176 52.0569 11.03 52.0569ZM2.09108 50.4316H10.2174V49.619C10.2174 45.2308 7.1294 41.6552 2.90371 40.8426C2.41614 41.8177 2.09108 42.9554 2.09108 44.0931V50.4316ZM32.1584 16.3011H31.3458C30.0456 16.3011 28.9079 15.1634 28.9079 13.8632V10.6127C28.9079 10.1251 28.5829 9.80007 28.0953 9.80007H15.0932C14.6056 9.80007 14.2806 10.1251 14.2806 10.6127V13.8632C14.2806 15.1634 13.1429 16.3011 11.8427 16.3011H11.03C10.5425 16.3011 10.2174 15.9761 10.2174 15.4885C10.2174 15.0009 10.5425 14.6759 11.03 14.6759H11.8427C12.3302 14.6759 12.6553 14.3508 12.6553 13.8632V10.6127C12.6553 9.31249 13.793 8.1748 15.0932 8.1748H28.0953C29.3955 8.1748 30.5332 9.31249 30.5332 10.6127V13.8632C30.5332 14.3508 30.8582 14.6759 31.3458 14.6759H32.1584C32.646 14.6759 32.9711 15.0009 32.9711 15.4885C32.9711 15.9761 32.646 16.3011 32.1584 16.3011Z" fill="#4A4B65"/>
<path d="M32.159 16.3015H31.9965C31.5089 16.1389 31.3464 15.8139 31.3464 15.3263L32.8091 8.66272C33.1342 7.03746 32.8091 5.24967 31.6714 3.94946C30.6963 2.48672 29.071 1.67409 27.2832 1.67409H19.1569C17.8567 1.67409 16.719 2.81178 16.719 4.11199C16.719 4.59956 16.394 4.92462 15.9064 4.92462C15.4188 4.92462 15.0938 4.59956 15.0938 4.11199C15.0938 1.83662 16.8815 0.0488281 19.1569 0.0488281H27.2832C29.5586 0.0488281 31.6714 1.02399 32.9716 2.81178C34.2719 4.59956 34.922 6.87493 34.4344 8.98777L32.9716 15.6514C32.8091 15.9764 32.4841 16.3015 32.159 16.3015Z" fill="#4A4B65"/>
<path d="M11.8426 16.3022H11.03C10.7049 16.3022 10.3799 15.9771 10.2173 15.6521L8.42956 8.82596C7.94198 7.03817 8.42956 5.41291 9.40472 3.95017C10.3799 2.48744 12.3302 1.6748 13.9555 1.6748H14.2805C15.5807 1.6748 16.7184 2.81249 16.7184 4.1127C16.7184 4.60028 16.3933 4.92533 15.9058 4.92533C15.4182 4.92533 15.0931 4.60028 15.0931 4.1127C15.0931 3.62512 14.7681 3.30007 14.2805 3.30007H13.9555C12.6552 3.30007 11.5176 3.95017 10.7049 4.92533C9.8923 5.90049 9.72977 7.2007 10.0548 8.33838L11.6801 14.6769H11.8426C12.3302 14.6769 12.6552 15.002 12.6552 15.4895C12.6552 15.9771 12.3302 16.3022 11.8426 16.3022ZM35.4089 21.178H32.1584C31.6708 21.178 31.3458 20.8529 31.3458 20.3653V15.4895C31.3458 15.002 31.6708 14.6769 32.1584 14.6769H33.7837C35.0839 14.6769 36.2216 15.8146 36.2216 17.1148V20.3653C36.2216 20.8529 35.8965 21.178 35.4089 21.178ZM32.971 19.5527H34.5963V17.1148C34.5963 16.6272 34.2712 16.3022 33.7837 16.3022H32.971V19.5527Z" fill="#4A4B65"/>
<path d="M30.5331 26.0536H25.6573C25.1697 26.0536 24.8447 25.7285 24.8447 25.241C24.8447 24.7534 25.1697 24.4283 25.6573 24.4283H30.5331C32.8085 24.4283 34.5963 22.6405 34.5963 20.3652V17.1147C34.5963 16.6271 34.9213 16.302 35.4089 16.302C35.8965 16.302 36.2215 16.6271 36.2215 17.1147V20.3652C36.2215 23.4532 33.6211 26.0536 30.5331 26.0536ZM11.03 21.1778H9.40469C8.10448 21.1778 6.9668 20.0401 6.9668 18.7399V17.1147C6.9668 15.8144 8.10448 14.6768 9.40469 14.6768H11.03C11.5175 14.6768 11.8426 15.0018 11.8426 15.4894V20.3652C11.8426 20.8528 11.5175 21.1778 11.03 21.1778ZM9.40469 16.302C8.91711 16.302 8.59206 16.6271 8.59206 17.1147V18.7399C8.59206 19.2275 8.91711 19.5525 9.40469 19.5525H10.2173V16.302H9.40469Z" fill="#4A4B65"/>
</svg>
