<svg width="64" height="63" viewBox="0 0 64 63" fill="none" xmlns="http://www.w3.org/2000/svg">
<path opacity="0.2" d="M26.0155 38.7433C26.0973 38.6382 26.1561 38.517 26.188 38.3877C26.22 38.2584 26.2245 38.1238 26.2011 37.9926C26.0269 36.9783 26.357 35.9296 27.0756 35.2466C27.3192 35.0102 27.6044 34.821 27.9168 34.6884C27.4364 34.4871 26.907 34.4327 26.3956 34.5321C25.8842 34.6314 25.4138 34.88 25.0436 35.2466C24.3261 35.9411 23.9949 36.9657 24.1691 37.9926C24.1917 38.1238 24.1869 38.2582 24.155 38.3874C24.123 38.5166 24.0646 38.6378 23.9834 38.7433C23.8207 38.9519 23.5858 39.0665 23.3336 39.0665H25.3645C25.4905 39.0659 25.6146 39.0365 25.7275 38.9804C25.8403 38.9244 25.9388 38.8433 26.0155 38.7433ZM18.857 57.4613V41.3014C18.8638 40.0751 19.8311 39.0734 21.0414 39.0665H18.6415C17.4301 39.0734 16.4639 40.0751 16.457 41.3014V57.4613C16.4525 58.6899 17.4312 59.6905 18.6415 59.6962H21.0414C19.83 59.6893 18.8638 58.6876 18.857 57.4613ZM42.8172 59.5552L42.8665 53.5887C42.8663 53.4368 42.8311 53.2871 42.7635 53.1511C42.6959 53.0151 42.5978 52.8966 42.4768 52.8047C42.3506 52.708 42.2057 52.6383 42.0513 52.6001C41.8969 52.5618 41.7363 52.5558 41.5794 52.5824C41.3686 52.6168 41.1554 52.634 40.9399 52.6317C39.5818 52.6237 38.3452 51.9028 37.7458 50.7693C37.1463 49.6358 37.2873 48.2857 38.1102 47.2817C38.9331 46.2777 40.2958 45.7918 41.631 46.0256C41.788 46.0546 41.9492 46.0508 42.1046 46.0145C42.26 45.9783 42.4063 45.9102 42.5341 45.8147C42.7863 45.6233 42.9353 45.3368 42.9353 45.0354L42.9846 39.0757L40.376 39.0665L40.3268 45.0331C40.3245 45.1851 40.2872 45.3346 40.2176 45.4698C40.148 45.605 40.0481 45.7223 39.9256 45.8124C39.7978 45.9079 39.6515 45.976 39.4961 46.0123C39.3407 46.0485 39.1794 46.0523 39.0225 46.0233C37.693 45.7987 36.3406 46.2869 35.5246 47.2897C34.7086 48.2926 34.5688 49.6335 35.1613 50.7624C35.7538 51.8913 36.9802 52.6133 38.3326 52.6305C38.5469 52.6328 38.7612 52.6156 38.9721 52.5813C39.293 52.5274 39.6208 52.6088 39.8695 52.8036C40.1182 52.9984 40.2591 53.285 40.2591 53.5875L40.2099 59.5541L59.7313 59.6962C59.824 59.6955 59.9166 59.6898 60.0086 59.679L42.8172 59.5644V59.5552ZM42.7794 16.1446C41.6104 16.1538 40.6626 17.1452 40.6568 18.3703L40.6408 20.6969C40.6408 20.7084 40.6396 20.7164 40.6385 20.7267C40.6383 20.7397 40.6376 20.7527 40.6362 20.7657L40.6316 20.8001L40.6259 20.8379L40.6179 20.8723L40.6087 20.9089L40.5858 20.9777C40.5823 20.9892 40.5766 20.9983 40.572 21.0086L40.5571 21.0407L40.5399 21.0705L40.5216 21.1015L40.5021 21.129L40.4815 21.1588L40.4609 21.1817L40.4379 21.2092L40.415 21.2321L40.3875 21.2585L40.3646 21.2768L40.3348 21.2997L40.3096 21.3158L40.2775 21.3364L40.25 21.3513L40.2156 21.3674L40.1858 21.3788L40.1514 21.3903L40.0826 21.4086L40.046 21.4144L40.0139 21.4189L39.9749 21.4212C39.9653 21.4214 39.9557 21.4222 39.9463 21.4235L39.1302 21.4327C37.3653 21.4464 35.9407 22.9455 35.9384 24.7942C35.9361 26.6428 37.3572 28.1454 39.1222 28.1637L39.8935 28.1752C39.905 28.1752 39.9165 28.1763 39.9279 28.1775H39.9623C39.9738 28.1786 39.9852 28.182 39.999 28.1832L40.0334 28.1889L40.0677 28.2004L40.0987 28.2096L40.1331 28.2233L40.1629 28.2348L40.1973 28.252L40.2248 28.2669L40.2557 28.2875L40.2821 28.3047L40.3107 28.3276L40.3336 28.3471L40.36 28.3723L40.3829 28.3952L40.4058 28.4216L40.4288 28.4468L40.4677 28.5041L40.4849 28.5339L40.5021 28.5648L40.5159 28.5958L40.5308 28.6302L40.5422 28.6611L40.5537 28.6978L40.5617 28.7299L40.5709 28.7677L40.5755 28.8021L40.5812 28.8422L40.5846 28.9133L40.5331 36.7755H42.8631L42.9146 28.9133L42.9112 28.8422L42.9055 28.8021L42.9009 28.7677L42.8917 28.7299L42.8837 28.6978L42.8722 28.6611L42.8608 28.6302L42.8459 28.5958L42.8321 28.5648L42.8172 28.5224L42.8 28.4926L42.7599 28.4353C42.753 28.4262 42.745 28.4181 42.737 28.4101L42.7141 28.3838V28.3608L42.6877 28.3356L42.6648 28.3161L42.6361 28.2932L42.6098 28.276L42.5788 28.2554L42.5513 28.2405L42.5169 28.2233L42.4871 28.2118L42.4528 28.1981L42.4218 28.1889L42.3874 28.1775L42.3531 28.1717L42.3164 28.166L42.2476 28.1614L41.4763 28.15C39.7113 28.1328 38.2901 26.6279 38.2924 24.7804C38.2947 22.9329 39.7193 21.4338 41.4843 21.4189L42.3003 21.4098C42.3118 21.4098 42.3198 21.4086 42.329 21.4075L42.368 21.4052L42.4 21.4006L42.4367 21.3949C42.4482 21.3926 42.4596 21.3891 42.4711 21.3857L42.5055 21.3765L42.5399 21.3651C42.5513 21.3616 42.5605 21.357 42.5697 21.3536L42.604 21.3376L42.6316 21.3227L42.6636 21.302L42.6889 21.286L42.7187 21.2631L42.7416 21.2447L42.7691 21.2184L42.792 21.1955L42.8149 21.1679L42.8356 21.145L42.8562 21.1152L42.8757 21.0877L42.894 21.0568L42.9112 21.027L42.9261 20.9949L42.9399 20.9639C42.9442 20.9527 42.948 20.9412 42.9513 20.9296L42.9628 20.8952L42.9719 20.8585L42.98 20.8241L42.9857 20.7863L42.9903 20.7519L42.9926 20.7129C42.9926 20.7015 42.9937 20.6935 42.9949 20.6831L43.0109 18.3566C43.0166 17.1303 43.9622 16.1389 45.1335 16.1309H42.8035L42.7794 16.1446Z" fill="#B9B9B9"/>
<path d="M59.738 14.9992H43.1196C42.1006 15.0058 41.1251 15.4137 40.4048 16.1345C39.6844 16.8553 39.277 17.831 39.271 18.8501L39.2596 20.5302L39.1255 20.5314C36.3542 20.5474 34.117 22.8029 34.1125 25.5799C34.1079 28.3569 36.3428 30.6181 39.114 30.6399H39.1874L39.1369 38.1148H32.65C32.6798 37.6999 32.6615 37.2827 32.5904 36.8724C32.2122 34.6375 30.3899 32.9344 28.1436 32.7086C26.7373 32.5642 25.3357 33.0295 24.2927 33.9877C23.7713 34.4637 23.3549 35.0433 23.0701 35.6894C22.7854 36.3355 22.6385 37.0339 22.6389 37.74L22.6527 38.1148H19.2419C17.1101 38.1228 15.391 39.8591 15.3933 41.9943V58.9634C15.3899 61.0985 17.1124 62.8337 19.2419 62.8429H39.145L59.6119 63.0033C60.1117 63.0044 60.6068 62.9069 61.0689 62.7166C61.5311 62.5262 61.9512 62.2467 62.3052 61.8939C62.6697 61.5355 62.9593 61.1083 63.1574 60.6372C63.3556 60.166 63.4582 59.6602 63.4594 59.149L63.5889 39.725V18.889C63.5923 16.7538 61.8697 15.0175 59.7403 15.0095L59.738 14.9992ZM35.6287 25.5891C35.6242 23.6499 37.1874 22.0729 39.122 22.066L40.016 22.0568C40.0275 22.0568 40.0366 22.0557 40.0481 22.0545L40.0905 22.0522L40.1249 22.0465L40.165 22.0396L40.2017 22.0305L40.275 22.0075L40.3094 21.9961L40.3461 21.9789L40.3759 21.964L40.4102 21.9434L40.4378 21.9262L40.4721 21.9032L40.4974 21.8838L40.5271 21.8563L40.5501 21.8333L40.5764 21.8047L40.5993 21.7795L40.6223 21.7485L40.6429 21.7199L40.6624 21.6878L40.6807 21.6568L40.6968 21.6225L40.7117 21.5881C40.7163 21.5766 40.7208 21.5652 40.7231 21.5537C40.7254 21.5422 40.7312 21.5308 40.7346 21.5193L40.7461 21.4815L40.7541 21.4471L40.761 21.4081L40.7667 21.3715L40.769 21.3313C40.769 21.3199 40.7713 21.3107 40.7713 21.3004L40.7885 18.8661C40.7906 18.2506 41.0353 17.6607 41.4696 17.2245C41.9039 16.7883 42.4926 16.5409 43.1082 16.5361H59.7265C60.3452 16.5409 60.9368 16.7908 61.3716 17.231C61.8064 17.6712 62.049 18.2657 62.0462 18.8844V38.1847H56.5748C56.2584 38.1847 55.9593 38.3245 55.7576 38.5675C55.5559 38.8104 55.4665 39.1405 55.5249 39.4568C55.7542 40.6579 55.3301 41.8866 54.4281 42.7094C54.0701 43.038 53.6465 43.287 53.1852 43.4399C52.7239 43.5928 52.2354 43.6462 51.752 43.5965C50.1899 43.4384 48.9257 42.2533 48.6644 40.7015C48.5938 40.2894 48.5957 39.8682 48.6701 39.4568C48.6987 39.3012 48.693 39.1412 48.6534 38.988C48.6138 38.8348 48.5413 38.6921 48.4409 38.5698C48.3417 38.4495 48.2173 38.3525 48.0765 38.2856C47.9357 38.2187 47.7819 38.1834 47.6261 38.1824L40.6418 38.1251L40.6945 29.8193L40.6887 29.7781L40.6842 29.7437C40.6819 29.7299 40.6773 29.7173 40.675 29.7036L40.667 29.6692L40.6555 29.6314L40.6441 29.597L40.628 29.5626L40.6131 29.5305L40.5936 29.4961L40.5753 29.4652L40.5317 29.4056L40.5088 29.3792L40.4836 29.3506L40.4584 29.3276L40.4297 29.3013L40.4034 29.2807L40.3713 29.2577L40.3426 29.2405L40.3082 29.2176C40.2968 29.2107 40.2876 29.2062 40.2773 29.2027L40.2429 29.1855L40.2108 29.1741L40.173 29.1603L40.1386 29.1511L40.1008 29.1397L40.0641 29.134L40.0252 29.1271L39.9873 29.1248L39.9507 29.1225L39.1071 29.111C38.1784 29.105 37.29 28.7308 36.6368 28.0705C35.9836 27.4102 35.619 26.5178 35.623 25.5891H35.6287ZM16.921 58.9679V42.0103C16.9186 41.3918 17.1613 40.7975 17.5961 40.3576C18.0309 39.9177 18.6222 39.668 19.2407 39.6631H23.1627C23.479 39.6631 23.7781 39.5233 23.9798 39.2803C24.0807 39.1577 24.1537 39.0148 24.1941 38.8612C24.2345 38.7077 24.2411 38.5473 24.2136 38.391C23.9844 37.1899 24.4085 35.9612 25.3104 35.1383C25.6685 34.8098 26.0921 34.5608 26.5534 34.4079C27.0147 34.255 27.5032 34.2016 27.9866 34.2513C29.5487 34.4094 30.8128 35.5945 31.0742 37.1463C31.1449 37.5575 31.1433 37.978 31.0696 38.3887C31.0411 38.5452 31.0473 38.706 31.0877 38.8599C31.1281 39.0137 31.2017 39.1568 31.3034 39.2792C31.4034 39.3997 31.5289 39.4967 31.6707 39.5633C31.8125 39.6299 31.9673 39.6643 32.124 39.6643H39.1152L39.0693 45.4486C36.3473 45.2263 33.9497 47.2296 33.6792 49.9528C33.6059 50.6573 33.6801 51.3694 33.8972 52.0436C34.1142 52.7179 34.4694 53.3395 34.9399 53.869C35.4042 54.3888 35.9717 54.806 36.6064 55.094C37.2411 55.3819 37.9289 55.5342 38.6258 55.5411L38.9925 55.5297L38.9467 61.3174H19.2419C18.6232 61.3129 18.0315 61.0633 17.5965 60.6233C17.1615 60.1834 16.9186 59.5889 16.921 58.9702V58.9679ZM61.9282 59.1433C61.9265 59.7668 61.6795 60.3646 61.2405 60.8074C60.8102 61.2361 60.2273 61.4764 59.6199 61.4756H59.6016L40.4847 61.3266L40.5249 55.0208C40.5257 54.8632 40.492 54.7073 40.4261 54.5641C40.3601 54.4209 40.2636 54.294 40.1432 54.1922C40.023 54.0904 39.8817 54.0165 39.7295 53.9759C39.5773 53.9353 39.418 53.9289 39.263 53.9572C39.0565 53.9944 38.847 54.012 38.6372 54.0099C37.9841 54.0057 37.3451 53.8191 36.7923 53.4712C36.2395 53.1233 35.7948 52.628 35.5084 52.041C35.2206 51.4536 35.1016 50.7978 35.1647 50.1468C35.2278 49.4958 35.4706 48.8751 35.866 48.354C36.6717 47.2915 38.0092 46.7781 39.3043 47.0268C39.6183 47.0875 39.9426 47.0062 40.189 46.8033C40.3113 46.7031 40.41 46.5772 40.4781 46.4346C40.5462 46.292 40.5821 46.1362 40.5833 45.9781L40.6314 39.6712L47.1011 39.7239C47.0701 40.1415 47.0901 40.5614 47.1607 40.9743C47.539 43.2091 49.3612 44.9122 51.6076 45.138L52.1073 45.1609C53.3474 45.1644 54.5439 44.6991 55.4585 43.859C55.9799 43.3829 56.3963 42.8033 56.681 42.1572C56.9658 41.5111 57.1127 40.8127 57.1123 40.1067L57.0985 39.7319H62.0439L61.9201 59.1467L61.9282 59.1433ZM58.224 34.8805C58.4267 34.8796 58.6207 34.7986 58.7639 34.6552C58.9071 34.5118 58.9878 34.3176 58.9884 34.1149V32.5241C58.9878 32.3214 58.9071 32.1272 58.7639 31.9838C58.6207 31.8404 58.4267 31.7594 58.224 31.7585C58.0213 31.7594 57.8272 31.8404 57.684 31.9838C57.5408 32.1272 57.4602 32.3214 57.4595 32.5241V34.1149C57.4602 34.3176 57.5408 34.5118 57.684 34.6552C57.8272 34.7986 58.0213 34.8796 58.224 34.8805ZM58.224 29.4503C58.4267 29.4494 58.6207 29.3684 58.7639 29.225C58.9071 29.0816 58.9878 28.8874 58.9884 28.6847V20.356C58.9878 20.1534 58.9071 19.9591 58.7639 19.8157C58.6207 19.6723 58.4267 19.5913 58.224 19.5904C58.0213 19.5913 57.8272 19.6723 57.684 19.8157C57.5408 19.9591 57.4602 20.1534 57.4595 20.356V28.6847C57.4602 28.8874 57.5408 29.0816 57.684 29.225C57.8272 29.3684 58.0213 29.4494 58.224 29.4503ZM58.5163 59.047C58.7189 59.0461 58.913 58.9651 59.0562 58.8217C59.1994 58.6783 59.2801 58.4841 59.2807 58.2814V56.6907C59.2801 56.488 59.1994 56.2938 59.0562 56.1504C58.913 56.007 58.7189 55.926 58.5163 55.9251C58.3136 55.926 58.1195 56.007 57.9763 56.1504C57.8331 56.2938 57.7524 56.488 57.7518 56.6907V58.2814C57.7524 58.4841 57.8331 58.6783 57.9763 58.8217C58.1195 58.9651 58.3136 59.0461 58.5163 59.047ZM58.5163 53.6168C58.7189 53.6159 58.913 53.5349 59.0562 53.3915C59.1994 53.2481 59.2801 53.0539 59.2807 52.8512V44.5226C59.2801 44.3199 59.1994 44.1257 59.0562 43.9823C58.913 43.8389 58.7189 43.7579 58.5163 43.757C58.3136 43.7579 58.1195 43.8389 57.9763 43.9823C57.8331 44.1257 57.7524 44.3199 57.7518 44.5226V52.8512C57.7524 53.0539 57.8331 53.2481 57.9763 53.3915C58.1195 53.5349 58.3136 53.6159 58.5163 53.6168ZM30.618 10.3747L27.0055 8.17762C28.6261 5.92554 28.1493 2.80587 25.9282 1.12914C25.3578 0.696793 24.7027 0.38962 24.0056 0.22768C23.3085 0.0657405 22.585 0.0526742 21.8825 0.189338C20.459 0.464401 19.219 1.31939 18.4671 2.55029L18.2837 2.87579L15.3108 1.07642C14.4177 0.534491 13.3464 0.36803 12.3309 0.613394C11.3143 0.858658 10.4399 1.49589 9.90121 2.38296L0.984591 17.0071C-0.140873 18.8409 0.443635 21.2534 2.29458 22.388L4.85495 23.9467C5.10709 24.0992 5.40966 24.1393 5.6916 24.0568C5.83064 24.0162 5.95971 23.9472 6.07061 23.8541C6.1815 23.761 6.27179 23.6457 6.33571 23.5158C6.59572 22.9858 6.99838 22.5387 7.49845 22.2249C7.99852 21.9111 8.57619 21.743 9.16656 21.7394C10.3745 21.7302 11.4817 22.4041 12.0226 23.4745C12.2873 23.9989 12.3985 24.5874 12.3434 25.1722C12.2882 25.757 12.069 26.3143 11.7109 26.7799C11.6223 26.8938 11.559 27.0253 11.525 27.1656C11.491 27.3059 11.4872 27.4517 11.5138 27.5936C11.5406 27.736 11.5971 27.8711 11.6797 27.9902C11.7622 28.1093 11.8689 28.2096 11.9928 28.2847L17.4769 31.6084C18.0901 31.982 18.7949 32.1791 19.5169 32.1791C20.187 32.1809 20.8464 32.0119 21.4329 31.688C22.0195 31.3641 22.5138 30.8961 22.8693 30.3282L24.742 27.314C24.8231 27.1843 24.8757 27.0388 24.8963 26.8873C24.9168 26.7357 24.9049 26.5815 24.8612 26.4349C24.8171 26.2879 24.7425 26.1518 24.6421 26.0357C24.5418 25.9196 24.418 25.8259 24.279 25.761C22.4842 24.9244 21.7083 22.811 22.5415 21.0276C23.3747 19.2443 25.5053 18.4638 27.3092 19.281C27.5612 19.3991 27.7988 19.5456 28.0175 19.7176C28.1389 19.8139 28.2792 19.8835 28.4293 19.9218C28.5794 19.9601 28.7359 19.9663 28.8886 19.94C29.0411 19.9144 29.1864 19.8566 29.3149 19.7704C29.4433 19.6843 29.552 19.5717 29.6335 19.4403L31.912 15.7728C33.0603 13.9253 32.4804 11.5059 30.6169 10.3667L30.618 10.3747ZM30.5836 14.9591L28.5665 18.2025C28.3769 18.0819 28.1797 17.9736 27.9763 17.8782C25.7964 16.865 23.197 17.4885 21.73 19.3681C21.2879 19.937 20.9709 20.593 20.8001 21.293C20.6292 21.993 20.6083 22.7212 20.7387 23.4298C21.0023 24.8625 21.8676 26.1151 23.118 26.8681L23.1523 26.8911L21.5478 29.4904C20.8659 30.5906 19.4161 30.9345 18.3044 30.264L13.2822 27.2097C13.9059 26.1511 14.0868 24.8891 13.7855 23.6979C13.4843 22.5067 12.7251 21.4824 11.6731 20.8477C9.47944 19.5136 6.61306 20.1623 5.22056 22.3067L3.1232 21.0299C2.85718 20.8678 2.6257 20.6548 2.44198 20.4031C2.25827 20.1515 2.12592 19.8662 2.05248 19.5634C1.97905 19.2606 1.96597 18.9463 2.014 18.6385C2.06203 18.3307 2.17022 18.0353 2.3324 17.7693L11.2536 3.17148C11.5768 2.6374 12.1017 2.25231 12.7149 2.10561C13.3259 1.95794 13.9706 2.05763 14.5085 2.38296L17.9307 4.46312C18.2058 4.6316 18.5439 4.66942 18.8511 4.57773C19.1582 4.48605 19.4081 4.2362 19.5238 3.93248C19.7416 3.36705 20.0999 2.86647 20.565 2.47803C21.03 2.08959 21.5864 1.82612 22.1816 1.7125C23.1695 1.5211 24.1942 1.75834 24.9918 2.36577C25.3854 2.66273 25.713 3.0381 25.9541 3.46815C26.1952 3.8982 26.3444 4.37359 26.3924 4.86426C26.4395 5.35432 26.3843 5.84883 26.2302 6.31642C26.0761 6.78401 25.8265 7.21447 25.4973 7.5805C25.3918 7.69819 25.3135 7.83763 25.268 7.98896C25.2224 8.14028 25.2107 8.29977 25.2337 8.45612C25.2574 8.61433 25.3157 8.76537 25.4045 8.89849C25.4932 9.0316 25.6102 9.14353 25.7471 9.22629L29.8043 11.6938C30.0717 11.8568 30.3043 12.071 30.4885 12.3243C30.6727 12.5775 30.8049 12.8648 30.8776 13.1694C30.9503 13.474 30.9619 13.79 30.9118 14.0991C30.8618 14.4082 30.751 14.7044 30.5859 14.9705L30.5836 14.9591Z" fill="#B9B9B9"/>
</svg>
