<?xml version="1.0" encoding="UTF-8"?> <svg xmlns="http://www.w3.org/2000/svg" xmlns:xlink="http://www.w3.org/1999/xlink" width="60" height="60" viewBox="0 0 60 60"><defs><clipPath id="clip-path"><rect id="Rectangle_805" data-name="Rectangle 805" width="60" height="60" transform="translate(860 431)" fill="#fff" stroke="#707070" stroke-width="1"></rect></clipPath></defs><g id="Mask_Group_45" data-name="Mask Group 45" transform="translate(-860 -431)" clip-path="url(#clip-path)"><g id="Group_21" data-name="Group 21" transform="translate(-264.272 -49.608)"><path id="Path_25" data-name="Path 25" d="M76.621,42.563V36.977h1.357v4.41H80.14v1.176H76.621Zm7.991-1.917V40.8s0,.1-.008.15H81.756a.685.685,0,0,0,.1.3.859.859,0,0,0,.213.233,1.048,1.048,0,0,0,.627.209,1.088,1.088,0,0,0,.521-.114,1.029,1.029,0,0,0,.347-.3l.9.568a1.819,1.819,0,0,1-.73.619,2.42,2.42,0,0,1-1.053.217,2.519,2.519,0,0,1-.836-.138,2.03,2.03,0,0,1-.69-.4,1.864,1.864,0,0,1-.465-.651,2.179,2.179,0,0,1-.17-.884,2.211,2.211,0,0,1,.166-.872,1.971,1.971,0,0,1,.45-.663,2,2,0,0,1,.671-.422,2.3,2.3,0,0,1,.836-.15,2.117,2.117,0,0,1,.8.146,1.737,1.737,0,0,1,.623.422,1.952,1.952,0,0,1,.406.671A2.585,2.585,0,0,1,84.612,40.646Zm-1.191-.5a.775.775,0,0,0-.193-.529.73.73,0,0,0-.58-.221.981.981,0,0,0-.347.059.9.9,0,0,0-.276.162.8.8,0,0,0-.189.241.7.7,0,0,0-.079.288Zm3.258-.552v1.5a.676.676,0,0,0,.107.416.455.455,0,0,0,.383.138,1.335,1.335,0,0,0,.2-.016.686.686,0,0,0,.178-.047l.016.947a2.167,2.167,0,0,1-.339.083,2.4,2.4,0,0,1-.41.035,1.933,1.933,0,0,1-.663-.1,1.022,1.022,0,0,1-.43-.285,1.113,1.113,0,0,1-.233-.443,2.146,2.146,0,0,1-.071-.573V39.6h-.631v-.963h.623V37.6h1.27v1.034H87.6V39.6Zm5.113.2a1.448,1.448,0,0,0-.371-.252,1.025,1.025,0,0,0-.45-.1.792.792,0,0,0-.335.071.249.249,0,0,0-.154.245.244.244,0,0,0,.169.237,3.679,3.679,0,0,0,.548.158,2.982,2.982,0,0,1,.446.134,1.573,1.573,0,0,1,.406.229,1.1,1.1,0,0,1,.292.347,1.02,1.02,0,0,1,.11.489,1.178,1.178,0,0,1-.541,1.041,1.682,1.682,0,0,1-.54.229,2.586,2.586,0,0,1-.6.071,2.962,2.962,0,0,1-.943-.154,1.978,1.978,0,0,1-.769-.454l.726-.765a1.44,1.44,0,0,0,.426.316,1.182,1.182,0,0,0,.537.126.7.7,0,0,0,.312-.075.269.269,0,0,0,.154-.264.283.283,0,0,0-.189-.268,3.417,3.417,0,0,0-.592-.182,3.039,3.039,0,0,1-.41-.126,1.292,1.292,0,0,1-.367-.213,1.056,1.056,0,0,1-.264-.331,1.014,1.014,0,0,1-.1-.473,1.147,1.147,0,0,1,.15-.6,1.269,1.269,0,0,1,.387-.406,1.72,1.72,0,0,1,.525-.233,2.255,2.255,0,0,1,.572-.075,2.769,2.769,0,0,1,.864.138,1.868,1.868,0,0,1,.714.414Zm3.14,2.77V36.977h3.755v1.136H96.233v1.057h2.32v1.081h-2.32v1.16h2.6v1.152Zm7.311,0V40.417a1.763,1.763,0,0,0-.028-.316.87.87,0,0,0-.091-.264.473.473,0,0,0-.178-.182.565.565,0,0,0-.288-.067.658.658,0,0,0-.3.067.618.618,0,0,0-.217.186.84.84,0,0,0-.13.272,1.17,1.17,0,0,0-.043.32v2.13h-1.3V38.634h1.254v.544h.016a1.293,1.293,0,0,1,.186-.248,1.109,1.109,0,0,1,.268-.209,1.671,1.671,0,0,1,.335-.142,1.326,1.326,0,0,1,.386-.055,1.454,1.454,0,0,1,.671.142,1.283,1.283,0,0,1,.446.367,1.445,1.445,0,0,1,.245.517,2.348,2.348,0,0,1,.075.584v2.43h-1.3Zm4.631-2.659a.79.79,0,0,0-.3-.229.921.921,0,0,0-.387-.087.816.816,0,0,0-.371.083.906.906,0,0,0-.284.221,1.042,1.042,0,0,0-.186.32,1.108,1.108,0,0,0-.067.387,1.165,1.165,0,0,0,.063.386.938.938,0,0,0,.185.32.878.878,0,0,0,.292.217.9.9,0,0,0,.383.079,1.072,1.072,0,0,0,.39-.075.749.749,0,0,0,.312-.217l.718.876a1.69,1.69,0,0,1-.631.371,2.489,2.489,0,0,1-.82.134,2.6,2.6,0,0,1-.869-.142,2.017,2.017,0,0,1-.7-.414,1.944,1.944,0,0,1-.468-.659,2.313,2.313,0,0,1,0-1.744,1.946,1.946,0,0,1,.468-.659,2.067,2.067,0,0,1,.7-.418,2.514,2.514,0,0,1,.861-.146,2.255,2.255,0,0,1,.422.04,2.817,2.817,0,0,1,.4.107,1.823,1.823,0,0,1,.355.166,1.49,1.49,0,0,1,.28.217Zm3.792-.205a1.016,1.016,0,0,0-.17-.031c-.055-.005-.109-.008-.162-.008a.925.925,0,0,0-.438.094.892.892,0,0,0-.284.228.863.863,0,0,0-.154.291.976.976,0,0,0-.047.275v2.014h-1.294V38.639h1.247v.568h.016a1.28,1.28,0,0,1,.426-.493,1.1,1.1,0,0,1,.639-.191,1.5,1.5,0,0,1,.154.008.592.592,0,0,1,.122.024Zm3.04,3.456a3.428,3.428,0,0,1-.264.548,1.657,1.657,0,0,1-.347.41,1.373,1.373,0,0,1-.473.256,2.127,2.127,0,0,1-.643.087,3.065,3.065,0,0,1-.375-.024,2.344,2.344,0,0,1-.335-.063l.142-1.089a1.453,1.453,0,0,0,.209.051,1.253,1.253,0,0,0,.209.02.585.585,0,0,0,.434-.138,1.121,1.121,0,0,0,.229-.39l.126-.323-1.641-3.866h1.436l.876,2.525h.024l.781-2.525h1.373Zm6.47-2.572a2.478,2.478,0,0,1-.126.789,2.032,2.032,0,0,1-.367.667,1.813,1.813,0,0,1-.588.462,1.745,1.745,0,0,1-.789.174,1.65,1.65,0,0,1-.686-.146,1.226,1.226,0,0,1-.5-.4H117.1v2.328H115.8V38.634h1.231v.481h.024a1.6,1.6,0,0,1,.5-.414,1.527,1.527,0,0,1,.753-.178,1.773,1.773,0,0,1,.773.166,1.749,1.749,0,0,1,.588.45,2.044,2.044,0,0,1,.371.659A2.377,2.377,0,0,1,120.176,40.583Zm-1.254,0a1.188,1.188,0,0,0-.059-.371.965.965,0,0,0-.174-.32.87.87,0,0,0-.69-.312.871.871,0,0,0-.395.087.94.94,0,0,0-.3.229,1.045,1.045,0,0,0-.189.323,1.06,1.06,0,0,0,0,.742,1.041,1.041,0,0,0,.189.323.94.94,0,0,0,.3.229A.87.87,0,0,0,118,41.6a.889.889,0,0,0,.4-.087.854.854,0,0,0,.288-.229,1,1,0,0,0,.174-.327A1.226,1.226,0,0,0,118.921,40.583Zm3.322-.986v1.5a.676.676,0,0,0,.107.416.455.455,0,0,0,.383.138,1.335,1.335,0,0,0,.2-.016.686.686,0,0,0,.178-.047l.016.947a2.167,2.167,0,0,1-.339.083,2.4,2.4,0,0,1-.41.035,1.933,1.933,0,0,1-.663-.1,1.022,1.022,0,0,1-.43-.285,1.114,1.114,0,0,1-.233-.443,2.145,2.145,0,0,1-.071-.573V39.6h-.631v-.963h.623V37.6h1.27v1.034h.923V39.6ZM88.785,36.87a.659.659,0,0,0-.692.637.6.6,0,0,0,.637.629.465.465,0,0,0,.092-.009.72.72,0,0,1-.583.518l-.052.008v.6l.067-.006a1.418,1.418,0,0,0,.834-.384,1.574,1.574,0,0,0,.444-1.168A.764.764,0,0,0,88.785,36.87Z" transform="translate(1054.379 490.759)" fill="#2c3c69"></path><g id="Group_20" data-name="Group 20" transform="translate(1137.437 486)"><path id="Path_26" data-name="Path 26" d="M33.491,29.155H29.178V26.941a3.208,3.208,0,0,0-6.415,0v2.214H18.45V26.941a7.521,7.521,0,1,1,15.041,0v2.214Z" transform="translate(-9.052 -9.864)" fill="#f9a11d"></path><path id="Path_27" data-name="Path 27" d="M32.485,37.568H13.965a1.442,1.442,0,0,0-1.438,1.438v13.7a1.442,1.442,0,0,0,1.438,1.438h18.52a1.442,1.442,0,0,0,1.438-1.438v-13.7A1.442,1.442,0,0,0,32.485,37.568Zm-8.322,9V48.42a.939.939,0,0,1-1.876,0V46.564a1.906,1.906,0,1,1,1.877,0Z" transform="translate(-6.306 -18.277)" fill="#2c3c69"></path><path id="Path_28" data-name="Path 28" d="M6.711,18.854H2.242a1.312,1.312,0,1,1,0-2.624H6.711a1.312,1.312,0,0,1,0,2.624Zm3.148-7.03a1.305,1.305,0,0,1-.833-.3L5.491,8.619A1.312,1.312,0,1,1,7.158,6.592L10.693,9.5a1.312,1.312,0,0,1-.835,2.326Zm7.99-3.09a1.312,1.312,0,0,1-1.312-1.312v-4.5a1.312,1.312,0,1,1,2.624,0v4.5a1.312,1.312,0,0,1-1.312,1.312Zm7.99,3.09A1.313,1.313,0,0,1,25,9.5l3.535-2.907a1.312,1.312,0,1,1,1.667,2.027L26.67,11.526a1.3,1.3,0,0,1-.833.3Zm7.617,7.03H28.944a1.312,1.312,0,1,1,0-2.624h4.511a1.312,1.312,0,0,1,0,2.624Z" transform="translate(-0.93 -1.606)" fill="#f9a11d"></path></g></g></g></svg> 