<svg width="146" height="145" viewBox="0 0 146 145" fill="none" xmlns="http://www.w3.org/2000/svg">
<path d="M23.0574 16.3691H25.779V36.9184C25.779 37.4817 26.0028 38.0219 26.4011 38.4203C26.7995 38.8186 27.3397 39.0424 27.903 39.0424C28.4664 39.0424 29.0066 38.8186 29.405 38.4203C29.8033 38.0219 30.0271 37.4817 30.0271 36.9184V14.2451C30.0271 13.6818 29.8033 13.1415 29.405 12.7432C29.0066 12.3449 28.4664 12.1211 27.903 12.1211H23.0574C22.4941 12.1211 21.9539 12.3449 21.5555 12.7432C21.1572 13.1415 20.9334 13.6818 20.9334 14.2451C20.9334 14.8084 21.1572 15.3487 21.5555 15.747C21.9539 16.1454 22.4941 16.3691 23.0574 16.3691ZM144.835 94.7399C144.64 94.4598 144.379 94.231 144.077 94.0732C143.774 93.9154 143.437 93.8332 143.096 93.8337H137.624L145.09 73.2222C145.26 72.7557 145.26 72.2443 145.09 71.7778L137.624 51.1663H143.093C143.434 51.1657 143.77 51.083 144.073 50.9253C144.375 50.7676 144.635 50.5394 144.831 50.2601C145.027 49.9807 145.152 49.6584 145.197 49.3203C145.242 48.9821 145.205 48.6381 145.09 48.3173L136.857 25.5817L145.09 2.84619C145.206 2.52552 145.244 2.18144 145.199 1.84316C145.154 1.50488 145.029 1.18238 144.833 0.903029C144.637 0.623682 144.376 0.395733 144.073 0.238527C143.771 0.0813206 143.434 -0.000502253 143.093 2.31954e-06H10.8372C10.4013 0.00373227 9.97717 0.141665 9.62245 0.395032C9.26774 0.648399 8.9997 1.0049 8.8548 1.41602L0.344543 24.8596C0.174661 25.327 0.174661 25.8393 0.344543 26.3067L7.80978 46.9183H2.34113C2.0011 46.92 1.66648 47.0035 1.36547 47.1617C1.06446 47.3198 0.805891 47.5481 0.611549 47.8271C0.417206 48.1061 0.292789 48.4277 0.248785 48.7649C0.204781 49.1021 0.24248 49.4449 0.358703 49.7645L8.57726 72.5L0.344543 95.2355C0.227916 95.5562 0.190372 95.9003 0.235098 96.2386C0.279824 96.5769 0.4055 96.8994 0.601459 97.1787C0.797419 97.4581 1.05788 97.686 1.36073 97.8432C1.66359 98.0004 1.9999 98.0822 2.34113 98.0817H7.80978L0.344543 118.693C0.174661 119.161 0.174661 119.673 0.344543 120.14L8.84064 143.598C8.9887 144.009 9.2599 144.364 9.61723 144.615C9.97456 144.866 10.4006 145 10.8372 145H143.093C143.433 145 143.767 144.918 144.068 144.761C144.37 144.605 144.629 144.379 144.825 144.101C145.02 143.824 145.147 143.503 145.193 143.167C145.239 142.83 145.203 142.488 145.09 142.168L136.857 119.432L145.09 96.6969C145.208 96.3741 145.246 96.0275 145.201 95.6867C145.156 95.346 145.03 95.0211 144.832 94.7399H144.835ZM4.60109 25.5817L12.3269 4.24805H140.066L132.6 24.8596C132.431 25.327 132.431 25.8393 132.6 26.3067L140.066 46.9183H12.341L4.60109 25.5817ZM5.36857 93.8337L12.8338 73.2222C13.0037 72.7557 13.0037 72.2443 12.8338 71.7778L5.36857 51.1663H133.107L140.833 72.5L133.107 93.8337H5.36857ZM132.6 118.693C132.431 119.161 132.431 119.673 132.6 120.14L140.066 140.752H12.341L4.60109 119.418L12.3269 98.0817H140.066L132.6 118.693ZM107.112 29.8298H53.8303C53.267 29.8298 52.7267 30.0536 52.3284 30.4519C51.93 30.8502 51.7063 31.3905 51.7063 31.9538C51.7063 32.5171 51.93 33.0574 52.3284 33.4557C52.7267 33.8541 53.267 34.0778 53.8303 34.0778H107.101C107.664 34.0778 108.204 33.8541 108.603 33.4557C109.001 33.0574 109.225 32.5171 109.225 31.9538C109.225 31.3905 109.001 30.8502 108.603 30.4519C108.204 30.0536 107.664 29.8298 107.101 29.8298H107.112ZM90.1086 76.748H36.8381C36.2748 76.748 35.7345 76.9718 35.3362 77.3702C34.9379 77.7685 34.7141 78.3087 34.7141 78.8721C34.7141 79.4354 34.9379 79.9757 35.3362 80.374C35.7345 80.7723 36.2748 80.9961 36.8381 80.9961H90.1086C90.6719 80.9961 91.2122 80.7723 91.6105 80.374C92.0088 79.9757 92.2326 79.4354 92.2326 78.8721C92.2326 78.3087 92.0088 77.7685 91.6105 77.3702C91.2122 76.9718 90.6719 76.748 90.1086 76.748ZM50.8595 115.17H110.072C110.635 115.17 111.175 114.946 111.574 114.548C111.972 114.15 112.196 113.61 112.196 113.046C112.196 112.483 111.972 111.943 111.574 111.544C111.175 111.146 110.635 110.922 110.072 110.922H50.8595C50.2962 110.922 49.7559 111.146 49.3576 111.544C48.9592 111.943 48.7355 112.483 48.7355 113.046C48.7355 113.61 48.9592 114.15 49.3576 114.548C49.7559 114.946 50.2962 115.17 50.8595 115.17ZM50.8595 21.3337H110.072C110.635 21.3337 111.175 21.1099 111.574 20.7116C111.972 20.3132 112.196 19.773 112.196 19.2097C112.196 18.6463 111.972 18.1061 111.574 17.7078C111.175 17.3094 110.635 17.0856 110.072 17.0856H50.8595C50.2962 17.0856 49.7559 17.3094 49.3576 17.7078C48.9592 18.1061 48.7355 18.6463 48.7355 19.2097C48.7355 19.773 48.9592 20.3132 49.3576 20.7116C49.7559 21.1099 50.2962 21.3337 50.8595 21.3337ZM126.594 81.8825H126.565C123.917 81.9137 121.097 81.9307 118.933 81.9335C120.213 80.2343 122.122 77.6571 124.849 73.7603C126.265 71.7382 127.186 69.8322 127.588 68.0962C127.604 68.0272 127.617 67.9572 127.625 67.8866L127.738 67.0087C127.75 66.9148 127.755 66.8202 127.755 66.7255C127.747 64.7612 127.01 62.8697 125.688 61.4174C124.365 59.9652 122.55 59.0556 120.595 58.8648C118.64 58.6741 116.684 59.2158 115.105 60.385C113.527 61.5541 112.439 63.2676 112.051 65.1934C111.997 65.4671 111.998 65.7487 112.053 66.0222C112.108 66.2956 112.217 66.5555 112.372 66.7871C112.528 67.0187 112.728 67.2173 112.96 67.3717C113.192 67.5261 113.453 67.6332 113.726 67.687C114.279 67.7955 114.852 67.68 115.32 67.3658C115.552 67.2103 115.75 67.0107 115.905 66.7783C116.059 66.546 116.166 66.2855 116.22 66.0118C116.402 65.1318 116.899 64.3487 117.619 63.8101C118.338 63.2715 119.229 63.0145 120.125 63.0877C121.021 63.1608 121.859 63.5589 122.481 64.2071C123.103 64.8553 123.467 65.7087 123.504 66.6065L123.427 67.2211C123.144 68.3992 122.442 69.7699 121.369 71.3077C117.772 76.4479 115.625 79.2572 114.473 80.7667C113.057 82.6047 112.541 83.2929 112.912 84.4993C113.019 84.8428 113.206 85.1557 113.459 85.4115C113.712 85.6673 114.023 85.8586 114.365 85.9691C114.648 86.0654 114.971 86.1702 119.296 86.1702C121.017 86.1702 123.376 86.1532 126.619 86.1136C127.182 86.1102 127.721 85.8832 128.117 85.4825C128.513 85.0817 128.734 84.5401 128.73 83.9768C128.727 83.4135 128.5 82.8746 128.099 82.4786C127.699 82.0827 127.157 81.8622 126.594 81.8655V81.8825ZM107.101 123.666H53.8303C53.267 123.666 52.7267 123.89 52.3284 124.288C51.93 124.687 51.7063 125.227 51.7063 125.79C51.7063 126.354 51.93 126.894 52.3284 127.292C52.7267 127.691 53.267 127.914 53.8303 127.914H107.101C107.664 127.914 108.204 127.691 108.603 127.292C109.001 126.894 109.225 126.354 109.225 125.79C109.225 125.227 109.001 124.687 108.603 124.288C108.204 123.89 107.664 123.666 107.101 123.666ZM30.2366 128.857C28.0871 128.857 26.252 127.492 25.9716 125.683C25.9479 125.523 25.9356 125.362 25.9348 125.201C25.9348 124.638 25.711 124.098 25.3127 123.699C24.9143 123.301 24.3741 123.077 23.8108 123.077C23.2474 123.077 22.7072 123.301 22.3088 123.699C21.9105 124.098 21.6867 124.638 21.6867 125.201C21.6875 125.581 21.7168 125.959 21.7745 126.334C22.3749 130.188 26.0112 133.105 30.2366 133.105C34.9491 133.105 38.7865 129.56 38.7865 125.201C38.7777 124.098 38.5292 123.01 38.0583 122.013C37.5874 121.015 36.9053 120.132 36.0593 119.424C36.9052 118.715 37.5872 117.832 38.0581 116.834C38.529 115.836 38.7775 114.747 38.7865 113.644C38.7865 109.285 34.9491 105.742 30.2366 105.742C26.1812 105.742 22.6581 108.402 21.8567 112.072C21.7365 112.623 21.8399 113.198 22.1443 113.673C22.4486 114.147 22.9288 114.481 23.4794 114.601C24.03 114.721 24.6057 114.618 25.08 114.313C25.5543 114.009 25.8882 113.529 26.0084 112.978C26.3851 111.245 28.1636 109.99 30.2366 109.99C32.607 109.99 34.5385 111.627 34.5385 113.644C34.5385 115.66 32.607 117.3 30.2366 117.3C29.6733 117.3 29.1331 117.524 28.7347 117.922C28.3364 118.32 28.1126 118.861 28.1126 119.424C28.1126 119.987 28.3364 120.528 28.7347 120.926C29.1331 121.324 29.6733 121.548 30.2366 121.548C32.607 121.548 34.5385 123.188 34.5385 125.201C34.5385 127.215 32.607 128.857 30.2366 128.857ZM93.0794 64.0039H33.8673C33.304 64.0039 32.7637 64.2277 32.3654 64.626C31.9671 65.0244 31.7433 65.5646 31.7433 66.1279C31.7433 66.6913 31.9671 67.2315 32.3654 67.6298C32.7637 68.0282 33.304 68.252 33.8673 68.252H93.0794C93.6427 68.252 94.183 68.0282 94.5813 67.6298C94.9797 67.2315 95.2034 66.6913 95.2034 66.1279C95.2034 65.5646 94.9797 65.0244 94.5813 64.626C94.183 64.2277 93.6427 64.0039 93.0794 64.0039Z" fill="#E5E5EF"/>
</svg>
