<svg width="100" height="80" viewBox="0 0 100 80" fill="none" xmlns="http://www.w3.org/2000/svg">
<path opacity="0.1" fill-rule="evenodd" clip-rule="evenodd" d="M35.4915 74.7423C53.3615 83.4583 88.7075 77.8373 97.4235 59.9673C106.139 42.0973 80.2855 21.9103 62.4155 13.1943C44.5455 4.4783 20.4015 -8.5427 11.6855 9.3273C2.96948 27.1973 17.6215 66.0263 35.4915 74.7423Z" fill="#B75CFF"/>
<path d="M13.7731 68.1562H11.0186V69.0171H13.7731V68.1562Z" fill="#D85B53"/>
<path d="M45.9096 68.1562H44.0732V69.0171H45.9096V68.1562Z" fill="#D85B53"/>
<path d="M15.6096 68.1562H14.6914V69.0171H15.6096V68.1562Z" fill="#D85B53"/>
<path d="M31.0103 69.9355H27.7542C27.1556 69.9355 26.6506 69.5074 26.5525 68.9174L26.308 67.4535C26.2856 67.3186 26.1863 67.2073 26.0555 67.1694C25.2188 66.9261 24.4091 66.5909 23.6487 66.172C23.5282 66.106 23.379 66.114 23.2682 66.1932L22.0596 67.0569C21.5736 67.4041 20.913 67.3496 20.4901 66.9278L18.1871 64.6254C18.0471 64.4842 17.9427 64.3109 17.8847 64.1233C17.7734 63.7629 17.8376 63.3635 18.0569 63.0559L18.92 61.8473C18.9997 61.736 19.0083 61.5868 18.9418 61.4668C18.5223 60.7059 18.1871 59.8961 17.9444 59.06C17.9065 58.9286 17.7946 58.8293 17.6603 58.8069L16.1958 58.563C15.6058 58.4649 15.1777 57.9599 15.1777 57.3613V54.1052C15.1777 53.5072 15.6058 53.0016 16.1958 52.9035L17.6597 52.659C17.7946 52.6366 17.9059 52.5373 17.9438 52.4065C18.1871 51.5698 18.5223 50.7601 18.9412 49.9997C19.0072 49.8797 18.9992 49.7299 18.9194 49.6192L18.0557 48.4106C17.7085 47.9245 17.763 47.2646 18.1848 46.8411L20.4878 44.5381C20.9113 44.1157 21.5713 44.0612 22.0573 44.4084L23.2659 45.2721C23.3767 45.3513 23.5259 45.3599 23.6464 45.2933C24.4068 44.8744 25.2165 44.5387 26.0532 44.2959C26.1846 44.2581 26.2839 44.1467 26.3057 44.0124L26.5502 42.5473C26.6483 41.958 27.1533 41.5293 27.7519 41.5293H31.008C31.606 41.5293 32.1116 41.9574 32.2097 42.5473L32.4536 44.0119C32.476 44.1462 32.5753 44.2581 32.7067 44.2959C33.5428 44.5387 34.3526 44.8744 35.1135 45.2933C35.2335 45.3593 35.3827 45.3507 35.4934 45.2715L36.7026 44.4078C37.1887 44.0607 37.8486 44.1152 38.2721 44.537L40.5751 46.8399C40.9975 47.2634 41.052 47.9234 40.7048 48.4095L39.8411 49.618C39.7619 49.7288 39.7533 49.8786 39.8199 49.9985C40.2388 50.7589 40.5745 51.5686 40.8173 52.4053C40.8551 52.5368 40.9665 52.636 41.1007 52.6579L42.5658 52.9023C43.1552 53.0005 43.5833 53.5055 43.5833 54.104V57.3602C43.5833 57.9581 43.1552 58.4637 42.5653 58.5619L41.1007 58.8058C40.9665 58.8281 40.8546 58.9274 40.8167 59.0588C40.5739 59.8944 40.2382 60.7041 39.8193 61.4657C39.7533 61.5856 39.7619 61.7348 39.8411 61.8461L40.7048 63.0553C40.9246 63.3629 40.9888 63.7623 40.8769 64.1233C40.8196 64.3104 40.7151 64.4837 40.5762 64.6237L38.2727 66.9272C37.8492 67.3496 37.1892 67.4041 36.7032 67.0569L35.4946 66.1938C35.3832 66.114 35.234 66.1054 35.1141 66.172C34.3531 66.5915 33.5434 66.9266 32.7073 67.1694C32.5759 67.2073 32.4766 67.3192 32.4542 67.454L32.2103 68.918C32.1139 69.5074 31.6083 69.9355 31.0103 69.9355ZM23.4759 65.267C23.6779 65.267 23.8811 65.3169 24.0636 65.4174C24.7689 65.8059 25.5195 66.1169 26.2948 66.3424C26.7424 66.4721 27.081 66.8532 27.1568 67.3123L27.4012 68.7762C27.4299 68.9495 27.578 69.0752 27.7536 69.0752H31.0098C31.1854 69.0752 31.3334 68.9495 31.3621 68.7768L31.606 67.3123C31.6829 66.8532 32.0215 66.4727 32.4685 66.343C33.2433 66.1181 33.9939 65.807 34.6998 65.4179C35.1089 65.193 35.618 65.2228 35.9967 65.4937L37.2047 66.3562C37.3476 66.4584 37.5416 66.4423 37.6655 66.3178L39.9674 64.016C40.0081 63.9746 40.0385 63.9253 40.0552 63.8696C40.0879 63.7629 40.0695 63.6452 40.0047 63.5551L39.1415 62.3466C38.8707 61.9684 38.8408 61.4593 39.0658 61.0502C39.4543 60.3443 39.7659 59.5937 39.9909 58.819C40.1206 58.3719 40.5011 58.0333 40.9602 57.9564L42.4247 57.7125C42.598 57.6838 42.7231 57.5358 42.7231 57.3602V54.104C42.7231 53.9284 42.5974 53.7803 42.4247 53.7517L40.9596 53.5072C40.5011 53.4314 40.12 53.0928 39.9903 52.6452C39.7648 51.8699 39.4537 51.1193 39.0652 50.414C38.8403 50.0054 38.8695 49.497 39.1404 49.1176L40.0041 47.909C40.1062 47.7662 40.0902 47.5722 39.9656 47.4482L37.6638 45.1464C37.5399 45.0225 37.3459 45.0064 37.203 45.1085L35.9944 45.9717C35.6162 46.2425 35.1072 46.2724 34.698 46.0474C33.9922 45.6589 33.2416 45.3473 32.4668 45.1223C32.0198 44.9926 31.6812 44.6121 31.6043 44.1536L31.3604 42.6885C31.3317 42.5152 31.1836 42.3901 31.008 42.3901H27.7519C27.5763 42.3901 27.4282 42.5158 27.3995 42.6885L27.155 44.1536C27.0793 44.6121 26.7413 44.9932 26.2931 45.1229C25.5178 45.3484 24.7666 45.6595 24.0619 46.048C23.6533 46.2729 23.1442 46.2437 22.7655 45.9728L21.5569 45.1091C21.414 45.007 21.2206 45.0236 21.0961 45.1476L18.7943 47.4494C18.6703 47.5733 18.6543 47.7673 18.7564 47.9102L19.6201 49.1188C19.891 49.4981 19.9202 50.0066 19.6953 50.4152C19.3068 51.1204 18.9957 51.8711 18.7702 52.6464C18.6405 53.094 18.2594 53.4326 17.8003 53.5083L16.3364 53.7528C16.1631 53.7815 16.0374 53.9296 16.0374 54.1052V57.3613C16.0374 57.5369 16.1631 57.685 16.3358 57.7137L17.8003 57.9576C18.2594 58.0345 18.6399 58.3731 18.7696 58.8201C18.9946 59.5948 19.3056 60.3455 19.6947 61.0513C19.9197 61.4605 19.8904 61.9689 19.6189 62.3483L18.7564 63.5563C18.6921 63.6464 18.6732 63.764 18.7059 63.8702C18.7231 63.9264 18.753 63.9758 18.7954 64.0183L21.0967 66.3195C21.2206 66.4434 21.4146 66.4595 21.5575 66.3574L22.7661 65.4937C22.9772 65.3428 23.2263 65.267 23.4759 65.267Z" fill="#D85B53"/>
<path d="M25.4061 58.7909L22.6515 56.0363C22.4834 55.8682 22.4834 55.5956 22.6515 55.4274L25.4061 52.6729L26.015 53.2817L23.5645 55.7322L26.015 58.1826L25.4061 58.7909ZM33.36 58.7909L32.7517 58.1826L35.2021 55.7322L32.7517 53.2817L33.3606 52.6729L36.1151 55.4274C36.2833 55.5956 36.2833 55.8682 36.1151 56.0363L33.36 58.7909Z" fill="#D85B53"/>
<path d="M30.8193 50.9818L27.1465 60.1641L27.9457 60.4838L31.6186 51.3015L30.8193 50.9818Z" fill="#D85B53"/>
<path d="M50.4864 64.4265H40.4677C40.3311 64.4265 40.2026 64.3616 40.1211 64.2515C40.0402 64.1413 40.0161 63.9995 40.0562 63.8687C40.0889 63.7625 40.07 63.6449 40.0057 63.5548L39.1426 62.3462C38.8718 61.968 38.8419 61.459 39.0669 61.0498C39.4554 60.344 39.767 59.5933 39.992 58.8186C40.1217 58.3716 40.5021 58.033 40.9612 57.9561L42.4258 57.7122C42.5991 57.6835 42.7242 57.5354 42.7242 57.3598V54.1037C42.7242 53.9281 42.5985 53.78 42.4258 53.7513L40.9607 53.5068C40.5021 53.4311 40.1211 53.0925 39.9914 52.6449C39.7659 51.8696 39.4548 51.1189 39.0663 50.4137C38.8413 50.0051 38.8706 49.4966 39.1415 49.1173L40.0052 47.9087C40.1073 47.7658 40.0912 47.5718 39.9667 47.4479L37.6649 45.1461C37.5409 45.0221 37.347 45.006 37.2041 45.1082L35.9955 45.9713C35.6173 46.2422 35.1083 46.272 34.6991 46.0471C33.9933 45.6585 33.2426 45.3469 32.4679 45.122C32.0209 44.9923 31.6823 44.6118 31.6054 44.1533L31.3615 42.6882C31.3328 42.5149 31.1847 42.3898 31.0091 42.3898H27.753C27.5774 42.3898 27.4293 42.5154 27.4006 42.6882L27.1561 44.1533C27.0804 44.6118 26.7424 44.9928 26.2942 45.1225C25.5189 45.3481 24.7677 45.6591 24.063 46.0476C23.6544 46.2726 23.1453 46.2433 22.7666 45.9724L21.558 45.1088C21.4151 45.0066 21.2217 45.0233 21.0972 45.1472L18.7954 47.449C18.6714 47.573 18.6553 47.7669 18.7575 47.9098L19.6212 49.1184C19.8915 49.4977 19.9213 50.0062 19.6964 50.4148C19.3078 51.1201 18.9968 51.8707 18.7713 52.646C18.6416 53.0936 18.2605 53.4322 17.8014 53.508L16.3375 53.7524C16.1642 53.7811 16.0385 53.9292 16.0385 54.1048V57.361C16.0385 57.5366 16.1642 57.6846 16.3369 57.7133L17.8014 57.9572C18.2605 58.0341 18.641 58.3727 18.7707 58.8197C18.9957 59.5945 19.3067 60.3451 19.6958 61.051C19.9207 61.4601 19.8915 61.9686 19.62 62.3479L18.7575 63.5559C18.6932 63.646 18.6743 63.7637 18.707 63.8698C18.7472 64.0007 18.7231 64.1424 18.6421 64.2526C18.5612 64.3628 18.4327 64.4276 18.2955 64.4276H8.27799C7.52621 64.4276 6.91504 63.8165 6.91504 63.0647V31.8747C6.91504 31.1229 7.52621 30.5117 8.27799 30.5117H50.4864C51.2382 30.5117 51.8493 31.1229 51.8493 31.8747V63.0647C51.8493 63.8153 51.2382 64.4265 50.4864 64.4265ZM40.9165 63.5657H50.4864C50.763 63.5657 50.9885 63.3407 50.9885 63.0635V31.8735C50.9885 31.5969 50.763 31.3714 50.4864 31.3714H8.27799C8.00138 31.3714 7.77585 31.5969 7.77585 31.8735V63.0635C7.77585 63.3407 8.00138 63.5657 8.27799 63.5657H17.8479C17.8777 63.3838 17.9483 63.2082 18.0574 63.0555L18.9205 61.8469C19.0002 61.7356 19.0088 61.5864 18.9423 61.4665C18.5228 60.7055 18.1876 59.8958 17.9449 59.0596C17.907 58.9282 17.7951 58.8289 17.6608 58.8066L16.1963 58.5627C15.6064 58.4645 15.1782 57.9595 15.1782 57.361V54.1048C15.1782 53.5068 15.6064 53.0012 16.1963 52.9031L17.6602 52.6586C17.7951 52.6363 17.9064 52.537 17.9443 52.4061C18.1876 51.5694 18.5228 50.7597 18.9417 49.9993C19.0077 49.8794 18.9997 49.7296 18.9199 49.6188L18.0562 48.4103C17.709 47.9242 17.7635 47.2642 18.1853 46.8407L20.4883 44.5378C20.9118 44.1154 21.5718 44.0609 22.0578 44.4081L23.2664 45.2717C23.3772 45.3509 23.5264 45.3595 23.6469 45.293C24.4073 44.8741 25.217 44.5383 26.0537 44.2956C26.1851 44.2577 26.2844 44.1464 26.3062 44.0121L26.5507 42.547C26.6488 41.9576 27.1538 41.5289 27.7524 41.5289H31.0085C31.6065 41.5289 32.1121 41.9571 32.2102 42.547L32.4541 44.0115C32.4765 44.1458 32.5758 44.2577 32.7072 44.2956C33.5433 44.5383 34.3531 44.8741 35.114 45.293C35.234 45.359 35.3832 45.3504 35.4939 45.2712L36.7031 44.4075C37.1892 44.0603 37.8491 44.1148 38.2726 44.5366L40.5756 46.8396C40.998 47.2631 41.0525 47.923 40.7053 48.4091L39.8416 49.6177C39.7624 49.7284 39.7538 49.8782 39.8204 49.9982C40.2393 50.7586 40.575 51.5683 40.8178 52.405C40.8556 52.5364 40.967 52.6357 41.1013 52.6575L42.5664 52.902C43.1557 53.0001 43.5838 53.5051 43.5838 54.1037V57.3598C43.5838 57.9578 43.1557 58.4634 42.5658 58.5615L41.1013 58.8054C40.967 58.8278 40.8551 58.9271 40.8172 59.0585C40.5744 59.894 40.2387 60.7038 39.8198 61.4653C39.7538 61.5852 39.7624 61.7345 39.8416 61.8458L40.7053 63.0549C40.8155 63.2082 40.8866 63.3838 40.9165 63.5657Z" fill="#D85B53"/>
<path d="M51.4192 34.1836H7.3457V35.0444H51.4192V34.1836Z" fill="#D85B53"/>
<path d="M10.0998 32.3467H9.18164V33.2075H10.0998V32.3467Z" fill="#D85B53"/>
<path d="M11.9368 32.3467H11.0186V33.2075H11.9368V32.3467Z" fill="#D85B53"/>
<path d="M13.7727 32.3467H12.8545V33.2075H13.7727V32.3467Z" fill="#D85B53"/>
<path d="M19.2823 38.7744H11.0186V39.6352H19.2823V38.7744Z" fill="#D85B53"/>
<path d="M17.4459 42.4473H11.0186V43.3081H17.4459V42.4473Z" fill="#D85B53"/>
<path d="M14.6913 46.1201H11.0186V46.9809H14.6913V46.1201Z" fill="#D85B53"/>
<path d="M23.8737 38.7744H21.1191V39.6352H23.8737V38.7744Z" fill="#D85B53"/>
<path d="M47.7472 38.7744H39.4834V39.6352H47.7472V38.7744Z" fill="#D85B53"/>
<path d="M47.7467 42.4473H41.3193V43.3081H47.7467V42.4473Z" fill="#D85B53"/>
<path d="M47.746 46.1201H44.0732V46.9809H47.746V46.1201Z" fill="#D85B53"/>
<path d="M37.6462 38.7744H34.8916V39.6352H37.6462V38.7744Z" fill="#D85B53"/>
</svg>
