<?xml version="1.0" encoding="UTF-8"?> <svg xmlns="http://www.w3.org/2000/svg" xmlns:xlink="http://www.w3.org/1999/xlink" version="1.1" id="Layer_1" x="0px" y="0px" viewBox="0 0 300 186" style="enable-background:new 0 0 300 186;" xml:space="preserve"> <style type="text/css"> .st0{fill:#0A1C2B;} .st1{fill:#FFFFFF;} </style> <rect class="st0" width="300" height="186"></rect> <path class="st1" d="M134.1,63.2l1.5,0.3l1,2.5l-0.9,1.3c-0.6,0.9-0.5,2.1,0.3,2.8l3,3c0.8,0.8,1.9,0.9,2.8,0.3l1.3-0.9l2.5,1 l0.3,1.5c0.2,1,1.1,1.8,2.2,1.8h0.7v5.9l-6.8,4.3c-0.5,0.3-0.8,1-0.6,1.6l1.4,5.4c0.2,0.7,0.8,1.1,1.4,1.1c0.1,0,0.2,0,0.4,0 c0.8-0.2,1.2-1,1.1-1.8l-1.1-4.4l4.4-2.8v1.7c0,0.8,0.6,1.4,1.4,1.4c0.8,0,1.4-0.6,1.4-1.4v-1.7l4.4,2.8l-1.1,4.4 c-0.2,0.8,0.3,1.6,1.1,1.8c0.8,0.2,1.6-0.3,1.8-1.1l1.4-5.4c0.2-0.6-0.1-1.2-0.6-1.6l-6.8-4.3v-5.9h0.7c1.1,0,2-0.8,2.2-1.8l0.3-1.5 l2.5-1l1.3,0.9c0.9,0.6,2.1,0.5,2.8-0.3l3-3c0.8-0.8,0.9-1.9,0.3-2.8L164,66l1-2.5l1.5-0.3c1-0.2,1.8-1.1,1.8-2.2v-4.2 c0-1.1-0.8-2-1.8-2.2l-1.5-0.3l-1-2.5l0.9-1.3c0.6-0.9,0.5-2.1-0.3-2.8l-3-3c-0.8-0.8-1.9-0.9-2.8-0.3l-1.3,0.9l-2.5-1l-0.3-1.5 c-0.2-1-1.1-1.8-2.2-1.8h-4.2c-1.1,0-2,0.8-2.2,1.8l-0.3,1.5l-2.5,1l-1.3-0.9c-0.9-0.6-2.1-0.5-2.8,0.3l-3,3 c-0.8,0.8-0.9,1.9-0.3,2.8l0.9,1.3l-1,2.5l-1.5,0.3c-1,0.2-1.8,1.1-1.8,2.2V61C132.3,62.1,133.1,63,134.1,63.2L134.1,63.2z M135.2,57.3L137,57c0.5-0.1,0.9-0.4,1.1-0.9l1.6-4c0.2-0.4,0.1-1-0.1-1.4l-1-1.5l2.2-2.2l1.5,1c0.4,0.3,0.9,0.3,1.4,0.1l4-1.6 c0.4-0.2,0.8-0.6,0.9-1.1l0.3-1.7h3.1l0.3,1.7c0.1,0.5,0.4,0.9,0.9,1.1l4,1.6c0.4,0.2,1,0.1,1.4-0.1l1.5-1l2.2,2.2l-1,1.5 c-0.3,0.4-0.3,0.9-0.1,1.4l1.6,4c0.2,0.4,0.6,0.8,1.1,0.9l1.7,0.3v3.1l-1.7,0.3c-0.5,0.1-0.9,0.4-1.1,0.9l-1.6,4 c-0.2,0.4-0.1,1,0.1,1.4l1,1.5l-2.2,2.2l-1.5-1c-0.4-0.3-0.9-0.3-1.4-0.1l-4,1.6c-0.4,0.2-0.8,0.6-0.9,1.1l-0.3,1.7h-3.1l-0.3-1.7 c-0.1-0.5-0.4-0.9-0.9-1.1l-4-1.6c-0.4-0.2-1-0.1-1.4,0.1l-1.5,1l-2.2-2.2l1-1.5c0.3-0.4,0.3-0.9,0.1-1.4l-1.6-4 c-0.2-0.4-0.6-0.8-1.1-0.9l-1.7-0.3V57.3z M150.3,68.8c5.5,0,9.9-4.5,9.9-9.9s-4.5-9.9-9.9-9.9c-5.5,0-9.9,4.5-9.9,9.9 S144.8,68.8,150.3,68.8z M150.3,51.9c3.9,0,7,3.2,7,7s-3.2,7-7,7c-3.9,0-7-3.2-7-7S146.4,51.9,150.3,51.9z M189.1,118.4L189.1,118.4 l0-16.3c0-1.6-1.3-2.9-2.9-2.9h-16.2c-1.6,0-2.9,1.3-2.9,2.9v16.3h-5.6v-16.3c0-1.6-1.3-2.9-2.9-2.9h-16.2c-1.6,0-2.9,1.3-2.9,2.9 v16.3h-5.6v-16.3c0-1.6-1.3-2.9-2.9-2.9h-16.2c-1.6,0-2.9,1.3-2.9,2.9v16.3h0c-7.4,0-13.3,6-13.3,13.3s6,13.3,13.3,13.3H189 c7.4,0,13.3-6,13.3-13.3S196.4,118.4,189.1,118.4L189.1,118.4z M176.1,102.1h3.7v3.3h-3.7V102.1z M169.8,102.1 C169.8,102.1,169.8,102.1,169.8,102.1l3.4,0v4.8c0,0.8,0.6,1.4,1.4,1.4h6.6c0.8,0,1.4-0.6,1.4-1.4v-4.8h3.4c0,0,0,0,0,0v16.3h-16.3 L169.8,102.1L169.8,102.1z M148.5,102.1h3.7v3.3h-3.7V102.1z M142.2,102.1C142.2,102.1,142.2,102.1,142.2,102.1l3.4,0v4.8 c0,0.8,0.6,1.4,1.4,1.4h6.6c0.8,0,1.4-0.6,1.4-1.4v-4.8h3.4c0,0,0,0,0,0v16.3h-16.3L142.2,102.1L142.2,102.1z M120.8,102.1h3.7v3.3 h-3.7V102.1z M114.5,102.1C114.5,102.1,114.5,102.1,114.5,102.1l3.4,0v4.8c0,0.8,0.6,1.4,1.4,1.4h6.6c0.8,0,1.4-0.6,1.4-1.4v-4.8 h3.4c0,0,0,0,0,0v16.3h-16.3L114.5,102.1L114.5,102.1z M189.1,142.2h-77.5c-5.8,0-10.4-4.7-10.4-10.4c0-5.8,4.7-10.4,10.4-10.4h77.5 c5.8,0,10.4,4.7,10.4,10.4C199.5,137.5,194.8,142.2,189.1,142.2L189.1,142.2z M189.1,124.3c-4.1,0-7.5,3.3-7.5,7.5 c0,4.1,3.3,7.5,7.5,7.5c4.1,0,7.5-3.3,7.5-7.5C196.5,127.6,193.2,124.3,189.1,124.3z M189.1,136.3c-2.5,0-4.6-2.1-4.6-4.6 c0-2.5,2.1-4.6,4.6-4.6c2.5,0,4.6,2.1,4.6,4.6C193.6,134.3,191.6,136.3,189.1,136.3z M163.2,124.3c-4.1,0-7.5,3.3-7.5,7.5 c0,4.1,3.3,7.5,7.5,7.5c4.1,0,7.5-3.3,7.5-7.5C170.7,127.6,167.3,124.3,163.2,124.3z M163.2,136.3c-2.5,0-4.6-2.1-4.6-4.6 c0-2.5,2.1-4.6,4.6-4.6c2.5,0,4.6,2.1,4.6,4.6C167.8,134.3,165.7,136.3,163.2,136.3z M176.8,126.2c0-0.8,0.6-1.4,1.4-1.4h2.1 c0.8,0,1.4,0.6,1.4,1.4c0,0.8-0.6,1.4-1.4,1.4h-2.1C177.5,127.7,176.8,127,176.8,126.2z M181.9,137.3c0,0.8-0.6,1.4-1.4,1.4h-2.1 c-0.8,0-1.4-0.6-1.4-1.4c0-0.8,0.6-1.4,1.4-1.4h2.1C181.2,135.8,181.9,136.5,181.9,137.3z M175.4,126.2c0,0.8-0.6,1.4-1.4,1.4h-2.1 c-0.8,0-1.4-0.6-1.4-1.4c0-0.8,0.6-1.4,1.4-1.4h2.1C174.8,124.8,175.4,125.4,175.4,126.2z M175.4,137.3c0,0.8-0.6,1.4-1.4,1.4h-2.1 c-0.8,0-1.4-0.6-1.4-1.4c0-0.8,0.6-1.4,1.4-1.4h2.1C174.8,135.8,175.4,136.5,175.4,137.3z M151,126.2c0-0.8,0.6-1.4,1.4-1.4h2.1 c0.8,0,1.4,0.6,1.4,1.4c0,0.8-0.6,1.4-1.4,1.4h-2.1C151.7,127.7,151,127,151,126.2z M149.6,126.2c0,0.8-0.6,1.4-1.4,1.4H146 c-0.8,0-1.4-0.6-1.4-1.4c0-0.8,0.6-1.4,1.4-1.4h2.1C149,124.8,149.6,125.4,149.6,126.2z M149.6,137.3c0,0.8-0.6,1.4-1.4,1.4H146 c-0.8,0-1.4-0.6-1.4-1.4c0-0.8,0.6-1.4,1.4-1.4h2.1C149,135.8,149.6,136.5,149.6,137.3z M156,137.3c0,0.8-0.6,1.4-1.4,1.4h-2.1 c-0.8,0-1.4-0.6-1.4-1.4c0-0.8,0.6-1.4,1.4-1.4h2.1C155.4,135.8,156,136.5,156,137.3z M137.4,124.3c-4.1,0-7.5,3.3-7.5,7.5 c0,4.1,3.3,7.5,7.5,7.5c4.1,0,7.5-3.3,7.5-7.5C144.9,127.6,141.5,124.3,137.4,124.3z M137.4,136.3c-2.5,0-4.6-2.1-4.6-4.6 c0-2.5,2.1-4.6,4.6-4.6s4.6,2.1,4.6,4.6S139.9,136.3,137.4,136.3z M111.6,124.3c-4.1,0-7.5,3.3-7.5,7.5c0,4.1,3.3,7.5,7.5,7.5 c4.1,0,7.5-3.3,7.5-7.5C119,127.6,115.7,124.3,111.6,124.3z M111.6,136.3c-2.5,0-4.6-2.1-4.6-4.6c0-2.5,2.1-4.6,4.6-4.6 c2.5,0,4.6,2.1,4.6,4.6S114.1,136.3,111.6,136.3z M123.8,137.3c0,0.8-0.6,1.4-1.4,1.4h-2.1c-0.8,0-1.4-0.6-1.4-1.4 c0-0.8,0.6-1.4,1.4-1.4h2.1C123.1,135.8,123.8,136.5,123.8,137.3z M130.2,137.3c0,0.8-0.6,1.4-1.4,1.4h-2.1c-0.8,0-1.4-0.6-1.4-1.4 c0-0.8,0.6-1.4,1.4-1.4h2.1C129.5,135.8,130.2,136.5,130.2,137.3z M125.2,126.2c0-0.8,0.6-1.4,1.4-1.4h2.1c0.8,0,1.4,0.6,1.4,1.4 c0,0.8-0.6,1.4-1.4,1.4h-2.1C125.8,127.7,125.2,127,125.2,126.2z M123.8,126.2c0,0.8-0.6,1.4-1.4,1.4h-2.1c-0.8,0-1.4-0.6-1.4-1.4 c0-0.8,0.6-1.4,1.4-1.4h2.1C123.1,124.8,123.8,125.4,123.8,126.2z"></path> </svg> 