<?xml version="1.0" encoding="UTF-8"?> <svg xmlns="http://www.w3.org/2000/svg" xmlns:xlink="http://www.w3.org/1999/xlink" width="270" height="135" viewBox="0 0 270 135"><defs><clipPath id="clip-path"><rect id="Rectangle_12" data-name="Rectangle 12" width="270" height="135" transform="translate(283 3936)" fill="#ebebeb"></rect></clipPath></defs><g id="Mask_Group_1" data-name="Mask Group 1" transform="translate(-283 -3936)" clip-path="url(#clip-path)"><g id="microsoft-logo" transform="translate(298 3978)"><path id="Path_1" data-name="Path 1" d="M459.86,49.639V45.427h-5.23V38.879l-.176.054-4.913,1.5-.1.029v4.961H441.69V42.663a4.39,4.39,0,0,1,.855-2.929,3.015,3.015,0,0,1,2.4-.979,5.583,5.583,0,0,1,2.273.517l.193.086V34.923l-.091-.033a8.86,8.86,0,0,0-2.9-.388,8.515,8.515,0,0,0-4.121.99,7.044,7.044,0,0,0-2.828,2.8,8.333,8.333,0,0,0-1,4.1v3.039H432.82v4.212h3.642V67.383h5.228V49.639h7.754V60.915c0,4.644,2.191,7,6.511,7a10.681,10.681,0,0,0,2.22-.246,6.134,6.134,0,0,0,1.617-.513l.069-.041V62.862l-.213.141a3.661,3.661,0,0,1-1.051.458,3.994,3.994,0,0,1-1.033.176,2.8,2.8,0,0,1-2.225-.811A4.365,4.365,0,0,1,454.63,60V49.639h5.23Zm-38.716,14a5.546,5.546,0,0,1-4.448-1.869,7.936,7.936,0,0,1-1.6-5.278,8.249,8.249,0,0,1,1.6-5.418,5.458,5.458,0,0,1,4.405-1.9,5.375,5.375,0,0,1,4.29,1.815,8.088,8.088,0,0,1,1.566,5.374,8.623,8.623,0,0,1-1.473,5.441,5.244,5.244,0,0,1-4.34,1.834m.232-18.739c-3.62,0-6.5,1.061-8.546,3.153a11.824,11.824,0,0,0-3.088,8.608,11.2,11.2,0,0,0,3.014,8.217,10.935,10.935,0,0,0,8.09,3.036,11.154,11.154,0,0,0,8.377-3.2,11.792,11.792,0,0,0,3.087-8.522c0-3.491-.974-6.277-2.9-8.278a10.668,10.668,0,0,0-8.039-3.017m-20.064,0a9.452,9.452,0,0,0-6.056,1.872,5.973,5.973,0,0,0-2.36,4.871,6.816,6.816,0,0,0,.509,2.723,5.469,5.469,0,0,0,1.563,2.041,13.6,13.6,0,0,0,3.178,1.778,23.684,23.684,0,0,1,2.643,1.231,3.674,3.674,0,0,1,1.164.955,2.145,2.145,0,0,1,.324,1.245c0,1.475-1.1,2.193-3.378,2.193a9.285,9.285,0,0,1-2.858-.523,10.738,10.738,0,0,1-2.927-1.484l-.217-.156v5.034l.08.037a12.951,12.951,0,0,0,2.772.856,14.867,14.867,0,0,0,2.96.342,10.035,10.035,0,0,0,6.395-1.882,6.089,6.089,0,0,0,2.381-4.987,5.735,5.735,0,0,0-1.281-3.773,10.98,10.98,0,0,0-4.352-2.771,11.221,11.221,0,0,1-3.1-1.612,2.256,2.256,0,0,1-.625-1.691,1.884,1.884,0,0,1,.793-1.564A3.566,3.566,0,0,1,401.143,49a9.108,9.108,0,0,1,2.649.407,8.512,8.512,0,0,1,2.313,1.073l.214.146V45.855l-.082-.035a11.406,11.406,0,0,0-2.349-.655,14.337,14.337,0,0,0-2.575-.267M379.266,63.638a5.546,5.546,0,0,1-4.448-1.869,7.934,7.934,0,0,1-1.6-5.278,8.247,8.247,0,0,1,1.6-5.418,5.455,5.455,0,0,1,4.4-1.9,5.375,5.375,0,0,1,4.289,1.815,8.086,8.086,0,0,1,1.566,5.374,8.623,8.623,0,0,1-1.474,5.441,5.243,5.243,0,0,1-4.34,1.834M379.5,44.9c-3.621,0-6.5,1.061-8.546,3.153a11.824,11.824,0,0,0-3.089,8.608,11.2,11.2,0,0,0,3.015,8.217,10.934,10.934,0,0,0,8.09,3.036,11.155,11.155,0,0,0,8.378-3.2,11.793,11.793,0,0,0,3.087-8.522c0-3.491-.974-6.277-2.9-8.278A10.668,10.668,0,0,0,379.5,44.9m-19.571,4.331v-3.8h-5.165V67.383h5.165V56.152a7.828,7.828,0,0,1,1.287-4.664,3.949,3.949,0,0,1,3.34-1.764,6.064,6.064,0,0,1,1.553.228,3.928,3.928,0,0,1,1.2.487l.217.157V45.39l-.084-.036a5.347,5.347,0,0,0-2.022-.307,5.292,5.292,0,0,0-3.454,1.238,7,7,0,0,0-1.987,2.945ZM345.514,44.9a12.749,12.749,0,0,0-6.28,1.51,10.172,10.172,0,0,0-4.142,4.259,13.566,13.566,0,0,0-1.423,6.31,11.641,11.641,0,0,0,1.383,5.656,9.717,9.717,0,0,0,3.865,3.907,11.5,11.5,0,0,0,5.646,1.372,12.363,12.363,0,0,0,6.23-1.458l.068-.039V61.684l-.217.158a9.709,9.709,0,0,1-2.527,1.316,7.635,7.635,0,0,1-2.475.48,6.36,6.36,0,0,1-4.834-1.884,7.33,7.33,0,0,1-1.783-5.221,7.6,7.6,0,0,1,1.859-5.359,6.325,6.325,0,0,1,4.844-2,8.3,8.3,0,0,1,4.917,1.71l.217.157V46.056l-.07-.039a8.522,8.522,0,0,0-2.389-.808,14.272,14.272,0,0,0-2.887-.31m-15.4.529h-5.165V67.383h5.165Zm-2.529-9.353a3.111,3.111,0,0,0-2.2.863,2.847,2.847,0,0,0-.922,2.153,2.766,2.766,0,0,0,.912,2.112,3.145,3.145,0,0,0,2.21.841,3.185,3.185,0,0,0,2.22-.84,2.755,2.755,0,0,0,.924-2.112,2.9,2.9,0,0,0-.9-2.13,3.081,3.081,0,0,0-2.245-.886M314.7,43.807V67.383h5.271V36.746h-7.295L303.4,59.5l-9-22.756H286.81V67.383h4.953V43.805h.17l9.5,23.578h3.738l9.354-23.575Z" transform="translate(-220.362 -26.395)" fill="#706d6e"></path><path id="Path_2" data-name="Path 2" d="M24.3,24.3H0V0H24.3Z" fill="#f1511b"></path><path id="Path_3" data-name="Path 3" d="M140.083,24.3h-24.3V0h24.3Z" transform="translate(-88.962)" fill="#80cc28"></path><path id="Path_4" data-name="Path 4" d="M24.3,140.124H0v-24.3H24.3Z" transform="translate(0 -88.742)" fill="#00adef"></path><path id="Path_5" data-name="Path 5" d="M140.083,140.124h-24.3v-24.3h24.3Z" transform="translate(-88.962 -88.742)" fill="#fbbc09"></path></g></g></svg> 