<?xml version="1.0" encoding="UTF-8"?> <svg xmlns="http://www.w3.org/2000/svg" xmlns:xlink="http://www.w3.org/1999/xlink" width="60" height="60" viewBox="0 0 60 60"><defs><clipPath id="clip-path"><rect id="Rectangle_817" data-name="Rectangle 817" width="60" height="60" transform="translate(682 258)" fill="#fff" stroke="#707070" stroke-width="1"></rect></clipPath></defs><g id="Mask_Group_56" data-name="Mask Group 56" transform="translate(-682 -258)" clip-path="url(#clip-path)"><g id="Group_30" data-name="Group 30" transform="translate(3514.012 719.427)"><path id="Path_68" data-name="Path 68" d="M1258.268,190.4l1.086,2.039a6.153,6.153,0,0,0,.819,1.02,28.25,28.25,0,0,1,2.546,2.881,25,25,0,0,1,3.965,8,19.7,19.7,0,0,1,.842,5.427,19.161,19.161,0,0,1-5.591,14.135,15.81,15.81,0,0,1-2,1.7c-.376,0-.554-.287-.709-.554a4.564,4.564,0,0,1-.554-1.595,7.658,7.658,0,0,1-.178-2.014v-.31C1258.466,221.06,1258.135,190.557,1258.268,190.4Z" transform="translate(-4060.057 -646.717)" fill="#599636"></path><path id="Path_69" data-name="Path 69" d="M873.746,185.617c-.043-.089-.089-.023-.135.023a2.047,2.047,0,0,1-.376,1.22,5.813,5.813,0,0,1-.976.976,21.22,21.22,0,0,0-4.761,6.07,24.32,24.32,0,0,0-2.744,9.926,32.985,32.985,0,0,0,.8,7,21.19,21.19,0,0,0,5.562,8.751,24.88,24.88,0,0,0,1.969,1.686c.2,0,.221-.178.267-.31a5.9,5.9,0,0,0,.2-.862l.445-3.322Z" transform="translate(-3675.536 -642)" fill="#6cac48"></path><path id="Path_70" data-name="Path 70" d="M1232.152,1531.789a3.008,3.008,0,0,1,.554-1.35,1.4,1.4,0,0,1-.62-.575,4.07,4.07,0,0,1-.331-.732,12.637,12.637,0,0,1-.465-2.856v-.575a2.791,2.791,0,0,0-.135.954,22.031,22.031,0,0,1-.4,2.991,2.644,2.644,0,0,1-.356,1.152.423.423,0,0,0,.023.155,13.184,13.184,0,0,1,.575,3.591v.445c0,.532-.023.42.42.6a1.948,1.948,0,0,1,.554.221c.135,0,.155-.109.155-.2l-.066-.732v-2.039A5.42,5.42,0,0,1,1232.152,1531.789Z" transform="translate(-4032.856 -1951.556)" fill="#c2bfbf"></path><path id="Path_71" data-name="Path 71" d="M418.411,2136.3v.986a.649.649,0,0,0,.007.117.248.248,0,0,0,.189.221,2.527,2.527,0,0,0,.3.058c.058.007.077.033.084.1.007.221-.012.247-.226.233a12.774,12.774,0,0,0-1.5,0h-.047c-.156.007-.168-.007-.168-.163,0-.026.007-.058.007-.084a.07.07,0,0,1,.077-.072c.1-.011.2-.04.3-.058a.268.268,0,0,0,.226-.254,3.707,3.707,0,0,0,.019-.454l.007-1.738a.268.268,0,0,0-.142-.247,1.918,1.918,0,0,0-.37-.156.409.409,0,0,1-.109-.04c-.1-.047-.1-.131-.007-.182a.367.367,0,0,1,.109-.04,5.9,5.9,0,0,0,1.153-.291c.077-.025.1-.019.1.058a.531.531,0,0,1-.007.149,1.788,1.788,0,0,0-.012.247.088.088,0,0,0,.04.084c.033.019.065,0,.1-.019a3.39,3.39,0,0,1,.422-.284,2.008,2.008,0,0,1,.687-.254.965.965,0,0,1,.785.233,1.507,1.507,0,0,1,.247.284c.065.1.072.1.156.032a3.927,3.927,0,0,1,.785-.461,1.207,1.207,0,0,1,.888-.04,1.064,1.064,0,0,1,.636.615,1.745,1.745,0,0,1,.149.727v1.738a.251.251,0,0,0,.163.247,2.459,2.459,0,0,0,.389.1c.084.019.084.019.084.1-.012.214-.033.226-.24.214a13.422,13.422,0,0,0-1.561,0c-.1.007-.1.007-.109-.1v-.032c-.007-.175-.007-.175.163-.214l.168-.047a.262.262,0,0,0,.2-.254l.019-.487-.012-1.27a.947.947,0,0,0-.072-.331.794.794,0,0,0-.862-.5,1.473,1.473,0,0,0-.7.28.143.143,0,0,0-.072.135,10.071,10.071,0,0,1,.026,1.244v.9a.25.25,0,0,0,.221.28l.3.065c.047.007.072.026.072.077v.046c-.007.182-.019.189-.2.189-.519-.026-1.037-.019-1.549,0-.175.007-.189-.012-.182-.189.007-.1.019-.109.116-.13l.214-.04a.284.284,0,0,0,.273-.312l.019-.436-.012-1.3a1.024,1.024,0,0,0-.135-.466.681.681,0,0,0-.61-.375,1.363,1.363,0,0,0-.759.214.384.384,0,0,0-.221.4v.946Zm12.213.04v.913a1.761,1.761,0,0,0,.012.193.2.2,0,0,0,.156.182,1.534,1.534,0,0,0,.342.058c.065.007.077.033.084.084v.047c-.007.226-.033.254-.254.24a12.42,12.42,0,0,0-1.477,0l-.189.007c-.04,0-.047-.019-.058-.047a.672.672,0,0,1,0-.272c.007-.039.033-.047.072-.058.1-.012.175-.032.266-.047a.243.243,0,0,0,.226-.272l.019-.545v-1.6a.242.242,0,0,0-.149-.24,2.371,2.371,0,0,0-.37-.156.414.414,0,0,1-.109-.047.117.117,0,0,1-.012-.207.218.218,0,0,1,.13-.051,5.521,5.521,0,0,0,1.207-.312c.047-.019.065-.007.084.033a.225.225,0,0,1,.019.13l-.019.305c0,.04-.019.1.012.11s.065-.033.1-.047a2.841,2.841,0,0,1,.629-.4,1.285,1.285,0,0,1,.641-.142,1.087,1.087,0,0,1,.946.629,1.677,1.677,0,0,1,.168.647l.019.475.007,1.433a.22.22,0,0,0,.156.221,2.2,2.2,0,0,0,.349.084c.1.012.109.033.116.13v.033c-.012.221-.026.226-.247.214a13.7,13.7,0,0,0-1.451,0c-.065.007-.13,0-.189.007-.04,0-.065-.007-.072-.047a.738.738,0,0,1-.007-.259c.007-.04.026-.058.072-.065l.3-.047a.214.214,0,0,0,.175-.188l.012-.182-.007-1.356a2.235,2.235,0,0,0-.04-.466.757.757,0,0,0-.673-.6,1.228,1.228,0,0,0-.818.207.357.357,0,0,0-.175.324v.979c0-.019,0-.019.007-.019Z" transform="translate(-3238 -2546.168)" fill="#47474a"></path><path id="Path_72" data-name="Path 72" d="M1593.594,2051.959a2.544,2.544,0,0,0-.552-1.265,2.494,2.494,0,0,0-1-.738,3.59,3.59,0,0,0-1.284-.233c-.182-.007-2.658.032-2.84,0a.1.1,0,0,0-.1.047.662.662,0,0,0-.084.149c-.077.174-.077.163.109.189a3.6,3.6,0,0,1,.454.084.36.36,0,0,1,.266.272c.012.072.026,2.353.026,3.415l-.026.759a.646.646,0,0,1-.033.168.272.272,0,0,1-.149.175.79.79,0,0,1-.273.073c-.175.019-.2.025-.258.221l-.019.072c-.012.084-.007.1.077.1l1.938.019.759-.012.524-.065a3.259,3.259,0,0,0,1.582-.752,2.615,2.615,0,0,0,.622-.818,2.9,2.9,0,0,0,.28-1.16A2.191,2.191,0,0,0,1593.594,2051.959Zm-.939.92a2.575,2.575,0,0,1-.324,1.179,1.8,1.8,0,0,1-1.2.92,2.129,2.129,0,0,1-.711.04,2.173,2.173,0,0,1-.505-.1.541.541,0,0,1-.4-.568l-.007-3.909c0-.233.1-.284.272-.291a4.639,4.639,0,0,1,.764.011,2.936,2.936,0,0,1,.785.189,1.88,1.88,0,0,1,.512.317,2.26,2.26,0,0,1,.711,1.114,3.219,3.219,0,0,1,.1,1.083Zm6.327.636a.566.566,0,0,0-.007-.11,1.245,1.245,0,0,0-.538-.836,2.053,2.053,0,0,0-.622-.291c-.04-.012-.072-.025-.109-.032a.056.056,0,0,1,.047-.047,1.629,1.629,0,0,0,.364-.233,1.2,1.2,0,0,0,.4-.629,1.079,1.079,0,0,0,.026-.415,1.118,1.118,0,0,0-.473-.843,1.7,1.7,0,0,0-1.011-.317c-.7-.011-1.407,0-2.106,0a4.185,4.185,0,0,1-.61-.019c-.04-.007-.1-.019-.123.026a.914.914,0,0,0-.123.265c-.007.047.007.072.058.077l.447.065a.324.324,0,0,1,.312.28,3.025,3.025,0,0,1,.019.323l-.012,1.211-.007,2.4a2.153,2.153,0,0,1-.047.422.236.236,0,0,1-.168.193,1.327,1.327,0,0,1-.389.077.162.162,0,0,0-.168.109.93.93,0,0,0-.058.182c-.012.077.007.1.084.1.058-.007,2.2.047,2.6.007a3.748,3.748,0,0,0,.713-.131,2.448,2.448,0,0,0,1.083-.636,1.385,1.385,0,0,0,.4-.934A1.179,1.179,0,0,0,1598.982,2053.515Zm-3.145-2.658.019-.52a.145.145,0,0,1,.135-.163,1.852,1.852,0,0,1,.466-.012,2.281,2.281,0,0,1,.461.077.969.969,0,0,1,.636.52.929.929,0,0,1,.091.4,1.258,1.258,0,0,1-.077.531.708.708,0,0,1-.538.44,8.964,8.964,0,0,1-1.083.026c-.1,0-.1-.012-.1-.109v-.61a4.278,4.278,0,0,1-.007-.571Zm2.106,3.487a1,1,0,0,1-.6.6,1.126,1.126,0,0,1-.475.084,3.757,3.757,0,0,1-.6-.04.561.561,0,0,1-.415-.506c-.033-.331-.012-.668-.019-.913v-.855c0-.1.012-.135.124-.135l.61.007.415.047a1.4,1.4,0,0,1,.764.4,1.06,1.06,0,0,1,.28.641,1.452,1.452,0,0,1-.077.661Z" transform="translate(-4381.988 -2463.623)" fill="#c2bfbf"></path><path id="Path_73" data-name="Path 73" d="M764.972,2134.683l.168.025a.419.419,0,0,0,.461-.312.669.669,0,0,0,0-.371c-.04,0-.058.033-.077.047a.622.622,0,0,1-.324.135,1.5,1.5,0,0,1-.694-.072l-.317-.11a1.91,1.91,0,0,0-.687-.091,2.375,2.375,0,0,0-.934.291,1.265,1.265,0,0,0-.636.764,1.52,1.52,0,0,0-.04.615,1.15,1.15,0,0,0,.752.979c.026.007.047.018.072.026.058.032.065.065.012.11l-.163.109-.389.24a.145.145,0,0,0-.077.208.693.693,0,0,0,.207.313,1.07,1.07,0,0,0,.3.182c.072.032.072.047.007.1l-.37.265a2.116,2.116,0,0,0-.349.312.637.637,0,0,0-.156.582,1.082,1.082,0,0,0,.338.583,1.361,1.361,0,0,0,.6.324,2.541,2.541,0,0,0,2.469-.692,1.412,1.412,0,0,0,.415-.948.909.909,0,0,0-.7-.945l-.349-.066-1.069-.1a.719.719,0,0,1-.331-.084.22.22,0,0,1-.077-.324.309.309,0,0,1,.221-.123l.207-.018a1.879,1.879,0,0,0,1.095-.5,1.15,1.15,0,0,0,.331-.552,1.731,1.731,0,0,0,.012-.852c-.019-.072-.012-.077.077-.065Zm-1.589,3.229a.64.64,0,0,0,.116,0,3.743,3.743,0,0,1,.818.1,1.688,1.688,0,0,1,.254.1.622.622,0,0,1,.324.654.823.823,0,0,1-.454.636,1.4,1.4,0,0,1-.552.156,1.958,1.958,0,0,1-.207,0,1.537,1.537,0,0,1-.662-.109,1.022,1.022,0,0,1-.382-.259.667.667,0,0,1,.007-.978A.941.941,0,0,1,763.383,2137.911Zm.741-2.022a.632.632,0,0,1-.731.4.781.781,0,0,1-.6-.436,1.391,1.391,0,0,1-.116-1.03.637.637,0,0,1,.519-.513.794.794,0,0,1,.895.429,1.408,1.408,0,0,1,.135.694A1.479,1.479,0,0,1,764.124,2135.889Zm-8.167-.443a1.8,1.8,0,0,0-.429-.934,1.713,1.713,0,0,0-1.323-.571,2.274,2.274,0,0,0-1.244.356,1.693,1.693,0,0,0-.759.992,2.256,2.256,0,0,0-.019,1.142,1.729,1.729,0,0,0,1.964,1.4,2.139,2.139,0,0,0,.8-.233,1.756,1.756,0,0,0,.836-.823,2.12,2.12,0,0,0,.207-1Zm-.92,1.44a.788.788,0,0,1-.669.545,1.081,1.081,0,0,1-.79-.2,1.349,1.349,0,0,1-.408-.487,2.474,2.474,0,0,1-.175-1.7.961.961,0,0,1,.273-.473.881.881,0,0,1,.829-.207,1.18,1.18,0,0,1,.71.473,1.857,1.857,0,0,1,.324.829,3.767,3.767,0,0,1,.033.4,2.162,2.162,0,0,1-.124.818Zm15.083-1.386a1.753,1.753,0,0,0-.454-1,1.733,1.733,0,0,0-1.309-.552,2.309,2.309,0,0,0-1.207.331,1.651,1.651,0,0,0-.811,1.069,2.261,2.261,0,0,0,.156,1.542,1.58,1.58,0,0,0,1.058.876,2.13,2.13,0,0,0,1.53-.163,1.785,1.785,0,0,0,.908-.971,2.389,2.389,0,0,0,.149-.862A1.826,1.826,0,0,0,770.12,2135.5Zm-.894,1.3a.807.807,0,0,1-.694.629,1.069,1.069,0,0,1-.764-.182,1.322,1.322,0,0,1-.447-.531,1.99,1.99,0,0,1-.207-.713,2.483,2.483,0,0,1,.033-.908.9.9,0,0,1,.058-.175.873.873,0,0,1,1.058-.557,1.187,1.187,0,0,1,.738.513,1.919,1.919,0,0,1,.3.853,1.779,1.779,0,0,1,.019.363,2.174,2.174,0,0,1-.1.713Z" transform="translate(-3565.486 -2545.913)" fill="#47474a"></path></g></g></svg> 