<?xml version="1.0" encoding="UTF-8"?> <svg xmlns="http://www.w3.org/2000/svg" xmlns:xlink="http://www.w3.org/1999/xlink" width="60" height="60" viewBox="0 0 60 60"><defs><clipPath id="clip-path"><rect id="Rectangle_815" data-name="Rectangle 815" width="60" height="60" transform="translate(324 262)" fill="#fff" stroke="#707070" stroke-width="1"></rect></clipPath><linearGradient id="linear-gradient" x1="0.682" y1="0.175" x2="0.278" y2="0.898" gradientUnits="objectBoundingBox"><stop offset="0" stop-color="#41873f"></stop><stop offset="0.329" stop-color="#418b3d"></stop><stop offset="0.635" stop-color="#419637"></stop><stop offset="0.932" stop-color="#3fa92d"></stop><stop offset="1" stop-color="#3fae2a"></stop></linearGradient><linearGradient id="linear-gradient-2" x1="0.433" y1="0.552" x2="1.592" y2="-0.183" gradientUnits="objectBoundingBox"><stop offset="0.138" stop-color="#41873f"></stop><stop offset="0.403" stop-color="#54a044"></stop><stop offset="0.714" stop-color="#66b848"></stop><stop offset="0.908" stop-color="#6cc04a"></stop></linearGradient><linearGradient id="linear-gradient-3" x1="-44.138" y1="0.134" x2="53.279" y2="0.134" gradientUnits="objectBoundingBox"><stop offset="0.092" stop-color="#6cc04a"></stop><stop offset="0.286" stop-color="#66b848"></stop><stop offset="0.597" stop-color="#54a044"></stop><stop offset="0.862" stop-color="#41873f"></stop></linearGradient><linearGradient id="linear-gradient-4" x1="-0.044" y1="0.5" x2="1.015" y2="0.5" xlink:href="#linear-gradient-3"></linearGradient><linearGradient id="linear-gradient-5" x1="-97.138" y1="0.362" x2="0.279" y2="0.362" xlink:href="#linear-gradient-3"></linearGradient><linearGradient id="linear-gradient-6" x1="-1.039" y1="0.503" x2="1.008" y2="0.503" xlink:href="#linear-gradient-3"></linearGradient><linearGradient id="linear-gradient-7" x1="1.306" y1="-2.111" x2="0.044" y2="2.016" xlink:href="#linear-gradient"></linearGradient></defs><g id="Mask_Group_53" data-name="Mask Group 53" transform="translate(-324 -262)" clip-path="url(#clip-path)"><g id="nodejs-1" transform="translate(326.769 276)"><path id="Path_52" data-name="Path 52" d="M203.086,200.357a1.053,1.053,0,0,1-.5-.132l-1.6-.948c-.24-.132-.12-.18-.048-.2a2.911,2.911,0,0,0,.72-.324.11.11,0,0,1,.12.012l1.224.732a.153.153,0,0,0,.144,0l4.79-2.773a.138.138,0,0,0,.072-.132v-5.534a.138.138,0,0,0-.072-.132l-4.79-2.761a.152.152,0,0,0-.144,0l-4.79,2.761a.151.151,0,0,0-.072.132v5.534a.151.151,0,0,0,.072.132l1.309.756c.708.36,1.152-.06,1.152-.48v-5.462a.146.146,0,0,1,.144-.144h.612a.146.146,0,0,1,.144.144V197a1.331,1.331,0,0,1-1.417,1.5,2.059,2.059,0,0,1-1.1-.3l-1.26-.72a1.013,1.013,0,0,1-.5-.876v-5.534a1.013,1.013,0,0,1,.5-.876l4.79-2.773a1.072,1.072,0,0,1,1.008,0l4.79,2.773a1.013,1.013,0,0,1,.5.876V196.6a1.013,1.013,0,0,1-.5.876l-4.79,2.773a1.228,1.228,0,0,1-.5.108Zm1.477-3.805c-2.1,0-2.533-.96-2.533-1.777a.146.146,0,0,1,.144-.144h.624a.123.123,0,0,1,.132.12c.1.636.372.948,1.645.948,1.008,0,1.441-.228,1.441-.768,0-.312-.12-.54-1.693-.7-1.308-.132-2.125-.42-2.125-1.464,0-.972.816-1.549,2.185-1.549,1.536,0,2.293.528,2.389,1.681a.194.194,0,0,1-.036.108.149.149,0,0,1-.1.048h-.624a.14.14,0,0,1-.132-.108c-.144-.66-.516-.876-1.5-.876-1.1,0-1.236.384-1.236.672,0,.348.156.456,1.645.648s2.173.468,2.173,1.5C206.951,195.952,206.087,196.552,204.562,196.552Z" transform="translate(-176.59 -167.838)" fill="#539e43"></path><path id="Path_53" data-name="Path 53" d="M11.635,10.876a.611.611,0,0,0-.312-.528L6.233,7.418a.739.739,0,0,0-.276-.084H5.909a.57.57,0,0,0-.276.084L.543,10.347a.611.611,0,0,0-.312.528L.243,18.75a.3.3,0,0,0,.156.264.272.272,0,0,0,.3,0l3.025-1.729a.611.611,0,0,0,.312-.528V13.072a.611.611,0,0,1,.312-.528L5.633,11.8a.582.582,0,0,1,.312-.084.516.516,0,0,1,.3.084l1.284.744a.61.61,0,0,1,.312.528v3.685a.611.611,0,0,0,.312.528l3.025,1.729a.293.293,0,0,0,.312,0,.3.3,0,0,0,.156-.264l-.012-7.875ZM36.1.036a.33.33,0,0,0-.3,0A.313.313,0,0,0,35.644.3V8.1a.216.216,0,0,1-.324.192l-1.272-.732a.619.619,0,0,0-.612,0L28.345,10.5a.611.611,0,0,0-.312.528V16.9a.611.611,0,0,0,.312.528l5.09,2.941a.619.619,0,0,0,.612,0l5.09-2.941a.611.611,0,0,0,.312-.528V2.269a.616.616,0,0,0-.312-.54L36.1.036Zm-.468,14.933a.138.138,0,0,1-.072.132l-1.741,1.008a.178.178,0,0,1-.156,0L31.922,15.1a.15.15,0,0,1-.072-.132V12.952a.138.138,0,0,1,.072-.132l1.741-1.008a.178.178,0,0,1,.156,0L35.56,12.82a.15.15,0,0,1,.072.132v2.017ZM53.038,12.9a.6.6,0,0,0,.3-.528V10.948a.625.625,0,0,0-.3-.528L47.984,7.491a.619.619,0,0,0-.612,0l-5.09,2.941a.611.611,0,0,0-.312.528v5.87a.611.611,0,0,0,.312.528l5.054,2.881a.6.6,0,0,0,.6,0L51,18.534a.3.3,0,0,0,0-.528l-5.114-2.941a.313.313,0,0,1-.156-.264V12.965a.3.3,0,0,1,.156-.264l1.6-.912a.293.293,0,0,1,.312,0l1.6.912a.313.313,0,0,1,.156.264v1.441a.3.3,0,0,0,.156.264.293.293,0,0,0,.312,0L53.038,12.9Z" transform="translate(0 0)" fill="#333"></path><path id="Path_54" data-name="Path 54" d="M447.385,121.431a.109.109,0,0,1,.12,0l.972.564a.126.126,0,0,1,.06.108v1.128a.126.126,0,0,1-.06.108l-.972.564a.109.109,0,0,1-.12,0l-.972-.564a.126.126,0,0,1-.06-.108V122.1a.126.126,0,0,1,.06-.108Z" transform="translate(-399.786 -108.803)" fill="#539e43"></path><g id="Group_29" data-name="Group 29" transform="translate(14.132 6.446)"><path id="Path_55" data-name="Path 55" d="M6.428,1.151a.619.619,0,0,0-.612,0L.762,4.068a.6.6,0,0,0-.3.528v5.846a.625.625,0,0,0,.3.528l5.054,2.917a.619.619,0,0,0,.612,0l5.054-2.917a.6.6,0,0,0,.3-.528V4.6a.626.626,0,0,0-.3-.528Z" transform="translate(-0.414 -0.083)" fill="url(#linear-gradient)"></path><g id="Group_27" data-name="Group 27" transform="translate(0 0.985)"><path id="Path_56" data-name="Path 56" d="M5.39,1.134.324,4.051A.623.623,0,0,0,0,4.579v5.846a.578.578,0,0,0,.156.384l5.69-9.748a.686.686,0,0,0-.456.072Zm.492,12.8a.738.738,0,0,0,.144-.06l5.066-2.917a.611.611,0,0,0,.312-.528V4.579a.611.611,0,0,0-.18-.42L5.882,13.93Z" transform="translate(0 -1.051)" fill="none"></path><path id="Path_57" data-name="Path 57" d="M12.426,4.249,7.348,1.332a.834.834,0,0,0-.156-.06L1.5,11.02a.632.632,0,0,0,.168.144l5.078,2.917a.585.585,0,0,0,.468.06l5.342-9.771a.63.63,0,0,0-.132-.12Z" transform="translate(-1.346 -1.249)" fill="url(#linear-gradient-2)"></path></g><g id="Group_28" data-name="Group 28" transform="translate(0 0)"><path id="Path_58" data-name="Path 58" d="M11.4,10.52V4.674a.623.623,0,0,0-.324-.528L6,1.229a.53.53,0,0,0-.192-.072l5.558,9.5a.242.242,0,0,0,.036-.132ZM.324,4.146A.623.623,0,0,0,0,4.674V10.52a.649.649,0,0,0,.324.528L5.4,13.966a.565.565,0,0,0,.4.072L.36,4.134l-.036.012Z" transform="translate(0 -0.161)" fill="none"></path><path id="Path_59" data-name="Path 59" d="M49.77.809,49.7.845h.1Z" transform="translate(-44.536 -0.809)" fill-rule="evenodd" fill="url(#linear-gradient-3)"></path><path id="Path_60" data-name="Path 60" d="M14.095,20.2a.683.683,0,0,0,.3-.384l-5.57-9.507a.61.61,0,0,0-.432.072L3.351,13.285,8.789,23.2a.837.837,0,0,0,.228-.072L14.095,20.2Z" transform="translate(-3.003 -9.311)" fill-rule="evenodd" fill="url(#linear-gradient-4)"></path><path id="Path_61" data-name="Path 61" d="M110.989,104.194l-.036-.06v.084l.036-.024Z" transform="translate(-99.429 -93.402)" fill-rule="evenodd" fill="url(#linear-gradient-5)"></path><path id="Path_62" data-name="Path 62" d="M61.117,102.218l-5.066,2.917a.724.724,0,0,1-.228.072l.1.18,5.618-3.253v-.072l-.144-.24A.558.558,0,0,1,61.117,102.218Z" transform="translate(-50.025 -91.33)" fill-rule="evenodd" fill="url(#linear-gradient-6)"></path><path id="Path_63" data-name="Path 63" d="M61.117,102.218l-5.066,2.917a.724.724,0,0,1-.228.072l.1.18,5.618-3.253v-.072l-.144-.24A.558.558,0,0,1,61.117,102.218Z" transform="translate(-50.025 -91.33)" fill-rule="evenodd" fill="url(#linear-gradient-7)"></path></g></g></g></g></svg> 