<?xml version="1.0" encoding="UTF-8"?> <svg xmlns="http://www.w3.org/2000/svg" xmlns:xlink="http://www.w3.org/1999/xlink" width="90" height="90" viewBox="0 0 90 90"><defs><clipPath id="clip-path"><rect id="Rectangle_68" data-name="Rectangle 68" width="90" height="90" transform="translate(475 164)" fill="#fff" stroke="#707070" stroke-width="1"></rect></clipPath></defs><g id="Mask_Group_4" data-name="Mask Group 4" transform="translate(-475 -164)" clip-path="url(#clip-path)"><g id="Group_58" data-name="Group 58" transform="translate(-42.493 135.968)"><path id="Path_27" data-name="Path 27" d="M133.713,209.332l-5.264-.5a4.061,4.061,0,0,1-.251-.585l3.342-4.094a3.958,3.958,0,0,0-.251-5.264l-3.759-3.759a3.958,3.958,0,0,0-5.264-.251l-4.094,3.342a4.06,4.06,0,0,0-.585-.251l-.417-5.179a3.908,3.908,0,0,0-3.927-3.509H107.98a3.969,3.969,0,0,0-3.927,3.509l-.5,5.264a4.06,4.06,0,0,1-.585.251l-4.094-3.342a3.958,3.958,0,0,0-5.264.251l-3.759,3.759a3.958,3.958,0,0,0-.251,5.264l3.342,4.094a4.063,4.063,0,0,0-.251.585l-5.264.5A3.706,3.706,0,0,0,84,213.259v5.264a3.969,3.969,0,0,0,3.509,3.927l5.264.5a4.06,4.06,0,0,1,.251.585l-3.342,4.094a3.958,3.958,0,0,0,.251,5.264l3.759,3.759a3.958,3.958,0,0,0,5.264.251l4.094-3.342a4.062,4.062,0,0,0,.585.251l.5,5.264a3.85,3.85,0,0,0,3.927,3.509h5.264a3.969,3.969,0,0,0,3.927-3.509l.5-5.264a4.06,4.06,0,0,1,.585-.251l4.094,3.342a3.958,3.958,0,0,0,5.264-.251l3.759-3.759a3.958,3.958,0,0,0,.251-5.264l-3.342-4.094a4.062,4.062,0,0,0,.251-.585l5.264-.5a3.908,3.908,0,0,0,3.509-3.927v-5.264a4.062,4.062,0,0,0-3.678-3.927Zm-6.517,9.775a2.5,2.5,0,0,0-2.172,1.755l-.752,1.755a2.547,2.547,0,0,0,.334,2.757l3.927,4.678-3.676,3.676-4.762-3.927a2.546,2.546,0,0,0-2.757-.334l-1.755.752a2.774,2.774,0,0,0-1.755,2.172l-.585,6.1-5.264.083-.585-6.1a2.5,2.5,0,0,0-1.755-2.172,15.871,15.871,0,0,1-1.755-.752,2.665,2.665,0,0,0-1.17-.251,2.205,2.205,0,0,0-1.588.585l-4.676,3.843-3.676-3.592,3.927-4.762a2.546,2.546,0,0,0,.334-2.757l-.752-1.755a2.774,2.774,0,0,0-2.172-1.755l-6.1-.585-.083-5.264,6.1-.585a2.5,2.5,0,0,0,2.172-1.755l.752-1.755a2.547,2.547,0,0,0-.334-2.757l-3.843-4.677,3.676-3.759,4.762,3.927a2.546,2.546,0,0,0,2.757.334l1.755-.752a2.774,2.774,0,0,0,1.755-2.172l.585-6.1,5.264-.083.585,6.1a2.5,2.5,0,0,0,1.755,2.172,15.875,15.875,0,0,1,1.755.752,2.547,2.547,0,0,0,2.757-.334l4.678-3.927,3.759,3.676-3.927,4.762a2.721,2.721,0,0,0-.334,2.757l.752,1.755a2.774,2.774,0,0,0,2.172,1.755l6.1.585.083,5.18Z" transform="translate(438.49 -130.014)" fill="#1b54f8" stroke="#fff" stroke-width="2"></path><path id="Path_28" data-name="Path 28" d="M207.371,302.4a9.692,9.692,0,1,0,9.692,9.691A9.7,9.7,0,0,0,207.371,302.4Zm0,15.456a5.765,5.765,0,1,1,5.765-5.765A5.776,5.776,0,0,1,207.371,317.856Z" transform="translate(341.773 -226.257)" fill="#1b54f8" stroke="#fff" stroke-width="2"></path><path id="Path_29" data-name="Path 29" d="M335.887,33.571l-5.264-.5a4.056,4.056,0,0,1-.251-.585l3.342-4.094a3.958,3.958,0,0,0-.251-5.264L329.7,19.367a3.958,3.958,0,0,0-5.264-.251l-4.094,3.342a4.061,4.061,0,0,0-.585-.251l-.5-5.264a3.85,3.85,0,0,0-3.927-3.509H310.07a3.969,3.969,0,0,0-3.927,3.509l-.417,5.348a4.059,4.059,0,0,1-.585.251L301.048,19.2a3.958,3.958,0,0,0-5.264.251l-3.759,3.759a3.958,3.958,0,0,0-.251,5.264l3.342,4.094c-.167.5-.418.919-.585,1.42a1.981,1.981,0,1,0,3.759,1.254l.752-1.755a2.547,2.547,0,0,0-.334-2.757l-3.927-4.678,3.676-3.759,4.762,3.927a2.546,2.546,0,0,0,2.757.334l1.755-.752a2.774,2.774,0,0,0,1.755-2.172l.585-6.1,5.264-.083.585,6.1a2.5,2.5,0,0,0,1.755,2.172,15.868,15.868,0,0,1,1.755.752,2.547,2.547,0,0,0,2.757-.334l4.678-3.927,3.759,3.676L326.7,30.648a2.546,2.546,0,0,0-.334,2.757l.752,1.755a2.774,2.774,0,0,0,2.172,1.755l6.1.585.083,5.264-6.1.585A2.5,2.5,0,0,0,327.2,45.1l-.752,1.755a2.547,2.547,0,0,0,.334,2.757l3.927,4.678-3.676,3.759-4.762-3.927a2.546,2.546,0,0,0-2.757-.334l-1.755.752a1.981,1.981,0,1,0,1.254,3.759,10.144,10.144,0,0,0,1.42-.585l4.094,3.342a4.028,4.028,0,0,0,2.507.919,3.932,3.932,0,0,0,2.757-1.17l3.759-3.759a3.958,3.958,0,0,0,.251-5.264l-3.342-4.094a4.063,4.063,0,0,0,.251-.585l5.264-.5a3.85,3.85,0,0,0,3.509-3.927V37.416a4.1,4.1,0,0,0-3.593-3.845Z" transform="translate(262.465 19.597)" fill="#1b54f8" stroke="#fff" stroke-width="2"></path><path id="Path_30" data-name="Path 30" d="M392.7,137.371a9.7,9.7,0,0,0-9.692-9.692,9.526,9.526,0,0,0-9.524,8.522,1.974,1.974,0,0,0,3.927.417,5.658,5.658,0,0,1,11.279.668,5.616,5.616,0,0,1-5.013,5.6,1.921,1.921,0,0,0-1.755,2.172,2,2,0,0,0,2.005,1.755h.251a9.32,9.32,0,0,0,8.523-9.44Z" transform="translate(192.202 -77.603)" fill="#1b54f8" stroke="#fff" stroke-width="2"></path></g></g></svg> 