<?xml version="1.0" encoding="UTF-8"?> <svg xmlns="http://www.w3.org/2000/svg" xmlns:xlink="http://www.w3.org/1999/xlink" id="Group_45" data-name="Group 45" width="1920" height="678" viewBox="0 0 1920 678"><defs><clipPath id="clip-path"><rect id="Rectangle_22" data-name="Rectangle 22" width="148" height="148" transform="translate(558.404 707.182)" fill="#fff" opacity="0.9"></rect></clipPath><clipPath id="clip-path-2"><rect id="Rectangle_28" data-name="Rectangle 28" width="148" height="148" transform="translate(926 842)" fill="#fff"></rect></clipPath><clipPath id="clip-path-3"><rect id="Rectangle_25" data-name="Rectangle 25" width="148" height="148" transform="translate(1341 707)" fill="#fff" opacity="0.9"></rect></clipPath><clipPath id="clip-path-4"><rect id="Rectangle_26" data-name="Rectangle 26" width="148" height="148" transform="translate(1612 707)" fill="#fff" opacity="0.9"></rect></clipPath><clipPath id="clip-path-5"><rect id="Rectangle_29" data-name="Rectangle 29" width="148" height="148" transform="translate(348 870)" fill="#fff"></rect></clipPath></defs><rect id="Rectangle_30" data-name="Rectangle 30" width="1920" height="678" fill="#fff" opacity="0"></rect><g id="Group_44" data-name="Group 44" transform="translate(4 -16)"><g id="Group_41" data-name="Group 41"><path id="Path_48" data-name="Path 48" d="M549.109,52.591,262.377,339.323a72.775,72.775,0,0,1-102.915,0L.707,180.569,159.462,21.814a72.775,72.775,0,0,1,102.915,0L372.1,131.539" transform="translate(38.293 174.091)" fill="none" stroke="#051c2c" stroke-width="2"></path><path id="Path_49" data-name="Path 49" d="M221.58,14.289a3.188,3.188,0,0,1,3.9,3.9l-4.162,15.529-4.159,15.529a3.189,3.189,0,0,1-5.335,1.43L200.462,39.312,189.092,27.945a3.189,3.189,0,0,1,1.43-5.335l15.529-4.159Z" transform="translate(375.51 198.695)" fill="#001e2e" stroke="#001e2e" stroke-width="1"></path><path id="Path_50" data-name="Path 50" d="M126.9,180.569,285.655,21.814a72.775,72.775,0,0,1,102.915,0L498.3,131.539" transform="translate(265.311 174.091)" fill="none" stroke="#051c2c" stroke-width="2"></path><path id="Path_51" data-name="Path 51" d="M636.045,19.111,349.313,305.843a72.775,72.775,0,0,1-102.915,0l-97.676-97.676" transform="translate(304.568 207.571)" fill="none" stroke="#051c2c" stroke-width="2"></path><path id="Path_52" data-name="Path 52" d="M347.773,14.289a3.188,3.188,0,0,1,3.9,3.9l-4.162,15.529-4.159,15.529a3.189,3.189,0,0,1-5.335,1.43L326.655,39.312,315.285,27.945a3.189,3.189,0,0,1,1.43-5.335l15.529-4.159Z" transform="translate(602.527 198.695)" fill="#001d2d" stroke="#051c2c" stroke-width="1"></path><path id="Path_53" data-name="Path 53" d="M253.093,180.569,411.848,21.814a72.774,72.774,0,0,1,102.915,0L624.489,131.539" transform="translate(492.328 174.091)" fill="none" stroke="#051c2c" stroke-width="2"></path><path id="Path_54" data-name="Path 54" d="M762.238,19.111,475.506,305.843a72.775,72.775,0,0,1-102.915,0l-97.676-97.676" transform="translate(531.585 207.571)" fill="none" stroke="#051c2c" stroke-width="2"></path><path id="Path_55" data-name="Path 55" d="M473.966,14.289a3.188,3.188,0,0,1,3.9,3.9l-4.162,15.529-4.159,15.529a3.189,3.189,0,0,1-5.335,1.43L452.848,39.312,441.478,27.945a3.189,3.189,0,0,1,1.43-5.335l15.529-4.159Z" transform="translate(829.545 198.695)" fill="#001e2e" stroke="#051c2c" stroke-width="1"></path><path id="Path_56" data-name="Path 56" d="M379.286,180.569,538.041,21.814a72.775,72.775,0,0,1,102.915,0L750.682,131.539" transform="translate(719.346 174.091)" fill="none" stroke="#051c2c" stroke-width="2"></path><path id="Path_57" data-name="Path 57" d="M888.431,19.111,601.7,305.843a72.775,72.775,0,0,1-102.915,0l-97.676-97.676" transform="translate(758.603 207.571)" fill="none" stroke="#051c2c" stroke-width="2"></path><path id="Path_58" data-name="Path 58" d="M600.159,14.289a3.188,3.188,0,0,1,3.9,3.9L599.9,33.722l-4.159,15.529a3.189,3.189,0,0,1-5.335,1.43L579.041,39.312,567.671,27.945a3.189,3.189,0,0,1,1.43-5.335l15.529-4.159Z" transform="translate(1056.563 198.695)" fill="#001e2e" stroke="#001e2e" stroke-width="1"></path><path id="Path_59" data-name="Path 59" d="M635.883,180.569,794.638,21.814a72.775,72.775,0,0,1,102.915,0l158.755,158.755L897.553,339.323a72.775,72.775,0,0,1-102.915,0L684.913,229.6" transform="translate(815.959 174.091)" fill="none" stroke="#051c2c" stroke-width="2"></path><path id="Path_60" data-name="Path 60" d="M51,107.213,79.174,135.39a58.378,58.378,0,0,0,82.558,0l28.177-28.177Z" transform="translate(128.763 366.064)" fill="#c8d9ff"></path><path id="Path_61" data-name="Path 61" d="M177.2,107.213l28.177,28.177a58.378,58.378,0,0,0,82.558,0l28.177-28.177Z" transform="translate(355.793 366.064)" fill="#c8d9ff"></path><path id="Path_62" data-name="Path 62" d="M303.4,107.213l28.177,28.177a58.378,58.378,0,0,0,82.558,0l28.177-28.177Z" transform="translate(582.825 366.064)" fill="#c8d9ff"></path><path id="Path_63" data-name="Path 63" d="M429.6,107.213l28.177,28.177a58.378,58.378,0,0,0,82.559,0l28.177-28.177Z" transform="translate(809.857 366.064)" fill="#c8d9ff"></path><path id="Path_103" data-name="Path 103" d="M429.6,107.213l28.177,28.177a58.378,58.378,0,0,0,82.559,0l28.177-28.177Z" transform="translate(1163.09 366.064)" fill="#c8d9ff"></path></g><text id="_1" data-name="1" transform="translate(227.374 135)" fill="#001d2d" font-size="56" font-family="OpenSans, Open Sans"><tspan x="0" y="0">1</tspan></text><text id="_2" data-name="2" transform="translate(579.374 135)" fill="#001d2d" font-size="56" font-family="OpenSans, Open Sans"><tspan x="0" y="0">2</tspan></text><text id="_3" data-name="3" transform="translate(931.374 135)" fill="#001d2d" font-size="56" font-family="OpenSans, Open Sans"><tspan x="0" y="0">3</tspan></text><text id="_4" data-name="4" transform="translate(1283.374 135)" fill="#001d2d" font-size="56" font-family="OpenSans, Open Sans"><tspan x="0" y="0">4</tspan></text><text id="_5" data-name="5" transform="translate(1635.374 135)" fill="#001d2d" font-size="56" font-family="OpenSans, Open Sans"><tspan x="0" y="0">5</tspan></text><text id="Requirement_Gathering" data-name="Requirement Gathering" transform="translate(230 596)" fill="#001d2d" font-size="24" font-family="OpenSans, Open Sans"><tspan x="-72" y="0">Requirement</tspan><tspan x="-55" y="33">Gathering</tspan></text><text id="Strategy_and_Consulting" data-name="Strategy and Consulting" transform="translate(579 596)" fill="#001d2d" font-size="24" font-family="OpenSans, Open Sans"><tspan x="-70" y="0">Strategy and</tspan><tspan x="-59" y="33">Consulting</tspan></text><text id="Design_and_Testing" data-name="Design and Testing" transform="translate(855 596)" fill="#001d2d" font-size="24" font-family="OpenSans, Open Sans"><tspan x="0" y="0">Design and Testing</tspan></text><text id="Integration_and_Optimization" data-name="Integration and Optimization" transform="translate(1299 596)" fill="#001d2d" font-size="24" font-family="OpenSans, Open Sans"><tspan x="-85" y="0">Integration and</tspan><tspan x="-72" y="33">Optimization</tspan></text><text id="Delivery_and_Deployment" data-name="Delivery and Deployment" transform="translate(1661 596)" fill="#001d2d" font-size="24" font-family="OpenSans, Open Sans"><tspan x="-69" y="0">Delivery and</tspan><tspan x="-68" y="33">Deployment</tspan></text><g id="Mask_Group_2" data-name="Mask Group 2" transform="translate(327.596 -416.182)" clip-path="url(#clip-path)"><g id="Group_32" data-name="Group 32" transform="translate(562.953 715.247)"><path id="Path_74" data-name="Path 74" d="M235.636,38.911a1.659,1.659,0,0,0-1.708-1.725H97.948a1.659,1.659,0,0,0-1.707,1.725V147.418a1.743,1.743,0,0,0,1.707,1.824h47.586l-5,17.725h-8.706a1.8,1.8,0,1,0,0,3.6h68.213a1.8,1.8,0,1,0,0-3.6h-8.707l-5-17.725h47.586a1.742,1.742,0,0,0,1.708-1.824Zm-135.79,1.88H232.03v82.315H191.173V55.5a1.84,1.84,0,0,0-1.856-1.791H167.592a1.672,1.672,0,0,0-1.654,1.791v67.606h-3.927l.065-51.234a1.82,1.82,0,0,0-.19-.811L153.028,53.3h0a1.8,1.8,0,0,0-3.226,0l-8.857,17.755a1.857,1.857,0,0,0-.19.817l.067,51.231H99.845Zm69.7,72.1h2.4a1.8,1.8,0,0,0,0-3.605h-2.4v-6.008h5.528a1.8,1.8,0,0,0,0-3.6h-5.528V93.664h2.389a1.8,1.8,0,0,0,0-3.605h-2.389V84.051h5.528a1.8,1.8,0,0,0,0-3.6h-5.528V74.738h2.4a1.8,1.8,0,0,0,0-3.605h-2.4V65.125h5.517a1.8,1.8,0,1,0,0-3.605h-5.517V57.314h18.025V123.1H169.543ZM144.365,73.537h14.1l-.053,41.156h-14Zm1.108-3.605,5.944-11.915,5.943,11.915ZM144.428,123.1l-.006-4.807h13.991l-.006,4.807Zm43.167,43.862H144.282l5-17.725H182.6Zm44.436-21.33H99.847V126.71H232.03Z" transform="translate(-96.24 -37.185)" fill="#05f"></path></g></g><g id="Mask_Group_7" data-name="Mask Group 7" transform="translate(-757 -551)" clip-path="url(#clip-path-2)"><g id="Group_42" data-name="Group 42" transform="translate(719.67 -15)"><path id="Path_104" data-name="Path 104" d="M166.34,273.657a2.241,2.241,0,0,1-2.24-2.24V232.34a2.24,2.24,0,1,1,4.48,0v39.077A2.241,2.241,0,0,1,166.34,273.657Z" transform="translate(69.077 688.604)" fill="#05f" stroke="#fff" stroke-width="1"></path><path id="Path_105" data-name="Path 105" d="M327.68,183.35H313.267a2.24,2.24,0,0,1,0-4.48H325.44V89.07H231.93a2.24,2.24,0,0,1,0-4.48h95.75a2.241,2.241,0,0,1,2.24,2.24v94.281a2.24,2.24,0,0,1-2.24,2.239Z" transform="translate(20.276 796.867)" fill="#05f" stroke="#fff" stroke-width="1"></path><path id="Path_106" data-name="Path 106" d="M346.129,166.88H257.15a2.24,2.24,0,1,1,0-4.48h88.979a2.24,2.24,0,1,1,0,4.48Z" transform="translate(1.512 738.974)" fill="#05f" stroke="#fff" stroke-width="1"></path><path id="Path_107" data-name="Path 107" d="M468.258,124.37h-.823a2.241,2.241,0,0,1-2.24-2.24v-.867a2.241,2.241,0,0,1,2.24-2.24h.823a2.241,2.241,0,0,1,2.24,2.24v.867A2.241,2.241,0,0,1,468.258,124.37Z" transform="translate(-154.946 771.248)" fill="#05f" stroke="#fff" stroke-width="1"></path><path id="Path_108" data-name="Path 108" d="M514.558,124.37h-.823a2.241,2.241,0,0,1-2.24-2.24v-.867a2.241,2.241,0,0,1,2.24-2.24h.823a2.241,2.241,0,0,1,2.24,2.24v.867A2.24,2.24,0,0,1,514.558,124.37Z" transform="translate(-189.394 771.248)" fill="#05f" stroke="#fff" stroke-width="1"></path><path id="Path_109" data-name="Path 109" d="M560.845,124.37h-.824a2.241,2.241,0,0,1-2.24-2.24v-.867a2.241,2.241,0,0,1,2.24-2.24h.824a2.241,2.241,0,0,1,2.24,2.24v.867A2.24,2.24,0,0,1,560.845,124.37Z" transform="translate(-223.832 771.248)" fill="#05f" stroke="#fff" stroke-width="1"></path><path id="Path_110" data-name="Path 110" d="M295,223.772a2.24,2.24,0,0,1-1.624-.7l-3.232-3.4a2.24,2.24,0,0,1,3.249-3.084L295,218.279l4.552-4.792a2.24,2.24,0,0,1,3.249,3.084l-6.176,6.5a2.25,2.25,0,0,1-1.626.7Z" transform="translate(-24.244 701.483)" fill="#05f" stroke="#fff" stroke-width="1"></path><path id="Path_111" data-name="Path 111" d="M295,293.172a2.24,2.24,0,0,1-1.624-.7l-3.232-3.4a2.24,2.24,0,0,1,3.249-3.084L295,287.679l4.552-4.792a2.24,2.24,0,1,1,3.249,3.084l-6.176,6.5a2.254,2.254,0,0,1-1.626.7Z" transform="translate(-24.244 649.847)" fill="#05f" stroke="#fff" stroke-width="1"></path><path id="Path_112" data-name="Path 112" d="M407.726,229.97H375.66a2.24,2.24,0,0,1,0-4.48h32.063a2.24,2.24,0,0,1,0,4.48Z" transform="translate(-86.663 692.034)" fill="#05f" stroke="#fff" stroke-width="1"></path><path id="Path_113" data-name="Path 113" d="M407.726,303.92H375.66a2.24,2.24,0,0,1,0-4.48h32.063a2.24,2.24,0,0,1,0,4.48Z" transform="translate(-86.663 637.013)" fill="#05f" stroke="#fff" stroke-width="1"></path><path id="Path_114" data-name="Path 114" d="M187.884,391.368a2.32,2.32,0,0,1-.342-.026,37.687,37.687,0,0,1-5.224-1.158,35.709,35.709,0,0,1-4.966-2.02l-22.746-8.072-19.843,6.945a2.239,2.239,0,0,1-2.979-2.174l.615-22.939a2.241,2.241,0,0,1,1.536-2.066q16.48-5.461,33.046-11l1-.336a2.245,2.245,0,0,1,1.3-.035c11.518,3.172,22.995,6.3,34.513,9.425,4.608,1.011,7.971,5.2,7.552,9.516a7.494,7.494,0,0,1-.18,1.1l7.308-1.491q7.439-1.515,14.879-3.044a8.891,8.891,0,0,1,10.6,6.541,9.354,9.354,0,0,1-5.682,11.076,2.31,2.31,0,0,1-.334.093q-24.838,4.856-49.628,9.624a2.36,2.36,0,0,1-.426.039Zm-33.274-15.89a2.237,2.237,0,0,1,.749.129l23.627,8.383a2.23,2.23,0,0,1,.272.116,30.613,30.613,0,0,0,4.4,1.8,32.5,32.5,0,0,0,4.188.945q24.542-4.732,49.042-9.51a4.847,4.847,0,0,0,2.727-5.693,4.373,4.373,0,0,0-5.261-3.291c-5.057,1.045-10.019,2.056-14.981,3.067q-6.235,1.272-12.471,2.548a2.245,2.245,0,0,1-.907.186l-1.465.3a2.182,2.182,0,0,1-.66.036L194,373.573a2.333,2.333,0,0,1-.237-.035l-17.1-3.471a2.24,2.24,0,1,1,.892-4.389l16.984,3.448,9.422.88,1.247-.256a4.184,4.184,0,0,0,1.689-2.737c.177-1.822-1.365-4.143-4.161-4.759-11.408-3.095-22.675-6.162-33.976-9.273l-.357.119q-15.8,5.276-31.562,10.515l-.486,18.121,17.522-6.133a2.226,2.226,0,0,1,.738-.126Z" transform="translate(93.122 600.584)" fill="#05f" stroke="#fff" stroke-width="1"></path><path id="Path_115" data-name="Path 115" d="M110.717,100.479a5.887,5.887,0,0,1-3.277-1,6.2,6.2,0,0,1-2.495-3.362,21.714,21.714,0,0,1-5.886-.983,5.878,5.878,0,0,1-8.048,1.181,6.394,6.394,0,0,1-2.131-7.693,23.871,23.871,0,0,1-3.759-5.48,5.87,5.87,0,0,1-3.588-1A6.293,6.293,0,0,1,82.5,71.166a24.32,24.32,0,0,1,1.117-6.591,6.4,6.4,0,0,1-1.183-8.139A5.911,5.911,0,0,1,86.3,53.758a5.844,5.844,0,0,1,3.81.526A22.022,22.022,0,0,1,95,50.853a6.15,6.15,0,0,1,4.735-7,5.856,5.856,0,0,1,4.449.884,6.211,6.211,0,0,1,2.595,3.722,21.8,21.8,0,0,1,5.434,1.126,5.884,5.884,0,0,1,8.4-1.682,6.386,6.386,0,0,1,1.687,8.536l-.025.038a24.033,24.033,0,0,1,3.176,4.75l.19-.039a5.848,5.848,0,0,1,4.449.884,6.226,6.226,0,0,1,2.661,4.022,6.161,6.161,0,0,1-4.6,7.258,24.446,24.446,0,0,1-.87,5.735l.222.157a6.388,6.388,0,0,1,1.687,8.536,5.883,5.883,0,0,1-8.082,1.921,22.259,22.259,0,0,1-4.51,3.45,6.018,6.018,0,0,1-5.873,7.323Zm-1.76-7,.218,1.114a1.78,1.78,0,0,0,.749,1.157,1.4,1.4,0,0,0,1.072.222,1.673,1.673,0,0,0,1.184-2.023l-.227-1.155c-.013-.069-.03-.132-.048-.194a2.239,2.239,0,0,1,1.182-2.661,17.9,17.9,0,0,0,5.994-4.646,2.245,2.245,0,0,1,1.548-.79,2.28,2.28,0,0,1,1.646.556c.04.035.082.069.125.1l.943.664a1.418,1.418,0,0,0,1.1.246,1.463,1.463,0,0,0,.95-.675,1.879,1.879,0,0,0-.477-2.482l-.936-.66a1.507,1.507,0,0,0-.267-.151,2.239,2.239,0,0,1-1.2-2.8,19.986,19.986,0,0,0,1.141-7.724,2.241,2.241,0,0,1,2.179-2.348,1.323,1.323,0,0,0,.242-.024l1.1-.223a1.675,1.675,0,0,0,1.184-2.024,1.79,1.79,0,0,0-.75-1.157,1.4,1.4,0,0,0-1.07-.221h0l-1.1.223a1.417,1.417,0,0,0-.3.1,2.241,2.241,0,0,1-3.009-1.182,19.587,19.587,0,0,0-4.285-6.437,2.24,2.24,0,0,1-.1-3.056,1.7,1.7,0,0,0,.158-.206l.614-.973a1.88,1.88,0,0,0-.476-2.482,1.416,1.416,0,0,0-1.1-.246,1.458,1.458,0,0,0-.949.675l-.617.977a1.808,1.808,0,0,0-.131.26,2.237,2.237,0,0,1-2.981,1.183,17.82,17.82,0,0,0-7.322-1.539,2.228,2.228,0,0,1-2.242-1.962l-.018-.133-.227-1.157a1.789,1.789,0,0,0-.75-1.158,1.4,1.4,0,0,0-1.07-.221,1.673,1.673,0,0,0-1.185,2.023l.259,1.276a2.248,2.248,0,0,1-1.3,2.664,17.771,17.771,0,0,0-6.336,4.46,2.237,2.237,0,0,1-2.94.319l-.841-.591a1.421,1.421,0,0,0-1.1-.246,1.463,1.463,0,0,0-.95.675,1.879,1.879,0,0,0,.477,2.482l.874.615a2.241,2.241,0,0,1,.794,2.657A19.925,19.925,0,0,0,86.995,72.8,2.241,2.241,0,0,1,85.2,75.083l-.747.152a1.675,1.675,0,0,0-1.184,2.024,1.782,1.782,0,0,0,.749,1.156,1.4,1.4,0,0,0,1.071.222L86,78.451a2.24,2.24,0,0,1,2.519,1.342,19.546,19.546,0,0,0,4.686,6.835,2.237,2.237,0,0,1,.357,2.825l-.449.712a1.877,1.877,0,0,0,.477,2.482,1.415,1.415,0,0,0,1.1.246,1.463,1.463,0,0,0,.95-.675l.595-.943c.019-.03.038-.062.057-.09a2.234,2.234,0,0,1,2.7-.833,17.328,17.328,0,0,0,7.618,1.257,2.231,2.231,0,0,1,2.326,1.766.934.934,0,0,0,.015.1Zm17.127-30.09h.011Z" transform="translate(132.578 827.261)" fill="#05f" stroke="#fff" stroke-width="1"></path><path id="Path_116" data-name="Path 116" d="M148.854,130.881a12.038,12.038,0,0,1-6.7-2.044,12.487,12.487,0,0,1,4.313-22.563,12.018,12.018,0,0,1,9.128,1.8,12.412,12.412,0,0,1-6.743,22.811Zm.037-20.373a7.626,7.626,0,0,0-1.528.156,8.009,8.009,0,0,0-2.724,14.447,7.571,7.571,0,0,0,5.751,1.136,8.009,8.009,0,0,0,2.72-14.448,7.577,7.577,0,0,0-4.22-1.291Z" transform="translate(89.511 780.917)" fill="#05f" stroke="#fff" stroke-width="1"></path></g></g><g id="Mask_Group_5" data-name="Mask Group 5" transform="translate(-100 -416)" clip-path="url(#clip-path-3)"><g id="Group_35" data-name="Group 35" transform="translate(1359.089 711.933)"><path id="Path_85" data-name="Path 85" d="M252.654,109.874h-10.4v-4.439l-4.745-1.676q-.241-.612-.509-1.224l2.173-4.543L225.552,84.364l-4.545,2.173c-.4-.18-.814-.348-1.224-.509l-1.674-4.742H198.835l-1.674,4.745q-.615.241-1.224.509l-4.545-2.173L177.768,98l2.173,4.543c-.18.408-.351.816-.509,1.224l-4.745,1.673v4.439h-10.4A13.009,13.009,0,0,0,151.3,122.868v57.177A13.009,13.009,0,0,0,164.29,193.04h18.193v10.4h-10.4a5.2,5.2,0,0,0-5.2,5.2v5.2a5.2,5.2,0,0,0,5.2,5.2h72.77a5.2,5.2,0,0,0,5.2-5.2v-5.2a5.2,5.2,0,0,0-5.2-5.2h-10.4v-10.4h18.193a13.009,13.009,0,0,0,12.994-12.994V122.868a13.011,13.011,0,0,0-13-12.994Zm-72.77-.759,3.62-1.276.406-1.19a25.722,25.722,0,0,1,1.24-2.979l.556-1.131-1.661-3.468,8.425-8.425,3.47,1.658,1.133-.556a25.237,25.237,0,0,1,2.979-1.24l1.19-.408,1.273-3.617h11.913L215.7,90.1l1.19.408a25.253,25.253,0,0,1,2.979,1.24l1.133.556,3.47-1.658,8.425,8.425-1.661,3.468.556,1.131a25.7,25.7,0,0,1,1.24,2.979l.406,1.19,3.619,1.275v.759h-8.467a20.779,20.779,0,0,0-40.243,0h-8.467Zm43.273.759H193.791a15.568,15.568,0,0,1,29.367,0Zm-58.866,5.2h88.365a7.807,7.807,0,0,1,7.8,7.8v44.183H156.5V122.869a7.806,7.806,0,0,1,7.8-7.8Zm80.57,98.758H172.089v-5.2h72.77Zm-15.6-10.4H187.681v-10.4h41.584Zm23.39-15.593H164.293a7.807,7.807,0,0,1-7.8-7.8v-7.8H260.454v7.8a7.806,7.806,0,0,1-7.8,7.8Z" transform="translate(-151.296 -81.285)" fill="#05f" stroke="#fff" stroke-width="1.6"></path><path id="Path_86" data-name="Path 86" d="M310.035,418.088a2.6,2.6,0,1,1-2.6-2.6,2.6,2.6,0,0,1,2.6,2.6" transform="translate(-260.657 -319.325)" fill="#05f" stroke="#fff" stroke-width="1"></path><path id="Path_87" data-name="Path 87" d="M346.165,418.088a2.6,2.6,0,1,1-2.6-2.6,2.6,2.6,0,0,1,2.6,2.6" transform="translate(-286.391 -319.325)" fill="#05f" stroke="#fff" stroke-width="1"></path><path id="Path_88" data-name="Path 88" d="M382.295,418.088a2.6,2.6,0,1,1-2.6-2.6,2.6,2.6,0,0,1,2.6,2.6" transform="translate(-312.125 -319.325)" fill="#05f" stroke="#fff" stroke-width="1"></path><path id="Path_89" data-name="Path 89" d="M323.17,256.171l10.407-41.581,5.04,1.261L328.21,257.433Z" transform="translate(-273.715 -176.233)" fill="#05f" stroke="#fff" stroke-width="1"></path><path id="Path_90" data-name="Path 90" d="M392.934,266.743l21.155-15.111-21.155-15.11-3.02,4.231,15.23,10.879-15.23,10.879Z" transform="translate(-321.254 -191.854)" fill="#05f" stroke="#fff" stroke-width="1"></path><path id="Path_91" data-name="Path 91" d="M250.249,262.508l-15.23-10.879,15.23-10.879-3.02-4.231-21.155,15.11,21.155,15.111Z" transform="translate(-204.557 -191.852)" fill="#05f" stroke="#fff" stroke-width="1"></path></g></g><g id="Mask_Group_6" data-name="Mask Group 6" transform="translate(-16 -416)" clip-path="url(#clip-path-4)"><g id="Group_36" data-name="Group 36" transform="translate(1638.311 711.933)"><path id="Path_92" data-name="Path 92" d="M304.034,533.75a2.164,2.164,0,0,0-2.164,2.164v2.164a2.164,2.164,0,1,0,4.329,0v-2.164A2.164,2.164,0,0,0,304.034,533.75Z" transform="translate(-265.079 -401.73)" fill="#05f" stroke="#fff" stroke-width="1"></path><path id="Path_93" data-name="Path 93" d="M381.644,533.75a2.164,2.164,0,0,0-2.164,2.164v2.164a2.164,2.164,0,1,0,4.329,0v-2.164A2.164,2.164,0,0,0,381.644,533.75Z" transform="translate(-323.492 -401.73)" fill="#05f" stroke="#fff" stroke-width="1"></path><path id="Path_94" data-name="Path 94" d="M154.935,55.663l10.6,1.765a36.856,36.856,0,0,0,4.453,10.76l-6.244,8.744h0a2.164,2.164,0,0,0,.231,2.788l6.825,6.825a2.161,2.161,0,0,0,2.788.232l7.36-5.254-.841-4.719-7.543,5.385-4.232-4.234,6.029-8.445a2.163,2.163,0,0,0,.036-2.462,32.681,32.681,0,0,1-4.938-11.931,2.163,2.163,0,0,0-1.768-1.717l-10.237-1.705V45.7L167.691,44a2.163,2.163,0,0,0,1.768-1.717A32.674,32.674,0,0,1,174.4,30.351a2.165,2.165,0,0,0-.036-2.463l-6.029-8.446,4.232-4.232,8.446,6.029a2.162,2.162,0,0,0,2.462.036A32.632,32.632,0,0,1,195.4,16.338a2.163,2.163,0,0,0,1.717-1.768l1.7-10.238h5.993l1.7,10.238a2.163,2.163,0,0,0,1.717,1.768,32.631,32.631,0,0,1,11.932,4.937,2.161,2.161,0,0,0,2.462-.036l8.446-6.029,4.232,4.232-6.028,8.446a2.165,2.165,0,0,0-.036,2.463,32.674,32.674,0,0,1,4.938,11.931A2.163,2.163,0,0,0,235.952,44L246.189,45.7v5.99L235.952,53.4a2.163,2.163,0,0,0-1.768,1.717,32.68,32.68,0,0,1-4.938,11.931,2.163,2.163,0,0,0,.036,2.462l6.029,8.445-4.232,4.234-7.5-5.352-.841,4.719,7.314,5.221h0a2.162,2.162,0,0,0,2.788-.231l6.824-6.826a2.163,2.163,0,0,0,.232-2.788l-6.244-8.745a36.855,36.855,0,0,0,4.453-10.76l10.6-1.765h0a2.163,2.163,0,0,0,1.809-2.134V43.87a2.163,2.163,0,0,0-1.809-2.134l-10.6-1.765a36.88,36.88,0,0,0-4.453-10.76l6.244-8.745a2.163,2.163,0,0,0-.232-2.788l-6.824-6.825a2.163,2.163,0,0,0-2.788-.231l-8.745,6.243h0a36.87,36.87,0,0,0-10.761-4.452l-1.764-10.6A2.165,2.165,0,0,0,206.651,0h-9.658a2.165,2.165,0,0,0-2.135,1.809l-1.764,10.6a36.871,36.871,0,0,0-10.761,4.452l-8.745-6.242a2.163,2.163,0,0,0-2.788.231l-6.824,6.825a2.163,2.163,0,0,0-.232,2.788l6.243,8.745a36.855,36.855,0,0,0-4.453,10.76l-10.6,1.765h0a2.163,2.163,0,0,0-1.809,2.134v9.658a2.163,2.163,0,0,0,1.81,2.134Z" transform="translate(-153.126 -0.003)" fill="#05f" stroke="#fff" stroke-width="1"></path><path id="Path_95" data-name="Path 95" d="M306.208,496.084a2.164,2.164,0,1,0-4.329,0v3.582a2.164,2.164,0,0,0,4.329,0Z" transform="translate(-265.086 -371.752)" fill="#05f" stroke="#fff" stroke-width="1"></path><path id="Path_96" data-name="Path 96" d="M306.208,456.966a2.156,2.156,0,0,0-1.072-1.859h-1.248a6.376,6.376,0,0,1-.8-.071,2.157,2.157,0,0,0-1.2,1.931v3.583a2.164,2.164,0,0,0,4.329,0Z" transform="translate(-265.086 -342.485)" fill="#05f" stroke="#fff" stroke-width="1"></path><path id="Path_97" data-name="Path 97" d="M383.809,496.084a2.164,2.164,0,1,0-4.329,0v3.582a2.164,2.164,0,0,0,4.329,0Z" transform="translate(-323.492 -371.752)" fill="#05f" stroke="#fff" stroke-width="1"></path><path id="Path_98" data-name="Path 98" d="M383.809,457.045a2.155,2.155,0,0,0-1.157-1.9c-.173.014-.341.046-.517.046h-1.582a2.156,2.156,0,0,0-1.073,1.859v3.583a2.164,2.164,0,0,0,4.329,0Z" transform="translate(-323.492 -342.564)" fill="#05f" stroke="#fff" stroke-width="1"></path><path id="Path_99" data-name="Path 99" d="M345.578,455.33H341.25v8.576a2.164,2.164,0,1,0,4.328,0Z" transform="translate(-294.718 -342.707)" fill="#05f" stroke="#fff" stroke-width="1"></path><path id="Path_100" data-name="Path 100" d="M224.06,180.441v7.726A2.164,2.164,0,0,0,227.2,190.1l18.695-9.426h18.634l18.695,9.426a2.163,2.163,0,0,0,3.138-1.932v-7.726c0-11.942-6.032-19.983-15.571-21.216l2.576-14.462h0a56.51,56.51,0,0,0,.139-20,39.27,39.27,0,0,0-6.361-15.9l-7.181-10.244a5.775,5.775,0,0,0-9.455,0l-7.181,10.244h0a39.213,39.213,0,0,0-6.36,15.9,56.456,56.456,0,0,0,.139,20l2.574,14.455c-9.568,1.211-15.62,9.26-15.62,21.224Zm40.233-9.424-.949,5.329H247.127l-.949-5.329Zm17.739,9.424v4.212L267.6,177.377l1.257-7.325,1.172-6.579c8.8,1,12,9.234,12,16.967Zm-27.98-79.334a1.446,1.446,0,0,1,2.366,0l4.793,6.838H249.261Zm-12.827,24.429a35.536,35.536,0,0,1,5.041-13.264h17.94a35.53,35.53,0,0,1,5.04,13.264A52.226,52.226,0,0,1,269.105,144l-2.918,16.379h0a2.124,2.124,0,0,0-.136.455l-1,5.849H257.4V154.366a2.164,2.164,0,0,0-4.329,0v12.323h-7.664l-.924-5.185-.114-.665c0-.017-.01-.033-.014-.049L241.368,144A52.225,52.225,0,0,1,241.226,125.536Zm-.8,37.928,2.387,13.91-14.428,7.275v-4.212c0-7.745,3.2-15.99,12.042-16.973Z" transform="translate(-206.515 -72.379)" fill="#05f" stroke="#fff" stroke-width="1"></path><path id="Path_101" data-name="Path 101" d="M322.916,211.725a8.94,8.94,0,1,0-6.312-2.616,8.927,8.927,0,0,0,6.312,2.616Zm0-13.52h0a4.605,4.605,0,1,1-3.253,1.346,4.6,4.6,0,0,1,3.253-1.346Z" transform="translate(-274.196 -145.922)" fill="#05f" stroke="#fff" stroke-width="1"></path><path id="Path_102" data-name="Path 102" d="M343.414,525a2.164,2.164,0,0,0-2.164,2.164v4.329a2.164,2.164,0,1,0,4.328,0v-4.329A2.164,2.164,0,0,0,343.414,525Z" transform="translate(-294.718 -395.144)" fill="#05f" stroke="#fff" stroke-width="1"></path></g></g><g id="Mask_Group_8" data-name="Mask Group 8" transform="translate(183 -579)" clip-path="url(#clip-path-5)"><g id="Group_43" data-name="Group 43" transform="translate(59.509 -112.868)"><path id="Path_117" data-name="Path 117" d="M452.322,54.72H432.243a10.123,10.123,0,0,1-10.111-10.109V24.53a2.982,2.982,0,0,1,5.091-2.108l27.208,27.208a2.981,2.981,0,0,1-2.109,5.09ZM428.1,31.729V44.61a4.151,4.151,0,0,0,4.147,4.145h12.88Z" transform="translate(-39.522 963.322)" fill="#05f" stroke="#fff" stroke-width="3"></path><path id="Path_118" data-name="Path 118" d="M254.248,164.671H168.174a10.12,10.12,0,0,1-10.108-10.109V31.643a10.12,10.12,0,0,1,10.108-10.109h65.994a2.98,2.98,0,0,1,2.108.874l27.208,27.208a2.982,2.982,0,0,1,.874,2.108V154.562a10.122,10.122,0,0,1-10.11,10.109ZM168.174,27.5a4.149,4.149,0,0,0-4.144,4.145V154.564a4.149,4.149,0,0,0,4.144,4.145h86.074a4.151,4.151,0,0,0,4.147-4.145V52.961L232.935,27.5Z" transform="translate(151.425 963.334)" fill="#05f" stroke="#fff" stroke-width="3"></path><path id="Path_119" data-name="Path 119" d="M328.507,118.2h-17a2.981,2.981,0,0,1-2.982-2.982v-17A2.981,2.981,0,0,1,311.5,95.23h17a2.981,2.981,0,0,1,2.982,2.982v17.006A2.981,2.981,0,0,1,328.507,118.2Zm-14.022-5.963h11.04V101.194h-11.04Z" transform="translate(42.631 910.044)" fill="#05f" stroke="#fff" stroke-width="3"></path><path id="Path_120" data-name="Path 120" d="M328.51,265.586h-17a2.981,2.981,0,0,1-2.982-2.982V245.6a2.981,2.981,0,0,1,2.982-2.982h17a2.981,2.981,0,0,1,2.982,2.982V262.6A2.983,2.983,0,0,1,328.51,265.586Zm-14.023-5.964h11.04V248.58h-11.04Z" transform="translate(42.628 803.47)" fill="#05f" stroke="#fff" stroke-width="3"></path><path id="Path_121" data-name="Path 121" d="M328.51,412.976h-17a2.981,2.981,0,0,1-2.982-2.982V392.988a2.981,2.981,0,0,1,2.982-2.982h17a2.981,2.981,0,0,1,2.982,2.982v17.006A2.982,2.982,0,0,1,328.51,412.976Zm-14.023-5.964h11.04V395.97h-11.04Z" transform="translate(42.628 696.892)" fill="#05f" stroke="#fff" stroke-width="3"></path><path id="Path_122" data-name="Path 122" d="M222.212,171.583h-5.6a12.775,12.775,0,0,1-12.761-12.759V138.7a12.774,12.774,0,0,1,12.761-12.759h5.6a2.982,2.982,0,1,1,0,5.964h-5.6a6.8,6.8,0,0,0-6.8,6.8v20.123a6.8,6.8,0,0,0,6.8,6.794h5.6a2.982,2.982,0,1,1,0,5.964Z" transform="translate(118.317 887.836)" fill="#05f" stroke="#fff" stroke-width="3"></path><path id="Path_123" data-name="Path 123" d="M428.292,318.966h-6.25a2.982,2.982,0,1,1,0-5.964h6.25a6.8,6.8,0,0,0,6.794-6.8V286.082a6.8,6.8,0,0,0-6.794-6.8h-6.25a2.982,2.982,0,1,1,0-5.964h6.25a12.772,12.772,0,0,1,12.758,12.759V306.2a12.773,12.773,0,0,1-12.758,12.761Z" transform="translate(-37.3 781.266)" fill="#05f" stroke="#fff" stroke-width="3"></path></g></g></g></svg> 