<?xml version="1.0" encoding="UTF-8"?> <svg xmlns="http://www.w3.org/2000/svg" xmlns:xlink="http://www.w3.org/1999/xlink" width="60" height="60" viewBox="0 0 60 60"><defs><clipPath id="clip-path"><rect id="Rectangle_736" data-name="Rectangle 736" width="60" height="60" transform="translate(637 576)" fill="#fff" stroke="#707070" stroke-width="1"></rect></clipPath></defs><g id="Mask_Group_61" data-name="Mask Group 61" transform="translate(-637 -576)" clip-path="url(#clip-path)"><path id="rest-api-1" d="M195.03,3.115l1.135,1.494a.9.9,0,0,1-.171,1.258l-1.2.916a7.021,7.021,0,0,1,.416,1.84l1.371.188a.9.9,0,0,1,.767,1.012l-.254,1.862a.9.9,0,0,1-1.012.767l-1.5-.206a6.99,6.99,0,0,1-1.012,1.595l.841,1.1a.9.9,0,0,1-.175,1.258l-1.494,1.135a.9.9,0,0,1-1.257-.171l-.916-1.2a7.051,7.051,0,0,1-1.844.416l-.188,1.371a.9.9,0,0,1-1.012.767l-1.862-.254a.9.9,0,0,1-.767-1.012l.206-1.5a7.223,7.223,0,0,1-1.595-1.008l-1.1.837a.9.9,0,0,1-1.257-.171l-1.135-1.494a.9.9,0,0,1,.171-1.258l1.2-.916a7.07,7.07,0,0,1-.416-1.84L179.6,9.713A.9.9,0,0,1,178.83,8.7l.254-1.862a.9.9,0,0,1,1.012-.767l1.5.206A7.223,7.223,0,0,1,182.6,4.683l-.837-1.1a.894.894,0,0,1,.171-1.253l1.494-1.135a.9.9,0,0,1,1.257.171l.916,1.2a7.021,7.021,0,0,1,1.84-.416l.188-1.371a.9.9,0,0,1,1.012-.771L190.5.262a.9.9,0,0,1,.767,1.012l-.206,1.5a7.1,7.1,0,0,1,1.6,1.012l1.1-.837A.9.9,0,0,1,195.03,3.115ZM163,29.408V22.179h3.724a5.229,5.229,0,0,1,1.582.18,1.669,1.669,0,0,1,.881.657,2.213,2.213,0,0,1,.079,2.213,1.991,1.991,0,0,1-.705.71,2.668,2.668,0,0,1-.784.285,2.119,2.119,0,0,1,.578.267,2.275,2.275,0,0,1,.355.381,2.929,2.929,0,0,1,.311.451l1.086,2.09H167.58l-1.192-2.2a1.706,1.706,0,0,0-.4-.556.962.962,0,0,0-.548-.166h-.2v2.927H163ZM170.874,42H166.7l-.6,1.963h-3.759l4.481-11.913h4.03l4.464,11.913h-3.855Zm-.78-2.581-1.3-4.285-1.305,4.285Zm6.094-7.37h6.124a4.177,4.177,0,0,1,3,.951,3.59,3.59,0,0,1,.994,2.712,3.691,3.691,0,0,1-1.086,2.826,4.7,4.7,0,0,1-3.316,1.016h-2.019v4.408h-3.693V32.046Zm3.693,5.091h.907a2.332,2.332,0,0,0,1.507-.373,1.191,1.191,0,0,0,.434-.946,1.324,1.324,0,0,0-.377-.951,1.965,1.965,0,0,0-1.415-.39h-1.056v2.66Zm7.912-5.091h3.693V43.959h-3.693V32.046Zm-22.552-6.932h.942a3.475,3.475,0,0,0,.591-.1.588.588,0,0,0,.364-.228.735.735,0,0,0-.083-.959,1.325,1.325,0,0,0-.832-.188h-.981Zm5.292-2.936h5.98v1.542h-3.737v1.152h3.465v1.472h-3.465V27.77h3.846V29.4h-6.089Zm6.619,4.837,2.12-.131a1.584,1.584,0,0,0,.28.784,1.2,1.2,0,0,0,.986.438,1.1,1.1,0,0,0,.736-.223.678.678,0,0,0,.258-.521.672.672,0,0,0-.245-.5,2.868,2.868,0,0,0-1.143-.421,4.891,4.891,0,0,1-2.094-.876,1.76,1.76,0,0,1-.631-1.393,1.891,1.891,0,0,1,.324-1.051,2.144,2.144,0,0,1,.972-.78,4.561,4.561,0,0,1,1.779-.28,3.612,3.612,0,0,1,2.112.517,2.238,2.238,0,0,1,.863,1.643l-2.1.127a1.15,1.15,0,0,0-.351-.714,1.13,1.13,0,0,0-.74-.224.9.9,0,0,0-.587.167.508.508,0,0,0-.2.4.422.422,0,0,0,.162.311,1.866,1.866,0,0,0,.745.267,9.348,9.348,0,0,1,2.1.64,2.176,2.176,0,0,1,.92.8,2.017,2.017,0,0,1,.289,1.069,2.262,2.262,0,0,1-.386,1.279,2.394,2.394,0,0,1-1.073.89,4.343,4.343,0,0,1-1.739.3,3.589,3.589,0,0,1-2.554-.71A2.859,2.859,0,0,1,177.152,27.016Zm6.882-4.837h6.795v1.788h-2.278v5.442h-2.234V23.966h-2.283V22.179ZM176.517,5.021a13.878,13.878,0,0,0-2.414.026A13.211,13.211,0,0,0,167.26,7.72a12.843,12.843,0,0,0-4.7,7.948l-.21,1.1-1.1.193a15.082,15.082,0,0,0-2.874.776A9.611,9.611,0,0,0,156.2,18.9a7.218,7.218,0,0,0-1.319,1.227,7.439,7.439,0,0,0-1.673,4.863,8.794,8.794,0,0,0,1.66,5.052,8.255,8.255,0,0,0,1.384,1.49,6.949,6.949,0,0,0,1.809,1.087,8.538,8.538,0,0,0,1.214.394V36.3a11.835,11.835,0,0,1-2.436-.706,10.146,10.146,0,0,1-2.65-1.59,11.3,11.3,0,0,1-1.927-2.068A12.05,12.05,0,0,1,150,25a10.644,10.644,0,0,1,2.418-6.945,10.357,10.357,0,0,1,1.9-1.77,12.821,12.821,0,0,1,2.909-1.555,17.584,17.584,0,0,1,2.409-.736,15.843,15.843,0,0,1,5.66-8.824,16.445,16.445,0,0,1,8.508-3.326,17.36,17.36,0,0,1,4.832.215,3.685,3.685,0,0,0-.083.438l0,.026a4.33,4.33,0,0,0-.031.754,3.805,3.805,0,0,0-.938.53l-.013.009A3.92,3.92,0,0,0,176.517,5.021ZM199.7,13.433c.245.223.482.456.714.705a12.815,12.815,0,0,1,1.327,1.709,14.439,14.439,0,0,1,2.09,7.852,12.894,12.894,0,0,1-2.3,7.541,12.024,12.024,0,0,1-3.8,3.251,17.968,17.968,0,0,1-3.509,1.468v-3.4a14.17,14.17,0,0,0,1.928-.876,8.78,8.78,0,0,0,2.8-2.37,9.689,9.689,0,0,0,1.656-5.639A11.161,11.161,0,0,0,199.03,17.6a9.091,9.091,0,0,0-.986-1.266c-.136-.145-.272-.28-.412-.412a4.2,4.2,0,0,0,.018-.666,3.806,3.806,0,0,0,.938-.53l.013-.009A3.981,3.981,0,0,0,199.7,13.433Zm-11.11-7.825a3.693,3.693,0,1,1-4.158,3.159A3.69,3.69,0,0,1,188.586,5.608Z" transform="translate(490 584)" fill="#01b5e6" fill-rule="evenodd"></path></g></svg> 