<?xml version="1.0" encoding="UTF-8"?> <svg xmlns="http://www.w3.org/2000/svg" xmlns:xlink="http://www.w3.org/1999/xlink" width="90" height="90" viewBox="0 0 90 90"><defs><clipPath id="clip-path"><rect id="Rectangle_30" data-name="Rectangle 30" width="90" height="90" transform="translate(851 1239)" fill="#fff" stroke="#707070" stroke-width="1"></rect></clipPath></defs><g id="Mask_Group_26" data-name="Mask Group 26" transform="translate(-851 -1239)" clip-path="url(#clip-path)"><path id="Path_69" data-name="Path 69" d="M42.934,50.313V38.538a.993.993,0,0,0-.992-.992h-12.4a.993.993,0,0,0-.989.992V50.107H25.274V38.538a.991.991,0,0,0-.989-.992h-12.4a.993.993,0,0,0-.992.992V50.2a9.055,9.055,0,0,0,1.282,18.019l28.848,0a9.057,9.057,0,0,0,1.909-17.909Zm-8.587-10.9h2.795v3.409H34.347Zm-3.924,0h2.061v4.34a.931.931,0,0,0,.932.932h4.661a.931.931,0,0,0,.932-.932v-4.34h2.063v10.7l-.047,0H30.42V39.41Zm-13.731,0h2.795v3.409H16.692Zm-1.863,0v4.34a.931.931,0,0,0,.932.932h4.661a.931.931,0,0,0,.932-.932v-4.34h2.061v10.7H12.765v-10.7Zm26.2,26.946-28.851,0a7.193,7.193,0,1,1,0-14.386H41.025a7.193,7.193,0,1,1,0,14.386ZM13.347,53.971a5.193,5.193,0,1,0,5.193,5.193A5.2,5.2,0,0,0,13.347,53.971Zm0,8.522a3.329,3.329,0,1,1,3.329-3.329A3.333,3.333,0,0,1,13.347,62.492Zm12.887-8.522a5.193,5.193,0,1,0,5.193,5.193A5.2,5.2,0,0,0,26.234,53.971Zm0,8.522a3.329,3.329,0,1,1,3.329-3.329A3.333,3.333,0,0,1,26.234,62.492ZM39.12,53.971a5.193,5.193,0,1,0,5.193,5.193A5.2,5.2,0,0,0,39.12,53.971Zm0,8.522a3.329,3.329,0,1,1,3.329-3.329A3.333,3.333,0,0,1,39.12,62.492ZM35.745,8.267a3.779,3.779,0,1,0,3.779,3.779A3.783,3.783,0,0,0,35.745,8.267Zm0,5.691a1.913,1.913,0,1,1,1.913-1.913A1.914,1.914,0,0,1,35.745,13.959ZM60.507,15.57a3.78,3.78,0,1,0-3.779-3.779A3.783,3.783,0,0,0,60.507,15.57Zm0-5.694a1.915,1.915,0,1,1-1.913,1.918A1.917,1.917,0,0,1,60.507,9.876ZM67.36,47.737h-.315L65.582,41.38a1.517,1.517,0,0,0-.975-1.1l0-22.8a7.01,7.01,0,1,0-9.96-9.533H41.428a7.011,7.011,0,1,0-9.2,10.169v2.378a1.748,1.748,0,0,0-1.414,1.795v2.68l-2.392,1.693a.935.935,0,0,0-.345,1.055l2.592,7.782a.932.932,0,0,0,1.808-.175l.808-6.28L35.747,27.3l2.458,1.743.811,6.283a.932.932,0,0,0,.836.808c.03,0,.06.005.09.005a.936.936,0,0,0,.885-.638l2.592-7.782a.935.935,0,0,0-.345-1.055l-2.392-1.693v-2.68a1.726,1.726,0,0,0-1.414-1.795V18.113a7.064,7.064,0,0,0,2.165-1.962H55.024a7.066,7.066,0,0,0,1.387,1.326L56.4,40.264a1.526,1.526,0,0,0-1.014,1.107l-1.46,6.363h-.277c-.882,0-1.524.888-1.524,2.113v16.26c0,1.225.641,2.113,1.524,2.113H67.36c.885,0,1.529-.888,1.529-2.113V49.846c0-1.225-.641-2.113-1.529-2.113ZM41.428,27.78,40.34,31.044,40,28.394a.929.929,0,0,0-.386-.641l-3.329-2.362a.93.93,0,0,0-1.08,0L31.87,27.753a.929.929,0,0,0-.386.641l-.34,2.644L30.059,27.78,32.292,26.2a.933.933,0,0,0,.384-.893.093.093,0,0,1,0-.027v-2.94h6.135v2.94a.1.1,0,0,1,0,.027.935.935,0,0,0,.384.893l2.233,1.581ZM37.4,20.475H34.1V18.861a7.012,7.012,0,0,0,1.652.2,7.122,7.122,0,0,0,1.652-.2ZM35.747,17.2A5.151,5.151,0,1,1,40.9,12.044,5.156,5.156,0,0,1,35.747,17.2Zm6.645-2.913a6.96,6.96,0,0,0,.367-2.239,7.048,7.048,0,0,0-.367-2.239h11.4a7,7,0,0,0,.17,4.475H42.392Zm12.972-2.491a5.15,5.15,0,1,1,5.149,5.149A5.155,5.155,0,0,1,55.364,11.792ZM60.513,18.8a7.048,7.048,0,0,0,2.239-.367V40.191H58.277l-.008-21.757a6.96,6.96,0,0,0,2.239.367Zm-3.359,23.25h6.678l1.307,5.683H55.849ZM67.028,66.11a1.277,1.277,0,0,1-.025.249H54.021A1.3,1.3,0,0,1,54,66.11V49.85a1.561,1.561,0,0,1,.022-.249H67a1.277,1.277,0,0,1,.025.249ZM4.787,20.445l1.576.359a9.7,9.7,0,0,0,.5,1.214l-.86,1.367a1.947,1.947,0,0,0,.129,2.483L7.5,27.23a1.946,1.946,0,0,0,2.48.129l1.37-.863a10.165,10.165,0,0,0,1.211.5l.356,1.576a1.927,1.927,0,0,0,1.847,1.661h1.924a1.944,1.944,0,0,0,1.85-1.663L18.893,27a9.733,9.733,0,0,0,1.211-.5l1.373.866a1.94,1.94,0,0,0,2.48-.132l1.365-1.365a1.939,1.939,0,0,0,.126-2.483l-.863-1.365a9.73,9.73,0,0,0,.5-1.211l1.57-.359a1.944,1.944,0,0,0,1.669-1.85V16.675a1.93,1.93,0,0,0-1.666-1.85l-1.573-.356a9.4,9.4,0,0,0-.5-1.211l.863-1.37a1.943,1.943,0,0,0-.132-2.477L23.954,8.049a1.92,1.92,0,0,0-2.483-.129l-1.365.86a9.944,9.944,0,0,0-1.214-.5L18.534,6.7a1.944,1.944,0,0,0-1.85-1.666H14.761A1.932,1.932,0,0,0,12.911,6.7l-.356,1.573a9.585,9.585,0,0,0-1.214.5L9.976,7.92a1.93,1.93,0,0,0-2.483.129L6.135,9.408A1.93,1.93,0,0,0,6,11.891l.86,1.37a9.582,9.582,0,0,0-.5,1.214l-1.581.356a1.927,1.927,0,0,0-1.661,1.847V18.6a1.946,1.946,0,0,0,1.663,1.85Zm.2-3.721a.656.656,0,0,1,.214-.082l2.1-.477A.932.932,0,0,0,8,15.5a7.805,7.805,0,0,1,.756-1.825.94.94,0,0,0-.019-.959l-1.151-1.83a.632.632,0,0,1-.09-.2L8.782,9.394a.775.775,0,0,1,.206.093l1.828,1.148a.928.928,0,0,0,.959.019A7.822,7.822,0,0,1,13.6,9.9a.931.931,0,0,0,.663-.693l.474-2.1a.661.661,0,0,1,.085-.219h1.822a.7.7,0,0,1,.082.214l.48,2.1a.936.936,0,0,0,.663.693,7.765,7.765,0,0,1,1.825.756.929.929,0,0,0,.956-.022l1.822-1.148a.632.632,0,0,1,.208-.093l1.288,1.288a.671.671,0,0,1-.09.208l-1.151,1.828a.934.934,0,0,0-.022.959,8.123,8.123,0,0,1,.762,1.828.937.937,0,0,0,.693.66l2.093.474a.72.72,0,0,1,.216.082v1.822a.706.706,0,0,1-.216.079l-2.1.48a.929.929,0,0,0-.691.66,8.032,8.032,0,0,1-.762,1.83.934.934,0,0,0,.022.959l1.148,1.817a.781.781,0,0,1,.1.216l-1.285,1.285a.706.706,0,0,1-.211-.09l-1.822-1.151a.934.934,0,0,0-.959-.022,8.029,8.029,0,0,1-1.83.762.938.938,0,0,0-.66.691l-.48,2.1a.718.718,0,0,1-.079.211H14.818a.727.727,0,0,1-.082-.214l-.477-2.1a.937.937,0,0,0-.66-.693,7.881,7.881,0,0,1-1.828-.762.934.934,0,0,0-.959.022L8.987,25.775a.7.7,0,0,1-.208.093L7.491,24.58a.7.7,0,0,1,.093-.208L8.732,22.55a.929.929,0,0,0,.022-.956A7.762,7.762,0,0,1,8,19.768a.932.932,0,0,0-.693-.663l-2.1-.48a.656.656,0,0,1-.214-.082V16.721Zm10.739,6.831A5.921,5.921,0,1,0,9.8,17.634a5.928,5.928,0,0,0,5.921,5.921Zm0-9.977a4.055,4.055,0,1,1-4.055,4.055A4.06,4.06,0,0,1,15.725,13.578Z" transform="translate(859.882 1247.223)" fill="#1c54f8" stroke="#fff" stroke-width="0.4"></path></g></svg> 