<svg width="100" height="79" viewBox="0 0 100 79" fill="none" xmlns="http://www.w3.org/2000/svg">
<path opacity="0.1" fill-rule="evenodd" clip-rule="evenodd" d="M36.9469 74.1711C54.6359 82.7988 89.624 77.2347 98.2517 59.5457C106.879 41.8566 81.2873 21.8741 63.5982 13.2463C45.9092 4.61859 22.0097 -8.27055 13.3819 9.41849C4.7542 27.1075 19.2578 65.5433 36.9469 74.1711Z" fill="#766DF4"/>
<path opacity="0.2" d="M22.1247 57.1337C22.1953 57.0429 22.2461 56.9383 22.2737 56.8266C22.3014 56.7149 22.3052 56.5986 22.2851 56.4853C22.1346 55.6093 22.4197 54.7036 23.0403 54.1136C23.2507 53.9095 23.497 53.746 23.7669 53.6315C23.3519 53.4577 22.8947 53.4107 22.453 53.4965C22.0114 53.5823 21.605 53.797 21.2853 54.1136C20.6656 54.7135 20.3796 55.5984 20.53 56.4853C20.5496 56.5986 20.5454 56.7147 20.5178 56.8263C20.4902 56.9379 20.4398 57.0426 20.3697 57.1337C20.2291 57.3139 20.0262 57.4129 19.8084 57.4129H21.5624C21.6713 57.4123 21.7785 57.3869 21.876 57.3385C21.9734 57.2901 22.0585 57.2201 22.1247 57.1337ZM15.9419 73.3003V59.3431C15.9479 58.284 16.7833 57.4188 17.8286 57.4129H15.7559C14.7096 57.4188 13.8751 58.284 13.8692 59.3431V73.3003C13.8652 74.3615 14.7105 75.2256 15.7559 75.2306H17.8286C16.7824 75.2246 15.9479 74.3595 15.9419 73.3003ZM36.6362 75.1088L36.6788 69.9555C36.6787 69.8244 36.6482 69.695 36.5898 69.5776C36.5314 69.4602 36.4467 69.3578 36.3422 69.2785C36.2332 69.1949 36.1081 69.1348 35.9747 69.1017C35.8414 69.0687 35.7026 69.0635 35.5672 69.0864C35.385 69.1161 35.2009 69.131 35.0148 69.129C33.8418 69.1221 32.7738 68.4994 32.2561 67.5205C31.7383 66.5415 31.8601 65.3754 32.5708 64.5083C33.2816 63.6411 34.4585 63.2214 35.6117 63.4234C35.7473 63.4484 35.8865 63.4452 36.0208 63.4138C36.155 63.3825 36.2813 63.3237 36.3917 63.2412C36.6095 63.0759 36.7382 62.8285 36.7382 62.5681L36.7808 57.4208L34.5278 57.4129L34.4852 62.5661C34.4833 62.6975 34.4511 62.8266 34.391 62.9433C34.3309 63.0601 34.2446 63.1614 34.1388 63.2393C34.0284 63.3218 33.9021 63.3805 33.7678 63.4119C33.6336 63.4432 33.4943 63.4464 33.3588 63.4214C32.2105 63.2274 31.0425 63.6491 30.3377 64.5152C29.6329 65.3813 29.5121 66.5395 30.0239 67.5145C30.5357 68.4895 31.5948 69.1132 32.7629 69.128C32.948 69.13 33.1331 69.1151 33.3152 69.0854C33.5924 69.0389 33.8755 69.1092 34.0903 69.2775C34.3051 69.4458 34.4268 69.6932 34.4268 69.9546L34.3843 75.1078L51.2448 75.2306C51.3249 75.23 51.4048 75.225 51.4843 75.2157L36.6362 75.1167V75.1088ZM36.6036 37.6154C35.5939 37.6233 34.7753 38.4796 34.7703 39.5377L34.7565 41.5472C34.7565 41.5571 34.7555 41.564 34.7545 41.5729C34.7543 41.5842 34.7537 41.5954 34.7525 41.6066L34.7486 41.6363L34.7436 41.6689L34.7367 41.6986L34.7288 41.7303L34.709 41.7897C34.706 41.7996 34.701 41.8075 34.6971 41.8164L34.6842 41.8441L34.6694 41.8699L34.6535 41.8966L34.6367 41.9204L34.6189 41.9461L34.6011 41.9659L34.5813 41.9896L34.5615 42.0094L34.5377 42.0322L34.5179 42.048L34.4922 42.0678L34.4704 42.0817L34.4427 42.0995L34.4189 42.1124L34.3892 42.1262L34.3635 42.1361L34.3338 42.146L34.2744 42.1619L34.2427 42.1668L34.215 42.1708L34.1814 42.1728C34.1731 42.1729 34.1648 42.1736 34.1566 42.1748L33.4518 42.1827C31.9274 42.1945 30.697 43.4893 30.695 45.086C30.693 46.6826 31.9205 47.9804 33.4449 47.9962L34.1111 48.0061C34.121 48.0061 34.1309 48.0071 34.1408 48.0081H34.1705C34.1804 48.0091 34.1903 48.012 34.2021 48.013L34.2318 48.018L34.2615 48.0279L34.2883 48.0358L34.318 48.0477L34.3437 48.0576L34.3734 48.0724L34.3971 48.0853L34.4239 48.1031L34.4466 48.118L34.4714 48.1377L34.4912 48.1546L34.514 48.1764L34.5338 48.1962L34.5535 48.2189L34.5733 48.2407L34.607 48.2902L34.6219 48.3159L34.6367 48.3427L34.6486 48.3694L34.6614 48.3991L34.6713 48.4258L34.6812 48.4575L34.6882 48.4852L34.6961 48.5179L34.7 48.5476L34.705 48.5822L34.708 48.6436L34.6634 55.4341H36.6758L36.7204 48.6436L36.7174 48.5822L36.7125 48.5476L36.7085 48.5179L36.7006 48.4852L36.6937 48.4575L36.6838 48.4258L36.6739 48.3991L36.661 48.3694L36.6491 48.3427L36.6362 48.306L36.6214 48.2803L36.5868 48.2308C36.5808 48.2229 36.5739 48.2159 36.567 48.209L36.5472 48.1863V48.1665L36.5244 48.1447L36.5046 48.1278L36.4798 48.1081L36.4571 48.0932L36.4303 48.0754L36.4066 48.0625L36.3769 48.0477L36.3512 48.0378L36.3215 48.0259L36.2947 48.018L36.265 48.0081L36.2353 48.0031L36.2037 47.9982L36.1443 47.9942L35.4781 47.9843C33.9537 47.9695 32.7262 46.6698 32.7282 45.0741C32.7302 43.4784 33.9606 42.1837 35.485 42.1708L36.1898 42.1629C36.1997 42.1629 36.2066 42.1619 36.2146 42.1609L36.2482 42.1589L36.2759 42.155L36.3076 42.15C36.3175 42.148 36.3274 42.1451 36.3373 42.1421L36.367 42.1342L36.3967 42.1243C36.4066 42.1213 36.4145 42.1173 36.4224 42.1144L36.4521 42.1005L36.4759 42.0876L36.5036 42.0698L36.5254 42.056L36.5511 42.0362L36.5709 42.0203L36.5947 41.9976L36.6145 41.9778L36.6343 41.954L36.6521 41.9342L36.6699 41.9085L36.6867 41.8847L36.7026 41.858L36.7174 41.8323L36.7303 41.8045L36.7422 41.7778C36.7459 41.7681 36.7492 41.7582 36.7521 41.7481L36.762 41.7184L36.7699 41.6867L36.7768 41.657L36.7818 41.6244L36.7857 41.5947L36.7877 41.561C36.7877 41.5511 36.7887 41.5442 36.7897 41.5353L36.8035 39.5259C36.8085 38.4667 37.6251 37.6104 38.6368 37.6035H36.6244L36.6036 37.6154Z" fill="#766DF4"/>
<path d="M51.251 36.6254H36.8979C36.0177 36.6311 35.1753 36.9835 34.5531 37.606C33.9309 38.2286 33.5791 39.0713 33.5739 39.9514L33.564 41.4026L33.4482 41.4036C31.0547 41.4174 29.1224 43.3655 29.1185 45.7639C29.1145 48.1624 31.0448 50.1154 33.4383 50.1342H33.5016L33.4581 56.5902H27.8554C27.8811 56.2319 27.8653 55.8715 27.8039 55.5172C27.4772 53.5869 25.9033 52.116 23.9632 51.921C22.7486 51.7962 21.538 52.1981 20.6372 53.0257C20.1869 53.4368 19.8272 53.9374 19.5813 54.4955C19.3353 55.0535 19.2085 55.6567 19.2088 56.2665L19.2207 56.5902H16.2749C14.4337 56.5971 12.9489 58.0968 12.9509 59.9409V74.597C12.9479 76.4411 14.4357 77.9398 16.2749 77.9477H33.465L51.1422 78.0863C51.5738 78.0872 52.0014 78.003 52.4006 77.8386C52.7997 77.6742 53.1625 77.4328 53.4684 77.1281C53.7831 76.8185 54.0333 76.4496 54.2044 76.0426C54.3755 75.6357 54.4641 75.1988 54.4652 74.7573L54.577 57.981V39.9851C54.58 38.1409 53.0922 36.6413 51.253 36.6343L51.251 36.6254ZM30.4281 45.7719C30.4241 44.097 31.7743 42.7349 33.4452 42.729L34.2173 42.7211C34.2272 42.7211 34.2351 42.7201 34.245 42.7191L34.2816 42.7171L34.3113 42.7122L34.346 42.7062L34.3777 42.6983L34.441 42.6785L34.4707 42.6686L34.5024 42.6538L34.5281 42.6409L34.5578 42.6231L34.5816 42.6082L34.6113 42.5884L34.633 42.5716L34.6588 42.5478L34.6786 42.5281L34.7013 42.5033L34.7211 42.4815L34.7409 42.4548L34.7588 42.4301L34.7756 42.4023L34.7914 42.3756L34.8053 42.3459L34.8181 42.3162C34.8221 42.3063 34.8261 42.2964 34.828 42.2865C34.83 42.2766 34.835 42.2667 34.8379 42.2568L34.8478 42.2242L34.8548 42.1945L34.8607 42.1608L34.8657 42.1291L34.8676 42.0945C34.8676 42.0846 34.8696 42.0767 34.8696 42.0678L34.8845 39.9653C34.8863 39.4336 35.0977 38.9242 35.4727 38.5474C35.8478 38.1707 36.3564 37.957 36.888 37.9529H51.2411C51.7755 37.957 52.2864 38.1729 52.662 38.553C53.0375 38.9332 53.247 39.4467 53.2446 39.9811V56.6506H48.519C48.2458 56.6506 47.9874 56.7713 47.8132 56.9812C47.639 57.191 47.5618 57.4761 47.6123 57.7493C47.8102 58.7867 47.444 59.8479 46.665 60.5586C46.3557 60.8424 45.9898 61.0574 45.5914 61.1895C45.193 61.3215 44.7711 61.3676 44.3536 61.3248C43.0044 61.1882 41.9126 60.1646 41.6869 58.8243C41.6259 58.4684 41.6276 58.1046 41.6918 57.7493C41.7165 57.6149 41.7115 57.4767 41.6774 57.3444C41.6432 57.2121 41.5805 57.0888 41.4939 56.9832C41.4082 56.8793 41.3007 56.7955 41.1791 56.7377C41.0575 56.6799 40.9247 56.6495 40.7901 56.6486L34.7578 56.5991L34.8033 49.4255L34.7984 49.3899L34.7944 49.3602C34.7924 49.3483 34.7885 49.3374 34.7865 49.3255L34.7795 49.2958L34.7696 49.2631L34.7597 49.2335L34.7459 49.2038L34.733 49.176L34.7162 49.1463L34.7004 49.1196L34.6627 49.0681L34.6429 49.0454L34.6212 49.0206L34.5994 49.0008L34.5746 48.9781L34.5519 48.9602L34.5242 48.9405L34.4994 48.9256L34.4697 48.9058C34.4598 48.8999 34.4519 48.8959 34.443 48.8929L34.4133 48.8781L34.3856 48.8682L34.3529 48.8563L34.3232 48.8484L34.2906 48.8385L34.2589 48.8335L34.2252 48.8276L34.1925 48.8256L34.1609 48.8236L33.4323 48.8137C32.6302 48.8085 31.8629 48.4853 31.2987 47.915C30.7346 47.3448 30.4197 46.574 30.4231 45.7719H30.4281ZM14.2704 74.6009V59.9548C14.2682 59.4206 14.4779 58.9073 14.8534 58.5273C15.2289 58.1474 15.7397 57.9317 16.2739 57.9275H19.6612C19.9344 57.9275 20.1928 57.8067 20.367 57.5969C20.4541 57.491 20.5172 57.3675 20.5521 57.2349C20.5869 57.1023 20.5927 56.9638 20.5689 56.8288C20.3709 55.7914 20.7372 54.7302 21.5162 54.0195C21.8255 53.7357 22.1914 53.5207 22.5898 53.3886C22.9882 53.2565 23.4101 53.2104 23.8276 53.2533C25.1768 53.3899 26.2686 54.4135 26.4943 55.7537C26.5554 56.1089 26.5541 56.472 26.4903 56.8268C26.4658 56.9619 26.4711 57.1008 26.506 57.2337C26.5409 57.3666 26.6045 57.4902 26.6923 57.5959C26.7787 57.7 26.887 57.7838 27.0095 57.8413C27.132 57.8988 27.2657 57.9286 27.401 57.9285H33.4393L33.3997 62.9244C31.0487 62.7324 28.9779 64.4627 28.7443 66.8146C28.6809 67.4231 28.7451 68.0381 28.9325 68.6205C29.12 69.2028 29.4267 69.7397 29.8331 70.197C30.2341 70.646 30.7243 71.0063 31.2725 71.255C31.8206 71.5037 32.4147 71.6352 33.0166 71.6412L33.3333 71.6313L33.2937 76.6302H16.2749C15.7405 76.6263 15.2295 76.4107 14.8538 76.0307C14.478 75.6507 14.2682 75.1373 14.2704 74.6029V74.6009ZM53.1427 74.7524C53.1413 75.2909 52.9279 75.8073 52.5488 76.1897C52.1771 76.5599 51.6737 76.7675 51.1491 76.7668H51.1332L34.6222 76.6381L34.6568 71.1918C34.6576 71.0557 34.6284 70.921 34.5715 70.7974C34.5145 70.6737 34.4311 70.564 34.3272 70.4761C34.2233 70.3882 34.1013 70.3245 33.9698 70.2894C33.8384 70.2543 33.7008 70.2488 33.5669 70.2732C33.3886 70.3053 33.2077 70.3205 33.0265 70.3187C32.4624 70.3151 31.9105 70.1539 31.433 69.8534C30.9556 69.553 30.5715 69.1251 30.3241 68.6181C30.0755 68.1109 29.9727 67.5445 30.0273 66.9822C30.0818 66.4199 30.2915 65.8838 30.633 65.4337C31.3288 64.5161 32.484 64.0726 33.6026 64.2874C33.8738 64.3399 34.1539 64.2696 34.3668 64.0944C34.4723 64.0079 34.5576 63.8992 34.6164 63.776C34.6753 63.6528 34.7063 63.5182 34.7073 63.3817L34.7489 57.9344L40.3367 57.98C40.3098 58.3407 40.3271 58.7034 40.3882 59.0599C40.7148 60.9902 42.2887 62.4611 44.2289 62.6561L44.6605 62.6759C45.7315 62.6789 46.7649 62.277 47.5549 61.5514C48.0052 61.1403 48.3648 60.6397 48.6108 60.0816C48.8567 59.5236 48.9836 58.9204 48.9832 58.3106L48.9714 57.9869H53.2427L53.1358 74.7554L53.1427 74.7524ZM49.9434 53.7968C50.1185 53.796 50.2861 53.726 50.4098 53.6022C50.5334 53.4783 50.6031 53.3106 50.6037 53.1355V51.7616C50.6031 51.5865 50.5334 51.4188 50.4098 51.295C50.2861 51.1711 50.1185 51.1011 49.9434 51.1004C49.7684 51.1011 49.6007 51.1711 49.4771 51.295C49.3534 51.4188 49.2837 51.5865 49.2832 51.7616V53.1355C49.2837 53.3106 49.3534 53.4783 49.4771 53.6022C49.6007 53.726 49.7684 53.796 49.9434 53.7968ZM49.9434 49.1068C50.1185 49.106 50.2861 49.036 50.4098 48.9122C50.5334 48.7883 50.6031 48.6206 50.6037 48.4455V41.2521C50.6031 41.0771 50.5334 40.9093 50.4098 40.7855C50.2861 40.6616 50.1185 40.5917 49.9434 40.5909C49.7684 40.5917 49.6007 40.6616 49.4771 40.7855C49.3534 40.9093 49.2837 41.0771 49.2832 41.2521V48.4455C49.2837 48.6206 49.3534 48.7883 49.4771 48.9122C49.6007 49.036 49.7684 49.106 49.9434 49.1068ZM50.1958 74.6692C50.3709 74.6685 50.5385 74.5985 50.6622 74.4746C50.7859 74.3508 50.8556 74.183 50.8561 74.008V72.6341C50.8556 72.459 50.7859 72.2913 50.6622 72.1674C50.5385 72.0436 50.3709 71.9736 50.1958 71.9728C50.0208 71.9736 49.8532 72.0436 49.7295 72.1674C49.6058 72.2913 49.5361 72.459 49.5356 72.6341V74.008C49.5361 74.183 49.6058 74.3508 49.7295 74.4746C49.8532 74.5985 50.0208 74.6685 50.1958 74.6692ZM50.1958 69.9792C50.3709 69.9784 50.5385 69.9085 50.6622 69.7846C50.7859 69.6608 50.8556 69.493 50.8561 69.318V62.1246C50.8556 61.9495 50.7859 61.7818 50.6622 61.6579C50.5385 61.5341 50.3709 61.4641 50.1958 61.4633C50.0208 61.4641 49.8532 61.5341 49.7295 61.6579C49.6058 61.7818 49.5361 61.9495 49.5356 62.1246V69.318C49.5361 69.493 49.6058 69.6608 49.7295 69.7846C49.8532 69.9085 50.0208 69.9784 50.1958 69.9792ZM26.1003 32.6313L22.9803 30.7337C24.3799 28.7886 23.9681 26.0942 22.0498 24.646C21.5572 24.2726 20.9913 24.0073 20.3892 23.8674C19.7871 23.7275 19.1623 23.7163 18.5555 23.8343C17.3261 24.0719 16.2551 24.8103 15.6057 25.8734L15.4473 26.1546L12.8796 24.6005C12.1082 24.1324 11.1829 23.9886 10.3059 24.2005C9.4279 24.4124 8.67262 24.9627 8.20738 25.7289L0.506167 38.3597C-0.465888 39.9435 0.038947 42.0272 1.63759 43.0071L3.84897 44.3534C4.06674 44.485 4.32807 44.5197 4.57158 44.4484C4.69166 44.4134 4.80314 44.3538 4.89892 44.2734C4.9947 44.1929 5.07268 44.0934 5.12789 43.9812C5.35246 43.5234 5.70023 43.1373 6.13214 42.8663C6.56405 42.5952 7.06298 42.45 7.57287 42.4469C8.6162 42.439 9.57242 43.021 10.0396 43.9455C10.2683 44.3984 10.3643 44.9067 10.3167 45.4118C10.269 45.9168 10.0797 46.3982 9.77039 46.8003C9.69391 46.8988 9.63918 47.0123 9.60983 47.1335C9.58048 47.2546 9.57718 47.3806 9.60013 47.5032C9.62331 47.6261 9.67214 47.7428 9.74343 47.8457C9.81472 47.9485 9.90688 48.0352 10.0139 48.1L14.7504 50.9707C15.28 51.2934 15.8888 51.4636 16.5124 51.4636C17.0911 51.4652 17.6606 51.3192 18.1672 51.0395C18.6738 50.7597 19.1008 50.3555 19.4078 49.865L21.0253 47.2616C21.0953 47.1496 21.1407 47.024 21.1585 46.8931C21.1762 46.7622 21.1659 46.629 21.1282 46.5024C21.0901 46.3754 21.0257 46.2579 20.939 46.1576C20.8523 46.0573 20.7455 45.9764 20.6253 45.9203C19.0752 45.1977 18.4051 43.3724 19.1247 41.8322C19.8443 40.2919 21.6845 39.6178 23.2426 40.3236C23.4602 40.4256 23.6654 40.5522 23.8543 40.7007C23.9591 40.7839 24.0803 40.844 24.21 40.8771C24.3396 40.9102 24.4748 40.9155 24.6066 40.8928C24.7384 40.8707 24.8639 40.8207 24.9748 40.7463C25.0858 40.6719 25.1796 40.5747 25.25 40.4612L27.2179 37.2936C28.2098 35.6979 27.7089 33.6083 26.0993 32.6244L26.1003 32.6313ZM26.0706 36.5908L24.3285 39.3921C24.1647 39.288 23.9944 39.1944 23.8187 39.112C21.9359 38.2369 19.6909 38.7754 18.4239 40.3988C18.0419 40.8902 17.7682 41.4568 17.6207 42.0613C17.4731 42.6659 17.455 43.2949 17.5676 43.9069C17.7953 45.1443 18.5427 46.2262 19.6226 46.8766L19.6523 46.8964L18.2665 49.1414C17.6775 50.0917 16.4253 50.3886 15.4651 49.8096L11.1275 47.1715C11.6662 46.2572 11.8225 45.1673 11.5623 44.1384C11.302 43.1096 10.6464 42.225 9.73773 41.6768C7.84311 40.5245 5.36744 41.0848 4.16474 42.9369L2.35327 41.8342C2.12351 41.6941 1.92358 41.5101 1.76491 41.2928C1.60623 41.0755 1.49192 40.829 1.4285 40.5675C1.36507 40.306 1.35378 40.0346 1.39526 39.7687C1.43674 39.5028 1.53019 39.2477 1.67026 39.018L9.37543 26.4099C9.65458 25.9487 10.1079 25.6161 10.6375 25.4894C11.1653 25.3618 11.7221 25.4479 12.1867 25.7289L15.1424 27.5255C15.38 27.671 15.672 27.7037 15.9373 27.6245C16.2026 27.5453 16.4184 27.3295 16.5184 27.0672C16.7065 26.5789 17.016 26.1465 17.4176 25.811C17.8193 25.4755 18.2998 25.248 18.8139 25.1498C19.6671 24.9845 20.5521 25.1894 21.241 25.7141C21.5809 25.9705 21.8639 26.2947 22.0721 26.6662C22.2804 27.0376 22.4092 27.4482 22.4507 27.872C22.4914 28.2952 22.4437 28.7224 22.3106 29.1262C22.1775 29.5301 21.962 29.9018 21.6776 30.218C21.5865 30.3196 21.5189 30.4401 21.4795 30.5708C21.4402 30.7015 21.4301 30.8392 21.4499 30.9742C21.4704 31.1109 21.5208 31.2413 21.5974 31.3563C21.6741 31.4713 21.7751 31.568 21.8934 31.6394L25.3975 33.7706C25.6285 33.9114 25.8293 34.0964 25.9884 34.3152C26.1476 34.5339 26.2618 34.782 26.3245 35.045C26.3873 35.3081 26.3974 35.5811 26.3541 35.8481C26.3109 36.1151 26.2152 36.3708 26.0726 36.6007L26.0706 36.5908Z" fill="#766DF4"/>
</svg>
