<?xml version="1.0" encoding="UTF-8"?> <svg xmlns="http://www.w3.org/2000/svg" xmlns:xlink="http://www.w3.org/1999/xlink" width="365" height="250" viewBox="0 0 365 250"><defs><clipPath id="clip-path"><rect id="Rectangle_94" data-name="Rectangle 94" width="365" height="250" fill="#fff"></rect></clipPath><linearGradient id="linear-gradient" y1="0.025" x2="0.988" y2="1" gradientUnits="objectBoundingBox"><stop offset="0" stop-color="#37123c"></stop><stop offset="0.576" stop-color="#150e47"></stop><stop offset="1" stop-color="#1a2b59"></stop></linearGradient></defs><g id="Mask_Group_11" data-name="Mask Group 11" clip-path="url(#clip-path)"><rect id="Rectangle_1" data-name="Rectangle 1" width="444" height="250" transform="translate(-39)" fill="url(#linear-gradient)"></rect><text id="Original_Data" data-name="Original Data" transform="translate(57 79)" fill="#fff" font-size="13" font-family="OpenSans, Open Sans"><tspan x="-39" y="0">Original Data</tspan></text><text id="Fully_Synthetic_Data" data-name="Fully Synthetic Data" transform="translate(267 23)" fill="#fff" font-size="13" font-family="OpenSans, Open Sans"><tspan x="-59" y="0">Fully Synthetic Data</tspan></text><text id="Partially_Synthetic_Data" data-name="Partially Synthetic Data" transform="translate(278 142)" fill="#fff" font-size="13" font-family="OpenSans, Open Sans"><tspan x="-69" y="0">Partially Synthetic Data</tspan></text><g id="Group_24" data-name="Group 24" transform="translate(0 10)"><rect id="Rectangle_69" data-name="Rectangle 69" width="18" height="9" transform="translate(16 104)" fill="#2230ce"></rect><rect id="Rectangle_74" data-name="Rectangle 74" width="18" height="9" transform="translate(16 117)" fill="#2230ce"></rect><rect id="Rectangle_79" data-name="Rectangle 79" width="18" height="9" transform="translate(16 130)" fill="#2230ce"></rect><rect id="Rectangle_84" data-name="Rectangle 84" width="18" height="9" transform="translate(16 143)" fill="#2230ce"></rect><rect id="Rectangle_89" data-name="Rectangle 89" width="18" height="9" transform="translate(16 156)" fill="#2230ce"></rect><rect id="Rectangle_70" data-name="Rectangle 70" width="18" height="9" transform="translate(42 104)" fill="#2230ce"></rect><rect id="Rectangle_75" data-name="Rectangle 75" width="18" height="9" transform="translate(42 117)" fill="#2230ce"></rect><rect id="Rectangle_80" data-name="Rectangle 80" width="18" height="9" transform="translate(42 130)" fill="#2230ce"></rect><rect id="Rectangle_85" data-name="Rectangle 85" width="18" height="9" transform="translate(42 143)" fill="#2230ce"></rect><rect id="Rectangle_90" data-name="Rectangle 90" width="18" height="9" transform="translate(42 156)" fill="#2230ce"></rect><rect id="Rectangle_71" data-name="Rectangle 71" width="18" height="9" transform="translate(68 104)" fill="#2230ce"></rect><rect id="Rectangle_76" data-name="Rectangle 76" width="18" height="9" transform="translate(68 117)" fill="#2230ce"></rect><rect id="Rectangle_81" data-name="Rectangle 81" width="18" height="9" transform="translate(68 130)" fill="#2230ce"></rect><rect id="Rectangle_86" data-name="Rectangle 86" width="18" height="9" transform="translate(68 143)" fill="#2230ce"></rect><rect id="Rectangle_91" data-name="Rectangle 91" width="18" height="9" transform="translate(68 156)" fill="#2230ce"></rect><rect id="Rectangle_72" data-name="Rectangle 72" width="18" height="9" transform="translate(94 104)" fill="#2230ce"></rect><rect id="Rectangle_77" data-name="Rectangle 77" width="18" height="9" transform="translate(94 117)" fill="#2230ce"></rect><rect id="Rectangle_82" data-name="Rectangle 82" width="18" height="9" transform="translate(94 130)" fill="#2230ce"></rect><rect id="Rectangle_87" data-name="Rectangle 87" width="18" height="9" transform="translate(94 143)" fill="#2230ce"></rect><rect id="Rectangle_92" data-name="Rectangle 92" width="18" height="9" transform="translate(94 156)" fill="#2230ce"></rect><rect id="Rectangle_73" data-name="Rectangle 73" width="18" height="9" transform="translate(120 104)" fill="#2230ce"></rect><rect id="Rectangle_78" data-name="Rectangle 78" width="18" height="9" transform="translate(120 117)" fill="#2230ce"></rect><rect id="Rectangle_83" data-name="Rectangle 83" width="18" height="9" transform="translate(120 130)" fill="#2230ce"></rect><rect id="Rectangle_88" data-name="Rectangle 88" width="18" height="9" transform="translate(120 143)" fill="#2230ce"></rect><rect id="Rectangle_93" data-name="Rectangle 93" width="18" height="9" transform="translate(120 156)" fill="#2230ce"></rect></g><g id="Group_24-2" data-name="Group 24" transform="translate(192 -45)"><rect id="Rectangle_69-2" data-name="Rectangle 69" width="18" height="9" transform="translate(16 104)" fill="#fff"></rect><rect id="Rectangle_74-2" data-name="Rectangle 74" width="18" height="9" transform="translate(16 117)" fill="#fff"></rect><rect id="Rectangle_79-2" data-name="Rectangle 79" width="18" height="9" transform="translate(16 130)" fill="#fff"></rect><rect id="Rectangle_84-2" data-name="Rectangle 84" width="18" height="9" transform="translate(16 143)" fill="#fff"></rect><rect id="Rectangle_89-2" data-name="Rectangle 89" width="18" height="9" transform="translate(16 156)" fill="#fff"></rect><rect id="Rectangle_70-2" data-name="Rectangle 70" width="18" height="9" transform="translate(42 104)" fill="#fff"></rect><rect id="Rectangle_75-2" data-name="Rectangle 75" width="18" height="9" transform="translate(42 117)" fill="#fff"></rect><rect id="Rectangle_80-2" data-name="Rectangle 80" width="18" height="9" transform="translate(42 130)" fill="#fff"></rect><rect id="Rectangle_85-2" data-name="Rectangle 85" width="18" height="9" transform="translate(42 143)" fill="#fff"></rect><rect id="Rectangle_90-2" data-name="Rectangle 90" width="18" height="9" transform="translate(42 156)" fill="#fff"></rect><rect id="Rectangle_71-2" data-name="Rectangle 71" width="18" height="9" transform="translate(68 104)" fill="#fff"></rect><rect id="Rectangle_76-2" data-name="Rectangle 76" width="18" height="9" transform="translate(68 117)" fill="#fff"></rect><rect id="Rectangle_81-2" data-name="Rectangle 81" width="18" height="9" transform="translate(68 130)" fill="#fff"></rect><rect id="Rectangle_86-2" data-name="Rectangle 86" width="18" height="9" transform="translate(68 143)" fill="#fff"></rect><rect id="Rectangle_91-2" data-name="Rectangle 91" width="18" height="9" transform="translate(68 156)" fill="#fff"></rect><rect id="Rectangle_72-2" data-name="Rectangle 72" width="18" height="9" transform="translate(94 104)" fill="#fff"></rect><rect id="Rectangle_77-2" data-name="Rectangle 77" width="18" height="9" transform="translate(94 117)" fill="#fff"></rect><rect id="Rectangle_82-2" data-name="Rectangle 82" width="18" height="9" transform="translate(94 130)" fill="#fff"></rect><rect id="Rectangle_87-2" data-name="Rectangle 87" width="18" height="9" transform="translate(94 143)" fill="#fff"></rect><rect id="Rectangle_92-2" data-name="Rectangle 92" width="18" height="9" transform="translate(94 156)" fill="#fff"></rect><rect id="Rectangle_73-2" data-name="Rectangle 73" width="18" height="9" transform="translate(120 104)" fill="#fff"></rect><rect id="Rectangle_78-2" data-name="Rectangle 78" width="18" height="9" transform="translate(120 117)" fill="#fff"></rect><rect id="Rectangle_83-2" data-name="Rectangle 83" width="18" height="9" transform="translate(120 130)" fill="#fff"></rect><rect id="Rectangle_88-2" data-name="Rectangle 88" width="18" height="9" transform="translate(120 143)" fill="#fff"></rect><rect id="Rectangle_93-2" data-name="Rectangle 93" width="18" height="9" transform="translate(120 156)" fill="#fff"></rect></g><g id="Group_24-3" data-name="Group 24" transform="translate(192 76)"><rect id="Rectangle_69-3" data-name="Rectangle 69" width="18" height="9" transform="translate(16 104)" fill="#2230ce"></rect><rect id="Rectangle_74-3" data-name="Rectangle 74" width="18" height="9" transform="translate(16 117)" fill="#2230ce"></rect><rect id="Rectangle_79-3" data-name="Rectangle 79" width="18" height="9" transform="translate(16 130)" fill="#2230ce"></rect><rect id="Rectangle_84-3" data-name="Rectangle 84" width="18" height="9" transform="translate(16 143)" fill="#2230ce"></rect><rect id="Rectangle_89-3" data-name="Rectangle 89" width="18" height="9" transform="translate(16 156)" fill="#2230ce"></rect><rect id="Rectangle_70-3" data-name="Rectangle 70" width="18" height="9" transform="translate(42 104)" fill="#fff"></rect><rect id="Rectangle_75-3" data-name="Rectangle 75" width="18" height="9" transform="translate(42 117)" fill="#fff"></rect><rect id="Rectangle_80-3" data-name="Rectangle 80" width="18" height="9" transform="translate(42 130)" fill="#fff"></rect><rect id="Rectangle_85-3" data-name="Rectangle 85" width="18" height="9" transform="translate(42 143)" fill="#fff"></rect><rect id="Rectangle_90-3" data-name="Rectangle 90" width="18" height="9" transform="translate(42 156)" fill="#fff"></rect><rect id="Rectangle_71-3" data-name="Rectangle 71" width="18" height="9" transform="translate(68 104)" fill="#2230ce"></rect><rect id="Rectangle_76-3" data-name="Rectangle 76" width="18" height="9" transform="translate(68 117)" fill="#2230ce"></rect><rect id="Rectangle_81-3" data-name="Rectangle 81" width="18" height="9" transform="translate(68 130)" fill="#2230ce"></rect><rect id="Rectangle_86-3" data-name="Rectangle 86" width="18" height="9" transform="translate(68 143)" fill="#2230ce"></rect><rect id="Rectangle_91-3" data-name="Rectangle 91" width="18" height="9" transform="translate(68 156)" fill="#2230ce"></rect><rect id="Rectangle_72-3" data-name="Rectangle 72" width="18" height="9" transform="translate(94 104)" fill="#2230ce"></rect><rect id="Rectangle_77-3" data-name="Rectangle 77" width="18" height="9" transform="translate(94 117)" fill="#2230ce"></rect><rect id="Rectangle_82-3" data-name="Rectangle 82" width="18" height="9" transform="translate(94 130)" fill="#2230ce"></rect><rect id="Rectangle_87-3" data-name="Rectangle 87" width="18" height="9" transform="translate(94 143)" fill="#2230ce"></rect><rect id="Rectangle_92-3" data-name="Rectangle 92" width="18" height="9" transform="translate(94 156)" fill="#2230ce"></rect><rect id="Rectangle_73-3" data-name="Rectangle 73" width="18" height="9" transform="translate(120 104)" fill="#fff"></rect><rect id="Rectangle_78-3" data-name="Rectangle 78" width="18" height="9" transform="translate(120 117)" fill="#fff"></rect><rect id="Rectangle_83-3" data-name="Rectangle 83" width="18" height="9" transform="translate(120 130)" fill="#fff"></rect><rect id="Rectangle_88-3" data-name="Rectangle 88" width="18" height="9" transform="translate(120 143)" fill="#fff"></rect><rect id="Rectangle_93-3" data-name="Rectangle 93" width="18" height="9" transform="translate(120 156)" fill="#fff"></rect></g><path id="Path_32" data-name="Path 32" d="M1305.215,143.4,1369.2,91.114" transform="translate(-1164)" fill="none" stroke="#fff" stroke-width="1"></path><path id="Path_33" data-name="Path 33" d="M1305.215,91.114l63.984,63.866" transform="translate(-1164 55.104)" fill="none" stroke="#fff" stroke-width="1"></path><path id="Polygon_4" data-name="Polygon 4" d="M5,0l5,9H0Z" transform="translate(203.461 85.979) rotate(48)" fill="#fff"></path><path id="Polygon_5" data-name="Polygon 5" d="M5,0l5,9H0Z" transform="translate(198.41 214.268) rotate(-105)" fill="#fff"></path><g id="Group_63" data-name="Group 63"><circle id="Ellipse_1" data-name="Ellipse 1" cx="9" cy="9" r="9" transform="translate(16 90)" fill="#000627"></circle><circle id="Ellipse_2" data-name="Ellipse 2" cx="9" cy="9" r="9" transform="translate(42 90)" fill="#000627"></circle><circle id="Ellipse_3" data-name="Ellipse 3" cx="9" cy="9" r="9" transform="translate(68 90)" fill="#000627"></circle><circle id="Ellipse_4" data-name="Ellipse 4" cx="9" cy="9" r="9" transform="translate(94 90)" fill="#000627"></circle><circle id="Ellipse_5" data-name="Ellipse 5" cx="9" cy="9" r="9" transform="translate(120 90)" fill="#000627"></circle><g id="Group_28" data-name="Group 28" transform="translate(-1012.952 -22.599)"><path id="Path_34" data-name="Path 34" d="M70,258.07v6.124l3.848-3.078L70,258.07" transform="translate(962 -137.992)" fill="#fff" fill-rule="evenodd"></path><path id="Path_35" data-name="Path 35" d="M82.006,8.631H85.24l4.174-3.3L84.226.5a.759.759,0,0,0-1.009,0L77.939,5.412l4.067,3.219" transform="translate(954.23 114.294)" fill="#fff" fill-rule="evenodd"></path><path id="Path_36" data-name="Path 36" d="M89.811,410.67H86.578l-3.968,3.174H93.779l-3.968-3.174" transform="translate(949.658 -287.348)" fill="#fff" fill-rule="evenodd"></path><path id="Path_37" data-name="Path 37" d="M439.66,253.883l4.046,3.237v-6.44l-4.046,3.2" transform="translate(600.198 -130.759)" fill="#fff" fill-rule="evenodd"></path></g><g id="Group_29" data-name="Group 29" transform="translate(-1658.324 -206)"><path id="Path_38" data-name="Path 38" d="M107.226,28.409l-.015-.03a6.526,6.526,0,0,0-3.571-.4l.015.015a6.725,6.725,0,0,0-2.074.7,6.133,6.133,0,0,0-1.452,1.037v-.015a6.458,6.458,0,0,0-1.689,2.578c0,.015,0,.015-.015.03l-.089.267c0,.015,0,.015-.015.03-.03.1-.059.193-.089.3,0,.015-.015.03-.015.044a1.234,1.234,0,0,1-.059.222c-.015.059-.015.1-.03.163s-.015.074-.015.119-.015.133-.03.193a.134.134,0,0,1-.015.074,6.773,6.773,0,0,0,.741,3.942,6.652,6.652,0,1,0,11.766-6.209,6.564,6.564,0,0,0-3.349-3.053Zm3.186,3.141a6.408,6.408,0,0,1,.667,2.03l-.207-.193-.074.459-.593.074-.652-.874.059-.415-.237-.3-.178-1.23-.119-.682-.4-.3-.178-.207.356-.193-.578-.43-.474-.089-.356-.489a6.434,6.434,0,0,1,2.964,2.83Zm-8.743-2.7a6.537,6.537,0,0,1,2.193-.7l.37.3-.133.356.652.637.044.3.5.044-.326.282-.874-.237-1.008,1.2-.415.533-.015.637-.4-.533-1.052.311-.474.726.178.489.8-.119.459.5-.059.474.415.1.608-.326,1.052.267.993.4.83.015.43.726.948.326.771.578-.43.578-.489,1.23-.608.119-.252.711-.934.771-.608.119-.207.578.015.385.326.178-.7-.178-.237-.459.1-2.015-.193-.637-.7-.415-.533-.859V34.677l-.445-.163-.5-.282-.237-.385-.459-.267-.3.119-.845-.7-.415-.726-.1-1.156.519-.948v-.015a7,7,0,0,1,1.734-1.3Z" transform="translate(1604.3 270.113)" fill="#fff"></path></g><g id="Group_30" data-name="Group 30" transform="translate(-1017.317 -263.951)"><path id="Path_39" data-name="Path 39" d="M250.635,61.148a2.818,2.818,0,1,1-2.818-2.818,2.818,2.818,0,0,1,2.818,2.818" transform="translate(846.821 298.621)" fill="#fff" fill-rule="evenodd"></path><path id="Path_40" data-name="Path 40" d="M162.315,295.74v.626a.939.939,0,0,1-.939.939h-8.766a.939.939,0,0,1-.939-.939v-.626a4.07,4.07,0,0,1,4.07-4.07h2.5a4.07,4.07,0,0,1,4.07,4.07Z" transform="translate(937.647 71.543)" fill="#fff" fill-rule="evenodd"></path></g><g id="noun-credit-cart-2643816" transform="translate(96.006 14.333)"><path id="Path_41" data-name="Path 41" d="M10.369,278.55H0v.44H10.369Z" transform="translate(-0.006 -193.949)" fill="#fff"></path><path id="Path_42" data-name="Path 42" d="M10.369,313.46H0v3.656a.284.284,0,0,0,.283.283h9.8a.286.286,0,0,0,.283-.283V313.46ZM.83,316.671H4.158v.253H.83ZM1,314.864H2.936v.759H.867v-.759ZM9.53,316.2a.614.614,0,0,1-.944.514.535.535,0,0,1-.1.053.611.611,0,1,1,0-1.134.537.537,0,0,1,.1.053.614.614,0,0,1,.944.514Z" transform="translate(-0.006 -228.165)" fill="#fff"></path><path id="Path_43" data-name="Path 43" d="M-.006,229.257H10.363V228.8a.286.286,0,0,0-.283-.283H.277a.284.284,0,0,0-.283.283v.457Z" transform="translate(0 -144.91)" fill="#fff"></path><path id="Path_44" data-name="Path 44" d="M188.863,81.407V80.95a.284.284,0,0,0-.283-.283h-9.8a.284.284,0,0,0-.283.283v.457Z" transform="translate(-174.951 0)" fill="#fff"></path><path id="Path_45" data-name="Path 45" d="M188.869,131.051v-.44H178.5v.44Z" transform="translate(-174.957 -48.951)" fill="#fff"></path><path id="Path_46" data-name="Path 46" d="M178.5,166.519h6.536a.537.537,0,0,1,.536.536v2.4h3.013a.284.284,0,0,0,.283-.283v-3.656H178.495Zm9.606,2.133a.613.613,0,0,1-.942.514.591.591,0,0,1-.1.053.647.647,0,1,1,1.046-.567Z" transform="translate(-174.952 -83.165)" fill="#fff"></path><g id="Group_31" data-name="Group 31" transform="translate(-0.006 89.254)"><path id="Path_47" data-name="Path 47" d="M.021-.307h0a0,0,0,0,1,0,0,0,0,0,0,1,0,0h0v0h0Z" transform="translate(-0.016 0.313)" fill="#fff"></path></g><g id="Group_32" data-name="Group 32" transform="translate(0.001 89.256)"><path id="Path_48" data-name="Path 48" d="M.035-.233h0v0h0v0h0Z" transform="translate(-0.031 0.234)" fill="#fff"></path></g><g id="Group_33" data-name="Group 33" transform="translate(0.005 89.256)"><path id="Path_49" data-name="Path 49" d="M.021-.232h0v0h0v0Zm0,0h0Z" transform="translate(-0.016 0.234)" fill="#fff"></path></g><g id="Group_34" data-name="Group 34" transform="translate(0.011 89.256)"><path id="Path_50" data-name="Path 50" d="M.018-.232h0Zm0,0v0h0Z" transform="translate(-0.016 0.234)" fill="#fff"></path></g><g id="Group_35" data-name="Group 35" transform="translate(0.016 89.254)"><path id="Path_51" data-name="Path 51" d="M0-.3H0v0H0v0H0Z" transform="translate(0 0.297)" fill="#fff"></path></g><g id="Group_36" data-name="Group 36" transform="translate(0.02 89.256)"><path id="Path_52" data-name="Path 52" d="M.021-.232h0v0h0v0Zm0,0h0Z" transform="translate(-0.016 0.234)" fill="#fff"></path></g><g id="Group_37" data-name="Group 37" transform="translate(0.026 89.254)"><path id="Path_53" data-name="Path 53" d="M.019-.326v0h0v.007h0v0h0Zm0,0h0Z" transform="translate(-0.016 0.328)" fill="#fff"></path></g><g id="Group_38" data-name="Group 38" transform="translate(0.036 89.254)"><path id="Path_54" data-name="Path 54" d="M.034-.323h0Zm0,0h0v0h0V-.328h0Z" transform="translate(-0.031 0.328)" fill="#fff"></path></g><g id="Group_39" data-name="Group 39" transform="translate(0.041 89.256)"><path id="Path_55" data-name="Path 55" d="M0-.234H0v0h0l0,0H0Z" transform="translate(0 0.234)" fill="#fff"></path></g><g id="Group_40" data-name="Group 40" transform="translate(0.05 89.256)"><path id="Path_56" data-name="Path 56" d="M.018-.232h0Zm0,0v0h0Z" transform="translate(-0.016 0.234)" fill="#fff"></path></g><g id="Group_41" data-name="Group 41" transform="translate(0.056 89.254)"><path id="Path_57" data-name="Path 57" d="M.031-.328h0v.007h0Z" transform="translate(-0.031 0.328)" fill="#fff"></path></g><g id="Group_42" data-name="Group 42" transform="translate(0.059 89.254)"><path id="Path_58" data-name="Path 58" d="M.031-.328h0v.007h0Z" transform="translate(-0.031 0.328)" fill="#fff"></path></g><g id="Group_43" data-name="Group 43" transform="translate(0.061 89.256)"><path id="Path_59" data-name="Path 59" d="M.021-.232h0v0h0v0Zm0,0h0Z" transform="translate(-0.016 0.234)" fill="#fff"></path></g><g id="Group_44" data-name="Group 44" transform="translate(0.067 89.256)"><path id="Path_60" data-name="Path 60" d="M0-.232l0,0h0l0,0,0,0H0v0H0Z" transform="translate(0 0.234)" fill="#fff"></path></g><g id="Group_45" data-name="Group 45" transform="translate(-0.006 89.262)"><path id="Path_61" data-name="Path 61" d="M0-.328H0v0H0v0H0Z" transform="translate(0 0.328)" fill="#fff"></path></g><g id="Group_46" data-name="Group 46" transform="translate(-0.002 89.264)"><path id="Path_62" data-name="Path 62" d="M.035-.233h0v0h0v0h0Z" transform="translate(-0.031 0.234)" fill="#fff"></path></g><g id="Group_47" data-name="Group 47" transform="translate(0.002 89.264)"><path id="Path_63" data-name="Path 63" d="M.018-.233h0Zm0,0h0v0h0v0Z" transform="translate(-0.016 0.234)" fill="#fff"></path></g><g id="Group_48" data-name="Group 48" transform="translate(0.008 89.264)"><path id="Path_64" data-name="Path 64" d="M.036-.233h0v0h0v0h0v0h0v0h0v0h0v0h0Z" transform="translate(-0.031 0.234)" fill="#fff"></path></g><g id="Group_49" data-name="Group 49" transform="translate(0.02 89.263)"><path id="Path_65" data-name="Path 65" d="M0-.3H0v0H0v0H0Z" transform="translate(0 0.297)" fill="#fff"></path></g><g id="Group_50" data-name="Group 50" transform="translate(0.024 89.262)"><path id="Path_66" data-name="Path 66" d="M.036-.324v0h0v0h0v0h0V-.328h0v0h0Z" transform="translate(-0.031 0.328)" fill="#fff"></path></g><g id="Group_51" data-name="Group 51" transform="translate(0.03 89.264)"><path id="Path_67" data-name="Path 67" d="M.021-.232h0v0h0v0Zm0,0h0Z" transform="translate(-0.016 0.234)" fill="#fff"></path></g><g id="Group_52" data-name="Group 52" transform="translate(0.039 89.263)"><path id="Path_68" data-name="Path 68" d="M.047-.312h0l0,0v0h0v.006h0l0,0v0h0Z" transform="translate(-0.047 0.313)" fill="#fff"></path></g><g id="Group_53" data-name="Group 53" transform="translate(0.046 89.264)"><path id="Path_69" data-name="Path 69" d="M.018-.233h0Zm0,0h0v0h0v0Z" transform="translate(-0.016 0.234)" fill="#fff"></path></g><g id="Group_54" data-name="Group 54" transform="translate(0.052 89.264)"><path id="Path_70" data-name="Path 70" d="M.031-.232v0h0v0h0v0h0v0Z" transform="translate(-0.031 0.234)" fill="#fff"></path></g><g id="Group_55" data-name="Group 55" transform="translate(0.058 89.264)"><path id="Path_71" data-name="Path 71" d="M.036-.233v0h0v0h0v0h0v0h0Z" transform="translate(-0.031 0.234)" fill="#fff"></path></g><g id="Group_56" data-name="Group 56" transform="translate(0.067 89.263)"><path id="Path_72" data-name="Path 72" d="M.047-.312h0v0h0v0h0Zm0,0v0h0Z" transform="translate(-0.047 0.313)" fill="#fff"></path></g><g id="Group_57" data-name="Group 57" transform="translate(0.073 89.264)"><path id="Path_73" data-name="Path 73" d="M.035-.233h0v0h0v0h0Z" transform="translate(-0.031 0.234)" fill="#fff"></path></g><g id="Group_58" data-name="Group 58" transform="translate(0.077 89.264)"><path id="Path_74" data-name="Path 74" d="M.018-.233h0Zm0,0h0v0h0v0Z" transform="translate(-0.016 0.234)" fill="#fff"></path></g><g id="Group_59" data-name="Group 59" transform="translate(0.082 89.262)"><path id="Path_75" data-name="Path 75" d="M-.015-.326h0v0h0Zm0,0h0Z" transform="translate(0.016 0.328)" fill="#fff"></path></g><g id="Group_60" data-name="Group 60" transform="translate(0.086 89.264)"><path id="Path_76" data-name="Path 76" d="M.021-.232h0v0h0v0Zm0,0h0Z" transform="translate(-0.016 0.234)" fill="#fff"></path></g><g id="Group_61" data-name="Group 61" transform="translate(0.092 89.264)"><path id="Path_77" data-name="Path 77" d="M.02-.234h0v0h0Z" transform="translate(-0.016 0.234)" fill="#fff"></path></g><g id="Group_62" data-name="Group 62" transform="translate(0.096 89.263)"><path id="Path_78" data-name="Path 78" d="M0-.3H0v0H0v0H0Z" transform="translate(0 0.297)" fill="#fff"></path></g></g><g id="noun-contact-1696905" transform="translate(-16 24)"><path id="Path_79" data-name="Path 79" d="M303.33,189.067c0,1.065.426,2.279,1.363,2.4h.767v-.8h-.8a.287.287,0,0,1-.117-.027c-.533-.256-.533-1.268-.533-1.571s.037-1.315.533-1.571h0a.288.288,0,0,1,.117-.027h.8v-.8h-.8C303.756,186.787,303.33,188,303.33,189.067Z" transform="translate(-159.602 -114.007)" fill="#fff"></path><path id="Path_80" data-name="Path 80" d="M148.787,70H140.8a.266.266,0,0,0-.266.266v.8h.8a.266.266,0,1,1,0,.533h-1.065a.266.266,0,1,0,0,.533h.266V73.2h.8a.266.266,0,1,1,0,.533h-1.065a.266.266,0,0,0,0,.533h.266v1.065h.8a.266.266,0,1,1,0,.533h-1.065a.266.266,0,1,0,0,.533h.266v1.065h.8a.266.266,0,1,1,0,.533h-1.065a.266.266,0,1,0,0,.533h.266v1.331a.266.266,0,0,0,.266.266h7.989a.266.266,0,0,0,.266-.266V70.266a.266.266,0,0,0-.266-.266Zm-2.4,3.462a.533.533,0,0,1-.533.533h-.714a2.707,2.707,0,0,0,0,2.13h.714a.533.533,0,0,1,.533.533v.8a.533.533,0,0,1-.533.533h-.8c-1.3-.16-1.864-1.6-1.864-2.929s.565-2.77,1.832-2.929h.831a.533.533,0,0,1,.533.533Z" fill="#fff"></path></g></g><g id="Group_64" data-name="Group 64" transform="translate(191 -55)"><circle id="Ellipse_1-2" data-name="Ellipse 1" cx="9" cy="9" r="9" transform="translate(16 90)" fill="#000627"></circle><circle id="Ellipse_2-2" data-name="Ellipse 2" cx="9" cy="9" r="9" transform="translate(42 90)" fill="#000627"></circle><circle id="Ellipse_3-2" data-name="Ellipse 3" cx="9" cy="9" r="9" transform="translate(68 90)" fill="#000627"></circle><circle id="Ellipse_4-2" data-name="Ellipse 4" cx="9" cy="9" r="9" transform="translate(94 90)" fill="#000627"></circle><circle id="Ellipse_5-2" data-name="Ellipse 5" cx="9" cy="9" r="9" transform="translate(120 90)" fill="#000627"></circle><g id="Group_28-2" data-name="Group 28" transform="translate(-1012.952 -22.599)"><path id="Path_34-2" data-name="Path 34" d="M70,258.07v6.124l3.848-3.078L70,258.07" transform="translate(962 -137.992)" fill="#fff" fill-rule="evenodd"></path><path id="Path_35-2" data-name="Path 35" d="M82.006,8.631H85.24l4.174-3.3L84.226.5a.759.759,0,0,0-1.009,0L77.939,5.412l4.067,3.219" transform="translate(954.23 114.294)" fill="#fff" fill-rule="evenodd"></path><path id="Path_36-2" data-name="Path 36" d="M89.811,410.67H86.578l-3.968,3.174H93.779l-3.968-3.174" transform="translate(949.658 -287.348)" fill="#fff" fill-rule="evenodd"></path><path id="Path_37-2" data-name="Path 37" d="M439.66,253.883l4.046,3.237v-6.44l-4.046,3.2" transform="translate(600.198 -130.759)" fill="#fff" fill-rule="evenodd"></path></g><g id="Group_29-2" data-name="Group 29" transform="translate(-1658.324 -206)"><path id="Path_38-2" data-name="Path 38" d="M107.226,28.409l-.015-.03a6.526,6.526,0,0,0-3.571-.4l.015.015a6.725,6.725,0,0,0-2.074.7,6.133,6.133,0,0,0-1.452,1.037v-.015a6.458,6.458,0,0,0-1.689,2.578c0,.015,0,.015-.015.03l-.089.267c0,.015,0,.015-.015.03-.03.1-.059.193-.089.3,0,.015-.015.03-.015.044a1.234,1.234,0,0,1-.059.222c-.015.059-.015.1-.03.163s-.015.074-.015.119-.015.133-.03.193a.134.134,0,0,1-.015.074,6.773,6.773,0,0,0,.741,3.942,6.652,6.652,0,1,0,11.766-6.209,6.564,6.564,0,0,0-3.349-3.053Zm3.186,3.141a6.408,6.408,0,0,1,.667,2.03l-.207-.193-.074.459-.593.074-.652-.874.059-.415-.237-.3-.178-1.23-.119-.682-.4-.3-.178-.207.356-.193-.578-.43-.474-.089-.356-.489a6.434,6.434,0,0,1,2.964,2.83Zm-8.743-2.7a6.537,6.537,0,0,1,2.193-.7l.37.3-.133.356.652.637.044.3.5.044-.326.282-.874-.237-1.008,1.2-.415.533-.015.637-.4-.533-1.052.311-.474.726.178.489.8-.119.459.5-.059.474.415.1.608-.326,1.052.267.993.4.83.015.43.726.948.326.771.578-.43.578-.489,1.23-.608.119-.252.711-.934.771-.608.119-.207.578.015.385.326.178-.7-.178-.237-.459.1-2.015-.193-.637-.7-.415-.533-.859V34.677l-.445-.163-.5-.282-.237-.385-.459-.267-.3.119-.845-.7-.415-.726-.1-1.156.519-.948v-.015a7,7,0,0,1,1.734-1.3Z" transform="translate(1604.3 270.113)" fill="#fff"></path></g><g id="Group_30-2" data-name="Group 30" transform="translate(-1017.317 -263.951)"><path id="Path_39-2" data-name="Path 39" d="M250.635,61.148a2.818,2.818,0,1,1-2.818-2.818,2.818,2.818,0,0,1,2.818,2.818" transform="translate(846.821 298.621)" fill="#fff" fill-rule="evenodd"></path><path id="Path_40-2" data-name="Path 40" d="M162.315,295.74v.626a.939.939,0,0,1-.939.939h-8.766a.939.939,0,0,1-.939-.939v-.626a4.07,4.07,0,0,1,4.07-4.07h2.5a4.07,4.07,0,0,1,4.07,4.07Z" transform="translate(937.647 71.543)" fill="#fff" fill-rule="evenodd"></path></g><g id="noun-credit-cart-2643816-2" data-name="noun-credit-cart-2643816" transform="translate(96.006 14.333)"><path id="Path_41-2" data-name="Path 41" d="M10.369,278.55H0v.44H10.369Z" transform="translate(-0.006 -193.949)" fill="#fff"></path><path id="Path_42-2" data-name="Path 42" d="M10.369,313.46H0v3.656a.284.284,0,0,0,.283.283h9.8a.286.286,0,0,0,.283-.283V313.46ZM.83,316.671H4.158v.253H.83ZM1,314.864H2.936v.759H.867v-.759ZM9.53,316.2a.614.614,0,0,1-.944.514.535.535,0,0,1-.1.053.611.611,0,1,1,0-1.134.537.537,0,0,1,.1.053.614.614,0,0,1,.944.514Z" transform="translate(-0.006 -228.165)" fill="#fff"></path><path id="Path_43-2" data-name="Path 43" d="M-.006,229.257H10.363V228.8a.286.286,0,0,0-.283-.283H.277a.284.284,0,0,0-.283.283v.457Z" transform="translate(0 -144.91)" fill="#fff"></path><path id="Path_44-2" data-name="Path 44" d="M188.863,81.407V80.95a.284.284,0,0,0-.283-.283h-9.8a.284.284,0,0,0-.283.283v.457Z" transform="translate(-174.951 0)" fill="#fff"></path><path id="Path_45-2" data-name="Path 45" d="M188.869,131.051v-.44H178.5v.44Z" transform="translate(-174.957 -48.951)" fill="#fff"></path><path id="Path_46-2" data-name="Path 46" d="M178.5,166.519h6.536a.537.537,0,0,1,.536.536v2.4h3.013a.284.284,0,0,0,.283-.283v-3.656H178.495Zm9.606,2.133a.613.613,0,0,1-.942.514.591.591,0,0,1-.1.053.647.647,0,1,1,1.046-.567Z" transform="translate(-174.952 -83.165)" fill="#fff"></path><g id="Group_31-2" data-name="Group 31" transform="translate(-0.006 89.254)"><path id="Path_47-2" data-name="Path 47" d="M.021-.307h0a0,0,0,0,1,0,0,0,0,0,0,1,0,0h0v0h0Z" transform="translate(-0.016 0.313)" fill="#fff"></path></g><g id="Group_32-2" data-name="Group 32" transform="translate(0.001 89.256)"><path id="Path_48-2" data-name="Path 48" d="M.035-.233h0v0h0v0h0Z" transform="translate(-0.031 0.234)" fill="#fff"></path></g><g id="Group_33-2" data-name="Group 33" transform="translate(0.005 89.256)"><path id="Path_49-2" data-name="Path 49" d="M.021-.232h0v0h0v0Zm0,0h0Z" transform="translate(-0.016 0.234)" fill="#fff"></path></g><g id="Group_34-2" data-name="Group 34" transform="translate(0.011 89.256)"><path id="Path_50-2" data-name="Path 50" d="M.018-.232h0Zm0,0v0h0Z" transform="translate(-0.016 0.234)" fill="#fff"></path></g><g id="Group_35-2" data-name="Group 35" transform="translate(0.016 89.254)"><path id="Path_51-2" data-name="Path 51" d="M0-.3H0v0H0v0H0Z" transform="translate(0 0.297)" fill="#fff"></path></g><g id="Group_36-2" data-name="Group 36" transform="translate(0.02 89.256)"><path id="Path_52-2" data-name="Path 52" d="M.021-.232h0v0h0v0Zm0,0h0Z" transform="translate(-0.016 0.234)" fill="#fff"></path></g><g id="Group_37-2" data-name="Group 37" transform="translate(0.026 89.254)"><path id="Path_53-2" data-name="Path 53" d="M.019-.326v0h0v.007h0v0h0Zm0,0h0Z" transform="translate(-0.016 0.328)" fill="#fff"></path></g><g id="Group_38-2" data-name="Group 38" transform="translate(0.036 89.254)"><path id="Path_54-2" data-name="Path 54" d="M.034-.323h0Zm0,0h0v0h0V-.328h0Z" transform="translate(-0.031 0.328)" fill="#fff"></path></g><g id="Group_39-2" data-name="Group 39" transform="translate(0.041 89.256)"><path id="Path_55-2" data-name="Path 55" d="M0-.234H0v0h0l0,0H0Z" transform="translate(0 0.234)" fill="#fff"></path></g><g id="Group_40-2" data-name="Group 40" transform="translate(0.05 89.256)"><path id="Path_56-2" data-name="Path 56" d="M.018-.232h0Zm0,0v0h0Z" transform="translate(-0.016 0.234)" fill="#fff"></path></g><g id="Group_41-2" data-name="Group 41" transform="translate(0.056 89.254)"><path id="Path_57-2" data-name="Path 57" d="M.031-.328h0v.007h0Z" transform="translate(-0.031 0.328)" fill="#fff"></path></g><g id="Group_42-2" data-name="Group 42" transform="translate(0.059 89.254)"><path id="Path_58-2" data-name="Path 58" d="M.031-.328h0v.007h0Z" transform="translate(-0.031 0.328)" fill="#fff"></path></g><g id="Group_43-2" data-name="Group 43" transform="translate(0.061 89.256)"><path id="Path_59-2" data-name="Path 59" d="M.021-.232h0v0h0v0Zm0,0h0Z" transform="translate(-0.016 0.234)" fill="#fff"></path></g><g id="Group_44-2" data-name="Group 44" transform="translate(0.067 89.256)"><path id="Path_60-2" data-name="Path 60" d="M0-.232l0,0h0l0,0,0,0H0v0H0Z" transform="translate(0 0.234)" fill="#fff"></path></g><g id="Group_45-2" data-name="Group 45" transform="translate(-0.006 89.262)"><path id="Path_61-2" data-name="Path 61" d="M0-.328H0v0H0v0H0Z" transform="translate(0 0.328)" fill="#fff"></path></g><g id="Group_46-2" data-name="Group 46" transform="translate(-0.002 89.264)"><path id="Path_62-2" data-name="Path 62" d="M.035-.233h0v0h0v0h0Z" transform="translate(-0.031 0.234)" fill="#fff"></path></g><g id="Group_47-2" data-name="Group 47" transform="translate(0.002 89.264)"><path id="Path_63-2" data-name="Path 63" d="M.018-.233h0Zm0,0h0v0h0v0Z" transform="translate(-0.016 0.234)" fill="#fff"></path></g><g id="Group_48-2" data-name="Group 48" transform="translate(0.008 89.264)"><path id="Path_64-2" data-name="Path 64" d="M.036-.233h0v0h0v0h0v0h0v0h0v0h0v0h0Z" transform="translate(-0.031 0.234)" fill="#fff"></path></g><g id="Group_49-2" data-name="Group 49" transform="translate(0.02 89.263)"><path id="Path_65-2" data-name="Path 65" d="M0-.3H0v0H0v0H0Z" transform="translate(0 0.297)" fill="#fff"></path></g><g id="Group_50-2" data-name="Group 50" transform="translate(0.024 89.262)"><path id="Path_66-2" data-name="Path 66" d="M.036-.324v0h0v0h0v0h0V-.328h0v0h0Z" transform="translate(-0.031 0.328)" fill="#fff"></path></g><g id="Group_51-2" data-name="Group 51" transform="translate(0.03 89.264)"><path id="Path_67-2" data-name="Path 67" d="M.021-.232h0v0h0v0Zm0,0h0Z" transform="translate(-0.016 0.234)" fill="#fff"></path></g><g id="Group_52-2" data-name="Group 52" transform="translate(0.039 89.263)"><path id="Path_68-2" data-name="Path 68" d="M.047-.312h0l0,0v0h0v.006h0l0,0v0h0Z" transform="translate(-0.047 0.313)" fill="#fff"></path></g><g id="Group_53-2" data-name="Group 53" transform="translate(0.046 89.264)"><path id="Path_69-2" data-name="Path 69" d="M.018-.233h0Zm0,0h0v0h0v0Z" transform="translate(-0.016 0.234)" fill="#fff"></path></g><g id="Group_54-2" data-name="Group 54" transform="translate(0.052 89.264)"><path id="Path_70-2" data-name="Path 70" d="M.031-.232v0h0v0h0v0h0v0Z" transform="translate(-0.031 0.234)" fill="#fff"></path></g><g id="Group_55-2" data-name="Group 55" transform="translate(0.058 89.264)"><path id="Path_71-2" data-name="Path 71" d="M.036-.233v0h0v0h0v0h0v0h0Z" transform="translate(-0.031 0.234)" fill="#fff"></path></g><g id="Group_56-2" data-name="Group 56" transform="translate(0.067 89.263)"><path id="Path_72-2" data-name="Path 72" d="M.047-.312h0v0h0v0h0Zm0,0v0h0Z" transform="translate(-0.047 0.313)" fill="#fff"></path></g><g id="Group_57-2" data-name="Group 57" transform="translate(0.073 89.264)"><path id="Path_73-2" data-name="Path 73" d="M.035-.233h0v0h0v0h0Z" transform="translate(-0.031 0.234)" fill="#fff"></path></g><g id="Group_58-2" data-name="Group 58" transform="translate(0.077 89.264)"><path id="Path_74-2" data-name="Path 74" d="M.018-.233h0Zm0,0h0v0h0v0Z" transform="translate(-0.016 0.234)" fill="#fff"></path></g><g id="Group_59-2" data-name="Group 59" transform="translate(0.082 89.262)"><path id="Path_75-2" data-name="Path 75" d="M-.015-.326h0v0h0Zm0,0h0Z" transform="translate(0.016 0.328)" fill="#fff"></path></g><g id="Group_60-2" data-name="Group 60" transform="translate(0.086 89.264)"><path id="Path_76-2" data-name="Path 76" d="M.021-.232h0v0h0v0Zm0,0h0Z" transform="translate(-0.016 0.234)" fill="#fff"></path></g><g id="Group_61-2" data-name="Group 61" transform="translate(0.092 89.264)"><path id="Path_77-2" data-name="Path 77" d="M.02-.234h0v0h0Z" transform="translate(-0.016 0.234)" fill="#fff"></path></g><g id="Group_62-2" data-name="Group 62" transform="translate(0.096 89.263)"><path id="Path_78-2" data-name="Path 78" d="M0-.3H0v0H0v0H0Z" transform="translate(0 0.297)" fill="#fff"></path></g></g><g id="noun-contact-1696905-2" data-name="noun-contact-1696905" transform="translate(-16 24)"><path id="Path_79-2" data-name="Path 79" d="M303.33,189.067c0,1.065.426,2.279,1.363,2.4h.767v-.8h-.8a.287.287,0,0,1-.117-.027c-.533-.256-.533-1.268-.533-1.571s.037-1.315.533-1.571h0a.288.288,0,0,1,.117-.027h.8v-.8h-.8C303.756,186.787,303.33,188,303.33,189.067Z" transform="translate(-159.602 -114.007)" fill="#fff"></path><path id="Path_80-2" data-name="Path 80" d="M148.787,70H140.8a.266.266,0,0,0-.266.266v.8h.8a.266.266,0,1,1,0,.533h-1.065a.266.266,0,1,0,0,.533h.266V73.2h.8a.266.266,0,1,1,0,.533h-1.065a.266.266,0,0,0,0,.533h.266v1.065h.8a.266.266,0,1,1,0,.533h-1.065a.266.266,0,1,0,0,.533h.266v1.065h.8a.266.266,0,1,1,0,.533h-1.065a.266.266,0,1,0,0,.533h.266v1.331a.266.266,0,0,0,.266.266h7.989a.266.266,0,0,0,.266-.266V70.266a.266.266,0,0,0-.266-.266Zm-2.4,3.462a.533.533,0,0,1-.533.533h-.714a2.707,2.707,0,0,0,0,2.13h.714a.533.533,0,0,1,.533.533v.8a.533.533,0,0,1-.533.533h-.8c-1.3-.16-1.864-1.6-1.864-2.929s.565-2.77,1.832-2.929h.831a.533.533,0,0,1,.533.533Z" fill="#fff"></path></g></g><g id="Group_65" data-name="Group 65" transform="translate(191 66)"><circle id="Ellipse_1-3" data-name="Ellipse 1" cx="9" cy="9" r="9" transform="translate(16 90)" fill="#000627"></circle><circle id="Ellipse_2-3" data-name="Ellipse 2" cx="9" cy="9" r="9" transform="translate(42 90)" fill="#000627"></circle><circle id="Ellipse_3-3" data-name="Ellipse 3" cx="9" cy="9" r="9" transform="translate(68 90)" fill="#000627"></circle><circle id="Ellipse_4-3" data-name="Ellipse 4" cx="9" cy="9" r="9" transform="translate(94 90)" fill="#000627"></circle><circle id="Ellipse_5-3" data-name="Ellipse 5" cx="9" cy="9" r="9" transform="translate(120 90)" fill="#000627"></circle><g id="Group_28-3" data-name="Group 28" transform="translate(-1012.952 -22.599)"><path id="Path_34-3" data-name="Path 34" d="M70,258.07v6.124l3.848-3.078L70,258.07" transform="translate(962 -137.992)" fill="#fff" fill-rule="evenodd"></path><path id="Path_35-3" data-name="Path 35" d="M82.006,8.631H85.24l4.174-3.3L84.226.5a.759.759,0,0,0-1.009,0L77.939,5.412l4.067,3.219" transform="translate(954.23 114.294)" fill="#fff" fill-rule="evenodd"></path><path id="Path_36-3" data-name="Path 36" d="M89.811,410.67H86.578l-3.968,3.174H93.779l-3.968-3.174" transform="translate(949.658 -287.348)" fill="#fff" fill-rule="evenodd"></path><path id="Path_37-3" data-name="Path 37" d="M439.66,253.883l4.046,3.237v-6.44l-4.046,3.2" transform="translate(600.198 -130.759)" fill="#fff" fill-rule="evenodd"></path></g><g id="Group_29-3" data-name="Group 29" transform="translate(-1658.324 -206)"><path id="Path_38-3" data-name="Path 38" d="M107.226,28.409l-.015-.03a6.526,6.526,0,0,0-3.571-.4l.015.015a6.725,6.725,0,0,0-2.074.7,6.133,6.133,0,0,0-1.452,1.037v-.015a6.458,6.458,0,0,0-1.689,2.578c0,.015,0,.015-.015.03l-.089.267c0,.015,0,.015-.015.03-.03.1-.059.193-.089.3,0,.015-.015.03-.015.044a1.234,1.234,0,0,1-.059.222c-.015.059-.015.1-.03.163s-.015.074-.015.119-.015.133-.03.193a.134.134,0,0,1-.015.074,6.773,6.773,0,0,0,.741,3.942,6.652,6.652,0,1,0,11.766-6.209,6.564,6.564,0,0,0-3.349-3.053Zm3.186,3.141a6.408,6.408,0,0,1,.667,2.03l-.207-.193-.074.459-.593.074-.652-.874.059-.415-.237-.3-.178-1.23-.119-.682-.4-.3-.178-.207.356-.193-.578-.43-.474-.089-.356-.489a6.434,6.434,0,0,1,2.964,2.83Zm-8.743-2.7a6.537,6.537,0,0,1,2.193-.7l.37.3-.133.356.652.637.044.3.5.044-.326.282-.874-.237-1.008,1.2-.415.533-.015.637-.4-.533-1.052.311-.474.726.178.489.8-.119.459.5-.059.474.415.1.608-.326,1.052.267.993.4.83.015.43.726.948.326.771.578-.43.578-.489,1.23-.608.119-.252.711-.934.771-.608.119-.207.578.015.385.326.178-.7-.178-.237-.459.1-2.015-.193-.637-.7-.415-.533-.859V34.677l-.445-.163-.5-.282-.237-.385-.459-.267-.3.119-.845-.7-.415-.726-.1-1.156.519-.948v-.015a7,7,0,0,1,1.734-1.3Z" transform="translate(1604.3 270.113)" fill="#fff"></path></g><g id="Group_30-3" data-name="Group 30" transform="translate(-1017.317 -263.951)"><path id="Path_39-3" data-name="Path 39" d="M250.635,61.148a2.818,2.818,0,1,1-2.818-2.818,2.818,2.818,0,0,1,2.818,2.818" transform="translate(846.821 298.621)" fill="#fff" fill-rule="evenodd"></path><path id="Path_40-3" data-name="Path 40" d="M162.315,295.74v.626a.939.939,0,0,1-.939.939h-8.766a.939.939,0,0,1-.939-.939v-.626a4.07,4.07,0,0,1,4.07-4.07h2.5a4.07,4.07,0,0,1,4.07,4.07Z" transform="translate(937.647 71.543)" fill="#fff" fill-rule="evenodd"></path></g><g id="noun-credit-cart-2643816-3" data-name="noun-credit-cart-2643816" transform="translate(96.006 14.333)"><path id="Path_41-3" data-name="Path 41" d="M10.369,278.55H0v.44H10.369Z" transform="translate(-0.006 -193.949)" fill="#fff"></path><path id="Path_42-3" data-name="Path 42" d="M10.369,313.46H0v3.656a.284.284,0,0,0,.283.283h9.8a.286.286,0,0,0,.283-.283V313.46ZM.83,316.671H4.158v.253H.83ZM1,314.864H2.936v.759H.867v-.759ZM9.53,316.2a.614.614,0,0,1-.944.514.535.535,0,0,1-.1.053.611.611,0,1,1,0-1.134.537.537,0,0,1,.1.053.614.614,0,0,1,.944.514Z" transform="translate(-0.006 -228.165)" fill="#fff"></path><path id="Path_43-3" data-name="Path 43" d="M-.006,229.257H10.363V228.8a.286.286,0,0,0-.283-.283H.277a.284.284,0,0,0-.283.283v.457Z" transform="translate(0 -144.91)" fill="#fff"></path><path id="Path_44-3" data-name="Path 44" d="M188.863,81.407V80.95a.284.284,0,0,0-.283-.283h-9.8a.284.284,0,0,0-.283.283v.457Z" transform="translate(-174.951 0)" fill="#fff"></path><path id="Path_45-3" data-name="Path 45" d="M188.869,131.051v-.44H178.5v.44Z" transform="translate(-174.957 -48.951)" fill="#fff"></path><path id="Path_46-3" data-name="Path 46" d="M178.5,166.519h6.536a.537.537,0,0,1,.536.536v2.4h3.013a.284.284,0,0,0,.283-.283v-3.656H178.495Zm9.606,2.133a.613.613,0,0,1-.942.514.591.591,0,0,1-.1.053.647.647,0,1,1,1.046-.567Z" transform="translate(-174.952 -83.165)" fill="#fff"></path><g id="Group_31-3" data-name="Group 31" transform="translate(-0.006 89.254)"><path id="Path_47-3" data-name="Path 47" d="M.021-.307h0a0,0,0,0,1,0,0,0,0,0,0,1,0,0h0v0h0Z" transform="translate(-0.016 0.313)" fill="#fff"></path></g><g id="Group_32-3" data-name="Group 32" transform="translate(0.001 89.256)"><path id="Path_48-3" data-name="Path 48" d="M.035-.233h0v0h0v0h0Z" transform="translate(-0.031 0.234)" fill="#fff"></path></g><g id="Group_33-3" data-name="Group 33" transform="translate(0.005 89.256)"><path id="Path_49-3" data-name="Path 49" d="M.021-.232h0v0h0v0Zm0,0h0Z" transform="translate(-0.016 0.234)" fill="#fff"></path></g><g id="Group_34-3" data-name="Group 34" transform="translate(0.011 89.256)"><path id="Path_50-3" data-name="Path 50" d="M.018-.232h0Zm0,0v0h0Z" transform="translate(-0.016 0.234)" fill="#fff"></path></g><g id="Group_35-3" data-name="Group 35" transform="translate(0.016 89.254)"><path id="Path_51-3" data-name="Path 51" d="M0-.3H0v0H0v0H0Z" transform="translate(0 0.297)" fill="#fff"></path></g><g id="Group_36-3" data-name="Group 36" transform="translate(0.02 89.256)"><path id="Path_52-3" data-name="Path 52" d="M.021-.232h0v0h0v0Zm0,0h0Z" transform="translate(-0.016 0.234)" fill="#fff"></path></g><g id="Group_37-3" data-name="Group 37" transform="translate(0.026 89.254)"><path id="Path_53-3" data-name="Path 53" d="M.019-.326v0h0v.007h0v0h0Zm0,0h0Z" transform="translate(-0.016 0.328)" fill="#fff"></path></g><g id="Group_38-3" data-name="Group 38" transform="translate(0.036 89.254)"><path id="Path_54-3" data-name="Path 54" d="M.034-.323h0Zm0,0h0v0h0V-.328h0Z" transform="translate(-0.031 0.328)" fill="#fff"></path></g><g id="Group_39-3" data-name="Group 39" transform="translate(0.041 89.256)"><path id="Path_55-3" data-name="Path 55" d="M0-.234H0v0h0l0,0H0Z" transform="translate(0 0.234)" fill="#fff"></path></g><g id="Group_40-3" data-name="Group 40" transform="translate(0.05 89.256)"><path id="Path_56-3" data-name="Path 56" d="M.018-.232h0Zm0,0v0h0Z" transform="translate(-0.016 0.234)" fill="#fff"></path></g><g id="Group_41-3" data-name="Group 41" transform="translate(0.056 89.254)"><path id="Path_57-3" data-name="Path 57" d="M.031-.328h0v.007h0Z" transform="translate(-0.031 0.328)" fill="#fff"></path></g><g id="Group_42-3" data-name="Group 42" transform="translate(0.059 89.254)"><path id="Path_58-3" data-name="Path 58" d="M.031-.328h0v.007h0Z" transform="translate(-0.031 0.328)" fill="#fff"></path></g><g id="Group_43-3" data-name="Group 43" transform="translate(0.061 89.256)"><path id="Path_59-3" data-name="Path 59" d="M.021-.232h0v0h0v0Zm0,0h0Z" transform="translate(-0.016 0.234)" fill="#fff"></path></g><g id="Group_44-3" data-name="Group 44" transform="translate(0.067 89.256)"><path id="Path_60-3" data-name="Path 60" d="M0-.232l0,0h0l0,0,0,0H0v0H0Z" transform="translate(0 0.234)" fill="#fff"></path></g><g id="Group_45-3" data-name="Group 45" transform="translate(-0.006 89.262)"><path id="Path_61-3" data-name="Path 61" d="M0-.328H0v0H0v0H0Z" transform="translate(0 0.328)" fill="#fff"></path></g><g id="Group_46-3" data-name="Group 46" transform="translate(-0.002 89.264)"><path id="Path_62-3" data-name="Path 62" d="M.035-.233h0v0h0v0h0Z" transform="translate(-0.031 0.234)" fill="#fff"></path></g><g id="Group_47-3" data-name="Group 47" transform="translate(0.002 89.264)"><path id="Path_63-3" data-name="Path 63" d="M.018-.233h0Zm0,0h0v0h0v0Z" transform="translate(-0.016 0.234)" fill="#fff"></path></g><g id="Group_48-3" data-name="Group 48" transform="translate(0.008 89.264)"><path id="Path_64-3" data-name="Path 64" d="M.036-.233h0v0h0v0h0v0h0v0h0v0h0v0h0Z" transform="translate(-0.031 0.234)" fill="#fff"></path></g><g id="Group_49-3" data-name="Group 49" transform="translate(0.02 89.263)"><path id="Path_65-3" data-name="Path 65" d="M0-.3H0v0H0v0H0Z" transform="translate(0 0.297)" fill="#fff"></path></g><g id="Group_50-3" data-name="Group 50" transform="translate(0.024 89.262)"><path id="Path_66-3" data-name="Path 66" d="M.036-.324v0h0v0h0v0h0V-.328h0v0h0Z" transform="translate(-0.031 0.328)" fill="#fff"></path></g><g id="Group_51-3" data-name="Group 51" transform="translate(0.03 89.264)"><path id="Path_67-3" data-name="Path 67" d="M.021-.232h0v0h0v0Zm0,0h0Z" transform="translate(-0.016 0.234)" fill="#fff"></path></g><g id="Group_52-3" data-name="Group 52" transform="translate(0.039 89.263)"><path id="Path_68-3" data-name="Path 68" d="M.047-.312h0l0,0v0h0v.006h0l0,0v0h0Z" transform="translate(-0.047 0.313)" fill="#fff"></path></g><g id="Group_53-3" data-name="Group 53" transform="translate(0.046 89.264)"><path id="Path_69-3" data-name="Path 69" d="M.018-.233h0Zm0,0h0v0h0v0Z" transform="translate(-0.016 0.234)" fill="#fff"></path></g><g id="Group_54-3" data-name="Group 54" transform="translate(0.052 89.264)"><path id="Path_70-3" data-name="Path 70" d="M.031-.232v0h0v0h0v0h0v0Z" transform="translate(-0.031 0.234)" fill="#fff"></path></g><g id="Group_55-3" data-name="Group 55" transform="translate(0.058 89.264)"><path id="Path_71-3" data-name="Path 71" d="M.036-.233v0h0v0h0v0h0v0h0Z" transform="translate(-0.031 0.234)" fill="#fff"></path></g><g id="Group_56-3" data-name="Group 56" transform="translate(0.067 89.263)"><path id="Path_72-3" data-name="Path 72" d="M.047-.312h0v0h0v0h0Zm0,0v0h0Z" transform="translate(-0.047 0.313)" fill="#fff"></path></g><g id="Group_57-3" data-name="Group 57" transform="translate(0.073 89.264)"><path id="Path_73-3" data-name="Path 73" d="M.035-.233h0v0h0v0h0Z" transform="translate(-0.031 0.234)" fill="#fff"></path></g><g id="Group_58-3" data-name="Group 58" transform="translate(0.077 89.264)"><path id="Path_74-3" data-name="Path 74" d="M.018-.233h0Zm0,0h0v0h0v0Z" transform="translate(-0.016 0.234)" fill="#fff"></path></g><g id="Group_59-3" data-name="Group 59" transform="translate(0.082 89.262)"><path id="Path_75-3" data-name="Path 75" d="M-.015-.326h0v0h0Zm0,0h0Z" transform="translate(0.016 0.328)" fill="#fff"></path></g><g id="Group_60-3" data-name="Group 60" transform="translate(0.086 89.264)"><path id="Path_76-3" data-name="Path 76" d="M.021-.232h0v0h0v0Zm0,0h0Z" transform="translate(-0.016 0.234)" fill="#fff"></path></g><g id="Group_61-3" data-name="Group 61" transform="translate(0.092 89.264)"><path id="Path_77-3" data-name="Path 77" d="M.02-.234h0v0h0Z" transform="translate(-0.016 0.234)" fill="#fff"></path></g><g id="Group_62-3" data-name="Group 62" transform="translate(0.096 89.263)"><path id="Path_78-3" data-name="Path 78" d="M0-.3H0v0H0v0H0Z" transform="translate(0 0.297)" fill="#fff"></path></g></g><g id="noun-contact-1696905-3" data-name="noun-contact-1696905" transform="translate(-16 24)"><path id="Path_79-3" data-name="Path 79" d="M303.33,189.067c0,1.065.426,2.279,1.363,2.4h.767v-.8h-.8a.287.287,0,0,1-.117-.027c-.533-.256-.533-1.268-.533-1.571s.037-1.315.533-1.571h0a.288.288,0,0,1,.117-.027h.8v-.8h-.8C303.756,186.787,303.33,188,303.33,189.067Z" transform="translate(-159.602 -114.007)" fill="#fff"></path><path id="Path_80-3" data-name="Path 80" d="M148.787,70H140.8a.266.266,0,0,0-.266.266v.8h.8a.266.266,0,1,1,0,.533h-1.065a.266.266,0,1,0,0,.533h.266V73.2h.8a.266.266,0,1,1,0,.533h-1.065a.266.266,0,0,0,0,.533h.266v1.065h.8a.266.266,0,1,1,0,.533h-1.065a.266.266,0,1,0,0,.533h.266v1.065h.8a.266.266,0,1,1,0,.533h-1.065a.266.266,0,1,0,0,.533h.266v1.331a.266.266,0,0,0,.266.266h7.989a.266.266,0,0,0,.266-.266V70.266a.266.266,0,0,0-.266-.266Zm-2.4,3.462a.533.533,0,0,1-.533.533h-.714a2.707,2.707,0,0,0,0,2.13h.714a.533.533,0,0,1,.533.533v.8a.533.533,0,0,1-.533.533h-.8c-1.3-.16-1.864-1.6-1.864-2.929s.565-2.77,1.832-2.929h.831a.533.533,0,0,1,.533.533Z" fill="#fff"></path></g></g></g></svg> 