<?xml version="1.0" encoding="UTF-8"?> <svg xmlns="http://www.w3.org/2000/svg" xmlns:xlink="http://www.w3.org/1999/xlink" version="1.1" id="Layer_1" x="0px" y="0px" viewBox="0 0 300 186" style="enable-background:new 0 0 300 186;" xml:space="preserve"> <style type="text/css"> .st0{fill:#0A1C2B;} .st1{fill:#F7F8F8;} </style> <rect class="st0" width="300" height="186"></rect> <path class="st1" d="M199.1,53h-98.2c-0.6,0-1.1,0.5-1.1,1.1v67c0,0.6,0.5,1.1,1.1,1.1h6.6c-2.7,6.5-3.1,14.7-3.1,15.3 c0,0.6,0.4,1.1,1,1.1c0.6,0,1.1-0.4,1.1-1c0,0,0,0,0-0.1c0-0.2,0.9-21.2,10.3-21.2h3.6c9.4,0,10.3,20.9,10.3,21.2c0,0.6,0.5,1,1.1,1 h0c0.6,0,1.1-0.5,1-1.1c0-0.6-0.4-8.8-3.1-15.3h9.2c-2.7,6.5-3.1,14.7-3.1,15.3c0,0.6,0.4,1.1,1,1.1h0c0.6,0,1.1-0.5,1.1-1 c0-0.2,0.9-21.2,10.3-21.2h3.6c9.4,0,10.3,20.9,10.3,21.2c0,0.6,0.5,1,1.1,1c0,0,0,0,0,0c0.6,0,1.1-0.5,1-1.1 c0-0.6-0.4-8.8-3.1-15.3h9.2c-2.7,6.5-3.1,14.7-3.1,15.3c0,0.6,0.4,1.1,1,1.1c0.6,0,1.1-0.4,1.1-1c0,0,0,0,0-0.1 c0-0.2,0.9-21.2,10.3-21.2h3.6c9.4,0,10.3,20.9,10.3,21.2c0,0.6,0.5,1,1.1,1h0c0.6,0,1.1-0.5,1-1.1c0-0.6-0.4-8.8-3.1-15.3h6.6 c0.6,0,1.1-0.5,1.1-1.1v-67C200.2,53.5,199.7,53,199.1,53z M118.6,114.2c-4.8,0-8.7-3.9-8.7-8.7c0-4.8,3.9-8.7,8.7-8.7 s8.7,3.9,8.7,8.7c0,0,0,0,0,0C127.2,110.4,123.4,114.2,118.6,114.2z M150,114.2c-4.8,0-8.7-3.9-8.7-8.7c0-4.8,3.9-8.7,8.7-8.7 s8.7,3.9,8.7,8.7c0,0,0,0,0,0C158.6,110.4,154.8,114.2,150,114.2z M181.4,114.2c-4.8,0-8.7-3.9-8.7-8.7s3.9-8.7,8.7-8.7 s8.7,3.9,8.7,8.7c0,0,0,0,0,0C190.1,110.4,186.2,114.2,181.4,114.2L181.4,114.2z M198,120h-6.5c-1.2-2.2-2.8-4-4.8-5 c5.2-2.9,7.1-9.5,4.2-14.7c-2.9-5.2-9.5-7.1-14.7-4.2c-5.2,2.9-7.1,9.5-4.2,14.7c1,1.7,2.4,3.2,4.2,4.2c-2,1-3.6,2.8-4.8,5h-11.2 c-1.2-2.2-2.8-4-4.8-5c5.2-2.9,7.1-9.5,4.2-14.7c-2.9-5.2-9.5-7.1-14.7-4.2c-5.2,2.9-7.1,9.5-4.2,14.7c1,1.7,2.4,3.2,4.2,4.2 c-2,1-3.6,2.8-4.8,5h-11.2c-1.2-2.2-2.8-4-4.8-5c5.2-2.9,7.1-9.5,4.2-14.7s-9.5-7.1-14.7-4.2c-5.2,2.9-7.1,9.5-4.2,14.7 c1,1.7,2.4,3.2,4.2,4.2c-2,1-3.6,2.8-4.8,5H102V55.2H198V120z"></path> <path class="st1" d="M111.8,66.3h10.5c0.6,0,1.1-0.5,1.1-1.1s-0.5-1.1-1.1-1.1h-10.5c-0.6,0-1.1,0.5-1.1,1.1S111.2,66.3,111.8,66.3 L111.8,66.3z"></path> <path class="st1" d="M131.6,66.3h18.6c0.6,0,1.1-0.5,1.1-1.1s-0.5-1.1-1.1-1.1h-18.6c-0.6,0-1.1,0.5-1.1,1.1S131,66.3,131.6,66.3z"></path> <path class="st1" d="M111.8,76.8h38.4c0.6,0,1.1-0.5,1.1-1.1c0-0.6-0.5-1.1-1.1-1.1h-38.4c-0.6,0-1.1,0.5-1.1,1.1 C110.7,76.3,111.2,76.8,111.8,76.8L111.8,76.8z"></path> <path class="st1" d="M111.8,87.3h31.7c0.6,0,1.1-0.5,1.1-1.1c0-0.6-0.5-1.1-1.1-1.1h-31.7c-0.6,0-1.1,0.5-1.1,1.1 C110.7,86.8,111.2,87.3,111.8,87.3L111.8,87.3z"></path> <path class="st1" d="M161.2,87.3c0.3,0,0.6-0.1,0.8-0.3l10.2-10.2l5.7,5.7c0.4,0.4,1.1,0.4,1.5,0c0,0,0,0,0,0l10.6-10.6v5.9 c0,0.6,0.5,1.1,1.1,1.1c0.6,0,1.1-0.5,1.1-1.1v-8.5c0-0.1,0-0.1,0-0.2c0,0,0-0.1,0-0.1c0,0,0-0.1,0-0.1c0,0,0-0.1-0.1-0.1 c0,0,0-0.1,0-0.1c-0.1-0.1-0.2-0.2-0.3-0.3c0,0-0.1,0-0.1,0c0,0-0.1,0-0.1-0.1c0,0-0.1,0-0.1,0c0,0-0.1,0-0.1,0c-0.1,0-0.1,0-0.2,0 h-8.5c-0.6,0-1.1,0.5-1.1,1.1c0,0.6,0.5,1.1,1.1,1.1l0,0h5.9l-9.9,9.9l-5.7-5.7c-0.4-0.4-1.1-0.4-1.5,0l-11,11 c-0.4,0.4-0.4,1.1,0,1.5C160.7,87.2,160.9,87.3,161.2,87.3z"></path> </svg> 