<?xml version="1.0" encoding="UTF-8"?> <svg xmlns="http://www.w3.org/2000/svg" xmlns:xlink="http://www.w3.org/1999/xlink" version="1.1" id="Layer_1" x="0px" y="0px" viewBox="0 0 300 186" style="enable-background:new 0 0 300 186;" xml:space="preserve"> <style type="text/css"> .st0{fill:#0A1C2B;} .st1{fill:#FFFFFF;stroke:#0A1C2B;stroke-width:0.773;stroke-miterlimit:10;} </style> <rect class="st0" width="300" height="186"></rect> <path class="st1" d="M191.4,53.2h-42.1c-0.4,0-0.8,0-1.2,0.1c-2.3-4.1-5.9-7.2-10.3-8.8c-4.4-1.6-9.1-1.7-13.5-0.1 c-4.4,1.6-8.1,4.6-10.4,8.6c-2.3,4-3.2,8.7-2.4,13.3c0.8,4.6,3.2,8.7,6.7,11.7c3.6,3,8,4.6,12.7,4.6c4.1,0,8.1-1.2,11.4-3.6v9h-13 c-3.9,0-7,3.1-7,7v2.4l-15.5,0v-1.6c0-1-0.6-2-1.5-2.5c-0.9-0.5-2-0.4-2.8,0.2l-10.3,7.2c-0.7,0.5-1.2,1.3-1.2,2.2 c0,0.9,0.4,1.7,1.2,2.2l10.4,7.2c0.5,0.3,1,0.5,1.5,0.5c0.4,0,0.9-0.1,1.3-0.3c0.9-0.5,1.5-1.4,1.5-2.4v-1.6h15.4v20.9 c0,3.9,3.1,7,7,7h11.3v0.4v0c0,0.7,0.3,1.4,0.8,1.9c0.5,0.5,1.2,0.8,1.9,0.8H174v1.1c0,1.5,0.8,2.9,2.2,3.6c1.3,0.7,3,0.6,4.2-0.3 l11.8-8.1c1.1-0.8,1.8-2,1.8-3.3c0-0.7-0.2-1.4-0.5-2c3-0.9,5-3.6,5-6.7V60.2C198.4,56.4,195.2,53.2,191.4,53.2L191.4,53.2z M122.3,105.9h-16.8c-0.7,0-1.4,0.6-1.4,1.4v3L93.7,103l10.4-7.2v3c0,0.4,0.1,0.7,0.4,1c0.3,0.3,0.6,0.4,1,0.4h16.8L122.3,105.9z M130.9,80L130.9,80c-6.9,0-13.1-4.1-15.7-10.5S114,55.8,118.8,51c4.9-4.9,12.2-6.3,18.5-3.7c6.4,2.6,10.5,8.8,10.5,15.7 C147.9,72.4,140.2,80,130.9,80L130.9,80z M140.6,133.8h-11.3c-2.4,0-4.3-1.9-4.3-4.3V95c0-2.4,1.9-4.3,4.3-4.3h34.5 c2.4,0,4.3,1.9,4.3,4.3v30.4h-2.9V95c0-0.4-0.1-0.7-0.4-1c-0.3-0.3-0.6-0.4-1-0.4h-34.5c-0.7,0-1.4,0.6-1.4,1.4v34.5 c0,0.4,0.1,0.7,0.4,1c0.3,0.3,0.6,0.4,1,0.4h11.3V133.8z M152.6,96.4v9.3l-5.2-4c-0.5-0.4-1.1-0.4-1.6,0l-5.3,4l0-9.3L152.6,96.4z M140.6,128.1L140.6,128.1l-10,0.1V96.4h7.1v12l0,0c0,0.5,0.3,1,0.7,1.2c0.2,0.1,0.4,0.1,0.6,0.1c0.3,0,0.6-0.1,0.8-0.3l6.7-5l6.7,5 h0c0.4,0.3,1,0.4,1.4,0.1c0.5-0.2,0.7-0.7,0.7-1.2v-12h7.1v29h-19.1C141.8,125.4,140.6,126.6,140.6,128.1L140.6,128.1z M190.6,133.6 l-11.8,8.1c-0.4,0.3-1,0.3-1.4,0.1s-0.7-0.7-0.7-1.2v-2.3c0-0.4-0.1-0.7-0.4-1c-0.3-0.3-0.6-0.4-1-0.4h-31.9v-8.9h32 c0.4,0,0.7-0.1,1-0.4c0.3-0.3,0.4-0.6,0.4-1v-2.4c0-0.5,0.3-1,0.7-1.2c0.4-0.2,1-0.2,1.4,0.1l11.8,8.1c0.4,0.3,0.6,0.7,0.6,1.1 C191.3,132.9,191,133.3,190.6,133.6L190.6,133.6z M195.7,123.9c0,2.4-1.9,4.3-4.3,4.3h-0.6l-10.4-7.2h0c-1.2-0.9-2.9-1-4.2-0.3 c-1.3,0.7-2.2,2.1-2.2,3.6v1.1h-3.1v-13.1h15.4c0.7,0,1.4-0.6,1.4-1.4c0-0.8-0.6-1.4-1.4-1.4h-15.4V98.1h15.4c0.7,0,1.4-0.6,1.4-1.4 c0-0.7-0.6-1.4-1.4-1.4h-15.4V95c0-3.9-3.1-7-7-7H145V76.7c2.6-2.7,4.4-6.1,5.2-9.7c0.8-3.7,0.4-7.5-0.9-11h42.1 c2.4,0,4.3,1.9,4.3,4.3L195.7,123.9z M153.4,68.3c-0.5-0.6-0.4-1.4,0.2-1.9c0.5-0.5,1.4-0.4,1.9,0.1l2.3,2.6l3.9-6.8l0,0 c0.4-0.7,1.2-0.9,1.9-0.5c0.7,0.4,0.9,1.2,0.5,1.9l-4.9,8.5c-0.2,0.4-0.6,0.6-1,0.7h-0.1c-0.4,0-0.8-0.2-1-0.5L153.4,68.3z M187.6,71.4c0,0.4-0.1,0.7-0.4,1c-0.3,0.3-0.6,0.4-1,0.4h-22.3c-0.7,0-1.4-0.6-1.4-1.4c0-0.8,0.6-1.4,1.4-1.4h22.3 c0.4,0,0.7,0.1,1,0.4C187.5,70.7,187.6,71,187.6,71.4L187.6,71.4z M163,76.5l-3.9,6.8c-0.2,0.4-0.6,0.6-1,0.7h-0.1 c-0.4,0-0.8-0.1-1-0.4l-3.5-4c-0.2-0.3-0.4-0.6-0.4-1c0-0.4,0.2-0.7,0.4-1c0.6-0.5,1.4-0.5,1.9,0.1l2.3,2.6l3-5.2 c0.2-0.3,0.5-0.6,0.8-0.7c0.4-0.1,0.7-0.1,1.1,0.1c0.3,0.2,0.5,0.5,0.6,0.9C163.3,75.8,163.2,76.2,163,76.5L163,76.5z M187.6,82.7 L187.6,82.7c0,0.4-0.1,0.7-0.4,1c-0.3,0.3-0.6,0.4-1,0.4h-22.3c-0.7,0-1.4-0.6-1.4-1.4c0-0.8,0.6-1.4,1.4-1.4h22.3 c0.4,0,0.7,0.1,1,0.4C187.5,82,187.6,82.3,187.6,82.7L187.6,82.7z M132.2,74.4L132.2,74.4c0,0.4-0.1,0.7-0.4,1 c-0.3,0.3-0.6,0.4-1,0.4c-5.2,0-9.8-3.1-11.8-7.9c-1.9-4.8-0.8-10.3,2.9-13.9c0.2-0.3,0.6-0.4,1-0.5c0.4,0,0.7,0.1,1,0.4 c0.3,0.3,0.4,0.6,0.4,1s-0.2,0.7-0.5,1c-2.9,2.8-3.8,7.2-2.3,10.9c1.5,3.8,5.2,6.3,9.3,6.2c0.4,0,0.7,0.1,1,0.4 C132.1,73.7,132.2,74,132.2,74.4L132.2,74.4z M143.6,63L143.6,63c0,2.3-0.6,4.5-1.7,6.4c-0.2,0.4-0.7,0.7-1.2,0.7 c-0.2,0-0.5-0.1-0.7-0.2c-0.3-0.2-0.5-0.5-0.6-0.8c-0.1-0.4,0-0.7,0.1-1c2.6-4.5,1.4-10.2-2.9-13.2c-0.3-0.2-0.5-0.5-0.6-0.9 c-0.1-0.4,0-0.8,0.2-1.1c0.2-0.3,0.6-0.5,0.9-0.6c0.4-0.1,0.8,0.1,1,0.3C141.6,55,143.6,58.9,143.6,63L143.6,63z M134.2,65.5 c0.8-1,1.1-2.4,0.7-3.7c-0.4-1.3-1.4-2.3-2.7-2.7v-7.5v0c0-0.8-0.6-1.4-1.4-1.4c-0.8,0-1.4,0.6-1.4,1.4v7.5v0 c-1.9,0.7-3.1,2.6-2.7,4.6c0.3,2,2.1,3.5,4.1,3.5c0.4,0,0.7-0.1,1.1-0.1l5.6,8.4h0c0.3,0.4,0.7,0.6,1.1,0.6c0.3,0,0.5-0.1,0.8-0.2 c0.3-0.2,0.5-0.5,0.6-0.9c0.1-0.4,0-0.7-0.2-1L134.2,65.5z M130.9,64.5L130.9,64.5c-0.6,0-1.1-0.4-1.3-0.9c-0.2-0.5-0.1-1.2,0.3-1.6 c0.4-0.4,1-0.5,1.6-0.3c0.5,0.2,0.9,0.8,0.9,1.3C132.3,63.8,131.6,64.4,130.9,64.5L130.9,64.5z"></path> </svg> 