<?xml version="1.0" encoding="UTF-8"?> <svg xmlns="http://www.w3.org/2000/svg" width="300" height="186" viewBox="0 0 300 186"><g id="Group_3016" data-name="Group 3016" transform="translate(-463 -106)"><rect id="Rectangle_2" data-name="Rectangle 2" width="300" height="186" transform="translate(463 106)" fill="#051c2c"></rect><path id="Path_3227" data-name="Path 3227" d="M21.342,80.1h1.781v1.781A1.781,1.781,0,0,0,24.9,83.662v24.927a7.122,7.122,0,1,0,14.244,0V97.906h.89a6.232,6.232,0,0,0,0-12.464h-.89V83.662a1.781,1.781,0,0,0,1.781-1.781V80.138A45.472,45.472,0,0,1,71.256,93.364a5.342,5.342,0,0,0,10.623-.8V89h6.384l7.86,7.859v11.952a7.122,7.122,0,1,0,3.561,0V96.125a1.781,1.781,0,0,0-.522-1.259l-8.9-8.9A1.781,1.781,0,0,0,89,85.442H81.879V78.32h8.165l11.942,11.942a1.781,1.781,0,0,0,1.259.521h5.567a7.122,7.122,0,1,0,0-3.561h-4.83L92.041,75.281a1.781,1.781,0,0,0-1.259-.521h-8.9V64.076H84.7l6.6,6.6a1.781,1.781,0,0,0,1.259.521h16.25a7.122,7.122,0,1,0,0-3.561H93.3l-3.561-3.561h2.824a1.781,1.781,0,0,0,1.259-.522l11.942-11.942h3.049a7.122,7.122,0,1,0,0-3.561h-3.786a1.781,1.781,0,0,0-1.259.522L91.825,60.515H81.879V53.393H89a1.781,1.781,0,0,0,1.259-.522l8.9-8.9a1.78,1.78,0,0,0,.521-1.259V30.021a7.122,7.122,0,1,0-3.561,0V41.973l-7.86,7.859H81.879V46.271a5.342,5.342,0,0,0-10.623-.8A45.472,45.472,0,0,1,40.927,58.7V56.954a1.781,1.781,0,0,0-1.781-1.781H24.9a1.781,1.781,0,0,0-1.781,1.781v1.781H21.342A5.348,5.348,0,0,0,16,64.076V74.759A5.348,5.348,0,0,0,21.342,80.1Zm80.123,35.61A3.561,3.561,0,1,1,97.9,112.15a3.561,3.561,0,0,1,3.561,3.561Zm14.244-30.269A3.561,3.561,0,1,1,112.148,89a3.561,3.561,0,0,1,3.561-3.561Zm0-19.586a3.561,3.561,0,1,1-3.561,3.561A3.561,3.561,0,0,1,115.709,65.857Zm0-19.586a3.561,3.561,0,1,1-3.561,3.561,3.561,3.561,0,0,1,3.561-3.561ZM94.343,23.124A3.561,3.561,0,1,1,97.9,26.686,3.561,3.561,0,0,1,94.343,23.124ZM40.037,89a2.671,2.671,0,1,1,0,5.342h-.89V89Zm-4.451,19.586a3.561,3.561,0,0,1-7.122,0V83.662h7.122ZM74.757,46.271a1.781,1.781,0,0,1,3.561,0V92.564a1.781,1.781,0,0,1-3.561,0ZM57.923,58.561A48.793,48.793,0,0,0,71.2,50.384V88.452A49.05,49.05,0,0,0,40.927,76.575V62.26a48.793,48.793,0,0,0,17-3.7Zm-31.24.174H37.366V80.1H26.683Zm-7.122,5.342A1.783,1.783,0,0,1,21.342,62.3h1.781V76.54H21.342a1.783,1.783,0,0,1-1.781-1.781Z" transform="translate(544 129.997)" fill="#fff" stroke="#051c2c" stroke-width="1"></path></g></svg> 